M48
; DRILL file {KiCad (6.0.11)} date Tue Apr 11 15:55:58 2023
; FORMAT={-:-/ absolute / inch / decimal}
; #@! TF.CreationDate,2023-04-11T15:55:58+08:00
; #@! TF.GenerationSoftware,Kicad,Pcbnew,(6.0.11)
; #@! TF.FileFunction,Plated,1,2,PTH
FMAT,2
INCH
; #@! TA.AperFunction,Plated,PTH,ViaDrill
T1C0.0079
; #@! TA.AperFunction,Plated,PTH,ViaDrill
T2C0.0118
%
G90
G05
T1
X5.7745Y-3.19
X5.7745Y-3.3144
X5.7745Y-3.4388
X5.7745Y-3.5632
X5.7745Y-3.6876
X5.7745Y-3.812
X5.7745Y-3.9365
X5.7745Y-4.0609
X5.7745Y-4.1853
X5.7745Y-4.3097
X5.7745Y-4.4341
X5.7745Y-4.5585
X5.7745Y-4.6829
X5.7745Y-4.8073
X5.7745Y-4.9317
X5.7745Y-5.0561
X5.7745Y-5.1806
X5.7745Y-5.305
X5.7745Y-5.4294
X5.7745Y-5.5538
X5.7808Y-3.2241
X5.7808Y-3.3485
X5.7808Y-3.4729
X5.7808Y-3.5973
X5.7808Y-3.7217
X5.7808Y-3.8461
X5.7808Y-3.9705
X5.7808Y-4.0949
X5.7808Y-4.2193
X5.7808Y-4.3437
X5.7808Y-4.4681
X5.7808Y-4.5926
X5.7808Y-4.717
X5.7808Y-4.8414
X5.7808Y-4.9658
X5.7808Y-5.0902
X5.7808Y-5.2146
X5.7808Y-5.339
X5.7808Y-5.4634
X5.7808Y-5.5878
X5.8202Y-3.1709
X5.8202Y-3.2953
X5.8202Y-3.4198
X5.8202Y-3.5442
X5.8202Y-3.6686
X5.8202Y-3.793
X5.8202Y-3.9174
X5.8202Y-4.0418
X5.8202Y-4.1662
X5.8202Y-4.2906
X5.8202Y-4.415
X5.8202Y-4.5394
X5.8202Y-4.6639
X5.8202Y-4.7883
X5.8202Y-4.9127
X5.8202Y-5.0371
X5.8202Y-5.1615
X5.8202Y-5.2859
X5.8202Y-5.4103
X5.8202Y-5.5347
X5.8311Y-3.1913
X5.8311Y-3.3157
X5.8311Y-3.4402
X5.8311Y-3.5646
X5.8311Y-3.689
X5.8311Y-3.8134
X5.8311Y-3.9378
X5.8311Y-4.0622
X5.8311Y-4.1866
X5.8311Y-4.311
X5.8311Y-4.4354
X5.8311Y-4.5598
X5.8311Y-4.6843
X5.8311Y-4.8087
X5.8311Y-4.9331
X5.8311Y-5.0575
X5.8311Y-5.1819
X5.8311Y-5.3063
X5.8311Y-5.4307
X5.8311Y-5.5551
X5.8398Y-3.2142
X5.8398Y-3.3386
X5.8398Y-3.463
X5.8398Y-3.5874
X5.8398Y-3.7118
X5.8398Y-3.8362
X5.8398Y-3.9606
X5.8398Y-4.085
X5.8398Y-4.2094
X5.8398Y-4.3339
X5.8398Y-4.4583
X5.8398Y-4.5827
X5.8398Y-4.7071
X5.8398Y-4.8315
X5.8398Y-4.9559
X5.8398Y-5.0803
X5.8398Y-5.2047
X5.8398Y-5.3291
X5.8398Y-5.4535
X5.8398Y-5.578
X5.8849Y-3.1895
X5.8849Y-3.3139
X5.8849Y-3.4383
X5.8849Y-3.5627
X5.8849Y-3.6871
X5.8849Y-3.8115
X5.8849Y-3.9359
X5.8849Y-4.0604
X5.8849Y-4.1848
X5.8849Y-4.3092
X5.8849Y-4.4336
X5.8849Y-4.558
X5.8849Y-4.6824
X5.8849Y-4.8068
X5.8849Y-4.9312
X5.8849Y-5.0556
X5.8849Y-5.18
X5.8849Y-5.3044
X5.8849Y-5.4289
X5.8849Y-5.5533
X6.1265Y-3.19
X6.1265Y-3.3144
X6.1265Y-3.4388
X6.1265Y-3.5632
X6.1265Y-3.6876
X6.1265Y-3.812
X6.1265Y-3.9365
X6.1265Y-4.0609
X6.1265Y-4.1853
X6.1265Y-4.3097
X6.1265Y-4.4341
X6.1265Y-4.5585
X6.1265Y-4.6829
X6.1265Y-4.8073
X6.1265Y-4.9317
X6.1265Y-5.0561
X6.1265Y-5.1806
X6.1265Y-5.305
X6.1265Y-5.4294
X6.1265Y-5.5538
X6.1328Y-3.2241
X6.1328Y-3.3485
X6.1328Y-3.4729
X6.1328Y-3.5973
X6.1328Y-3.7217
X6.1328Y-3.8461
X6.1328Y-3.9705
X6.1328Y-4.0949
X6.1328Y-4.2193
X6.1328Y-4.3437
X6.1328Y-4.4681
X6.1328Y-4.5926
X6.1328Y-4.717
X6.1328Y-4.8414
X6.1328Y-4.9658
X6.1328Y-5.0902
X6.1328Y-5.2146
X6.1328Y-5.339
X6.1328Y-5.4634
X6.1328Y-5.5878
X6.1722Y-3.1709
X6.1722Y-3.2953
X6.1722Y-3.4198
X6.1722Y-3.5442
X6.1722Y-3.6686
X6.1722Y-3.793
X6.1722Y-3.9174
X6.1722Y-4.0418
X6.1722Y-4.1662
X6.1722Y-4.2906
X6.1722Y-4.415
X6.1722Y-4.5394
X6.1722Y-4.6639
X6.1722Y-4.7883
X6.1722Y-4.9127
X6.1722Y-5.0371
X6.1722Y-5.1615
X6.1722Y-5.2859
X6.1722Y-5.4103
X6.1722Y-5.5347
X6.1831Y-3.1913
X6.1831Y-3.3157
X6.1831Y-3.4402
X6.1831Y-3.5646
X6.1831Y-3.689
X6.1831Y-3.8134
X6.1831Y-3.9378
X6.1831Y-4.0622
X6.1831Y-4.1866
X6.1831Y-4.311
X6.1831Y-4.4354
X6.1831Y-4.5598
X6.1831Y-4.6843
X6.1831Y-4.8087
X6.1831Y-4.9331
X6.1831Y-5.0575
X6.1831Y-5.1819
X6.1831Y-5.3063
X6.1831Y-5.4307
X6.1831Y-5.5551
X6.1917Y-3.2142
X6.1917Y-3.3386
X6.1917Y-3.463
X6.1917Y-3.5874
X6.1917Y-3.7118
X6.1917Y-3.8362
X6.1917Y-3.9606
X6.1917Y-4.085
X6.1917Y-4.2094
X6.1917Y-4.3339
X6.1917Y-4.4583
X6.1917Y-4.5827
X6.1917Y-4.7071
X6.1917Y-4.8315
X6.1917Y-4.9559
X6.1917Y-5.0803
X6.1917Y-5.2047
X6.1917Y-5.3291
X6.1917Y-5.4535
X6.1917Y-5.578
X6.2369Y-3.1895
X6.2369Y-3.3139
X6.2369Y-3.4383
X6.2369Y-3.5627
X6.2369Y-3.6871
X6.2369Y-3.8115
X6.2369Y-3.9359
X6.2369Y-4.0604
X6.2369Y-4.1848
X6.2369Y-4.3092
X6.2369Y-4.4336
X6.2369Y-4.558
X6.2369Y-4.6824
X6.2369Y-4.8068
X6.2369Y-4.9312
X6.2369Y-5.0556
X6.2369Y-5.18
X6.2369Y-5.3044
X6.2369Y-5.4289
X6.2369Y-5.5533
X6.4785Y-3.19
X6.4785Y-3.3144
X6.4785Y-3.4388
X6.4785Y-3.5632
X6.4785Y-3.6876
X6.4785Y-3.812
X6.4785Y-3.9365
X6.4785Y-4.0609
X6.4785Y-4.1853
X6.4785Y-4.3097
X6.4785Y-4.4341
X6.4785Y-4.5585
X6.4785Y-4.6829
X6.4785Y-4.8073
X6.4785Y-4.9317
X6.4785Y-5.0561
X6.4785Y-5.1806
X6.4785Y-5.305
X6.4785Y-5.4294
X6.4785Y-5.5538
X6.4847Y-3.2241
X6.4847Y-3.3485
X6.4847Y-3.4729
X6.4847Y-3.5973
X6.4847Y-3.7217
X6.4847Y-3.8461
X6.4847Y-3.9705
X6.4847Y-4.0949
X6.4847Y-4.2193
X6.4847Y-4.3437
X6.4847Y-4.4681
X6.4847Y-4.5926
X6.4847Y-4.717
X6.4847Y-4.8414
X6.4847Y-4.9658
X6.4847Y-5.0902
X6.4847Y-5.2146
X6.4847Y-5.339
X6.4847Y-5.4634
X6.4847Y-5.5878
X6.5241Y-3.1709
X6.5241Y-3.2953
X6.5241Y-3.4198
X6.5241Y-3.5442
X6.5241Y-3.6686
X6.5241Y-3.793
X6.5241Y-3.9174
X6.5241Y-4.0418
X6.5241Y-4.1662
X6.5241Y-4.2906
X6.5241Y-4.415
X6.5241Y-4.5394
X6.5241Y-4.6639
X6.5241Y-4.7883
X6.5241Y-4.9127
X6.5241Y-5.0371
X6.5241Y-5.1615
X6.5241Y-5.2859
X6.5241Y-5.4103
X6.5241Y-5.5347
X6.535Y-3.1913
X6.535Y-3.3157
X6.535Y-3.4402
X6.535Y-3.5646
X6.535Y-3.689
X6.535Y-3.8134
X6.535Y-3.9378
X6.535Y-4.0622
X6.535Y-4.1866
X6.535Y-4.311
X6.535Y-4.4354
X6.535Y-4.5598
X6.535Y-4.6843
X6.535Y-4.8087
X6.535Y-4.9331
X6.535Y-5.0575
X6.535Y-5.1819
X6.535Y-5.3063
X6.535Y-5.4307
X6.535Y-5.5551
X6.5437Y-3.2142
X6.5437Y-3.3386
X6.5437Y-3.463
X6.5437Y-3.5874
X6.5437Y-3.7118
X6.5437Y-3.8362
X6.5437Y-3.9606
X6.5437Y-4.085
X6.5437Y-4.2094
X6.5437Y-4.3339
X6.5437Y-4.4583
X6.5437Y-4.5827
X6.5437Y-4.7071
X6.5437Y-4.8315
X6.5437Y-4.9559
X6.5437Y-5.0803
X6.5437Y-5.2047
X6.5437Y-5.3291
X6.5437Y-5.4535
X6.5437Y-5.578
X6.5889Y-3.1895
X6.5889Y-3.3139
X6.5889Y-3.4383
X6.5889Y-3.5627
X6.5889Y-3.6871
X6.5889Y-3.8115
X6.5889Y-3.9359
X6.5889Y-4.0604
X6.5889Y-4.1848
X6.5889Y-4.3092
X6.5889Y-4.4336
X6.5889Y-4.558
X6.5889Y-4.6824
X6.5889Y-4.8068
X6.5889Y-4.9312
X6.5889Y-5.0556
X6.5889Y-5.18
X6.5889Y-5.3044
X6.5889Y-5.4289
X6.5889Y-5.5533
X6.8304Y-3.19
X6.8304Y-3.3144
X6.8304Y-3.4388
X6.8304Y-3.5632
X6.8304Y-3.6876
X6.8304Y-3.812
X6.8304Y-3.9365
X6.8304Y-4.0609
X6.8304Y-4.1853
X6.8304Y-4.3097
X6.8304Y-4.4341
X6.8304Y-4.5585
X6.8304Y-4.6829
X6.8304Y-4.8073
X6.8304Y-4.9317
X6.8304Y-5.0561
X6.8304Y-5.1806
X6.8304Y-5.305
X6.8304Y-5.4294
X6.8304Y-5.5538
X6.8367Y-3.2241
X6.8367Y-3.3485
X6.8367Y-3.4729
X6.8367Y-3.5973
X6.8367Y-3.7217
X6.8367Y-3.8461
X6.8367Y-3.9705
X6.8367Y-4.0949
X6.8367Y-4.2193
X6.8367Y-4.3437
X6.8367Y-4.4681
X6.8367Y-4.5926
X6.8367Y-4.717
X6.8367Y-4.8414
X6.8367Y-4.9658
X6.8367Y-5.0902
X6.8367Y-5.2146
X6.8367Y-5.339
X6.8367Y-5.4634
X6.8367Y-5.5878
X6.8761Y-3.1709
X6.8761Y-3.2953
X6.8761Y-3.4198
X6.8761Y-3.5442
X6.8761Y-3.6686
X6.8761Y-3.793
X6.8761Y-3.9174
X6.8761Y-4.0418
X6.8761Y-4.1662
X6.8761Y-4.2906
X6.8761Y-4.415
X6.8761Y-4.5394
X6.8761Y-4.6639
X6.8761Y-4.7883
X6.8761Y-4.9127
X6.8761Y-5.0371
X6.8761Y-5.1615
X6.8761Y-5.2859
X6.8761Y-5.4103
X6.8761Y-5.5347
X6.887Y-3.1913
X6.887Y-3.3157
X6.887Y-3.4402
X6.887Y-3.5646
X6.887Y-3.689
X6.887Y-3.8134
X6.887Y-3.9378
X6.887Y-4.0622
X6.887Y-4.1866
X6.887Y-4.311
X6.887Y-4.4354
X6.887Y-4.5598
X6.887Y-4.6843
X6.887Y-4.8087
X6.887Y-4.9331
X6.887Y-5.0575
X6.887Y-5.1819
X6.887Y-5.3063
X6.887Y-5.4307
X6.887Y-5.5551
X6.8957Y-3.2142
X6.8957Y-3.3386
X6.8957Y-3.463
X6.8957Y-3.5874
X6.8957Y-3.7118
X6.8957Y-3.8362
X6.8957Y-3.9606
X6.8957Y-4.085
X6.8957Y-4.2094
X6.8957Y-4.3339
X6.8957Y-4.4583
X6.8957Y-4.5827
X6.8957Y-4.7071
X6.8957Y-4.8315
X6.8957Y-4.9559
X6.8957Y-5.0803
X6.8957Y-5.2047
X6.8957Y-5.3291
X6.8957Y-5.4535
X6.8957Y-5.578
X6.9408Y-3.1895
X6.9408Y-3.3139
X6.9408Y-3.4383
X6.9408Y-3.5627
X6.9408Y-3.6871
X6.9408Y-3.8115
X6.9408Y-3.9359
X6.9408Y-4.0604
X6.9408Y-4.1848
X6.9408Y-4.3092
X6.9408Y-4.4336
X6.9408Y-4.558
X6.9408Y-4.6824
X6.9408Y-4.8068
X6.9408Y-4.9312
X6.9408Y-5.0556
X6.9408Y-5.18
X6.9408Y-5.3044
X6.9408Y-5.4289
X6.9408Y-5.5533
X7.1824Y-3.19
X7.1824Y-3.3144
X7.1824Y-3.4388
X7.1824Y-3.5632
X7.1824Y-3.6876
X7.1824Y-3.812
X7.1824Y-3.9365
X7.1824Y-4.0609
X7.1824Y-4.1853
X7.1824Y-4.3097
X7.1824Y-4.4341
X7.1824Y-4.5585
X7.1824Y-4.6829
X7.1824Y-4.8073
X7.1824Y-4.9317
X7.1824Y-5.0561
X7.1824Y-5.1806
X7.1824Y-5.305
X7.1824Y-5.4294
X7.1824Y-5.5538
X7.1887Y-3.2241
X7.1887Y-3.3485
X7.1887Y-3.4729
X7.1887Y-3.5973
X7.1887Y-3.7217
X7.1887Y-3.8461
X7.1887Y-3.9705
X7.1887Y-4.0949
X7.1887Y-4.2193
X7.1887Y-4.3437
X7.1887Y-4.4681
X7.1887Y-4.5926
X7.1887Y-4.717
X7.1887Y-4.8414
X7.1887Y-4.9658
X7.1887Y-5.0902
X7.1887Y-5.2146
X7.1887Y-5.339
X7.1887Y-5.4634
X7.1887Y-5.5878
X7.2281Y-3.1709
X7.2281Y-3.2953
X7.2281Y-3.4198
X7.2281Y-3.5442
X7.2281Y-3.6686
X7.2281Y-3.793
X7.2281Y-3.9174
X7.2281Y-4.0418
X7.2281Y-4.1662
X7.2281Y-4.2906
X7.2281Y-4.415
X7.2281Y-4.5394
X7.2281Y-4.6639
X7.2281Y-4.7883
X7.2281Y-4.9127
X7.2281Y-5.0371
X7.2281Y-5.1615
X7.2281Y-5.2859
X7.2281Y-5.4103
X7.2281Y-5.5347
X7.239Y-3.1913
X7.239Y-3.3157
X7.239Y-3.4402
X7.239Y-3.5646
X7.239Y-3.689
X7.239Y-3.8134
X7.239Y-3.9378
X7.239Y-4.0622
X7.239Y-4.1866
X7.239Y-4.311
X7.239Y-4.4354
X7.239Y-4.5598
X7.239Y-4.6843
X7.239Y-4.8087
X7.239Y-4.9331
X7.239Y-5.0575
X7.239Y-5.1819
X7.239Y-5.3063
X7.239Y-5.4307
X7.239Y-5.5551
X7.2476Y-3.2142
X7.2476Y-3.3386
X7.2476Y-3.463
X7.2476Y-3.5874
X7.2476Y-3.7118
X7.2476Y-3.8362
X7.2476Y-3.9606
X7.2476Y-4.085
X7.2476Y-4.2094
X7.2476Y-4.3339
X7.2476Y-4.4583
X7.2476Y-4.5827
X7.2476Y-4.7071
X7.2476Y-4.8315
X7.2476Y-4.9559
X7.2476Y-5.0803
X7.2476Y-5.2047
X7.2476Y-5.3291
X7.2476Y-5.4535
X7.2476Y-5.578
X7.2928Y-3.1895
X7.2928Y-3.3139
X7.2928Y-3.4383
X7.2928Y-3.5627
X7.2928Y-3.6871
X7.2928Y-3.8115
X7.2928Y-3.9359
X7.2928Y-4.0604
X7.2928Y-4.1848
X7.2928Y-4.3092
X7.2928Y-4.4336
X7.2928Y-4.558
X7.2928Y-4.6824
X7.2928Y-4.8068
X7.2928Y-4.9312
X7.2928Y-5.0556
X7.2928Y-5.18
X7.2928Y-5.3044
X7.2928Y-5.4289
X7.2928Y-5.5533
X7.5344Y-3.19
X7.5344Y-3.3144
X7.5344Y-3.4388
X7.5344Y-3.5632
X7.5344Y-3.6876
X7.5344Y-3.812
X7.5344Y-3.9365
X7.5344Y-4.0609
X7.5344Y-4.1853
X7.5344Y-4.3097
X7.5344Y-4.4341
X7.5344Y-4.5585
X7.5344Y-4.6829
X7.5344Y-4.8073
X7.5344Y-4.9317
X7.5344Y-5.0561
X7.5344Y-5.1806
X7.5344Y-5.305
X7.5344Y-5.4294
X7.5344Y-5.5538
X7.5406Y-3.2241
X7.5406Y-3.3485
X7.5406Y-3.4729
X7.5406Y-3.5973
X7.5406Y-3.7217
X7.5406Y-3.8461
X7.5406Y-3.9705
X7.5406Y-4.0949
X7.5406Y-4.2193
X7.5406Y-4.3437
X7.5406Y-4.4681
X7.5406Y-4.5926
X7.5406Y-4.717
X7.5406Y-4.8414
X7.5406Y-4.9658
X7.5406Y-5.0902
X7.5406Y-5.2146
X7.5406Y-5.339
X7.5406Y-5.4634
X7.5406Y-5.5878
X7.58Y-3.1709
X7.58Y-3.2953
X7.58Y-3.4198
X7.58Y-3.5442
X7.58Y-3.6686
X7.58Y-3.793
X7.58Y-3.9174
X7.58Y-4.0418
X7.58Y-4.1662
X7.58Y-4.2906
X7.58Y-4.415
X7.58Y-4.5394
X7.58Y-4.6639
X7.58Y-4.7883
X7.58Y-4.9127
X7.58Y-5.0371
X7.58Y-5.1615
X7.58Y-5.2859
X7.58Y-5.4103
X7.58Y-5.5347
X7.5909Y-3.1913
X7.5909Y-3.3157
X7.5909Y-3.4402
X7.5909Y-3.5646
X7.5909Y-3.689
X7.5909Y-3.8134
X7.5909Y-3.9378
X7.5909Y-4.0622
X7.5909Y-4.1866
X7.5909Y-4.311
X7.5909Y-4.4354
X7.5909Y-4.5598
X7.5909Y-4.6843
X7.5909Y-4.8087
X7.5909Y-4.9331
X7.5909Y-5.0575
X7.5909Y-5.1819
X7.5909Y-5.3063
X7.5909Y-5.4307
X7.5909Y-5.5551
X7.5996Y-3.2142
X7.5996Y-3.3386
X7.5996Y-3.463
X7.5996Y-3.5874
X7.5996Y-3.7118
X7.5996Y-3.8362
X7.5996Y-3.9606
X7.5996Y-4.085
X7.5996Y-4.2094
X7.5996Y-4.3339
X7.5996Y-4.4583
X7.5996Y-4.5827
X7.5996Y-4.7071
X7.5996Y-4.8315
X7.5996Y-4.9559
X7.5996Y-5.0803
X7.5996Y-5.2047
X7.5996Y-5.3291
X7.5996Y-5.4535
X7.5996Y-5.578
X7.6448Y-3.1895
X7.6448Y-3.3139
X7.6448Y-3.4383
X7.6448Y-3.5627
X7.6448Y-3.6871
X7.6448Y-3.8115
X7.6448Y-3.9359
X7.6448Y-4.0604
X7.6448Y-4.1848
X7.6448Y-4.3092
X7.6448Y-4.4336
X7.6448Y-4.558
X7.6448Y-4.6824
X7.6448Y-4.8068
X7.6448Y-4.9312
X7.6448Y-5.0556
X7.6448Y-5.18
X7.6448Y-5.3044
X7.6448Y-5.4289
X7.6448Y-5.5533
X7.8864Y-3.19
X7.8864Y-3.3144
X7.8864Y-3.4388
X7.8864Y-3.5632
X7.8864Y-3.6876
X7.8864Y-3.812
X7.8864Y-3.9365
X7.8864Y-4.0609
X7.8864Y-4.1853
X7.8864Y-4.3097
X7.8864Y-4.4341
X7.8864Y-4.5585
X7.8864Y-4.6829
X7.8864Y-4.8073
X7.8864Y-4.9317
X7.8864Y-5.0561
X7.8864Y-5.1806
X7.8864Y-5.305
X7.8864Y-5.4294
X7.8864Y-5.5538
X7.8926Y-3.2241
X7.8926Y-3.3485
X7.8926Y-3.4729
X7.8926Y-3.5973
X7.8926Y-3.7217
X7.8926Y-3.8461
X7.8926Y-3.9705
X7.8926Y-4.0949
X7.8926Y-4.2193
X7.8926Y-4.3437
X7.8926Y-4.4681
X7.8926Y-4.5926
X7.8926Y-4.717
X7.8926Y-4.8414
X7.8926Y-4.9658
X7.8926Y-5.0902
X7.8926Y-5.2146
X7.8926Y-5.339
X7.8926Y-5.4634
X7.8926Y-5.5878
X7.932Y-3.1709
X7.932Y-3.2953
X7.932Y-3.4198
X7.932Y-3.5442
X7.932Y-3.6686
X7.932Y-3.793
X7.932Y-3.9174
X7.932Y-4.0418
X7.932Y-4.1662
X7.932Y-4.2906
X7.932Y-4.415
X7.932Y-4.5394
X7.932Y-4.6639
X7.932Y-4.7883
X7.932Y-4.9127
X7.932Y-5.0371
X7.932Y-5.1615
X7.932Y-5.2859
X7.932Y-5.4103
X7.932Y-5.5347
X7.9429Y-3.1913
X7.9429Y-3.3157
X7.9429Y-3.4402
X7.9429Y-3.5646
X7.9429Y-3.689
X7.9429Y-3.8134
X7.9429Y-3.9378
X7.9429Y-4.0622
X7.9429Y-4.1866
X7.9429Y-4.311
X7.9429Y-4.4354
X7.9429Y-4.5598
X7.9429Y-4.6843
X7.9429Y-4.8087
X7.9429Y-4.9331
X7.9429Y-5.0575
X7.9429Y-5.1819
X7.9429Y-5.3063
X7.9429Y-5.4307
X7.9429Y-5.5551
X7.9516Y-3.2142
X7.9516Y-3.3386
X7.9516Y-3.463
X7.9516Y-3.5874
X7.9516Y-3.7118
X7.9516Y-3.8362
X7.9516Y-3.9606
X7.9516Y-4.085
X7.9516Y-4.2094
X7.9516Y-4.3339
X7.9516Y-4.4583
X7.9516Y-4.5827
X7.9516Y-4.7071
X7.9516Y-4.8315
X7.9516Y-4.9559
X7.9516Y-5.0803
X7.9516Y-5.2047
X7.9516Y-5.3291
X7.9516Y-5.4535
X7.9516Y-5.578
X7.9968Y-3.1895
X7.9968Y-3.3139
X7.9968Y-3.4383
X7.9968Y-3.5627
X7.9968Y-3.6871
X7.9968Y-3.8115
X7.9968Y-3.9359
X7.9968Y-4.0604
X7.9968Y-4.1848
X7.9968Y-4.3092
X7.9968Y-4.4336
X7.9968Y-4.558
X7.9968Y-4.6824
X7.9968Y-4.8068
X7.9968Y-4.9312
X7.9968Y-5.0556
X7.9968Y-5.18
X7.9968Y-5.3044
X7.9968Y-5.4289
X7.9968Y-5.5533
X8.2383Y-3.19
X8.2383Y-3.3144
X8.2383Y-3.4388
X8.2383Y-3.5632
X8.2383Y-3.6876
X8.2383Y-3.812
X8.2383Y-3.9365
X8.2383Y-4.0609
X8.2383Y-4.1853
X8.2383Y-4.3097
X8.2383Y-4.4341
X8.2383Y-4.5585
X8.2383Y-4.6829
X8.2383Y-4.8073
X8.2383Y-4.9317
X8.2383Y-5.0561
X8.2383Y-5.1806
X8.2383Y-5.305
X8.2383Y-5.4294
X8.2383Y-5.5538
X8.2446Y-3.2241
X8.2446Y-3.3485
X8.2446Y-3.4729
X8.2446Y-3.5973
X8.2446Y-3.7217
X8.2446Y-3.8461
X8.2446Y-3.9705
X8.2446Y-4.0949
X8.2446Y-4.2193
X8.2446Y-4.3437
X8.2446Y-4.4681
X8.2446Y-4.5926
X8.2446Y-4.717
X8.2446Y-4.8414
X8.2446Y-4.9658
X8.2446Y-5.0902
X8.2446Y-5.2146
X8.2446Y-5.339
X8.2446Y-5.4634
X8.2446Y-5.5878
X8.284Y-3.1709
X8.284Y-3.2953
X8.284Y-3.4198
X8.284Y-3.5442
X8.284Y-3.6686
X8.284Y-3.793
X8.284Y-3.9174
X8.284Y-4.0418
X8.284Y-4.1662
X8.284Y-4.2906
X8.284Y-4.415
X8.284Y-4.5394
X8.284Y-4.6639
X8.284Y-4.7883
X8.284Y-4.9127
X8.284Y-5.0371
X8.284Y-5.1615
X8.284Y-5.2859
X8.284Y-5.4103
X8.284Y-5.5347
X8.2949Y-3.1913
X8.2949Y-3.3157
X8.2949Y-3.4402
X8.2949Y-3.5646
X8.2949Y-3.689
X8.2949Y-3.8134
X8.2949Y-3.9378
X8.2949Y-4.0622
X8.2949Y-4.1866
X8.2949Y-4.311
X8.2949Y-4.4354
X8.2949Y-4.5598
X8.2949Y-4.6843
X8.2949Y-4.8087
X8.2949Y-4.9331
X8.2949Y-5.0575
X8.2949Y-5.1819
X8.2949Y-5.3063
X8.2949Y-5.4307
X8.2949Y-5.5551
X8.3035Y-3.2142
X8.3035Y-3.3386
X8.3035Y-3.463
X8.3035Y-3.5874
X8.3035Y-3.7118
X8.3035Y-3.8362
X8.3035Y-3.9606
X8.3035Y-4.085
X8.3035Y-4.2094
X8.3035Y-4.3339
X8.3035Y-4.4583
X8.3035Y-4.5827
X8.3035Y-4.7071
X8.3035Y-4.8315
X8.3035Y-4.9559
X8.3035Y-5.0803
X8.3035Y-5.2047
X8.3035Y-5.3291
X8.3035Y-5.4535
X8.3035Y-5.578
X8.3487Y-3.1895
X8.3487Y-3.3139
X8.3487Y-3.4383
X8.3487Y-3.5627
X8.3487Y-3.6871
X8.3487Y-3.8115
X8.3487Y-3.9359
X8.3487Y-4.0604
X8.3487Y-4.1848
X8.3487Y-4.3092
X8.3487Y-4.4336
X8.3487Y-4.558
X8.3487Y-4.6824
X8.3487Y-4.8068
X8.3487Y-4.9312
X8.3487Y-5.0556
X8.3487Y-5.18
X8.3487Y-5.3044
X8.3487Y-5.4289
X8.3487Y-5.5533
X8.5903Y-3.19
X8.5903Y-3.3144
X8.5903Y-3.4388
X8.5903Y-3.5632
X8.5903Y-3.6876
X8.5903Y-3.812
X8.5903Y-3.9365
X8.5903Y-4.0609
X8.5903Y-4.1853
X8.5903Y-4.3097
X8.5903Y-4.4341
X8.5903Y-4.5585
X8.5903Y-4.6829
X8.5903Y-4.8073
X8.5903Y-4.9317
X8.5903Y-5.0561
X8.5903Y-5.1806
X8.5903Y-5.305
X8.5903Y-5.4294
X8.5903Y-5.5538
X8.5965Y-3.2241
X8.5965Y-3.3485
X8.5965Y-3.4729
X8.5965Y-3.5973
X8.5965Y-3.7217
X8.5965Y-3.8461
X8.5965Y-3.9705
X8.5965Y-4.0949
X8.5965Y-4.2193
X8.5965Y-4.3437
X8.5965Y-4.4681
X8.5965Y-4.5926
X8.5965Y-4.717
X8.5965Y-4.8414
X8.5965Y-4.9658
X8.5965Y-5.0902
X8.5965Y-5.2146
X8.5965Y-5.339
X8.5965Y-5.4634
X8.5965Y-5.5878
X8.6359Y-3.1709
X8.6359Y-3.2953
X8.6359Y-3.4198
X8.6359Y-3.5442
X8.6359Y-3.6686
X8.6359Y-3.793
X8.6359Y-3.9174
X8.6359Y-4.0418
X8.6359Y-4.1662
X8.6359Y-4.2906
X8.6359Y-4.415
X8.6359Y-4.5394
X8.6359Y-4.6639
X8.6359Y-4.7883
X8.6359Y-4.9127
X8.6359Y-5.0371
X8.6359Y-5.1615
X8.6359Y-5.2859
X8.6359Y-5.4103
X8.6359Y-5.5347
X8.6469Y-3.1913
X8.6469Y-3.3157
X8.6469Y-3.4402
X8.6469Y-3.5646
X8.6469Y-3.689
X8.6469Y-3.8134
X8.6469Y-3.9378
X8.6469Y-4.0622
X8.6469Y-4.1866
X8.6469Y-4.311
X8.6469Y-4.4354
X8.6469Y-4.5598
X8.6469Y-4.6843
X8.6469Y-4.8087
X8.6469Y-4.9331
X8.6469Y-5.0575
X8.6469Y-5.1819
X8.6469Y-5.3063
X8.6469Y-5.4307
X8.6469Y-5.5551
X8.6555Y-3.2142
X8.6555Y-3.3386
X8.6555Y-3.463
X8.6555Y-3.5874
X8.6555Y-3.7118
X8.6555Y-3.8362
X8.6555Y-3.9606
X8.6555Y-4.085
X8.6555Y-4.2094
X8.6555Y-4.3339
X8.6555Y-4.4583
X8.6555Y-4.5827
X8.6555Y-4.7071
X8.6555Y-4.8315
X8.6555Y-4.9559
X8.6555Y-5.0803
X8.6555Y-5.2047
X8.6555Y-5.3291
X8.6555Y-5.4535
X8.6555Y-5.578
X8.7007Y-3.1895
X8.7007Y-3.3139
X8.7007Y-3.4383
X8.7007Y-3.5627
X8.7007Y-3.6871
X8.7007Y-3.8115
X8.7007Y-3.9359
X8.7007Y-4.0604
X8.7007Y-4.1848
X8.7007Y-4.3092
X8.7007Y-4.4336
X8.7007Y-4.558
X8.7007Y-4.6824
X8.7007Y-4.8068
X8.7007Y-4.9312
X8.7007Y-5.0556
X8.7007Y-5.18
X8.7007Y-5.3044
X8.7007Y-5.4289
X8.7007Y-5.5533
X8.9423Y-3.19
X8.9423Y-3.3144
X8.9423Y-3.4388
X8.9423Y-3.5632
X8.9423Y-3.6876
X8.9423Y-3.812
X8.9423Y-3.9365
X8.9423Y-4.0609
X8.9423Y-4.1853
X8.9423Y-4.3097
X8.9423Y-4.4341
X8.9423Y-4.5585
X8.9423Y-4.6829
X8.9423Y-4.8073
X8.9423Y-4.9317
X8.9423Y-5.0561
X8.9423Y-5.1806
X8.9423Y-5.305
X8.9423Y-5.4294
X8.9423Y-5.5538
X8.9485Y-3.2241
X8.9485Y-3.3485
X8.9485Y-3.4729
X8.9485Y-3.5973
X8.9485Y-3.7217
X8.9485Y-3.8461
X8.9485Y-3.9705
X8.9485Y-4.0949
X8.9485Y-4.2193
X8.9485Y-4.3437
X8.9485Y-4.4681
X8.9485Y-4.5926
X8.9485Y-4.717
X8.9485Y-4.8414
X8.9485Y-4.9658
X8.9485Y-5.0902
X8.9485Y-5.2146
X8.9485Y-5.339
X8.9485Y-5.4634
X8.9485Y-5.5878
X8.9879Y-3.1709
X8.9879Y-3.2953
X8.9879Y-3.4198
X8.9879Y-3.5442
X8.9879Y-3.6686
X8.9879Y-3.793
X8.9879Y-3.9174
X8.9879Y-4.0418
X8.9879Y-4.1662
X8.9879Y-4.2906
X8.9879Y-4.415
X8.9879Y-4.5394
X8.9879Y-4.6639
X8.9879Y-4.7883
X8.9879Y-4.9127
X8.9879Y-5.0371
X8.9879Y-5.1615
X8.9879Y-5.2859
X8.9879Y-5.4103
X8.9879Y-5.5347
X8.9988Y-3.1913
X8.9988Y-3.3157
X8.9988Y-3.4402
X8.9988Y-3.5646
X8.9988Y-3.689
X8.9988Y-3.8134
X8.9988Y-3.9378
X8.9988Y-4.0622
X8.9988Y-4.1866
X8.9988Y-4.311
X8.9988Y-4.4354
X8.9988Y-4.5598
X8.9988Y-4.6843
X8.9988Y-4.8087
X8.9988Y-4.9331
X8.9988Y-5.0575
X8.9988Y-5.1819
X8.9988Y-5.3063
X8.9988Y-5.4307
X8.9988Y-5.5551
X9.0075Y-3.2142
X9.0075Y-3.3386
X9.0075Y-3.463
X9.0075Y-3.5874
X9.0075Y-3.7118
X9.0075Y-3.8362
X9.0075Y-3.9606
X9.0075Y-4.085
X9.0075Y-4.2094
X9.0075Y-4.3339
X9.0075Y-4.4583
X9.0075Y-4.5827
X9.0075Y-4.7071
X9.0075Y-4.8315
X9.0075Y-4.9559
X9.0075Y-5.0803
X9.0075Y-5.2047
X9.0075Y-5.3291
X9.0075Y-5.4535
X9.0075Y-5.578
X9.0527Y-3.1895
X9.0527Y-3.3139
X9.0527Y-3.4383
X9.0527Y-3.5627
X9.0527Y-3.6871
X9.0527Y-3.8115
X9.0527Y-3.9359
X9.0527Y-4.0604
X9.0527Y-4.1848
X9.0527Y-4.3092
X9.0527Y-4.4336
X9.0527Y-4.558
X9.0527Y-4.6824
X9.0527Y-4.8068
X9.0527Y-4.9312
X9.0527Y-5.0556
X9.0527Y-5.18
X9.0527Y-5.3044
X9.0527Y-5.4289
X9.0527Y-5.5533
T2
X5.68Y-3.15
X5.68Y-3.23
X5.68Y-3.2744
X5.68Y-3.3544
X5.68Y-3.3988
X5.68Y-3.4788
X5.68Y-3.5232
X5.68Y-3.6032
X5.68Y-3.6476
X5.68Y-3.7276
X5.68Y-3.772
X5.68Y-3.852
X5.68Y-3.8965
X5.68Y-3.9765
X5.68Y-4.0209
X5.68Y-4.1009
X5.68Y-4.1453
X5.68Y-4.2253
X5.68Y-4.2697
X5.68Y-4.3497
X5.68Y-4.3941
X5.68Y-4.4741
X5.68Y-4.5185
X5.68Y-4.5985
X5.68Y-4.6429
X5.68Y-4.7229
X5.68Y-4.7673
X5.68Y-4.8473
X5.68Y-4.8917
X5.68Y-4.9717
X5.68Y-5.0161
X5.68Y-5.0961
X5.68Y-5.1406
X5.68Y-5.2206
X5.68Y-5.265
X5.68Y-5.345
X5.68Y-5.3894
X5.68Y-5.4694
X5.68Y-5.5138
X5.68Y-5.5938
X5.7303Y-3.2323
X5.7303Y-3.3567
X5.7303Y-3.4811
X5.7303Y-3.6055
X5.7303Y-3.7299
X5.7303Y-3.8543
X5.7303Y-3.9787
X5.7303Y-4.1031
X5.7303Y-4.2276
X5.7303Y-4.352
X5.7303Y-4.4764
X5.7303Y-4.6008
X5.7303Y-4.7252
X5.7303Y-4.8496
X5.7303Y-4.974
X5.7303Y-5.0984
X5.7303Y-5.2228
X5.7303Y-5.3472
X5.7303Y-5.4717
X5.7303Y-5.5961
X5.7769Y-3.1559
X5.7769Y-3.2803
X5.7769Y-3.4047
X5.7769Y-3.5291
X5.7769Y-3.6535
X5.7769Y-3.778
X5.7769Y-3.9024
X5.7769Y-4.0268
X5.7769Y-4.1512
X5.7769Y-4.2756
X5.7769Y-4.4
X5.7769Y-4.5244
X5.7769Y-4.6488
X5.7769Y-4.7732
X5.7769Y-4.8976
X5.7769Y-5.022
X5.7769Y-5.1465
X5.7769Y-5.2709
X5.7769Y-5.3953
X5.7769Y-5.5197
X5.8831Y-3.1559
X5.8831Y-3.2803
X5.8831Y-3.4047
X5.8831Y-3.5291
X5.8831Y-3.6535
X5.8831Y-3.778
X5.8831Y-3.9024
X5.8831Y-4.0268
X5.8831Y-4.1512
X5.8831Y-4.2756
X5.8831Y-4.4
X5.8831Y-4.5244
X5.8831Y-4.6488
X5.8831Y-4.7732
X5.8831Y-4.8976
X5.8831Y-5.022
X5.8831Y-5.1465
X5.8831Y-5.2709
X5.8831Y-5.3953
X5.8831Y-5.5197
X5.9291Y-3.2343
X5.9291Y-3.3587
X5.9291Y-3.4831
X5.9291Y-3.6075
X5.9291Y-3.7319
X5.9291Y-3.8563
X5.9291Y-3.9807
X5.9291Y-4.1051
X5.9291Y-4.2295
X5.9291Y-4.3539
X5.9291Y-4.4783
X5.9291Y-4.6028
X5.9291Y-4.7272
X5.9291Y-4.8516
X5.9291Y-4.976
X5.9291Y-5.1004
X5.9291Y-5.2248
X5.9291Y-5.3492
X5.9291Y-5.4736
X5.9291Y-5.598
X5.98Y-3.15
X5.98Y-3.23
X5.98Y-3.2744
X5.98Y-3.3544
X5.98Y-3.3988
X5.98Y-3.4788
X5.98Y-3.5232
X5.98Y-3.6032
X5.98Y-3.6476
X5.98Y-3.7276
X5.98Y-3.772
X5.98Y-3.852
X5.98Y-3.8965
X5.98Y-3.9765
X5.98Y-4.0209
X5.98Y-4.1009
X5.98Y-4.1453
X5.98Y-4.2253
X5.98Y-4.2697
X5.98Y-4.3497
X5.98Y-4.3941
X5.98Y-4.4741
X5.98Y-4.5185
X5.98Y-4.5985
X5.98Y-4.6429
X5.98Y-4.7229
X5.98Y-4.7673
X5.98Y-4.8473
X5.98Y-4.8917
X5.98Y-4.9717
X5.98Y-5.0161
X5.98Y-5.0961
X5.98Y-5.1406
X5.98Y-5.2206
X5.98Y-5.265
X5.98Y-5.345
X5.98Y-5.3894
X5.98Y-5.4694
X5.98Y-5.5138
X5.98Y-5.5938
X6.032Y-3.15
X6.032Y-3.23
X6.032Y-3.2744
X6.032Y-3.3544
X6.032Y-3.3988
X6.032Y-3.4788
X6.032Y-3.5232
X6.032Y-3.6032
X6.032Y-3.6476
X6.032Y-3.7276
X6.032Y-3.772
X6.032Y-3.852
X6.032Y-3.8965
X6.032Y-3.9765
X6.032Y-4.0209
X6.032Y-4.1009
X6.032Y-4.1453
X6.032Y-4.2253
X6.032Y-4.2697
X6.032Y-4.3497
X6.032Y-4.3941
X6.032Y-4.4741
X6.032Y-4.5185
X6.032Y-4.5985
X6.032Y-4.6429
X6.032Y-4.7229
X6.032Y-4.7673
X6.032Y-4.8473
X6.032Y-4.8917
X6.032Y-4.9717
X6.032Y-5.0161
X6.032Y-5.0961
X6.032Y-5.1406
X6.032Y-5.2206
X6.032Y-5.265
X6.032Y-5.345
X6.032Y-5.3894
X6.032Y-5.4694
X6.032Y-5.5138
X6.032Y-5.5938
X6.0823Y-3.2323
X6.0823Y-3.3567
X6.0823Y-3.4811
X6.0823Y-3.6055
X6.0823Y-3.7299
X6.0823Y-3.8543
X6.0823Y-3.9787
X6.0823Y-4.1031
X6.0823Y-4.2276
X6.0823Y-4.352
X6.0823Y-4.4764
X6.0823Y-4.6008
X6.0823Y-4.7252
X6.0823Y-4.8496
X6.0823Y-4.974
X6.0823Y-5.0984
X6.0823Y-5.2228
X6.0823Y-5.3472
X6.0823Y-5.4717
X6.0823Y-5.5961
X6.1288Y-3.1559
X6.1288Y-3.2803
X6.1288Y-3.4047
X6.1288Y-3.5291
X6.1288Y-3.6535
X6.1288Y-3.778
X6.1288Y-3.9024
X6.1288Y-4.0268
X6.1288Y-4.1512
X6.1288Y-4.2756
X6.1288Y-4.4
X6.1288Y-4.5244
X6.1288Y-4.6488
X6.1288Y-4.7732
X6.1288Y-4.8976
X6.1288Y-5.022
X6.1288Y-5.1465
X6.1288Y-5.2709
X6.1288Y-5.3953
X6.1288Y-5.5197
X6.2351Y-3.1559
X6.2351Y-3.2803
X6.2351Y-3.4047
X6.2351Y-3.5291
X6.2351Y-3.6535
X6.2351Y-3.778
X6.2351Y-3.9024
X6.2351Y-4.0268
X6.2351Y-4.1512
X6.2351Y-4.2756
X6.2351Y-4.4
X6.2351Y-4.5244
X6.2351Y-4.6488
X6.2351Y-4.7732
X6.2351Y-4.8976
X6.2351Y-5.022
X6.2351Y-5.1465
X6.2351Y-5.2709
X6.2351Y-5.3953
X6.2351Y-5.5197
X6.2811Y-3.2343
X6.2811Y-3.3587
X6.2811Y-3.4831
X6.2811Y-3.6075
X6.2811Y-3.7319
X6.2811Y-3.8563
X6.2811Y-3.9807
X6.2811Y-4.1051
X6.2811Y-4.2295
X6.2811Y-4.3539
X6.2811Y-4.4783
X6.2811Y-4.6028
X6.2811Y-4.7272
X6.2811Y-4.8516
X6.2811Y-4.976
X6.2811Y-5.1004
X6.2811Y-5.2248
X6.2811Y-5.3492
X6.2811Y-5.4736
X6.2811Y-5.598
X6.332Y-3.15
X6.332Y-3.23
X6.332Y-3.2744
X6.332Y-3.3544
X6.332Y-3.3988
X6.332Y-3.4788
X6.332Y-3.5232
X6.332Y-3.6032
X6.332Y-3.6476
X6.332Y-3.7276
X6.332Y-3.772
X6.332Y-3.852
X6.332Y-3.8965
X6.332Y-3.9765
X6.332Y-4.0209
X6.332Y-4.1009
X6.332Y-4.1453
X6.332Y-4.2253
X6.332Y-4.2697
X6.332Y-4.3497
X6.332Y-4.3941
X6.332Y-4.4741
X6.332Y-4.5185
X6.332Y-4.5985
X6.332Y-4.6429
X6.332Y-4.7229
X6.332Y-4.7673
X6.332Y-4.8473
X6.332Y-4.8917
X6.332Y-4.9717
X6.332Y-5.0161
X6.332Y-5.0961
X6.332Y-5.1406
X6.332Y-5.2206
X6.332Y-5.265
X6.332Y-5.345
X6.332Y-5.3894
X6.332Y-5.4694
X6.332Y-5.5138
X6.332Y-5.5938
X6.3839Y-3.15
X6.3839Y-3.23
X6.3839Y-3.2744
X6.3839Y-3.3544
X6.3839Y-3.3988
X6.3839Y-3.4788
X6.3839Y-3.5232
X6.3839Y-3.6032
X6.3839Y-3.6476
X6.3839Y-3.7276
X6.3839Y-3.772
X6.3839Y-3.852
X6.3839Y-3.8965
X6.3839Y-3.9765
X6.3839Y-4.0209
X6.3839Y-4.1009
X6.3839Y-4.1453
X6.3839Y-4.2253
X6.3839Y-4.2697
X6.3839Y-4.3497
X6.3839Y-4.3941
X6.3839Y-4.4741
X6.3839Y-4.5185
X6.3839Y-4.5985
X6.3839Y-4.6429
X6.3839Y-4.7229
X6.3839Y-4.7673
X6.3839Y-4.8473
X6.3839Y-4.8917
X6.3839Y-4.9717
X6.3839Y-5.0161
X6.3839Y-5.0961
X6.3839Y-5.1406
X6.3839Y-5.2206
X6.3839Y-5.265
X6.3839Y-5.345
X6.3839Y-5.3894
X6.3839Y-5.4694
X6.3839Y-5.5138
X6.3839Y-5.5938
X6.4343Y-3.2323
X6.4343Y-3.3567
X6.4343Y-3.4811
X6.4343Y-3.6055
X6.4343Y-3.7299
X6.4343Y-3.8543
X6.4343Y-3.9787
X6.4343Y-4.1031
X6.4343Y-4.2276
X6.4343Y-4.352
X6.4343Y-4.4764
X6.4343Y-4.6008
X6.4343Y-4.7252
X6.4343Y-4.8496
X6.4343Y-4.974
X6.4343Y-5.0984
X6.4343Y-5.2228
X6.4343Y-5.3472
X6.4343Y-5.4717
X6.4343Y-5.5961
X6.4808Y-3.1559
X6.4808Y-3.2803
X6.4808Y-3.4047
X6.4808Y-3.5291
X6.4808Y-3.6535
X6.4808Y-3.778
X6.4808Y-3.9024
X6.4808Y-4.0268
X6.4808Y-4.1512
X6.4808Y-4.2756
X6.4808Y-4.4
X6.4808Y-4.5244
X6.4808Y-4.6488
X6.4808Y-4.7732
X6.4808Y-4.8976
X6.4808Y-5.022
X6.4808Y-5.1465
X6.4808Y-5.2709
X6.4808Y-5.3953
X6.4808Y-5.5197
X6.5871Y-3.1559
X6.5871Y-3.2803
X6.5871Y-3.4047
X6.5871Y-3.5291
X6.5871Y-3.6535
X6.5871Y-3.778
X6.5871Y-3.9024
X6.5871Y-4.0268
X6.5871Y-4.1512
X6.5871Y-4.2756
X6.5871Y-4.4
X6.5871Y-4.5244
X6.5871Y-4.6488
X6.5871Y-4.7732
X6.5871Y-4.8976
X6.5871Y-5.022
X6.5871Y-5.1465
X6.5871Y-5.2709
X6.5871Y-5.3953
X6.5871Y-5.5197
X6.6331Y-3.2343
X6.6331Y-3.3587
X6.6331Y-3.4831
X6.6331Y-3.6075
X6.6331Y-3.7319
X6.6331Y-3.8563
X6.6331Y-3.9807
X6.6331Y-4.1051
X6.6331Y-4.2295
X6.6331Y-4.3539
X6.6331Y-4.4783
X6.6331Y-4.6028
X6.6331Y-4.7272
X6.6331Y-4.8516
X6.6331Y-4.976
X6.6331Y-5.1004
X6.6331Y-5.2248
X6.6331Y-5.3492
X6.6331Y-5.4736
X6.6331Y-5.598
X6.6839Y-3.15
X6.6839Y-3.23
X6.6839Y-3.2744
X6.6839Y-3.3544
X6.6839Y-3.3988
X6.6839Y-3.4788
X6.6839Y-3.5232
X6.6839Y-3.6032
X6.6839Y-3.6476
X6.6839Y-3.7276
X6.6839Y-3.772
X6.6839Y-3.852
X6.6839Y-3.8965
X6.6839Y-3.9765
X6.6839Y-4.0209
X6.6839Y-4.1009
X6.6839Y-4.1453
X6.6839Y-4.2253
X6.6839Y-4.2697
X6.6839Y-4.3497
X6.6839Y-4.3941
X6.6839Y-4.4741
X6.6839Y-4.5185
X6.6839Y-4.5985
X6.6839Y-4.6429
X6.6839Y-4.7229
X6.6839Y-4.7673
X6.6839Y-4.8473
X6.6839Y-4.8917
X6.6839Y-4.9717
X6.6839Y-5.0161
X6.6839Y-5.0961
X6.6839Y-5.1406
X6.6839Y-5.2206
X6.6839Y-5.265
X6.6839Y-5.345
X6.6839Y-5.3894
X6.6839Y-5.4694
X6.6839Y-5.5138
X6.6839Y-5.5938
X6.7359Y-3.15
X6.7359Y-3.23
X6.7359Y-3.2744
X6.7359Y-3.3544
X6.7359Y-3.3988
X6.7359Y-3.4788
X6.7359Y-3.5232
X6.7359Y-3.6032
X6.7359Y-3.6476
X6.7359Y-3.7276
X6.7359Y-3.772
X6.7359Y-3.852
X6.7359Y-3.8965
X6.7359Y-3.9765
X6.7359Y-4.0209
X6.7359Y-4.1009
X6.7359Y-4.1453
X6.7359Y-4.2253
X6.7359Y-4.2697
X6.7359Y-4.3497
X6.7359Y-4.3941
X6.7359Y-4.4741
X6.7359Y-4.5185
X6.7359Y-4.5985
X6.7359Y-4.6429
X6.7359Y-4.7229
X6.7359Y-4.7673
X6.7359Y-4.8473
X6.7359Y-4.8917
X6.7359Y-4.9717
X6.7359Y-5.0161
X6.7359Y-5.0961
X6.7359Y-5.1406
X6.7359Y-5.2206
X6.7359Y-5.265
X6.7359Y-5.345
X6.7359Y-5.3894
X6.7359Y-5.4694
X6.7359Y-5.5138
X6.7359Y-5.5938
X6.7862Y-3.2323
X6.7862Y-3.3567
X6.7862Y-3.4811
X6.7862Y-3.6055
X6.7862Y-3.7299
X6.7862Y-3.8543
X6.7862Y-3.9787
X6.7862Y-4.1031
X6.7862Y-4.2276
X6.7862Y-4.352
X6.7862Y-4.4764
X6.7862Y-4.6008
X6.7862Y-4.7252
X6.7862Y-4.8496
X6.7862Y-4.974
X6.7862Y-5.0984
X6.7862Y-5.2228
X6.7862Y-5.3472
X6.7862Y-5.4717
X6.7862Y-5.5961
X6.8328Y-3.1559
X6.8328Y-3.2803
X6.8328Y-3.4047
X6.8328Y-3.5291
X6.8328Y-3.6535
X6.8328Y-3.778
X6.8328Y-3.9024
X6.8328Y-4.0268
X6.8328Y-4.1512
X6.8328Y-4.2756
X6.8328Y-4.4
X6.8328Y-4.5244
X6.8328Y-4.6488
X6.8328Y-4.7732
X6.8328Y-4.8976
X6.8328Y-5.022
X6.8328Y-5.1465
X6.8328Y-5.2709
X6.8328Y-5.3953
X6.8328Y-5.5197
X6.939Y-3.1559
X6.939Y-3.2803
X6.939Y-3.4047
X6.939Y-3.5291
X6.939Y-3.6535
X6.939Y-3.778
X6.939Y-3.9024
X6.939Y-4.0268
X6.939Y-4.1512
X6.939Y-4.2756
X6.939Y-4.4
X6.939Y-4.5244
X6.939Y-4.6488
X6.939Y-4.7732
X6.939Y-4.8976
X6.939Y-5.022
X6.939Y-5.1465
X6.939Y-5.2709
X6.939Y-5.3953
X6.939Y-5.5197
X6.985Y-3.2343
X6.985Y-3.3587
X6.985Y-3.4831
X6.985Y-3.6075
X6.985Y-3.7319
X6.985Y-3.8563
X6.985Y-3.9807
X6.985Y-4.1051
X6.985Y-4.2295
X6.985Y-4.3539
X6.985Y-4.4783
X6.985Y-4.6028
X6.985Y-4.7272
X6.985Y-4.8516
X6.985Y-4.976
X6.985Y-5.1004
X6.985Y-5.2248
X6.985Y-5.3492
X6.985Y-5.4736
X6.985Y-5.598
X7.0359Y-3.15
X7.0359Y-3.23
X7.0359Y-3.2744
X7.0359Y-3.3544
X7.0359Y-3.3988
X7.0359Y-3.4788
X7.0359Y-3.5232
X7.0359Y-3.6032
X7.0359Y-3.6476
X7.0359Y-3.7276
X7.0359Y-3.772
X7.0359Y-3.852
X7.0359Y-3.8965
X7.0359Y-3.9765
X7.0359Y-4.0209
X7.0359Y-4.1009
X7.0359Y-4.1453
X7.0359Y-4.2253
X7.0359Y-4.2697
X7.0359Y-4.3497
X7.0359Y-4.3941
X7.0359Y-4.4741
X7.0359Y-4.5185
X7.0359Y-4.5985
X7.0359Y-4.6429
X7.0359Y-4.7229
X7.0359Y-4.7673
X7.0359Y-4.8473
X7.0359Y-4.8917
X7.0359Y-4.9717
X7.0359Y-5.0161
X7.0359Y-5.0961
X7.0359Y-5.1406
X7.0359Y-5.2206
X7.0359Y-5.265
X7.0359Y-5.345
X7.0359Y-5.3894
X7.0359Y-5.4694
X7.0359Y-5.5138
X7.0359Y-5.5938
X7.0879Y-3.15
X7.0879Y-3.23
X7.0879Y-3.2744
X7.0879Y-3.3544
X7.0879Y-3.3988
X7.0879Y-3.4788
X7.0879Y-3.5232
X7.0879Y-3.6032
X7.0879Y-3.6476
X7.0879Y-3.7276
X7.0879Y-3.772
X7.0879Y-3.852
X7.0879Y-3.8965
X7.0879Y-3.9765
X7.0879Y-4.0209
X7.0879Y-4.1009
X7.0879Y-4.1453
X7.0879Y-4.2253
X7.0879Y-4.2697
X7.0879Y-4.3497
X7.0879Y-4.3941
X7.0879Y-4.4741
X7.0879Y-4.5185
X7.0879Y-4.5985
X7.0879Y-4.6429
X7.0879Y-4.7229
X7.0879Y-4.7673
X7.0879Y-4.8473
X7.0879Y-4.8917
X7.0879Y-4.9717
X7.0879Y-5.0161
X7.0879Y-5.0961
X7.0879Y-5.1406
X7.0879Y-5.2206
X7.0879Y-5.265
X7.0879Y-5.345
X7.0879Y-5.3894
X7.0879Y-5.4694
X7.0879Y-5.5138
X7.0879Y-5.5938
X7.1382Y-3.2323
X7.1382Y-3.3567
X7.1382Y-3.4811
X7.1382Y-3.6055
X7.1382Y-3.7299
X7.1382Y-3.8543
X7.1382Y-3.9787
X7.1382Y-4.1031
X7.1382Y-4.2276
X7.1382Y-4.352
X7.1382Y-4.4764
X7.1382Y-4.6008
X7.1382Y-4.7252
X7.1382Y-4.8496
X7.1382Y-4.974
X7.1382Y-5.0984
X7.1382Y-5.2228
X7.1382Y-5.3472
X7.1382Y-5.4717
X7.1382Y-5.5961
X7.1847Y-3.1559
X7.1847Y-3.2803
X7.1847Y-3.4047
X7.1847Y-3.5291
X7.1847Y-3.6535
X7.1847Y-3.778
X7.1847Y-3.9024
X7.1847Y-4.0268
X7.1847Y-4.1512
X7.1847Y-4.2756
X7.1847Y-4.4
X7.1847Y-4.5244
X7.1847Y-4.6488
X7.1847Y-4.7732
X7.1847Y-4.8976
X7.1847Y-5.022
X7.1847Y-5.1465
X7.1847Y-5.2709
X7.1847Y-5.3953
X7.1847Y-5.5197
X7.291Y-3.1559
X7.291Y-3.2803
X7.291Y-3.4047
X7.291Y-3.5291
X7.291Y-3.6535
X7.291Y-3.778
X7.291Y-3.9024
X7.291Y-4.0268
X7.291Y-4.1512
X7.291Y-4.2756
X7.291Y-4.4
X7.291Y-4.5244
X7.291Y-4.6488
X7.291Y-4.7732
X7.291Y-4.8976
X7.291Y-5.022
X7.291Y-5.1465
X7.291Y-5.2709
X7.291Y-5.3953
X7.291Y-5.5197
X7.337Y-3.2343
X7.337Y-3.3587
X7.337Y-3.4831
X7.337Y-3.6075
X7.337Y-3.7319
X7.337Y-3.8563
X7.337Y-3.9807
X7.337Y-4.1051
X7.337Y-4.2295
X7.337Y-4.3539
X7.337Y-4.4783
X7.337Y-4.6028
X7.337Y-4.7272
X7.337Y-4.8516
X7.337Y-4.976
X7.337Y-5.1004
X7.337Y-5.2248
X7.337Y-5.3492
X7.337Y-5.4736
X7.337Y-5.598
X7.3879Y-3.15
X7.3879Y-3.23
X7.3879Y-3.2744
X7.3879Y-3.3544
X7.3879Y-3.3988
X7.3879Y-3.4788
X7.3879Y-3.5232
X7.3879Y-3.6032
X7.3879Y-3.6476
X7.3879Y-3.7276
X7.3879Y-3.772
X7.3879Y-3.852
X7.3879Y-3.8965
X7.3879Y-3.9765
X7.3879Y-4.0209
X7.3879Y-4.1009
X7.3879Y-4.1453
X7.3879Y-4.2253
X7.3879Y-4.2697
X7.3879Y-4.3497
X7.3879Y-4.3941
X7.3879Y-4.4741
X7.3879Y-4.5185
X7.3879Y-4.5985
X7.3879Y-4.6429
X7.3879Y-4.7229
X7.3879Y-4.7673
X7.3879Y-4.8473
X7.3879Y-4.8917
X7.3879Y-4.9717
X7.3879Y-5.0161
X7.3879Y-5.0961
X7.3879Y-5.1406
X7.3879Y-5.2206
X7.3879Y-5.265
X7.3879Y-5.345
X7.3879Y-5.3894
X7.3879Y-5.4694
X7.3879Y-5.5138
X7.3879Y-5.5938
X7.4398Y-3.15
X7.4398Y-3.23
X7.4398Y-3.2744
X7.4398Y-3.3544
X7.4398Y-3.3988
X7.4398Y-3.4788
X7.4398Y-3.5232
X7.4398Y-3.6032
X7.4398Y-3.6476
X7.4398Y-3.7276
X7.4398Y-3.772
X7.4398Y-3.852
X7.4398Y-3.8965
X7.4398Y-3.9765
X7.4398Y-4.0209
X7.4398Y-4.1009
X7.4398Y-4.1453
X7.4398Y-4.2253
X7.4398Y-4.2697
X7.4398Y-4.3497
X7.4398Y-4.3941
X7.4398Y-4.4741
X7.4398Y-4.5185
X7.4398Y-4.5985
X7.4398Y-4.6429
X7.4398Y-4.7229
X7.4398Y-4.7673
X7.4398Y-4.8473
X7.4398Y-4.8917
X7.4398Y-4.9717
X7.4398Y-5.0161
X7.4398Y-5.0961
X7.4398Y-5.1406
X7.4398Y-5.2206
X7.4398Y-5.265
X7.4398Y-5.345
X7.4398Y-5.3894
X7.4398Y-5.4694
X7.4398Y-5.5138
X7.4398Y-5.5938
X7.4902Y-3.2323
X7.4902Y-3.3567
X7.4902Y-3.4811
X7.4902Y-3.6055
X7.4902Y-3.7299
X7.4902Y-3.8543
X7.4902Y-3.9787
X7.4902Y-4.1031
X7.4902Y-4.2276
X7.4902Y-4.352
X7.4902Y-4.4764
X7.4902Y-4.6008
X7.4902Y-4.7252
X7.4902Y-4.8496
X7.4902Y-4.974
X7.4902Y-5.0984
X7.4902Y-5.2228
X7.4902Y-5.3472
X7.4902Y-5.4717
X7.4902Y-5.5961
X7.5367Y-3.1559
X7.5367Y-3.2803
X7.5367Y-3.4047
X7.5367Y-3.5291
X7.5367Y-3.6535
X7.5367Y-3.778
X7.5367Y-3.9024
X7.5367Y-4.0268
X7.5367Y-4.1512
X7.5367Y-4.2756
X7.5367Y-4.4
X7.5367Y-4.5244
X7.5367Y-4.6488
X7.5367Y-4.7732
X7.5367Y-4.8976
X7.5367Y-5.022
X7.5367Y-5.1465
X7.5367Y-5.2709
X7.5367Y-5.3953
X7.5367Y-5.5197
X7.643Y-3.1559
X7.643Y-3.2803
X7.643Y-3.4047
X7.643Y-3.5291
X7.643Y-3.6535
X7.643Y-3.778
X7.643Y-3.9024
X7.643Y-4.0268
X7.643Y-4.1512
X7.643Y-4.2756
X7.643Y-4.4
X7.643Y-4.5244
X7.643Y-4.6488
X7.643Y-4.7732
X7.643Y-4.8976
X7.643Y-5.022
X7.643Y-5.1465
X7.643Y-5.2709
X7.643Y-5.3953
X7.643Y-5.5197
X7.689Y-3.2343
X7.689Y-3.3587
X7.689Y-3.4831
X7.689Y-3.6075
X7.689Y-3.7319
X7.689Y-3.8563
X7.689Y-3.9807
X7.689Y-4.1051
X7.689Y-4.2295
X7.689Y-4.3539
X7.689Y-4.4783
X7.689Y-4.6028
X7.689Y-4.7272
X7.689Y-4.8516
X7.689Y-4.976
X7.689Y-5.1004
X7.689Y-5.2248
X7.689Y-5.3492
X7.689Y-5.4736
X7.689Y-5.598
X7.7398Y-3.15
X7.7398Y-3.23
X7.7398Y-3.2744
X7.7398Y-3.3544
X7.7398Y-3.3988
X7.7398Y-3.4788
X7.7398Y-3.5232
X7.7398Y-3.6032
X7.7398Y-3.6476
X7.7398Y-3.7276
X7.7398Y-3.772
X7.7398Y-3.852
X7.7398Y-3.8965
X7.7398Y-3.9765
X7.7398Y-4.0209
X7.7398Y-4.1009
X7.7398Y-4.1453
X7.7398Y-4.2253
X7.7398Y-4.2697
X7.7398Y-4.3497
X7.7398Y-4.3941
X7.7398Y-4.4741
X7.7398Y-4.5185
X7.7398Y-4.5985
X7.7398Y-4.6429
X7.7398Y-4.7229
X7.7398Y-4.7673
X7.7398Y-4.8473
X7.7398Y-4.8917
X7.7398Y-4.9717
X7.7398Y-5.0161
X7.7398Y-5.0961
X7.7398Y-5.1406
X7.7398Y-5.2206
X7.7398Y-5.265
X7.7398Y-5.345
X7.7398Y-5.3894
X7.7398Y-5.4694
X7.7398Y-5.5138
X7.7398Y-5.5938
X7.7918Y-3.15
X7.7918Y-3.23
X7.7918Y-3.2744
X7.7918Y-3.3544
X7.7918Y-3.3988
X7.7918Y-3.4788
X7.7918Y-3.5232
X7.7918Y-3.6032
X7.7918Y-3.6476
X7.7918Y-3.7276
X7.7918Y-3.772
X7.7918Y-3.852
X7.7918Y-3.8965
X7.7918Y-3.9765
X7.7918Y-4.0209
X7.7918Y-4.1009
X7.7918Y-4.1453
X7.7918Y-4.2253
X7.7918Y-4.2697
X7.7918Y-4.3497
X7.7918Y-4.3941
X7.7918Y-4.4741
X7.7918Y-4.5185
X7.7918Y-4.5985
X7.7918Y-4.6429
X7.7918Y-4.7229
X7.7918Y-4.7673
X7.7918Y-4.8473
X7.7918Y-4.8917
X7.7918Y-4.9717
X7.7918Y-5.0161
X7.7918Y-5.0961
X7.7918Y-5.1406
X7.7918Y-5.2206
X7.7918Y-5.265
X7.7918Y-5.345
X7.7918Y-5.3894
X7.7918Y-5.4694
X7.7918Y-5.5138
X7.7918Y-5.5938
X7.8421Y-3.2323
X7.8421Y-3.3567
X7.8421Y-3.4811
X7.8421Y-3.6055
X7.8421Y-3.7299
X7.8421Y-3.8543
X7.8421Y-3.9787
X7.8421Y-4.1031
X7.8421Y-4.2276
X7.8421Y-4.352
X7.8421Y-4.4764
X7.8421Y-4.6008
X7.8421Y-4.7252
X7.8421Y-4.8496
X7.8421Y-4.974
X7.8421Y-5.0984
X7.8421Y-5.2228
X7.8421Y-5.3472
X7.8421Y-5.4717
X7.8421Y-5.5961
X7.8887Y-3.1559
X7.8887Y-3.2803
X7.8887Y-3.4047
X7.8887Y-3.5291
X7.8887Y-3.6535
X7.8887Y-3.778
X7.8887Y-3.9024
X7.8887Y-4.0268
X7.8887Y-4.1512
X7.8887Y-4.2756
X7.8887Y-4.4
X7.8887Y-4.5244
X7.8887Y-4.6488
X7.8887Y-4.7732
X7.8887Y-4.8976
X7.8887Y-5.022
X7.8887Y-5.1465
X7.8887Y-5.2709
X7.8887Y-5.3953
X7.8887Y-5.5197
X7.9949Y-3.1559
X7.9949Y-3.2803
X7.9949Y-3.4047
X7.9949Y-3.5291
X7.9949Y-3.6535
X7.9949Y-3.778
X7.9949Y-3.9024
X7.9949Y-4.0268
X7.9949Y-4.1512
X7.9949Y-4.2756
X7.9949Y-4.4
X7.9949Y-4.5244
X7.9949Y-4.6488
X7.9949Y-4.7732
X7.9949Y-4.8976
X7.9949Y-5.022
X7.9949Y-5.1465
X7.9949Y-5.2709
X7.9949Y-5.3953
X7.9949Y-5.5197
X8.0409Y-3.2343
X8.0409Y-3.3587
X8.0409Y-3.4831
X8.0409Y-3.6075
X8.0409Y-3.7319
X8.0409Y-3.8563
X8.0409Y-3.9807
X8.0409Y-4.1051
X8.0409Y-4.2295
X8.0409Y-4.3539
X8.0409Y-4.4783
X8.0409Y-4.6028
X8.0409Y-4.7272
X8.0409Y-4.8516
X8.0409Y-4.976
X8.0409Y-5.1004
X8.0409Y-5.2248
X8.0409Y-5.3492
X8.0409Y-5.4736
X8.0409Y-5.598
X8.0918Y-3.15
X8.0918Y-3.23
X8.0918Y-3.2744
X8.0918Y-3.3544
X8.0918Y-3.3988
X8.0918Y-3.4788
X8.0918Y-3.5232
X8.0918Y-3.6032
X8.0918Y-3.6476
X8.0918Y-3.7276
X8.0918Y-3.772
X8.0918Y-3.852
X8.0918Y-3.8965
X8.0918Y-3.9765
X8.0918Y-4.0209
X8.0918Y-4.1009
X8.0918Y-4.1453
X8.0918Y-4.2253
X8.0918Y-4.2697
X8.0918Y-4.3497
X8.0918Y-4.3941
X8.0918Y-4.4741
X8.0918Y-4.5185
X8.0918Y-4.5985
X8.0918Y-4.6429
X8.0918Y-4.7229
X8.0918Y-4.7673
X8.0918Y-4.8473
X8.0918Y-4.8917
X8.0918Y-4.9717
X8.0918Y-5.0161
X8.0918Y-5.0961
X8.0918Y-5.1406
X8.0918Y-5.2206
X8.0918Y-5.265
X8.0918Y-5.345
X8.0918Y-5.3894
X8.0918Y-5.4694
X8.0918Y-5.5138
X8.0918Y-5.5938
X8.1438Y-3.15
X8.1438Y-3.23
X8.1438Y-3.2744
X8.1438Y-3.3544
X8.1438Y-3.3988
X8.1438Y-3.4788
X8.1438Y-3.5232
X8.1438Y-3.6032
X8.1438Y-3.6476
X8.1438Y-3.7276
X8.1438Y-3.772
X8.1438Y-3.852
X8.1438Y-3.8965
X8.1438Y-3.9765
X8.1438Y-4.0209
X8.1438Y-4.1009
X8.1438Y-4.1453
X8.1438Y-4.2253
X8.1438Y-4.2697
X8.1438Y-4.3497
X8.1438Y-4.3941
X8.1438Y-4.4741
X8.1438Y-4.5185
X8.1438Y-4.5985
X8.1438Y-4.6429
X8.1438Y-4.7229
X8.1438Y-4.7673
X8.1438Y-4.8473
X8.1438Y-4.8917
X8.1438Y-4.9717
X8.1438Y-5.0161
X8.1438Y-5.0961
X8.1438Y-5.1406
X8.1438Y-5.2206
X8.1438Y-5.265
X8.1438Y-5.345
X8.1438Y-5.3894
X8.1438Y-5.4694
X8.1438Y-5.5138
X8.1438Y-5.5938
X8.1941Y-3.2323
X8.1941Y-3.3567
X8.1941Y-3.4811
X8.1941Y-3.6055
X8.1941Y-3.7299
X8.1941Y-3.8543
X8.1941Y-3.9787
X8.1941Y-4.1031
X8.1941Y-4.2276
X8.1941Y-4.352
X8.1941Y-4.4764
X8.1941Y-4.6008
X8.1941Y-4.7252
X8.1941Y-4.8496
X8.1941Y-4.974
X8.1941Y-5.0984
X8.1941Y-5.2228
X8.1941Y-5.3472
X8.1941Y-5.4717
X8.1941Y-5.5961
X8.2406Y-3.1559
X8.2406Y-3.2803
X8.2406Y-3.4047
X8.2406Y-3.5291
X8.2406Y-3.6535
X8.2406Y-3.778
X8.2406Y-3.9024
X8.2406Y-4.0268
X8.2406Y-4.1512
X8.2406Y-4.2756
X8.2406Y-4.4
X8.2406Y-4.5244
X8.2406Y-4.6488
X8.2406Y-4.7732
X8.2406Y-4.8976
X8.2406Y-5.022
X8.2406Y-5.1465
X8.2406Y-5.2709
X8.2406Y-5.3953
X8.2406Y-5.5197
X8.3469Y-3.1559
X8.3469Y-3.2803
X8.3469Y-3.4047
X8.3469Y-3.5291
X8.3469Y-3.6535
X8.3469Y-3.778
X8.3469Y-3.9024
X8.3469Y-4.0268
X8.3469Y-4.1512
X8.3469Y-4.2756
X8.3469Y-4.4
X8.3469Y-4.5244
X8.3469Y-4.6488
X8.3469Y-4.7732
X8.3469Y-4.8976
X8.3469Y-5.022
X8.3469Y-5.1465
X8.3469Y-5.2709
X8.3469Y-5.3953
X8.3469Y-5.5197
X8.3929Y-3.2343
X8.3929Y-3.3587
X8.3929Y-3.4831
X8.3929Y-3.6075
X8.3929Y-3.7319
X8.3929Y-3.8563
X8.3929Y-3.9807
X8.3929Y-4.1051
X8.3929Y-4.2295
X8.3929Y-4.3539
X8.3929Y-4.4783
X8.3929Y-4.6028
X8.3929Y-4.7272
X8.3929Y-4.8516
X8.3929Y-4.976
X8.3929Y-5.1004
X8.3929Y-5.2248
X8.3929Y-5.3492
X8.3929Y-5.4736
X8.3929Y-5.598
X8.4438Y-3.15
X8.4438Y-3.23
X8.4438Y-3.2744
X8.4438Y-3.3544
X8.4438Y-3.3988
X8.4438Y-3.4788
X8.4438Y-3.5232
X8.4438Y-3.6032
X8.4438Y-3.6476
X8.4438Y-3.7276
X8.4438Y-3.772
X8.4438Y-3.852
X8.4438Y-3.8965
X8.4438Y-3.9765
X8.4438Y-4.0209
X8.4438Y-4.1009
X8.4438Y-4.1453
X8.4438Y-4.2253
X8.4438Y-4.2697
X8.4438Y-4.3497
X8.4438Y-4.3941
X8.4438Y-4.4741
X8.4438Y-4.5185
X8.4438Y-4.5985
X8.4438Y-4.6429
X8.4438Y-4.7229
X8.4438Y-4.7673
X8.4438Y-4.8473
X8.4438Y-4.8917
X8.4438Y-4.9717
X8.4438Y-5.0161
X8.4438Y-5.0961
X8.4438Y-5.1406
X8.4438Y-5.2206
X8.4438Y-5.265
X8.4438Y-5.345
X8.4438Y-5.3894
X8.4438Y-5.4694
X8.4438Y-5.5138
X8.4438Y-5.5938
X8.4957Y-3.15
X8.4957Y-3.23
X8.4957Y-3.2744
X8.4957Y-3.3544
X8.4957Y-3.3988
X8.4957Y-3.4788
X8.4957Y-3.5232
X8.4957Y-3.6032
X8.4957Y-3.6476
X8.4957Y-3.7276
X8.4957Y-3.772
X8.4957Y-3.852
X8.4957Y-3.8965
X8.4957Y-3.9765
X8.4957Y-4.0209
X8.4957Y-4.1009
X8.4957Y-4.1453
X8.4957Y-4.2253
X8.4957Y-4.2697
X8.4957Y-4.3497
X8.4957Y-4.3941
X8.4957Y-4.4741
X8.4957Y-4.5185
X8.4957Y-4.5985
X8.4957Y-4.6429
X8.4957Y-4.7229
X8.4957Y-4.7673
X8.4957Y-4.8473
X8.4957Y-4.8917
X8.4957Y-4.9717
X8.4957Y-5.0161
X8.4957Y-5.0961
X8.4957Y-5.1406
X8.4957Y-5.2206
X8.4957Y-5.265
X8.4957Y-5.345
X8.4957Y-5.3894
X8.4957Y-5.4694
X8.4957Y-5.5138
X8.4957Y-5.5938
X8.5461Y-3.2323
X8.5461Y-3.3567
X8.5461Y-3.4811
X8.5461Y-3.6055
X8.5461Y-3.7299
X8.5461Y-3.8543
X8.5461Y-3.9787
X8.5461Y-4.1031
X8.5461Y-4.2276
X8.5461Y-4.352
X8.5461Y-4.4764
X8.5461Y-4.6008
X8.5461Y-4.7252
X8.5461Y-4.8496
X8.5461Y-4.974
X8.5461Y-5.0984
X8.5461Y-5.2228
X8.5461Y-5.3472
X8.5461Y-5.4717
X8.5461Y-5.5961
X8.5926Y-3.1559
X8.5926Y-3.2803
X8.5926Y-3.4047
X8.5926Y-3.5291
X8.5926Y-3.6535
X8.5926Y-3.778
X8.5926Y-3.9024
X8.5926Y-4.0268
X8.5926Y-4.1512
X8.5926Y-4.2756
X8.5926Y-4.4
X8.5926Y-4.5244
X8.5926Y-4.6488
X8.5926Y-4.7732
X8.5926Y-4.8976
X8.5926Y-5.022
X8.5926Y-5.1465
X8.5926Y-5.2709
X8.5926Y-5.3953
X8.5926Y-5.5197
X8.6989Y-3.1559
X8.6989Y-3.2803
X8.6989Y-3.4047
X8.6989Y-3.5291
X8.6989Y-3.6535
X8.6989Y-3.778
X8.6989Y-3.9024
X8.6989Y-4.0268
X8.6989Y-4.1512
X8.6989Y-4.2756
X8.6989Y-4.4
X8.6989Y-4.5244
X8.6989Y-4.6488
X8.6989Y-4.7732
X8.6989Y-4.8976
X8.6989Y-5.022
X8.6989Y-5.1465
X8.6989Y-5.2709
X8.6989Y-5.3953
X8.6989Y-5.5197
X8.7449Y-3.2343
X8.7449Y-3.3587
X8.7449Y-3.4831
X8.7449Y-3.6075
X8.7449Y-3.7319
X8.7449Y-3.8563
X8.7449Y-3.9807
X8.7449Y-4.1051
X8.7449Y-4.2295
X8.7449Y-4.3539
X8.7449Y-4.4783
X8.7449Y-4.6028
X8.7449Y-4.7272
X8.7449Y-4.8516
X8.7449Y-4.976
X8.7449Y-5.1004
X8.7449Y-5.2248
X8.7449Y-5.3492
X8.7449Y-5.4736
X8.7449Y-5.598
X8.7957Y-3.15
X8.7957Y-3.23
X8.7957Y-3.2744
X8.7957Y-3.3544
X8.7957Y-3.3988
X8.7957Y-3.4788
X8.7957Y-3.5232
X8.7957Y-3.6032
X8.7957Y-3.6476
X8.7957Y-3.7276
X8.7957Y-3.772
X8.7957Y-3.852
X8.7957Y-3.8965
X8.7957Y-3.9765
X8.7957Y-4.0209
X8.7957Y-4.1009
X8.7957Y-4.1453
X8.7957Y-4.2253
X8.7957Y-4.2697
X8.7957Y-4.3497
X8.7957Y-4.3941
X8.7957Y-4.4741
X8.7957Y-4.5185
X8.7957Y-4.5985
X8.7957Y-4.6429
X8.7957Y-4.7229
X8.7957Y-4.7673
X8.7957Y-4.8473
X8.7957Y-4.8917
X8.7957Y-4.9717
X8.7957Y-5.0161
X8.7957Y-5.0961
X8.7957Y-5.1406
X8.7957Y-5.2206
X8.7957Y-5.265
X8.7957Y-5.345
X8.7957Y-5.3894
X8.7957Y-5.4694
X8.7957Y-5.5138
X8.7957Y-5.5938
X8.8477Y-3.15
X8.8477Y-3.23
X8.8477Y-3.2744
X8.8477Y-3.3544
X8.8477Y-3.3988
X8.8477Y-3.4788
X8.8477Y-3.5232
X8.8477Y-3.6032
X8.8477Y-3.6476
X8.8477Y-3.7276
X8.8477Y-3.772
X8.8477Y-3.852
X8.8477Y-3.8965
X8.8477Y-3.9765
X8.8477Y-4.0209
X8.8477Y-4.1009
X8.8477Y-4.1453
X8.8477Y-4.2253
X8.8477Y-4.2697
X8.8477Y-4.3497
X8.8477Y-4.3941
X8.8477Y-4.4741
X8.8477Y-4.5185
X8.8477Y-4.5985
X8.8477Y-4.6429
X8.8477Y-4.7229
X8.8477Y-4.7673
X8.8477Y-4.8473
X8.8477Y-4.8917
X8.8477Y-4.9717
X8.8477Y-5.0161
X8.8477Y-5.0961
X8.8477Y-5.1406
X8.8477Y-5.2206
X8.8477Y-5.265
X8.8477Y-5.345
X8.8477Y-5.3894
X8.8477Y-5.4694
X8.8477Y-5.5138
X8.8477Y-5.5938
X8.898Y-3.2323
X8.898Y-3.3567
X8.898Y-3.4811
X8.898Y-3.6055
X8.898Y-3.7299
X8.898Y-3.8543
X8.898Y-3.9787
X8.898Y-4.1031
X8.898Y-4.2276
X8.898Y-4.352
X8.898Y-4.4764
X8.898Y-4.6008
X8.898Y-4.7252
X8.898Y-4.8496
X8.898Y-4.974
X8.898Y-5.0984
X8.898Y-5.2228
X8.898Y-5.3472
X8.898Y-5.4717
X8.898Y-5.5961
X8.9446Y-3.1559
X8.9446Y-3.2803
X8.9446Y-3.4047
X8.9446Y-3.5291
X8.9446Y-3.6535
X8.9446Y-3.778
X8.9446Y-3.9024
X8.9446Y-4.0268
X8.9446Y-4.1512
X8.9446Y-4.2756
X8.9446Y-4.4
X8.9446Y-4.5244
X8.9446Y-4.6488
X8.9446Y-4.7732
X8.9446Y-4.8976
X8.9446Y-5.022
X8.9446Y-5.1465
X8.9446Y-5.2709
X8.9446Y-5.3953
X8.9446Y-5.5197
X9.0508Y-3.1559
X9.0508Y-3.2803
X9.0508Y-3.4047
X9.0508Y-3.5291
X9.0508Y-3.6535
X9.0508Y-3.778
X9.0508Y-3.9024
X9.0508Y-4.0268
X9.0508Y-4.1512
X9.0508Y-4.2756
X9.0508Y-4.4
X9.0508Y-4.5244
X9.0508Y-4.6488
X9.0508Y-4.7732
X9.0508Y-4.8976
X9.0508Y-5.022
X9.0508Y-5.1465
X9.0508Y-5.2709
X9.0508Y-5.3953
X9.0508Y-5.5197
X9.0969Y-3.2343
X9.0969Y-3.3587
X9.0969Y-3.4831
X9.0969Y-3.6075
X9.0969Y-3.7319
X9.0969Y-3.8563
X9.0969Y-3.9807
X9.0969Y-4.1051
X9.0969Y-4.2295
X9.0969Y-4.3539
X9.0969Y-4.4783
X9.0969Y-4.6028
X9.0969Y-4.7272
X9.0969Y-4.8516
X9.0969Y-4.976
X9.0969Y-5.1004
X9.0969Y-5.2248
X9.0969Y-5.3492
X9.0969Y-5.4736
X9.0969Y-5.598
X9.1477Y-3.15
X9.1477Y-3.23
X9.1477Y-3.2744
X9.1477Y-3.3544
X9.1477Y-3.3988
X9.1477Y-3.4788
X9.1477Y-3.5232
X9.1477Y-3.6032
X9.1477Y-3.6476
X9.1477Y-3.7276
X9.1477Y-3.772
X9.1477Y-3.852
X9.1477Y-3.8965
X9.1477Y-3.9765
X9.1477Y-4.0209
X9.1477Y-4.1009
X9.1477Y-4.1453
X9.1477Y-4.2253
X9.1477Y-4.2697
X9.1477Y-4.3497
X9.1477Y-4.3941
X9.1477Y-4.4741
X9.1477Y-4.5185
X9.1477Y-4.5985
X9.1477Y-4.6429
X9.1477Y-4.7229
X9.1477Y-4.7673
X9.1477Y-4.8473
X9.1477Y-4.8917
X9.1477Y-4.9717
X9.1477Y-5.0161
X9.1477Y-5.0961
X9.1477Y-5.1406
X9.1477Y-5.2206
X9.1477Y-5.265
X9.1477Y-5.345
X9.1477Y-5.3894
X9.1477Y-5.4694
X9.1477Y-5.5138
X9.1477Y-5.5938
T0
M30
