%TF.GenerationSoftware,KiCad,Pcbnew,(6.0.11)*%
%TF.CreationDate,2023-04-11T15:55:55+08:00*%
%TF.ProjectId,MicroUSB2TypeCPanelization,4d696372-6f55-4534-9232-547970654350,rev?*%
%TF.SameCoordinates,Original*%
%TF.FileFunction,Profile,NP*%
%FSLAX46Y46*%
G04 Gerber Fmt 4.6, Leading zero omitted, Abs format (unit mm)*
G04 Created by KiCad (PCBNEW (6.0.11)) date 2023-04-11 15:55:55*
%MOMM*%
%LPD*%
G01*
G04 APERTURE LIST*
%TA.AperFunction,Profile*%
%ADD10C,0.100000*%
%TD*%
%TA.AperFunction,Profile*%
%ADD11C,0.050000*%
%TD*%
G04 APERTURE END LIST*
D10*
X143610000Y-79450000D02*
X233010000Y-79450000D01*
X233010000Y-79450000D02*
X233010000Y-142650000D01*
X233010000Y-142650000D02*
X143610000Y-142650000D01*
X143610000Y-142650000D02*
X143610000Y-79450000D01*
D11*
%TO.C,J1*%
X225042000Y-141066000D02*
G75*
G03*
X225042000Y-141066000I-250000J0D01*
G01*
X232542000Y-141066000D02*
G75*
G03*
X232542000Y-141066000I-250000J0D01*
G01*
X216102000Y-141066000D02*
G75*
G03*
X216102000Y-141066000I-250000J0D01*
G01*
X223602000Y-141066000D02*
G75*
G03*
X223602000Y-141066000I-250000J0D01*
G01*
X207162000Y-141066000D02*
G75*
G03*
X207162000Y-141066000I-250000J0D01*
G01*
X214662000Y-141066000D02*
G75*
G03*
X214662000Y-141066000I-250000J0D01*
G01*
X198222000Y-141066000D02*
G75*
G03*
X198222000Y-141066000I-250000J0D01*
G01*
X205722000Y-141066000D02*
G75*
G03*
X205722000Y-141066000I-250000J0D01*
G01*
X189282000Y-141066000D02*
G75*
G03*
X189282000Y-141066000I-250000J0D01*
G01*
X196782000Y-141066000D02*
G75*
G03*
X196782000Y-141066000I-250000J0D01*
G01*
X180342000Y-141066000D02*
G75*
G03*
X180342000Y-141066000I-250000J0D01*
G01*
X187842000Y-141066000D02*
G75*
G03*
X187842000Y-141066000I-250000J0D01*
G01*
X171402000Y-141066000D02*
G75*
G03*
X171402000Y-141066000I-250000J0D01*
G01*
X178902000Y-141066000D02*
G75*
G03*
X178902000Y-141066000I-250000J0D01*
G01*
X162462000Y-141066000D02*
G75*
G03*
X162462000Y-141066000I-250000J0D01*
G01*
X169962000Y-141066000D02*
G75*
G03*
X169962000Y-141066000I-250000J0D01*
G01*
X153522000Y-141066000D02*
G75*
G03*
X153522000Y-141066000I-250000J0D01*
G01*
X161022000Y-141066000D02*
G75*
G03*
X161022000Y-141066000I-250000J0D01*
G01*
X144582000Y-141066000D02*
G75*
G03*
X144582000Y-141066000I-250000J0D01*
G01*
X152082000Y-141066000D02*
G75*
G03*
X152082000Y-141066000I-250000J0D01*
G01*
X225042000Y-137906000D02*
G75*
G03*
X225042000Y-137906000I-250000J0D01*
G01*
X232542000Y-137906000D02*
G75*
G03*
X232542000Y-137906000I-250000J0D01*
G01*
X216102000Y-137906000D02*
G75*
G03*
X216102000Y-137906000I-250000J0D01*
G01*
X223602000Y-137906000D02*
G75*
G03*
X223602000Y-137906000I-250000J0D01*
G01*
X207162000Y-137906000D02*
G75*
G03*
X207162000Y-137906000I-250000J0D01*
G01*
X214662000Y-137906000D02*
G75*
G03*
X214662000Y-137906000I-250000J0D01*
G01*
X198222000Y-137906000D02*
G75*
G03*
X198222000Y-137906000I-250000J0D01*
G01*
X205722000Y-137906000D02*
G75*
G03*
X205722000Y-137906000I-250000J0D01*
G01*
X189282000Y-137906000D02*
G75*
G03*
X189282000Y-137906000I-250000J0D01*
G01*
X196782000Y-137906000D02*
G75*
G03*
X196782000Y-137906000I-250000J0D01*
G01*
X180342000Y-137906000D02*
G75*
G03*
X180342000Y-137906000I-250000J0D01*
G01*
X187842000Y-137906000D02*
G75*
G03*
X187842000Y-137906000I-250000J0D01*
G01*
X171402000Y-137906000D02*
G75*
G03*
X171402000Y-137906000I-250000J0D01*
G01*
X178902000Y-137906000D02*
G75*
G03*
X178902000Y-137906000I-250000J0D01*
G01*
X162462000Y-137906000D02*
G75*
G03*
X162462000Y-137906000I-250000J0D01*
G01*
X169962000Y-137906000D02*
G75*
G03*
X169962000Y-137906000I-250000J0D01*
G01*
X153522000Y-137906000D02*
G75*
G03*
X153522000Y-137906000I-250000J0D01*
G01*
X161022000Y-137906000D02*
G75*
G03*
X161022000Y-137906000I-250000J0D01*
G01*
X144582000Y-137906000D02*
G75*
G03*
X144582000Y-137906000I-250000J0D01*
G01*
X152082000Y-137906000D02*
G75*
G03*
X152082000Y-137906000I-250000J0D01*
G01*
X225042000Y-134746000D02*
G75*
G03*
X225042000Y-134746000I-250000J0D01*
G01*
X232542000Y-134746000D02*
G75*
G03*
X232542000Y-134746000I-250000J0D01*
G01*
X216102000Y-134746000D02*
G75*
G03*
X216102000Y-134746000I-250000J0D01*
G01*
X223602000Y-134746000D02*
G75*
G03*
X223602000Y-134746000I-250000J0D01*
G01*
X207162000Y-134746000D02*
G75*
G03*
X207162000Y-134746000I-250000J0D01*
G01*
X214662000Y-134746000D02*
G75*
G03*
X214662000Y-134746000I-250000J0D01*
G01*
X198222000Y-134746000D02*
G75*
G03*
X198222000Y-134746000I-250000J0D01*
G01*
X205722000Y-134746000D02*
G75*
G03*
X205722000Y-134746000I-250000J0D01*
G01*
X189282000Y-134746000D02*
G75*
G03*
X189282000Y-134746000I-250000J0D01*
G01*
X196782000Y-134746000D02*
G75*
G03*
X196782000Y-134746000I-250000J0D01*
G01*
X180342000Y-134746000D02*
G75*
G03*
X180342000Y-134746000I-250000J0D01*
G01*
X187842000Y-134746000D02*
G75*
G03*
X187842000Y-134746000I-250000J0D01*
G01*
X171402000Y-134746000D02*
G75*
G03*
X171402000Y-134746000I-250000J0D01*
G01*
X178902000Y-134746000D02*
G75*
G03*
X178902000Y-134746000I-250000J0D01*
G01*
X162462000Y-134746000D02*
G75*
G03*
X162462000Y-134746000I-250000J0D01*
G01*
X169962000Y-134746000D02*
G75*
G03*
X169962000Y-134746000I-250000J0D01*
G01*
X153522000Y-134746000D02*
G75*
G03*
X153522000Y-134746000I-250000J0D01*
G01*
X161022000Y-134746000D02*
G75*
G03*
X161022000Y-134746000I-250000J0D01*
G01*
X144582000Y-134746000D02*
G75*
G03*
X144582000Y-134746000I-250000J0D01*
G01*
X152082000Y-134746000D02*
G75*
G03*
X152082000Y-134746000I-250000J0D01*
G01*
X225042000Y-131586000D02*
G75*
G03*
X225042000Y-131586000I-250000J0D01*
G01*
X232542000Y-131586000D02*
G75*
G03*
X232542000Y-131586000I-250000J0D01*
G01*
X216102000Y-131586000D02*
G75*
G03*
X216102000Y-131586000I-250000J0D01*
G01*
X223602000Y-131586000D02*
G75*
G03*
X223602000Y-131586000I-250000J0D01*
G01*
X207162000Y-131586000D02*
G75*
G03*
X207162000Y-131586000I-250000J0D01*
G01*
X214662000Y-131586000D02*
G75*
G03*
X214662000Y-131586000I-250000J0D01*
G01*
X198222000Y-131586000D02*
G75*
G03*
X198222000Y-131586000I-250000J0D01*
G01*
X205722000Y-131586000D02*
G75*
G03*
X205722000Y-131586000I-250000J0D01*
G01*
X189282000Y-131586000D02*
G75*
G03*
X189282000Y-131586000I-250000J0D01*
G01*
X196782000Y-131586000D02*
G75*
G03*
X196782000Y-131586000I-250000J0D01*
G01*
X180342000Y-131586000D02*
G75*
G03*
X180342000Y-131586000I-250000J0D01*
G01*
X187842000Y-131586000D02*
G75*
G03*
X187842000Y-131586000I-250000J0D01*
G01*
X171402000Y-131586000D02*
G75*
G03*
X171402000Y-131586000I-250000J0D01*
G01*
X178902000Y-131586000D02*
G75*
G03*
X178902000Y-131586000I-250000J0D01*
G01*
X162462000Y-131586000D02*
G75*
G03*
X162462000Y-131586000I-250000J0D01*
G01*
X169962000Y-131586000D02*
G75*
G03*
X169962000Y-131586000I-250000J0D01*
G01*
X153522000Y-131586000D02*
G75*
G03*
X153522000Y-131586000I-250000J0D01*
G01*
X161022000Y-131586000D02*
G75*
G03*
X161022000Y-131586000I-250000J0D01*
G01*
X144582000Y-131586000D02*
G75*
G03*
X144582000Y-131586000I-250000J0D01*
G01*
X152082000Y-131586000D02*
G75*
G03*
X152082000Y-131586000I-250000J0D01*
G01*
X225042000Y-128426000D02*
G75*
G03*
X225042000Y-128426000I-250000J0D01*
G01*
X232542000Y-128426000D02*
G75*
G03*
X232542000Y-128426000I-250000J0D01*
G01*
X216102000Y-128426000D02*
G75*
G03*
X216102000Y-128426000I-250000J0D01*
G01*
X223602000Y-128426000D02*
G75*
G03*
X223602000Y-128426000I-250000J0D01*
G01*
X207162000Y-128426000D02*
G75*
G03*
X207162000Y-128426000I-250000J0D01*
G01*
X214662000Y-128426000D02*
G75*
G03*
X214662000Y-128426000I-250000J0D01*
G01*
X198222000Y-128426000D02*
G75*
G03*
X198222000Y-128426000I-250000J0D01*
G01*
X205722000Y-128426000D02*
G75*
G03*
X205722000Y-128426000I-250000J0D01*
G01*
X189282000Y-128426000D02*
G75*
G03*
X189282000Y-128426000I-250000J0D01*
G01*
X196782000Y-128426000D02*
G75*
G03*
X196782000Y-128426000I-250000J0D01*
G01*
X180342000Y-128426000D02*
G75*
G03*
X180342000Y-128426000I-250000J0D01*
G01*
X187842000Y-128426000D02*
G75*
G03*
X187842000Y-128426000I-250000J0D01*
G01*
X171402000Y-128426000D02*
G75*
G03*
X171402000Y-128426000I-250000J0D01*
G01*
X178902000Y-128426000D02*
G75*
G03*
X178902000Y-128426000I-250000J0D01*
G01*
X162462000Y-128426000D02*
G75*
G03*
X162462000Y-128426000I-250000J0D01*
G01*
X169962000Y-128426000D02*
G75*
G03*
X169962000Y-128426000I-250000J0D01*
G01*
X153522000Y-128426000D02*
G75*
G03*
X153522000Y-128426000I-250000J0D01*
G01*
X161022000Y-128426000D02*
G75*
G03*
X161022000Y-128426000I-250000J0D01*
G01*
X144582000Y-128426000D02*
G75*
G03*
X144582000Y-128426000I-250000J0D01*
G01*
X152082000Y-128426000D02*
G75*
G03*
X152082000Y-128426000I-250000J0D01*
G01*
X225042000Y-125266000D02*
G75*
G03*
X225042000Y-125266000I-250000J0D01*
G01*
X232542000Y-125266000D02*
G75*
G03*
X232542000Y-125266000I-250000J0D01*
G01*
X216102000Y-125266000D02*
G75*
G03*
X216102000Y-125266000I-250000J0D01*
G01*
X223602000Y-125266000D02*
G75*
G03*
X223602000Y-125266000I-250000J0D01*
G01*
X207162000Y-125266000D02*
G75*
G03*
X207162000Y-125266000I-250000J0D01*
G01*
X214662000Y-125266000D02*
G75*
G03*
X214662000Y-125266000I-250000J0D01*
G01*
X198222000Y-125266000D02*
G75*
G03*
X198222000Y-125266000I-250000J0D01*
G01*
X205722000Y-125266000D02*
G75*
G03*
X205722000Y-125266000I-250000J0D01*
G01*
X189282000Y-125266000D02*
G75*
G03*
X189282000Y-125266000I-250000J0D01*
G01*
X196782000Y-125266000D02*
G75*
G03*
X196782000Y-125266000I-250000J0D01*
G01*
X180342000Y-125266000D02*
G75*
G03*
X180342000Y-125266000I-250000J0D01*
G01*
X187842000Y-125266000D02*
G75*
G03*
X187842000Y-125266000I-250000J0D01*
G01*
X171402000Y-125266000D02*
G75*
G03*
X171402000Y-125266000I-250000J0D01*
G01*
X178902000Y-125266000D02*
G75*
G03*
X178902000Y-125266000I-250000J0D01*
G01*
X162462000Y-125266000D02*
G75*
G03*
X162462000Y-125266000I-250000J0D01*
G01*
X169962000Y-125266000D02*
G75*
G03*
X169962000Y-125266000I-250000J0D01*
G01*
X153522000Y-125266000D02*
G75*
G03*
X153522000Y-125266000I-250000J0D01*
G01*
X161022000Y-125266000D02*
G75*
G03*
X161022000Y-125266000I-250000J0D01*
G01*
X144582000Y-125266000D02*
G75*
G03*
X144582000Y-125266000I-250000J0D01*
G01*
X152082000Y-125266000D02*
G75*
G03*
X152082000Y-125266000I-250000J0D01*
G01*
X225042000Y-122106000D02*
G75*
G03*
X225042000Y-122106000I-250000J0D01*
G01*
X232542000Y-122106000D02*
G75*
G03*
X232542000Y-122106000I-250000J0D01*
G01*
X216102000Y-122106000D02*
G75*
G03*
X216102000Y-122106000I-250000J0D01*
G01*
X223602000Y-122106000D02*
G75*
G03*
X223602000Y-122106000I-250000J0D01*
G01*
X207162000Y-122106000D02*
G75*
G03*
X207162000Y-122106000I-250000J0D01*
G01*
X214662000Y-122106000D02*
G75*
G03*
X214662000Y-122106000I-250000J0D01*
G01*
X198222000Y-122106000D02*
G75*
G03*
X198222000Y-122106000I-250000J0D01*
G01*
X205722000Y-122106000D02*
G75*
G03*
X205722000Y-122106000I-250000J0D01*
G01*
X189282000Y-122106000D02*
G75*
G03*
X189282000Y-122106000I-250000J0D01*
G01*
X196782000Y-122106000D02*
G75*
G03*
X196782000Y-122106000I-250000J0D01*
G01*
X180342000Y-122106000D02*
G75*
G03*
X180342000Y-122106000I-250000J0D01*
G01*
X187842000Y-122106000D02*
G75*
G03*
X187842000Y-122106000I-250000J0D01*
G01*
X171402000Y-122106000D02*
G75*
G03*
X171402000Y-122106000I-250000J0D01*
G01*
X178902000Y-122106000D02*
G75*
G03*
X178902000Y-122106000I-250000J0D01*
G01*
X162462000Y-122106000D02*
G75*
G03*
X162462000Y-122106000I-250000J0D01*
G01*
X169962000Y-122106000D02*
G75*
G03*
X169962000Y-122106000I-250000J0D01*
G01*
X153522000Y-122106000D02*
G75*
G03*
X153522000Y-122106000I-250000J0D01*
G01*
X161022000Y-122106000D02*
G75*
G03*
X161022000Y-122106000I-250000J0D01*
G01*
X144582000Y-122106000D02*
G75*
G03*
X144582000Y-122106000I-250000J0D01*
G01*
X152082000Y-122106000D02*
G75*
G03*
X152082000Y-122106000I-250000J0D01*
G01*
X225042000Y-118946000D02*
G75*
G03*
X225042000Y-118946000I-250000J0D01*
G01*
X232542000Y-118946000D02*
G75*
G03*
X232542000Y-118946000I-250000J0D01*
G01*
X216102000Y-118946000D02*
G75*
G03*
X216102000Y-118946000I-250000J0D01*
G01*
X223602000Y-118946000D02*
G75*
G03*
X223602000Y-118946000I-250000J0D01*
G01*
X207162000Y-118946000D02*
G75*
G03*
X207162000Y-118946000I-250000J0D01*
G01*
X214662000Y-118946000D02*
G75*
G03*
X214662000Y-118946000I-250000J0D01*
G01*
X198222000Y-118946000D02*
G75*
G03*
X198222000Y-118946000I-250000J0D01*
G01*
X205722000Y-118946000D02*
G75*
G03*
X205722000Y-118946000I-250000J0D01*
G01*
X189282000Y-118946000D02*
G75*
G03*
X189282000Y-118946000I-250000J0D01*
G01*
X196782000Y-118946000D02*
G75*
G03*
X196782000Y-118946000I-250000J0D01*
G01*
X180342000Y-118946000D02*
G75*
G03*
X180342000Y-118946000I-250000J0D01*
G01*
X187842000Y-118946000D02*
G75*
G03*
X187842000Y-118946000I-250000J0D01*
G01*
X171402000Y-118946000D02*
G75*
G03*
X171402000Y-118946000I-250000J0D01*
G01*
X178902000Y-118946000D02*
G75*
G03*
X178902000Y-118946000I-250000J0D01*
G01*
X162462000Y-118946000D02*
G75*
G03*
X162462000Y-118946000I-250000J0D01*
G01*
X169962000Y-118946000D02*
G75*
G03*
X169962000Y-118946000I-250000J0D01*
G01*
X153522000Y-118946000D02*
G75*
G03*
X153522000Y-118946000I-250000J0D01*
G01*
X161022000Y-118946000D02*
G75*
G03*
X161022000Y-118946000I-250000J0D01*
G01*
X144582000Y-118946000D02*
G75*
G03*
X144582000Y-118946000I-250000J0D01*
G01*
X152082000Y-118946000D02*
G75*
G03*
X152082000Y-118946000I-250000J0D01*
G01*
X225042000Y-115786000D02*
G75*
G03*
X225042000Y-115786000I-250000J0D01*
G01*
X232542000Y-115786000D02*
G75*
G03*
X232542000Y-115786000I-250000J0D01*
G01*
X216102000Y-115786000D02*
G75*
G03*
X216102000Y-115786000I-250000J0D01*
G01*
X223602000Y-115786000D02*
G75*
G03*
X223602000Y-115786000I-250000J0D01*
G01*
X207162000Y-115786000D02*
G75*
G03*
X207162000Y-115786000I-250000J0D01*
G01*
X214662000Y-115786000D02*
G75*
G03*
X214662000Y-115786000I-250000J0D01*
G01*
X198222000Y-115786000D02*
G75*
G03*
X198222000Y-115786000I-250000J0D01*
G01*
X205722000Y-115786000D02*
G75*
G03*
X205722000Y-115786000I-250000J0D01*
G01*
X189282000Y-115786000D02*
G75*
G03*
X189282000Y-115786000I-250000J0D01*
G01*
X196782000Y-115786000D02*
G75*
G03*
X196782000Y-115786000I-250000J0D01*
G01*
X180342000Y-115786000D02*
G75*
G03*
X180342000Y-115786000I-250000J0D01*
G01*
X187842000Y-115786000D02*
G75*
G03*
X187842000Y-115786000I-250000J0D01*
G01*
X171402000Y-115786000D02*
G75*
G03*
X171402000Y-115786000I-250000J0D01*
G01*
X178902000Y-115786000D02*
G75*
G03*
X178902000Y-115786000I-250000J0D01*
G01*
X162462000Y-115786000D02*
G75*
G03*
X162462000Y-115786000I-250000J0D01*
G01*
X169962000Y-115786000D02*
G75*
G03*
X169962000Y-115786000I-250000J0D01*
G01*
X153522000Y-115786000D02*
G75*
G03*
X153522000Y-115786000I-250000J0D01*
G01*
X161022000Y-115786000D02*
G75*
G03*
X161022000Y-115786000I-250000J0D01*
G01*
X144582000Y-115786000D02*
G75*
G03*
X144582000Y-115786000I-250000J0D01*
G01*
X152082000Y-115786000D02*
G75*
G03*
X152082000Y-115786000I-250000J0D01*
G01*
X225042000Y-112626000D02*
G75*
G03*
X225042000Y-112626000I-250000J0D01*
G01*
X232542000Y-112626000D02*
G75*
G03*
X232542000Y-112626000I-250000J0D01*
G01*
X216102000Y-112626000D02*
G75*
G03*
X216102000Y-112626000I-250000J0D01*
G01*
X223602000Y-112626000D02*
G75*
G03*
X223602000Y-112626000I-250000J0D01*
G01*
X207162000Y-112626000D02*
G75*
G03*
X207162000Y-112626000I-250000J0D01*
G01*
X214662000Y-112626000D02*
G75*
G03*
X214662000Y-112626000I-250000J0D01*
G01*
X198222000Y-112626000D02*
G75*
G03*
X198222000Y-112626000I-250000J0D01*
G01*
X205722000Y-112626000D02*
G75*
G03*
X205722000Y-112626000I-250000J0D01*
G01*
X189282000Y-112626000D02*
G75*
G03*
X189282000Y-112626000I-250000J0D01*
G01*
X196782000Y-112626000D02*
G75*
G03*
X196782000Y-112626000I-250000J0D01*
G01*
X180342000Y-112626000D02*
G75*
G03*
X180342000Y-112626000I-250000J0D01*
G01*
X187842000Y-112626000D02*
G75*
G03*
X187842000Y-112626000I-250000J0D01*
G01*
X171402000Y-112626000D02*
G75*
G03*
X171402000Y-112626000I-250000J0D01*
G01*
X178902000Y-112626000D02*
G75*
G03*
X178902000Y-112626000I-250000J0D01*
G01*
X162462000Y-112626000D02*
G75*
G03*
X162462000Y-112626000I-250000J0D01*
G01*
X169962000Y-112626000D02*
G75*
G03*
X169962000Y-112626000I-250000J0D01*
G01*
X153522000Y-112626000D02*
G75*
G03*
X153522000Y-112626000I-250000J0D01*
G01*
X161022000Y-112626000D02*
G75*
G03*
X161022000Y-112626000I-250000J0D01*
G01*
X144582000Y-112626000D02*
G75*
G03*
X144582000Y-112626000I-250000J0D01*
G01*
X152082000Y-112626000D02*
G75*
G03*
X152082000Y-112626000I-250000J0D01*
G01*
X225042000Y-109466000D02*
G75*
G03*
X225042000Y-109466000I-250000J0D01*
G01*
X232542000Y-109466000D02*
G75*
G03*
X232542000Y-109466000I-250000J0D01*
G01*
X216102000Y-109466000D02*
G75*
G03*
X216102000Y-109466000I-250000J0D01*
G01*
X223602000Y-109466000D02*
G75*
G03*
X223602000Y-109466000I-250000J0D01*
G01*
X207162000Y-109466000D02*
G75*
G03*
X207162000Y-109466000I-250000J0D01*
G01*
X214662000Y-109466000D02*
G75*
G03*
X214662000Y-109466000I-250000J0D01*
G01*
X198222000Y-109466000D02*
G75*
G03*
X198222000Y-109466000I-250000J0D01*
G01*
X205722000Y-109466000D02*
G75*
G03*
X205722000Y-109466000I-250000J0D01*
G01*
X189282000Y-109466000D02*
G75*
G03*
X189282000Y-109466000I-250000J0D01*
G01*
X196782000Y-109466000D02*
G75*
G03*
X196782000Y-109466000I-250000J0D01*
G01*
X180342000Y-109466000D02*
G75*
G03*
X180342000Y-109466000I-250000J0D01*
G01*
X187842000Y-109466000D02*
G75*
G03*
X187842000Y-109466000I-250000J0D01*
G01*
X171402000Y-109466000D02*
G75*
G03*
X171402000Y-109466000I-250000J0D01*
G01*
X178902000Y-109466000D02*
G75*
G03*
X178902000Y-109466000I-250000J0D01*
G01*
X162462000Y-109466000D02*
G75*
G03*
X162462000Y-109466000I-250000J0D01*
G01*
X169962000Y-109466000D02*
G75*
G03*
X169962000Y-109466000I-250000J0D01*
G01*
X153522000Y-109466000D02*
G75*
G03*
X153522000Y-109466000I-250000J0D01*
G01*
X161022000Y-109466000D02*
G75*
G03*
X161022000Y-109466000I-250000J0D01*
G01*
X144582000Y-109466000D02*
G75*
G03*
X144582000Y-109466000I-250000J0D01*
G01*
X152082000Y-109466000D02*
G75*
G03*
X152082000Y-109466000I-250000J0D01*
G01*
X225042000Y-106306000D02*
G75*
G03*
X225042000Y-106306000I-250000J0D01*
G01*
X232542000Y-106306000D02*
G75*
G03*
X232542000Y-106306000I-250000J0D01*
G01*
X216102000Y-106306000D02*
G75*
G03*
X216102000Y-106306000I-250000J0D01*
G01*
X223602000Y-106306000D02*
G75*
G03*
X223602000Y-106306000I-250000J0D01*
G01*
X207162000Y-106306000D02*
G75*
G03*
X207162000Y-106306000I-250000J0D01*
G01*
X214662000Y-106306000D02*
G75*
G03*
X214662000Y-106306000I-250000J0D01*
G01*
X198222000Y-106306000D02*
G75*
G03*
X198222000Y-106306000I-250000J0D01*
G01*
X205722000Y-106306000D02*
G75*
G03*
X205722000Y-106306000I-250000J0D01*
G01*
X189282000Y-106306000D02*
G75*
G03*
X189282000Y-106306000I-250000J0D01*
G01*
X196782000Y-106306000D02*
G75*
G03*
X196782000Y-106306000I-250000J0D01*
G01*
X180342000Y-106306000D02*
G75*
G03*
X180342000Y-106306000I-250000J0D01*
G01*
X187842000Y-106306000D02*
G75*
G03*
X187842000Y-106306000I-250000J0D01*
G01*
X171402000Y-106306000D02*
G75*
G03*
X171402000Y-106306000I-250000J0D01*
G01*
X178902000Y-106306000D02*
G75*
G03*
X178902000Y-106306000I-250000J0D01*
G01*
X162462000Y-106306000D02*
G75*
G03*
X162462000Y-106306000I-250000J0D01*
G01*
X169962000Y-106306000D02*
G75*
G03*
X169962000Y-106306000I-250000J0D01*
G01*
X153522000Y-106306000D02*
G75*
G03*
X153522000Y-106306000I-250000J0D01*
G01*
X161022000Y-106306000D02*
G75*
G03*
X161022000Y-106306000I-250000J0D01*
G01*
X144582000Y-106306000D02*
G75*
G03*
X144582000Y-106306000I-250000J0D01*
G01*
X152082000Y-106306000D02*
G75*
G03*
X152082000Y-106306000I-250000J0D01*
G01*
X225042000Y-103146000D02*
G75*
G03*
X225042000Y-103146000I-250000J0D01*
G01*
X232542000Y-103146000D02*
G75*
G03*
X232542000Y-103146000I-250000J0D01*
G01*
X216102000Y-103146000D02*
G75*
G03*
X216102000Y-103146000I-250000J0D01*
G01*
X223602000Y-103146000D02*
G75*
G03*
X223602000Y-103146000I-250000J0D01*
G01*
X207162000Y-103146000D02*
G75*
G03*
X207162000Y-103146000I-250000J0D01*
G01*
X214662000Y-103146000D02*
G75*
G03*
X214662000Y-103146000I-250000J0D01*
G01*
X198222000Y-103146000D02*
G75*
G03*
X198222000Y-103146000I-250000J0D01*
G01*
X205722000Y-103146000D02*
G75*
G03*
X205722000Y-103146000I-250000J0D01*
G01*
X189282000Y-103146000D02*
G75*
G03*
X189282000Y-103146000I-250000J0D01*
G01*
X196782000Y-103146000D02*
G75*
G03*
X196782000Y-103146000I-250000J0D01*
G01*
X180342000Y-103146000D02*
G75*
G03*
X180342000Y-103146000I-250000J0D01*
G01*
X187842000Y-103146000D02*
G75*
G03*
X187842000Y-103146000I-250000J0D01*
G01*
X171402000Y-103146000D02*
G75*
G03*
X171402000Y-103146000I-250000J0D01*
G01*
X178902000Y-103146000D02*
G75*
G03*
X178902000Y-103146000I-250000J0D01*
G01*
X162462000Y-103146000D02*
G75*
G03*
X162462000Y-103146000I-250000J0D01*
G01*
X169962000Y-103146000D02*
G75*
G03*
X169962000Y-103146000I-250000J0D01*
G01*
X153522000Y-103146000D02*
G75*
G03*
X153522000Y-103146000I-250000J0D01*
G01*
X161022000Y-103146000D02*
G75*
G03*
X161022000Y-103146000I-250000J0D01*
G01*
X144582000Y-103146000D02*
G75*
G03*
X144582000Y-103146000I-250000J0D01*
G01*
X152082000Y-103146000D02*
G75*
G03*
X152082000Y-103146000I-250000J0D01*
G01*
X225042000Y-99986000D02*
G75*
G03*
X225042000Y-99986000I-250000J0D01*
G01*
X232542000Y-99986000D02*
G75*
G03*
X232542000Y-99986000I-250000J0D01*
G01*
X216102000Y-99986000D02*
G75*
G03*
X216102000Y-99986000I-250000J0D01*
G01*
X223602000Y-99986000D02*
G75*
G03*
X223602000Y-99986000I-250000J0D01*
G01*
X207162000Y-99986000D02*
G75*
G03*
X207162000Y-99986000I-250000J0D01*
G01*
X214662000Y-99986000D02*
G75*
G03*
X214662000Y-99986000I-250000J0D01*
G01*
X198222000Y-99986000D02*
G75*
G03*
X198222000Y-99986000I-250000J0D01*
G01*
X205722000Y-99986000D02*
G75*
G03*
X205722000Y-99986000I-250000J0D01*
G01*
X189282000Y-99986000D02*
G75*
G03*
X189282000Y-99986000I-250000J0D01*
G01*
X196782000Y-99986000D02*
G75*
G03*
X196782000Y-99986000I-250000J0D01*
G01*
X180342000Y-99986000D02*
G75*
G03*
X180342000Y-99986000I-250000J0D01*
G01*
X187842000Y-99986000D02*
G75*
G03*
X187842000Y-99986000I-250000J0D01*
G01*
X171402000Y-99986000D02*
G75*
G03*
X171402000Y-99986000I-250000J0D01*
G01*
X178902000Y-99986000D02*
G75*
G03*
X178902000Y-99986000I-250000J0D01*
G01*
X162462000Y-99986000D02*
G75*
G03*
X162462000Y-99986000I-250000J0D01*
G01*
X169962000Y-99986000D02*
G75*
G03*
X169962000Y-99986000I-250000J0D01*
G01*
X153522000Y-99986000D02*
G75*
G03*
X153522000Y-99986000I-250000J0D01*
G01*
X161022000Y-99986000D02*
G75*
G03*
X161022000Y-99986000I-250000J0D01*
G01*
X144582000Y-99986000D02*
G75*
G03*
X144582000Y-99986000I-250000J0D01*
G01*
X152082000Y-99986000D02*
G75*
G03*
X152082000Y-99986000I-250000J0D01*
G01*
X225042000Y-96826000D02*
G75*
G03*
X225042000Y-96826000I-250000J0D01*
G01*
X232542000Y-96826000D02*
G75*
G03*
X232542000Y-96826000I-250000J0D01*
G01*
X216102000Y-96826000D02*
G75*
G03*
X216102000Y-96826000I-250000J0D01*
G01*
X223602000Y-96826000D02*
G75*
G03*
X223602000Y-96826000I-250000J0D01*
G01*
X207162000Y-96826000D02*
G75*
G03*
X207162000Y-96826000I-250000J0D01*
G01*
X214662000Y-96826000D02*
G75*
G03*
X214662000Y-96826000I-250000J0D01*
G01*
X198222000Y-96826000D02*
G75*
G03*
X198222000Y-96826000I-250000J0D01*
G01*
X205722000Y-96826000D02*
G75*
G03*
X205722000Y-96826000I-250000J0D01*
G01*
X189282000Y-96826000D02*
G75*
G03*
X189282000Y-96826000I-250000J0D01*
G01*
X196782000Y-96826000D02*
G75*
G03*
X196782000Y-96826000I-250000J0D01*
G01*
X180342000Y-96826000D02*
G75*
G03*
X180342000Y-96826000I-250000J0D01*
G01*
X187842000Y-96826000D02*
G75*
G03*
X187842000Y-96826000I-250000J0D01*
G01*
X171402000Y-96826000D02*
G75*
G03*
X171402000Y-96826000I-250000J0D01*
G01*
X178902000Y-96826000D02*
G75*
G03*
X178902000Y-96826000I-250000J0D01*
G01*
X162462000Y-96826000D02*
G75*
G03*
X162462000Y-96826000I-250000J0D01*
G01*
X169962000Y-96826000D02*
G75*
G03*
X169962000Y-96826000I-250000J0D01*
G01*
X153522000Y-96826000D02*
G75*
G03*
X153522000Y-96826000I-250000J0D01*
G01*
X161022000Y-96826000D02*
G75*
G03*
X161022000Y-96826000I-250000J0D01*
G01*
X144582000Y-96826000D02*
G75*
G03*
X144582000Y-96826000I-250000J0D01*
G01*
X152082000Y-96826000D02*
G75*
G03*
X152082000Y-96826000I-250000J0D01*
G01*
X225042000Y-93666000D02*
G75*
G03*
X225042000Y-93666000I-250000J0D01*
G01*
X232542000Y-93666000D02*
G75*
G03*
X232542000Y-93666000I-250000J0D01*
G01*
X216102000Y-93666000D02*
G75*
G03*
X216102000Y-93666000I-250000J0D01*
G01*
X223602000Y-93666000D02*
G75*
G03*
X223602000Y-93666000I-250000J0D01*
G01*
X207162000Y-93666000D02*
G75*
G03*
X207162000Y-93666000I-250000J0D01*
G01*
X214662000Y-93666000D02*
G75*
G03*
X214662000Y-93666000I-250000J0D01*
G01*
X198222000Y-93666000D02*
G75*
G03*
X198222000Y-93666000I-250000J0D01*
G01*
X205722000Y-93666000D02*
G75*
G03*
X205722000Y-93666000I-250000J0D01*
G01*
X189282000Y-93666000D02*
G75*
G03*
X189282000Y-93666000I-250000J0D01*
G01*
X196782000Y-93666000D02*
G75*
G03*
X196782000Y-93666000I-250000J0D01*
G01*
X180342000Y-93666000D02*
G75*
G03*
X180342000Y-93666000I-250000J0D01*
G01*
X187842000Y-93666000D02*
G75*
G03*
X187842000Y-93666000I-250000J0D01*
G01*
X171402000Y-93666000D02*
G75*
G03*
X171402000Y-93666000I-250000J0D01*
G01*
X178902000Y-93666000D02*
G75*
G03*
X178902000Y-93666000I-250000J0D01*
G01*
X162462000Y-93666000D02*
G75*
G03*
X162462000Y-93666000I-250000J0D01*
G01*
X169962000Y-93666000D02*
G75*
G03*
X169962000Y-93666000I-250000J0D01*
G01*
X153522000Y-93666000D02*
G75*
G03*
X153522000Y-93666000I-250000J0D01*
G01*
X161022000Y-93666000D02*
G75*
G03*
X161022000Y-93666000I-250000J0D01*
G01*
X144582000Y-93666000D02*
G75*
G03*
X144582000Y-93666000I-250000J0D01*
G01*
X152082000Y-93666000D02*
G75*
G03*
X152082000Y-93666000I-250000J0D01*
G01*
X225042000Y-90506000D02*
G75*
G03*
X225042000Y-90506000I-250000J0D01*
G01*
X232542000Y-90506000D02*
G75*
G03*
X232542000Y-90506000I-250000J0D01*
G01*
X216102000Y-90506000D02*
G75*
G03*
X216102000Y-90506000I-250000J0D01*
G01*
X223602000Y-90506000D02*
G75*
G03*
X223602000Y-90506000I-250000J0D01*
G01*
X207162000Y-90506000D02*
G75*
G03*
X207162000Y-90506000I-250000J0D01*
G01*
X214662000Y-90506000D02*
G75*
G03*
X214662000Y-90506000I-250000J0D01*
G01*
X198222000Y-90506000D02*
G75*
G03*
X198222000Y-90506000I-250000J0D01*
G01*
X205722000Y-90506000D02*
G75*
G03*
X205722000Y-90506000I-250000J0D01*
G01*
X189282000Y-90506000D02*
G75*
G03*
X189282000Y-90506000I-250000J0D01*
G01*
X196782000Y-90506000D02*
G75*
G03*
X196782000Y-90506000I-250000J0D01*
G01*
X180342000Y-90506000D02*
G75*
G03*
X180342000Y-90506000I-250000J0D01*
G01*
X187842000Y-90506000D02*
G75*
G03*
X187842000Y-90506000I-250000J0D01*
G01*
X171402000Y-90506000D02*
G75*
G03*
X171402000Y-90506000I-250000J0D01*
G01*
X178902000Y-90506000D02*
G75*
G03*
X178902000Y-90506000I-250000J0D01*
G01*
X162462000Y-90506000D02*
G75*
G03*
X162462000Y-90506000I-250000J0D01*
G01*
X169962000Y-90506000D02*
G75*
G03*
X169962000Y-90506000I-250000J0D01*
G01*
X153522000Y-90506000D02*
G75*
G03*
X153522000Y-90506000I-250000J0D01*
G01*
X161022000Y-90506000D02*
G75*
G03*
X161022000Y-90506000I-250000J0D01*
G01*
X144582000Y-90506000D02*
G75*
G03*
X144582000Y-90506000I-250000J0D01*
G01*
X152082000Y-90506000D02*
G75*
G03*
X152082000Y-90506000I-250000J0D01*
G01*
X225042000Y-87346000D02*
G75*
G03*
X225042000Y-87346000I-250000J0D01*
G01*
X232542000Y-87346000D02*
G75*
G03*
X232542000Y-87346000I-250000J0D01*
G01*
X216102000Y-87346000D02*
G75*
G03*
X216102000Y-87346000I-250000J0D01*
G01*
X223602000Y-87346000D02*
G75*
G03*
X223602000Y-87346000I-250000J0D01*
G01*
X207162000Y-87346000D02*
G75*
G03*
X207162000Y-87346000I-250000J0D01*
G01*
X214662000Y-87346000D02*
G75*
G03*
X214662000Y-87346000I-250000J0D01*
G01*
X198222000Y-87346000D02*
G75*
G03*
X198222000Y-87346000I-250000J0D01*
G01*
X205722000Y-87346000D02*
G75*
G03*
X205722000Y-87346000I-250000J0D01*
G01*
X189282000Y-87346000D02*
G75*
G03*
X189282000Y-87346000I-250000J0D01*
G01*
X196782000Y-87346000D02*
G75*
G03*
X196782000Y-87346000I-250000J0D01*
G01*
X180342000Y-87346000D02*
G75*
G03*
X180342000Y-87346000I-250000J0D01*
G01*
X187842000Y-87346000D02*
G75*
G03*
X187842000Y-87346000I-250000J0D01*
G01*
X171402000Y-87346000D02*
G75*
G03*
X171402000Y-87346000I-250000J0D01*
G01*
X178902000Y-87346000D02*
G75*
G03*
X178902000Y-87346000I-250000J0D01*
G01*
X162462000Y-87346000D02*
G75*
G03*
X162462000Y-87346000I-250000J0D01*
G01*
X169962000Y-87346000D02*
G75*
G03*
X169962000Y-87346000I-250000J0D01*
G01*
X153522000Y-87346000D02*
G75*
G03*
X153522000Y-87346000I-250000J0D01*
G01*
X161022000Y-87346000D02*
G75*
G03*
X161022000Y-87346000I-250000J0D01*
G01*
X144582000Y-87346000D02*
G75*
G03*
X144582000Y-87346000I-250000J0D01*
G01*
X152082000Y-87346000D02*
G75*
G03*
X152082000Y-87346000I-250000J0D01*
G01*
X225042000Y-84186000D02*
G75*
G03*
X225042000Y-84186000I-250000J0D01*
G01*
X232542000Y-84186000D02*
G75*
G03*
X232542000Y-84186000I-250000J0D01*
G01*
X216102000Y-84186000D02*
G75*
G03*
X216102000Y-84186000I-250000J0D01*
G01*
X223602000Y-84186000D02*
G75*
G03*
X223602000Y-84186000I-250000J0D01*
G01*
X207162000Y-84186000D02*
G75*
G03*
X207162000Y-84186000I-250000J0D01*
G01*
X214662000Y-84186000D02*
G75*
G03*
X214662000Y-84186000I-250000J0D01*
G01*
X198222000Y-84186000D02*
G75*
G03*
X198222000Y-84186000I-250000J0D01*
G01*
X205722000Y-84186000D02*
G75*
G03*
X205722000Y-84186000I-250000J0D01*
G01*
X189282000Y-84186000D02*
G75*
G03*
X189282000Y-84186000I-250000J0D01*
G01*
X196782000Y-84186000D02*
G75*
G03*
X196782000Y-84186000I-250000J0D01*
G01*
X180342000Y-84186000D02*
G75*
G03*
X180342000Y-84186000I-250000J0D01*
G01*
X187842000Y-84186000D02*
G75*
G03*
X187842000Y-84186000I-250000J0D01*
G01*
X171402000Y-84186000D02*
G75*
G03*
X171402000Y-84186000I-250000J0D01*
G01*
X178902000Y-84186000D02*
G75*
G03*
X178902000Y-84186000I-250000J0D01*
G01*
X162462000Y-84186000D02*
G75*
G03*
X162462000Y-84186000I-250000J0D01*
G01*
X169962000Y-84186000D02*
G75*
G03*
X169962000Y-84186000I-250000J0D01*
G01*
X153522000Y-84186000D02*
G75*
G03*
X153522000Y-84186000I-250000J0D01*
G01*
X161022000Y-84186000D02*
G75*
G03*
X161022000Y-84186000I-250000J0D01*
G01*
X144582000Y-84186000D02*
G75*
G03*
X144582000Y-84186000I-250000J0D01*
G01*
X152082000Y-84186000D02*
G75*
G03*
X152082000Y-84186000I-250000J0D01*
G01*
X225042000Y-81026000D02*
G75*
G03*
X225042000Y-81026000I-250000J0D01*
G01*
X232542000Y-81026000D02*
G75*
G03*
X232542000Y-81026000I-250000J0D01*
G01*
X216102000Y-81026000D02*
G75*
G03*
X216102000Y-81026000I-250000J0D01*
G01*
X223602000Y-81026000D02*
G75*
G03*
X223602000Y-81026000I-250000J0D01*
G01*
X207162000Y-81026000D02*
G75*
G03*
X207162000Y-81026000I-250000J0D01*
G01*
X214662000Y-81026000D02*
G75*
G03*
X214662000Y-81026000I-250000J0D01*
G01*
X198222000Y-81026000D02*
G75*
G03*
X198222000Y-81026000I-250000J0D01*
G01*
X205722000Y-81026000D02*
G75*
G03*
X205722000Y-81026000I-250000J0D01*
G01*
X189282000Y-81026000D02*
G75*
G03*
X189282000Y-81026000I-250000J0D01*
G01*
X196782000Y-81026000D02*
G75*
G03*
X196782000Y-81026000I-250000J0D01*
G01*
X180342000Y-81026000D02*
G75*
G03*
X180342000Y-81026000I-250000J0D01*
G01*
X187842000Y-81026000D02*
G75*
G03*
X187842000Y-81026000I-250000J0D01*
G01*
X171402000Y-81026000D02*
G75*
G03*
X171402000Y-81026000I-250000J0D01*
G01*
X178902000Y-81026000D02*
G75*
G03*
X178902000Y-81026000I-250000J0D01*
G01*
X162462000Y-81026000D02*
G75*
G03*
X162462000Y-81026000I-250000J0D01*
G01*
X169962000Y-81026000D02*
G75*
G03*
X169962000Y-81026000I-250000J0D01*
G01*
X153522000Y-81026000D02*
G75*
G03*
X153522000Y-81026000I-250000J0D01*
G01*
X161022000Y-81026000D02*
G75*
G03*
X161022000Y-81026000I-250000J0D01*
G01*
X144582000Y-81026000D02*
G75*
G03*
X144582000Y-81026000I-250000J0D01*
G01*
X152082000Y-81026000D02*
G75*
G03*
X152082000Y-81026000I-250000J0D01*
G01*
%TD*%
M02*
