%TF.GenerationSoftware,KiCad,Pcbnew,(6.0.7)*%
%TF.CreationDate,2023-04-05T23:06:48+08:00*%
%TF.ProjectId,MicroUSB2TypeC,4d696372-6f55-4534-9232-54797065432e,rev?*%
%TF.SameCoordinates,Original*%
%TF.FileFunction,Soldermask,Bot*%
%TF.FilePolarity,Negative*%
%FSLAX46Y46*%
G04 Gerber Fmt 4.6, Leading zero omitted, Abs format (unit mm)*
G04 Created by KiCad (PCBNEW (6.0.7)) date 2023-04-05 23:06:48*
%MOMM*%
%LPD*%
G01*
G04 APERTURE LIST*
G04 Aperture macros list*
%AMRoundRect*
0 Rectangle with rounded corners*
0 $1 Rounding radius*
0 $2 $3 $4 $5 $6 $7 $8 $9 X,Y pos of 4 corners*
0 Add a 4 corners polygon primitive as box body*
4,1,4,$2,$3,$4,$5,$6,$7,$8,$9,$2,$3,0*
0 Add four circle primitives for the rounded corners*
1,1,$1+$1,$2,$3*
1,1,$1+$1,$4,$5*
1,1,$1+$1,$6,$7*
1,1,$1+$1,$8,$9*
0 Add four rect primitives between the rounded corners*
20,1,$1+$1,$2,$3,$4,$5,0*
20,1,$1+$1,$4,$5,$6,$7,0*
20,1,$1+$1,$6,$7,$8,$9,0*
20,1,$1+$1,$8,$9,$2,$3,0*%
G04 Aperture macros list end*
%ADD10RoundRect,0.200000X0.275000X-0.200000X0.275000X0.200000X-0.275000X0.200000X-0.275000X-0.200000X0*%
%ADD11R,0.400000X0.400000*%
G04 APERTURE END LIST*
D10*
%TO.C,R2*%
X186410000Y-94565000D03*
X186410000Y-92915000D03*
%TD*%
%TO.C,R1*%
X181260000Y-94565000D03*
X181260000Y-92915000D03*
%TD*%
D11*
%TO.C,J2*%
X182542000Y-95020000D03*
X183192000Y-95020000D03*
X183842000Y-95020000D03*
X184492000Y-95020000D03*
X185142000Y-95020000D03*
%TD*%
D10*
%TO.C,R2*%
X177470000Y-94565000D03*
X177470000Y-92915000D03*
%TD*%
%TO.C,R1*%
X172320000Y-94565000D03*
X172320000Y-92915000D03*
%TD*%
D11*
%TO.C,J2*%
X173602000Y-95020000D03*
X174252000Y-95020000D03*
X174902000Y-95020000D03*
X175552000Y-95020000D03*
X176202000Y-95020000D03*
%TD*%
D10*
%TO.C,R2*%
X168530000Y-94565000D03*
X168530000Y-92915000D03*
%TD*%
D11*
%TO.C,J2*%
X164662000Y-95020000D03*
X165312000Y-95020000D03*
X165962000Y-95020000D03*
X166612000Y-95020000D03*
X167262000Y-95020000D03*
%TD*%
D10*
%TO.C,R1*%
X163380000Y-94565000D03*
X163380000Y-92915000D03*
%TD*%
%TO.C,R2*%
X159590000Y-94565000D03*
X159590000Y-92915000D03*
%TD*%
%TO.C,R1*%
X154440000Y-94565000D03*
X154440000Y-92915000D03*
%TD*%
D11*
%TO.C,J2*%
X155722000Y-95020000D03*
X156372000Y-95020000D03*
X157022000Y-95020000D03*
X157672000Y-95020000D03*
X158322000Y-95020000D03*
%TD*%
D10*
%TO.C,R1*%
X145500000Y-94565000D03*
X145500000Y-92915000D03*
%TD*%
D11*
%TO.C,J2*%
X146782000Y-95020000D03*
X147432000Y-95020000D03*
X148082000Y-95020000D03*
X148732000Y-95020000D03*
X149382000Y-95020000D03*
%TD*%
D10*
%TO.C,R2*%
X150650000Y-94565000D03*
X150650000Y-92915000D03*
%TD*%
%TO.C,R2*%
X186410000Y-91405000D03*
X186410000Y-89755000D03*
%TD*%
%TO.C,R1*%
X181260000Y-91405000D03*
X181260000Y-89755000D03*
%TD*%
D11*
%TO.C,J2*%
X182542000Y-91860000D03*
X183192000Y-91860000D03*
X183842000Y-91860000D03*
X184492000Y-91860000D03*
X185142000Y-91860000D03*
%TD*%
D10*
%TO.C,R2*%
X177470000Y-91405000D03*
X177470000Y-89755000D03*
%TD*%
%TO.C,R1*%
X172320000Y-91405000D03*
X172320000Y-89755000D03*
%TD*%
D11*
%TO.C,J2*%
X173602000Y-91860000D03*
X174252000Y-91860000D03*
X174902000Y-91860000D03*
X175552000Y-91860000D03*
X176202000Y-91860000D03*
%TD*%
D10*
%TO.C,R2*%
X168530000Y-91405000D03*
X168530000Y-89755000D03*
%TD*%
%TO.C,R1*%
X163380000Y-91405000D03*
X163380000Y-89755000D03*
%TD*%
D11*
%TO.C,J2*%
X164662000Y-91860000D03*
X165312000Y-91860000D03*
X165962000Y-91860000D03*
X166612000Y-91860000D03*
X167262000Y-91860000D03*
%TD*%
D10*
%TO.C,R2*%
X159590000Y-91405000D03*
X159590000Y-89755000D03*
%TD*%
%TO.C,R1*%
X154440000Y-91405000D03*
X154440000Y-89755000D03*
%TD*%
D11*
%TO.C,J2*%
X155722000Y-91860000D03*
X156372000Y-91860000D03*
X157022000Y-91860000D03*
X157672000Y-91860000D03*
X158322000Y-91860000D03*
%TD*%
D10*
%TO.C,R2*%
X150650000Y-91405000D03*
X150650000Y-89755000D03*
%TD*%
%TO.C,R1*%
X145500000Y-91405000D03*
X145500000Y-89755000D03*
%TD*%
D11*
%TO.C,J2*%
X146782000Y-91860000D03*
X147432000Y-91860000D03*
X148082000Y-91860000D03*
X148732000Y-91860000D03*
X149382000Y-91860000D03*
%TD*%
D10*
%TO.C,R2*%
X186410000Y-88245000D03*
X186410000Y-86595000D03*
%TD*%
%TO.C,R1*%
X181260000Y-88245000D03*
X181260000Y-86595000D03*
%TD*%
D11*
%TO.C,J2*%
X182542000Y-88700000D03*
X183192000Y-88700000D03*
X183842000Y-88700000D03*
X184492000Y-88700000D03*
X185142000Y-88700000D03*
%TD*%
D10*
%TO.C,R2*%
X177470000Y-88245000D03*
X177470000Y-86595000D03*
%TD*%
%TO.C,R1*%
X172320000Y-88245000D03*
X172320000Y-86595000D03*
%TD*%
D11*
%TO.C,J2*%
X173602000Y-88700000D03*
X174252000Y-88700000D03*
X174902000Y-88700000D03*
X175552000Y-88700000D03*
X176202000Y-88700000D03*
%TD*%
D10*
%TO.C,R2*%
X168530000Y-88245000D03*
X168530000Y-86595000D03*
%TD*%
%TO.C,R1*%
X163380000Y-88245000D03*
X163380000Y-86595000D03*
%TD*%
D11*
%TO.C,J2*%
X164662000Y-88700000D03*
X165312000Y-88700000D03*
X165962000Y-88700000D03*
X166612000Y-88700000D03*
X167262000Y-88700000D03*
%TD*%
D10*
%TO.C,R2*%
X159590000Y-88245000D03*
X159590000Y-86595000D03*
%TD*%
%TO.C,R1*%
X154440000Y-88245000D03*
X154440000Y-86595000D03*
%TD*%
D11*
%TO.C,J2*%
X155722000Y-88700000D03*
X156372000Y-88700000D03*
X157022000Y-88700000D03*
X157672000Y-88700000D03*
X158322000Y-88700000D03*
%TD*%
D10*
%TO.C,R2*%
X150650000Y-88245000D03*
X150650000Y-86595000D03*
%TD*%
%TO.C,R1*%
X145500000Y-88245000D03*
X145500000Y-86595000D03*
%TD*%
D11*
%TO.C,J2*%
X146782000Y-88700000D03*
X147432000Y-88700000D03*
X148082000Y-88700000D03*
X148732000Y-88700000D03*
X149382000Y-88700000D03*
%TD*%
D10*
%TO.C,R2*%
X186410000Y-85085000D03*
X186410000Y-83435000D03*
%TD*%
%TO.C,R1*%
X181260000Y-85085000D03*
X181260000Y-83435000D03*
%TD*%
D11*
%TO.C,J2*%
X182542000Y-85540000D03*
X183192000Y-85540000D03*
X183842000Y-85540000D03*
X184492000Y-85540000D03*
X185142000Y-85540000D03*
%TD*%
D10*
%TO.C,R2*%
X177470000Y-85085000D03*
X177470000Y-83435000D03*
%TD*%
%TO.C,R1*%
X172320000Y-85085000D03*
X172320000Y-83435000D03*
%TD*%
D11*
%TO.C,J2*%
X173602000Y-85540000D03*
X174252000Y-85540000D03*
X174902000Y-85540000D03*
X175552000Y-85540000D03*
X176202000Y-85540000D03*
%TD*%
D10*
%TO.C,R2*%
X168530000Y-85085000D03*
X168530000Y-83435000D03*
%TD*%
%TO.C,R1*%
X163380000Y-85085000D03*
X163380000Y-83435000D03*
%TD*%
D11*
%TO.C,J2*%
X164662000Y-85540000D03*
X165312000Y-85540000D03*
X165962000Y-85540000D03*
X166612000Y-85540000D03*
X167262000Y-85540000D03*
%TD*%
D10*
%TO.C,R2*%
X159590000Y-85085000D03*
X159590000Y-83435000D03*
%TD*%
%TO.C,R1*%
X154440000Y-85085000D03*
X154440000Y-83435000D03*
%TD*%
D11*
%TO.C,J2*%
X155722000Y-85540000D03*
X156372000Y-85540000D03*
X157022000Y-85540000D03*
X157672000Y-85540000D03*
X158322000Y-85540000D03*
%TD*%
D10*
%TO.C,R2*%
X150650000Y-85085000D03*
X150650000Y-83435000D03*
%TD*%
%TO.C,R1*%
X145500000Y-85085000D03*
X145500000Y-83435000D03*
%TD*%
D11*
%TO.C,J2*%
X146782000Y-85540000D03*
X147432000Y-85540000D03*
X148082000Y-85540000D03*
X148732000Y-85540000D03*
X149382000Y-85540000D03*
%TD*%
D10*
%TO.C,R2*%
X186410000Y-81925000D03*
X186410000Y-80275000D03*
%TD*%
%TO.C,R1*%
X181260000Y-81925000D03*
X181260000Y-80275000D03*
%TD*%
D11*
%TO.C,J2*%
X182542000Y-82380000D03*
X183192000Y-82380000D03*
X183842000Y-82380000D03*
X184492000Y-82380000D03*
X185142000Y-82380000D03*
%TD*%
D10*
%TO.C,R2*%
X177470000Y-81925000D03*
X177470000Y-80275000D03*
%TD*%
%TO.C,R1*%
X172320000Y-81925000D03*
X172320000Y-80275000D03*
%TD*%
D11*
%TO.C,J2*%
X173602000Y-82380000D03*
X174252000Y-82380000D03*
X174902000Y-82380000D03*
X175552000Y-82380000D03*
X176202000Y-82380000D03*
%TD*%
D10*
%TO.C,R2*%
X168530000Y-81925000D03*
X168530000Y-80275000D03*
%TD*%
%TO.C,R1*%
X163380000Y-81925000D03*
X163380000Y-80275000D03*
%TD*%
D11*
%TO.C,J2*%
X164662000Y-82380000D03*
X165312000Y-82380000D03*
X165962000Y-82380000D03*
X166612000Y-82380000D03*
X167262000Y-82380000D03*
%TD*%
D10*
%TO.C,R2*%
X159590000Y-81925000D03*
X159590000Y-80275000D03*
%TD*%
%TO.C,R1*%
X154440000Y-81925000D03*
X154440000Y-80275000D03*
%TD*%
D11*
%TO.C,J2*%
X155722000Y-82380000D03*
X156372000Y-82380000D03*
X157022000Y-82380000D03*
X157672000Y-82380000D03*
X158322000Y-82380000D03*
%TD*%
%TO.C,J2*%
X146782000Y-82380000D03*
X147432000Y-82380000D03*
X148082000Y-82380000D03*
X148732000Y-82380000D03*
X149382000Y-82380000D03*
%TD*%
D10*
%TO.C,R1*%
X145500000Y-81925000D03*
X145500000Y-80275000D03*
%TD*%
%TO.C,R2*%
X150650000Y-81925000D03*
X150650000Y-80275000D03*
%TD*%
M02*
