M48
; DRILL file {KiCad (6.0.7)} date Fri Apr  7 20:00:32 2023
; FORMAT={-:-/ absolute / inch / decimal}
; #@! TF.CreationDate,2023-04-07T20:00:32+08:00
; #@! TF.GenerationSoftware,Kicad,Pcbnew,(6.0.7)
; #@! TF.FileFunction,Plated,1,2,PTH
FMAT,2
INCH
; #@! TA.AperFunction,Plated,PTH,ViaDrill
T1C0.0079
; #@! TA.AperFunction,Plated,PTH,ViaDrill
T2C0.0118
%
G90
G05
T1
X5.7745Y-3.19
X5.7745Y-3.3931
X5.7745Y-3.5963
X5.7745Y-3.7994
X5.7745Y-4.0026
X5.7745Y-4.2057
X5.7745Y-4.4089
X5.7745Y-4.612
X5.7745Y-4.8152
X5.7745Y-5.0183
X5.7745Y-5.2215
X5.7745Y-5.4246
X5.7745Y-5.6278
X5.7745Y-5.8309
X5.7808Y-3.2241
X5.7808Y-3.4272
X5.7808Y-3.6304
X5.7808Y-3.8335
X5.7808Y-4.0367
X5.7808Y-4.2398
X5.7808Y-4.443
X5.7808Y-4.6461
X5.7808Y-4.8493
X5.7808Y-5.0524
X5.7808Y-5.2556
X5.7808Y-5.4587
X5.7808Y-5.6619
X5.7808Y-5.865
X5.8202Y-3.1709
X5.8202Y-3.3741
X5.8202Y-3.5772
X5.8202Y-3.7804
X5.8202Y-3.9835
X5.8202Y-4.1867
X5.8202Y-4.3898
X5.8202Y-4.593
X5.8202Y-4.7961
X5.8202Y-4.9993
X5.8202Y-5.2024
X5.8202Y-5.4056
X5.8202Y-5.6087
X5.8202Y-5.8119
X5.8311Y-3.1913
X5.8311Y-3.3945
X5.8311Y-3.5976
X5.8311Y-3.8008
X5.8311Y-4.0039
X5.8311Y-4.2071
X5.8311Y-4.4102
X5.8311Y-4.6134
X5.8311Y-4.8165
X5.8311Y-5.0197
X5.8311Y-5.2228
X5.8311Y-5.426
X5.8311Y-5.6291
X5.8311Y-5.8323
X5.8398Y-3.2142
X5.8398Y-3.4173
X5.8398Y-3.6205
X5.8398Y-3.8236
X5.8398Y-4.0268
X5.8398Y-4.2299
X5.8398Y-4.4331
X5.8398Y-4.6362
X5.8398Y-4.8394
X5.8398Y-5.0425
X5.8398Y-5.2457
X5.8398Y-5.4488
X5.8398Y-5.652
X5.8398Y-5.8551
X5.8849Y-3.1895
X5.8849Y-3.3926
X5.8849Y-3.5958
X5.8849Y-3.7989
X5.8849Y-4.0021
X5.8849Y-4.2052
X5.8849Y-4.4084
X5.8849Y-4.6115
X5.8849Y-4.8147
X5.8849Y-5.0178
X5.8849Y-5.221
X5.8849Y-5.4241
X5.8849Y-5.6273
X5.8849Y-5.8304
X6.1265Y-3.19
X6.1265Y-3.3931
X6.1265Y-3.5963
X6.1265Y-3.7994
X6.1265Y-4.0026
X6.1265Y-4.2057
X6.1265Y-4.4089
X6.1265Y-4.612
X6.1265Y-4.8152
X6.1265Y-5.0183
X6.1265Y-5.2215
X6.1265Y-5.4246
X6.1265Y-5.6278
X6.1265Y-5.8309
X6.1328Y-3.2241
X6.1328Y-3.4272
X6.1328Y-3.6304
X6.1328Y-3.8335
X6.1328Y-4.0367
X6.1328Y-4.2398
X6.1328Y-4.443
X6.1328Y-4.6461
X6.1328Y-4.8493
X6.1328Y-5.0524
X6.1328Y-5.2556
X6.1328Y-5.4587
X6.1328Y-5.6619
X6.1328Y-5.865
X6.1722Y-3.1709
X6.1722Y-3.3741
X6.1722Y-3.5772
X6.1722Y-3.7804
X6.1722Y-3.9835
X6.1722Y-4.1867
X6.1722Y-4.3898
X6.1722Y-4.593
X6.1722Y-4.7961
X6.1722Y-4.9993
X6.1722Y-5.2024
X6.1722Y-5.4056
X6.1722Y-5.6087
X6.1722Y-5.8119
X6.1831Y-3.1913
X6.1831Y-3.3945
X6.1831Y-3.5976
X6.1831Y-3.8008
X6.1831Y-4.0039
X6.1831Y-4.2071
X6.1831Y-4.4102
X6.1831Y-4.6134
X6.1831Y-4.8165
X6.1831Y-5.0197
X6.1831Y-5.2228
X6.1831Y-5.426
X6.1831Y-5.6291
X6.1831Y-5.8323
X6.1917Y-3.2142
X6.1917Y-3.4173
X6.1917Y-3.6205
X6.1917Y-3.8236
X6.1917Y-4.0268
X6.1917Y-4.2299
X6.1917Y-4.4331
X6.1917Y-4.6362
X6.1917Y-4.8394
X6.1917Y-5.0425
X6.1917Y-5.2457
X6.1917Y-5.4488
X6.1917Y-5.652
X6.1917Y-5.8551
X6.2369Y-3.1895
X6.2369Y-3.3926
X6.2369Y-3.5958
X6.2369Y-3.7989
X6.2369Y-4.0021
X6.2369Y-4.2052
X6.2369Y-4.4084
X6.2369Y-4.6115
X6.2369Y-4.8147
X6.2369Y-5.0178
X6.2369Y-5.221
X6.2369Y-5.4241
X6.2369Y-5.6273
X6.2369Y-5.8304
X6.4785Y-3.19
X6.4785Y-3.3931
X6.4785Y-3.5963
X6.4785Y-3.7994
X6.4785Y-4.0026
X6.4785Y-4.2057
X6.4785Y-4.4089
X6.4785Y-4.612
X6.4785Y-4.8152
X6.4785Y-5.0183
X6.4785Y-5.2215
X6.4785Y-5.4246
X6.4785Y-5.6278
X6.4785Y-5.8309
X6.4847Y-3.2241
X6.4847Y-3.4272
X6.4847Y-3.6304
X6.4847Y-3.8335
X6.4847Y-4.0367
X6.4847Y-4.2398
X6.4847Y-4.443
X6.4847Y-4.6461
X6.4847Y-4.8493
X6.4847Y-5.0524
X6.4847Y-5.2556
X6.4847Y-5.4587
X6.4847Y-5.6619
X6.4847Y-5.865
X6.5241Y-3.1709
X6.5241Y-3.3741
X6.5241Y-3.5772
X6.5241Y-3.7804
X6.5241Y-3.9835
X6.5241Y-4.1867
X6.5241Y-4.3898
X6.5241Y-4.593
X6.5241Y-4.7961
X6.5241Y-4.9993
X6.5241Y-5.2024
X6.5241Y-5.4056
X6.5241Y-5.6087
X6.5241Y-5.8119
X6.535Y-3.1913
X6.535Y-3.3945
X6.535Y-3.5976
X6.535Y-3.8008
X6.535Y-4.0039
X6.535Y-4.2071
X6.535Y-4.4102
X6.535Y-4.6134
X6.535Y-4.8165
X6.535Y-5.0197
X6.535Y-5.2228
X6.535Y-5.426
X6.535Y-5.6291
X6.535Y-5.8323
X6.5437Y-3.2142
X6.5437Y-3.4173
X6.5437Y-3.6205
X6.5437Y-3.8236
X6.5437Y-4.0268
X6.5437Y-4.2299
X6.5437Y-4.4331
X6.5437Y-4.6362
X6.5437Y-4.8394
X6.5437Y-5.0425
X6.5437Y-5.2457
X6.5437Y-5.4488
X6.5437Y-5.652
X6.5437Y-5.8551
X6.5889Y-3.1895
X6.5889Y-3.3926
X6.5889Y-3.5958
X6.5889Y-3.7989
X6.5889Y-4.0021
X6.5889Y-4.2052
X6.5889Y-4.4084
X6.5889Y-4.6115
X6.5889Y-4.8147
X6.5889Y-5.0178
X6.5889Y-5.221
X6.5889Y-5.4241
X6.5889Y-5.6273
X6.5889Y-5.8304
X6.8304Y-3.19
X6.8304Y-3.3931
X6.8304Y-3.5963
X6.8304Y-3.7994
X6.8304Y-4.0026
X6.8304Y-4.2057
X6.8304Y-4.4089
X6.8304Y-4.612
X6.8304Y-4.8152
X6.8304Y-5.0183
X6.8304Y-5.2215
X6.8304Y-5.4246
X6.8304Y-5.6278
X6.8304Y-5.8309
X6.8367Y-3.2241
X6.8367Y-3.4272
X6.8367Y-3.6304
X6.8367Y-3.8335
X6.8367Y-4.0367
X6.8367Y-4.2398
X6.8367Y-4.443
X6.8367Y-4.6461
X6.8367Y-4.8493
X6.8367Y-5.0524
X6.8367Y-5.2556
X6.8367Y-5.4587
X6.8367Y-5.6619
X6.8367Y-5.865
X6.8761Y-3.1709
X6.8761Y-3.3741
X6.8761Y-3.5772
X6.8761Y-3.7804
X6.8761Y-3.9835
X6.8761Y-4.1867
X6.8761Y-4.3898
X6.8761Y-4.593
X6.8761Y-4.7961
X6.8761Y-4.9993
X6.8761Y-5.2024
X6.8761Y-5.4056
X6.8761Y-5.6087
X6.8761Y-5.8119
X6.887Y-3.1913
X6.887Y-3.3945
X6.887Y-3.5976
X6.887Y-3.8008
X6.887Y-4.0039
X6.887Y-4.2071
X6.887Y-4.4102
X6.887Y-4.6134
X6.887Y-4.8165
X6.887Y-5.0197
X6.887Y-5.2228
X6.887Y-5.426
X6.887Y-5.6291
X6.887Y-5.8323
X6.8957Y-3.2142
X6.8957Y-3.4173
X6.8957Y-3.6205
X6.8957Y-3.8236
X6.8957Y-4.0268
X6.8957Y-4.2299
X6.8957Y-4.4331
X6.8957Y-4.6362
X6.8957Y-4.8394
X6.8957Y-5.0425
X6.8957Y-5.2457
X6.8957Y-5.4488
X6.8957Y-5.652
X6.8957Y-5.8551
X6.9408Y-3.1895
X6.9408Y-3.3926
X6.9408Y-3.5958
X6.9408Y-3.7989
X6.9408Y-4.0021
X6.9408Y-4.2052
X6.9408Y-4.4084
X6.9408Y-4.6115
X6.9408Y-4.8147
X6.9408Y-5.0178
X6.9408Y-5.221
X6.9408Y-5.4241
X6.9408Y-5.6273
X6.9408Y-5.8304
X7.1824Y-3.19
X7.1824Y-3.3931
X7.1824Y-3.5963
X7.1824Y-3.7994
X7.1824Y-4.0026
X7.1824Y-4.2057
X7.1824Y-4.4089
X7.1824Y-4.612
X7.1824Y-4.8152
X7.1824Y-5.0183
X7.1824Y-5.2215
X7.1824Y-5.4246
X7.1824Y-5.6278
X7.1824Y-5.8309
X7.1887Y-3.2241
X7.1887Y-3.4272
X7.1887Y-3.6304
X7.1887Y-3.8335
X7.1887Y-4.0367
X7.1887Y-4.2398
X7.1887Y-4.443
X7.1887Y-4.6461
X7.1887Y-4.8493
X7.1887Y-5.0524
X7.1887Y-5.2556
X7.1887Y-5.4587
X7.1887Y-5.6619
X7.1887Y-5.865
X7.2281Y-3.1709
X7.2281Y-3.3741
X7.2281Y-3.5772
X7.2281Y-3.7804
X7.2281Y-3.9835
X7.2281Y-4.1867
X7.2281Y-4.3898
X7.2281Y-4.593
X7.2281Y-4.7961
X7.2281Y-4.9993
X7.2281Y-5.2024
X7.2281Y-5.4056
X7.2281Y-5.6087
X7.2281Y-5.8119
X7.239Y-3.1913
X7.239Y-3.3945
X7.239Y-3.5976
X7.239Y-3.8008
X7.239Y-4.0039
X7.239Y-4.2071
X7.239Y-4.4102
X7.239Y-4.6134
X7.239Y-4.8165
X7.239Y-5.0197
X7.239Y-5.2228
X7.239Y-5.426
X7.239Y-5.6291
X7.239Y-5.8323
X7.2476Y-3.2142
X7.2476Y-3.4173
X7.2476Y-3.6205
X7.2476Y-3.8236
X7.2476Y-4.0268
X7.2476Y-4.2299
X7.2476Y-4.4331
X7.2476Y-4.6362
X7.2476Y-4.8394
X7.2476Y-5.0425
X7.2476Y-5.2457
X7.2476Y-5.4488
X7.2476Y-5.652
X7.2476Y-5.8551
X7.2928Y-3.1895
X7.2928Y-3.3926
X7.2928Y-3.5958
X7.2928Y-3.7989
X7.2928Y-4.0021
X7.2928Y-4.2052
X7.2928Y-4.4084
X7.2928Y-4.6115
X7.2928Y-4.8147
X7.2928Y-5.0178
X7.2928Y-5.221
X7.2928Y-5.4241
X7.2928Y-5.6273
X7.2928Y-5.8304
X7.5344Y-3.19
X7.5344Y-3.3931
X7.5344Y-3.5963
X7.5344Y-3.7994
X7.5344Y-4.0026
X7.5344Y-4.2057
X7.5344Y-4.4089
X7.5344Y-4.612
X7.5344Y-4.8152
X7.5344Y-5.0183
X7.5344Y-5.2215
X7.5344Y-5.4246
X7.5344Y-5.6278
X7.5344Y-5.8309
X7.5406Y-3.2241
X7.5406Y-3.4272
X7.5406Y-3.6304
X7.5406Y-3.8335
X7.5406Y-4.0367
X7.5406Y-4.2398
X7.5406Y-4.443
X7.5406Y-4.6461
X7.5406Y-4.8493
X7.5406Y-5.0524
X7.5406Y-5.2556
X7.5406Y-5.4587
X7.5406Y-5.6619
X7.5406Y-5.865
X7.58Y-3.1709
X7.58Y-3.3741
X7.58Y-3.5772
X7.58Y-3.7804
X7.58Y-3.9835
X7.58Y-4.1867
X7.58Y-4.3898
X7.58Y-4.593
X7.58Y-4.7961
X7.58Y-4.9993
X7.58Y-5.2024
X7.58Y-5.4056
X7.58Y-5.6087
X7.58Y-5.8119
X7.5909Y-3.1913
X7.5909Y-3.3945
X7.5909Y-3.5976
X7.5909Y-3.8008
X7.5909Y-4.0039
X7.5909Y-4.2071
X7.5909Y-4.4102
X7.5909Y-4.6134
X7.5909Y-4.8165
X7.5909Y-5.0197
X7.5909Y-5.2228
X7.5909Y-5.426
X7.5909Y-5.6291
X7.5909Y-5.8323
X7.5996Y-3.2142
X7.5996Y-3.4173
X7.5996Y-3.6205
X7.5996Y-3.8236
X7.5996Y-4.0268
X7.5996Y-4.2299
X7.5996Y-4.4331
X7.5996Y-4.6362
X7.5996Y-4.8394
X7.5996Y-5.0425
X7.5996Y-5.2457
X7.5996Y-5.4488
X7.5996Y-5.652
X7.5996Y-5.8551
X7.6448Y-3.1895
X7.6448Y-3.3926
X7.6448Y-3.5958
X7.6448Y-3.7989
X7.6448Y-4.0021
X7.6448Y-4.2052
X7.6448Y-4.4084
X7.6448Y-4.6115
X7.6448Y-4.8147
X7.6448Y-5.0178
X7.6448Y-5.221
X7.6448Y-5.4241
X7.6448Y-5.6273
X7.6448Y-5.8304
X7.8864Y-3.19
X7.8864Y-3.3931
X7.8864Y-3.5963
X7.8864Y-3.7994
X7.8864Y-4.0026
X7.8864Y-4.2057
X7.8864Y-4.4089
X7.8864Y-4.612
X7.8864Y-4.8152
X7.8864Y-5.0183
X7.8864Y-5.2215
X7.8864Y-5.4246
X7.8864Y-5.6278
X7.8864Y-5.8309
X7.8926Y-3.2241
X7.8926Y-3.4272
X7.8926Y-3.6304
X7.8926Y-3.8335
X7.8926Y-4.0367
X7.8926Y-4.2398
X7.8926Y-4.443
X7.8926Y-4.6461
X7.8926Y-4.8493
X7.8926Y-5.0524
X7.8926Y-5.2556
X7.8926Y-5.4587
X7.8926Y-5.6619
X7.8926Y-5.865
X7.932Y-3.1709
X7.932Y-3.3741
X7.932Y-3.5772
X7.932Y-3.7804
X7.932Y-3.9835
X7.932Y-4.1867
X7.932Y-4.3898
X7.932Y-4.593
X7.932Y-4.7961
X7.932Y-4.9993
X7.932Y-5.2024
X7.932Y-5.4056
X7.932Y-5.6087
X7.932Y-5.8119
X7.9429Y-3.1913
X7.9429Y-3.3945
X7.9429Y-3.5976
X7.9429Y-3.8008
X7.9429Y-4.0039
X7.9429Y-4.2071
X7.9429Y-4.4102
X7.9429Y-4.6134
X7.9429Y-4.8165
X7.9429Y-5.0197
X7.9429Y-5.2228
X7.9429Y-5.426
X7.9429Y-5.6291
X7.9429Y-5.8323
X7.9516Y-3.2142
X7.9516Y-3.4173
X7.9516Y-3.6205
X7.9516Y-3.8236
X7.9516Y-4.0268
X7.9516Y-4.2299
X7.9516Y-4.4331
X7.9516Y-4.6362
X7.9516Y-4.8394
X7.9516Y-5.0425
X7.9516Y-5.2457
X7.9516Y-5.4488
X7.9516Y-5.652
X7.9516Y-5.8551
X7.9968Y-3.1895
X7.9968Y-3.3926
X7.9968Y-3.5958
X7.9968Y-3.7989
X7.9968Y-4.0021
X7.9968Y-4.2052
X7.9968Y-4.4084
X7.9968Y-4.6115
X7.9968Y-4.8147
X7.9968Y-5.0178
X7.9968Y-5.221
X7.9968Y-5.4241
X7.9968Y-5.6273
X7.9968Y-5.8304
X8.2383Y-3.19
X8.2383Y-3.3931
X8.2383Y-3.5963
X8.2383Y-3.7994
X8.2383Y-4.0026
X8.2383Y-4.2057
X8.2383Y-4.4089
X8.2383Y-4.612
X8.2383Y-4.8152
X8.2383Y-5.0183
X8.2383Y-5.2215
X8.2383Y-5.4246
X8.2383Y-5.6278
X8.2383Y-5.8309
X8.2446Y-3.2241
X8.2446Y-3.4272
X8.2446Y-3.6304
X8.2446Y-3.8335
X8.2446Y-4.0367
X8.2446Y-4.2398
X8.2446Y-4.443
X8.2446Y-4.6461
X8.2446Y-4.8493
X8.2446Y-5.0524
X8.2446Y-5.2556
X8.2446Y-5.4587
X8.2446Y-5.6619
X8.2446Y-5.865
X8.284Y-3.1709
X8.284Y-3.3741
X8.284Y-3.5772
X8.284Y-3.7804
X8.284Y-3.9835
X8.284Y-4.1867
X8.284Y-4.3898
X8.284Y-4.593
X8.284Y-4.7961
X8.284Y-4.9993
X8.284Y-5.2024
X8.284Y-5.4056
X8.284Y-5.6087
X8.284Y-5.8119
X8.2949Y-3.1913
X8.2949Y-3.3945
X8.2949Y-3.5976
X8.2949Y-3.8008
X8.2949Y-4.0039
X8.2949Y-4.2071
X8.2949Y-4.4102
X8.2949Y-4.6134
X8.2949Y-4.8165
X8.2949Y-5.0197
X8.2949Y-5.2228
X8.2949Y-5.426
X8.2949Y-5.6291
X8.2949Y-5.8323
X8.3035Y-3.2142
X8.3035Y-3.4173
X8.3035Y-3.6205
X8.3035Y-3.8236
X8.3035Y-4.0268
X8.3035Y-4.2299
X8.3035Y-4.4331
X8.3035Y-4.6362
X8.3035Y-4.8394
X8.3035Y-5.0425
X8.3035Y-5.2457
X8.3035Y-5.4488
X8.3035Y-5.652
X8.3035Y-5.8551
X8.3487Y-3.1895
X8.3487Y-3.3926
X8.3487Y-3.5958
X8.3487Y-3.7989
X8.3487Y-4.0021
X8.3487Y-4.2052
X8.3487Y-4.4084
X8.3487Y-4.6115
X8.3487Y-4.8147
X8.3487Y-5.0178
X8.3487Y-5.221
X8.3487Y-5.4241
X8.3487Y-5.6273
X8.3487Y-5.8304
X8.5903Y-3.19
X8.5903Y-3.3931
X8.5903Y-3.5963
X8.5903Y-3.7994
X8.5903Y-4.0026
X8.5903Y-4.2057
X8.5903Y-4.4089
X8.5903Y-4.612
X8.5903Y-4.8152
X8.5903Y-5.0183
X8.5903Y-5.2215
X8.5903Y-5.4246
X8.5903Y-5.6278
X8.5903Y-5.8309
X8.5965Y-3.2241
X8.5965Y-3.4272
X8.5965Y-3.6304
X8.5965Y-3.8335
X8.5965Y-4.0367
X8.5965Y-4.2398
X8.5965Y-4.443
X8.5965Y-4.6461
X8.5965Y-4.8493
X8.5965Y-5.0524
X8.5965Y-5.2556
X8.5965Y-5.4587
X8.5965Y-5.6619
X8.5965Y-5.865
X8.6359Y-3.1709
X8.6359Y-3.3741
X8.6359Y-3.5772
X8.6359Y-3.7804
X8.6359Y-3.9835
X8.6359Y-4.1867
X8.6359Y-4.3898
X8.6359Y-4.593
X8.6359Y-4.7961
X8.6359Y-4.9993
X8.6359Y-5.2024
X8.6359Y-5.4056
X8.6359Y-5.6087
X8.6359Y-5.8119
X8.6469Y-3.1913
X8.6469Y-3.3945
X8.6469Y-3.5976
X8.6469Y-3.8008
X8.6469Y-4.0039
X8.6469Y-4.2071
X8.6469Y-4.4102
X8.6469Y-4.6134
X8.6469Y-4.8165
X8.6469Y-5.0197
X8.6469Y-5.2228
X8.6469Y-5.426
X8.6469Y-5.6291
X8.6469Y-5.8323
X8.6555Y-3.2142
X8.6555Y-3.4173
X8.6555Y-3.6205
X8.6555Y-3.8236
X8.6555Y-4.0268
X8.6555Y-4.2299
X8.6555Y-4.4331
X8.6555Y-4.6362
X8.6555Y-4.8394
X8.6555Y-5.0425
X8.6555Y-5.2457
X8.6555Y-5.4488
X8.6555Y-5.652
X8.6555Y-5.8551
X8.7007Y-3.1895
X8.7007Y-3.3926
X8.7007Y-3.5958
X8.7007Y-3.7989
X8.7007Y-4.0021
X8.7007Y-4.2052
X8.7007Y-4.4084
X8.7007Y-4.6115
X8.7007Y-4.8147
X8.7007Y-5.0178
X8.7007Y-5.221
X8.7007Y-5.4241
X8.7007Y-5.6273
X8.7007Y-5.8304
X8.9423Y-3.19
X8.9423Y-3.3931
X8.9423Y-3.5963
X8.9423Y-3.7994
X8.9423Y-4.0026
X8.9423Y-4.2057
X8.9423Y-4.4089
X8.9423Y-4.612
X8.9423Y-4.8152
X8.9423Y-5.0183
X8.9423Y-5.2215
X8.9423Y-5.4246
X8.9423Y-5.6278
X8.9423Y-5.8309
X8.9485Y-3.2241
X8.9485Y-3.4272
X8.9485Y-3.6304
X8.9485Y-3.8335
X8.9485Y-4.0367
X8.9485Y-4.2398
X8.9485Y-4.443
X8.9485Y-4.6461
X8.9485Y-4.8493
X8.9485Y-5.0524
X8.9485Y-5.2556
X8.9485Y-5.4587
X8.9485Y-5.6619
X8.9485Y-5.865
X8.9879Y-3.1709
X8.9879Y-3.3741
X8.9879Y-3.5772
X8.9879Y-3.7804
X8.9879Y-3.9835
X8.9879Y-4.1867
X8.9879Y-4.3898
X8.9879Y-4.593
X8.9879Y-4.7961
X8.9879Y-4.9993
X8.9879Y-5.2024
X8.9879Y-5.4056
X8.9879Y-5.6087
X8.9879Y-5.8119
X8.9988Y-3.1913
X8.9988Y-3.3945
X8.9988Y-3.5976
X8.9988Y-3.8008
X8.9988Y-4.0039
X8.9988Y-4.2071
X8.9988Y-4.4102
X8.9988Y-4.6134
X8.9988Y-4.8165
X8.9988Y-5.0197
X8.9988Y-5.2228
X8.9988Y-5.426
X8.9988Y-5.6291
X8.9988Y-5.8323
X9.0075Y-3.2142
X9.0075Y-3.4173
X9.0075Y-3.6205
X9.0075Y-3.8236
X9.0075Y-4.0268
X9.0075Y-4.2299
X9.0075Y-4.4331
X9.0075Y-4.6362
X9.0075Y-4.8394
X9.0075Y-5.0425
X9.0075Y-5.2457
X9.0075Y-5.4488
X9.0075Y-5.652
X9.0075Y-5.8551
X9.0527Y-3.1895
X9.0527Y-3.3926
X9.0527Y-3.5958
X9.0527Y-3.7989
X9.0527Y-4.0021
X9.0527Y-4.2052
X9.0527Y-4.4084
X9.0527Y-4.6115
X9.0527Y-4.8147
X9.0527Y-5.0178
X9.0527Y-5.221
X9.0527Y-5.4241
X9.0527Y-5.6273
X9.0527Y-5.8304
T2
X5.68Y-3.15
X5.68Y-3.23
X5.68Y-3.3531
X5.68Y-3.4331
X5.68Y-3.5563
X5.68Y-3.6363
X5.68Y-3.7594
X5.68Y-3.8394
X5.68Y-3.9626
X5.68Y-4.0426
X5.68Y-4.1657
X5.68Y-4.2457
X5.68Y-4.3689
X5.68Y-4.4489
X5.68Y-4.572
X5.68Y-4.652
X5.68Y-4.7752
X5.68Y-4.8552
X5.68Y-4.9783
X5.68Y-5.0583
X5.68Y-5.1815
X5.68Y-5.2615
X5.68Y-5.3846
X5.68Y-5.4646
X5.68Y-5.5878
X5.68Y-5.6678
X5.68Y-5.7909
X5.68Y-5.8709
X5.7303Y-3.2323
X5.7303Y-3.4354
X5.7303Y-3.6386
X5.7303Y-3.8417
X5.7303Y-4.0449
X5.7303Y-4.248
X5.7303Y-4.4512
X5.7303Y-4.6543
X5.7303Y-4.8575
X5.7303Y-5.0606
X5.7303Y-5.2638
X5.7303Y-5.4669
X5.7303Y-5.6701
X5.7303Y-5.8732
X5.7769Y-3.1559
X5.7769Y-3.3591
X5.7769Y-3.5622
X5.7769Y-3.7654
X5.7769Y-3.9685
X5.7769Y-4.1717
X5.7769Y-4.3748
X5.7769Y-4.578
X5.7769Y-4.7811
X5.7769Y-4.9843
X5.7769Y-5.1874
X5.7769Y-5.3906
X5.7769Y-5.5937
X5.7769Y-5.7969
X5.8831Y-3.1559
X5.8831Y-3.3591
X5.8831Y-3.5622
X5.8831Y-3.7654
X5.8831Y-3.9685
X5.8831Y-4.1717
X5.8831Y-4.3748
X5.8831Y-4.578
X5.8831Y-4.7811
X5.8831Y-4.9843
X5.8831Y-5.1874
X5.8831Y-5.3906
X5.8831Y-5.5937
X5.8831Y-5.7969
X5.9291Y-3.2343
X5.9291Y-3.4374
X5.9291Y-3.6406
X5.9291Y-3.8437
X5.9291Y-4.0469
X5.9291Y-4.25
X5.9291Y-4.4531
X5.9291Y-4.6563
X5.9291Y-4.8594
X5.9291Y-5.0626
X5.9291Y-5.2657
X5.9291Y-5.4689
X5.9291Y-5.672
X5.9291Y-5.8752
X5.98Y-3.15
X5.98Y-3.23
X5.98Y-3.3531
X5.98Y-3.4331
X5.98Y-3.5563
X5.98Y-3.6363
X5.98Y-3.7594
X5.98Y-3.8394
X5.98Y-3.9626
X5.98Y-4.0426
X5.98Y-4.1657
X5.98Y-4.2457
X5.98Y-4.3689
X5.98Y-4.4489
X5.98Y-4.572
X5.98Y-4.652
X5.98Y-4.7752
X5.98Y-4.8552
X5.98Y-4.9783
X5.98Y-5.0583
X5.98Y-5.1815
X5.98Y-5.2615
X5.98Y-5.3846
X5.98Y-5.4646
X5.98Y-5.5878
X5.98Y-5.6678
X5.98Y-5.7909
X5.98Y-5.8709
X6.032Y-3.15
X6.032Y-3.23
X6.032Y-3.3531
X6.032Y-3.4331
X6.032Y-3.5563
X6.032Y-3.6363
X6.032Y-3.7594
X6.032Y-3.8394
X6.032Y-3.9626
X6.032Y-4.0426
X6.032Y-4.1657
X6.032Y-4.2457
X6.032Y-4.3689
X6.032Y-4.4489
X6.032Y-4.572
X6.032Y-4.652
X6.032Y-4.7752
X6.032Y-4.8552
X6.032Y-4.9783
X6.032Y-5.0583
X6.032Y-5.1815
X6.032Y-5.2615
X6.032Y-5.3846
X6.032Y-5.4646
X6.032Y-5.5878
X6.032Y-5.6678
X6.032Y-5.7909
X6.032Y-5.8709
X6.0823Y-3.2323
X6.0823Y-3.4354
X6.0823Y-3.6386
X6.0823Y-3.8417
X6.0823Y-4.0449
X6.0823Y-4.248
X6.0823Y-4.4512
X6.0823Y-4.6543
X6.0823Y-4.8575
X6.0823Y-5.0606
X6.0823Y-5.2638
X6.0823Y-5.4669
X6.0823Y-5.6701
X6.0823Y-5.8732
X6.1288Y-3.1559
X6.1288Y-3.3591
X6.1288Y-3.5622
X6.1288Y-3.7654
X6.1288Y-3.9685
X6.1288Y-4.1717
X6.1288Y-4.3748
X6.1288Y-4.578
X6.1288Y-4.7811
X6.1288Y-4.9843
X6.1288Y-5.1874
X6.1288Y-5.3906
X6.1288Y-5.5937
X6.1288Y-5.7969
X6.2351Y-3.1559
X6.2351Y-3.3591
X6.2351Y-3.5622
X6.2351Y-3.7654
X6.2351Y-3.9685
X6.2351Y-4.1717
X6.2351Y-4.3748
X6.2351Y-4.578
X6.2351Y-4.7811
X6.2351Y-4.9843
X6.2351Y-5.1874
X6.2351Y-5.3906
X6.2351Y-5.5937
X6.2351Y-5.7969
X6.2811Y-3.2343
X6.2811Y-3.4374
X6.2811Y-3.6406
X6.2811Y-3.8437
X6.2811Y-4.0469
X6.2811Y-4.25
X6.2811Y-4.4531
X6.2811Y-4.6563
X6.2811Y-4.8594
X6.2811Y-5.0626
X6.2811Y-5.2657
X6.2811Y-5.4689
X6.2811Y-5.672
X6.2811Y-5.8752
X6.332Y-3.15
X6.332Y-3.23
X6.332Y-3.3531
X6.332Y-3.4331
X6.332Y-3.5563
X6.332Y-3.6363
X6.332Y-3.7594
X6.332Y-3.8394
X6.332Y-3.9626
X6.332Y-4.0426
X6.332Y-4.1657
X6.332Y-4.2457
X6.332Y-4.3689
X6.332Y-4.4489
X6.332Y-4.572
X6.332Y-4.652
X6.332Y-4.7752
X6.332Y-4.8552
X6.332Y-4.9783
X6.332Y-5.0583
X6.332Y-5.1815
X6.332Y-5.2615
X6.332Y-5.3846
X6.332Y-5.4646
X6.332Y-5.5878
X6.332Y-5.6678
X6.332Y-5.7909
X6.332Y-5.8709
X6.3839Y-3.15
X6.3839Y-3.23
X6.3839Y-3.3531
X6.3839Y-3.4331
X6.3839Y-3.5563
X6.3839Y-3.6363
X6.3839Y-3.7594
X6.3839Y-3.8394
X6.3839Y-3.9626
X6.3839Y-4.0426
X6.3839Y-4.1657
X6.3839Y-4.2457
X6.3839Y-4.3689
X6.3839Y-4.4489
X6.3839Y-4.572
X6.3839Y-4.652
X6.3839Y-4.7752
X6.3839Y-4.8552
X6.3839Y-4.9783
X6.3839Y-5.0583
X6.3839Y-5.1815
X6.3839Y-5.2615
X6.3839Y-5.3846
X6.3839Y-5.4646
X6.3839Y-5.5878
X6.3839Y-5.6678
X6.3839Y-5.7909
X6.3839Y-5.8709
X6.4343Y-3.2323
X6.4343Y-3.4354
X6.4343Y-3.6386
X6.4343Y-3.8417
X6.4343Y-4.0449
X6.4343Y-4.248
X6.4343Y-4.4512
X6.4343Y-4.6543
X6.4343Y-4.8575
X6.4343Y-5.0606
X6.4343Y-5.2638
X6.4343Y-5.4669
X6.4343Y-5.6701
X6.4343Y-5.8732
X6.4808Y-3.1559
X6.4808Y-3.3591
X6.4808Y-3.5622
X6.4808Y-3.7654
X6.4808Y-3.9685
X6.4808Y-4.1717
X6.4808Y-4.3748
X6.4808Y-4.578
X6.4808Y-4.7811
X6.4808Y-4.9843
X6.4808Y-5.1874
X6.4808Y-5.3906
X6.4808Y-5.5937
X6.4808Y-5.7969
X6.5871Y-3.1559
X6.5871Y-3.3591
X6.5871Y-3.5622
X6.5871Y-3.7654
X6.5871Y-3.9685
X6.5871Y-4.1717
X6.5871Y-4.3748
X6.5871Y-4.578
X6.5871Y-4.7811
X6.5871Y-4.9843
X6.5871Y-5.1874
X6.5871Y-5.3906
X6.5871Y-5.5937
X6.5871Y-5.7969
X6.6331Y-3.2343
X6.6331Y-3.4374
X6.6331Y-3.6406
X6.6331Y-3.8437
X6.6331Y-4.0469
X6.6331Y-4.25
X6.6331Y-4.4531
X6.6331Y-4.6563
X6.6331Y-4.8594
X6.6331Y-5.0626
X6.6331Y-5.2657
X6.6331Y-5.4689
X6.6331Y-5.672
X6.6331Y-5.8752
X6.6839Y-3.15
X6.6839Y-3.23
X6.6839Y-3.3531
X6.6839Y-3.4331
X6.6839Y-3.5563
X6.6839Y-3.6363
X6.6839Y-3.7594
X6.6839Y-3.8394
X6.6839Y-3.9626
X6.6839Y-4.0426
X6.6839Y-4.1657
X6.6839Y-4.2457
X6.6839Y-4.3689
X6.6839Y-4.4489
X6.6839Y-4.572
X6.6839Y-4.652
X6.6839Y-4.7752
X6.6839Y-4.8552
X6.6839Y-4.9783
X6.6839Y-5.0583
X6.6839Y-5.1815
X6.6839Y-5.2615
X6.6839Y-5.3846
X6.6839Y-5.4646
X6.6839Y-5.5878
X6.6839Y-5.6678
X6.6839Y-5.7909
X6.6839Y-5.8709
X6.7359Y-3.15
X6.7359Y-3.23
X6.7359Y-3.3531
X6.7359Y-3.4331
X6.7359Y-3.5563
X6.7359Y-3.6363
X6.7359Y-3.7594
X6.7359Y-3.8394
X6.7359Y-3.9626
X6.7359Y-4.0426
X6.7359Y-4.1657
X6.7359Y-4.2457
X6.7359Y-4.3689
X6.7359Y-4.4489
X6.7359Y-4.572
X6.7359Y-4.652
X6.7359Y-4.7752
X6.7359Y-4.8552
X6.7359Y-4.9783
X6.7359Y-5.0583
X6.7359Y-5.1815
X6.7359Y-5.2615
X6.7359Y-5.3846
X6.7359Y-5.4646
X6.7359Y-5.5878
X6.7359Y-5.6678
X6.7359Y-5.7909
X6.7359Y-5.8709
X6.7862Y-3.2323
X6.7862Y-3.4354
X6.7862Y-3.6386
X6.7862Y-3.8417
X6.7862Y-4.0449
X6.7862Y-4.248
X6.7862Y-4.4512
X6.7862Y-4.6543
X6.7862Y-4.8575
X6.7862Y-5.0606
X6.7862Y-5.2638
X6.7862Y-5.4669
X6.7862Y-5.6701
X6.7862Y-5.8732
X6.8328Y-3.1559
X6.8328Y-3.3591
X6.8328Y-3.5622
X6.8328Y-3.7654
X6.8328Y-3.9685
X6.8328Y-4.1717
X6.8328Y-4.3748
X6.8328Y-4.578
X6.8328Y-4.7811
X6.8328Y-4.9843
X6.8328Y-5.1874
X6.8328Y-5.3906
X6.8328Y-5.5937
X6.8328Y-5.7969
X6.939Y-3.1559
X6.939Y-3.3591
X6.939Y-3.5622
X6.939Y-3.7654
X6.939Y-3.9685
X6.939Y-4.1717
X6.939Y-4.3748
X6.939Y-4.578
X6.939Y-4.7811
X6.939Y-4.9843
X6.939Y-5.1874
X6.939Y-5.3906
X6.939Y-5.5937
X6.939Y-5.7969
X6.985Y-3.2343
X6.985Y-3.4374
X6.985Y-3.6406
X6.985Y-3.8437
X6.985Y-4.0469
X6.985Y-4.25
X6.985Y-4.4531
X6.985Y-4.6563
X6.985Y-4.8594
X6.985Y-5.0626
X6.985Y-5.2657
X6.985Y-5.4689
X6.985Y-5.672
X6.985Y-5.8752
X7.0359Y-3.15
X7.0359Y-3.23
X7.0359Y-3.3531
X7.0359Y-3.4331
X7.0359Y-3.5563
X7.0359Y-3.6363
X7.0359Y-3.7594
X7.0359Y-3.8394
X7.0359Y-3.9626
X7.0359Y-4.0426
X7.0359Y-4.1657
X7.0359Y-4.2457
X7.0359Y-4.3689
X7.0359Y-4.4489
X7.0359Y-4.572
X7.0359Y-4.652
X7.0359Y-4.7752
X7.0359Y-4.8552
X7.0359Y-4.9783
X7.0359Y-5.0583
X7.0359Y-5.1815
X7.0359Y-5.2615
X7.0359Y-5.3846
X7.0359Y-5.4646
X7.0359Y-5.5878
X7.0359Y-5.6678
X7.0359Y-5.7909
X7.0359Y-5.8709
X7.0879Y-3.15
X7.0879Y-3.23
X7.0879Y-3.3531
X7.0879Y-3.4331
X7.0879Y-3.5563
X7.0879Y-3.6363
X7.0879Y-3.7594
X7.0879Y-3.8394
X7.0879Y-3.9626
X7.0879Y-4.0426
X7.0879Y-4.1657
X7.0879Y-4.2457
X7.0879Y-4.3689
X7.0879Y-4.4489
X7.0879Y-4.572
X7.0879Y-4.652
X7.0879Y-4.7752
X7.0879Y-4.8552
X7.0879Y-4.9783
X7.0879Y-5.0583
X7.0879Y-5.1815
X7.0879Y-5.2615
X7.0879Y-5.3846
X7.0879Y-5.4646
X7.0879Y-5.5878
X7.0879Y-5.6678
X7.0879Y-5.7909
X7.0879Y-5.8709
X7.1382Y-3.2323
X7.1382Y-3.4354
X7.1382Y-3.6386
X7.1382Y-3.8417
X7.1382Y-4.0449
X7.1382Y-4.248
X7.1382Y-4.4512
X7.1382Y-4.6543
X7.1382Y-4.8575
X7.1382Y-5.0606
X7.1382Y-5.2638
X7.1382Y-5.4669
X7.1382Y-5.6701
X7.1382Y-5.8732
X7.1847Y-3.1559
X7.1847Y-3.3591
X7.1847Y-3.5622
X7.1847Y-3.7654
X7.1847Y-3.9685
X7.1847Y-4.1717
X7.1847Y-4.3748
X7.1847Y-4.578
X7.1847Y-4.7811
X7.1847Y-4.9843
X7.1847Y-5.1874
X7.1847Y-5.3906
X7.1847Y-5.5937
X7.1847Y-5.7969
X7.291Y-3.1559
X7.291Y-3.3591
X7.291Y-3.5622
X7.291Y-3.7654
X7.291Y-3.9685
X7.291Y-4.1717
X7.291Y-4.3748
X7.291Y-4.578
X7.291Y-4.7811
X7.291Y-4.9843
X7.291Y-5.1874
X7.291Y-5.3906
X7.291Y-5.5937
X7.291Y-5.7969
X7.337Y-3.2343
X7.337Y-3.4374
X7.337Y-3.6406
X7.337Y-3.8437
X7.337Y-4.0469
X7.337Y-4.25
X7.337Y-4.4531
X7.337Y-4.6563
X7.337Y-4.8594
X7.337Y-5.0626
X7.337Y-5.2657
X7.337Y-5.4689
X7.337Y-5.672
X7.337Y-5.8752
X7.3879Y-3.15
X7.3879Y-3.23
X7.3879Y-3.3531
X7.3879Y-3.4331
X7.3879Y-3.5563
X7.3879Y-3.6363
X7.3879Y-3.7594
X7.3879Y-3.8394
X7.3879Y-3.9626
X7.3879Y-4.0426
X7.3879Y-4.1657
X7.3879Y-4.2457
X7.3879Y-4.3689
X7.3879Y-4.4489
X7.3879Y-4.572
X7.3879Y-4.652
X7.3879Y-4.7752
X7.3879Y-4.8552
X7.3879Y-4.9783
X7.3879Y-5.0583
X7.3879Y-5.1815
X7.3879Y-5.2615
X7.3879Y-5.3846
X7.3879Y-5.4646
X7.3879Y-5.5878
X7.3879Y-5.6678
X7.3879Y-5.7909
X7.3879Y-5.8709
X7.4398Y-3.15
X7.4398Y-3.23
X7.4398Y-3.3531
X7.4398Y-3.4331
X7.4398Y-3.5563
X7.4398Y-3.6363
X7.4398Y-3.7594
X7.4398Y-3.8394
X7.4398Y-3.9626
X7.4398Y-4.0426
X7.4398Y-4.1657
X7.4398Y-4.2457
X7.4398Y-4.3689
X7.4398Y-4.4489
X7.4398Y-4.572
X7.4398Y-4.652
X7.4398Y-4.7752
X7.4398Y-4.8552
X7.4398Y-4.9783
X7.4398Y-5.0583
X7.4398Y-5.1815
X7.4398Y-5.2615
X7.4398Y-5.3846
X7.4398Y-5.4646
X7.4398Y-5.5878
X7.4398Y-5.6678
X7.4398Y-5.7909
X7.4398Y-5.8709
X7.4902Y-3.2323
X7.4902Y-3.4354
X7.4902Y-3.6386
X7.4902Y-3.8417
X7.4902Y-4.0449
X7.4902Y-4.248
X7.4902Y-4.4512
X7.4902Y-4.6543
X7.4902Y-4.8575
X7.4902Y-5.0606
X7.4902Y-5.2638
X7.4902Y-5.4669
X7.4902Y-5.6701
X7.4902Y-5.8732
X7.5367Y-3.1559
X7.5367Y-3.3591
X7.5367Y-3.5622
X7.5367Y-3.7654
X7.5367Y-3.9685
X7.5367Y-4.1717
X7.5367Y-4.3748
X7.5367Y-4.578
X7.5367Y-4.7811
X7.5367Y-4.9843
X7.5367Y-5.1874
X7.5367Y-5.3906
X7.5367Y-5.5937
X7.5367Y-5.7969
X7.643Y-3.1559
X7.643Y-3.3591
X7.643Y-3.5622
X7.643Y-3.7654
X7.643Y-3.9685
X7.643Y-4.1717
X7.643Y-4.3748
X7.643Y-4.578
X7.643Y-4.7811
X7.643Y-4.9843
X7.643Y-5.1874
X7.643Y-5.3906
X7.643Y-5.5937
X7.643Y-5.7969
X7.689Y-3.2343
X7.689Y-3.4374
X7.689Y-3.6406
X7.689Y-3.8437
X7.689Y-4.0469
X7.689Y-4.25
X7.689Y-4.4531
X7.689Y-4.6563
X7.689Y-4.8594
X7.689Y-5.0626
X7.689Y-5.2657
X7.689Y-5.4689
X7.689Y-5.672
X7.689Y-5.8752
X7.7398Y-3.15
X7.7398Y-3.23
X7.7398Y-3.3531
X7.7398Y-3.4331
X7.7398Y-3.5563
X7.7398Y-3.6363
X7.7398Y-3.7594
X7.7398Y-3.8394
X7.7398Y-3.9626
X7.7398Y-4.0426
X7.7398Y-4.1657
X7.7398Y-4.2457
X7.7398Y-4.3689
X7.7398Y-4.4489
X7.7398Y-4.572
X7.7398Y-4.652
X7.7398Y-4.7752
X7.7398Y-4.8552
X7.7398Y-4.9783
X7.7398Y-5.0583
X7.7398Y-5.1815
X7.7398Y-5.2615
X7.7398Y-5.3846
X7.7398Y-5.4646
X7.7398Y-5.5878
X7.7398Y-5.6678
X7.7398Y-5.7909
X7.7398Y-5.8709
X7.7918Y-3.15
X7.7918Y-3.23
X7.7918Y-3.3531
X7.7918Y-3.4331
X7.7918Y-3.5563
X7.7918Y-3.6363
X7.7918Y-3.7594
X7.7918Y-3.8394
X7.7918Y-3.9626
X7.7918Y-4.0426
X7.7918Y-4.1657
X7.7918Y-4.2457
X7.7918Y-4.3689
X7.7918Y-4.4489
X7.7918Y-4.572
X7.7918Y-4.652
X7.7918Y-4.7752
X7.7918Y-4.8552
X7.7918Y-4.9783
X7.7918Y-5.0583
X7.7918Y-5.1815
X7.7918Y-5.2615
X7.7918Y-5.3846
X7.7918Y-5.4646
X7.7918Y-5.5878
X7.7918Y-5.6678
X7.7918Y-5.7909
X7.7918Y-5.8709
X7.8421Y-3.2323
X7.8421Y-3.4354
X7.8421Y-3.6386
X7.8421Y-3.8417
X7.8421Y-4.0449
X7.8421Y-4.248
X7.8421Y-4.4512
X7.8421Y-4.6543
X7.8421Y-4.8575
X7.8421Y-5.0606
X7.8421Y-5.2638
X7.8421Y-5.4669
X7.8421Y-5.6701
X7.8421Y-5.8732
X7.8887Y-3.1559
X7.8887Y-3.3591
X7.8887Y-3.5622
X7.8887Y-3.7654
X7.8887Y-3.9685
X7.8887Y-4.1717
X7.8887Y-4.3748
X7.8887Y-4.578
X7.8887Y-4.7811
X7.8887Y-4.9843
X7.8887Y-5.1874
X7.8887Y-5.3906
X7.8887Y-5.5937
X7.8887Y-5.7969
X7.9949Y-3.1559
X7.9949Y-3.3591
X7.9949Y-3.5622
X7.9949Y-3.7654
X7.9949Y-3.9685
X7.9949Y-4.1717
X7.9949Y-4.3748
X7.9949Y-4.578
X7.9949Y-4.7811
X7.9949Y-4.9843
X7.9949Y-5.1874
X7.9949Y-5.3906
X7.9949Y-5.5937
X7.9949Y-5.7969
X8.0409Y-3.2343
X8.0409Y-3.4374
X8.0409Y-3.6406
X8.0409Y-3.8437
X8.0409Y-4.0469
X8.0409Y-4.25
X8.0409Y-4.4531
X8.0409Y-4.6563
X8.0409Y-4.8594
X8.0409Y-5.0626
X8.0409Y-5.2657
X8.0409Y-5.4689
X8.0409Y-5.672
X8.0409Y-5.8752
X8.0918Y-3.15
X8.0918Y-3.23
X8.0918Y-3.3531
X8.0918Y-3.4331
X8.0918Y-3.5563
X8.0918Y-3.6363
X8.0918Y-3.7594
X8.0918Y-3.8394
X8.0918Y-3.9626
X8.0918Y-4.0426
X8.0918Y-4.1657
X8.0918Y-4.2457
X8.0918Y-4.3689
X8.0918Y-4.4489
X8.0918Y-4.572
X8.0918Y-4.652
X8.0918Y-4.7752
X8.0918Y-4.8552
X8.0918Y-4.9783
X8.0918Y-5.0583
X8.0918Y-5.1815
X8.0918Y-5.2615
X8.0918Y-5.3846
X8.0918Y-5.4646
X8.0918Y-5.5878
X8.0918Y-5.6678
X8.0918Y-5.7909
X8.0918Y-5.8709
X8.1438Y-3.15
X8.1438Y-3.23
X8.1438Y-3.3531
X8.1438Y-3.4331
X8.1438Y-3.5563
X8.1438Y-3.6363
X8.1438Y-3.7594
X8.1438Y-3.8394
X8.1438Y-3.9626
X8.1438Y-4.0426
X8.1438Y-4.1657
X8.1438Y-4.2457
X8.1438Y-4.3689
X8.1438Y-4.4489
X8.1438Y-4.572
X8.1438Y-4.652
X8.1438Y-4.7752
X8.1438Y-4.8552
X8.1438Y-4.9783
X8.1438Y-5.0583
X8.1438Y-5.1815
X8.1438Y-5.2615
X8.1438Y-5.3846
X8.1438Y-5.4646
X8.1438Y-5.5878
X8.1438Y-5.6678
X8.1438Y-5.7909
X8.1438Y-5.8709
X8.1941Y-3.2323
X8.1941Y-3.4354
X8.1941Y-3.6386
X8.1941Y-3.8417
X8.1941Y-4.0449
X8.1941Y-4.248
X8.1941Y-4.4512
X8.1941Y-4.6543
X8.1941Y-4.8575
X8.1941Y-5.0606
X8.1941Y-5.2638
X8.1941Y-5.4669
X8.1941Y-5.6701
X8.1941Y-5.8732
X8.2406Y-3.1559
X8.2406Y-3.3591
X8.2406Y-3.5622
X8.2406Y-3.7654
X8.2406Y-3.9685
X8.2406Y-4.1717
X8.2406Y-4.3748
X8.2406Y-4.578
X8.2406Y-4.7811
X8.2406Y-4.9843
X8.2406Y-5.1874
X8.2406Y-5.3906
X8.2406Y-5.5937
X8.2406Y-5.7969
X8.3469Y-3.1559
X8.3469Y-3.3591
X8.3469Y-3.5622
X8.3469Y-3.7654
X8.3469Y-3.9685
X8.3469Y-4.1717
X8.3469Y-4.3748
X8.3469Y-4.578
X8.3469Y-4.7811
X8.3469Y-4.9843
X8.3469Y-5.1874
X8.3469Y-5.3906
X8.3469Y-5.5937
X8.3469Y-5.7969
X8.3929Y-3.2343
X8.3929Y-3.4374
X8.3929Y-3.6406
X8.3929Y-3.8437
X8.3929Y-4.0469
X8.3929Y-4.25
X8.3929Y-4.4531
X8.3929Y-4.6563
X8.3929Y-4.8594
X8.3929Y-5.0626
X8.3929Y-5.2657
X8.3929Y-5.4689
X8.3929Y-5.672
X8.3929Y-5.8752
X8.4438Y-3.15
X8.4438Y-3.23
X8.4438Y-3.3531
X8.4438Y-3.4331
X8.4438Y-3.5563
X8.4438Y-3.6363
X8.4438Y-3.7594
X8.4438Y-3.8394
X8.4438Y-3.9626
X8.4438Y-4.0426
X8.4438Y-4.1657
X8.4438Y-4.2457
X8.4438Y-4.3689
X8.4438Y-4.4489
X8.4438Y-4.572
X8.4438Y-4.652
X8.4438Y-4.7752
X8.4438Y-4.8552
X8.4438Y-4.9783
X8.4438Y-5.0583
X8.4438Y-5.1815
X8.4438Y-5.2615
X8.4438Y-5.3846
X8.4438Y-5.4646
X8.4438Y-5.5878
X8.4438Y-5.6678
X8.4438Y-5.7909
X8.4438Y-5.8709
X8.4957Y-3.15
X8.4957Y-3.23
X8.4957Y-3.3531
X8.4957Y-3.4331
X8.4957Y-3.5563
X8.4957Y-3.6363
X8.4957Y-3.7594
X8.4957Y-3.8394
X8.4957Y-3.9626
X8.4957Y-4.0426
X8.4957Y-4.1657
X8.4957Y-4.2457
X8.4957Y-4.3689
X8.4957Y-4.4489
X8.4957Y-4.572
X8.4957Y-4.652
X8.4957Y-4.7752
X8.4957Y-4.8552
X8.4957Y-4.9783
X8.4957Y-5.0583
X8.4957Y-5.1815
X8.4957Y-5.2615
X8.4957Y-5.3846
X8.4957Y-5.4646
X8.4957Y-5.5878
X8.4957Y-5.6678
X8.4957Y-5.7909
X8.4957Y-5.8709
X8.5461Y-3.2323
X8.5461Y-3.4354
X8.5461Y-3.6386
X8.5461Y-3.8417
X8.5461Y-4.0449
X8.5461Y-4.248
X8.5461Y-4.4512
X8.5461Y-4.6543
X8.5461Y-4.8575
X8.5461Y-5.0606
X8.5461Y-5.2638
X8.5461Y-5.4669
X8.5461Y-5.6701
X8.5461Y-5.8732
X8.5926Y-3.1559
X8.5926Y-3.3591
X8.5926Y-3.5622
X8.5926Y-3.7654
X8.5926Y-3.9685
X8.5926Y-4.1717
X8.5926Y-4.3748
X8.5926Y-4.578
X8.5926Y-4.7811
X8.5926Y-4.9843
X8.5926Y-5.1874
X8.5926Y-5.3906
X8.5926Y-5.5937
X8.5926Y-5.7969
X8.6989Y-3.1559
X8.6989Y-3.3591
X8.6989Y-3.5622
X8.6989Y-3.7654
X8.6989Y-3.9685
X8.6989Y-4.1717
X8.6989Y-4.3748
X8.6989Y-4.578
X8.6989Y-4.7811
X8.6989Y-4.9843
X8.6989Y-5.1874
X8.6989Y-5.3906
X8.6989Y-5.5937
X8.6989Y-5.7969
X8.7449Y-3.2343
X8.7449Y-3.4374
X8.7449Y-3.6406
X8.7449Y-3.8437
X8.7449Y-4.0469
X8.7449Y-4.25
X8.7449Y-4.4531
X8.7449Y-4.6563
X8.7449Y-4.8594
X8.7449Y-5.0626
X8.7449Y-5.2657
X8.7449Y-5.4689
X8.7449Y-5.672
X8.7449Y-5.8752
X8.7957Y-3.15
X8.7957Y-3.23
X8.7957Y-3.3531
X8.7957Y-3.4331
X8.7957Y-3.5563
X8.7957Y-3.6363
X8.7957Y-3.7594
X8.7957Y-3.8394
X8.7957Y-3.9626
X8.7957Y-4.0426
X8.7957Y-4.1657
X8.7957Y-4.2457
X8.7957Y-4.3689
X8.7957Y-4.4489
X8.7957Y-4.572
X8.7957Y-4.652
X8.7957Y-4.7752
X8.7957Y-4.8552
X8.7957Y-4.9783
X8.7957Y-5.0583
X8.7957Y-5.1815
X8.7957Y-5.2615
X8.7957Y-5.3846
X8.7957Y-5.4646
X8.7957Y-5.5878
X8.7957Y-5.6678
X8.7957Y-5.7909
X8.7957Y-5.8709
X8.8477Y-3.15
X8.8477Y-3.23
X8.8477Y-3.3531
X8.8477Y-3.4331
X8.8477Y-3.5563
X8.8477Y-3.6363
X8.8477Y-3.7594
X8.8477Y-3.8394
X8.8477Y-3.9626
X8.8477Y-4.0426
X8.8477Y-4.1657
X8.8477Y-4.2457
X8.8477Y-4.3689
X8.8477Y-4.4489
X8.8477Y-4.572
X8.8477Y-4.652
X8.8477Y-4.7752
X8.8477Y-4.8552
X8.8477Y-4.9783
X8.8477Y-5.0583
X8.8477Y-5.1815
X8.8477Y-5.2615
X8.8477Y-5.3846
X8.8477Y-5.4646
X8.8477Y-5.5878
X8.8477Y-5.6678
X8.8477Y-5.7909
X8.8477Y-5.8709
X8.898Y-3.2323
X8.898Y-3.4354
X8.898Y-3.6386
X8.898Y-3.8417
X8.898Y-4.0449
X8.898Y-4.248
X8.898Y-4.4512
X8.898Y-4.6543
X8.898Y-4.8575
X8.898Y-5.0606
X8.898Y-5.2638
X8.898Y-5.4669
X8.898Y-5.6701
X8.898Y-5.8732
X8.9446Y-3.1559
X8.9446Y-3.3591
X8.9446Y-3.5622
X8.9446Y-3.7654
X8.9446Y-3.9685
X8.9446Y-4.1717
X8.9446Y-4.3748
X8.9446Y-4.578
X8.9446Y-4.7811
X8.9446Y-4.9843
X8.9446Y-5.1874
X8.9446Y-5.3906
X8.9446Y-5.5937
X8.9446Y-5.7969
X9.0508Y-3.1559
X9.0508Y-3.3591
X9.0508Y-3.5622
X9.0508Y-3.7654
X9.0508Y-3.9685
X9.0508Y-4.1717
X9.0508Y-4.3748
X9.0508Y-4.578
X9.0508Y-4.7811
X9.0508Y-4.9843
X9.0508Y-5.1874
X9.0508Y-5.3906
X9.0508Y-5.5937
X9.0508Y-5.7969
X9.0969Y-3.2343
X9.0969Y-3.4374
X9.0969Y-3.6406
X9.0969Y-3.8437
X9.0969Y-4.0469
X9.0969Y-4.25
X9.0969Y-4.4531
X9.0969Y-4.6563
X9.0969Y-4.8594
X9.0969Y-5.0626
X9.0969Y-5.2657
X9.0969Y-5.4689
X9.0969Y-5.672
X9.0969Y-5.8752
X9.1477Y-3.15
X9.1477Y-3.23
X9.1477Y-3.3531
X9.1477Y-3.4331
X9.1477Y-3.5563
X9.1477Y-3.6363
X9.1477Y-3.7594
X9.1477Y-3.8394
X9.1477Y-3.9626
X9.1477Y-4.0426
X9.1477Y-4.1657
X9.1477Y-4.2457
X9.1477Y-4.3689
X9.1477Y-4.4489
X9.1477Y-4.572
X9.1477Y-4.652
X9.1477Y-4.7752
X9.1477Y-4.8552
X9.1477Y-4.9783
X9.1477Y-5.0583
X9.1477Y-5.1815
X9.1477Y-5.2615
X9.1477Y-5.3846
X9.1477Y-5.4646
X9.1477Y-5.5878
X9.1477Y-5.6678
X9.1477Y-5.7909
X9.1477Y-5.8709
T0
M30
