%TF.GenerationSoftware,KiCad,Pcbnew,(6.0.7)*%
%TF.CreationDate,2023-04-07T20:00:28+08:00*%
%TF.ProjectId,MicroUSB2TypeCPanelization,4d696372-6f55-4534-9232-547970654350,rev?*%
%TF.SameCoordinates,Original*%
%TF.FileFunction,Legend,Top*%
%TF.FilePolarity,Positive*%
%FSLAX46Y46*%
G04 Gerber Fmt 4.6, Leading zero omitted, Abs format (unit mm)*
G04 Created by KiCad (PCBNEW (6.0.7)) date 2023-04-07 20:00:28*
%MOMM*%
%LPD*%
G01*
G04 APERTURE LIST*
%ADD10C,0.150000*%
G04 APERTURE END LIST*
D10*
%TO.C,J279*%
X230084285Y-147662380D02*
X230084285Y-148376666D01*
X230036666Y-148519523D01*
X229941428Y-148614761D01*
X229798571Y-148662380D01*
X229703333Y-148662380D01*
X230512857Y-147757619D02*
X230560476Y-147710000D01*
X230655714Y-147662380D01*
X230893809Y-147662380D01*
X230989047Y-147710000D01*
X231036666Y-147757619D01*
X231084285Y-147852857D01*
X231084285Y-147948095D01*
X231036666Y-148090952D01*
X230465238Y-148662380D01*
X231084285Y-148662380D01*
X231417619Y-147662380D02*
X232084285Y-147662380D01*
X231655714Y-148662380D01*
X232512857Y-148662380D02*
X232703333Y-148662380D01*
X232798571Y-148614761D01*
X232846190Y-148567142D01*
X232941428Y-148424285D01*
X232989047Y-148233809D01*
X232989047Y-147852857D01*
X232941428Y-147757619D01*
X232893809Y-147710000D01*
X232798571Y-147662380D01*
X232608095Y-147662380D01*
X232512857Y-147710000D01*
X232465238Y-147757619D01*
X232417619Y-147852857D01*
X232417619Y-148090952D01*
X232465238Y-148186190D01*
X232512857Y-148233809D01*
X232608095Y-148281428D01*
X232798571Y-148281428D01*
X232893809Y-148233809D01*
X232941428Y-148186190D01*
X232989047Y-148090952D01*
%TO.C,J277*%
X221144285Y-147662380D02*
X221144285Y-148376666D01*
X221096666Y-148519523D01*
X221001428Y-148614761D01*
X220858571Y-148662380D01*
X220763333Y-148662380D01*
X221572857Y-147757619D02*
X221620476Y-147710000D01*
X221715714Y-147662380D01*
X221953809Y-147662380D01*
X222049047Y-147710000D01*
X222096666Y-147757619D01*
X222144285Y-147852857D01*
X222144285Y-147948095D01*
X222096666Y-148090952D01*
X221525238Y-148662380D01*
X222144285Y-148662380D01*
X222477619Y-147662380D02*
X223144285Y-147662380D01*
X222715714Y-148662380D01*
X223430000Y-147662380D02*
X224096666Y-147662380D01*
X223668095Y-148662380D01*
%TO.C,J275*%
X212204285Y-147662380D02*
X212204285Y-148376666D01*
X212156666Y-148519523D01*
X212061428Y-148614761D01*
X211918571Y-148662380D01*
X211823333Y-148662380D01*
X212632857Y-147757619D02*
X212680476Y-147710000D01*
X212775714Y-147662380D01*
X213013809Y-147662380D01*
X213109047Y-147710000D01*
X213156666Y-147757619D01*
X213204285Y-147852857D01*
X213204285Y-147948095D01*
X213156666Y-148090952D01*
X212585238Y-148662380D01*
X213204285Y-148662380D01*
X213537619Y-147662380D02*
X214204285Y-147662380D01*
X213775714Y-148662380D01*
X215061428Y-147662380D02*
X214585238Y-147662380D01*
X214537619Y-148138571D01*
X214585238Y-148090952D01*
X214680476Y-148043333D01*
X214918571Y-148043333D01*
X215013809Y-148090952D01*
X215061428Y-148138571D01*
X215109047Y-148233809D01*
X215109047Y-148471904D01*
X215061428Y-148567142D01*
X215013809Y-148614761D01*
X214918571Y-148662380D01*
X214680476Y-148662380D01*
X214585238Y-148614761D01*
X214537619Y-148567142D01*
%TO.C,J273*%
X203264285Y-147662380D02*
X203264285Y-148376666D01*
X203216666Y-148519523D01*
X203121428Y-148614761D01*
X202978571Y-148662380D01*
X202883333Y-148662380D01*
X203692857Y-147757619D02*
X203740476Y-147710000D01*
X203835714Y-147662380D01*
X204073809Y-147662380D01*
X204169047Y-147710000D01*
X204216666Y-147757619D01*
X204264285Y-147852857D01*
X204264285Y-147948095D01*
X204216666Y-148090952D01*
X203645238Y-148662380D01*
X204264285Y-148662380D01*
X204597619Y-147662380D02*
X205264285Y-147662380D01*
X204835714Y-148662380D01*
X205550000Y-147662380D02*
X206169047Y-147662380D01*
X205835714Y-148043333D01*
X205978571Y-148043333D01*
X206073809Y-148090952D01*
X206121428Y-148138571D01*
X206169047Y-148233809D01*
X206169047Y-148471904D01*
X206121428Y-148567142D01*
X206073809Y-148614761D01*
X205978571Y-148662380D01*
X205692857Y-148662380D01*
X205597619Y-148614761D01*
X205550000Y-148567142D01*
%TO.C,J271*%
X194324285Y-147662380D02*
X194324285Y-148376666D01*
X194276666Y-148519523D01*
X194181428Y-148614761D01*
X194038571Y-148662380D01*
X193943333Y-148662380D01*
X194752857Y-147757619D02*
X194800476Y-147710000D01*
X194895714Y-147662380D01*
X195133809Y-147662380D01*
X195229047Y-147710000D01*
X195276666Y-147757619D01*
X195324285Y-147852857D01*
X195324285Y-147948095D01*
X195276666Y-148090952D01*
X194705238Y-148662380D01*
X195324285Y-148662380D01*
X195657619Y-147662380D02*
X196324285Y-147662380D01*
X195895714Y-148662380D01*
X197229047Y-148662380D02*
X196657619Y-148662380D01*
X196943333Y-148662380D02*
X196943333Y-147662380D01*
X196848095Y-147805238D01*
X196752857Y-147900476D01*
X196657619Y-147948095D01*
%TO.C,J269*%
X185384285Y-147662380D02*
X185384285Y-148376666D01*
X185336666Y-148519523D01*
X185241428Y-148614761D01*
X185098571Y-148662380D01*
X185003333Y-148662380D01*
X185812857Y-147757619D02*
X185860476Y-147710000D01*
X185955714Y-147662380D01*
X186193809Y-147662380D01*
X186289047Y-147710000D01*
X186336666Y-147757619D01*
X186384285Y-147852857D01*
X186384285Y-147948095D01*
X186336666Y-148090952D01*
X185765238Y-148662380D01*
X186384285Y-148662380D01*
X187241428Y-147662380D02*
X187050952Y-147662380D01*
X186955714Y-147710000D01*
X186908095Y-147757619D01*
X186812857Y-147900476D01*
X186765238Y-148090952D01*
X186765238Y-148471904D01*
X186812857Y-148567142D01*
X186860476Y-148614761D01*
X186955714Y-148662380D01*
X187146190Y-148662380D01*
X187241428Y-148614761D01*
X187289047Y-148567142D01*
X187336666Y-148471904D01*
X187336666Y-148233809D01*
X187289047Y-148138571D01*
X187241428Y-148090952D01*
X187146190Y-148043333D01*
X186955714Y-148043333D01*
X186860476Y-148090952D01*
X186812857Y-148138571D01*
X186765238Y-148233809D01*
X187812857Y-148662380D02*
X188003333Y-148662380D01*
X188098571Y-148614761D01*
X188146190Y-148567142D01*
X188241428Y-148424285D01*
X188289047Y-148233809D01*
X188289047Y-147852857D01*
X188241428Y-147757619D01*
X188193809Y-147710000D01*
X188098571Y-147662380D01*
X187908095Y-147662380D01*
X187812857Y-147710000D01*
X187765238Y-147757619D01*
X187717619Y-147852857D01*
X187717619Y-148090952D01*
X187765238Y-148186190D01*
X187812857Y-148233809D01*
X187908095Y-148281428D01*
X188098571Y-148281428D01*
X188193809Y-148233809D01*
X188241428Y-148186190D01*
X188289047Y-148090952D01*
%TO.C,J267*%
X176444285Y-147662380D02*
X176444285Y-148376666D01*
X176396666Y-148519523D01*
X176301428Y-148614761D01*
X176158571Y-148662380D01*
X176063333Y-148662380D01*
X176872857Y-147757619D02*
X176920476Y-147710000D01*
X177015714Y-147662380D01*
X177253809Y-147662380D01*
X177349047Y-147710000D01*
X177396666Y-147757619D01*
X177444285Y-147852857D01*
X177444285Y-147948095D01*
X177396666Y-148090952D01*
X176825238Y-148662380D01*
X177444285Y-148662380D01*
X178301428Y-147662380D02*
X178110952Y-147662380D01*
X178015714Y-147710000D01*
X177968095Y-147757619D01*
X177872857Y-147900476D01*
X177825238Y-148090952D01*
X177825238Y-148471904D01*
X177872857Y-148567142D01*
X177920476Y-148614761D01*
X178015714Y-148662380D01*
X178206190Y-148662380D01*
X178301428Y-148614761D01*
X178349047Y-148567142D01*
X178396666Y-148471904D01*
X178396666Y-148233809D01*
X178349047Y-148138571D01*
X178301428Y-148090952D01*
X178206190Y-148043333D01*
X178015714Y-148043333D01*
X177920476Y-148090952D01*
X177872857Y-148138571D01*
X177825238Y-148233809D01*
X178730000Y-147662380D02*
X179396666Y-147662380D01*
X178968095Y-148662380D01*
%TO.C,J265*%
X167504285Y-147662380D02*
X167504285Y-148376666D01*
X167456666Y-148519523D01*
X167361428Y-148614761D01*
X167218571Y-148662380D01*
X167123333Y-148662380D01*
X167932857Y-147757619D02*
X167980476Y-147710000D01*
X168075714Y-147662380D01*
X168313809Y-147662380D01*
X168409047Y-147710000D01*
X168456666Y-147757619D01*
X168504285Y-147852857D01*
X168504285Y-147948095D01*
X168456666Y-148090952D01*
X167885238Y-148662380D01*
X168504285Y-148662380D01*
X169361428Y-147662380D02*
X169170952Y-147662380D01*
X169075714Y-147710000D01*
X169028095Y-147757619D01*
X168932857Y-147900476D01*
X168885238Y-148090952D01*
X168885238Y-148471904D01*
X168932857Y-148567142D01*
X168980476Y-148614761D01*
X169075714Y-148662380D01*
X169266190Y-148662380D01*
X169361428Y-148614761D01*
X169409047Y-148567142D01*
X169456666Y-148471904D01*
X169456666Y-148233809D01*
X169409047Y-148138571D01*
X169361428Y-148090952D01*
X169266190Y-148043333D01*
X169075714Y-148043333D01*
X168980476Y-148090952D01*
X168932857Y-148138571D01*
X168885238Y-148233809D01*
X170361428Y-147662380D02*
X169885238Y-147662380D01*
X169837619Y-148138571D01*
X169885238Y-148090952D01*
X169980476Y-148043333D01*
X170218571Y-148043333D01*
X170313809Y-148090952D01*
X170361428Y-148138571D01*
X170409047Y-148233809D01*
X170409047Y-148471904D01*
X170361428Y-148567142D01*
X170313809Y-148614761D01*
X170218571Y-148662380D01*
X169980476Y-148662380D01*
X169885238Y-148614761D01*
X169837619Y-148567142D01*
%TO.C,J263*%
X158564285Y-147662380D02*
X158564285Y-148376666D01*
X158516666Y-148519523D01*
X158421428Y-148614761D01*
X158278571Y-148662380D01*
X158183333Y-148662380D01*
X158992857Y-147757619D02*
X159040476Y-147710000D01*
X159135714Y-147662380D01*
X159373809Y-147662380D01*
X159469047Y-147710000D01*
X159516666Y-147757619D01*
X159564285Y-147852857D01*
X159564285Y-147948095D01*
X159516666Y-148090952D01*
X158945238Y-148662380D01*
X159564285Y-148662380D01*
X160421428Y-147662380D02*
X160230952Y-147662380D01*
X160135714Y-147710000D01*
X160088095Y-147757619D01*
X159992857Y-147900476D01*
X159945238Y-148090952D01*
X159945238Y-148471904D01*
X159992857Y-148567142D01*
X160040476Y-148614761D01*
X160135714Y-148662380D01*
X160326190Y-148662380D01*
X160421428Y-148614761D01*
X160469047Y-148567142D01*
X160516666Y-148471904D01*
X160516666Y-148233809D01*
X160469047Y-148138571D01*
X160421428Y-148090952D01*
X160326190Y-148043333D01*
X160135714Y-148043333D01*
X160040476Y-148090952D01*
X159992857Y-148138571D01*
X159945238Y-148233809D01*
X160850000Y-147662380D02*
X161469047Y-147662380D01*
X161135714Y-148043333D01*
X161278571Y-148043333D01*
X161373809Y-148090952D01*
X161421428Y-148138571D01*
X161469047Y-148233809D01*
X161469047Y-148471904D01*
X161421428Y-148567142D01*
X161373809Y-148614761D01*
X161278571Y-148662380D01*
X160992857Y-148662380D01*
X160897619Y-148614761D01*
X160850000Y-148567142D01*
%TO.C,J261*%
X149624285Y-147662380D02*
X149624285Y-148376666D01*
X149576666Y-148519523D01*
X149481428Y-148614761D01*
X149338571Y-148662380D01*
X149243333Y-148662380D01*
X150052857Y-147757619D02*
X150100476Y-147710000D01*
X150195714Y-147662380D01*
X150433809Y-147662380D01*
X150529047Y-147710000D01*
X150576666Y-147757619D01*
X150624285Y-147852857D01*
X150624285Y-147948095D01*
X150576666Y-148090952D01*
X150005238Y-148662380D01*
X150624285Y-148662380D01*
X151481428Y-147662380D02*
X151290952Y-147662380D01*
X151195714Y-147710000D01*
X151148095Y-147757619D01*
X151052857Y-147900476D01*
X151005238Y-148090952D01*
X151005238Y-148471904D01*
X151052857Y-148567142D01*
X151100476Y-148614761D01*
X151195714Y-148662380D01*
X151386190Y-148662380D01*
X151481428Y-148614761D01*
X151529047Y-148567142D01*
X151576666Y-148471904D01*
X151576666Y-148233809D01*
X151529047Y-148138571D01*
X151481428Y-148090952D01*
X151386190Y-148043333D01*
X151195714Y-148043333D01*
X151100476Y-148090952D01*
X151052857Y-148138571D01*
X151005238Y-148233809D01*
X152529047Y-148662380D02*
X151957619Y-148662380D01*
X152243333Y-148662380D02*
X152243333Y-147662380D01*
X152148095Y-147805238D01*
X152052857Y-147900476D01*
X151957619Y-147948095D01*
%TO.C,J259*%
X230084285Y-142502380D02*
X230084285Y-143216666D01*
X230036666Y-143359523D01*
X229941428Y-143454761D01*
X229798571Y-143502380D01*
X229703333Y-143502380D01*
X230512857Y-142597619D02*
X230560476Y-142550000D01*
X230655714Y-142502380D01*
X230893809Y-142502380D01*
X230989047Y-142550000D01*
X231036666Y-142597619D01*
X231084285Y-142692857D01*
X231084285Y-142788095D01*
X231036666Y-142930952D01*
X230465238Y-143502380D01*
X231084285Y-143502380D01*
X231989047Y-142502380D02*
X231512857Y-142502380D01*
X231465238Y-142978571D01*
X231512857Y-142930952D01*
X231608095Y-142883333D01*
X231846190Y-142883333D01*
X231941428Y-142930952D01*
X231989047Y-142978571D01*
X232036666Y-143073809D01*
X232036666Y-143311904D01*
X231989047Y-143407142D01*
X231941428Y-143454761D01*
X231846190Y-143502380D01*
X231608095Y-143502380D01*
X231512857Y-143454761D01*
X231465238Y-143407142D01*
X232512857Y-143502380D02*
X232703333Y-143502380D01*
X232798571Y-143454761D01*
X232846190Y-143407142D01*
X232941428Y-143264285D01*
X232989047Y-143073809D01*
X232989047Y-142692857D01*
X232941428Y-142597619D01*
X232893809Y-142550000D01*
X232798571Y-142502380D01*
X232608095Y-142502380D01*
X232512857Y-142550000D01*
X232465238Y-142597619D01*
X232417619Y-142692857D01*
X232417619Y-142930952D01*
X232465238Y-143026190D01*
X232512857Y-143073809D01*
X232608095Y-143121428D01*
X232798571Y-143121428D01*
X232893809Y-143073809D01*
X232941428Y-143026190D01*
X232989047Y-142930952D01*
%TO.C,J257*%
X221144285Y-142502380D02*
X221144285Y-143216666D01*
X221096666Y-143359523D01*
X221001428Y-143454761D01*
X220858571Y-143502380D01*
X220763333Y-143502380D01*
X221572857Y-142597619D02*
X221620476Y-142550000D01*
X221715714Y-142502380D01*
X221953809Y-142502380D01*
X222049047Y-142550000D01*
X222096666Y-142597619D01*
X222144285Y-142692857D01*
X222144285Y-142788095D01*
X222096666Y-142930952D01*
X221525238Y-143502380D01*
X222144285Y-143502380D01*
X223049047Y-142502380D02*
X222572857Y-142502380D01*
X222525238Y-142978571D01*
X222572857Y-142930952D01*
X222668095Y-142883333D01*
X222906190Y-142883333D01*
X223001428Y-142930952D01*
X223049047Y-142978571D01*
X223096666Y-143073809D01*
X223096666Y-143311904D01*
X223049047Y-143407142D01*
X223001428Y-143454761D01*
X222906190Y-143502380D01*
X222668095Y-143502380D01*
X222572857Y-143454761D01*
X222525238Y-143407142D01*
X223430000Y-142502380D02*
X224096666Y-142502380D01*
X223668095Y-143502380D01*
%TO.C,J255*%
X212204285Y-142502380D02*
X212204285Y-143216666D01*
X212156666Y-143359523D01*
X212061428Y-143454761D01*
X211918571Y-143502380D01*
X211823333Y-143502380D01*
X212632857Y-142597619D02*
X212680476Y-142550000D01*
X212775714Y-142502380D01*
X213013809Y-142502380D01*
X213109047Y-142550000D01*
X213156666Y-142597619D01*
X213204285Y-142692857D01*
X213204285Y-142788095D01*
X213156666Y-142930952D01*
X212585238Y-143502380D01*
X213204285Y-143502380D01*
X214109047Y-142502380D02*
X213632857Y-142502380D01*
X213585238Y-142978571D01*
X213632857Y-142930952D01*
X213728095Y-142883333D01*
X213966190Y-142883333D01*
X214061428Y-142930952D01*
X214109047Y-142978571D01*
X214156666Y-143073809D01*
X214156666Y-143311904D01*
X214109047Y-143407142D01*
X214061428Y-143454761D01*
X213966190Y-143502380D01*
X213728095Y-143502380D01*
X213632857Y-143454761D01*
X213585238Y-143407142D01*
X215061428Y-142502380D02*
X214585238Y-142502380D01*
X214537619Y-142978571D01*
X214585238Y-142930952D01*
X214680476Y-142883333D01*
X214918571Y-142883333D01*
X215013809Y-142930952D01*
X215061428Y-142978571D01*
X215109047Y-143073809D01*
X215109047Y-143311904D01*
X215061428Y-143407142D01*
X215013809Y-143454761D01*
X214918571Y-143502380D01*
X214680476Y-143502380D01*
X214585238Y-143454761D01*
X214537619Y-143407142D01*
%TO.C,J253*%
X203264285Y-142502380D02*
X203264285Y-143216666D01*
X203216666Y-143359523D01*
X203121428Y-143454761D01*
X202978571Y-143502380D01*
X202883333Y-143502380D01*
X203692857Y-142597619D02*
X203740476Y-142550000D01*
X203835714Y-142502380D01*
X204073809Y-142502380D01*
X204169047Y-142550000D01*
X204216666Y-142597619D01*
X204264285Y-142692857D01*
X204264285Y-142788095D01*
X204216666Y-142930952D01*
X203645238Y-143502380D01*
X204264285Y-143502380D01*
X205169047Y-142502380D02*
X204692857Y-142502380D01*
X204645238Y-142978571D01*
X204692857Y-142930952D01*
X204788095Y-142883333D01*
X205026190Y-142883333D01*
X205121428Y-142930952D01*
X205169047Y-142978571D01*
X205216666Y-143073809D01*
X205216666Y-143311904D01*
X205169047Y-143407142D01*
X205121428Y-143454761D01*
X205026190Y-143502380D01*
X204788095Y-143502380D01*
X204692857Y-143454761D01*
X204645238Y-143407142D01*
X205550000Y-142502380D02*
X206169047Y-142502380D01*
X205835714Y-142883333D01*
X205978571Y-142883333D01*
X206073809Y-142930952D01*
X206121428Y-142978571D01*
X206169047Y-143073809D01*
X206169047Y-143311904D01*
X206121428Y-143407142D01*
X206073809Y-143454761D01*
X205978571Y-143502380D01*
X205692857Y-143502380D01*
X205597619Y-143454761D01*
X205550000Y-143407142D01*
%TO.C,J251*%
X194324285Y-142502380D02*
X194324285Y-143216666D01*
X194276666Y-143359523D01*
X194181428Y-143454761D01*
X194038571Y-143502380D01*
X193943333Y-143502380D01*
X194752857Y-142597619D02*
X194800476Y-142550000D01*
X194895714Y-142502380D01*
X195133809Y-142502380D01*
X195229047Y-142550000D01*
X195276666Y-142597619D01*
X195324285Y-142692857D01*
X195324285Y-142788095D01*
X195276666Y-142930952D01*
X194705238Y-143502380D01*
X195324285Y-143502380D01*
X196229047Y-142502380D02*
X195752857Y-142502380D01*
X195705238Y-142978571D01*
X195752857Y-142930952D01*
X195848095Y-142883333D01*
X196086190Y-142883333D01*
X196181428Y-142930952D01*
X196229047Y-142978571D01*
X196276666Y-143073809D01*
X196276666Y-143311904D01*
X196229047Y-143407142D01*
X196181428Y-143454761D01*
X196086190Y-143502380D01*
X195848095Y-143502380D01*
X195752857Y-143454761D01*
X195705238Y-143407142D01*
X197229047Y-143502380D02*
X196657619Y-143502380D01*
X196943333Y-143502380D02*
X196943333Y-142502380D01*
X196848095Y-142645238D01*
X196752857Y-142740476D01*
X196657619Y-142788095D01*
%TO.C,J249*%
X185384285Y-142502380D02*
X185384285Y-143216666D01*
X185336666Y-143359523D01*
X185241428Y-143454761D01*
X185098571Y-143502380D01*
X185003333Y-143502380D01*
X185812857Y-142597619D02*
X185860476Y-142550000D01*
X185955714Y-142502380D01*
X186193809Y-142502380D01*
X186289047Y-142550000D01*
X186336666Y-142597619D01*
X186384285Y-142692857D01*
X186384285Y-142788095D01*
X186336666Y-142930952D01*
X185765238Y-143502380D01*
X186384285Y-143502380D01*
X187241428Y-142835714D02*
X187241428Y-143502380D01*
X187003333Y-142454761D02*
X186765238Y-143169047D01*
X187384285Y-143169047D01*
X187812857Y-143502380D02*
X188003333Y-143502380D01*
X188098571Y-143454761D01*
X188146190Y-143407142D01*
X188241428Y-143264285D01*
X188289047Y-143073809D01*
X188289047Y-142692857D01*
X188241428Y-142597619D01*
X188193809Y-142550000D01*
X188098571Y-142502380D01*
X187908095Y-142502380D01*
X187812857Y-142550000D01*
X187765238Y-142597619D01*
X187717619Y-142692857D01*
X187717619Y-142930952D01*
X187765238Y-143026190D01*
X187812857Y-143073809D01*
X187908095Y-143121428D01*
X188098571Y-143121428D01*
X188193809Y-143073809D01*
X188241428Y-143026190D01*
X188289047Y-142930952D01*
%TO.C,J247*%
X176444285Y-142502380D02*
X176444285Y-143216666D01*
X176396666Y-143359523D01*
X176301428Y-143454761D01*
X176158571Y-143502380D01*
X176063333Y-143502380D01*
X176872857Y-142597619D02*
X176920476Y-142550000D01*
X177015714Y-142502380D01*
X177253809Y-142502380D01*
X177349047Y-142550000D01*
X177396666Y-142597619D01*
X177444285Y-142692857D01*
X177444285Y-142788095D01*
X177396666Y-142930952D01*
X176825238Y-143502380D01*
X177444285Y-143502380D01*
X178301428Y-142835714D02*
X178301428Y-143502380D01*
X178063333Y-142454761D02*
X177825238Y-143169047D01*
X178444285Y-143169047D01*
X178730000Y-142502380D02*
X179396666Y-142502380D01*
X178968095Y-143502380D01*
%TO.C,J245*%
X167504285Y-142502380D02*
X167504285Y-143216666D01*
X167456666Y-143359523D01*
X167361428Y-143454761D01*
X167218571Y-143502380D01*
X167123333Y-143502380D01*
X167932857Y-142597619D02*
X167980476Y-142550000D01*
X168075714Y-142502380D01*
X168313809Y-142502380D01*
X168409047Y-142550000D01*
X168456666Y-142597619D01*
X168504285Y-142692857D01*
X168504285Y-142788095D01*
X168456666Y-142930952D01*
X167885238Y-143502380D01*
X168504285Y-143502380D01*
X169361428Y-142835714D02*
X169361428Y-143502380D01*
X169123333Y-142454761D02*
X168885238Y-143169047D01*
X169504285Y-143169047D01*
X170361428Y-142502380D02*
X169885238Y-142502380D01*
X169837619Y-142978571D01*
X169885238Y-142930952D01*
X169980476Y-142883333D01*
X170218571Y-142883333D01*
X170313809Y-142930952D01*
X170361428Y-142978571D01*
X170409047Y-143073809D01*
X170409047Y-143311904D01*
X170361428Y-143407142D01*
X170313809Y-143454761D01*
X170218571Y-143502380D01*
X169980476Y-143502380D01*
X169885238Y-143454761D01*
X169837619Y-143407142D01*
%TO.C,J243*%
X158564285Y-142502380D02*
X158564285Y-143216666D01*
X158516666Y-143359523D01*
X158421428Y-143454761D01*
X158278571Y-143502380D01*
X158183333Y-143502380D01*
X158992857Y-142597619D02*
X159040476Y-142550000D01*
X159135714Y-142502380D01*
X159373809Y-142502380D01*
X159469047Y-142550000D01*
X159516666Y-142597619D01*
X159564285Y-142692857D01*
X159564285Y-142788095D01*
X159516666Y-142930952D01*
X158945238Y-143502380D01*
X159564285Y-143502380D01*
X160421428Y-142835714D02*
X160421428Y-143502380D01*
X160183333Y-142454761D02*
X159945238Y-143169047D01*
X160564285Y-143169047D01*
X160850000Y-142502380D02*
X161469047Y-142502380D01*
X161135714Y-142883333D01*
X161278571Y-142883333D01*
X161373809Y-142930952D01*
X161421428Y-142978571D01*
X161469047Y-143073809D01*
X161469047Y-143311904D01*
X161421428Y-143407142D01*
X161373809Y-143454761D01*
X161278571Y-143502380D01*
X160992857Y-143502380D01*
X160897619Y-143454761D01*
X160850000Y-143407142D01*
%TO.C,J241*%
X149624285Y-142502380D02*
X149624285Y-143216666D01*
X149576666Y-143359523D01*
X149481428Y-143454761D01*
X149338571Y-143502380D01*
X149243333Y-143502380D01*
X150052857Y-142597619D02*
X150100476Y-142550000D01*
X150195714Y-142502380D01*
X150433809Y-142502380D01*
X150529047Y-142550000D01*
X150576666Y-142597619D01*
X150624285Y-142692857D01*
X150624285Y-142788095D01*
X150576666Y-142930952D01*
X150005238Y-143502380D01*
X150624285Y-143502380D01*
X151481428Y-142835714D02*
X151481428Y-143502380D01*
X151243333Y-142454761D02*
X151005238Y-143169047D01*
X151624285Y-143169047D01*
X152529047Y-143502380D02*
X151957619Y-143502380D01*
X152243333Y-143502380D02*
X152243333Y-142502380D01*
X152148095Y-142645238D01*
X152052857Y-142740476D01*
X151957619Y-142788095D01*
%TO.C,J239*%
X230084285Y-137342380D02*
X230084285Y-138056666D01*
X230036666Y-138199523D01*
X229941428Y-138294761D01*
X229798571Y-138342380D01*
X229703333Y-138342380D01*
X230512857Y-137437619D02*
X230560476Y-137390000D01*
X230655714Y-137342380D01*
X230893809Y-137342380D01*
X230989047Y-137390000D01*
X231036666Y-137437619D01*
X231084285Y-137532857D01*
X231084285Y-137628095D01*
X231036666Y-137770952D01*
X230465238Y-138342380D01*
X231084285Y-138342380D01*
X231417619Y-137342380D02*
X232036666Y-137342380D01*
X231703333Y-137723333D01*
X231846190Y-137723333D01*
X231941428Y-137770952D01*
X231989047Y-137818571D01*
X232036666Y-137913809D01*
X232036666Y-138151904D01*
X231989047Y-138247142D01*
X231941428Y-138294761D01*
X231846190Y-138342380D01*
X231560476Y-138342380D01*
X231465238Y-138294761D01*
X231417619Y-138247142D01*
X232512857Y-138342380D02*
X232703333Y-138342380D01*
X232798571Y-138294761D01*
X232846190Y-138247142D01*
X232941428Y-138104285D01*
X232989047Y-137913809D01*
X232989047Y-137532857D01*
X232941428Y-137437619D01*
X232893809Y-137390000D01*
X232798571Y-137342380D01*
X232608095Y-137342380D01*
X232512857Y-137390000D01*
X232465238Y-137437619D01*
X232417619Y-137532857D01*
X232417619Y-137770952D01*
X232465238Y-137866190D01*
X232512857Y-137913809D01*
X232608095Y-137961428D01*
X232798571Y-137961428D01*
X232893809Y-137913809D01*
X232941428Y-137866190D01*
X232989047Y-137770952D01*
%TO.C,J237*%
X221144285Y-137342380D02*
X221144285Y-138056666D01*
X221096666Y-138199523D01*
X221001428Y-138294761D01*
X220858571Y-138342380D01*
X220763333Y-138342380D01*
X221572857Y-137437619D02*
X221620476Y-137390000D01*
X221715714Y-137342380D01*
X221953809Y-137342380D01*
X222049047Y-137390000D01*
X222096666Y-137437619D01*
X222144285Y-137532857D01*
X222144285Y-137628095D01*
X222096666Y-137770952D01*
X221525238Y-138342380D01*
X222144285Y-138342380D01*
X222477619Y-137342380D02*
X223096666Y-137342380D01*
X222763333Y-137723333D01*
X222906190Y-137723333D01*
X223001428Y-137770952D01*
X223049047Y-137818571D01*
X223096666Y-137913809D01*
X223096666Y-138151904D01*
X223049047Y-138247142D01*
X223001428Y-138294761D01*
X222906190Y-138342380D01*
X222620476Y-138342380D01*
X222525238Y-138294761D01*
X222477619Y-138247142D01*
X223430000Y-137342380D02*
X224096666Y-137342380D01*
X223668095Y-138342380D01*
%TO.C,J235*%
X212204285Y-137342380D02*
X212204285Y-138056666D01*
X212156666Y-138199523D01*
X212061428Y-138294761D01*
X211918571Y-138342380D01*
X211823333Y-138342380D01*
X212632857Y-137437619D02*
X212680476Y-137390000D01*
X212775714Y-137342380D01*
X213013809Y-137342380D01*
X213109047Y-137390000D01*
X213156666Y-137437619D01*
X213204285Y-137532857D01*
X213204285Y-137628095D01*
X213156666Y-137770952D01*
X212585238Y-138342380D01*
X213204285Y-138342380D01*
X213537619Y-137342380D02*
X214156666Y-137342380D01*
X213823333Y-137723333D01*
X213966190Y-137723333D01*
X214061428Y-137770952D01*
X214109047Y-137818571D01*
X214156666Y-137913809D01*
X214156666Y-138151904D01*
X214109047Y-138247142D01*
X214061428Y-138294761D01*
X213966190Y-138342380D01*
X213680476Y-138342380D01*
X213585238Y-138294761D01*
X213537619Y-138247142D01*
X215061428Y-137342380D02*
X214585238Y-137342380D01*
X214537619Y-137818571D01*
X214585238Y-137770952D01*
X214680476Y-137723333D01*
X214918571Y-137723333D01*
X215013809Y-137770952D01*
X215061428Y-137818571D01*
X215109047Y-137913809D01*
X215109047Y-138151904D01*
X215061428Y-138247142D01*
X215013809Y-138294761D01*
X214918571Y-138342380D01*
X214680476Y-138342380D01*
X214585238Y-138294761D01*
X214537619Y-138247142D01*
%TO.C,J233*%
X203264285Y-137342380D02*
X203264285Y-138056666D01*
X203216666Y-138199523D01*
X203121428Y-138294761D01*
X202978571Y-138342380D01*
X202883333Y-138342380D01*
X203692857Y-137437619D02*
X203740476Y-137390000D01*
X203835714Y-137342380D01*
X204073809Y-137342380D01*
X204169047Y-137390000D01*
X204216666Y-137437619D01*
X204264285Y-137532857D01*
X204264285Y-137628095D01*
X204216666Y-137770952D01*
X203645238Y-138342380D01*
X204264285Y-138342380D01*
X204597619Y-137342380D02*
X205216666Y-137342380D01*
X204883333Y-137723333D01*
X205026190Y-137723333D01*
X205121428Y-137770952D01*
X205169047Y-137818571D01*
X205216666Y-137913809D01*
X205216666Y-138151904D01*
X205169047Y-138247142D01*
X205121428Y-138294761D01*
X205026190Y-138342380D01*
X204740476Y-138342380D01*
X204645238Y-138294761D01*
X204597619Y-138247142D01*
X205550000Y-137342380D02*
X206169047Y-137342380D01*
X205835714Y-137723333D01*
X205978571Y-137723333D01*
X206073809Y-137770952D01*
X206121428Y-137818571D01*
X206169047Y-137913809D01*
X206169047Y-138151904D01*
X206121428Y-138247142D01*
X206073809Y-138294761D01*
X205978571Y-138342380D01*
X205692857Y-138342380D01*
X205597619Y-138294761D01*
X205550000Y-138247142D01*
%TO.C,J231*%
X194324285Y-137342380D02*
X194324285Y-138056666D01*
X194276666Y-138199523D01*
X194181428Y-138294761D01*
X194038571Y-138342380D01*
X193943333Y-138342380D01*
X194752857Y-137437619D02*
X194800476Y-137390000D01*
X194895714Y-137342380D01*
X195133809Y-137342380D01*
X195229047Y-137390000D01*
X195276666Y-137437619D01*
X195324285Y-137532857D01*
X195324285Y-137628095D01*
X195276666Y-137770952D01*
X194705238Y-138342380D01*
X195324285Y-138342380D01*
X195657619Y-137342380D02*
X196276666Y-137342380D01*
X195943333Y-137723333D01*
X196086190Y-137723333D01*
X196181428Y-137770952D01*
X196229047Y-137818571D01*
X196276666Y-137913809D01*
X196276666Y-138151904D01*
X196229047Y-138247142D01*
X196181428Y-138294761D01*
X196086190Y-138342380D01*
X195800476Y-138342380D01*
X195705238Y-138294761D01*
X195657619Y-138247142D01*
X197229047Y-138342380D02*
X196657619Y-138342380D01*
X196943333Y-138342380D02*
X196943333Y-137342380D01*
X196848095Y-137485238D01*
X196752857Y-137580476D01*
X196657619Y-137628095D01*
%TO.C,J229*%
X185384285Y-137342380D02*
X185384285Y-138056666D01*
X185336666Y-138199523D01*
X185241428Y-138294761D01*
X185098571Y-138342380D01*
X185003333Y-138342380D01*
X185812857Y-137437619D02*
X185860476Y-137390000D01*
X185955714Y-137342380D01*
X186193809Y-137342380D01*
X186289047Y-137390000D01*
X186336666Y-137437619D01*
X186384285Y-137532857D01*
X186384285Y-137628095D01*
X186336666Y-137770952D01*
X185765238Y-138342380D01*
X186384285Y-138342380D01*
X186765238Y-137437619D02*
X186812857Y-137390000D01*
X186908095Y-137342380D01*
X187146190Y-137342380D01*
X187241428Y-137390000D01*
X187289047Y-137437619D01*
X187336666Y-137532857D01*
X187336666Y-137628095D01*
X187289047Y-137770952D01*
X186717619Y-138342380D01*
X187336666Y-138342380D01*
X187812857Y-138342380D02*
X188003333Y-138342380D01*
X188098571Y-138294761D01*
X188146190Y-138247142D01*
X188241428Y-138104285D01*
X188289047Y-137913809D01*
X188289047Y-137532857D01*
X188241428Y-137437619D01*
X188193809Y-137390000D01*
X188098571Y-137342380D01*
X187908095Y-137342380D01*
X187812857Y-137390000D01*
X187765238Y-137437619D01*
X187717619Y-137532857D01*
X187717619Y-137770952D01*
X187765238Y-137866190D01*
X187812857Y-137913809D01*
X187908095Y-137961428D01*
X188098571Y-137961428D01*
X188193809Y-137913809D01*
X188241428Y-137866190D01*
X188289047Y-137770952D01*
%TO.C,J227*%
X176444285Y-137342380D02*
X176444285Y-138056666D01*
X176396666Y-138199523D01*
X176301428Y-138294761D01*
X176158571Y-138342380D01*
X176063333Y-138342380D01*
X176872857Y-137437619D02*
X176920476Y-137390000D01*
X177015714Y-137342380D01*
X177253809Y-137342380D01*
X177349047Y-137390000D01*
X177396666Y-137437619D01*
X177444285Y-137532857D01*
X177444285Y-137628095D01*
X177396666Y-137770952D01*
X176825238Y-138342380D01*
X177444285Y-138342380D01*
X177825238Y-137437619D02*
X177872857Y-137390000D01*
X177968095Y-137342380D01*
X178206190Y-137342380D01*
X178301428Y-137390000D01*
X178349047Y-137437619D01*
X178396666Y-137532857D01*
X178396666Y-137628095D01*
X178349047Y-137770952D01*
X177777619Y-138342380D01*
X178396666Y-138342380D01*
X178730000Y-137342380D02*
X179396666Y-137342380D01*
X178968095Y-138342380D01*
%TO.C,J225*%
X167504285Y-137342380D02*
X167504285Y-138056666D01*
X167456666Y-138199523D01*
X167361428Y-138294761D01*
X167218571Y-138342380D01*
X167123333Y-138342380D01*
X167932857Y-137437619D02*
X167980476Y-137390000D01*
X168075714Y-137342380D01*
X168313809Y-137342380D01*
X168409047Y-137390000D01*
X168456666Y-137437619D01*
X168504285Y-137532857D01*
X168504285Y-137628095D01*
X168456666Y-137770952D01*
X167885238Y-138342380D01*
X168504285Y-138342380D01*
X168885238Y-137437619D02*
X168932857Y-137390000D01*
X169028095Y-137342380D01*
X169266190Y-137342380D01*
X169361428Y-137390000D01*
X169409047Y-137437619D01*
X169456666Y-137532857D01*
X169456666Y-137628095D01*
X169409047Y-137770952D01*
X168837619Y-138342380D01*
X169456666Y-138342380D01*
X170361428Y-137342380D02*
X169885238Y-137342380D01*
X169837619Y-137818571D01*
X169885238Y-137770952D01*
X169980476Y-137723333D01*
X170218571Y-137723333D01*
X170313809Y-137770952D01*
X170361428Y-137818571D01*
X170409047Y-137913809D01*
X170409047Y-138151904D01*
X170361428Y-138247142D01*
X170313809Y-138294761D01*
X170218571Y-138342380D01*
X169980476Y-138342380D01*
X169885238Y-138294761D01*
X169837619Y-138247142D01*
%TO.C,J223*%
X158564285Y-137342380D02*
X158564285Y-138056666D01*
X158516666Y-138199523D01*
X158421428Y-138294761D01*
X158278571Y-138342380D01*
X158183333Y-138342380D01*
X158992857Y-137437619D02*
X159040476Y-137390000D01*
X159135714Y-137342380D01*
X159373809Y-137342380D01*
X159469047Y-137390000D01*
X159516666Y-137437619D01*
X159564285Y-137532857D01*
X159564285Y-137628095D01*
X159516666Y-137770952D01*
X158945238Y-138342380D01*
X159564285Y-138342380D01*
X159945238Y-137437619D02*
X159992857Y-137390000D01*
X160088095Y-137342380D01*
X160326190Y-137342380D01*
X160421428Y-137390000D01*
X160469047Y-137437619D01*
X160516666Y-137532857D01*
X160516666Y-137628095D01*
X160469047Y-137770952D01*
X159897619Y-138342380D01*
X160516666Y-138342380D01*
X160850000Y-137342380D02*
X161469047Y-137342380D01*
X161135714Y-137723333D01*
X161278571Y-137723333D01*
X161373809Y-137770952D01*
X161421428Y-137818571D01*
X161469047Y-137913809D01*
X161469047Y-138151904D01*
X161421428Y-138247142D01*
X161373809Y-138294761D01*
X161278571Y-138342380D01*
X160992857Y-138342380D01*
X160897619Y-138294761D01*
X160850000Y-138247142D01*
%TO.C,J221*%
X149624285Y-137342380D02*
X149624285Y-138056666D01*
X149576666Y-138199523D01*
X149481428Y-138294761D01*
X149338571Y-138342380D01*
X149243333Y-138342380D01*
X150052857Y-137437619D02*
X150100476Y-137390000D01*
X150195714Y-137342380D01*
X150433809Y-137342380D01*
X150529047Y-137390000D01*
X150576666Y-137437619D01*
X150624285Y-137532857D01*
X150624285Y-137628095D01*
X150576666Y-137770952D01*
X150005238Y-138342380D01*
X150624285Y-138342380D01*
X151005238Y-137437619D02*
X151052857Y-137390000D01*
X151148095Y-137342380D01*
X151386190Y-137342380D01*
X151481428Y-137390000D01*
X151529047Y-137437619D01*
X151576666Y-137532857D01*
X151576666Y-137628095D01*
X151529047Y-137770952D01*
X150957619Y-138342380D01*
X151576666Y-138342380D01*
X152529047Y-138342380D02*
X151957619Y-138342380D01*
X152243333Y-138342380D02*
X152243333Y-137342380D01*
X152148095Y-137485238D01*
X152052857Y-137580476D01*
X151957619Y-137628095D01*
%TO.C,J219*%
X230084285Y-132182380D02*
X230084285Y-132896666D01*
X230036666Y-133039523D01*
X229941428Y-133134761D01*
X229798571Y-133182380D01*
X229703333Y-133182380D01*
X230512857Y-132277619D02*
X230560476Y-132230000D01*
X230655714Y-132182380D01*
X230893809Y-132182380D01*
X230989047Y-132230000D01*
X231036666Y-132277619D01*
X231084285Y-132372857D01*
X231084285Y-132468095D01*
X231036666Y-132610952D01*
X230465238Y-133182380D01*
X231084285Y-133182380D01*
X232036666Y-133182380D02*
X231465238Y-133182380D01*
X231750952Y-133182380D02*
X231750952Y-132182380D01*
X231655714Y-132325238D01*
X231560476Y-132420476D01*
X231465238Y-132468095D01*
X232512857Y-133182380D02*
X232703333Y-133182380D01*
X232798571Y-133134761D01*
X232846190Y-133087142D01*
X232941428Y-132944285D01*
X232989047Y-132753809D01*
X232989047Y-132372857D01*
X232941428Y-132277619D01*
X232893809Y-132230000D01*
X232798571Y-132182380D01*
X232608095Y-132182380D01*
X232512857Y-132230000D01*
X232465238Y-132277619D01*
X232417619Y-132372857D01*
X232417619Y-132610952D01*
X232465238Y-132706190D01*
X232512857Y-132753809D01*
X232608095Y-132801428D01*
X232798571Y-132801428D01*
X232893809Y-132753809D01*
X232941428Y-132706190D01*
X232989047Y-132610952D01*
%TO.C,J217*%
X221144285Y-132182380D02*
X221144285Y-132896666D01*
X221096666Y-133039523D01*
X221001428Y-133134761D01*
X220858571Y-133182380D01*
X220763333Y-133182380D01*
X221572857Y-132277619D02*
X221620476Y-132230000D01*
X221715714Y-132182380D01*
X221953809Y-132182380D01*
X222049047Y-132230000D01*
X222096666Y-132277619D01*
X222144285Y-132372857D01*
X222144285Y-132468095D01*
X222096666Y-132610952D01*
X221525238Y-133182380D01*
X222144285Y-133182380D01*
X223096666Y-133182380D02*
X222525238Y-133182380D01*
X222810952Y-133182380D02*
X222810952Y-132182380D01*
X222715714Y-132325238D01*
X222620476Y-132420476D01*
X222525238Y-132468095D01*
X223430000Y-132182380D02*
X224096666Y-132182380D01*
X223668095Y-133182380D01*
%TO.C,J215*%
X212204285Y-132182380D02*
X212204285Y-132896666D01*
X212156666Y-133039523D01*
X212061428Y-133134761D01*
X211918571Y-133182380D01*
X211823333Y-133182380D01*
X212632857Y-132277619D02*
X212680476Y-132230000D01*
X212775714Y-132182380D01*
X213013809Y-132182380D01*
X213109047Y-132230000D01*
X213156666Y-132277619D01*
X213204285Y-132372857D01*
X213204285Y-132468095D01*
X213156666Y-132610952D01*
X212585238Y-133182380D01*
X213204285Y-133182380D01*
X214156666Y-133182380D02*
X213585238Y-133182380D01*
X213870952Y-133182380D02*
X213870952Y-132182380D01*
X213775714Y-132325238D01*
X213680476Y-132420476D01*
X213585238Y-132468095D01*
X215061428Y-132182380D02*
X214585238Y-132182380D01*
X214537619Y-132658571D01*
X214585238Y-132610952D01*
X214680476Y-132563333D01*
X214918571Y-132563333D01*
X215013809Y-132610952D01*
X215061428Y-132658571D01*
X215109047Y-132753809D01*
X215109047Y-132991904D01*
X215061428Y-133087142D01*
X215013809Y-133134761D01*
X214918571Y-133182380D01*
X214680476Y-133182380D01*
X214585238Y-133134761D01*
X214537619Y-133087142D01*
%TO.C,J213*%
X203264285Y-132182380D02*
X203264285Y-132896666D01*
X203216666Y-133039523D01*
X203121428Y-133134761D01*
X202978571Y-133182380D01*
X202883333Y-133182380D01*
X203692857Y-132277619D02*
X203740476Y-132230000D01*
X203835714Y-132182380D01*
X204073809Y-132182380D01*
X204169047Y-132230000D01*
X204216666Y-132277619D01*
X204264285Y-132372857D01*
X204264285Y-132468095D01*
X204216666Y-132610952D01*
X203645238Y-133182380D01*
X204264285Y-133182380D01*
X205216666Y-133182380D02*
X204645238Y-133182380D01*
X204930952Y-133182380D02*
X204930952Y-132182380D01*
X204835714Y-132325238D01*
X204740476Y-132420476D01*
X204645238Y-132468095D01*
X205550000Y-132182380D02*
X206169047Y-132182380D01*
X205835714Y-132563333D01*
X205978571Y-132563333D01*
X206073809Y-132610952D01*
X206121428Y-132658571D01*
X206169047Y-132753809D01*
X206169047Y-132991904D01*
X206121428Y-133087142D01*
X206073809Y-133134761D01*
X205978571Y-133182380D01*
X205692857Y-133182380D01*
X205597619Y-133134761D01*
X205550000Y-133087142D01*
%TO.C,J211*%
X194324285Y-132182380D02*
X194324285Y-132896666D01*
X194276666Y-133039523D01*
X194181428Y-133134761D01*
X194038571Y-133182380D01*
X193943333Y-133182380D01*
X194752857Y-132277619D02*
X194800476Y-132230000D01*
X194895714Y-132182380D01*
X195133809Y-132182380D01*
X195229047Y-132230000D01*
X195276666Y-132277619D01*
X195324285Y-132372857D01*
X195324285Y-132468095D01*
X195276666Y-132610952D01*
X194705238Y-133182380D01*
X195324285Y-133182380D01*
X196276666Y-133182380D02*
X195705238Y-133182380D01*
X195990952Y-133182380D02*
X195990952Y-132182380D01*
X195895714Y-132325238D01*
X195800476Y-132420476D01*
X195705238Y-132468095D01*
X197229047Y-133182380D02*
X196657619Y-133182380D01*
X196943333Y-133182380D02*
X196943333Y-132182380D01*
X196848095Y-132325238D01*
X196752857Y-132420476D01*
X196657619Y-132468095D01*
%TO.C,J209*%
X185384285Y-132182380D02*
X185384285Y-132896666D01*
X185336666Y-133039523D01*
X185241428Y-133134761D01*
X185098571Y-133182380D01*
X185003333Y-133182380D01*
X185812857Y-132277619D02*
X185860476Y-132230000D01*
X185955714Y-132182380D01*
X186193809Y-132182380D01*
X186289047Y-132230000D01*
X186336666Y-132277619D01*
X186384285Y-132372857D01*
X186384285Y-132468095D01*
X186336666Y-132610952D01*
X185765238Y-133182380D01*
X186384285Y-133182380D01*
X187003333Y-132182380D02*
X187098571Y-132182380D01*
X187193809Y-132230000D01*
X187241428Y-132277619D01*
X187289047Y-132372857D01*
X187336666Y-132563333D01*
X187336666Y-132801428D01*
X187289047Y-132991904D01*
X187241428Y-133087142D01*
X187193809Y-133134761D01*
X187098571Y-133182380D01*
X187003333Y-133182380D01*
X186908095Y-133134761D01*
X186860476Y-133087142D01*
X186812857Y-132991904D01*
X186765238Y-132801428D01*
X186765238Y-132563333D01*
X186812857Y-132372857D01*
X186860476Y-132277619D01*
X186908095Y-132230000D01*
X187003333Y-132182380D01*
X187812857Y-133182380D02*
X188003333Y-133182380D01*
X188098571Y-133134761D01*
X188146190Y-133087142D01*
X188241428Y-132944285D01*
X188289047Y-132753809D01*
X188289047Y-132372857D01*
X188241428Y-132277619D01*
X188193809Y-132230000D01*
X188098571Y-132182380D01*
X187908095Y-132182380D01*
X187812857Y-132230000D01*
X187765238Y-132277619D01*
X187717619Y-132372857D01*
X187717619Y-132610952D01*
X187765238Y-132706190D01*
X187812857Y-132753809D01*
X187908095Y-132801428D01*
X188098571Y-132801428D01*
X188193809Y-132753809D01*
X188241428Y-132706190D01*
X188289047Y-132610952D01*
%TO.C,J207*%
X176444285Y-132182380D02*
X176444285Y-132896666D01*
X176396666Y-133039523D01*
X176301428Y-133134761D01*
X176158571Y-133182380D01*
X176063333Y-133182380D01*
X176872857Y-132277619D02*
X176920476Y-132230000D01*
X177015714Y-132182380D01*
X177253809Y-132182380D01*
X177349047Y-132230000D01*
X177396666Y-132277619D01*
X177444285Y-132372857D01*
X177444285Y-132468095D01*
X177396666Y-132610952D01*
X176825238Y-133182380D01*
X177444285Y-133182380D01*
X178063333Y-132182380D02*
X178158571Y-132182380D01*
X178253809Y-132230000D01*
X178301428Y-132277619D01*
X178349047Y-132372857D01*
X178396666Y-132563333D01*
X178396666Y-132801428D01*
X178349047Y-132991904D01*
X178301428Y-133087142D01*
X178253809Y-133134761D01*
X178158571Y-133182380D01*
X178063333Y-133182380D01*
X177968095Y-133134761D01*
X177920476Y-133087142D01*
X177872857Y-132991904D01*
X177825238Y-132801428D01*
X177825238Y-132563333D01*
X177872857Y-132372857D01*
X177920476Y-132277619D01*
X177968095Y-132230000D01*
X178063333Y-132182380D01*
X178730000Y-132182380D02*
X179396666Y-132182380D01*
X178968095Y-133182380D01*
%TO.C,J205*%
X167504285Y-132182380D02*
X167504285Y-132896666D01*
X167456666Y-133039523D01*
X167361428Y-133134761D01*
X167218571Y-133182380D01*
X167123333Y-133182380D01*
X167932857Y-132277619D02*
X167980476Y-132230000D01*
X168075714Y-132182380D01*
X168313809Y-132182380D01*
X168409047Y-132230000D01*
X168456666Y-132277619D01*
X168504285Y-132372857D01*
X168504285Y-132468095D01*
X168456666Y-132610952D01*
X167885238Y-133182380D01*
X168504285Y-133182380D01*
X169123333Y-132182380D02*
X169218571Y-132182380D01*
X169313809Y-132230000D01*
X169361428Y-132277619D01*
X169409047Y-132372857D01*
X169456666Y-132563333D01*
X169456666Y-132801428D01*
X169409047Y-132991904D01*
X169361428Y-133087142D01*
X169313809Y-133134761D01*
X169218571Y-133182380D01*
X169123333Y-133182380D01*
X169028095Y-133134761D01*
X168980476Y-133087142D01*
X168932857Y-132991904D01*
X168885238Y-132801428D01*
X168885238Y-132563333D01*
X168932857Y-132372857D01*
X168980476Y-132277619D01*
X169028095Y-132230000D01*
X169123333Y-132182380D01*
X170361428Y-132182380D02*
X169885238Y-132182380D01*
X169837619Y-132658571D01*
X169885238Y-132610952D01*
X169980476Y-132563333D01*
X170218571Y-132563333D01*
X170313809Y-132610952D01*
X170361428Y-132658571D01*
X170409047Y-132753809D01*
X170409047Y-132991904D01*
X170361428Y-133087142D01*
X170313809Y-133134761D01*
X170218571Y-133182380D01*
X169980476Y-133182380D01*
X169885238Y-133134761D01*
X169837619Y-133087142D01*
%TO.C,J203*%
X158564285Y-132182380D02*
X158564285Y-132896666D01*
X158516666Y-133039523D01*
X158421428Y-133134761D01*
X158278571Y-133182380D01*
X158183333Y-133182380D01*
X158992857Y-132277619D02*
X159040476Y-132230000D01*
X159135714Y-132182380D01*
X159373809Y-132182380D01*
X159469047Y-132230000D01*
X159516666Y-132277619D01*
X159564285Y-132372857D01*
X159564285Y-132468095D01*
X159516666Y-132610952D01*
X158945238Y-133182380D01*
X159564285Y-133182380D01*
X160183333Y-132182380D02*
X160278571Y-132182380D01*
X160373809Y-132230000D01*
X160421428Y-132277619D01*
X160469047Y-132372857D01*
X160516666Y-132563333D01*
X160516666Y-132801428D01*
X160469047Y-132991904D01*
X160421428Y-133087142D01*
X160373809Y-133134761D01*
X160278571Y-133182380D01*
X160183333Y-133182380D01*
X160088095Y-133134761D01*
X160040476Y-133087142D01*
X159992857Y-132991904D01*
X159945238Y-132801428D01*
X159945238Y-132563333D01*
X159992857Y-132372857D01*
X160040476Y-132277619D01*
X160088095Y-132230000D01*
X160183333Y-132182380D01*
X160850000Y-132182380D02*
X161469047Y-132182380D01*
X161135714Y-132563333D01*
X161278571Y-132563333D01*
X161373809Y-132610952D01*
X161421428Y-132658571D01*
X161469047Y-132753809D01*
X161469047Y-132991904D01*
X161421428Y-133087142D01*
X161373809Y-133134761D01*
X161278571Y-133182380D01*
X160992857Y-133182380D01*
X160897619Y-133134761D01*
X160850000Y-133087142D01*
%TO.C,J201*%
X149624285Y-132182380D02*
X149624285Y-132896666D01*
X149576666Y-133039523D01*
X149481428Y-133134761D01*
X149338571Y-133182380D01*
X149243333Y-133182380D01*
X150052857Y-132277619D02*
X150100476Y-132230000D01*
X150195714Y-132182380D01*
X150433809Y-132182380D01*
X150529047Y-132230000D01*
X150576666Y-132277619D01*
X150624285Y-132372857D01*
X150624285Y-132468095D01*
X150576666Y-132610952D01*
X150005238Y-133182380D01*
X150624285Y-133182380D01*
X151243333Y-132182380D02*
X151338571Y-132182380D01*
X151433809Y-132230000D01*
X151481428Y-132277619D01*
X151529047Y-132372857D01*
X151576666Y-132563333D01*
X151576666Y-132801428D01*
X151529047Y-132991904D01*
X151481428Y-133087142D01*
X151433809Y-133134761D01*
X151338571Y-133182380D01*
X151243333Y-133182380D01*
X151148095Y-133134761D01*
X151100476Y-133087142D01*
X151052857Y-132991904D01*
X151005238Y-132801428D01*
X151005238Y-132563333D01*
X151052857Y-132372857D01*
X151100476Y-132277619D01*
X151148095Y-132230000D01*
X151243333Y-132182380D01*
X152529047Y-133182380D02*
X151957619Y-133182380D01*
X152243333Y-133182380D02*
X152243333Y-132182380D01*
X152148095Y-132325238D01*
X152052857Y-132420476D01*
X151957619Y-132468095D01*
%TO.C,J199*%
X230084285Y-127022380D02*
X230084285Y-127736666D01*
X230036666Y-127879523D01*
X229941428Y-127974761D01*
X229798571Y-128022380D01*
X229703333Y-128022380D01*
X231084285Y-128022380D02*
X230512857Y-128022380D01*
X230798571Y-128022380D02*
X230798571Y-127022380D01*
X230703333Y-127165238D01*
X230608095Y-127260476D01*
X230512857Y-127308095D01*
X231560476Y-128022380D02*
X231750952Y-128022380D01*
X231846190Y-127974761D01*
X231893809Y-127927142D01*
X231989047Y-127784285D01*
X232036666Y-127593809D01*
X232036666Y-127212857D01*
X231989047Y-127117619D01*
X231941428Y-127070000D01*
X231846190Y-127022380D01*
X231655714Y-127022380D01*
X231560476Y-127070000D01*
X231512857Y-127117619D01*
X231465238Y-127212857D01*
X231465238Y-127450952D01*
X231512857Y-127546190D01*
X231560476Y-127593809D01*
X231655714Y-127641428D01*
X231846190Y-127641428D01*
X231941428Y-127593809D01*
X231989047Y-127546190D01*
X232036666Y-127450952D01*
X232512857Y-128022380D02*
X232703333Y-128022380D01*
X232798571Y-127974761D01*
X232846190Y-127927142D01*
X232941428Y-127784285D01*
X232989047Y-127593809D01*
X232989047Y-127212857D01*
X232941428Y-127117619D01*
X232893809Y-127070000D01*
X232798571Y-127022380D01*
X232608095Y-127022380D01*
X232512857Y-127070000D01*
X232465238Y-127117619D01*
X232417619Y-127212857D01*
X232417619Y-127450952D01*
X232465238Y-127546190D01*
X232512857Y-127593809D01*
X232608095Y-127641428D01*
X232798571Y-127641428D01*
X232893809Y-127593809D01*
X232941428Y-127546190D01*
X232989047Y-127450952D01*
%TO.C,J197*%
X221144285Y-127022380D02*
X221144285Y-127736666D01*
X221096666Y-127879523D01*
X221001428Y-127974761D01*
X220858571Y-128022380D01*
X220763333Y-128022380D01*
X222144285Y-128022380D02*
X221572857Y-128022380D01*
X221858571Y-128022380D02*
X221858571Y-127022380D01*
X221763333Y-127165238D01*
X221668095Y-127260476D01*
X221572857Y-127308095D01*
X222620476Y-128022380D02*
X222810952Y-128022380D01*
X222906190Y-127974761D01*
X222953809Y-127927142D01*
X223049047Y-127784285D01*
X223096666Y-127593809D01*
X223096666Y-127212857D01*
X223049047Y-127117619D01*
X223001428Y-127070000D01*
X222906190Y-127022380D01*
X222715714Y-127022380D01*
X222620476Y-127070000D01*
X222572857Y-127117619D01*
X222525238Y-127212857D01*
X222525238Y-127450952D01*
X222572857Y-127546190D01*
X222620476Y-127593809D01*
X222715714Y-127641428D01*
X222906190Y-127641428D01*
X223001428Y-127593809D01*
X223049047Y-127546190D01*
X223096666Y-127450952D01*
X223430000Y-127022380D02*
X224096666Y-127022380D01*
X223668095Y-128022380D01*
%TO.C,J195*%
X212204285Y-127022380D02*
X212204285Y-127736666D01*
X212156666Y-127879523D01*
X212061428Y-127974761D01*
X211918571Y-128022380D01*
X211823333Y-128022380D01*
X213204285Y-128022380D02*
X212632857Y-128022380D01*
X212918571Y-128022380D02*
X212918571Y-127022380D01*
X212823333Y-127165238D01*
X212728095Y-127260476D01*
X212632857Y-127308095D01*
X213680476Y-128022380D02*
X213870952Y-128022380D01*
X213966190Y-127974761D01*
X214013809Y-127927142D01*
X214109047Y-127784285D01*
X214156666Y-127593809D01*
X214156666Y-127212857D01*
X214109047Y-127117619D01*
X214061428Y-127070000D01*
X213966190Y-127022380D01*
X213775714Y-127022380D01*
X213680476Y-127070000D01*
X213632857Y-127117619D01*
X213585238Y-127212857D01*
X213585238Y-127450952D01*
X213632857Y-127546190D01*
X213680476Y-127593809D01*
X213775714Y-127641428D01*
X213966190Y-127641428D01*
X214061428Y-127593809D01*
X214109047Y-127546190D01*
X214156666Y-127450952D01*
X215061428Y-127022380D02*
X214585238Y-127022380D01*
X214537619Y-127498571D01*
X214585238Y-127450952D01*
X214680476Y-127403333D01*
X214918571Y-127403333D01*
X215013809Y-127450952D01*
X215061428Y-127498571D01*
X215109047Y-127593809D01*
X215109047Y-127831904D01*
X215061428Y-127927142D01*
X215013809Y-127974761D01*
X214918571Y-128022380D01*
X214680476Y-128022380D01*
X214585238Y-127974761D01*
X214537619Y-127927142D01*
%TO.C,J193*%
X203264285Y-127022380D02*
X203264285Y-127736666D01*
X203216666Y-127879523D01*
X203121428Y-127974761D01*
X202978571Y-128022380D01*
X202883333Y-128022380D01*
X204264285Y-128022380D02*
X203692857Y-128022380D01*
X203978571Y-128022380D02*
X203978571Y-127022380D01*
X203883333Y-127165238D01*
X203788095Y-127260476D01*
X203692857Y-127308095D01*
X204740476Y-128022380D02*
X204930952Y-128022380D01*
X205026190Y-127974761D01*
X205073809Y-127927142D01*
X205169047Y-127784285D01*
X205216666Y-127593809D01*
X205216666Y-127212857D01*
X205169047Y-127117619D01*
X205121428Y-127070000D01*
X205026190Y-127022380D01*
X204835714Y-127022380D01*
X204740476Y-127070000D01*
X204692857Y-127117619D01*
X204645238Y-127212857D01*
X204645238Y-127450952D01*
X204692857Y-127546190D01*
X204740476Y-127593809D01*
X204835714Y-127641428D01*
X205026190Y-127641428D01*
X205121428Y-127593809D01*
X205169047Y-127546190D01*
X205216666Y-127450952D01*
X205550000Y-127022380D02*
X206169047Y-127022380D01*
X205835714Y-127403333D01*
X205978571Y-127403333D01*
X206073809Y-127450952D01*
X206121428Y-127498571D01*
X206169047Y-127593809D01*
X206169047Y-127831904D01*
X206121428Y-127927142D01*
X206073809Y-127974761D01*
X205978571Y-128022380D01*
X205692857Y-128022380D01*
X205597619Y-127974761D01*
X205550000Y-127927142D01*
%TO.C,J191*%
X194324285Y-127022380D02*
X194324285Y-127736666D01*
X194276666Y-127879523D01*
X194181428Y-127974761D01*
X194038571Y-128022380D01*
X193943333Y-128022380D01*
X195324285Y-128022380D02*
X194752857Y-128022380D01*
X195038571Y-128022380D02*
X195038571Y-127022380D01*
X194943333Y-127165238D01*
X194848095Y-127260476D01*
X194752857Y-127308095D01*
X195800476Y-128022380D02*
X195990952Y-128022380D01*
X196086190Y-127974761D01*
X196133809Y-127927142D01*
X196229047Y-127784285D01*
X196276666Y-127593809D01*
X196276666Y-127212857D01*
X196229047Y-127117619D01*
X196181428Y-127070000D01*
X196086190Y-127022380D01*
X195895714Y-127022380D01*
X195800476Y-127070000D01*
X195752857Y-127117619D01*
X195705238Y-127212857D01*
X195705238Y-127450952D01*
X195752857Y-127546190D01*
X195800476Y-127593809D01*
X195895714Y-127641428D01*
X196086190Y-127641428D01*
X196181428Y-127593809D01*
X196229047Y-127546190D01*
X196276666Y-127450952D01*
X197229047Y-128022380D02*
X196657619Y-128022380D01*
X196943333Y-128022380D02*
X196943333Y-127022380D01*
X196848095Y-127165238D01*
X196752857Y-127260476D01*
X196657619Y-127308095D01*
%TO.C,J189*%
X185384285Y-127022380D02*
X185384285Y-127736666D01*
X185336666Y-127879523D01*
X185241428Y-127974761D01*
X185098571Y-128022380D01*
X185003333Y-128022380D01*
X186384285Y-128022380D02*
X185812857Y-128022380D01*
X186098571Y-128022380D02*
X186098571Y-127022380D01*
X186003333Y-127165238D01*
X185908095Y-127260476D01*
X185812857Y-127308095D01*
X186955714Y-127450952D02*
X186860476Y-127403333D01*
X186812857Y-127355714D01*
X186765238Y-127260476D01*
X186765238Y-127212857D01*
X186812857Y-127117619D01*
X186860476Y-127070000D01*
X186955714Y-127022380D01*
X187146190Y-127022380D01*
X187241428Y-127070000D01*
X187289047Y-127117619D01*
X187336666Y-127212857D01*
X187336666Y-127260476D01*
X187289047Y-127355714D01*
X187241428Y-127403333D01*
X187146190Y-127450952D01*
X186955714Y-127450952D01*
X186860476Y-127498571D01*
X186812857Y-127546190D01*
X186765238Y-127641428D01*
X186765238Y-127831904D01*
X186812857Y-127927142D01*
X186860476Y-127974761D01*
X186955714Y-128022380D01*
X187146190Y-128022380D01*
X187241428Y-127974761D01*
X187289047Y-127927142D01*
X187336666Y-127831904D01*
X187336666Y-127641428D01*
X187289047Y-127546190D01*
X187241428Y-127498571D01*
X187146190Y-127450952D01*
X187812857Y-128022380D02*
X188003333Y-128022380D01*
X188098571Y-127974761D01*
X188146190Y-127927142D01*
X188241428Y-127784285D01*
X188289047Y-127593809D01*
X188289047Y-127212857D01*
X188241428Y-127117619D01*
X188193809Y-127070000D01*
X188098571Y-127022380D01*
X187908095Y-127022380D01*
X187812857Y-127070000D01*
X187765238Y-127117619D01*
X187717619Y-127212857D01*
X187717619Y-127450952D01*
X187765238Y-127546190D01*
X187812857Y-127593809D01*
X187908095Y-127641428D01*
X188098571Y-127641428D01*
X188193809Y-127593809D01*
X188241428Y-127546190D01*
X188289047Y-127450952D01*
%TO.C,J187*%
X176444285Y-127022380D02*
X176444285Y-127736666D01*
X176396666Y-127879523D01*
X176301428Y-127974761D01*
X176158571Y-128022380D01*
X176063333Y-128022380D01*
X177444285Y-128022380D02*
X176872857Y-128022380D01*
X177158571Y-128022380D02*
X177158571Y-127022380D01*
X177063333Y-127165238D01*
X176968095Y-127260476D01*
X176872857Y-127308095D01*
X178015714Y-127450952D02*
X177920476Y-127403333D01*
X177872857Y-127355714D01*
X177825238Y-127260476D01*
X177825238Y-127212857D01*
X177872857Y-127117619D01*
X177920476Y-127070000D01*
X178015714Y-127022380D01*
X178206190Y-127022380D01*
X178301428Y-127070000D01*
X178349047Y-127117619D01*
X178396666Y-127212857D01*
X178396666Y-127260476D01*
X178349047Y-127355714D01*
X178301428Y-127403333D01*
X178206190Y-127450952D01*
X178015714Y-127450952D01*
X177920476Y-127498571D01*
X177872857Y-127546190D01*
X177825238Y-127641428D01*
X177825238Y-127831904D01*
X177872857Y-127927142D01*
X177920476Y-127974761D01*
X178015714Y-128022380D01*
X178206190Y-128022380D01*
X178301428Y-127974761D01*
X178349047Y-127927142D01*
X178396666Y-127831904D01*
X178396666Y-127641428D01*
X178349047Y-127546190D01*
X178301428Y-127498571D01*
X178206190Y-127450952D01*
X178730000Y-127022380D02*
X179396666Y-127022380D01*
X178968095Y-128022380D01*
%TO.C,J185*%
X167504285Y-127022380D02*
X167504285Y-127736666D01*
X167456666Y-127879523D01*
X167361428Y-127974761D01*
X167218571Y-128022380D01*
X167123333Y-128022380D01*
X168504285Y-128022380D02*
X167932857Y-128022380D01*
X168218571Y-128022380D02*
X168218571Y-127022380D01*
X168123333Y-127165238D01*
X168028095Y-127260476D01*
X167932857Y-127308095D01*
X169075714Y-127450952D02*
X168980476Y-127403333D01*
X168932857Y-127355714D01*
X168885238Y-127260476D01*
X168885238Y-127212857D01*
X168932857Y-127117619D01*
X168980476Y-127070000D01*
X169075714Y-127022380D01*
X169266190Y-127022380D01*
X169361428Y-127070000D01*
X169409047Y-127117619D01*
X169456666Y-127212857D01*
X169456666Y-127260476D01*
X169409047Y-127355714D01*
X169361428Y-127403333D01*
X169266190Y-127450952D01*
X169075714Y-127450952D01*
X168980476Y-127498571D01*
X168932857Y-127546190D01*
X168885238Y-127641428D01*
X168885238Y-127831904D01*
X168932857Y-127927142D01*
X168980476Y-127974761D01*
X169075714Y-128022380D01*
X169266190Y-128022380D01*
X169361428Y-127974761D01*
X169409047Y-127927142D01*
X169456666Y-127831904D01*
X169456666Y-127641428D01*
X169409047Y-127546190D01*
X169361428Y-127498571D01*
X169266190Y-127450952D01*
X170361428Y-127022380D02*
X169885238Y-127022380D01*
X169837619Y-127498571D01*
X169885238Y-127450952D01*
X169980476Y-127403333D01*
X170218571Y-127403333D01*
X170313809Y-127450952D01*
X170361428Y-127498571D01*
X170409047Y-127593809D01*
X170409047Y-127831904D01*
X170361428Y-127927142D01*
X170313809Y-127974761D01*
X170218571Y-128022380D01*
X169980476Y-128022380D01*
X169885238Y-127974761D01*
X169837619Y-127927142D01*
%TO.C,J183*%
X158564285Y-127022380D02*
X158564285Y-127736666D01*
X158516666Y-127879523D01*
X158421428Y-127974761D01*
X158278571Y-128022380D01*
X158183333Y-128022380D01*
X159564285Y-128022380D02*
X158992857Y-128022380D01*
X159278571Y-128022380D02*
X159278571Y-127022380D01*
X159183333Y-127165238D01*
X159088095Y-127260476D01*
X158992857Y-127308095D01*
X160135714Y-127450952D02*
X160040476Y-127403333D01*
X159992857Y-127355714D01*
X159945238Y-127260476D01*
X159945238Y-127212857D01*
X159992857Y-127117619D01*
X160040476Y-127070000D01*
X160135714Y-127022380D01*
X160326190Y-127022380D01*
X160421428Y-127070000D01*
X160469047Y-127117619D01*
X160516666Y-127212857D01*
X160516666Y-127260476D01*
X160469047Y-127355714D01*
X160421428Y-127403333D01*
X160326190Y-127450952D01*
X160135714Y-127450952D01*
X160040476Y-127498571D01*
X159992857Y-127546190D01*
X159945238Y-127641428D01*
X159945238Y-127831904D01*
X159992857Y-127927142D01*
X160040476Y-127974761D01*
X160135714Y-128022380D01*
X160326190Y-128022380D01*
X160421428Y-127974761D01*
X160469047Y-127927142D01*
X160516666Y-127831904D01*
X160516666Y-127641428D01*
X160469047Y-127546190D01*
X160421428Y-127498571D01*
X160326190Y-127450952D01*
X160850000Y-127022380D02*
X161469047Y-127022380D01*
X161135714Y-127403333D01*
X161278571Y-127403333D01*
X161373809Y-127450952D01*
X161421428Y-127498571D01*
X161469047Y-127593809D01*
X161469047Y-127831904D01*
X161421428Y-127927142D01*
X161373809Y-127974761D01*
X161278571Y-128022380D01*
X160992857Y-128022380D01*
X160897619Y-127974761D01*
X160850000Y-127927142D01*
%TO.C,J181*%
X149624285Y-127022380D02*
X149624285Y-127736666D01*
X149576666Y-127879523D01*
X149481428Y-127974761D01*
X149338571Y-128022380D01*
X149243333Y-128022380D01*
X150624285Y-128022380D02*
X150052857Y-128022380D01*
X150338571Y-128022380D02*
X150338571Y-127022380D01*
X150243333Y-127165238D01*
X150148095Y-127260476D01*
X150052857Y-127308095D01*
X151195714Y-127450952D02*
X151100476Y-127403333D01*
X151052857Y-127355714D01*
X151005238Y-127260476D01*
X151005238Y-127212857D01*
X151052857Y-127117619D01*
X151100476Y-127070000D01*
X151195714Y-127022380D01*
X151386190Y-127022380D01*
X151481428Y-127070000D01*
X151529047Y-127117619D01*
X151576666Y-127212857D01*
X151576666Y-127260476D01*
X151529047Y-127355714D01*
X151481428Y-127403333D01*
X151386190Y-127450952D01*
X151195714Y-127450952D01*
X151100476Y-127498571D01*
X151052857Y-127546190D01*
X151005238Y-127641428D01*
X151005238Y-127831904D01*
X151052857Y-127927142D01*
X151100476Y-127974761D01*
X151195714Y-128022380D01*
X151386190Y-128022380D01*
X151481428Y-127974761D01*
X151529047Y-127927142D01*
X151576666Y-127831904D01*
X151576666Y-127641428D01*
X151529047Y-127546190D01*
X151481428Y-127498571D01*
X151386190Y-127450952D01*
X152529047Y-128022380D02*
X151957619Y-128022380D01*
X152243333Y-128022380D02*
X152243333Y-127022380D01*
X152148095Y-127165238D01*
X152052857Y-127260476D01*
X151957619Y-127308095D01*
%TO.C,J179*%
X230084285Y-121862380D02*
X230084285Y-122576666D01*
X230036666Y-122719523D01*
X229941428Y-122814761D01*
X229798571Y-122862380D01*
X229703333Y-122862380D01*
X231084285Y-122862380D02*
X230512857Y-122862380D01*
X230798571Y-122862380D02*
X230798571Y-121862380D01*
X230703333Y-122005238D01*
X230608095Y-122100476D01*
X230512857Y-122148095D01*
X231417619Y-121862380D02*
X232084285Y-121862380D01*
X231655714Y-122862380D01*
X232512857Y-122862380D02*
X232703333Y-122862380D01*
X232798571Y-122814761D01*
X232846190Y-122767142D01*
X232941428Y-122624285D01*
X232989047Y-122433809D01*
X232989047Y-122052857D01*
X232941428Y-121957619D01*
X232893809Y-121910000D01*
X232798571Y-121862380D01*
X232608095Y-121862380D01*
X232512857Y-121910000D01*
X232465238Y-121957619D01*
X232417619Y-122052857D01*
X232417619Y-122290952D01*
X232465238Y-122386190D01*
X232512857Y-122433809D01*
X232608095Y-122481428D01*
X232798571Y-122481428D01*
X232893809Y-122433809D01*
X232941428Y-122386190D01*
X232989047Y-122290952D01*
%TO.C,J177*%
X221144285Y-121862380D02*
X221144285Y-122576666D01*
X221096666Y-122719523D01*
X221001428Y-122814761D01*
X220858571Y-122862380D01*
X220763333Y-122862380D01*
X222144285Y-122862380D02*
X221572857Y-122862380D01*
X221858571Y-122862380D02*
X221858571Y-121862380D01*
X221763333Y-122005238D01*
X221668095Y-122100476D01*
X221572857Y-122148095D01*
X222477619Y-121862380D02*
X223144285Y-121862380D01*
X222715714Y-122862380D01*
X223430000Y-121862380D02*
X224096666Y-121862380D01*
X223668095Y-122862380D01*
%TO.C,J175*%
X212204285Y-121862380D02*
X212204285Y-122576666D01*
X212156666Y-122719523D01*
X212061428Y-122814761D01*
X211918571Y-122862380D01*
X211823333Y-122862380D01*
X213204285Y-122862380D02*
X212632857Y-122862380D01*
X212918571Y-122862380D02*
X212918571Y-121862380D01*
X212823333Y-122005238D01*
X212728095Y-122100476D01*
X212632857Y-122148095D01*
X213537619Y-121862380D02*
X214204285Y-121862380D01*
X213775714Y-122862380D01*
X215061428Y-121862380D02*
X214585238Y-121862380D01*
X214537619Y-122338571D01*
X214585238Y-122290952D01*
X214680476Y-122243333D01*
X214918571Y-122243333D01*
X215013809Y-122290952D01*
X215061428Y-122338571D01*
X215109047Y-122433809D01*
X215109047Y-122671904D01*
X215061428Y-122767142D01*
X215013809Y-122814761D01*
X214918571Y-122862380D01*
X214680476Y-122862380D01*
X214585238Y-122814761D01*
X214537619Y-122767142D01*
%TO.C,J173*%
X203264285Y-121862380D02*
X203264285Y-122576666D01*
X203216666Y-122719523D01*
X203121428Y-122814761D01*
X202978571Y-122862380D01*
X202883333Y-122862380D01*
X204264285Y-122862380D02*
X203692857Y-122862380D01*
X203978571Y-122862380D02*
X203978571Y-121862380D01*
X203883333Y-122005238D01*
X203788095Y-122100476D01*
X203692857Y-122148095D01*
X204597619Y-121862380D02*
X205264285Y-121862380D01*
X204835714Y-122862380D01*
X205550000Y-121862380D02*
X206169047Y-121862380D01*
X205835714Y-122243333D01*
X205978571Y-122243333D01*
X206073809Y-122290952D01*
X206121428Y-122338571D01*
X206169047Y-122433809D01*
X206169047Y-122671904D01*
X206121428Y-122767142D01*
X206073809Y-122814761D01*
X205978571Y-122862380D01*
X205692857Y-122862380D01*
X205597619Y-122814761D01*
X205550000Y-122767142D01*
%TO.C,J171*%
X194324285Y-121862380D02*
X194324285Y-122576666D01*
X194276666Y-122719523D01*
X194181428Y-122814761D01*
X194038571Y-122862380D01*
X193943333Y-122862380D01*
X195324285Y-122862380D02*
X194752857Y-122862380D01*
X195038571Y-122862380D02*
X195038571Y-121862380D01*
X194943333Y-122005238D01*
X194848095Y-122100476D01*
X194752857Y-122148095D01*
X195657619Y-121862380D02*
X196324285Y-121862380D01*
X195895714Y-122862380D01*
X197229047Y-122862380D02*
X196657619Y-122862380D01*
X196943333Y-122862380D02*
X196943333Y-121862380D01*
X196848095Y-122005238D01*
X196752857Y-122100476D01*
X196657619Y-122148095D01*
%TO.C,J169*%
X185384285Y-121862380D02*
X185384285Y-122576666D01*
X185336666Y-122719523D01*
X185241428Y-122814761D01*
X185098571Y-122862380D01*
X185003333Y-122862380D01*
X186384285Y-122862380D02*
X185812857Y-122862380D01*
X186098571Y-122862380D02*
X186098571Y-121862380D01*
X186003333Y-122005238D01*
X185908095Y-122100476D01*
X185812857Y-122148095D01*
X187241428Y-121862380D02*
X187050952Y-121862380D01*
X186955714Y-121910000D01*
X186908095Y-121957619D01*
X186812857Y-122100476D01*
X186765238Y-122290952D01*
X186765238Y-122671904D01*
X186812857Y-122767142D01*
X186860476Y-122814761D01*
X186955714Y-122862380D01*
X187146190Y-122862380D01*
X187241428Y-122814761D01*
X187289047Y-122767142D01*
X187336666Y-122671904D01*
X187336666Y-122433809D01*
X187289047Y-122338571D01*
X187241428Y-122290952D01*
X187146190Y-122243333D01*
X186955714Y-122243333D01*
X186860476Y-122290952D01*
X186812857Y-122338571D01*
X186765238Y-122433809D01*
X187812857Y-122862380D02*
X188003333Y-122862380D01*
X188098571Y-122814761D01*
X188146190Y-122767142D01*
X188241428Y-122624285D01*
X188289047Y-122433809D01*
X188289047Y-122052857D01*
X188241428Y-121957619D01*
X188193809Y-121910000D01*
X188098571Y-121862380D01*
X187908095Y-121862380D01*
X187812857Y-121910000D01*
X187765238Y-121957619D01*
X187717619Y-122052857D01*
X187717619Y-122290952D01*
X187765238Y-122386190D01*
X187812857Y-122433809D01*
X187908095Y-122481428D01*
X188098571Y-122481428D01*
X188193809Y-122433809D01*
X188241428Y-122386190D01*
X188289047Y-122290952D01*
%TO.C,J167*%
X176444285Y-121862380D02*
X176444285Y-122576666D01*
X176396666Y-122719523D01*
X176301428Y-122814761D01*
X176158571Y-122862380D01*
X176063333Y-122862380D01*
X177444285Y-122862380D02*
X176872857Y-122862380D01*
X177158571Y-122862380D02*
X177158571Y-121862380D01*
X177063333Y-122005238D01*
X176968095Y-122100476D01*
X176872857Y-122148095D01*
X178301428Y-121862380D02*
X178110952Y-121862380D01*
X178015714Y-121910000D01*
X177968095Y-121957619D01*
X177872857Y-122100476D01*
X177825238Y-122290952D01*
X177825238Y-122671904D01*
X177872857Y-122767142D01*
X177920476Y-122814761D01*
X178015714Y-122862380D01*
X178206190Y-122862380D01*
X178301428Y-122814761D01*
X178349047Y-122767142D01*
X178396666Y-122671904D01*
X178396666Y-122433809D01*
X178349047Y-122338571D01*
X178301428Y-122290952D01*
X178206190Y-122243333D01*
X178015714Y-122243333D01*
X177920476Y-122290952D01*
X177872857Y-122338571D01*
X177825238Y-122433809D01*
X178730000Y-121862380D02*
X179396666Y-121862380D01*
X178968095Y-122862380D01*
%TO.C,J165*%
X167504285Y-121862380D02*
X167504285Y-122576666D01*
X167456666Y-122719523D01*
X167361428Y-122814761D01*
X167218571Y-122862380D01*
X167123333Y-122862380D01*
X168504285Y-122862380D02*
X167932857Y-122862380D01*
X168218571Y-122862380D02*
X168218571Y-121862380D01*
X168123333Y-122005238D01*
X168028095Y-122100476D01*
X167932857Y-122148095D01*
X169361428Y-121862380D02*
X169170952Y-121862380D01*
X169075714Y-121910000D01*
X169028095Y-121957619D01*
X168932857Y-122100476D01*
X168885238Y-122290952D01*
X168885238Y-122671904D01*
X168932857Y-122767142D01*
X168980476Y-122814761D01*
X169075714Y-122862380D01*
X169266190Y-122862380D01*
X169361428Y-122814761D01*
X169409047Y-122767142D01*
X169456666Y-122671904D01*
X169456666Y-122433809D01*
X169409047Y-122338571D01*
X169361428Y-122290952D01*
X169266190Y-122243333D01*
X169075714Y-122243333D01*
X168980476Y-122290952D01*
X168932857Y-122338571D01*
X168885238Y-122433809D01*
X170361428Y-121862380D02*
X169885238Y-121862380D01*
X169837619Y-122338571D01*
X169885238Y-122290952D01*
X169980476Y-122243333D01*
X170218571Y-122243333D01*
X170313809Y-122290952D01*
X170361428Y-122338571D01*
X170409047Y-122433809D01*
X170409047Y-122671904D01*
X170361428Y-122767142D01*
X170313809Y-122814761D01*
X170218571Y-122862380D01*
X169980476Y-122862380D01*
X169885238Y-122814761D01*
X169837619Y-122767142D01*
%TO.C,J163*%
X158564285Y-121862380D02*
X158564285Y-122576666D01*
X158516666Y-122719523D01*
X158421428Y-122814761D01*
X158278571Y-122862380D01*
X158183333Y-122862380D01*
X159564285Y-122862380D02*
X158992857Y-122862380D01*
X159278571Y-122862380D02*
X159278571Y-121862380D01*
X159183333Y-122005238D01*
X159088095Y-122100476D01*
X158992857Y-122148095D01*
X160421428Y-121862380D02*
X160230952Y-121862380D01*
X160135714Y-121910000D01*
X160088095Y-121957619D01*
X159992857Y-122100476D01*
X159945238Y-122290952D01*
X159945238Y-122671904D01*
X159992857Y-122767142D01*
X160040476Y-122814761D01*
X160135714Y-122862380D01*
X160326190Y-122862380D01*
X160421428Y-122814761D01*
X160469047Y-122767142D01*
X160516666Y-122671904D01*
X160516666Y-122433809D01*
X160469047Y-122338571D01*
X160421428Y-122290952D01*
X160326190Y-122243333D01*
X160135714Y-122243333D01*
X160040476Y-122290952D01*
X159992857Y-122338571D01*
X159945238Y-122433809D01*
X160850000Y-121862380D02*
X161469047Y-121862380D01*
X161135714Y-122243333D01*
X161278571Y-122243333D01*
X161373809Y-122290952D01*
X161421428Y-122338571D01*
X161469047Y-122433809D01*
X161469047Y-122671904D01*
X161421428Y-122767142D01*
X161373809Y-122814761D01*
X161278571Y-122862380D01*
X160992857Y-122862380D01*
X160897619Y-122814761D01*
X160850000Y-122767142D01*
%TO.C,J161*%
X149624285Y-121862380D02*
X149624285Y-122576666D01*
X149576666Y-122719523D01*
X149481428Y-122814761D01*
X149338571Y-122862380D01*
X149243333Y-122862380D01*
X150624285Y-122862380D02*
X150052857Y-122862380D01*
X150338571Y-122862380D02*
X150338571Y-121862380D01*
X150243333Y-122005238D01*
X150148095Y-122100476D01*
X150052857Y-122148095D01*
X151481428Y-121862380D02*
X151290952Y-121862380D01*
X151195714Y-121910000D01*
X151148095Y-121957619D01*
X151052857Y-122100476D01*
X151005238Y-122290952D01*
X151005238Y-122671904D01*
X151052857Y-122767142D01*
X151100476Y-122814761D01*
X151195714Y-122862380D01*
X151386190Y-122862380D01*
X151481428Y-122814761D01*
X151529047Y-122767142D01*
X151576666Y-122671904D01*
X151576666Y-122433809D01*
X151529047Y-122338571D01*
X151481428Y-122290952D01*
X151386190Y-122243333D01*
X151195714Y-122243333D01*
X151100476Y-122290952D01*
X151052857Y-122338571D01*
X151005238Y-122433809D01*
X152529047Y-122862380D02*
X151957619Y-122862380D01*
X152243333Y-122862380D02*
X152243333Y-121862380D01*
X152148095Y-122005238D01*
X152052857Y-122100476D01*
X151957619Y-122148095D01*
%TO.C,J159*%
X230084285Y-116702380D02*
X230084285Y-117416666D01*
X230036666Y-117559523D01*
X229941428Y-117654761D01*
X229798571Y-117702380D01*
X229703333Y-117702380D01*
X231084285Y-117702380D02*
X230512857Y-117702380D01*
X230798571Y-117702380D02*
X230798571Y-116702380D01*
X230703333Y-116845238D01*
X230608095Y-116940476D01*
X230512857Y-116988095D01*
X231989047Y-116702380D02*
X231512857Y-116702380D01*
X231465238Y-117178571D01*
X231512857Y-117130952D01*
X231608095Y-117083333D01*
X231846190Y-117083333D01*
X231941428Y-117130952D01*
X231989047Y-117178571D01*
X232036666Y-117273809D01*
X232036666Y-117511904D01*
X231989047Y-117607142D01*
X231941428Y-117654761D01*
X231846190Y-117702380D01*
X231608095Y-117702380D01*
X231512857Y-117654761D01*
X231465238Y-117607142D01*
X232512857Y-117702380D02*
X232703333Y-117702380D01*
X232798571Y-117654761D01*
X232846190Y-117607142D01*
X232941428Y-117464285D01*
X232989047Y-117273809D01*
X232989047Y-116892857D01*
X232941428Y-116797619D01*
X232893809Y-116750000D01*
X232798571Y-116702380D01*
X232608095Y-116702380D01*
X232512857Y-116750000D01*
X232465238Y-116797619D01*
X232417619Y-116892857D01*
X232417619Y-117130952D01*
X232465238Y-117226190D01*
X232512857Y-117273809D01*
X232608095Y-117321428D01*
X232798571Y-117321428D01*
X232893809Y-117273809D01*
X232941428Y-117226190D01*
X232989047Y-117130952D01*
%TO.C,J157*%
X221144285Y-116702380D02*
X221144285Y-117416666D01*
X221096666Y-117559523D01*
X221001428Y-117654761D01*
X220858571Y-117702380D01*
X220763333Y-117702380D01*
X222144285Y-117702380D02*
X221572857Y-117702380D01*
X221858571Y-117702380D02*
X221858571Y-116702380D01*
X221763333Y-116845238D01*
X221668095Y-116940476D01*
X221572857Y-116988095D01*
X223049047Y-116702380D02*
X222572857Y-116702380D01*
X222525238Y-117178571D01*
X222572857Y-117130952D01*
X222668095Y-117083333D01*
X222906190Y-117083333D01*
X223001428Y-117130952D01*
X223049047Y-117178571D01*
X223096666Y-117273809D01*
X223096666Y-117511904D01*
X223049047Y-117607142D01*
X223001428Y-117654761D01*
X222906190Y-117702380D01*
X222668095Y-117702380D01*
X222572857Y-117654761D01*
X222525238Y-117607142D01*
X223430000Y-116702380D02*
X224096666Y-116702380D01*
X223668095Y-117702380D01*
%TO.C,J155*%
X212204285Y-116702380D02*
X212204285Y-117416666D01*
X212156666Y-117559523D01*
X212061428Y-117654761D01*
X211918571Y-117702380D01*
X211823333Y-117702380D01*
X213204285Y-117702380D02*
X212632857Y-117702380D01*
X212918571Y-117702380D02*
X212918571Y-116702380D01*
X212823333Y-116845238D01*
X212728095Y-116940476D01*
X212632857Y-116988095D01*
X214109047Y-116702380D02*
X213632857Y-116702380D01*
X213585238Y-117178571D01*
X213632857Y-117130952D01*
X213728095Y-117083333D01*
X213966190Y-117083333D01*
X214061428Y-117130952D01*
X214109047Y-117178571D01*
X214156666Y-117273809D01*
X214156666Y-117511904D01*
X214109047Y-117607142D01*
X214061428Y-117654761D01*
X213966190Y-117702380D01*
X213728095Y-117702380D01*
X213632857Y-117654761D01*
X213585238Y-117607142D01*
X215061428Y-116702380D02*
X214585238Y-116702380D01*
X214537619Y-117178571D01*
X214585238Y-117130952D01*
X214680476Y-117083333D01*
X214918571Y-117083333D01*
X215013809Y-117130952D01*
X215061428Y-117178571D01*
X215109047Y-117273809D01*
X215109047Y-117511904D01*
X215061428Y-117607142D01*
X215013809Y-117654761D01*
X214918571Y-117702380D01*
X214680476Y-117702380D01*
X214585238Y-117654761D01*
X214537619Y-117607142D01*
%TO.C,J153*%
X203264285Y-116702380D02*
X203264285Y-117416666D01*
X203216666Y-117559523D01*
X203121428Y-117654761D01*
X202978571Y-117702380D01*
X202883333Y-117702380D01*
X204264285Y-117702380D02*
X203692857Y-117702380D01*
X203978571Y-117702380D02*
X203978571Y-116702380D01*
X203883333Y-116845238D01*
X203788095Y-116940476D01*
X203692857Y-116988095D01*
X205169047Y-116702380D02*
X204692857Y-116702380D01*
X204645238Y-117178571D01*
X204692857Y-117130952D01*
X204788095Y-117083333D01*
X205026190Y-117083333D01*
X205121428Y-117130952D01*
X205169047Y-117178571D01*
X205216666Y-117273809D01*
X205216666Y-117511904D01*
X205169047Y-117607142D01*
X205121428Y-117654761D01*
X205026190Y-117702380D01*
X204788095Y-117702380D01*
X204692857Y-117654761D01*
X204645238Y-117607142D01*
X205550000Y-116702380D02*
X206169047Y-116702380D01*
X205835714Y-117083333D01*
X205978571Y-117083333D01*
X206073809Y-117130952D01*
X206121428Y-117178571D01*
X206169047Y-117273809D01*
X206169047Y-117511904D01*
X206121428Y-117607142D01*
X206073809Y-117654761D01*
X205978571Y-117702380D01*
X205692857Y-117702380D01*
X205597619Y-117654761D01*
X205550000Y-117607142D01*
%TO.C,J151*%
X194324285Y-116702380D02*
X194324285Y-117416666D01*
X194276666Y-117559523D01*
X194181428Y-117654761D01*
X194038571Y-117702380D01*
X193943333Y-117702380D01*
X195324285Y-117702380D02*
X194752857Y-117702380D01*
X195038571Y-117702380D02*
X195038571Y-116702380D01*
X194943333Y-116845238D01*
X194848095Y-116940476D01*
X194752857Y-116988095D01*
X196229047Y-116702380D02*
X195752857Y-116702380D01*
X195705238Y-117178571D01*
X195752857Y-117130952D01*
X195848095Y-117083333D01*
X196086190Y-117083333D01*
X196181428Y-117130952D01*
X196229047Y-117178571D01*
X196276666Y-117273809D01*
X196276666Y-117511904D01*
X196229047Y-117607142D01*
X196181428Y-117654761D01*
X196086190Y-117702380D01*
X195848095Y-117702380D01*
X195752857Y-117654761D01*
X195705238Y-117607142D01*
X197229047Y-117702380D02*
X196657619Y-117702380D01*
X196943333Y-117702380D02*
X196943333Y-116702380D01*
X196848095Y-116845238D01*
X196752857Y-116940476D01*
X196657619Y-116988095D01*
%TO.C,J149*%
X185384285Y-116702380D02*
X185384285Y-117416666D01*
X185336666Y-117559523D01*
X185241428Y-117654761D01*
X185098571Y-117702380D01*
X185003333Y-117702380D01*
X186384285Y-117702380D02*
X185812857Y-117702380D01*
X186098571Y-117702380D02*
X186098571Y-116702380D01*
X186003333Y-116845238D01*
X185908095Y-116940476D01*
X185812857Y-116988095D01*
X187241428Y-117035714D02*
X187241428Y-117702380D01*
X187003333Y-116654761D02*
X186765238Y-117369047D01*
X187384285Y-117369047D01*
X187812857Y-117702380D02*
X188003333Y-117702380D01*
X188098571Y-117654761D01*
X188146190Y-117607142D01*
X188241428Y-117464285D01*
X188289047Y-117273809D01*
X188289047Y-116892857D01*
X188241428Y-116797619D01*
X188193809Y-116750000D01*
X188098571Y-116702380D01*
X187908095Y-116702380D01*
X187812857Y-116750000D01*
X187765238Y-116797619D01*
X187717619Y-116892857D01*
X187717619Y-117130952D01*
X187765238Y-117226190D01*
X187812857Y-117273809D01*
X187908095Y-117321428D01*
X188098571Y-117321428D01*
X188193809Y-117273809D01*
X188241428Y-117226190D01*
X188289047Y-117130952D01*
%TO.C,J147*%
X176444285Y-116702380D02*
X176444285Y-117416666D01*
X176396666Y-117559523D01*
X176301428Y-117654761D01*
X176158571Y-117702380D01*
X176063333Y-117702380D01*
X177444285Y-117702380D02*
X176872857Y-117702380D01*
X177158571Y-117702380D02*
X177158571Y-116702380D01*
X177063333Y-116845238D01*
X176968095Y-116940476D01*
X176872857Y-116988095D01*
X178301428Y-117035714D02*
X178301428Y-117702380D01*
X178063333Y-116654761D02*
X177825238Y-117369047D01*
X178444285Y-117369047D01*
X178730000Y-116702380D02*
X179396666Y-116702380D01*
X178968095Y-117702380D01*
%TO.C,J145*%
X167504285Y-116702380D02*
X167504285Y-117416666D01*
X167456666Y-117559523D01*
X167361428Y-117654761D01*
X167218571Y-117702380D01*
X167123333Y-117702380D01*
X168504285Y-117702380D02*
X167932857Y-117702380D01*
X168218571Y-117702380D02*
X168218571Y-116702380D01*
X168123333Y-116845238D01*
X168028095Y-116940476D01*
X167932857Y-116988095D01*
X169361428Y-117035714D02*
X169361428Y-117702380D01*
X169123333Y-116654761D02*
X168885238Y-117369047D01*
X169504285Y-117369047D01*
X170361428Y-116702380D02*
X169885238Y-116702380D01*
X169837619Y-117178571D01*
X169885238Y-117130952D01*
X169980476Y-117083333D01*
X170218571Y-117083333D01*
X170313809Y-117130952D01*
X170361428Y-117178571D01*
X170409047Y-117273809D01*
X170409047Y-117511904D01*
X170361428Y-117607142D01*
X170313809Y-117654761D01*
X170218571Y-117702380D01*
X169980476Y-117702380D01*
X169885238Y-117654761D01*
X169837619Y-117607142D01*
%TO.C,J143*%
X158564285Y-116702380D02*
X158564285Y-117416666D01*
X158516666Y-117559523D01*
X158421428Y-117654761D01*
X158278571Y-117702380D01*
X158183333Y-117702380D01*
X159564285Y-117702380D02*
X158992857Y-117702380D01*
X159278571Y-117702380D02*
X159278571Y-116702380D01*
X159183333Y-116845238D01*
X159088095Y-116940476D01*
X158992857Y-116988095D01*
X160421428Y-117035714D02*
X160421428Y-117702380D01*
X160183333Y-116654761D02*
X159945238Y-117369047D01*
X160564285Y-117369047D01*
X160850000Y-116702380D02*
X161469047Y-116702380D01*
X161135714Y-117083333D01*
X161278571Y-117083333D01*
X161373809Y-117130952D01*
X161421428Y-117178571D01*
X161469047Y-117273809D01*
X161469047Y-117511904D01*
X161421428Y-117607142D01*
X161373809Y-117654761D01*
X161278571Y-117702380D01*
X160992857Y-117702380D01*
X160897619Y-117654761D01*
X160850000Y-117607142D01*
%TO.C,J141*%
X149624285Y-116702380D02*
X149624285Y-117416666D01*
X149576666Y-117559523D01*
X149481428Y-117654761D01*
X149338571Y-117702380D01*
X149243333Y-117702380D01*
X150624285Y-117702380D02*
X150052857Y-117702380D01*
X150338571Y-117702380D02*
X150338571Y-116702380D01*
X150243333Y-116845238D01*
X150148095Y-116940476D01*
X150052857Y-116988095D01*
X151481428Y-117035714D02*
X151481428Y-117702380D01*
X151243333Y-116654761D02*
X151005238Y-117369047D01*
X151624285Y-117369047D01*
X152529047Y-117702380D02*
X151957619Y-117702380D01*
X152243333Y-117702380D02*
X152243333Y-116702380D01*
X152148095Y-116845238D01*
X152052857Y-116940476D01*
X151957619Y-116988095D01*
%TO.C,J139*%
X230084285Y-111542380D02*
X230084285Y-112256666D01*
X230036666Y-112399523D01*
X229941428Y-112494761D01*
X229798571Y-112542380D01*
X229703333Y-112542380D01*
X231084285Y-112542380D02*
X230512857Y-112542380D01*
X230798571Y-112542380D02*
X230798571Y-111542380D01*
X230703333Y-111685238D01*
X230608095Y-111780476D01*
X230512857Y-111828095D01*
X231417619Y-111542380D02*
X232036666Y-111542380D01*
X231703333Y-111923333D01*
X231846190Y-111923333D01*
X231941428Y-111970952D01*
X231989047Y-112018571D01*
X232036666Y-112113809D01*
X232036666Y-112351904D01*
X231989047Y-112447142D01*
X231941428Y-112494761D01*
X231846190Y-112542380D01*
X231560476Y-112542380D01*
X231465238Y-112494761D01*
X231417619Y-112447142D01*
X232512857Y-112542380D02*
X232703333Y-112542380D01*
X232798571Y-112494761D01*
X232846190Y-112447142D01*
X232941428Y-112304285D01*
X232989047Y-112113809D01*
X232989047Y-111732857D01*
X232941428Y-111637619D01*
X232893809Y-111590000D01*
X232798571Y-111542380D01*
X232608095Y-111542380D01*
X232512857Y-111590000D01*
X232465238Y-111637619D01*
X232417619Y-111732857D01*
X232417619Y-111970952D01*
X232465238Y-112066190D01*
X232512857Y-112113809D01*
X232608095Y-112161428D01*
X232798571Y-112161428D01*
X232893809Y-112113809D01*
X232941428Y-112066190D01*
X232989047Y-111970952D01*
%TO.C,J137*%
X221144285Y-111542380D02*
X221144285Y-112256666D01*
X221096666Y-112399523D01*
X221001428Y-112494761D01*
X220858571Y-112542380D01*
X220763333Y-112542380D01*
X222144285Y-112542380D02*
X221572857Y-112542380D01*
X221858571Y-112542380D02*
X221858571Y-111542380D01*
X221763333Y-111685238D01*
X221668095Y-111780476D01*
X221572857Y-111828095D01*
X222477619Y-111542380D02*
X223096666Y-111542380D01*
X222763333Y-111923333D01*
X222906190Y-111923333D01*
X223001428Y-111970952D01*
X223049047Y-112018571D01*
X223096666Y-112113809D01*
X223096666Y-112351904D01*
X223049047Y-112447142D01*
X223001428Y-112494761D01*
X222906190Y-112542380D01*
X222620476Y-112542380D01*
X222525238Y-112494761D01*
X222477619Y-112447142D01*
X223430000Y-111542380D02*
X224096666Y-111542380D01*
X223668095Y-112542380D01*
%TO.C,J135*%
X212204285Y-111542380D02*
X212204285Y-112256666D01*
X212156666Y-112399523D01*
X212061428Y-112494761D01*
X211918571Y-112542380D01*
X211823333Y-112542380D01*
X213204285Y-112542380D02*
X212632857Y-112542380D01*
X212918571Y-112542380D02*
X212918571Y-111542380D01*
X212823333Y-111685238D01*
X212728095Y-111780476D01*
X212632857Y-111828095D01*
X213537619Y-111542380D02*
X214156666Y-111542380D01*
X213823333Y-111923333D01*
X213966190Y-111923333D01*
X214061428Y-111970952D01*
X214109047Y-112018571D01*
X214156666Y-112113809D01*
X214156666Y-112351904D01*
X214109047Y-112447142D01*
X214061428Y-112494761D01*
X213966190Y-112542380D01*
X213680476Y-112542380D01*
X213585238Y-112494761D01*
X213537619Y-112447142D01*
X215061428Y-111542380D02*
X214585238Y-111542380D01*
X214537619Y-112018571D01*
X214585238Y-111970952D01*
X214680476Y-111923333D01*
X214918571Y-111923333D01*
X215013809Y-111970952D01*
X215061428Y-112018571D01*
X215109047Y-112113809D01*
X215109047Y-112351904D01*
X215061428Y-112447142D01*
X215013809Y-112494761D01*
X214918571Y-112542380D01*
X214680476Y-112542380D01*
X214585238Y-112494761D01*
X214537619Y-112447142D01*
%TO.C,J133*%
X203264285Y-111542380D02*
X203264285Y-112256666D01*
X203216666Y-112399523D01*
X203121428Y-112494761D01*
X202978571Y-112542380D01*
X202883333Y-112542380D01*
X204264285Y-112542380D02*
X203692857Y-112542380D01*
X203978571Y-112542380D02*
X203978571Y-111542380D01*
X203883333Y-111685238D01*
X203788095Y-111780476D01*
X203692857Y-111828095D01*
X204597619Y-111542380D02*
X205216666Y-111542380D01*
X204883333Y-111923333D01*
X205026190Y-111923333D01*
X205121428Y-111970952D01*
X205169047Y-112018571D01*
X205216666Y-112113809D01*
X205216666Y-112351904D01*
X205169047Y-112447142D01*
X205121428Y-112494761D01*
X205026190Y-112542380D01*
X204740476Y-112542380D01*
X204645238Y-112494761D01*
X204597619Y-112447142D01*
X205550000Y-111542380D02*
X206169047Y-111542380D01*
X205835714Y-111923333D01*
X205978571Y-111923333D01*
X206073809Y-111970952D01*
X206121428Y-112018571D01*
X206169047Y-112113809D01*
X206169047Y-112351904D01*
X206121428Y-112447142D01*
X206073809Y-112494761D01*
X205978571Y-112542380D01*
X205692857Y-112542380D01*
X205597619Y-112494761D01*
X205550000Y-112447142D01*
%TO.C,J131*%
X194324285Y-111542380D02*
X194324285Y-112256666D01*
X194276666Y-112399523D01*
X194181428Y-112494761D01*
X194038571Y-112542380D01*
X193943333Y-112542380D01*
X195324285Y-112542380D02*
X194752857Y-112542380D01*
X195038571Y-112542380D02*
X195038571Y-111542380D01*
X194943333Y-111685238D01*
X194848095Y-111780476D01*
X194752857Y-111828095D01*
X195657619Y-111542380D02*
X196276666Y-111542380D01*
X195943333Y-111923333D01*
X196086190Y-111923333D01*
X196181428Y-111970952D01*
X196229047Y-112018571D01*
X196276666Y-112113809D01*
X196276666Y-112351904D01*
X196229047Y-112447142D01*
X196181428Y-112494761D01*
X196086190Y-112542380D01*
X195800476Y-112542380D01*
X195705238Y-112494761D01*
X195657619Y-112447142D01*
X197229047Y-112542380D02*
X196657619Y-112542380D01*
X196943333Y-112542380D02*
X196943333Y-111542380D01*
X196848095Y-111685238D01*
X196752857Y-111780476D01*
X196657619Y-111828095D01*
%TO.C,J129*%
X185384285Y-111542380D02*
X185384285Y-112256666D01*
X185336666Y-112399523D01*
X185241428Y-112494761D01*
X185098571Y-112542380D01*
X185003333Y-112542380D01*
X186384285Y-112542380D02*
X185812857Y-112542380D01*
X186098571Y-112542380D02*
X186098571Y-111542380D01*
X186003333Y-111685238D01*
X185908095Y-111780476D01*
X185812857Y-111828095D01*
X186765238Y-111637619D02*
X186812857Y-111590000D01*
X186908095Y-111542380D01*
X187146190Y-111542380D01*
X187241428Y-111590000D01*
X187289047Y-111637619D01*
X187336666Y-111732857D01*
X187336666Y-111828095D01*
X187289047Y-111970952D01*
X186717619Y-112542380D01*
X187336666Y-112542380D01*
X187812857Y-112542380D02*
X188003333Y-112542380D01*
X188098571Y-112494761D01*
X188146190Y-112447142D01*
X188241428Y-112304285D01*
X188289047Y-112113809D01*
X188289047Y-111732857D01*
X188241428Y-111637619D01*
X188193809Y-111590000D01*
X188098571Y-111542380D01*
X187908095Y-111542380D01*
X187812857Y-111590000D01*
X187765238Y-111637619D01*
X187717619Y-111732857D01*
X187717619Y-111970952D01*
X187765238Y-112066190D01*
X187812857Y-112113809D01*
X187908095Y-112161428D01*
X188098571Y-112161428D01*
X188193809Y-112113809D01*
X188241428Y-112066190D01*
X188289047Y-111970952D01*
%TO.C,J127*%
X176444285Y-111542380D02*
X176444285Y-112256666D01*
X176396666Y-112399523D01*
X176301428Y-112494761D01*
X176158571Y-112542380D01*
X176063333Y-112542380D01*
X177444285Y-112542380D02*
X176872857Y-112542380D01*
X177158571Y-112542380D02*
X177158571Y-111542380D01*
X177063333Y-111685238D01*
X176968095Y-111780476D01*
X176872857Y-111828095D01*
X177825238Y-111637619D02*
X177872857Y-111590000D01*
X177968095Y-111542380D01*
X178206190Y-111542380D01*
X178301428Y-111590000D01*
X178349047Y-111637619D01*
X178396666Y-111732857D01*
X178396666Y-111828095D01*
X178349047Y-111970952D01*
X177777619Y-112542380D01*
X178396666Y-112542380D01*
X178730000Y-111542380D02*
X179396666Y-111542380D01*
X178968095Y-112542380D01*
%TO.C,J125*%
X167504285Y-111542380D02*
X167504285Y-112256666D01*
X167456666Y-112399523D01*
X167361428Y-112494761D01*
X167218571Y-112542380D01*
X167123333Y-112542380D01*
X168504285Y-112542380D02*
X167932857Y-112542380D01*
X168218571Y-112542380D02*
X168218571Y-111542380D01*
X168123333Y-111685238D01*
X168028095Y-111780476D01*
X167932857Y-111828095D01*
X168885238Y-111637619D02*
X168932857Y-111590000D01*
X169028095Y-111542380D01*
X169266190Y-111542380D01*
X169361428Y-111590000D01*
X169409047Y-111637619D01*
X169456666Y-111732857D01*
X169456666Y-111828095D01*
X169409047Y-111970952D01*
X168837619Y-112542380D01*
X169456666Y-112542380D01*
X170361428Y-111542380D02*
X169885238Y-111542380D01*
X169837619Y-112018571D01*
X169885238Y-111970952D01*
X169980476Y-111923333D01*
X170218571Y-111923333D01*
X170313809Y-111970952D01*
X170361428Y-112018571D01*
X170409047Y-112113809D01*
X170409047Y-112351904D01*
X170361428Y-112447142D01*
X170313809Y-112494761D01*
X170218571Y-112542380D01*
X169980476Y-112542380D01*
X169885238Y-112494761D01*
X169837619Y-112447142D01*
%TO.C,J123*%
X158564285Y-111542380D02*
X158564285Y-112256666D01*
X158516666Y-112399523D01*
X158421428Y-112494761D01*
X158278571Y-112542380D01*
X158183333Y-112542380D01*
X159564285Y-112542380D02*
X158992857Y-112542380D01*
X159278571Y-112542380D02*
X159278571Y-111542380D01*
X159183333Y-111685238D01*
X159088095Y-111780476D01*
X158992857Y-111828095D01*
X159945238Y-111637619D02*
X159992857Y-111590000D01*
X160088095Y-111542380D01*
X160326190Y-111542380D01*
X160421428Y-111590000D01*
X160469047Y-111637619D01*
X160516666Y-111732857D01*
X160516666Y-111828095D01*
X160469047Y-111970952D01*
X159897619Y-112542380D01*
X160516666Y-112542380D01*
X160850000Y-111542380D02*
X161469047Y-111542380D01*
X161135714Y-111923333D01*
X161278571Y-111923333D01*
X161373809Y-111970952D01*
X161421428Y-112018571D01*
X161469047Y-112113809D01*
X161469047Y-112351904D01*
X161421428Y-112447142D01*
X161373809Y-112494761D01*
X161278571Y-112542380D01*
X160992857Y-112542380D01*
X160897619Y-112494761D01*
X160850000Y-112447142D01*
%TO.C,J121*%
X149624285Y-111542380D02*
X149624285Y-112256666D01*
X149576666Y-112399523D01*
X149481428Y-112494761D01*
X149338571Y-112542380D01*
X149243333Y-112542380D01*
X150624285Y-112542380D02*
X150052857Y-112542380D01*
X150338571Y-112542380D02*
X150338571Y-111542380D01*
X150243333Y-111685238D01*
X150148095Y-111780476D01*
X150052857Y-111828095D01*
X151005238Y-111637619D02*
X151052857Y-111590000D01*
X151148095Y-111542380D01*
X151386190Y-111542380D01*
X151481428Y-111590000D01*
X151529047Y-111637619D01*
X151576666Y-111732857D01*
X151576666Y-111828095D01*
X151529047Y-111970952D01*
X150957619Y-112542380D01*
X151576666Y-112542380D01*
X152529047Y-112542380D02*
X151957619Y-112542380D01*
X152243333Y-112542380D02*
X152243333Y-111542380D01*
X152148095Y-111685238D01*
X152052857Y-111780476D01*
X151957619Y-111828095D01*
%TO.C,J119*%
X230084285Y-106382380D02*
X230084285Y-107096666D01*
X230036666Y-107239523D01*
X229941428Y-107334761D01*
X229798571Y-107382380D01*
X229703333Y-107382380D01*
X231084285Y-107382380D02*
X230512857Y-107382380D01*
X230798571Y-107382380D02*
X230798571Y-106382380D01*
X230703333Y-106525238D01*
X230608095Y-106620476D01*
X230512857Y-106668095D01*
X232036666Y-107382380D02*
X231465238Y-107382380D01*
X231750952Y-107382380D02*
X231750952Y-106382380D01*
X231655714Y-106525238D01*
X231560476Y-106620476D01*
X231465238Y-106668095D01*
X232512857Y-107382380D02*
X232703333Y-107382380D01*
X232798571Y-107334761D01*
X232846190Y-107287142D01*
X232941428Y-107144285D01*
X232989047Y-106953809D01*
X232989047Y-106572857D01*
X232941428Y-106477619D01*
X232893809Y-106430000D01*
X232798571Y-106382380D01*
X232608095Y-106382380D01*
X232512857Y-106430000D01*
X232465238Y-106477619D01*
X232417619Y-106572857D01*
X232417619Y-106810952D01*
X232465238Y-106906190D01*
X232512857Y-106953809D01*
X232608095Y-107001428D01*
X232798571Y-107001428D01*
X232893809Y-106953809D01*
X232941428Y-106906190D01*
X232989047Y-106810952D01*
%TO.C,J117*%
X221144285Y-106382380D02*
X221144285Y-107096666D01*
X221096666Y-107239523D01*
X221001428Y-107334761D01*
X220858571Y-107382380D01*
X220763333Y-107382380D01*
X222144285Y-107382380D02*
X221572857Y-107382380D01*
X221858571Y-107382380D02*
X221858571Y-106382380D01*
X221763333Y-106525238D01*
X221668095Y-106620476D01*
X221572857Y-106668095D01*
X223096666Y-107382380D02*
X222525238Y-107382380D01*
X222810952Y-107382380D02*
X222810952Y-106382380D01*
X222715714Y-106525238D01*
X222620476Y-106620476D01*
X222525238Y-106668095D01*
X223430000Y-106382380D02*
X224096666Y-106382380D01*
X223668095Y-107382380D01*
%TO.C,J115*%
X212204285Y-106382380D02*
X212204285Y-107096666D01*
X212156666Y-107239523D01*
X212061428Y-107334761D01*
X211918571Y-107382380D01*
X211823333Y-107382380D01*
X213204285Y-107382380D02*
X212632857Y-107382380D01*
X212918571Y-107382380D02*
X212918571Y-106382380D01*
X212823333Y-106525238D01*
X212728095Y-106620476D01*
X212632857Y-106668095D01*
X214156666Y-107382380D02*
X213585238Y-107382380D01*
X213870952Y-107382380D02*
X213870952Y-106382380D01*
X213775714Y-106525238D01*
X213680476Y-106620476D01*
X213585238Y-106668095D01*
X215061428Y-106382380D02*
X214585238Y-106382380D01*
X214537619Y-106858571D01*
X214585238Y-106810952D01*
X214680476Y-106763333D01*
X214918571Y-106763333D01*
X215013809Y-106810952D01*
X215061428Y-106858571D01*
X215109047Y-106953809D01*
X215109047Y-107191904D01*
X215061428Y-107287142D01*
X215013809Y-107334761D01*
X214918571Y-107382380D01*
X214680476Y-107382380D01*
X214585238Y-107334761D01*
X214537619Y-107287142D01*
%TO.C,J113*%
X203264285Y-106382380D02*
X203264285Y-107096666D01*
X203216666Y-107239523D01*
X203121428Y-107334761D01*
X202978571Y-107382380D01*
X202883333Y-107382380D01*
X204264285Y-107382380D02*
X203692857Y-107382380D01*
X203978571Y-107382380D02*
X203978571Y-106382380D01*
X203883333Y-106525238D01*
X203788095Y-106620476D01*
X203692857Y-106668095D01*
X205216666Y-107382380D02*
X204645238Y-107382380D01*
X204930952Y-107382380D02*
X204930952Y-106382380D01*
X204835714Y-106525238D01*
X204740476Y-106620476D01*
X204645238Y-106668095D01*
X205550000Y-106382380D02*
X206169047Y-106382380D01*
X205835714Y-106763333D01*
X205978571Y-106763333D01*
X206073809Y-106810952D01*
X206121428Y-106858571D01*
X206169047Y-106953809D01*
X206169047Y-107191904D01*
X206121428Y-107287142D01*
X206073809Y-107334761D01*
X205978571Y-107382380D01*
X205692857Y-107382380D01*
X205597619Y-107334761D01*
X205550000Y-107287142D01*
%TO.C,J111*%
X194324285Y-106382380D02*
X194324285Y-107096666D01*
X194276666Y-107239523D01*
X194181428Y-107334761D01*
X194038571Y-107382380D01*
X193943333Y-107382380D01*
X195324285Y-107382380D02*
X194752857Y-107382380D01*
X195038571Y-107382380D02*
X195038571Y-106382380D01*
X194943333Y-106525238D01*
X194848095Y-106620476D01*
X194752857Y-106668095D01*
X196276666Y-107382380D02*
X195705238Y-107382380D01*
X195990952Y-107382380D02*
X195990952Y-106382380D01*
X195895714Y-106525238D01*
X195800476Y-106620476D01*
X195705238Y-106668095D01*
X197229047Y-107382380D02*
X196657619Y-107382380D01*
X196943333Y-107382380D02*
X196943333Y-106382380D01*
X196848095Y-106525238D01*
X196752857Y-106620476D01*
X196657619Y-106668095D01*
%TO.C,J109*%
X185384285Y-106382380D02*
X185384285Y-107096666D01*
X185336666Y-107239523D01*
X185241428Y-107334761D01*
X185098571Y-107382380D01*
X185003333Y-107382380D01*
X186384285Y-107382380D02*
X185812857Y-107382380D01*
X186098571Y-107382380D02*
X186098571Y-106382380D01*
X186003333Y-106525238D01*
X185908095Y-106620476D01*
X185812857Y-106668095D01*
X187003333Y-106382380D02*
X187098571Y-106382380D01*
X187193809Y-106430000D01*
X187241428Y-106477619D01*
X187289047Y-106572857D01*
X187336666Y-106763333D01*
X187336666Y-107001428D01*
X187289047Y-107191904D01*
X187241428Y-107287142D01*
X187193809Y-107334761D01*
X187098571Y-107382380D01*
X187003333Y-107382380D01*
X186908095Y-107334761D01*
X186860476Y-107287142D01*
X186812857Y-107191904D01*
X186765238Y-107001428D01*
X186765238Y-106763333D01*
X186812857Y-106572857D01*
X186860476Y-106477619D01*
X186908095Y-106430000D01*
X187003333Y-106382380D01*
X187812857Y-107382380D02*
X188003333Y-107382380D01*
X188098571Y-107334761D01*
X188146190Y-107287142D01*
X188241428Y-107144285D01*
X188289047Y-106953809D01*
X188289047Y-106572857D01*
X188241428Y-106477619D01*
X188193809Y-106430000D01*
X188098571Y-106382380D01*
X187908095Y-106382380D01*
X187812857Y-106430000D01*
X187765238Y-106477619D01*
X187717619Y-106572857D01*
X187717619Y-106810952D01*
X187765238Y-106906190D01*
X187812857Y-106953809D01*
X187908095Y-107001428D01*
X188098571Y-107001428D01*
X188193809Y-106953809D01*
X188241428Y-106906190D01*
X188289047Y-106810952D01*
%TO.C,J107*%
X176444285Y-106382380D02*
X176444285Y-107096666D01*
X176396666Y-107239523D01*
X176301428Y-107334761D01*
X176158571Y-107382380D01*
X176063333Y-107382380D01*
X177444285Y-107382380D02*
X176872857Y-107382380D01*
X177158571Y-107382380D02*
X177158571Y-106382380D01*
X177063333Y-106525238D01*
X176968095Y-106620476D01*
X176872857Y-106668095D01*
X178063333Y-106382380D02*
X178158571Y-106382380D01*
X178253809Y-106430000D01*
X178301428Y-106477619D01*
X178349047Y-106572857D01*
X178396666Y-106763333D01*
X178396666Y-107001428D01*
X178349047Y-107191904D01*
X178301428Y-107287142D01*
X178253809Y-107334761D01*
X178158571Y-107382380D01*
X178063333Y-107382380D01*
X177968095Y-107334761D01*
X177920476Y-107287142D01*
X177872857Y-107191904D01*
X177825238Y-107001428D01*
X177825238Y-106763333D01*
X177872857Y-106572857D01*
X177920476Y-106477619D01*
X177968095Y-106430000D01*
X178063333Y-106382380D01*
X178730000Y-106382380D02*
X179396666Y-106382380D01*
X178968095Y-107382380D01*
%TO.C,J105*%
X167504285Y-106382380D02*
X167504285Y-107096666D01*
X167456666Y-107239523D01*
X167361428Y-107334761D01*
X167218571Y-107382380D01*
X167123333Y-107382380D01*
X168504285Y-107382380D02*
X167932857Y-107382380D01*
X168218571Y-107382380D02*
X168218571Y-106382380D01*
X168123333Y-106525238D01*
X168028095Y-106620476D01*
X167932857Y-106668095D01*
X169123333Y-106382380D02*
X169218571Y-106382380D01*
X169313809Y-106430000D01*
X169361428Y-106477619D01*
X169409047Y-106572857D01*
X169456666Y-106763333D01*
X169456666Y-107001428D01*
X169409047Y-107191904D01*
X169361428Y-107287142D01*
X169313809Y-107334761D01*
X169218571Y-107382380D01*
X169123333Y-107382380D01*
X169028095Y-107334761D01*
X168980476Y-107287142D01*
X168932857Y-107191904D01*
X168885238Y-107001428D01*
X168885238Y-106763333D01*
X168932857Y-106572857D01*
X168980476Y-106477619D01*
X169028095Y-106430000D01*
X169123333Y-106382380D01*
X170361428Y-106382380D02*
X169885238Y-106382380D01*
X169837619Y-106858571D01*
X169885238Y-106810952D01*
X169980476Y-106763333D01*
X170218571Y-106763333D01*
X170313809Y-106810952D01*
X170361428Y-106858571D01*
X170409047Y-106953809D01*
X170409047Y-107191904D01*
X170361428Y-107287142D01*
X170313809Y-107334761D01*
X170218571Y-107382380D01*
X169980476Y-107382380D01*
X169885238Y-107334761D01*
X169837619Y-107287142D01*
%TO.C,J103*%
X158564285Y-106382380D02*
X158564285Y-107096666D01*
X158516666Y-107239523D01*
X158421428Y-107334761D01*
X158278571Y-107382380D01*
X158183333Y-107382380D01*
X159564285Y-107382380D02*
X158992857Y-107382380D01*
X159278571Y-107382380D02*
X159278571Y-106382380D01*
X159183333Y-106525238D01*
X159088095Y-106620476D01*
X158992857Y-106668095D01*
X160183333Y-106382380D02*
X160278571Y-106382380D01*
X160373809Y-106430000D01*
X160421428Y-106477619D01*
X160469047Y-106572857D01*
X160516666Y-106763333D01*
X160516666Y-107001428D01*
X160469047Y-107191904D01*
X160421428Y-107287142D01*
X160373809Y-107334761D01*
X160278571Y-107382380D01*
X160183333Y-107382380D01*
X160088095Y-107334761D01*
X160040476Y-107287142D01*
X159992857Y-107191904D01*
X159945238Y-107001428D01*
X159945238Y-106763333D01*
X159992857Y-106572857D01*
X160040476Y-106477619D01*
X160088095Y-106430000D01*
X160183333Y-106382380D01*
X160850000Y-106382380D02*
X161469047Y-106382380D01*
X161135714Y-106763333D01*
X161278571Y-106763333D01*
X161373809Y-106810952D01*
X161421428Y-106858571D01*
X161469047Y-106953809D01*
X161469047Y-107191904D01*
X161421428Y-107287142D01*
X161373809Y-107334761D01*
X161278571Y-107382380D01*
X160992857Y-107382380D01*
X160897619Y-107334761D01*
X160850000Y-107287142D01*
%TO.C,J101*%
X149624285Y-106382380D02*
X149624285Y-107096666D01*
X149576666Y-107239523D01*
X149481428Y-107334761D01*
X149338571Y-107382380D01*
X149243333Y-107382380D01*
X150624285Y-107382380D02*
X150052857Y-107382380D01*
X150338571Y-107382380D02*
X150338571Y-106382380D01*
X150243333Y-106525238D01*
X150148095Y-106620476D01*
X150052857Y-106668095D01*
X151243333Y-106382380D02*
X151338571Y-106382380D01*
X151433809Y-106430000D01*
X151481428Y-106477619D01*
X151529047Y-106572857D01*
X151576666Y-106763333D01*
X151576666Y-107001428D01*
X151529047Y-107191904D01*
X151481428Y-107287142D01*
X151433809Y-107334761D01*
X151338571Y-107382380D01*
X151243333Y-107382380D01*
X151148095Y-107334761D01*
X151100476Y-107287142D01*
X151052857Y-107191904D01*
X151005238Y-107001428D01*
X151005238Y-106763333D01*
X151052857Y-106572857D01*
X151100476Y-106477619D01*
X151148095Y-106430000D01*
X151243333Y-106382380D01*
X152529047Y-107382380D02*
X151957619Y-107382380D01*
X152243333Y-107382380D02*
X152243333Y-106382380D01*
X152148095Y-106525238D01*
X152052857Y-106620476D01*
X151957619Y-106668095D01*
%TO.C,J99*%
X230560476Y-101222380D02*
X230560476Y-101936666D01*
X230512857Y-102079523D01*
X230417619Y-102174761D01*
X230274761Y-102222380D01*
X230179523Y-102222380D01*
X231084285Y-102222380D02*
X231274761Y-102222380D01*
X231370000Y-102174761D01*
X231417619Y-102127142D01*
X231512857Y-101984285D01*
X231560476Y-101793809D01*
X231560476Y-101412857D01*
X231512857Y-101317619D01*
X231465238Y-101270000D01*
X231370000Y-101222380D01*
X231179523Y-101222380D01*
X231084285Y-101270000D01*
X231036666Y-101317619D01*
X230989047Y-101412857D01*
X230989047Y-101650952D01*
X231036666Y-101746190D01*
X231084285Y-101793809D01*
X231179523Y-101841428D01*
X231370000Y-101841428D01*
X231465238Y-101793809D01*
X231512857Y-101746190D01*
X231560476Y-101650952D01*
X232036666Y-102222380D02*
X232227142Y-102222380D01*
X232322380Y-102174761D01*
X232370000Y-102127142D01*
X232465238Y-101984285D01*
X232512857Y-101793809D01*
X232512857Y-101412857D01*
X232465238Y-101317619D01*
X232417619Y-101270000D01*
X232322380Y-101222380D01*
X232131904Y-101222380D01*
X232036666Y-101270000D01*
X231989047Y-101317619D01*
X231941428Y-101412857D01*
X231941428Y-101650952D01*
X231989047Y-101746190D01*
X232036666Y-101793809D01*
X232131904Y-101841428D01*
X232322380Y-101841428D01*
X232417619Y-101793809D01*
X232465238Y-101746190D01*
X232512857Y-101650952D01*
%TO.C,J97*%
X221620476Y-101222380D02*
X221620476Y-101936666D01*
X221572857Y-102079523D01*
X221477619Y-102174761D01*
X221334761Y-102222380D01*
X221239523Y-102222380D01*
X222144285Y-102222380D02*
X222334761Y-102222380D01*
X222430000Y-102174761D01*
X222477619Y-102127142D01*
X222572857Y-101984285D01*
X222620476Y-101793809D01*
X222620476Y-101412857D01*
X222572857Y-101317619D01*
X222525238Y-101270000D01*
X222430000Y-101222380D01*
X222239523Y-101222380D01*
X222144285Y-101270000D01*
X222096666Y-101317619D01*
X222049047Y-101412857D01*
X222049047Y-101650952D01*
X222096666Y-101746190D01*
X222144285Y-101793809D01*
X222239523Y-101841428D01*
X222430000Y-101841428D01*
X222525238Y-101793809D01*
X222572857Y-101746190D01*
X222620476Y-101650952D01*
X222953809Y-101222380D02*
X223620476Y-101222380D01*
X223191904Y-102222380D01*
%TO.C,J95*%
X212680476Y-101222380D02*
X212680476Y-101936666D01*
X212632857Y-102079523D01*
X212537619Y-102174761D01*
X212394761Y-102222380D01*
X212299523Y-102222380D01*
X213204285Y-102222380D02*
X213394761Y-102222380D01*
X213490000Y-102174761D01*
X213537619Y-102127142D01*
X213632857Y-101984285D01*
X213680476Y-101793809D01*
X213680476Y-101412857D01*
X213632857Y-101317619D01*
X213585238Y-101270000D01*
X213490000Y-101222380D01*
X213299523Y-101222380D01*
X213204285Y-101270000D01*
X213156666Y-101317619D01*
X213109047Y-101412857D01*
X213109047Y-101650952D01*
X213156666Y-101746190D01*
X213204285Y-101793809D01*
X213299523Y-101841428D01*
X213490000Y-101841428D01*
X213585238Y-101793809D01*
X213632857Y-101746190D01*
X213680476Y-101650952D01*
X214585238Y-101222380D02*
X214109047Y-101222380D01*
X214061428Y-101698571D01*
X214109047Y-101650952D01*
X214204285Y-101603333D01*
X214442380Y-101603333D01*
X214537619Y-101650952D01*
X214585238Y-101698571D01*
X214632857Y-101793809D01*
X214632857Y-102031904D01*
X214585238Y-102127142D01*
X214537619Y-102174761D01*
X214442380Y-102222380D01*
X214204285Y-102222380D01*
X214109047Y-102174761D01*
X214061428Y-102127142D01*
%TO.C,J93*%
X203740476Y-101222380D02*
X203740476Y-101936666D01*
X203692857Y-102079523D01*
X203597619Y-102174761D01*
X203454761Y-102222380D01*
X203359523Y-102222380D01*
X204264285Y-102222380D02*
X204454761Y-102222380D01*
X204550000Y-102174761D01*
X204597619Y-102127142D01*
X204692857Y-101984285D01*
X204740476Y-101793809D01*
X204740476Y-101412857D01*
X204692857Y-101317619D01*
X204645238Y-101270000D01*
X204550000Y-101222380D01*
X204359523Y-101222380D01*
X204264285Y-101270000D01*
X204216666Y-101317619D01*
X204169047Y-101412857D01*
X204169047Y-101650952D01*
X204216666Y-101746190D01*
X204264285Y-101793809D01*
X204359523Y-101841428D01*
X204550000Y-101841428D01*
X204645238Y-101793809D01*
X204692857Y-101746190D01*
X204740476Y-101650952D01*
X205073809Y-101222380D02*
X205692857Y-101222380D01*
X205359523Y-101603333D01*
X205502380Y-101603333D01*
X205597619Y-101650952D01*
X205645238Y-101698571D01*
X205692857Y-101793809D01*
X205692857Y-102031904D01*
X205645238Y-102127142D01*
X205597619Y-102174761D01*
X205502380Y-102222380D01*
X205216666Y-102222380D01*
X205121428Y-102174761D01*
X205073809Y-102127142D01*
%TO.C,J91*%
X194800476Y-101222380D02*
X194800476Y-101936666D01*
X194752857Y-102079523D01*
X194657619Y-102174761D01*
X194514761Y-102222380D01*
X194419523Y-102222380D01*
X195324285Y-102222380D02*
X195514761Y-102222380D01*
X195610000Y-102174761D01*
X195657619Y-102127142D01*
X195752857Y-101984285D01*
X195800476Y-101793809D01*
X195800476Y-101412857D01*
X195752857Y-101317619D01*
X195705238Y-101270000D01*
X195610000Y-101222380D01*
X195419523Y-101222380D01*
X195324285Y-101270000D01*
X195276666Y-101317619D01*
X195229047Y-101412857D01*
X195229047Y-101650952D01*
X195276666Y-101746190D01*
X195324285Y-101793809D01*
X195419523Y-101841428D01*
X195610000Y-101841428D01*
X195705238Y-101793809D01*
X195752857Y-101746190D01*
X195800476Y-101650952D01*
X196752857Y-102222380D02*
X196181428Y-102222380D01*
X196467142Y-102222380D02*
X196467142Y-101222380D01*
X196371904Y-101365238D01*
X196276666Y-101460476D01*
X196181428Y-101508095D01*
%TO.C,J89*%
X185860476Y-101222380D02*
X185860476Y-101936666D01*
X185812857Y-102079523D01*
X185717619Y-102174761D01*
X185574761Y-102222380D01*
X185479523Y-102222380D01*
X186479523Y-101650952D02*
X186384285Y-101603333D01*
X186336666Y-101555714D01*
X186289047Y-101460476D01*
X186289047Y-101412857D01*
X186336666Y-101317619D01*
X186384285Y-101270000D01*
X186479523Y-101222380D01*
X186670000Y-101222380D01*
X186765238Y-101270000D01*
X186812857Y-101317619D01*
X186860476Y-101412857D01*
X186860476Y-101460476D01*
X186812857Y-101555714D01*
X186765238Y-101603333D01*
X186670000Y-101650952D01*
X186479523Y-101650952D01*
X186384285Y-101698571D01*
X186336666Y-101746190D01*
X186289047Y-101841428D01*
X186289047Y-102031904D01*
X186336666Y-102127142D01*
X186384285Y-102174761D01*
X186479523Y-102222380D01*
X186670000Y-102222380D01*
X186765238Y-102174761D01*
X186812857Y-102127142D01*
X186860476Y-102031904D01*
X186860476Y-101841428D01*
X186812857Y-101746190D01*
X186765238Y-101698571D01*
X186670000Y-101650952D01*
X187336666Y-102222380D02*
X187527142Y-102222380D01*
X187622380Y-102174761D01*
X187670000Y-102127142D01*
X187765238Y-101984285D01*
X187812857Y-101793809D01*
X187812857Y-101412857D01*
X187765238Y-101317619D01*
X187717619Y-101270000D01*
X187622380Y-101222380D01*
X187431904Y-101222380D01*
X187336666Y-101270000D01*
X187289047Y-101317619D01*
X187241428Y-101412857D01*
X187241428Y-101650952D01*
X187289047Y-101746190D01*
X187336666Y-101793809D01*
X187431904Y-101841428D01*
X187622380Y-101841428D01*
X187717619Y-101793809D01*
X187765238Y-101746190D01*
X187812857Y-101650952D01*
%TO.C,J87*%
X176920476Y-101222380D02*
X176920476Y-101936666D01*
X176872857Y-102079523D01*
X176777619Y-102174761D01*
X176634761Y-102222380D01*
X176539523Y-102222380D01*
X177539523Y-101650952D02*
X177444285Y-101603333D01*
X177396666Y-101555714D01*
X177349047Y-101460476D01*
X177349047Y-101412857D01*
X177396666Y-101317619D01*
X177444285Y-101270000D01*
X177539523Y-101222380D01*
X177730000Y-101222380D01*
X177825238Y-101270000D01*
X177872857Y-101317619D01*
X177920476Y-101412857D01*
X177920476Y-101460476D01*
X177872857Y-101555714D01*
X177825238Y-101603333D01*
X177730000Y-101650952D01*
X177539523Y-101650952D01*
X177444285Y-101698571D01*
X177396666Y-101746190D01*
X177349047Y-101841428D01*
X177349047Y-102031904D01*
X177396666Y-102127142D01*
X177444285Y-102174761D01*
X177539523Y-102222380D01*
X177730000Y-102222380D01*
X177825238Y-102174761D01*
X177872857Y-102127142D01*
X177920476Y-102031904D01*
X177920476Y-101841428D01*
X177872857Y-101746190D01*
X177825238Y-101698571D01*
X177730000Y-101650952D01*
X178253809Y-101222380D02*
X178920476Y-101222380D01*
X178491904Y-102222380D01*
%TO.C,J85*%
X167980476Y-101222380D02*
X167980476Y-101936666D01*
X167932857Y-102079523D01*
X167837619Y-102174761D01*
X167694761Y-102222380D01*
X167599523Y-102222380D01*
X168599523Y-101650952D02*
X168504285Y-101603333D01*
X168456666Y-101555714D01*
X168409047Y-101460476D01*
X168409047Y-101412857D01*
X168456666Y-101317619D01*
X168504285Y-101270000D01*
X168599523Y-101222380D01*
X168790000Y-101222380D01*
X168885238Y-101270000D01*
X168932857Y-101317619D01*
X168980476Y-101412857D01*
X168980476Y-101460476D01*
X168932857Y-101555714D01*
X168885238Y-101603333D01*
X168790000Y-101650952D01*
X168599523Y-101650952D01*
X168504285Y-101698571D01*
X168456666Y-101746190D01*
X168409047Y-101841428D01*
X168409047Y-102031904D01*
X168456666Y-102127142D01*
X168504285Y-102174761D01*
X168599523Y-102222380D01*
X168790000Y-102222380D01*
X168885238Y-102174761D01*
X168932857Y-102127142D01*
X168980476Y-102031904D01*
X168980476Y-101841428D01*
X168932857Y-101746190D01*
X168885238Y-101698571D01*
X168790000Y-101650952D01*
X169885238Y-101222380D02*
X169409047Y-101222380D01*
X169361428Y-101698571D01*
X169409047Y-101650952D01*
X169504285Y-101603333D01*
X169742380Y-101603333D01*
X169837619Y-101650952D01*
X169885238Y-101698571D01*
X169932857Y-101793809D01*
X169932857Y-102031904D01*
X169885238Y-102127142D01*
X169837619Y-102174761D01*
X169742380Y-102222380D01*
X169504285Y-102222380D01*
X169409047Y-102174761D01*
X169361428Y-102127142D01*
%TO.C,J83*%
X159040476Y-101222380D02*
X159040476Y-101936666D01*
X158992857Y-102079523D01*
X158897619Y-102174761D01*
X158754761Y-102222380D01*
X158659523Y-102222380D01*
X159659523Y-101650952D02*
X159564285Y-101603333D01*
X159516666Y-101555714D01*
X159469047Y-101460476D01*
X159469047Y-101412857D01*
X159516666Y-101317619D01*
X159564285Y-101270000D01*
X159659523Y-101222380D01*
X159850000Y-101222380D01*
X159945238Y-101270000D01*
X159992857Y-101317619D01*
X160040476Y-101412857D01*
X160040476Y-101460476D01*
X159992857Y-101555714D01*
X159945238Y-101603333D01*
X159850000Y-101650952D01*
X159659523Y-101650952D01*
X159564285Y-101698571D01*
X159516666Y-101746190D01*
X159469047Y-101841428D01*
X159469047Y-102031904D01*
X159516666Y-102127142D01*
X159564285Y-102174761D01*
X159659523Y-102222380D01*
X159850000Y-102222380D01*
X159945238Y-102174761D01*
X159992857Y-102127142D01*
X160040476Y-102031904D01*
X160040476Y-101841428D01*
X159992857Y-101746190D01*
X159945238Y-101698571D01*
X159850000Y-101650952D01*
X160373809Y-101222380D02*
X160992857Y-101222380D01*
X160659523Y-101603333D01*
X160802380Y-101603333D01*
X160897619Y-101650952D01*
X160945238Y-101698571D01*
X160992857Y-101793809D01*
X160992857Y-102031904D01*
X160945238Y-102127142D01*
X160897619Y-102174761D01*
X160802380Y-102222380D01*
X160516666Y-102222380D01*
X160421428Y-102174761D01*
X160373809Y-102127142D01*
%TO.C,J81*%
X150100476Y-101222380D02*
X150100476Y-101936666D01*
X150052857Y-102079523D01*
X149957619Y-102174761D01*
X149814761Y-102222380D01*
X149719523Y-102222380D01*
X150719523Y-101650952D02*
X150624285Y-101603333D01*
X150576666Y-101555714D01*
X150529047Y-101460476D01*
X150529047Y-101412857D01*
X150576666Y-101317619D01*
X150624285Y-101270000D01*
X150719523Y-101222380D01*
X150910000Y-101222380D01*
X151005238Y-101270000D01*
X151052857Y-101317619D01*
X151100476Y-101412857D01*
X151100476Y-101460476D01*
X151052857Y-101555714D01*
X151005238Y-101603333D01*
X150910000Y-101650952D01*
X150719523Y-101650952D01*
X150624285Y-101698571D01*
X150576666Y-101746190D01*
X150529047Y-101841428D01*
X150529047Y-102031904D01*
X150576666Y-102127142D01*
X150624285Y-102174761D01*
X150719523Y-102222380D01*
X150910000Y-102222380D01*
X151005238Y-102174761D01*
X151052857Y-102127142D01*
X151100476Y-102031904D01*
X151100476Y-101841428D01*
X151052857Y-101746190D01*
X151005238Y-101698571D01*
X150910000Y-101650952D01*
X152052857Y-102222380D02*
X151481428Y-102222380D01*
X151767142Y-102222380D02*
X151767142Y-101222380D01*
X151671904Y-101365238D01*
X151576666Y-101460476D01*
X151481428Y-101508095D01*
%TO.C,J79*%
X230560476Y-96062380D02*
X230560476Y-96776666D01*
X230512857Y-96919523D01*
X230417619Y-97014761D01*
X230274761Y-97062380D01*
X230179523Y-97062380D01*
X230941428Y-96062380D02*
X231608095Y-96062380D01*
X231179523Y-97062380D01*
X232036666Y-97062380D02*
X232227142Y-97062380D01*
X232322380Y-97014761D01*
X232370000Y-96967142D01*
X232465238Y-96824285D01*
X232512857Y-96633809D01*
X232512857Y-96252857D01*
X232465238Y-96157619D01*
X232417619Y-96110000D01*
X232322380Y-96062380D01*
X232131904Y-96062380D01*
X232036666Y-96110000D01*
X231989047Y-96157619D01*
X231941428Y-96252857D01*
X231941428Y-96490952D01*
X231989047Y-96586190D01*
X232036666Y-96633809D01*
X232131904Y-96681428D01*
X232322380Y-96681428D01*
X232417619Y-96633809D01*
X232465238Y-96586190D01*
X232512857Y-96490952D01*
%TO.C,J77*%
X221620476Y-96062380D02*
X221620476Y-96776666D01*
X221572857Y-96919523D01*
X221477619Y-97014761D01*
X221334761Y-97062380D01*
X221239523Y-97062380D01*
X222001428Y-96062380D02*
X222668095Y-96062380D01*
X222239523Y-97062380D01*
X222953809Y-96062380D02*
X223620476Y-96062380D01*
X223191904Y-97062380D01*
%TO.C,J75*%
X212680476Y-96062380D02*
X212680476Y-96776666D01*
X212632857Y-96919523D01*
X212537619Y-97014761D01*
X212394761Y-97062380D01*
X212299523Y-97062380D01*
X213061428Y-96062380D02*
X213728095Y-96062380D01*
X213299523Y-97062380D01*
X214585238Y-96062380D02*
X214109047Y-96062380D01*
X214061428Y-96538571D01*
X214109047Y-96490952D01*
X214204285Y-96443333D01*
X214442380Y-96443333D01*
X214537619Y-96490952D01*
X214585238Y-96538571D01*
X214632857Y-96633809D01*
X214632857Y-96871904D01*
X214585238Y-96967142D01*
X214537619Y-97014761D01*
X214442380Y-97062380D01*
X214204285Y-97062380D01*
X214109047Y-97014761D01*
X214061428Y-96967142D01*
%TO.C,J73*%
X203740476Y-96062380D02*
X203740476Y-96776666D01*
X203692857Y-96919523D01*
X203597619Y-97014761D01*
X203454761Y-97062380D01*
X203359523Y-97062380D01*
X204121428Y-96062380D02*
X204788095Y-96062380D01*
X204359523Y-97062380D01*
X205073809Y-96062380D02*
X205692857Y-96062380D01*
X205359523Y-96443333D01*
X205502380Y-96443333D01*
X205597619Y-96490952D01*
X205645238Y-96538571D01*
X205692857Y-96633809D01*
X205692857Y-96871904D01*
X205645238Y-96967142D01*
X205597619Y-97014761D01*
X205502380Y-97062380D01*
X205216666Y-97062380D01*
X205121428Y-97014761D01*
X205073809Y-96967142D01*
%TO.C,J71*%
X194800476Y-96062380D02*
X194800476Y-96776666D01*
X194752857Y-96919523D01*
X194657619Y-97014761D01*
X194514761Y-97062380D01*
X194419523Y-97062380D01*
X195181428Y-96062380D02*
X195848095Y-96062380D01*
X195419523Y-97062380D01*
X196752857Y-97062380D02*
X196181428Y-97062380D01*
X196467142Y-97062380D02*
X196467142Y-96062380D01*
X196371904Y-96205238D01*
X196276666Y-96300476D01*
X196181428Y-96348095D01*
%TO.C,J69*%
X185860476Y-96062380D02*
X185860476Y-96776666D01*
X185812857Y-96919523D01*
X185717619Y-97014761D01*
X185574761Y-97062380D01*
X185479523Y-97062380D01*
X186765238Y-96062380D02*
X186574761Y-96062380D01*
X186479523Y-96110000D01*
X186431904Y-96157619D01*
X186336666Y-96300476D01*
X186289047Y-96490952D01*
X186289047Y-96871904D01*
X186336666Y-96967142D01*
X186384285Y-97014761D01*
X186479523Y-97062380D01*
X186670000Y-97062380D01*
X186765238Y-97014761D01*
X186812857Y-96967142D01*
X186860476Y-96871904D01*
X186860476Y-96633809D01*
X186812857Y-96538571D01*
X186765238Y-96490952D01*
X186670000Y-96443333D01*
X186479523Y-96443333D01*
X186384285Y-96490952D01*
X186336666Y-96538571D01*
X186289047Y-96633809D01*
X187336666Y-97062380D02*
X187527142Y-97062380D01*
X187622380Y-97014761D01*
X187670000Y-96967142D01*
X187765238Y-96824285D01*
X187812857Y-96633809D01*
X187812857Y-96252857D01*
X187765238Y-96157619D01*
X187717619Y-96110000D01*
X187622380Y-96062380D01*
X187431904Y-96062380D01*
X187336666Y-96110000D01*
X187289047Y-96157619D01*
X187241428Y-96252857D01*
X187241428Y-96490952D01*
X187289047Y-96586190D01*
X187336666Y-96633809D01*
X187431904Y-96681428D01*
X187622380Y-96681428D01*
X187717619Y-96633809D01*
X187765238Y-96586190D01*
X187812857Y-96490952D01*
%TO.C,J67*%
X176920476Y-96062380D02*
X176920476Y-96776666D01*
X176872857Y-96919523D01*
X176777619Y-97014761D01*
X176634761Y-97062380D01*
X176539523Y-97062380D01*
X177825238Y-96062380D02*
X177634761Y-96062380D01*
X177539523Y-96110000D01*
X177491904Y-96157619D01*
X177396666Y-96300476D01*
X177349047Y-96490952D01*
X177349047Y-96871904D01*
X177396666Y-96967142D01*
X177444285Y-97014761D01*
X177539523Y-97062380D01*
X177730000Y-97062380D01*
X177825238Y-97014761D01*
X177872857Y-96967142D01*
X177920476Y-96871904D01*
X177920476Y-96633809D01*
X177872857Y-96538571D01*
X177825238Y-96490952D01*
X177730000Y-96443333D01*
X177539523Y-96443333D01*
X177444285Y-96490952D01*
X177396666Y-96538571D01*
X177349047Y-96633809D01*
X178253809Y-96062380D02*
X178920476Y-96062380D01*
X178491904Y-97062380D01*
%TO.C,J65*%
X167980476Y-96062380D02*
X167980476Y-96776666D01*
X167932857Y-96919523D01*
X167837619Y-97014761D01*
X167694761Y-97062380D01*
X167599523Y-97062380D01*
X168885238Y-96062380D02*
X168694761Y-96062380D01*
X168599523Y-96110000D01*
X168551904Y-96157619D01*
X168456666Y-96300476D01*
X168409047Y-96490952D01*
X168409047Y-96871904D01*
X168456666Y-96967142D01*
X168504285Y-97014761D01*
X168599523Y-97062380D01*
X168790000Y-97062380D01*
X168885238Y-97014761D01*
X168932857Y-96967142D01*
X168980476Y-96871904D01*
X168980476Y-96633809D01*
X168932857Y-96538571D01*
X168885238Y-96490952D01*
X168790000Y-96443333D01*
X168599523Y-96443333D01*
X168504285Y-96490952D01*
X168456666Y-96538571D01*
X168409047Y-96633809D01*
X169885238Y-96062380D02*
X169409047Y-96062380D01*
X169361428Y-96538571D01*
X169409047Y-96490952D01*
X169504285Y-96443333D01*
X169742380Y-96443333D01*
X169837619Y-96490952D01*
X169885238Y-96538571D01*
X169932857Y-96633809D01*
X169932857Y-96871904D01*
X169885238Y-96967142D01*
X169837619Y-97014761D01*
X169742380Y-97062380D01*
X169504285Y-97062380D01*
X169409047Y-97014761D01*
X169361428Y-96967142D01*
%TO.C,J63*%
X159040476Y-96062380D02*
X159040476Y-96776666D01*
X158992857Y-96919523D01*
X158897619Y-97014761D01*
X158754761Y-97062380D01*
X158659523Y-97062380D01*
X159945238Y-96062380D02*
X159754761Y-96062380D01*
X159659523Y-96110000D01*
X159611904Y-96157619D01*
X159516666Y-96300476D01*
X159469047Y-96490952D01*
X159469047Y-96871904D01*
X159516666Y-96967142D01*
X159564285Y-97014761D01*
X159659523Y-97062380D01*
X159850000Y-97062380D01*
X159945238Y-97014761D01*
X159992857Y-96967142D01*
X160040476Y-96871904D01*
X160040476Y-96633809D01*
X159992857Y-96538571D01*
X159945238Y-96490952D01*
X159850000Y-96443333D01*
X159659523Y-96443333D01*
X159564285Y-96490952D01*
X159516666Y-96538571D01*
X159469047Y-96633809D01*
X160373809Y-96062380D02*
X160992857Y-96062380D01*
X160659523Y-96443333D01*
X160802380Y-96443333D01*
X160897619Y-96490952D01*
X160945238Y-96538571D01*
X160992857Y-96633809D01*
X160992857Y-96871904D01*
X160945238Y-96967142D01*
X160897619Y-97014761D01*
X160802380Y-97062380D01*
X160516666Y-97062380D01*
X160421428Y-97014761D01*
X160373809Y-96967142D01*
%TO.C,J61*%
X150100476Y-96062380D02*
X150100476Y-96776666D01*
X150052857Y-96919523D01*
X149957619Y-97014761D01*
X149814761Y-97062380D01*
X149719523Y-97062380D01*
X151005238Y-96062380D02*
X150814761Y-96062380D01*
X150719523Y-96110000D01*
X150671904Y-96157619D01*
X150576666Y-96300476D01*
X150529047Y-96490952D01*
X150529047Y-96871904D01*
X150576666Y-96967142D01*
X150624285Y-97014761D01*
X150719523Y-97062380D01*
X150910000Y-97062380D01*
X151005238Y-97014761D01*
X151052857Y-96967142D01*
X151100476Y-96871904D01*
X151100476Y-96633809D01*
X151052857Y-96538571D01*
X151005238Y-96490952D01*
X150910000Y-96443333D01*
X150719523Y-96443333D01*
X150624285Y-96490952D01*
X150576666Y-96538571D01*
X150529047Y-96633809D01*
X152052857Y-97062380D02*
X151481428Y-97062380D01*
X151767142Y-97062380D02*
X151767142Y-96062380D01*
X151671904Y-96205238D01*
X151576666Y-96300476D01*
X151481428Y-96348095D01*
%TO.C,J59*%
X230560476Y-90902380D02*
X230560476Y-91616666D01*
X230512857Y-91759523D01*
X230417619Y-91854761D01*
X230274761Y-91902380D01*
X230179523Y-91902380D01*
X231512857Y-90902380D02*
X231036666Y-90902380D01*
X230989047Y-91378571D01*
X231036666Y-91330952D01*
X231131904Y-91283333D01*
X231370000Y-91283333D01*
X231465238Y-91330952D01*
X231512857Y-91378571D01*
X231560476Y-91473809D01*
X231560476Y-91711904D01*
X231512857Y-91807142D01*
X231465238Y-91854761D01*
X231370000Y-91902380D01*
X231131904Y-91902380D01*
X231036666Y-91854761D01*
X230989047Y-91807142D01*
X232036666Y-91902380D02*
X232227142Y-91902380D01*
X232322380Y-91854761D01*
X232370000Y-91807142D01*
X232465238Y-91664285D01*
X232512857Y-91473809D01*
X232512857Y-91092857D01*
X232465238Y-90997619D01*
X232417619Y-90950000D01*
X232322380Y-90902380D01*
X232131904Y-90902380D01*
X232036666Y-90950000D01*
X231989047Y-90997619D01*
X231941428Y-91092857D01*
X231941428Y-91330952D01*
X231989047Y-91426190D01*
X232036666Y-91473809D01*
X232131904Y-91521428D01*
X232322380Y-91521428D01*
X232417619Y-91473809D01*
X232465238Y-91426190D01*
X232512857Y-91330952D01*
%TO.C,J57*%
X221620476Y-90902380D02*
X221620476Y-91616666D01*
X221572857Y-91759523D01*
X221477619Y-91854761D01*
X221334761Y-91902380D01*
X221239523Y-91902380D01*
X222572857Y-90902380D02*
X222096666Y-90902380D01*
X222049047Y-91378571D01*
X222096666Y-91330952D01*
X222191904Y-91283333D01*
X222430000Y-91283333D01*
X222525238Y-91330952D01*
X222572857Y-91378571D01*
X222620476Y-91473809D01*
X222620476Y-91711904D01*
X222572857Y-91807142D01*
X222525238Y-91854761D01*
X222430000Y-91902380D01*
X222191904Y-91902380D01*
X222096666Y-91854761D01*
X222049047Y-91807142D01*
X222953809Y-90902380D02*
X223620476Y-90902380D01*
X223191904Y-91902380D01*
%TO.C,J55*%
X212680476Y-90902380D02*
X212680476Y-91616666D01*
X212632857Y-91759523D01*
X212537619Y-91854761D01*
X212394761Y-91902380D01*
X212299523Y-91902380D01*
X213632857Y-90902380D02*
X213156666Y-90902380D01*
X213109047Y-91378571D01*
X213156666Y-91330952D01*
X213251904Y-91283333D01*
X213490000Y-91283333D01*
X213585238Y-91330952D01*
X213632857Y-91378571D01*
X213680476Y-91473809D01*
X213680476Y-91711904D01*
X213632857Y-91807142D01*
X213585238Y-91854761D01*
X213490000Y-91902380D01*
X213251904Y-91902380D01*
X213156666Y-91854761D01*
X213109047Y-91807142D01*
X214585238Y-90902380D02*
X214109047Y-90902380D01*
X214061428Y-91378571D01*
X214109047Y-91330952D01*
X214204285Y-91283333D01*
X214442380Y-91283333D01*
X214537619Y-91330952D01*
X214585238Y-91378571D01*
X214632857Y-91473809D01*
X214632857Y-91711904D01*
X214585238Y-91807142D01*
X214537619Y-91854761D01*
X214442380Y-91902380D01*
X214204285Y-91902380D01*
X214109047Y-91854761D01*
X214061428Y-91807142D01*
%TO.C,J53*%
X203740476Y-90902380D02*
X203740476Y-91616666D01*
X203692857Y-91759523D01*
X203597619Y-91854761D01*
X203454761Y-91902380D01*
X203359523Y-91902380D01*
X204692857Y-90902380D02*
X204216666Y-90902380D01*
X204169047Y-91378571D01*
X204216666Y-91330952D01*
X204311904Y-91283333D01*
X204550000Y-91283333D01*
X204645238Y-91330952D01*
X204692857Y-91378571D01*
X204740476Y-91473809D01*
X204740476Y-91711904D01*
X204692857Y-91807142D01*
X204645238Y-91854761D01*
X204550000Y-91902380D01*
X204311904Y-91902380D01*
X204216666Y-91854761D01*
X204169047Y-91807142D01*
X205073809Y-90902380D02*
X205692857Y-90902380D01*
X205359523Y-91283333D01*
X205502380Y-91283333D01*
X205597619Y-91330952D01*
X205645238Y-91378571D01*
X205692857Y-91473809D01*
X205692857Y-91711904D01*
X205645238Y-91807142D01*
X205597619Y-91854761D01*
X205502380Y-91902380D01*
X205216666Y-91902380D01*
X205121428Y-91854761D01*
X205073809Y-91807142D01*
%TO.C,J51*%
X194800476Y-90902380D02*
X194800476Y-91616666D01*
X194752857Y-91759523D01*
X194657619Y-91854761D01*
X194514761Y-91902380D01*
X194419523Y-91902380D01*
X195752857Y-90902380D02*
X195276666Y-90902380D01*
X195229047Y-91378571D01*
X195276666Y-91330952D01*
X195371904Y-91283333D01*
X195610000Y-91283333D01*
X195705238Y-91330952D01*
X195752857Y-91378571D01*
X195800476Y-91473809D01*
X195800476Y-91711904D01*
X195752857Y-91807142D01*
X195705238Y-91854761D01*
X195610000Y-91902380D01*
X195371904Y-91902380D01*
X195276666Y-91854761D01*
X195229047Y-91807142D01*
X196752857Y-91902380D02*
X196181428Y-91902380D01*
X196467142Y-91902380D02*
X196467142Y-90902380D01*
X196371904Y-91045238D01*
X196276666Y-91140476D01*
X196181428Y-91188095D01*
%TO.C,J49*%
X185860476Y-90902380D02*
X185860476Y-91616666D01*
X185812857Y-91759523D01*
X185717619Y-91854761D01*
X185574761Y-91902380D01*
X185479523Y-91902380D01*
X186765238Y-91235714D02*
X186765238Y-91902380D01*
X186527142Y-90854761D02*
X186289047Y-91569047D01*
X186908095Y-91569047D01*
X187336666Y-91902380D02*
X187527142Y-91902380D01*
X187622380Y-91854761D01*
X187670000Y-91807142D01*
X187765238Y-91664285D01*
X187812857Y-91473809D01*
X187812857Y-91092857D01*
X187765238Y-90997619D01*
X187717619Y-90950000D01*
X187622380Y-90902380D01*
X187431904Y-90902380D01*
X187336666Y-90950000D01*
X187289047Y-90997619D01*
X187241428Y-91092857D01*
X187241428Y-91330952D01*
X187289047Y-91426190D01*
X187336666Y-91473809D01*
X187431904Y-91521428D01*
X187622380Y-91521428D01*
X187717619Y-91473809D01*
X187765238Y-91426190D01*
X187812857Y-91330952D01*
%TO.C,J47*%
X176920476Y-90902380D02*
X176920476Y-91616666D01*
X176872857Y-91759523D01*
X176777619Y-91854761D01*
X176634761Y-91902380D01*
X176539523Y-91902380D01*
X177825238Y-91235714D02*
X177825238Y-91902380D01*
X177587142Y-90854761D02*
X177349047Y-91569047D01*
X177968095Y-91569047D01*
X178253809Y-90902380D02*
X178920476Y-90902380D01*
X178491904Y-91902380D01*
%TO.C,J45*%
X167980476Y-90902380D02*
X167980476Y-91616666D01*
X167932857Y-91759523D01*
X167837619Y-91854761D01*
X167694761Y-91902380D01*
X167599523Y-91902380D01*
X168885238Y-91235714D02*
X168885238Y-91902380D01*
X168647142Y-90854761D02*
X168409047Y-91569047D01*
X169028095Y-91569047D01*
X169885238Y-90902380D02*
X169409047Y-90902380D01*
X169361428Y-91378571D01*
X169409047Y-91330952D01*
X169504285Y-91283333D01*
X169742380Y-91283333D01*
X169837619Y-91330952D01*
X169885238Y-91378571D01*
X169932857Y-91473809D01*
X169932857Y-91711904D01*
X169885238Y-91807142D01*
X169837619Y-91854761D01*
X169742380Y-91902380D01*
X169504285Y-91902380D01*
X169409047Y-91854761D01*
X169361428Y-91807142D01*
%TO.C,J43*%
X159040476Y-90902380D02*
X159040476Y-91616666D01*
X158992857Y-91759523D01*
X158897619Y-91854761D01*
X158754761Y-91902380D01*
X158659523Y-91902380D01*
X159945238Y-91235714D02*
X159945238Y-91902380D01*
X159707142Y-90854761D02*
X159469047Y-91569047D01*
X160088095Y-91569047D01*
X160373809Y-90902380D02*
X160992857Y-90902380D01*
X160659523Y-91283333D01*
X160802380Y-91283333D01*
X160897619Y-91330952D01*
X160945238Y-91378571D01*
X160992857Y-91473809D01*
X160992857Y-91711904D01*
X160945238Y-91807142D01*
X160897619Y-91854761D01*
X160802380Y-91902380D01*
X160516666Y-91902380D01*
X160421428Y-91854761D01*
X160373809Y-91807142D01*
%TO.C,J41*%
X150100476Y-90902380D02*
X150100476Y-91616666D01*
X150052857Y-91759523D01*
X149957619Y-91854761D01*
X149814761Y-91902380D01*
X149719523Y-91902380D01*
X151005238Y-91235714D02*
X151005238Y-91902380D01*
X150767142Y-90854761D02*
X150529047Y-91569047D01*
X151148095Y-91569047D01*
X152052857Y-91902380D02*
X151481428Y-91902380D01*
X151767142Y-91902380D02*
X151767142Y-90902380D01*
X151671904Y-91045238D01*
X151576666Y-91140476D01*
X151481428Y-91188095D01*
%TO.C,J39*%
X230560476Y-85742380D02*
X230560476Y-86456666D01*
X230512857Y-86599523D01*
X230417619Y-86694761D01*
X230274761Y-86742380D01*
X230179523Y-86742380D01*
X230941428Y-85742380D02*
X231560476Y-85742380D01*
X231227142Y-86123333D01*
X231370000Y-86123333D01*
X231465238Y-86170952D01*
X231512857Y-86218571D01*
X231560476Y-86313809D01*
X231560476Y-86551904D01*
X231512857Y-86647142D01*
X231465238Y-86694761D01*
X231370000Y-86742380D01*
X231084285Y-86742380D01*
X230989047Y-86694761D01*
X230941428Y-86647142D01*
X232036666Y-86742380D02*
X232227142Y-86742380D01*
X232322380Y-86694761D01*
X232370000Y-86647142D01*
X232465238Y-86504285D01*
X232512857Y-86313809D01*
X232512857Y-85932857D01*
X232465238Y-85837619D01*
X232417619Y-85790000D01*
X232322380Y-85742380D01*
X232131904Y-85742380D01*
X232036666Y-85790000D01*
X231989047Y-85837619D01*
X231941428Y-85932857D01*
X231941428Y-86170952D01*
X231989047Y-86266190D01*
X232036666Y-86313809D01*
X232131904Y-86361428D01*
X232322380Y-86361428D01*
X232417619Y-86313809D01*
X232465238Y-86266190D01*
X232512857Y-86170952D01*
%TO.C,J37*%
X221620476Y-85742380D02*
X221620476Y-86456666D01*
X221572857Y-86599523D01*
X221477619Y-86694761D01*
X221334761Y-86742380D01*
X221239523Y-86742380D01*
X222001428Y-85742380D02*
X222620476Y-85742380D01*
X222287142Y-86123333D01*
X222430000Y-86123333D01*
X222525238Y-86170952D01*
X222572857Y-86218571D01*
X222620476Y-86313809D01*
X222620476Y-86551904D01*
X222572857Y-86647142D01*
X222525238Y-86694761D01*
X222430000Y-86742380D01*
X222144285Y-86742380D01*
X222049047Y-86694761D01*
X222001428Y-86647142D01*
X222953809Y-85742380D02*
X223620476Y-85742380D01*
X223191904Y-86742380D01*
%TO.C,J35*%
X212680476Y-85742380D02*
X212680476Y-86456666D01*
X212632857Y-86599523D01*
X212537619Y-86694761D01*
X212394761Y-86742380D01*
X212299523Y-86742380D01*
X213061428Y-85742380D02*
X213680476Y-85742380D01*
X213347142Y-86123333D01*
X213490000Y-86123333D01*
X213585238Y-86170952D01*
X213632857Y-86218571D01*
X213680476Y-86313809D01*
X213680476Y-86551904D01*
X213632857Y-86647142D01*
X213585238Y-86694761D01*
X213490000Y-86742380D01*
X213204285Y-86742380D01*
X213109047Y-86694761D01*
X213061428Y-86647142D01*
X214585238Y-85742380D02*
X214109047Y-85742380D01*
X214061428Y-86218571D01*
X214109047Y-86170952D01*
X214204285Y-86123333D01*
X214442380Y-86123333D01*
X214537619Y-86170952D01*
X214585238Y-86218571D01*
X214632857Y-86313809D01*
X214632857Y-86551904D01*
X214585238Y-86647142D01*
X214537619Y-86694761D01*
X214442380Y-86742380D01*
X214204285Y-86742380D01*
X214109047Y-86694761D01*
X214061428Y-86647142D01*
%TO.C,J33*%
X203740476Y-85742380D02*
X203740476Y-86456666D01*
X203692857Y-86599523D01*
X203597619Y-86694761D01*
X203454761Y-86742380D01*
X203359523Y-86742380D01*
X204121428Y-85742380D02*
X204740476Y-85742380D01*
X204407142Y-86123333D01*
X204550000Y-86123333D01*
X204645238Y-86170952D01*
X204692857Y-86218571D01*
X204740476Y-86313809D01*
X204740476Y-86551904D01*
X204692857Y-86647142D01*
X204645238Y-86694761D01*
X204550000Y-86742380D01*
X204264285Y-86742380D01*
X204169047Y-86694761D01*
X204121428Y-86647142D01*
X205073809Y-85742380D02*
X205692857Y-85742380D01*
X205359523Y-86123333D01*
X205502380Y-86123333D01*
X205597619Y-86170952D01*
X205645238Y-86218571D01*
X205692857Y-86313809D01*
X205692857Y-86551904D01*
X205645238Y-86647142D01*
X205597619Y-86694761D01*
X205502380Y-86742380D01*
X205216666Y-86742380D01*
X205121428Y-86694761D01*
X205073809Y-86647142D01*
%TO.C,J31*%
X194800476Y-85742380D02*
X194800476Y-86456666D01*
X194752857Y-86599523D01*
X194657619Y-86694761D01*
X194514761Y-86742380D01*
X194419523Y-86742380D01*
X195181428Y-85742380D02*
X195800476Y-85742380D01*
X195467142Y-86123333D01*
X195610000Y-86123333D01*
X195705238Y-86170952D01*
X195752857Y-86218571D01*
X195800476Y-86313809D01*
X195800476Y-86551904D01*
X195752857Y-86647142D01*
X195705238Y-86694761D01*
X195610000Y-86742380D01*
X195324285Y-86742380D01*
X195229047Y-86694761D01*
X195181428Y-86647142D01*
X196752857Y-86742380D02*
X196181428Y-86742380D01*
X196467142Y-86742380D02*
X196467142Y-85742380D01*
X196371904Y-85885238D01*
X196276666Y-85980476D01*
X196181428Y-86028095D01*
%TO.C,J29*%
X185860476Y-85742380D02*
X185860476Y-86456666D01*
X185812857Y-86599523D01*
X185717619Y-86694761D01*
X185574761Y-86742380D01*
X185479523Y-86742380D01*
X186289047Y-85837619D02*
X186336666Y-85790000D01*
X186431904Y-85742380D01*
X186670000Y-85742380D01*
X186765238Y-85790000D01*
X186812857Y-85837619D01*
X186860476Y-85932857D01*
X186860476Y-86028095D01*
X186812857Y-86170952D01*
X186241428Y-86742380D01*
X186860476Y-86742380D01*
X187336666Y-86742380D02*
X187527142Y-86742380D01*
X187622380Y-86694761D01*
X187670000Y-86647142D01*
X187765238Y-86504285D01*
X187812857Y-86313809D01*
X187812857Y-85932857D01*
X187765238Y-85837619D01*
X187717619Y-85790000D01*
X187622380Y-85742380D01*
X187431904Y-85742380D01*
X187336666Y-85790000D01*
X187289047Y-85837619D01*
X187241428Y-85932857D01*
X187241428Y-86170952D01*
X187289047Y-86266190D01*
X187336666Y-86313809D01*
X187431904Y-86361428D01*
X187622380Y-86361428D01*
X187717619Y-86313809D01*
X187765238Y-86266190D01*
X187812857Y-86170952D01*
%TO.C,J27*%
X176920476Y-85742380D02*
X176920476Y-86456666D01*
X176872857Y-86599523D01*
X176777619Y-86694761D01*
X176634761Y-86742380D01*
X176539523Y-86742380D01*
X177349047Y-85837619D02*
X177396666Y-85790000D01*
X177491904Y-85742380D01*
X177730000Y-85742380D01*
X177825238Y-85790000D01*
X177872857Y-85837619D01*
X177920476Y-85932857D01*
X177920476Y-86028095D01*
X177872857Y-86170952D01*
X177301428Y-86742380D01*
X177920476Y-86742380D01*
X178253809Y-85742380D02*
X178920476Y-85742380D01*
X178491904Y-86742380D01*
%TO.C,J25*%
X167980476Y-85742380D02*
X167980476Y-86456666D01*
X167932857Y-86599523D01*
X167837619Y-86694761D01*
X167694761Y-86742380D01*
X167599523Y-86742380D01*
X168409047Y-85837619D02*
X168456666Y-85790000D01*
X168551904Y-85742380D01*
X168790000Y-85742380D01*
X168885238Y-85790000D01*
X168932857Y-85837619D01*
X168980476Y-85932857D01*
X168980476Y-86028095D01*
X168932857Y-86170952D01*
X168361428Y-86742380D01*
X168980476Y-86742380D01*
X169885238Y-85742380D02*
X169409047Y-85742380D01*
X169361428Y-86218571D01*
X169409047Y-86170952D01*
X169504285Y-86123333D01*
X169742380Y-86123333D01*
X169837619Y-86170952D01*
X169885238Y-86218571D01*
X169932857Y-86313809D01*
X169932857Y-86551904D01*
X169885238Y-86647142D01*
X169837619Y-86694761D01*
X169742380Y-86742380D01*
X169504285Y-86742380D01*
X169409047Y-86694761D01*
X169361428Y-86647142D01*
%TO.C,J23*%
X159040476Y-85742380D02*
X159040476Y-86456666D01*
X158992857Y-86599523D01*
X158897619Y-86694761D01*
X158754761Y-86742380D01*
X158659523Y-86742380D01*
X159469047Y-85837619D02*
X159516666Y-85790000D01*
X159611904Y-85742380D01*
X159850000Y-85742380D01*
X159945238Y-85790000D01*
X159992857Y-85837619D01*
X160040476Y-85932857D01*
X160040476Y-86028095D01*
X159992857Y-86170952D01*
X159421428Y-86742380D01*
X160040476Y-86742380D01*
X160373809Y-85742380D02*
X160992857Y-85742380D01*
X160659523Y-86123333D01*
X160802380Y-86123333D01*
X160897619Y-86170952D01*
X160945238Y-86218571D01*
X160992857Y-86313809D01*
X160992857Y-86551904D01*
X160945238Y-86647142D01*
X160897619Y-86694761D01*
X160802380Y-86742380D01*
X160516666Y-86742380D01*
X160421428Y-86694761D01*
X160373809Y-86647142D01*
%TO.C,J21*%
X150100476Y-85742380D02*
X150100476Y-86456666D01*
X150052857Y-86599523D01*
X149957619Y-86694761D01*
X149814761Y-86742380D01*
X149719523Y-86742380D01*
X150529047Y-85837619D02*
X150576666Y-85790000D01*
X150671904Y-85742380D01*
X150910000Y-85742380D01*
X151005238Y-85790000D01*
X151052857Y-85837619D01*
X151100476Y-85932857D01*
X151100476Y-86028095D01*
X151052857Y-86170952D01*
X150481428Y-86742380D01*
X151100476Y-86742380D01*
X152052857Y-86742380D02*
X151481428Y-86742380D01*
X151767142Y-86742380D02*
X151767142Y-85742380D01*
X151671904Y-85885238D01*
X151576666Y-85980476D01*
X151481428Y-86028095D01*
%TO.C,J19*%
X230560476Y-80582380D02*
X230560476Y-81296666D01*
X230512857Y-81439523D01*
X230417619Y-81534761D01*
X230274761Y-81582380D01*
X230179523Y-81582380D01*
X231560476Y-81582380D02*
X230989047Y-81582380D01*
X231274761Y-81582380D02*
X231274761Y-80582380D01*
X231179523Y-80725238D01*
X231084285Y-80820476D01*
X230989047Y-80868095D01*
X232036666Y-81582380D02*
X232227142Y-81582380D01*
X232322380Y-81534761D01*
X232370000Y-81487142D01*
X232465238Y-81344285D01*
X232512857Y-81153809D01*
X232512857Y-80772857D01*
X232465238Y-80677619D01*
X232417619Y-80630000D01*
X232322380Y-80582380D01*
X232131904Y-80582380D01*
X232036666Y-80630000D01*
X231989047Y-80677619D01*
X231941428Y-80772857D01*
X231941428Y-81010952D01*
X231989047Y-81106190D01*
X232036666Y-81153809D01*
X232131904Y-81201428D01*
X232322380Y-81201428D01*
X232417619Y-81153809D01*
X232465238Y-81106190D01*
X232512857Y-81010952D01*
%TO.C,J17*%
X221620476Y-80582380D02*
X221620476Y-81296666D01*
X221572857Y-81439523D01*
X221477619Y-81534761D01*
X221334761Y-81582380D01*
X221239523Y-81582380D01*
X222620476Y-81582380D02*
X222049047Y-81582380D01*
X222334761Y-81582380D02*
X222334761Y-80582380D01*
X222239523Y-80725238D01*
X222144285Y-80820476D01*
X222049047Y-80868095D01*
X222953809Y-80582380D02*
X223620476Y-80582380D01*
X223191904Y-81582380D01*
%TO.C,J15*%
X212680476Y-80582380D02*
X212680476Y-81296666D01*
X212632857Y-81439523D01*
X212537619Y-81534761D01*
X212394761Y-81582380D01*
X212299523Y-81582380D01*
X213680476Y-81582380D02*
X213109047Y-81582380D01*
X213394761Y-81582380D02*
X213394761Y-80582380D01*
X213299523Y-80725238D01*
X213204285Y-80820476D01*
X213109047Y-80868095D01*
X214585238Y-80582380D02*
X214109047Y-80582380D01*
X214061428Y-81058571D01*
X214109047Y-81010952D01*
X214204285Y-80963333D01*
X214442380Y-80963333D01*
X214537619Y-81010952D01*
X214585238Y-81058571D01*
X214632857Y-81153809D01*
X214632857Y-81391904D01*
X214585238Y-81487142D01*
X214537619Y-81534761D01*
X214442380Y-81582380D01*
X214204285Y-81582380D01*
X214109047Y-81534761D01*
X214061428Y-81487142D01*
%TO.C,J13*%
X203740476Y-80582380D02*
X203740476Y-81296666D01*
X203692857Y-81439523D01*
X203597619Y-81534761D01*
X203454761Y-81582380D01*
X203359523Y-81582380D01*
X204740476Y-81582380D02*
X204169047Y-81582380D01*
X204454761Y-81582380D02*
X204454761Y-80582380D01*
X204359523Y-80725238D01*
X204264285Y-80820476D01*
X204169047Y-80868095D01*
X205073809Y-80582380D02*
X205692857Y-80582380D01*
X205359523Y-80963333D01*
X205502380Y-80963333D01*
X205597619Y-81010952D01*
X205645238Y-81058571D01*
X205692857Y-81153809D01*
X205692857Y-81391904D01*
X205645238Y-81487142D01*
X205597619Y-81534761D01*
X205502380Y-81582380D01*
X205216666Y-81582380D01*
X205121428Y-81534761D01*
X205073809Y-81487142D01*
%TO.C,J11*%
X194800476Y-80582380D02*
X194800476Y-81296666D01*
X194752857Y-81439523D01*
X194657619Y-81534761D01*
X194514761Y-81582380D01*
X194419523Y-81582380D01*
X195800476Y-81582380D02*
X195229047Y-81582380D01*
X195514761Y-81582380D02*
X195514761Y-80582380D01*
X195419523Y-80725238D01*
X195324285Y-80820476D01*
X195229047Y-80868095D01*
X196752857Y-81582380D02*
X196181428Y-81582380D01*
X196467142Y-81582380D02*
X196467142Y-80582380D01*
X196371904Y-80725238D01*
X196276666Y-80820476D01*
X196181428Y-80868095D01*
%TO.C,J9*%
X186336666Y-80582380D02*
X186336666Y-81296666D01*
X186289047Y-81439523D01*
X186193809Y-81534761D01*
X186050952Y-81582380D01*
X185955714Y-81582380D01*
X186860476Y-81582380D02*
X187050952Y-81582380D01*
X187146190Y-81534761D01*
X187193809Y-81487142D01*
X187289047Y-81344285D01*
X187336666Y-81153809D01*
X187336666Y-80772857D01*
X187289047Y-80677619D01*
X187241428Y-80630000D01*
X187146190Y-80582380D01*
X186955714Y-80582380D01*
X186860476Y-80630000D01*
X186812857Y-80677619D01*
X186765238Y-80772857D01*
X186765238Y-81010952D01*
X186812857Y-81106190D01*
X186860476Y-81153809D01*
X186955714Y-81201428D01*
X187146190Y-81201428D01*
X187241428Y-81153809D01*
X187289047Y-81106190D01*
X187336666Y-81010952D01*
%TO.C,J7*%
X177396666Y-80582380D02*
X177396666Y-81296666D01*
X177349047Y-81439523D01*
X177253809Y-81534761D01*
X177110952Y-81582380D01*
X177015714Y-81582380D01*
X177777619Y-80582380D02*
X178444285Y-80582380D01*
X178015714Y-81582380D01*
%TO.C,J5*%
X168456666Y-80582380D02*
X168456666Y-81296666D01*
X168409047Y-81439523D01*
X168313809Y-81534761D01*
X168170952Y-81582380D01*
X168075714Y-81582380D01*
X169409047Y-80582380D02*
X168932857Y-80582380D01*
X168885238Y-81058571D01*
X168932857Y-81010952D01*
X169028095Y-80963333D01*
X169266190Y-80963333D01*
X169361428Y-81010952D01*
X169409047Y-81058571D01*
X169456666Y-81153809D01*
X169456666Y-81391904D01*
X169409047Y-81487142D01*
X169361428Y-81534761D01*
X169266190Y-81582380D01*
X169028095Y-81582380D01*
X168932857Y-81534761D01*
X168885238Y-81487142D01*
%TO.C,J3*%
X159516666Y-80582380D02*
X159516666Y-81296666D01*
X159469047Y-81439523D01*
X159373809Y-81534761D01*
X159230952Y-81582380D01*
X159135714Y-81582380D01*
X159897619Y-80582380D02*
X160516666Y-80582380D01*
X160183333Y-80963333D01*
X160326190Y-80963333D01*
X160421428Y-81010952D01*
X160469047Y-81058571D01*
X160516666Y-81153809D01*
X160516666Y-81391904D01*
X160469047Y-81487142D01*
X160421428Y-81534761D01*
X160326190Y-81582380D01*
X160040476Y-81582380D01*
X159945238Y-81534761D01*
X159897619Y-81487142D01*
%TO.C,J1*%
X150576666Y-80582380D02*
X150576666Y-81296666D01*
X150529047Y-81439523D01*
X150433809Y-81534761D01*
X150290952Y-81582380D01*
X150195714Y-81582380D01*
X151576666Y-81582380D02*
X151005238Y-81582380D01*
X151290952Y-81582380D02*
X151290952Y-80582380D01*
X151195714Y-80725238D01*
X151100476Y-80820476D01*
X151005238Y-80868095D01*
%TD*%
M02*
