%TF.GenerationSoftware,KiCad,Pcbnew,(6.0.7)*%
%TF.CreationDate,2023-04-05T23:06:48+08:00*%
%TF.ProjectId,MicroUSB2TypeC,4d696372-6f55-4534-9232-54797065432e,rev?*%
%TF.SameCoordinates,Original*%
%TF.FileFunction,Legend,Bot*%
%TF.FilePolarity,Positive*%
%FSLAX46Y46*%
G04 Gerber Fmt 4.6, Leading zero omitted, Abs format (unit mm)*
G04 Created by KiCad (PCBNEW (6.0.7)) date 2023-04-05 23:06:48*
%MOMM*%
%LPD*%
G01*
G04 APERTURE LIST*
%ADD10C,0.150000*%
%ADD11C,0.120000*%
G04 APERTURE END LIST*
D10*
%TO.C,R2*%
X188052380Y-93493333D02*
X187576190Y-93160000D01*
X188052380Y-92921904D02*
X187052380Y-92921904D01*
X187052380Y-93302857D01*
X187100000Y-93398095D01*
X187147619Y-93445714D01*
X187242857Y-93493333D01*
X187385714Y-93493333D01*
X187480952Y-93445714D01*
X187528571Y-93398095D01*
X187576190Y-93302857D01*
X187576190Y-92921904D01*
X187147619Y-93874285D02*
X187100000Y-93921904D01*
X187052380Y-94017142D01*
X187052380Y-94255238D01*
X187100000Y-94350476D01*
X187147619Y-94398095D01*
X187242857Y-94445714D01*
X187338095Y-94445714D01*
X187480952Y-94398095D01*
X188052380Y-93826666D01*
X188052380Y-94445714D01*
%TO.C,R1*%
X180522380Y-93513333D02*
X180046190Y-93180000D01*
X180522380Y-92941904D02*
X179522380Y-92941904D01*
X179522380Y-93322857D01*
X179570000Y-93418095D01*
X179617619Y-93465714D01*
X179712857Y-93513333D01*
X179855714Y-93513333D01*
X179950952Y-93465714D01*
X179998571Y-93418095D01*
X180046190Y-93322857D01*
X180046190Y-92941904D01*
X180522380Y-94465714D02*
X180522380Y-93894285D01*
X180522380Y-94180000D02*
X179522380Y-94180000D01*
X179665238Y-94084761D01*
X179760476Y-93989523D01*
X179808095Y-93894285D01*
%TO.C,J2*%
X184153333Y-93262380D02*
X184153333Y-93976666D01*
X184200952Y-94119523D01*
X184296190Y-94214761D01*
X184439047Y-94262380D01*
X184534285Y-94262380D01*
X183724761Y-93357619D02*
X183677142Y-93310000D01*
X183581904Y-93262380D01*
X183343809Y-93262380D01*
X183248571Y-93310000D01*
X183200952Y-93357619D01*
X183153333Y-93452857D01*
X183153333Y-93548095D01*
X183200952Y-93690952D01*
X183772380Y-94262380D01*
X183153333Y-94262380D01*
%TO.C,R2*%
X179112380Y-93493333D02*
X178636190Y-93160000D01*
X179112380Y-92921904D02*
X178112380Y-92921904D01*
X178112380Y-93302857D01*
X178160000Y-93398095D01*
X178207619Y-93445714D01*
X178302857Y-93493333D01*
X178445714Y-93493333D01*
X178540952Y-93445714D01*
X178588571Y-93398095D01*
X178636190Y-93302857D01*
X178636190Y-92921904D01*
X178207619Y-93874285D02*
X178160000Y-93921904D01*
X178112380Y-94017142D01*
X178112380Y-94255238D01*
X178160000Y-94350476D01*
X178207619Y-94398095D01*
X178302857Y-94445714D01*
X178398095Y-94445714D01*
X178540952Y-94398095D01*
X179112380Y-93826666D01*
X179112380Y-94445714D01*
%TO.C,R1*%
X171582380Y-93513333D02*
X171106190Y-93180000D01*
X171582380Y-92941904D02*
X170582380Y-92941904D01*
X170582380Y-93322857D01*
X170630000Y-93418095D01*
X170677619Y-93465714D01*
X170772857Y-93513333D01*
X170915714Y-93513333D01*
X171010952Y-93465714D01*
X171058571Y-93418095D01*
X171106190Y-93322857D01*
X171106190Y-92941904D01*
X171582380Y-94465714D02*
X171582380Y-93894285D01*
X171582380Y-94180000D02*
X170582380Y-94180000D01*
X170725238Y-94084761D01*
X170820476Y-93989523D01*
X170868095Y-93894285D01*
%TO.C,J2*%
X175213333Y-93262380D02*
X175213333Y-93976666D01*
X175260952Y-94119523D01*
X175356190Y-94214761D01*
X175499047Y-94262380D01*
X175594285Y-94262380D01*
X174784761Y-93357619D02*
X174737142Y-93310000D01*
X174641904Y-93262380D01*
X174403809Y-93262380D01*
X174308571Y-93310000D01*
X174260952Y-93357619D01*
X174213333Y-93452857D01*
X174213333Y-93548095D01*
X174260952Y-93690952D01*
X174832380Y-94262380D01*
X174213333Y-94262380D01*
%TO.C,R2*%
X170172380Y-93493333D02*
X169696190Y-93160000D01*
X170172380Y-92921904D02*
X169172380Y-92921904D01*
X169172380Y-93302857D01*
X169220000Y-93398095D01*
X169267619Y-93445714D01*
X169362857Y-93493333D01*
X169505714Y-93493333D01*
X169600952Y-93445714D01*
X169648571Y-93398095D01*
X169696190Y-93302857D01*
X169696190Y-92921904D01*
X169267619Y-93874285D02*
X169220000Y-93921904D01*
X169172380Y-94017142D01*
X169172380Y-94255238D01*
X169220000Y-94350476D01*
X169267619Y-94398095D01*
X169362857Y-94445714D01*
X169458095Y-94445714D01*
X169600952Y-94398095D01*
X170172380Y-93826666D01*
X170172380Y-94445714D01*
%TO.C,J2*%
X166273333Y-93262380D02*
X166273333Y-93976666D01*
X166320952Y-94119523D01*
X166416190Y-94214761D01*
X166559047Y-94262380D01*
X166654285Y-94262380D01*
X165844761Y-93357619D02*
X165797142Y-93310000D01*
X165701904Y-93262380D01*
X165463809Y-93262380D01*
X165368571Y-93310000D01*
X165320952Y-93357619D01*
X165273333Y-93452857D01*
X165273333Y-93548095D01*
X165320952Y-93690952D01*
X165892380Y-94262380D01*
X165273333Y-94262380D01*
%TO.C,R1*%
X162642380Y-93513333D02*
X162166190Y-93180000D01*
X162642380Y-92941904D02*
X161642380Y-92941904D01*
X161642380Y-93322857D01*
X161690000Y-93418095D01*
X161737619Y-93465714D01*
X161832857Y-93513333D01*
X161975714Y-93513333D01*
X162070952Y-93465714D01*
X162118571Y-93418095D01*
X162166190Y-93322857D01*
X162166190Y-92941904D01*
X162642380Y-94465714D02*
X162642380Y-93894285D01*
X162642380Y-94180000D02*
X161642380Y-94180000D01*
X161785238Y-94084761D01*
X161880476Y-93989523D01*
X161928095Y-93894285D01*
%TO.C,R2*%
X161232380Y-93493333D02*
X160756190Y-93160000D01*
X161232380Y-92921904D02*
X160232380Y-92921904D01*
X160232380Y-93302857D01*
X160280000Y-93398095D01*
X160327619Y-93445714D01*
X160422857Y-93493333D01*
X160565714Y-93493333D01*
X160660952Y-93445714D01*
X160708571Y-93398095D01*
X160756190Y-93302857D01*
X160756190Y-92921904D01*
X160327619Y-93874285D02*
X160280000Y-93921904D01*
X160232380Y-94017142D01*
X160232380Y-94255238D01*
X160280000Y-94350476D01*
X160327619Y-94398095D01*
X160422857Y-94445714D01*
X160518095Y-94445714D01*
X160660952Y-94398095D01*
X161232380Y-93826666D01*
X161232380Y-94445714D01*
%TO.C,R1*%
X153702380Y-93513333D02*
X153226190Y-93180000D01*
X153702380Y-92941904D02*
X152702380Y-92941904D01*
X152702380Y-93322857D01*
X152750000Y-93418095D01*
X152797619Y-93465714D01*
X152892857Y-93513333D01*
X153035714Y-93513333D01*
X153130952Y-93465714D01*
X153178571Y-93418095D01*
X153226190Y-93322857D01*
X153226190Y-92941904D01*
X153702380Y-94465714D02*
X153702380Y-93894285D01*
X153702380Y-94180000D02*
X152702380Y-94180000D01*
X152845238Y-94084761D01*
X152940476Y-93989523D01*
X152988095Y-93894285D01*
%TO.C,J2*%
X157333333Y-93262380D02*
X157333333Y-93976666D01*
X157380952Y-94119523D01*
X157476190Y-94214761D01*
X157619047Y-94262380D01*
X157714285Y-94262380D01*
X156904761Y-93357619D02*
X156857142Y-93310000D01*
X156761904Y-93262380D01*
X156523809Y-93262380D01*
X156428571Y-93310000D01*
X156380952Y-93357619D01*
X156333333Y-93452857D01*
X156333333Y-93548095D01*
X156380952Y-93690952D01*
X156952380Y-94262380D01*
X156333333Y-94262380D01*
%TO.C,R1*%
X144762380Y-93513333D02*
X144286190Y-93180000D01*
X144762380Y-92941904D02*
X143762380Y-92941904D01*
X143762380Y-93322857D01*
X143810000Y-93418095D01*
X143857619Y-93465714D01*
X143952857Y-93513333D01*
X144095714Y-93513333D01*
X144190952Y-93465714D01*
X144238571Y-93418095D01*
X144286190Y-93322857D01*
X144286190Y-92941904D01*
X144762380Y-94465714D02*
X144762380Y-93894285D01*
X144762380Y-94180000D02*
X143762380Y-94180000D01*
X143905238Y-94084761D01*
X144000476Y-93989523D01*
X144048095Y-93894285D01*
%TO.C,J2*%
X148393333Y-93262380D02*
X148393333Y-93976666D01*
X148440952Y-94119523D01*
X148536190Y-94214761D01*
X148679047Y-94262380D01*
X148774285Y-94262380D01*
X147964761Y-93357619D02*
X147917142Y-93310000D01*
X147821904Y-93262380D01*
X147583809Y-93262380D01*
X147488571Y-93310000D01*
X147440952Y-93357619D01*
X147393333Y-93452857D01*
X147393333Y-93548095D01*
X147440952Y-93690952D01*
X148012380Y-94262380D01*
X147393333Y-94262380D01*
%TO.C,R2*%
X152292380Y-93493333D02*
X151816190Y-93160000D01*
X152292380Y-92921904D02*
X151292380Y-92921904D01*
X151292380Y-93302857D01*
X151340000Y-93398095D01*
X151387619Y-93445714D01*
X151482857Y-93493333D01*
X151625714Y-93493333D01*
X151720952Y-93445714D01*
X151768571Y-93398095D01*
X151816190Y-93302857D01*
X151816190Y-92921904D01*
X151387619Y-93874285D02*
X151340000Y-93921904D01*
X151292380Y-94017142D01*
X151292380Y-94255238D01*
X151340000Y-94350476D01*
X151387619Y-94398095D01*
X151482857Y-94445714D01*
X151578095Y-94445714D01*
X151720952Y-94398095D01*
X152292380Y-93826666D01*
X152292380Y-94445714D01*
X188052380Y-90333333D02*
X187576190Y-90000000D01*
X188052380Y-89761904D02*
X187052380Y-89761904D01*
X187052380Y-90142857D01*
X187100000Y-90238095D01*
X187147619Y-90285714D01*
X187242857Y-90333333D01*
X187385714Y-90333333D01*
X187480952Y-90285714D01*
X187528571Y-90238095D01*
X187576190Y-90142857D01*
X187576190Y-89761904D01*
X187147619Y-90714285D02*
X187100000Y-90761904D01*
X187052380Y-90857142D01*
X187052380Y-91095238D01*
X187100000Y-91190476D01*
X187147619Y-91238095D01*
X187242857Y-91285714D01*
X187338095Y-91285714D01*
X187480952Y-91238095D01*
X188052380Y-90666666D01*
X188052380Y-91285714D01*
%TO.C,R1*%
X180522380Y-90353333D02*
X180046190Y-90020000D01*
X180522380Y-89781904D02*
X179522380Y-89781904D01*
X179522380Y-90162857D01*
X179570000Y-90258095D01*
X179617619Y-90305714D01*
X179712857Y-90353333D01*
X179855714Y-90353333D01*
X179950952Y-90305714D01*
X179998571Y-90258095D01*
X180046190Y-90162857D01*
X180046190Y-89781904D01*
X180522380Y-91305714D02*
X180522380Y-90734285D01*
X180522380Y-91020000D02*
X179522380Y-91020000D01*
X179665238Y-90924761D01*
X179760476Y-90829523D01*
X179808095Y-90734285D01*
%TO.C,J2*%
X184153333Y-90102380D02*
X184153333Y-90816666D01*
X184200952Y-90959523D01*
X184296190Y-91054761D01*
X184439047Y-91102380D01*
X184534285Y-91102380D01*
X183724761Y-90197619D02*
X183677142Y-90150000D01*
X183581904Y-90102380D01*
X183343809Y-90102380D01*
X183248571Y-90150000D01*
X183200952Y-90197619D01*
X183153333Y-90292857D01*
X183153333Y-90388095D01*
X183200952Y-90530952D01*
X183772380Y-91102380D01*
X183153333Y-91102380D01*
%TO.C,R2*%
X179112380Y-90333333D02*
X178636190Y-90000000D01*
X179112380Y-89761904D02*
X178112380Y-89761904D01*
X178112380Y-90142857D01*
X178160000Y-90238095D01*
X178207619Y-90285714D01*
X178302857Y-90333333D01*
X178445714Y-90333333D01*
X178540952Y-90285714D01*
X178588571Y-90238095D01*
X178636190Y-90142857D01*
X178636190Y-89761904D01*
X178207619Y-90714285D02*
X178160000Y-90761904D01*
X178112380Y-90857142D01*
X178112380Y-91095238D01*
X178160000Y-91190476D01*
X178207619Y-91238095D01*
X178302857Y-91285714D01*
X178398095Y-91285714D01*
X178540952Y-91238095D01*
X179112380Y-90666666D01*
X179112380Y-91285714D01*
%TO.C,R1*%
X171582380Y-90353333D02*
X171106190Y-90020000D01*
X171582380Y-89781904D02*
X170582380Y-89781904D01*
X170582380Y-90162857D01*
X170630000Y-90258095D01*
X170677619Y-90305714D01*
X170772857Y-90353333D01*
X170915714Y-90353333D01*
X171010952Y-90305714D01*
X171058571Y-90258095D01*
X171106190Y-90162857D01*
X171106190Y-89781904D01*
X171582380Y-91305714D02*
X171582380Y-90734285D01*
X171582380Y-91020000D02*
X170582380Y-91020000D01*
X170725238Y-90924761D01*
X170820476Y-90829523D01*
X170868095Y-90734285D01*
%TO.C,J2*%
X175213333Y-90102380D02*
X175213333Y-90816666D01*
X175260952Y-90959523D01*
X175356190Y-91054761D01*
X175499047Y-91102380D01*
X175594285Y-91102380D01*
X174784761Y-90197619D02*
X174737142Y-90150000D01*
X174641904Y-90102380D01*
X174403809Y-90102380D01*
X174308571Y-90150000D01*
X174260952Y-90197619D01*
X174213333Y-90292857D01*
X174213333Y-90388095D01*
X174260952Y-90530952D01*
X174832380Y-91102380D01*
X174213333Y-91102380D01*
%TO.C,R2*%
X170172380Y-90333333D02*
X169696190Y-90000000D01*
X170172380Y-89761904D02*
X169172380Y-89761904D01*
X169172380Y-90142857D01*
X169220000Y-90238095D01*
X169267619Y-90285714D01*
X169362857Y-90333333D01*
X169505714Y-90333333D01*
X169600952Y-90285714D01*
X169648571Y-90238095D01*
X169696190Y-90142857D01*
X169696190Y-89761904D01*
X169267619Y-90714285D02*
X169220000Y-90761904D01*
X169172380Y-90857142D01*
X169172380Y-91095238D01*
X169220000Y-91190476D01*
X169267619Y-91238095D01*
X169362857Y-91285714D01*
X169458095Y-91285714D01*
X169600952Y-91238095D01*
X170172380Y-90666666D01*
X170172380Y-91285714D01*
%TO.C,R1*%
X162642380Y-90353333D02*
X162166190Y-90020000D01*
X162642380Y-89781904D02*
X161642380Y-89781904D01*
X161642380Y-90162857D01*
X161690000Y-90258095D01*
X161737619Y-90305714D01*
X161832857Y-90353333D01*
X161975714Y-90353333D01*
X162070952Y-90305714D01*
X162118571Y-90258095D01*
X162166190Y-90162857D01*
X162166190Y-89781904D01*
X162642380Y-91305714D02*
X162642380Y-90734285D01*
X162642380Y-91020000D02*
X161642380Y-91020000D01*
X161785238Y-90924761D01*
X161880476Y-90829523D01*
X161928095Y-90734285D01*
%TO.C,J2*%
X166273333Y-90102380D02*
X166273333Y-90816666D01*
X166320952Y-90959523D01*
X166416190Y-91054761D01*
X166559047Y-91102380D01*
X166654285Y-91102380D01*
X165844761Y-90197619D02*
X165797142Y-90150000D01*
X165701904Y-90102380D01*
X165463809Y-90102380D01*
X165368571Y-90150000D01*
X165320952Y-90197619D01*
X165273333Y-90292857D01*
X165273333Y-90388095D01*
X165320952Y-90530952D01*
X165892380Y-91102380D01*
X165273333Y-91102380D01*
%TO.C,R2*%
X161232380Y-90333333D02*
X160756190Y-90000000D01*
X161232380Y-89761904D02*
X160232380Y-89761904D01*
X160232380Y-90142857D01*
X160280000Y-90238095D01*
X160327619Y-90285714D01*
X160422857Y-90333333D01*
X160565714Y-90333333D01*
X160660952Y-90285714D01*
X160708571Y-90238095D01*
X160756190Y-90142857D01*
X160756190Y-89761904D01*
X160327619Y-90714285D02*
X160280000Y-90761904D01*
X160232380Y-90857142D01*
X160232380Y-91095238D01*
X160280000Y-91190476D01*
X160327619Y-91238095D01*
X160422857Y-91285714D01*
X160518095Y-91285714D01*
X160660952Y-91238095D01*
X161232380Y-90666666D01*
X161232380Y-91285714D01*
%TO.C,R1*%
X153702380Y-90353333D02*
X153226190Y-90020000D01*
X153702380Y-89781904D02*
X152702380Y-89781904D01*
X152702380Y-90162857D01*
X152750000Y-90258095D01*
X152797619Y-90305714D01*
X152892857Y-90353333D01*
X153035714Y-90353333D01*
X153130952Y-90305714D01*
X153178571Y-90258095D01*
X153226190Y-90162857D01*
X153226190Y-89781904D01*
X153702380Y-91305714D02*
X153702380Y-90734285D01*
X153702380Y-91020000D02*
X152702380Y-91020000D01*
X152845238Y-90924761D01*
X152940476Y-90829523D01*
X152988095Y-90734285D01*
%TO.C,J2*%
X157333333Y-90102380D02*
X157333333Y-90816666D01*
X157380952Y-90959523D01*
X157476190Y-91054761D01*
X157619047Y-91102380D01*
X157714285Y-91102380D01*
X156904761Y-90197619D02*
X156857142Y-90150000D01*
X156761904Y-90102380D01*
X156523809Y-90102380D01*
X156428571Y-90150000D01*
X156380952Y-90197619D01*
X156333333Y-90292857D01*
X156333333Y-90388095D01*
X156380952Y-90530952D01*
X156952380Y-91102380D01*
X156333333Y-91102380D01*
%TO.C,R2*%
X152292380Y-90333333D02*
X151816190Y-90000000D01*
X152292380Y-89761904D02*
X151292380Y-89761904D01*
X151292380Y-90142857D01*
X151340000Y-90238095D01*
X151387619Y-90285714D01*
X151482857Y-90333333D01*
X151625714Y-90333333D01*
X151720952Y-90285714D01*
X151768571Y-90238095D01*
X151816190Y-90142857D01*
X151816190Y-89761904D01*
X151387619Y-90714285D02*
X151340000Y-90761904D01*
X151292380Y-90857142D01*
X151292380Y-91095238D01*
X151340000Y-91190476D01*
X151387619Y-91238095D01*
X151482857Y-91285714D01*
X151578095Y-91285714D01*
X151720952Y-91238095D01*
X152292380Y-90666666D01*
X152292380Y-91285714D01*
%TO.C,R1*%
X144762380Y-90353333D02*
X144286190Y-90020000D01*
X144762380Y-89781904D02*
X143762380Y-89781904D01*
X143762380Y-90162857D01*
X143810000Y-90258095D01*
X143857619Y-90305714D01*
X143952857Y-90353333D01*
X144095714Y-90353333D01*
X144190952Y-90305714D01*
X144238571Y-90258095D01*
X144286190Y-90162857D01*
X144286190Y-89781904D01*
X144762380Y-91305714D02*
X144762380Y-90734285D01*
X144762380Y-91020000D02*
X143762380Y-91020000D01*
X143905238Y-90924761D01*
X144000476Y-90829523D01*
X144048095Y-90734285D01*
%TO.C,J2*%
X148393333Y-90102380D02*
X148393333Y-90816666D01*
X148440952Y-90959523D01*
X148536190Y-91054761D01*
X148679047Y-91102380D01*
X148774285Y-91102380D01*
X147964761Y-90197619D02*
X147917142Y-90150000D01*
X147821904Y-90102380D01*
X147583809Y-90102380D01*
X147488571Y-90150000D01*
X147440952Y-90197619D01*
X147393333Y-90292857D01*
X147393333Y-90388095D01*
X147440952Y-90530952D01*
X148012380Y-91102380D01*
X147393333Y-91102380D01*
%TO.C,R2*%
X188052380Y-87173333D02*
X187576190Y-86840000D01*
X188052380Y-86601904D02*
X187052380Y-86601904D01*
X187052380Y-86982857D01*
X187100000Y-87078095D01*
X187147619Y-87125714D01*
X187242857Y-87173333D01*
X187385714Y-87173333D01*
X187480952Y-87125714D01*
X187528571Y-87078095D01*
X187576190Y-86982857D01*
X187576190Y-86601904D01*
X187147619Y-87554285D02*
X187100000Y-87601904D01*
X187052380Y-87697142D01*
X187052380Y-87935238D01*
X187100000Y-88030476D01*
X187147619Y-88078095D01*
X187242857Y-88125714D01*
X187338095Y-88125714D01*
X187480952Y-88078095D01*
X188052380Y-87506666D01*
X188052380Y-88125714D01*
%TO.C,R1*%
X180522380Y-87193333D02*
X180046190Y-86860000D01*
X180522380Y-86621904D02*
X179522380Y-86621904D01*
X179522380Y-87002857D01*
X179570000Y-87098095D01*
X179617619Y-87145714D01*
X179712857Y-87193333D01*
X179855714Y-87193333D01*
X179950952Y-87145714D01*
X179998571Y-87098095D01*
X180046190Y-87002857D01*
X180046190Y-86621904D01*
X180522380Y-88145714D02*
X180522380Y-87574285D01*
X180522380Y-87860000D02*
X179522380Y-87860000D01*
X179665238Y-87764761D01*
X179760476Y-87669523D01*
X179808095Y-87574285D01*
%TO.C,J2*%
X184153333Y-86942380D02*
X184153333Y-87656666D01*
X184200952Y-87799523D01*
X184296190Y-87894761D01*
X184439047Y-87942380D01*
X184534285Y-87942380D01*
X183724761Y-87037619D02*
X183677142Y-86990000D01*
X183581904Y-86942380D01*
X183343809Y-86942380D01*
X183248571Y-86990000D01*
X183200952Y-87037619D01*
X183153333Y-87132857D01*
X183153333Y-87228095D01*
X183200952Y-87370952D01*
X183772380Y-87942380D01*
X183153333Y-87942380D01*
%TO.C,R2*%
X179112380Y-87173333D02*
X178636190Y-86840000D01*
X179112380Y-86601904D02*
X178112380Y-86601904D01*
X178112380Y-86982857D01*
X178160000Y-87078095D01*
X178207619Y-87125714D01*
X178302857Y-87173333D01*
X178445714Y-87173333D01*
X178540952Y-87125714D01*
X178588571Y-87078095D01*
X178636190Y-86982857D01*
X178636190Y-86601904D01*
X178207619Y-87554285D02*
X178160000Y-87601904D01*
X178112380Y-87697142D01*
X178112380Y-87935238D01*
X178160000Y-88030476D01*
X178207619Y-88078095D01*
X178302857Y-88125714D01*
X178398095Y-88125714D01*
X178540952Y-88078095D01*
X179112380Y-87506666D01*
X179112380Y-88125714D01*
%TO.C,R1*%
X171582380Y-87193333D02*
X171106190Y-86860000D01*
X171582380Y-86621904D02*
X170582380Y-86621904D01*
X170582380Y-87002857D01*
X170630000Y-87098095D01*
X170677619Y-87145714D01*
X170772857Y-87193333D01*
X170915714Y-87193333D01*
X171010952Y-87145714D01*
X171058571Y-87098095D01*
X171106190Y-87002857D01*
X171106190Y-86621904D01*
X171582380Y-88145714D02*
X171582380Y-87574285D01*
X171582380Y-87860000D02*
X170582380Y-87860000D01*
X170725238Y-87764761D01*
X170820476Y-87669523D01*
X170868095Y-87574285D01*
%TO.C,J2*%
X175213333Y-86942380D02*
X175213333Y-87656666D01*
X175260952Y-87799523D01*
X175356190Y-87894761D01*
X175499047Y-87942380D01*
X175594285Y-87942380D01*
X174784761Y-87037619D02*
X174737142Y-86990000D01*
X174641904Y-86942380D01*
X174403809Y-86942380D01*
X174308571Y-86990000D01*
X174260952Y-87037619D01*
X174213333Y-87132857D01*
X174213333Y-87228095D01*
X174260952Y-87370952D01*
X174832380Y-87942380D01*
X174213333Y-87942380D01*
%TO.C,R2*%
X170172380Y-87173333D02*
X169696190Y-86840000D01*
X170172380Y-86601904D02*
X169172380Y-86601904D01*
X169172380Y-86982857D01*
X169220000Y-87078095D01*
X169267619Y-87125714D01*
X169362857Y-87173333D01*
X169505714Y-87173333D01*
X169600952Y-87125714D01*
X169648571Y-87078095D01*
X169696190Y-86982857D01*
X169696190Y-86601904D01*
X169267619Y-87554285D02*
X169220000Y-87601904D01*
X169172380Y-87697142D01*
X169172380Y-87935238D01*
X169220000Y-88030476D01*
X169267619Y-88078095D01*
X169362857Y-88125714D01*
X169458095Y-88125714D01*
X169600952Y-88078095D01*
X170172380Y-87506666D01*
X170172380Y-88125714D01*
%TO.C,R1*%
X162642380Y-87193333D02*
X162166190Y-86860000D01*
X162642380Y-86621904D02*
X161642380Y-86621904D01*
X161642380Y-87002857D01*
X161690000Y-87098095D01*
X161737619Y-87145714D01*
X161832857Y-87193333D01*
X161975714Y-87193333D01*
X162070952Y-87145714D01*
X162118571Y-87098095D01*
X162166190Y-87002857D01*
X162166190Y-86621904D01*
X162642380Y-88145714D02*
X162642380Y-87574285D01*
X162642380Y-87860000D02*
X161642380Y-87860000D01*
X161785238Y-87764761D01*
X161880476Y-87669523D01*
X161928095Y-87574285D01*
%TO.C,J2*%
X166273333Y-86942380D02*
X166273333Y-87656666D01*
X166320952Y-87799523D01*
X166416190Y-87894761D01*
X166559047Y-87942380D01*
X166654285Y-87942380D01*
X165844761Y-87037619D02*
X165797142Y-86990000D01*
X165701904Y-86942380D01*
X165463809Y-86942380D01*
X165368571Y-86990000D01*
X165320952Y-87037619D01*
X165273333Y-87132857D01*
X165273333Y-87228095D01*
X165320952Y-87370952D01*
X165892380Y-87942380D01*
X165273333Y-87942380D01*
%TO.C,R2*%
X161232380Y-87173333D02*
X160756190Y-86840000D01*
X161232380Y-86601904D02*
X160232380Y-86601904D01*
X160232380Y-86982857D01*
X160280000Y-87078095D01*
X160327619Y-87125714D01*
X160422857Y-87173333D01*
X160565714Y-87173333D01*
X160660952Y-87125714D01*
X160708571Y-87078095D01*
X160756190Y-86982857D01*
X160756190Y-86601904D01*
X160327619Y-87554285D02*
X160280000Y-87601904D01*
X160232380Y-87697142D01*
X160232380Y-87935238D01*
X160280000Y-88030476D01*
X160327619Y-88078095D01*
X160422857Y-88125714D01*
X160518095Y-88125714D01*
X160660952Y-88078095D01*
X161232380Y-87506666D01*
X161232380Y-88125714D01*
%TO.C,R1*%
X153702380Y-87193333D02*
X153226190Y-86860000D01*
X153702380Y-86621904D02*
X152702380Y-86621904D01*
X152702380Y-87002857D01*
X152750000Y-87098095D01*
X152797619Y-87145714D01*
X152892857Y-87193333D01*
X153035714Y-87193333D01*
X153130952Y-87145714D01*
X153178571Y-87098095D01*
X153226190Y-87002857D01*
X153226190Y-86621904D01*
X153702380Y-88145714D02*
X153702380Y-87574285D01*
X153702380Y-87860000D02*
X152702380Y-87860000D01*
X152845238Y-87764761D01*
X152940476Y-87669523D01*
X152988095Y-87574285D01*
%TO.C,J2*%
X157333333Y-86942380D02*
X157333333Y-87656666D01*
X157380952Y-87799523D01*
X157476190Y-87894761D01*
X157619047Y-87942380D01*
X157714285Y-87942380D01*
X156904761Y-87037619D02*
X156857142Y-86990000D01*
X156761904Y-86942380D01*
X156523809Y-86942380D01*
X156428571Y-86990000D01*
X156380952Y-87037619D01*
X156333333Y-87132857D01*
X156333333Y-87228095D01*
X156380952Y-87370952D01*
X156952380Y-87942380D01*
X156333333Y-87942380D01*
%TO.C,R2*%
X152292380Y-87173333D02*
X151816190Y-86840000D01*
X152292380Y-86601904D02*
X151292380Y-86601904D01*
X151292380Y-86982857D01*
X151340000Y-87078095D01*
X151387619Y-87125714D01*
X151482857Y-87173333D01*
X151625714Y-87173333D01*
X151720952Y-87125714D01*
X151768571Y-87078095D01*
X151816190Y-86982857D01*
X151816190Y-86601904D01*
X151387619Y-87554285D02*
X151340000Y-87601904D01*
X151292380Y-87697142D01*
X151292380Y-87935238D01*
X151340000Y-88030476D01*
X151387619Y-88078095D01*
X151482857Y-88125714D01*
X151578095Y-88125714D01*
X151720952Y-88078095D01*
X152292380Y-87506666D01*
X152292380Y-88125714D01*
%TO.C,R1*%
X144762380Y-87193333D02*
X144286190Y-86860000D01*
X144762380Y-86621904D02*
X143762380Y-86621904D01*
X143762380Y-87002857D01*
X143810000Y-87098095D01*
X143857619Y-87145714D01*
X143952857Y-87193333D01*
X144095714Y-87193333D01*
X144190952Y-87145714D01*
X144238571Y-87098095D01*
X144286190Y-87002857D01*
X144286190Y-86621904D01*
X144762380Y-88145714D02*
X144762380Y-87574285D01*
X144762380Y-87860000D02*
X143762380Y-87860000D01*
X143905238Y-87764761D01*
X144000476Y-87669523D01*
X144048095Y-87574285D01*
%TO.C,J2*%
X148393333Y-86942380D02*
X148393333Y-87656666D01*
X148440952Y-87799523D01*
X148536190Y-87894761D01*
X148679047Y-87942380D01*
X148774285Y-87942380D01*
X147964761Y-87037619D02*
X147917142Y-86990000D01*
X147821904Y-86942380D01*
X147583809Y-86942380D01*
X147488571Y-86990000D01*
X147440952Y-87037619D01*
X147393333Y-87132857D01*
X147393333Y-87228095D01*
X147440952Y-87370952D01*
X148012380Y-87942380D01*
X147393333Y-87942380D01*
%TO.C,R2*%
X188052380Y-84013333D02*
X187576190Y-83680000D01*
X188052380Y-83441904D02*
X187052380Y-83441904D01*
X187052380Y-83822857D01*
X187100000Y-83918095D01*
X187147619Y-83965714D01*
X187242857Y-84013333D01*
X187385714Y-84013333D01*
X187480952Y-83965714D01*
X187528571Y-83918095D01*
X187576190Y-83822857D01*
X187576190Y-83441904D01*
X187147619Y-84394285D02*
X187100000Y-84441904D01*
X187052380Y-84537142D01*
X187052380Y-84775238D01*
X187100000Y-84870476D01*
X187147619Y-84918095D01*
X187242857Y-84965714D01*
X187338095Y-84965714D01*
X187480952Y-84918095D01*
X188052380Y-84346666D01*
X188052380Y-84965714D01*
%TO.C,R1*%
X180522380Y-84033333D02*
X180046190Y-83700000D01*
X180522380Y-83461904D02*
X179522380Y-83461904D01*
X179522380Y-83842857D01*
X179570000Y-83938095D01*
X179617619Y-83985714D01*
X179712857Y-84033333D01*
X179855714Y-84033333D01*
X179950952Y-83985714D01*
X179998571Y-83938095D01*
X180046190Y-83842857D01*
X180046190Y-83461904D01*
X180522380Y-84985714D02*
X180522380Y-84414285D01*
X180522380Y-84700000D02*
X179522380Y-84700000D01*
X179665238Y-84604761D01*
X179760476Y-84509523D01*
X179808095Y-84414285D01*
%TO.C,J2*%
X184153333Y-83782380D02*
X184153333Y-84496666D01*
X184200952Y-84639523D01*
X184296190Y-84734761D01*
X184439047Y-84782380D01*
X184534285Y-84782380D01*
X183724761Y-83877619D02*
X183677142Y-83830000D01*
X183581904Y-83782380D01*
X183343809Y-83782380D01*
X183248571Y-83830000D01*
X183200952Y-83877619D01*
X183153333Y-83972857D01*
X183153333Y-84068095D01*
X183200952Y-84210952D01*
X183772380Y-84782380D01*
X183153333Y-84782380D01*
%TO.C,R2*%
X179112380Y-84013333D02*
X178636190Y-83680000D01*
X179112380Y-83441904D02*
X178112380Y-83441904D01*
X178112380Y-83822857D01*
X178160000Y-83918095D01*
X178207619Y-83965714D01*
X178302857Y-84013333D01*
X178445714Y-84013333D01*
X178540952Y-83965714D01*
X178588571Y-83918095D01*
X178636190Y-83822857D01*
X178636190Y-83441904D01*
X178207619Y-84394285D02*
X178160000Y-84441904D01*
X178112380Y-84537142D01*
X178112380Y-84775238D01*
X178160000Y-84870476D01*
X178207619Y-84918095D01*
X178302857Y-84965714D01*
X178398095Y-84965714D01*
X178540952Y-84918095D01*
X179112380Y-84346666D01*
X179112380Y-84965714D01*
%TO.C,R1*%
X171582380Y-84033333D02*
X171106190Y-83700000D01*
X171582380Y-83461904D02*
X170582380Y-83461904D01*
X170582380Y-83842857D01*
X170630000Y-83938095D01*
X170677619Y-83985714D01*
X170772857Y-84033333D01*
X170915714Y-84033333D01*
X171010952Y-83985714D01*
X171058571Y-83938095D01*
X171106190Y-83842857D01*
X171106190Y-83461904D01*
X171582380Y-84985714D02*
X171582380Y-84414285D01*
X171582380Y-84700000D02*
X170582380Y-84700000D01*
X170725238Y-84604761D01*
X170820476Y-84509523D01*
X170868095Y-84414285D01*
%TO.C,J2*%
X175213333Y-83782380D02*
X175213333Y-84496666D01*
X175260952Y-84639523D01*
X175356190Y-84734761D01*
X175499047Y-84782380D01*
X175594285Y-84782380D01*
X174784761Y-83877619D02*
X174737142Y-83830000D01*
X174641904Y-83782380D01*
X174403809Y-83782380D01*
X174308571Y-83830000D01*
X174260952Y-83877619D01*
X174213333Y-83972857D01*
X174213333Y-84068095D01*
X174260952Y-84210952D01*
X174832380Y-84782380D01*
X174213333Y-84782380D01*
%TO.C,R2*%
X170172380Y-84013333D02*
X169696190Y-83680000D01*
X170172380Y-83441904D02*
X169172380Y-83441904D01*
X169172380Y-83822857D01*
X169220000Y-83918095D01*
X169267619Y-83965714D01*
X169362857Y-84013333D01*
X169505714Y-84013333D01*
X169600952Y-83965714D01*
X169648571Y-83918095D01*
X169696190Y-83822857D01*
X169696190Y-83441904D01*
X169267619Y-84394285D02*
X169220000Y-84441904D01*
X169172380Y-84537142D01*
X169172380Y-84775238D01*
X169220000Y-84870476D01*
X169267619Y-84918095D01*
X169362857Y-84965714D01*
X169458095Y-84965714D01*
X169600952Y-84918095D01*
X170172380Y-84346666D01*
X170172380Y-84965714D01*
%TO.C,R1*%
X162642380Y-84033333D02*
X162166190Y-83700000D01*
X162642380Y-83461904D02*
X161642380Y-83461904D01*
X161642380Y-83842857D01*
X161690000Y-83938095D01*
X161737619Y-83985714D01*
X161832857Y-84033333D01*
X161975714Y-84033333D01*
X162070952Y-83985714D01*
X162118571Y-83938095D01*
X162166190Y-83842857D01*
X162166190Y-83461904D01*
X162642380Y-84985714D02*
X162642380Y-84414285D01*
X162642380Y-84700000D02*
X161642380Y-84700000D01*
X161785238Y-84604761D01*
X161880476Y-84509523D01*
X161928095Y-84414285D01*
%TO.C,J2*%
X166273333Y-83782380D02*
X166273333Y-84496666D01*
X166320952Y-84639523D01*
X166416190Y-84734761D01*
X166559047Y-84782380D01*
X166654285Y-84782380D01*
X165844761Y-83877619D02*
X165797142Y-83830000D01*
X165701904Y-83782380D01*
X165463809Y-83782380D01*
X165368571Y-83830000D01*
X165320952Y-83877619D01*
X165273333Y-83972857D01*
X165273333Y-84068095D01*
X165320952Y-84210952D01*
X165892380Y-84782380D01*
X165273333Y-84782380D01*
%TO.C,R2*%
X161232380Y-84013333D02*
X160756190Y-83680000D01*
X161232380Y-83441904D02*
X160232380Y-83441904D01*
X160232380Y-83822857D01*
X160280000Y-83918095D01*
X160327619Y-83965714D01*
X160422857Y-84013333D01*
X160565714Y-84013333D01*
X160660952Y-83965714D01*
X160708571Y-83918095D01*
X160756190Y-83822857D01*
X160756190Y-83441904D01*
X160327619Y-84394285D02*
X160280000Y-84441904D01*
X160232380Y-84537142D01*
X160232380Y-84775238D01*
X160280000Y-84870476D01*
X160327619Y-84918095D01*
X160422857Y-84965714D01*
X160518095Y-84965714D01*
X160660952Y-84918095D01*
X161232380Y-84346666D01*
X161232380Y-84965714D01*
%TO.C,R1*%
X153702380Y-84033333D02*
X153226190Y-83700000D01*
X153702380Y-83461904D02*
X152702380Y-83461904D01*
X152702380Y-83842857D01*
X152750000Y-83938095D01*
X152797619Y-83985714D01*
X152892857Y-84033333D01*
X153035714Y-84033333D01*
X153130952Y-83985714D01*
X153178571Y-83938095D01*
X153226190Y-83842857D01*
X153226190Y-83461904D01*
X153702380Y-84985714D02*
X153702380Y-84414285D01*
X153702380Y-84700000D02*
X152702380Y-84700000D01*
X152845238Y-84604761D01*
X152940476Y-84509523D01*
X152988095Y-84414285D01*
%TO.C,J2*%
X157333333Y-83782380D02*
X157333333Y-84496666D01*
X157380952Y-84639523D01*
X157476190Y-84734761D01*
X157619047Y-84782380D01*
X157714285Y-84782380D01*
X156904761Y-83877619D02*
X156857142Y-83830000D01*
X156761904Y-83782380D01*
X156523809Y-83782380D01*
X156428571Y-83830000D01*
X156380952Y-83877619D01*
X156333333Y-83972857D01*
X156333333Y-84068095D01*
X156380952Y-84210952D01*
X156952380Y-84782380D01*
X156333333Y-84782380D01*
%TO.C,R2*%
X152292380Y-84013333D02*
X151816190Y-83680000D01*
X152292380Y-83441904D02*
X151292380Y-83441904D01*
X151292380Y-83822857D01*
X151340000Y-83918095D01*
X151387619Y-83965714D01*
X151482857Y-84013333D01*
X151625714Y-84013333D01*
X151720952Y-83965714D01*
X151768571Y-83918095D01*
X151816190Y-83822857D01*
X151816190Y-83441904D01*
X151387619Y-84394285D02*
X151340000Y-84441904D01*
X151292380Y-84537142D01*
X151292380Y-84775238D01*
X151340000Y-84870476D01*
X151387619Y-84918095D01*
X151482857Y-84965714D01*
X151578095Y-84965714D01*
X151720952Y-84918095D01*
X152292380Y-84346666D01*
X152292380Y-84965714D01*
%TO.C,R1*%
X144762380Y-84033333D02*
X144286190Y-83700000D01*
X144762380Y-83461904D02*
X143762380Y-83461904D01*
X143762380Y-83842857D01*
X143810000Y-83938095D01*
X143857619Y-83985714D01*
X143952857Y-84033333D01*
X144095714Y-84033333D01*
X144190952Y-83985714D01*
X144238571Y-83938095D01*
X144286190Y-83842857D01*
X144286190Y-83461904D01*
X144762380Y-84985714D02*
X144762380Y-84414285D01*
X144762380Y-84700000D02*
X143762380Y-84700000D01*
X143905238Y-84604761D01*
X144000476Y-84509523D01*
X144048095Y-84414285D01*
%TO.C,J2*%
X148393333Y-83782380D02*
X148393333Y-84496666D01*
X148440952Y-84639523D01*
X148536190Y-84734761D01*
X148679047Y-84782380D01*
X148774285Y-84782380D01*
X147964761Y-83877619D02*
X147917142Y-83830000D01*
X147821904Y-83782380D01*
X147583809Y-83782380D01*
X147488571Y-83830000D01*
X147440952Y-83877619D01*
X147393333Y-83972857D01*
X147393333Y-84068095D01*
X147440952Y-84210952D01*
X148012380Y-84782380D01*
X147393333Y-84782380D01*
%TO.C,R2*%
X188052380Y-80853333D02*
X187576190Y-80520000D01*
X188052380Y-80281904D02*
X187052380Y-80281904D01*
X187052380Y-80662857D01*
X187100000Y-80758095D01*
X187147619Y-80805714D01*
X187242857Y-80853333D01*
X187385714Y-80853333D01*
X187480952Y-80805714D01*
X187528571Y-80758095D01*
X187576190Y-80662857D01*
X187576190Y-80281904D01*
X187147619Y-81234285D02*
X187100000Y-81281904D01*
X187052380Y-81377142D01*
X187052380Y-81615238D01*
X187100000Y-81710476D01*
X187147619Y-81758095D01*
X187242857Y-81805714D01*
X187338095Y-81805714D01*
X187480952Y-81758095D01*
X188052380Y-81186666D01*
X188052380Y-81805714D01*
%TO.C,R1*%
X180522380Y-80873333D02*
X180046190Y-80540000D01*
X180522380Y-80301904D02*
X179522380Y-80301904D01*
X179522380Y-80682857D01*
X179570000Y-80778095D01*
X179617619Y-80825714D01*
X179712857Y-80873333D01*
X179855714Y-80873333D01*
X179950952Y-80825714D01*
X179998571Y-80778095D01*
X180046190Y-80682857D01*
X180046190Y-80301904D01*
X180522380Y-81825714D02*
X180522380Y-81254285D01*
X180522380Y-81540000D02*
X179522380Y-81540000D01*
X179665238Y-81444761D01*
X179760476Y-81349523D01*
X179808095Y-81254285D01*
%TO.C,J2*%
X184153333Y-80622380D02*
X184153333Y-81336666D01*
X184200952Y-81479523D01*
X184296190Y-81574761D01*
X184439047Y-81622380D01*
X184534285Y-81622380D01*
X183724761Y-80717619D02*
X183677142Y-80670000D01*
X183581904Y-80622380D01*
X183343809Y-80622380D01*
X183248571Y-80670000D01*
X183200952Y-80717619D01*
X183153333Y-80812857D01*
X183153333Y-80908095D01*
X183200952Y-81050952D01*
X183772380Y-81622380D01*
X183153333Y-81622380D01*
%TO.C,R2*%
X179112380Y-80853333D02*
X178636190Y-80520000D01*
X179112380Y-80281904D02*
X178112380Y-80281904D01*
X178112380Y-80662857D01*
X178160000Y-80758095D01*
X178207619Y-80805714D01*
X178302857Y-80853333D01*
X178445714Y-80853333D01*
X178540952Y-80805714D01*
X178588571Y-80758095D01*
X178636190Y-80662857D01*
X178636190Y-80281904D01*
X178207619Y-81234285D02*
X178160000Y-81281904D01*
X178112380Y-81377142D01*
X178112380Y-81615238D01*
X178160000Y-81710476D01*
X178207619Y-81758095D01*
X178302857Y-81805714D01*
X178398095Y-81805714D01*
X178540952Y-81758095D01*
X179112380Y-81186666D01*
X179112380Y-81805714D01*
%TO.C,R1*%
X171582380Y-80873333D02*
X171106190Y-80540000D01*
X171582380Y-80301904D02*
X170582380Y-80301904D01*
X170582380Y-80682857D01*
X170630000Y-80778095D01*
X170677619Y-80825714D01*
X170772857Y-80873333D01*
X170915714Y-80873333D01*
X171010952Y-80825714D01*
X171058571Y-80778095D01*
X171106190Y-80682857D01*
X171106190Y-80301904D01*
X171582380Y-81825714D02*
X171582380Y-81254285D01*
X171582380Y-81540000D02*
X170582380Y-81540000D01*
X170725238Y-81444761D01*
X170820476Y-81349523D01*
X170868095Y-81254285D01*
%TO.C,J2*%
X175213333Y-80622380D02*
X175213333Y-81336666D01*
X175260952Y-81479523D01*
X175356190Y-81574761D01*
X175499047Y-81622380D01*
X175594285Y-81622380D01*
X174784761Y-80717619D02*
X174737142Y-80670000D01*
X174641904Y-80622380D01*
X174403809Y-80622380D01*
X174308571Y-80670000D01*
X174260952Y-80717619D01*
X174213333Y-80812857D01*
X174213333Y-80908095D01*
X174260952Y-81050952D01*
X174832380Y-81622380D01*
X174213333Y-81622380D01*
%TO.C,R2*%
X170172380Y-80853333D02*
X169696190Y-80520000D01*
X170172380Y-80281904D02*
X169172380Y-80281904D01*
X169172380Y-80662857D01*
X169220000Y-80758095D01*
X169267619Y-80805714D01*
X169362857Y-80853333D01*
X169505714Y-80853333D01*
X169600952Y-80805714D01*
X169648571Y-80758095D01*
X169696190Y-80662857D01*
X169696190Y-80281904D01*
X169267619Y-81234285D02*
X169220000Y-81281904D01*
X169172380Y-81377142D01*
X169172380Y-81615238D01*
X169220000Y-81710476D01*
X169267619Y-81758095D01*
X169362857Y-81805714D01*
X169458095Y-81805714D01*
X169600952Y-81758095D01*
X170172380Y-81186666D01*
X170172380Y-81805714D01*
%TO.C,R1*%
X162642380Y-80873333D02*
X162166190Y-80540000D01*
X162642380Y-80301904D02*
X161642380Y-80301904D01*
X161642380Y-80682857D01*
X161690000Y-80778095D01*
X161737619Y-80825714D01*
X161832857Y-80873333D01*
X161975714Y-80873333D01*
X162070952Y-80825714D01*
X162118571Y-80778095D01*
X162166190Y-80682857D01*
X162166190Y-80301904D01*
X162642380Y-81825714D02*
X162642380Y-81254285D01*
X162642380Y-81540000D02*
X161642380Y-81540000D01*
X161785238Y-81444761D01*
X161880476Y-81349523D01*
X161928095Y-81254285D01*
%TO.C,J2*%
X166273333Y-80622380D02*
X166273333Y-81336666D01*
X166320952Y-81479523D01*
X166416190Y-81574761D01*
X166559047Y-81622380D01*
X166654285Y-81622380D01*
X165844761Y-80717619D02*
X165797142Y-80670000D01*
X165701904Y-80622380D01*
X165463809Y-80622380D01*
X165368571Y-80670000D01*
X165320952Y-80717619D01*
X165273333Y-80812857D01*
X165273333Y-80908095D01*
X165320952Y-81050952D01*
X165892380Y-81622380D01*
X165273333Y-81622380D01*
%TO.C,R2*%
X161232380Y-80853333D02*
X160756190Y-80520000D01*
X161232380Y-80281904D02*
X160232380Y-80281904D01*
X160232380Y-80662857D01*
X160280000Y-80758095D01*
X160327619Y-80805714D01*
X160422857Y-80853333D01*
X160565714Y-80853333D01*
X160660952Y-80805714D01*
X160708571Y-80758095D01*
X160756190Y-80662857D01*
X160756190Y-80281904D01*
X160327619Y-81234285D02*
X160280000Y-81281904D01*
X160232380Y-81377142D01*
X160232380Y-81615238D01*
X160280000Y-81710476D01*
X160327619Y-81758095D01*
X160422857Y-81805714D01*
X160518095Y-81805714D01*
X160660952Y-81758095D01*
X161232380Y-81186666D01*
X161232380Y-81805714D01*
%TO.C,R1*%
X153702380Y-80873333D02*
X153226190Y-80540000D01*
X153702380Y-80301904D02*
X152702380Y-80301904D01*
X152702380Y-80682857D01*
X152750000Y-80778095D01*
X152797619Y-80825714D01*
X152892857Y-80873333D01*
X153035714Y-80873333D01*
X153130952Y-80825714D01*
X153178571Y-80778095D01*
X153226190Y-80682857D01*
X153226190Y-80301904D01*
X153702380Y-81825714D02*
X153702380Y-81254285D01*
X153702380Y-81540000D02*
X152702380Y-81540000D01*
X152845238Y-81444761D01*
X152940476Y-81349523D01*
X152988095Y-81254285D01*
%TO.C,J2*%
X157333333Y-80622380D02*
X157333333Y-81336666D01*
X157380952Y-81479523D01*
X157476190Y-81574761D01*
X157619047Y-81622380D01*
X157714285Y-81622380D01*
X156904761Y-80717619D02*
X156857142Y-80670000D01*
X156761904Y-80622380D01*
X156523809Y-80622380D01*
X156428571Y-80670000D01*
X156380952Y-80717619D01*
X156333333Y-80812857D01*
X156333333Y-80908095D01*
X156380952Y-81050952D01*
X156952380Y-81622380D01*
X156333333Y-81622380D01*
X148393333Y-80622380D02*
X148393333Y-81336666D01*
X148440952Y-81479523D01*
X148536190Y-81574761D01*
X148679047Y-81622380D01*
X148774285Y-81622380D01*
X147964761Y-80717619D02*
X147917142Y-80670000D01*
X147821904Y-80622380D01*
X147583809Y-80622380D01*
X147488571Y-80670000D01*
X147440952Y-80717619D01*
X147393333Y-80812857D01*
X147393333Y-80908095D01*
X147440952Y-81050952D01*
X148012380Y-81622380D01*
X147393333Y-81622380D01*
%TO.C,R1*%
X144762380Y-80873333D02*
X144286190Y-80540000D01*
X144762380Y-80301904D02*
X143762380Y-80301904D01*
X143762380Y-80682857D01*
X143810000Y-80778095D01*
X143857619Y-80825714D01*
X143952857Y-80873333D01*
X144095714Y-80873333D01*
X144190952Y-80825714D01*
X144238571Y-80778095D01*
X144286190Y-80682857D01*
X144286190Y-80301904D01*
X144762380Y-81825714D02*
X144762380Y-81254285D01*
X144762380Y-81540000D02*
X143762380Y-81540000D01*
X143905238Y-81444761D01*
X144000476Y-81349523D01*
X144048095Y-81254285D01*
%TO.C,R2*%
X152292380Y-80853333D02*
X151816190Y-80520000D01*
X152292380Y-80281904D02*
X151292380Y-80281904D01*
X151292380Y-80662857D01*
X151340000Y-80758095D01*
X151387619Y-80805714D01*
X151482857Y-80853333D01*
X151625714Y-80853333D01*
X151720952Y-80805714D01*
X151768571Y-80758095D01*
X151816190Y-80662857D01*
X151816190Y-80281904D01*
X151387619Y-81234285D02*
X151340000Y-81281904D01*
X151292380Y-81377142D01*
X151292380Y-81615238D01*
X151340000Y-81710476D01*
X151387619Y-81758095D01*
X151482857Y-81805714D01*
X151578095Y-81805714D01*
X151720952Y-81758095D01*
X152292380Y-81186666D01*
X152292380Y-81805714D01*
D11*
X186932500Y-93977258D02*
X186932500Y-93502742D01*
X185887500Y-93977258D02*
X185887500Y-93502742D01*
%TO.C,R1*%
X180737500Y-93977258D02*
X180737500Y-93502742D01*
X181782500Y-93977258D02*
X181782500Y-93502742D01*
%TO.C,R2*%
X177992500Y-93977258D02*
X177992500Y-93502742D01*
X176947500Y-93977258D02*
X176947500Y-93502742D01*
%TO.C,R1*%
X171797500Y-93977258D02*
X171797500Y-93502742D01*
X172842500Y-93977258D02*
X172842500Y-93502742D01*
%TO.C,R2*%
X169052500Y-93977258D02*
X169052500Y-93502742D01*
X168007500Y-93977258D02*
X168007500Y-93502742D01*
%TO.C,R1*%
X162857500Y-93977258D02*
X162857500Y-93502742D01*
X163902500Y-93977258D02*
X163902500Y-93502742D01*
%TO.C,R2*%
X160112500Y-93977258D02*
X160112500Y-93502742D01*
X159067500Y-93977258D02*
X159067500Y-93502742D01*
%TO.C,R1*%
X153917500Y-93977258D02*
X153917500Y-93502742D01*
X154962500Y-93977258D02*
X154962500Y-93502742D01*
X144977500Y-93977258D02*
X144977500Y-93502742D01*
X146022500Y-93977258D02*
X146022500Y-93502742D01*
%TO.C,R2*%
X151172500Y-93977258D02*
X151172500Y-93502742D01*
X150127500Y-93977258D02*
X150127500Y-93502742D01*
X186932500Y-90817258D02*
X186932500Y-90342742D01*
X185887500Y-90817258D02*
X185887500Y-90342742D01*
%TO.C,R1*%
X180737500Y-90817258D02*
X180737500Y-90342742D01*
X181782500Y-90817258D02*
X181782500Y-90342742D01*
%TO.C,R2*%
X177992500Y-90817258D02*
X177992500Y-90342742D01*
X176947500Y-90817258D02*
X176947500Y-90342742D01*
%TO.C,R1*%
X171797500Y-90817258D02*
X171797500Y-90342742D01*
X172842500Y-90817258D02*
X172842500Y-90342742D01*
%TO.C,R2*%
X169052500Y-90817258D02*
X169052500Y-90342742D01*
X168007500Y-90817258D02*
X168007500Y-90342742D01*
%TO.C,R1*%
X162857500Y-90817258D02*
X162857500Y-90342742D01*
X163902500Y-90817258D02*
X163902500Y-90342742D01*
%TO.C,R2*%
X160112500Y-90817258D02*
X160112500Y-90342742D01*
X159067500Y-90817258D02*
X159067500Y-90342742D01*
%TO.C,R1*%
X153917500Y-90817258D02*
X153917500Y-90342742D01*
X154962500Y-90817258D02*
X154962500Y-90342742D01*
%TO.C,R2*%
X151172500Y-90817258D02*
X151172500Y-90342742D01*
X150127500Y-90817258D02*
X150127500Y-90342742D01*
%TO.C,R1*%
X144977500Y-90817258D02*
X144977500Y-90342742D01*
X146022500Y-90817258D02*
X146022500Y-90342742D01*
%TO.C,R2*%
X186932500Y-87657258D02*
X186932500Y-87182742D01*
X185887500Y-87657258D02*
X185887500Y-87182742D01*
%TO.C,R1*%
X180737500Y-87657258D02*
X180737500Y-87182742D01*
X181782500Y-87657258D02*
X181782500Y-87182742D01*
%TO.C,R2*%
X177992500Y-87657258D02*
X177992500Y-87182742D01*
X176947500Y-87657258D02*
X176947500Y-87182742D01*
%TO.C,R1*%
X171797500Y-87657258D02*
X171797500Y-87182742D01*
X172842500Y-87657258D02*
X172842500Y-87182742D01*
%TO.C,R2*%
X169052500Y-87657258D02*
X169052500Y-87182742D01*
X168007500Y-87657258D02*
X168007500Y-87182742D01*
%TO.C,R1*%
X162857500Y-87657258D02*
X162857500Y-87182742D01*
X163902500Y-87657258D02*
X163902500Y-87182742D01*
%TO.C,R2*%
X160112500Y-87657258D02*
X160112500Y-87182742D01*
X159067500Y-87657258D02*
X159067500Y-87182742D01*
%TO.C,R1*%
X153917500Y-87657258D02*
X153917500Y-87182742D01*
X154962500Y-87657258D02*
X154962500Y-87182742D01*
%TO.C,R2*%
X151172500Y-87657258D02*
X151172500Y-87182742D01*
X150127500Y-87657258D02*
X150127500Y-87182742D01*
%TO.C,R1*%
X144977500Y-87657258D02*
X144977500Y-87182742D01*
X146022500Y-87657258D02*
X146022500Y-87182742D01*
%TO.C,R2*%
X186932500Y-84497258D02*
X186932500Y-84022742D01*
X185887500Y-84497258D02*
X185887500Y-84022742D01*
%TO.C,R1*%
X180737500Y-84497258D02*
X180737500Y-84022742D01*
X181782500Y-84497258D02*
X181782500Y-84022742D01*
%TO.C,R2*%
X177992500Y-84497258D02*
X177992500Y-84022742D01*
X176947500Y-84497258D02*
X176947500Y-84022742D01*
%TO.C,R1*%
X171797500Y-84497258D02*
X171797500Y-84022742D01*
X172842500Y-84497258D02*
X172842500Y-84022742D01*
%TO.C,R2*%
X169052500Y-84497258D02*
X169052500Y-84022742D01*
X168007500Y-84497258D02*
X168007500Y-84022742D01*
%TO.C,R1*%
X162857500Y-84497258D02*
X162857500Y-84022742D01*
X163902500Y-84497258D02*
X163902500Y-84022742D01*
%TO.C,R2*%
X160112500Y-84497258D02*
X160112500Y-84022742D01*
X159067500Y-84497258D02*
X159067500Y-84022742D01*
%TO.C,R1*%
X153917500Y-84497258D02*
X153917500Y-84022742D01*
X154962500Y-84497258D02*
X154962500Y-84022742D01*
%TO.C,R2*%
X151172500Y-84497258D02*
X151172500Y-84022742D01*
X150127500Y-84497258D02*
X150127500Y-84022742D01*
%TO.C,R1*%
X144977500Y-84497258D02*
X144977500Y-84022742D01*
X146022500Y-84497258D02*
X146022500Y-84022742D01*
%TO.C,R2*%
X186932500Y-81337258D02*
X186932500Y-80862742D01*
X185887500Y-81337258D02*
X185887500Y-80862742D01*
%TO.C,R1*%
X180737500Y-81337258D02*
X180737500Y-80862742D01*
X181782500Y-81337258D02*
X181782500Y-80862742D01*
%TO.C,R2*%
X177992500Y-81337258D02*
X177992500Y-80862742D01*
X176947500Y-81337258D02*
X176947500Y-80862742D01*
%TO.C,R1*%
X171797500Y-81337258D02*
X171797500Y-80862742D01*
X172842500Y-81337258D02*
X172842500Y-80862742D01*
%TO.C,R2*%
X169052500Y-81337258D02*
X169052500Y-80862742D01*
X168007500Y-81337258D02*
X168007500Y-80862742D01*
%TO.C,R1*%
X162857500Y-81337258D02*
X162857500Y-80862742D01*
X163902500Y-81337258D02*
X163902500Y-80862742D01*
%TO.C,R2*%
X160112500Y-81337258D02*
X160112500Y-80862742D01*
X159067500Y-81337258D02*
X159067500Y-80862742D01*
%TO.C,R1*%
X153917500Y-81337258D02*
X153917500Y-80862742D01*
X154962500Y-81337258D02*
X154962500Y-80862742D01*
X144977500Y-81337258D02*
X144977500Y-80862742D01*
X146022500Y-81337258D02*
X146022500Y-80862742D01*
%TO.C,R2*%
X151172500Y-81337258D02*
X151172500Y-80862742D01*
X150127500Y-81337258D02*
X150127500Y-80862742D01*
%TD*%
M02*
