%TF.GenerationSoftware,KiCad,Pcbnew,(6.0.7)*%
%TF.CreationDate,2023-04-07T20:00:28+08:00*%
%TF.ProjectId,MicroUSB2TypeCPanelization,4d696372-6f55-4534-9232-547970654350,rev?*%
%TF.SameCoordinates,Original*%
%TF.FileFunction,Paste,Top*%
%TF.FilePolarity,Positive*%
%FSLAX46Y46*%
G04 Gerber Fmt 4.6, Leading zero omitted, Abs format (unit mm)*
G04 Created by KiCad (PCBNEW (6.0.7)) date 2023-04-07 20:00:28*
%MOMM*%
%LPD*%
G01*
G04 APERTURE LIST*
G04 Aperture macros list*
%AMRoundRect*
0 Rectangle with rounded corners*
0 $1 Rounding radius*
0 $2 $3 $4 $5 $6 $7 $8 $9 X,Y pos of 4 corners*
0 Add a 4 corners polygon primitive as box body*
4,1,4,$2,$3,$4,$5,$6,$7,$8,$9,$2,$3,0*
0 Add four circle primitives for the rounded corners*
1,1,$1+$1,$2,$3*
1,1,$1+$1,$4,$5*
1,1,$1+$1,$6,$7*
1,1,$1+$1,$8,$9*
0 Add four rect primitives between the rounded corners*
20,1,$1+$1,$2,$3,$4,$5,0*
20,1,$1+$1,$4,$5,$6,$7,0*
20,1,$1+$1,$6,$7,$8,$9,0*
20,1,$1+$1,$8,$9,$2,$3,0*%
G04 Aperture macros list end*
%ADD10RoundRect,0.075000X-0.075000X-0.360000X0.075000X-0.360000X0.075000X0.360000X-0.075000X0.360000X0*%
%ADD11R,0.900000X0.500000*%
G04 APERTURE END LIST*
D10*
%TO.C,J279*%
X225792000Y-147241000D03*
X227292000Y-147241000D03*
X227792000Y-147241000D03*
X228292000Y-147241000D03*
X228792000Y-147241000D03*
X229292000Y-147241000D03*
X229792000Y-147241000D03*
X231292000Y-147241000D03*
X231292000Y-148971000D03*
X229792000Y-148971000D03*
X229292000Y-148971000D03*
X228792000Y-148971000D03*
X228292000Y-148971000D03*
X227792000Y-148971000D03*
X227292000Y-148971000D03*
X225792000Y-148971000D03*
D11*
X226142000Y-146756000D03*
X226142000Y-149456000D03*
X230942000Y-146756000D03*
X230942000Y-149456000D03*
%TD*%
D10*
%TO.C,J277*%
X216852000Y-147241000D03*
X218352000Y-147241000D03*
X218852000Y-147241000D03*
X219352000Y-147241000D03*
X219852000Y-147241000D03*
X220352000Y-147241000D03*
X220852000Y-147241000D03*
X222352000Y-147241000D03*
X222352000Y-148971000D03*
X220852000Y-148971000D03*
X220352000Y-148971000D03*
X219852000Y-148971000D03*
X219352000Y-148971000D03*
X218852000Y-148971000D03*
X218352000Y-148971000D03*
X216852000Y-148971000D03*
D11*
X217202000Y-146756000D03*
X217202000Y-149456000D03*
X222002000Y-146756000D03*
X222002000Y-149456000D03*
%TD*%
D10*
%TO.C,J275*%
X207912000Y-147241000D03*
X209412000Y-147241000D03*
X209912000Y-147241000D03*
X210412000Y-147241000D03*
X210912000Y-147241000D03*
X211412000Y-147241000D03*
X211912000Y-147241000D03*
X213412000Y-147241000D03*
X213412000Y-148971000D03*
X211912000Y-148971000D03*
X211412000Y-148971000D03*
X210912000Y-148971000D03*
X210412000Y-148971000D03*
X209912000Y-148971000D03*
X209412000Y-148971000D03*
X207912000Y-148971000D03*
D11*
X208262000Y-146756000D03*
X208262000Y-149456000D03*
X213062000Y-146756000D03*
X213062000Y-149456000D03*
%TD*%
D10*
%TO.C,J273*%
X198972000Y-147241000D03*
X200472000Y-147241000D03*
X200972000Y-147241000D03*
X201472000Y-147241000D03*
X201972000Y-147241000D03*
X202472000Y-147241000D03*
X202972000Y-147241000D03*
X204472000Y-147241000D03*
X204472000Y-148971000D03*
X202972000Y-148971000D03*
X202472000Y-148971000D03*
X201972000Y-148971000D03*
X201472000Y-148971000D03*
X200972000Y-148971000D03*
X200472000Y-148971000D03*
X198972000Y-148971000D03*
D11*
X199322000Y-146756000D03*
X199322000Y-149456000D03*
X204122000Y-146756000D03*
X204122000Y-149456000D03*
%TD*%
D10*
%TO.C,J271*%
X190032000Y-147241000D03*
X191532000Y-147241000D03*
X192032000Y-147241000D03*
X192532000Y-147241000D03*
X193032000Y-147241000D03*
X193532000Y-147241000D03*
X194032000Y-147241000D03*
X195532000Y-147241000D03*
X195532000Y-148971000D03*
X194032000Y-148971000D03*
X193532000Y-148971000D03*
X193032000Y-148971000D03*
X192532000Y-148971000D03*
X192032000Y-148971000D03*
X191532000Y-148971000D03*
X190032000Y-148971000D03*
D11*
X190382000Y-146756000D03*
X190382000Y-149456000D03*
X195182000Y-146756000D03*
X195182000Y-149456000D03*
%TD*%
D10*
%TO.C,J269*%
X181092000Y-147241000D03*
X182592000Y-147241000D03*
X183092000Y-147241000D03*
X183592000Y-147241000D03*
X184092000Y-147241000D03*
X184592000Y-147241000D03*
X185092000Y-147241000D03*
X186592000Y-147241000D03*
X186592000Y-148971000D03*
X185092000Y-148971000D03*
X184592000Y-148971000D03*
X184092000Y-148971000D03*
X183592000Y-148971000D03*
X183092000Y-148971000D03*
X182592000Y-148971000D03*
X181092000Y-148971000D03*
D11*
X181442000Y-146756000D03*
X181442000Y-149456000D03*
X186242000Y-146756000D03*
X186242000Y-149456000D03*
%TD*%
D10*
%TO.C,J267*%
X172152000Y-147241000D03*
X173652000Y-147241000D03*
X174152000Y-147241000D03*
X174652000Y-147241000D03*
X175152000Y-147241000D03*
X175652000Y-147241000D03*
X176152000Y-147241000D03*
X177652000Y-147241000D03*
X177652000Y-148971000D03*
X176152000Y-148971000D03*
X175652000Y-148971000D03*
X175152000Y-148971000D03*
X174652000Y-148971000D03*
X174152000Y-148971000D03*
X173652000Y-148971000D03*
X172152000Y-148971000D03*
D11*
X172502000Y-146756000D03*
X172502000Y-149456000D03*
X177302000Y-146756000D03*
X177302000Y-149456000D03*
%TD*%
D10*
%TO.C,J265*%
X163212000Y-147241000D03*
X164712000Y-147241000D03*
X165212000Y-147241000D03*
X165712000Y-147241000D03*
X166212000Y-147241000D03*
X166712000Y-147241000D03*
X167212000Y-147241000D03*
X168712000Y-147241000D03*
X168712000Y-148971000D03*
X167212000Y-148971000D03*
X166712000Y-148971000D03*
X166212000Y-148971000D03*
X165712000Y-148971000D03*
X165212000Y-148971000D03*
X164712000Y-148971000D03*
X163212000Y-148971000D03*
D11*
X163562000Y-146756000D03*
X163562000Y-149456000D03*
X168362000Y-146756000D03*
X168362000Y-149456000D03*
%TD*%
D10*
%TO.C,J263*%
X154272000Y-147241000D03*
X155772000Y-147241000D03*
X156272000Y-147241000D03*
X156772000Y-147241000D03*
X157272000Y-147241000D03*
X157772000Y-147241000D03*
X158272000Y-147241000D03*
X159772000Y-147241000D03*
X159772000Y-148971000D03*
X158272000Y-148971000D03*
X157772000Y-148971000D03*
X157272000Y-148971000D03*
X156772000Y-148971000D03*
X156272000Y-148971000D03*
X155772000Y-148971000D03*
X154272000Y-148971000D03*
D11*
X154622000Y-146756000D03*
X154622000Y-149456000D03*
X159422000Y-146756000D03*
X159422000Y-149456000D03*
%TD*%
D10*
%TO.C,J261*%
X145332000Y-147241000D03*
X146832000Y-147241000D03*
X147332000Y-147241000D03*
X147832000Y-147241000D03*
X148332000Y-147241000D03*
X148832000Y-147241000D03*
X149332000Y-147241000D03*
X150832000Y-147241000D03*
X150832000Y-148971000D03*
X149332000Y-148971000D03*
X148832000Y-148971000D03*
X148332000Y-148971000D03*
X147832000Y-148971000D03*
X147332000Y-148971000D03*
X146832000Y-148971000D03*
X145332000Y-148971000D03*
D11*
X145682000Y-146756000D03*
X145682000Y-149456000D03*
X150482000Y-146756000D03*
X150482000Y-149456000D03*
%TD*%
D10*
%TO.C,J259*%
X225792000Y-142081000D03*
X227292000Y-142081000D03*
X227792000Y-142081000D03*
X228292000Y-142081000D03*
X228792000Y-142081000D03*
X229292000Y-142081000D03*
X229792000Y-142081000D03*
X231292000Y-142081000D03*
X231292000Y-143811000D03*
X229792000Y-143811000D03*
X229292000Y-143811000D03*
X228792000Y-143811000D03*
X228292000Y-143811000D03*
X227792000Y-143811000D03*
X227292000Y-143811000D03*
X225792000Y-143811000D03*
D11*
X226142000Y-141596000D03*
X226142000Y-144296000D03*
X230942000Y-141596000D03*
X230942000Y-144296000D03*
%TD*%
D10*
%TO.C,J257*%
X216852000Y-142081000D03*
X218352000Y-142081000D03*
X218852000Y-142081000D03*
X219352000Y-142081000D03*
X219852000Y-142081000D03*
X220352000Y-142081000D03*
X220852000Y-142081000D03*
X222352000Y-142081000D03*
X222352000Y-143811000D03*
X220852000Y-143811000D03*
X220352000Y-143811000D03*
X219852000Y-143811000D03*
X219352000Y-143811000D03*
X218852000Y-143811000D03*
X218352000Y-143811000D03*
X216852000Y-143811000D03*
D11*
X217202000Y-141596000D03*
X217202000Y-144296000D03*
X222002000Y-141596000D03*
X222002000Y-144296000D03*
%TD*%
D10*
%TO.C,J255*%
X207912000Y-142081000D03*
X209412000Y-142081000D03*
X209912000Y-142081000D03*
X210412000Y-142081000D03*
X210912000Y-142081000D03*
X211412000Y-142081000D03*
X211912000Y-142081000D03*
X213412000Y-142081000D03*
X213412000Y-143811000D03*
X211912000Y-143811000D03*
X211412000Y-143811000D03*
X210912000Y-143811000D03*
X210412000Y-143811000D03*
X209912000Y-143811000D03*
X209412000Y-143811000D03*
X207912000Y-143811000D03*
D11*
X208262000Y-141596000D03*
X208262000Y-144296000D03*
X213062000Y-141596000D03*
X213062000Y-144296000D03*
%TD*%
D10*
%TO.C,J253*%
X198972000Y-142081000D03*
X200472000Y-142081000D03*
X200972000Y-142081000D03*
X201472000Y-142081000D03*
X201972000Y-142081000D03*
X202472000Y-142081000D03*
X202972000Y-142081000D03*
X204472000Y-142081000D03*
X204472000Y-143811000D03*
X202972000Y-143811000D03*
X202472000Y-143811000D03*
X201972000Y-143811000D03*
X201472000Y-143811000D03*
X200972000Y-143811000D03*
X200472000Y-143811000D03*
X198972000Y-143811000D03*
D11*
X199322000Y-141596000D03*
X199322000Y-144296000D03*
X204122000Y-141596000D03*
X204122000Y-144296000D03*
%TD*%
D10*
%TO.C,J251*%
X190032000Y-142081000D03*
X191532000Y-142081000D03*
X192032000Y-142081000D03*
X192532000Y-142081000D03*
X193032000Y-142081000D03*
X193532000Y-142081000D03*
X194032000Y-142081000D03*
X195532000Y-142081000D03*
X195532000Y-143811000D03*
X194032000Y-143811000D03*
X193532000Y-143811000D03*
X193032000Y-143811000D03*
X192532000Y-143811000D03*
X192032000Y-143811000D03*
X191532000Y-143811000D03*
X190032000Y-143811000D03*
D11*
X190382000Y-141596000D03*
X190382000Y-144296000D03*
X195182000Y-141596000D03*
X195182000Y-144296000D03*
%TD*%
D10*
%TO.C,J249*%
X181092000Y-142081000D03*
X182592000Y-142081000D03*
X183092000Y-142081000D03*
X183592000Y-142081000D03*
X184092000Y-142081000D03*
X184592000Y-142081000D03*
X185092000Y-142081000D03*
X186592000Y-142081000D03*
X186592000Y-143811000D03*
X185092000Y-143811000D03*
X184592000Y-143811000D03*
X184092000Y-143811000D03*
X183592000Y-143811000D03*
X183092000Y-143811000D03*
X182592000Y-143811000D03*
X181092000Y-143811000D03*
D11*
X181442000Y-141596000D03*
X181442000Y-144296000D03*
X186242000Y-141596000D03*
X186242000Y-144296000D03*
%TD*%
D10*
%TO.C,J247*%
X172152000Y-142081000D03*
X173652000Y-142081000D03*
X174152000Y-142081000D03*
X174652000Y-142081000D03*
X175152000Y-142081000D03*
X175652000Y-142081000D03*
X176152000Y-142081000D03*
X177652000Y-142081000D03*
X177652000Y-143811000D03*
X176152000Y-143811000D03*
X175652000Y-143811000D03*
X175152000Y-143811000D03*
X174652000Y-143811000D03*
X174152000Y-143811000D03*
X173652000Y-143811000D03*
X172152000Y-143811000D03*
D11*
X172502000Y-141596000D03*
X172502000Y-144296000D03*
X177302000Y-141596000D03*
X177302000Y-144296000D03*
%TD*%
D10*
%TO.C,J245*%
X163212000Y-142081000D03*
X164712000Y-142081000D03*
X165212000Y-142081000D03*
X165712000Y-142081000D03*
X166212000Y-142081000D03*
X166712000Y-142081000D03*
X167212000Y-142081000D03*
X168712000Y-142081000D03*
X168712000Y-143811000D03*
X167212000Y-143811000D03*
X166712000Y-143811000D03*
X166212000Y-143811000D03*
X165712000Y-143811000D03*
X165212000Y-143811000D03*
X164712000Y-143811000D03*
X163212000Y-143811000D03*
D11*
X163562000Y-141596000D03*
X163562000Y-144296000D03*
X168362000Y-141596000D03*
X168362000Y-144296000D03*
%TD*%
D10*
%TO.C,J243*%
X154272000Y-142081000D03*
X155772000Y-142081000D03*
X156272000Y-142081000D03*
X156772000Y-142081000D03*
X157272000Y-142081000D03*
X157772000Y-142081000D03*
X158272000Y-142081000D03*
X159772000Y-142081000D03*
X159772000Y-143811000D03*
X158272000Y-143811000D03*
X157772000Y-143811000D03*
X157272000Y-143811000D03*
X156772000Y-143811000D03*
X156272000Y-143811000D03*
X155772000Y-143811000D03*
X154272000Y-143811000D03*
D11*
X154622000Y-141596000D03*
X154622000Y-144296000D03*
X159422000Y-141596000D03*
X159422000Y-144296000D03*
%TD*%
D10*
%TO.C,J241*%
X145332000Y-142081000D03*
X146832000Y-142081000D03*
X147332000Y-142081000D03*
X147832000Y-142081000D03*
X148332000Y-142081000D03*
X148832000Y-142081000D03*
X149332000Y-142081000D03*
X150832000Y-142081000D03*
X150832000Y-143811000D03*
X149332000Y-143811000D03*
X148832000Y-143811000D03*
X148332000Y-143811000D03*
X147832000Y-143811000D03*
X147332000Y-143811000D03*
X146832000Y-143811000D03*
X145332000Y-143811000D03*
D11*
X145682000Y-141596000D03*
X145682000Y-144296000D03*
X150482000Y-141596000D03*
X150482000Y-144296000D03*
%TD*%
D10*
%TO.C,J239*%
X225792000Y-136921000D03*
X227292000Y-136921000D03*
X227792000Y-136921000D03*
X228292000Y-136921000D03*
X228792000Y-136921000D03*
X229292000Y-136921000D03*
X229792000Y-136921000D03*
X231292000Y-136921000D03*
X231292000Y-138651000D03*
X229792000Y-138651000D03*
X229292000Y-138651000D03*
X228792000Y-138651000D03*
X228292000Y-138651000D03*
X227792000Y-138651000D03*
X227292000Y-138651000D03*
X225792000Y-138651000D03*
D11*
X226142000Y-136436000D03*
X226142000Y-139136000D03*
X230942000Y-136436000D03*
X230942000Y-139136000D03*
%TD*%
D10*
%TO.C,J237*%
X216852000Y-136921000D03*
X218352000Y-136921000D03*
X218852000Y-136921000D03*
X219352000Y-136921000D03*
X219852000Y-136921000D03*
X220352000Y-136921000D03*
X220852000Y-136921000D03*
X222352000Y-136921000D03*
X222352000Y-138651000D03*
X220852000Y-138651000D03*
X220352000Y-138651000D03*
X219852000Y-138651000D03*
X219352000Y-138651000D03*
X218852000Y-138651000D03*
X218352000Y-138651000D03*
X216852000Y-138651000D03*
D11*
X217202000Y-136436000D03*
X217202000Y-139136000D03*
X222002000Y-136436000D03*
X222002000Y-139136000D03*
%TD*%
D10*
%TO.C,J235*%
X207912000Y-136921000D03*
X209412000Y-136921000D03*
X209912000Y-136921000D03*
X210412000Y-136921000D03*
X210912000Y-136921000D03*
X211412000Y-136921000D03*
X211912000Y-136921000D03*
X213412000Y-136921000D03*
X213412000Y-138651000D03*
X211912000Y-138651000D03*
X211412000Y-138651000D03*
X210912000Y-138651000D03*
X210412000Y-138651000D03*
X209912000Y-138651000D03*
X209412000Y-138651000D03*
X207912000Y-138651000D03*
D11*
X208262000Y-136436000D03*
X208262000Y-139136000D03*
X213062000Y-136436000D03*
X213062000Y-139136000D03*
%TD*%
D10*
%TO.C,J233*%
X198972000Y-136921000D03*
X200472000Y-136921000D03*
X200972000Y-136921000D03*
X201472000Y-136921000D03*
X201972000Y-136921000D03*
X202472000Y-136921000D03*
X202972000Y-136921000D03*
X204472000Y-136921000D03*
X204472000Y-138651000D03*
X202972000Y-138651000D03*
X202472000Y-138651000D03*
X201972000Y-138651000D03*
X201472000Y-138651000D03*
X200972000Y-138651000D03*
X200472000Y-138651000D03*
X198972000Y-138651000D03*
D11*
X199322000Y-136436000D03*
X199322000Y-139136000D03*
X204122000Y-136436000D03*
X204122000Y-139136000D03*
%TD*%
D10*
%TO.C,J231*%
X190032000Y-136921000D03*
X191532000Y-136921000D03*
X192032000Y-136921000D03*
X192532000Y-136921000D03*
X193032000Y-136921000D03*
X193532000Y-136921000D03*
X194032000Y-136921000D03*
X195532000Y-136921000D03*
X195532000Y-138651000D03*
X194032000Y-138651000D03*
X193532000Y-138651000D03*
X193032000Y-138651000D03*
X192532000Y-138651000D03*
X192032000Y-138651000D03*
X191532000Y-138651000D03*
X190032000Y-138651000D03*
D11*
X190382000Y-136436000D03*
X190382000Y-139136000D03*
X195182000Y-136436000D03*
X195182000Y-139136000D03*
%TD*%
D10*
%TO.C,J229*%
X181092000Y-136921000D03*
X182592000Y-136921000D03*
X183092000Y-136921000D03*
X183592000Y-136921000D03*
X184092000Y-136921000D03*
X184592000Y-136921000D03*
X185092000Y-136921000D03*
X186592000Y-136921000D03*
X186592000Y-138651000D03*
X185092000Y-138651000D03*
X184592000Y-138651000D03*
X184092000Y-138651000D03*
X183592000Y-138651000D03*
X183092000Y-138651000D03*
X182592000Y-138651000D03*
X181092000Y-138651000D03*
D11*
X181442000Y-136436000D03*
X181442000Y-139136000D03*
X186242000Y-136436000D03*
X186242000Y-139136000D03*
%TD*%
D10*
%TO.C,J227*%
X172152000Y-136921000D03*
X173652000Y-136921000D03*
X174152000Y-136921000D03*
X174652000Y-136921000D03*
X175152000Y-136921000D03*
X175652000Y-136921000D03*
X176152000Y-136921000D03*
X177652000Y-136921000D03*
X177652000Y-138651000D03*
X176152000Y-138651000D03*
X175652000Y-138651000D03*
X175152000Y-138651000D03*
X174652000Y-138651000D03*
X174152000Y-138651000D03*
X173652000Y-138651000D03*
X172152000Y-138651000D03*
D11*
X172502000Y-136436000D03*
X172502000Y-139136000D03*
X177302000Y-136436000D03*
X177302000Y-139136000D03*
%TD*%
D10*
%TO.C,J225*%
X163212000Y-136921000D03*
X164712000Y-136921000D03*
X165212000Y-136921000D03*
X165712000Y-136921000D03*
X166212000Y-136921000D03*
X166712000Y-136921000D03*
X167212000Y-136921000D03*
X168712000Y-136921000D03*
X168712000Y-138651000D03*
X167212000Y-138651000D03*
X166712000Y-138651000D03*
X166212000Y-138651000D03*
X165712000Y-138651000D03*
X165212000Y-138651000D03*
X164712000Y-138651000D03*
X163212000Y-138651000D03*
D11*
X163562000Y-136436000D03*
X163562000Y-139136000D03*
X168362000Y-136436000D03*
X168362000Y-139136000D03*
%TD*%
D10*
%TO.C,J223*%
X154272000Y-136921000D03*
X155772000Y-136921000D03*
X156272000Y-136921000D03*
X156772000Y-136921000D03*
X157272000Y-136921000D03*
X157772000Y-136921000D03*
X158272000Y-136921000D03*
X159772000Y-136921000D03*
X159772000Y-138651000D03*
X158272000Y-138651000D03*
X157772000Y-138651000D03*
X157272000Y-138651000D03*
X156772000Y-138651000D03*
X156272000Y-138651000D03*
X155772000Y-138651000D03*
X154272000Y-138651000D03*
D11*
X154622000Y-136436000D03*
X154622000Y-139136000D03*
X159422000Y-136436000D03*
X159422000Y-139136000D03*
%TD*%
D10*
%TO.C,J221*%
X145332000Y-136921000D03*
X146832000Y-136921000D03*
X147332000Y-136921000D03*
X147832000Y-136921000D03*
X148332000Y-136921000D03*
X148832000Y-136921000D03*
X149332000Y-136921000D03*
X150832000Y-136921000D03*
X150832000Y-138651000D03*
X149332000Y-138651000D03*
X148832000Y-138651000D03*
X148332000Y-138651000D03*
X147832000Y-138651000D03*
X147332000Y-138651000D03*
X146832000Y-138651000D03*
X145332000Y-138651000D03*
D11*
X145682000Y-136436000D03*
X145682000Y-139136000D03*
X150482000Y-136436000D03*
X150482000Y-139136000D03*
%TD*%
D10*
%TO.C,J219*%
X225792000Y-131761000D03*
X227292000Y-131761000D03*
X227792000Y-131761000D03*
X228292000Y-131761000D03*
X228792000Y-131761000D03*
X229292000Y-131761000D03*
X229792000Y-131761000D03*
X231292000Y-131761000D03*
X231292000Y-133491000D03*
X229792000Y-133491000D03*
X229292000Y-133491000D03*
X228792000Y-133491000D03*
X228292000Y-133491000D03*
X227792000Y-133491000D03*
X227292000Y-133491000D03*
X225792000Y-133491000D03*
D11*
X226142000Y-131276000D03*
X226142000Y-133976000D03*
X230942000Y-131276000D03*
X230942000Y-133976000D03*
%TD*%
D10*
%TO.C,J217*%
X216852000Y-131761000D03*
X218352000Y-131761000D03*
X218852000Y-131761000D03*
X219352000Y-131761000D03*
X219852000Y-131761000D03*
X220352000Y-131761000D03*
X220852000Y-131761000D03*
X222352000Y-131761000D03*
X222352000Y-133491000D03*
X220852000Y-133491000D03*
X220352000Y-133491000D03*
X219852000Y-133491000D03*
X219352000Y-133491000D03*
X218852000Y-133491000D03*
X218352000Y-133491000D03*
X216852000Y-133491000D03*
D11*
X217202000Y-131276000D03*
X217202000Y-133976000D03*
X222002000Y-131276000D03*
X222002000Y-133976000D03*
%TD*%
D10*
%TO.C,J215*%
X207912000Y-131761000D03*
X209412000Y-131761000D03*
X209912000Y-131761000D03*
X210412000Y-131761000D03*
X210912000Y-131761000D03*
X211412000Y-131761000D03*
X211912000Y-131761000D03*
X213412000Y-131761000D03*
X213412000Y-133491000D03*
X211912000Y-133491000D03*
X211412000Y-133491000D03*
X210912000Y-133491000D03*
X210412000Y-133491000D03*
X209912000Y-133491000D03*
X209412000Y-133491000D03*
X207912000Y-133491000D03*
D11*
X208262000Y-131276000D03*
X208262000Y-133976000D03*
X213062000Y-131276000D03*
X213062000Y-133976000D03*
%TD*%
D10*
%TO.C,J213*%
X198972000Y-131761000D03*
X200472000Y-131761000D03*
X200972000Y-131761000D03*
X201472000Y-131761000D03*
X201972000Y-131761000D03*
X202472000Y-131761000D03*
X202972000Y-131761000D03*
X204472000Y-131761000D03*
X204472000Y-133491000D03*
X202972000Y-133491000D03*
X202472000Y-133491000D03*
X201972000Y-133491000D03*
X201472000Y-133491000D03*
X200972000Y-133491000D03*
X200472000Y-133491000D03*
X198972000Y-133491000D03*
D11*
X199322000Y-131276000D03*
X199322000Y-133976000D03*
X204122000Y-131276000D03*
X204122000Y-133976000D03*
%TD*%
D10*
%TO.C,J211*%
X190032000Y-131761000D03*
X191532000Y-131761000D03*
X192032000Y-131761000D03*
X192532000Y-131761000D03*
X193032000Y-131761000D03*
X193532000Y-131761000D03*
X194032000Y-131761000D03*
X195532000Y-131761000D03*
X195532000Y-133491000D03*
X194032000Y-133491000D03*
X193532000Y-133491000D03*
X193032000Y-133491000D03*
X192532000Y-133491000D03*
X192032000Y-133491000D03*
X191532000Y-133491000D03*
X190032000Y-133491000D03*
D11*
X190382000Y-131276000D03*
X190382000Y-133976000D03*
X195182000Y-131276000D03*
X195182000Y-133976000D03*
%TD*%
D10*
%TO.C,J209*%
X181092000Y-131761000D03*
X182592000Y-131761000D03*
X183092000Y-131761000D03*
X183592000Y-131761000D03*
X184092000Y-131761000D03*
X184592000Y-131761000D03*
X185092000Y-131761000D03*
X186592000Y-131761000D03*
X186592000Y-133491000D03*
X185092000Y-133491000D03*
X184592000Y-133491000D03*
X184092000Y-133491000D03*
X183592000Y-133491000D03*
X183092000Y-133491000D03*
X182592000Y-133491000D03*
X181092000Y-133491000D03*
D11*
X181442000Y-131276000D03*
X181442000Y-133976000D03*
X186242000Y-131276000D03*
X186242000Y-133976000D03*
%TD*%
D10*
%TO.C,J207*%
X172152000Y-131761000D03*
X173652000Y-131761000D03*
X174152000Y-131761000D03*
X174652000Y-131761000D03*
X175152000Y-131761000D03*
X175652000Y-131761000D03*
X176152000Y-131761000D03*
X177652000Y-131761000D03*
X177652000Y-133491000D03*
X176152000Y-133491000D03*
X175652000Y-133491000D03*
X175152000Y-133491000D03*
X174652000Y-133491000D03*
X174152000Y-133491000D03*
X173652000Y-133491000D03*
X172152000Y-133491000D03*
D11*
X172502000Y-131276000D03*
X172502000Y-133976000D03*
X177302000Y-131276000D03*
X177302000Y-133976000D03*
%TD*%
D10*
%TO.C,J205*%
X163212000Y-131761000D03*
X164712000Y-131761000D03*
X165212000Y-131761000D03*
X165712000Y-131761000D03*
X166212000Y-131761000D03*
X166712000Y-131761000D03*
X167212000Y-131761000D03*
X168712000Y-131761000D03*
X168712000Y-133491000D03*
X167212000Y-133491000D03*
X166712000Y-133491000D03*
X166212000Y-133491000D03*
X165712000Y-133491000D03*
X165212000Y-133491000D03*
X164712000Y-133491000D03*
X163212000Y-133491000D03*
D11*
X163562000Y-131276000D03*
X163562000Y-133976000D03*
X168362000Y-131276000D03*
X168362000Y-133976000D03*
%TD*%
D10*
%TO.C,J203*%
X154272000Y-131761000D03*
X155772000Y-131761000D03*
X156272000Y-131761000D03*
X156772000Y-131761000D03*
X157272000Y-131761000D03*
X157772000Y-131761000D03*
X158272000Y-131761000D03*
X159772000Y-131761000D03*
X159772000Y-133491000D03*
X158272000Y-133491000D03*
X157772000Y-133491000D03*
X157272000Y-133491000D03*
X156772000Y-133491000D03*
X156272000Y-133491000D03*
X155772000Y-133491000D03*
X154272000Y-133491000D03*
D11*
X154622000Y-131276000D03*
X154622000Y-133976000D03*
X159422000Y-131276000D03*
X159422000Y-133976000D03*
%TD*%
D10*
%TO.C,J201*%
X145332000Y-131761000D03*
X146832000Y-131761000D03*
X147332000Y-131761000D03*
X147832000Y-131761000D03*
X148332000Y-131761000D03*
X148832000Y-131761000D03*
X149332000Y-131761000D03*
X150832000Y-131761000D03*
X150832000Y-133491000D03*
X149332000Y-133491000D03*
X148832000Y-133491000D03*
X148332000Y-133491000D03*
X147832000Y-133491000D03*
X147332000Y-133491000D03*
X146832000Y-133491000D03*
X145332000Y-133491000D03*
D11*
X145682000Y-131276000D03*
X145682000Y-133976000D03*
X150482000Y-131276000D03*
X150482000Y-133976000D03*
%TD*%
D10*
%TO.C,J199*%
X225792000Y-126601000D03*
X227292000Y-126601000D03*
X227792000Y-126601000D03*
X228292000Y-126601000D03*
X228792000Y-126601000D03*
X229292000Y-126601000D03*
X229792000Y-126601000D03*
X231292000Y-126601000D03*
X231292000Y-128331000D03*
X229792000Y-128331000D03*
X229292000Y-128331000D03*
X228792000Y-128331000D03*
X228292000Y-128331000D03*
X227792000Y-128331000D03*
X227292000Y-128331000D03*
X225792000Y-128331000D03*
D11*
X226142000Y-126116000D03*
X226142000Y-128816000D03*
X230942000Y-126116000D03*
X230942000Y-128816000D03*
%TD*%
D10*
%TO.C,J197*%
X216852000Y-126601000D03*
X218352000Y-126601000D03*
X218852000Y-126601000D03*
X219352000Y-126601000D03*
X219852000Y-126601000D03*
X220352000Y-126601000D03*
X220852000Y-126601000D03*
X222352000Y-126601000D03*
X222352000Y-128331000D03*
X220852000Y-128331000D03*
X220352000Y-128331000D03*
X219852000Y-128331000D03*
X219352000Y-128331000D03*
X218852000Y-128331000D03*
X218352000Y-128331000D03*
X216852000Y-128331000D03*
D11*
X217202000Y-126116000D03*
X217202000Y-128816000D03*
X222002000Y-126116000D03*
X222002000Y-128816000D03*
%TD*%
D10*
%TO.C,J195*%
X207912000Y-126601000D03*
X209412000Y-126601000D03*
X209912000Y-126601000D03*
X210412000Y-126601000D03*
X210912000Y-126601000D03*
X211412000Y-126601000D03*
X211912000Y-126601000D03*
X213412000Y-126601000D03*
X213412000Y-128331000D03*
X211912000Y-128331000D03*
X211412000Y-128331000D03*
X210912000Y-128331000D03*
X210412000Y-128331000D03*
X209912000Y-128331000D03*
X209412000Y-128331000D03*
X207912000Y-128331000D03*
D11*
X208262000Y-126116000D03*
X208262000Y-128816000D03*
X213062000Y-126116000D03*
X213062000Y-128816000D03*
%TD*%
D10*
%TO.C,J193*%
X198972000Y-126601000D03*
X200472000Y-126601000D03*
X200972000Y-126601000D03*
X201472000Y-126601000D03*
X201972000Y-126601000D03*
X202472000Y-126601000D03*
X202972000Y-126601000D03*
X204472000Y-126601000D03*
X204472000Y-128331000D03*
X202972000Y-128331000D03*
X202472000Y-128331000D03*
X201972000Y-128331000D03*
X201472000Y-128331000D03*
X200972000Y-128331000D03*
X200472000Y-128331000D03*
X198972000Y-128331000D03*
D11*
X199322000Y-126116000D03*
X199322000Y-128816000D03*
X204122000Y-126116000D03*
X204122000Y-128816000D03*
%TD*%
D10*
%TO.C,J191*%
X190032000Y-126601000D03*
X191532000Y-126601000D03*
X192032000Y-126601000D03*
X192532000Y-126601000D03*
X193032000Y-126601000D03*
X193532000Y-126601000D03*
X194032000Y-126601000D03*
X195532000Y-126601000D03*
X195532000Y-128331000D03*
X194032000Y-128331000D03*
X193532000Y-128331000D03*
X193032000Y-128331000D03*
X192532000Y-128331000D03*
X192032000Y-128331000D03*
X191532000Y-128331000D03*
X190032000Y-128331000D03*
D11*
X190382000Y-126116000D03*
X190382000Y-128816000D03*
X195182000Y-126116000D03*
X195182000Y-128816000D03*
%TD*%
D10*
%TO.C,J189*%
X181092000Y-126601000D03*
X182592000Y-126601000D03*
X183092000Y-126601000D03*
X183592000Y-126601000D03*
X184092000Y-126601000D03*
X184592000Y-126601000D03*
X185092000Y-126601000D03*
X186592000Y-126601000D03*
X186592000Y-128331000D03*
X185092000Y-128331000D03*
X184592000Y-128331000D03*
X184092000Y-128331000D03*
X183592000Y-128331000D03*
X183092000Y-128331000D03*
X182592000Y-128331000D03*
X181092000Y-128331000D03*
D11*
X181442000Y-126116000D03*
X181442000Y-128816000D03*
X186242000Y-126116000D03*
X186242000Y-128816000D03*
%TD*%
D10*
%TO.C,J187*%
X172152000Y-126601000D03*
X173652000Y-126601000D03*
X174152000Y-126601000D03*
X174652000Y-126601000D03*
X175152000Y-126601000D03*
X175652000Y-126601000D03*
X176152000Y-126601000D03*
X177652000Y-126601000D03*
X177652000Y-128331000D03*
X176152000Y-128331000D03*
X175652000Y-128331000D03*
X175152000Y-128331000D03*
X174652000Y-128331000D03*
X174152000Y-128331000D03*
X173652000Y-128331000D03*
X172152000Y-128331000D03*
D11*
X172502000Y-126116000D03*
X172502000Y-128816000D03*
X177302000Y-126116000D03*
X177302000Y-128816000D03*
%TD*%
D10*
%TO.C,J185*%
X163212000Y-126601000D03*
X164712000Y-126601000D03*
X165212000Y-126601000D03*
X165712000Y-126601000D03*
X166212000Y-126601000D03*
X166712000Y-126601000D03*
X167212000Y-126601000D03*
X168712000Y-126601000D03*
X168712000Y-128331000D03*
X167212000Y-128331000D03*
X166712000Y-128331000D03*
X166212000Y-128331000D03*
X165712000Y-128331000D03*
X165212000Y-128331000D03*
X164712000Y-128331000D03*
X163212000Y-128331000D03*
D11*
X163562000Y-126116000D03*
X163562000Y-128816000D03*
X168362000Y-126116000D03*
X168362000Y-128816000D03*
%TD*%
D10*
%TO.C,J183*%
X154272000Y-126601000D03*
X155772000Y-126601000D03*
X156272000Y-126601000D03*
X156772000Y-126601000D03*
X157272000Y-126601000D03*
X157772000Y-126601000D03*
X158272000Y-126601000D03*
X159772000Y-126601000D03*
X159772000Y-128331000D03*
X158272000Y-128331000D03*
X157772000Y-128331000D03*
X157272000Y-128331000D03*
X156772000Y-128331000D03*
X156272000Y-128331000D03*
X155772000Y-128331000D03*
X154272000Y-128331000D03*
D11*
X154622000Y-126116000D03*
X154622000Y-128816000D03*
X159422000Y-126116000D03*
X159422000Y-128816000D03*
%TD*%
D10*
%TO.C,J181*%
X145332000Y-126601000D03*
X146832000Y-126601000D03*
X147332000Y-126601000D03*
X147832000Y-126601000D03*
X148332000Y-126601000D03*
X148832000Y-126601000D03*
X149332000Y-126601000D03*
X150832000Y-126601000D03*
X150832000Y-128331000D03*
X149332000Y-128331000D03*
X148832000Y-128331000D03*
X148332000Y-128331000D03*
X147832000Y-128331000D03*
X147332000Y-128331000D03*
X146832000Y-128331000D03*
X145332000Y-128331000D03*
D11*
X145682000Y-126116000D03*
X145682000Y-128816000D03*
X150482000Y-126116000D03*
X150482000Y-128816000D03*
%TD*%
D10*
%TO.C,J179*%
X225792000Y-121441000D03*
X227292000Y-121441000D03*
X227792000Y-121441000D03*
X228292000Y-121441000D03*
X228792000Y-121441000D03*
X229292000Y-121441000D03*
X229792000Y-121441000D03*
X231292000Y-121441000D03*
X231292000Y-123171000D03*
X229792000Y-123171000D03*
X229292000Y-123171000D03*
X228792000Y-123171000D03*
X228292000Y-123171000D03*
X227792000Y-123171000D03*
X227292000Y-123171000D03*
X225792000Y-123171000D03*
D11*
X226142000Y-120956000D03*
X226142000Y-123656000D03*
X230942000Y-120956000D03*
X230942000Y-123656000D03*
%TD*%
D10*
%TO.C,J177*%
X216852000Y-121441000D03*
X218352000Y-121441000D03*
X218852000Y-121441000D03*
X219352000Y-121441000D03*
X219852000Y-121441000D03*
X220352000Y-121441000D03*
X220852000Y-121441000D03*
X222352000Y-121441000D03*
X222352000Y-123171000D03*
X220852000Y-123171000D03*
X220352000Y-123171000D03*
X219852000Y-123171000D03*
X219352000Y-123171000D03*
X218852000Y-123171000D03*
X218352000Y-123171000D03*
X216852000Y-123171000D03*
D11*
X217202000Y-120956000D03*
X217202000Y-123656000D03*
X222002000Y-120956000D03*
X222002000Y-123656000D03*
%TD*%
D10*
%TO.C,J175*%
X207912000Y-121441000D03*
X209412000Y-121441000D03*
X209912000Y-121441000D03*
X210412000Y-121441000D03*
X210912000Y-121441000D03*
X211412000Y-121441000D03*
X211912000Y-121441000D03*
X213412000Y-121441000D03*
X213412000Y-123171000D03*
X211912000Y-123171000D03*
X211412000Y-123171000D03*
X210912000Y-123171000D03*
X210412000Y-123171000D03*
X209912000Y-123171000D03*
X209412000Y-123171000D03*
X207912000Y-123171000D03*
D11*
X208262000Y-120956000D03*
X208262000Y-123656000D03*
X213062000Y-120956000D03*
X213062000Y-123656000D03*
%TD*%
D10*
%TO.C,J173*%
X198972000Y-121441000D03*
X200472000Y-121441000D03*
X200972000Y-121441000D03*
X201472000Y-121441000D03*
X201972000Y-121441000D03*
X202472000Y-121441000D03*
X202972000Y-121441000D03*
X204472000Y-121441000D03*
X204472000Y-123171000D03*
X202972000Y-123171000D03*
X202472000Y-123171000D03*
X201972000Y-123171000D03*
X201472000Y-123171000D03*
X200972000Y-123171000D03*
X200472000Y-123171000D03*
X198972000Y-123171000D03*
D11*
X199322000Y-120956000D03*
X199322000Y-123656000D03*
X204122000Y-120956000D03*
X204122000Y-123656000D03*
%TD*%
D10*
%TO.C,J171*%
X190032000Y-121441000D03*
X191532000Y-121441000D03*
X192032000Y-121441000D03*
X192532000Y-121441000D03*
X193032000Y-121441000D03*
X193532000Y-121441000D03*
X194032000Y-121441000D03*
X195532000Y-121441000D03*
X195532000Y-123171000D03*
X194032000Y-123171000D03*
X193532000Y-123171000D03*
X193032000Y-123171000D03*
X192532000Y-123171000D03*
X192032000Y-123171000D03*
X191532000Y-123171000D03*
X190032000Y-123171000D03*
D11*
X190382000Y-120956000D03*
X190382000Y-123656000D03*
X195182000Y-120956000D03*
X195182000Y-123656000D03*
%TD*%
D10*
%TO.C,J169*%
X181092000Y-121441000D03*
X182592000Y-121441000D03*
X183092000Y-121441000D03*
X183592000Y-121441000D03*
X184092000Y-121441000D03*
X184592000Y-121441000D03*
X185092000Y-121441000D03*
X186592000Y-121441000D03*
X186592000Y-123171000D03*
X185092000Y-123171000D03*
X184592000Y-123171000D03*
X184092000Y-123171000D03*
X183592000Y-123171000D03*
X183092000Y-123171000D03*
X182592000Y-123171000D03*
X181092000Y-123171000D03*
D11*
X181442000Y-120956000D03*
X181442000Y-123656000D03*
X186242000Y-120956000D03*
X186242000Y-123656000D03*
%TD*%
D10*
%TO.C,J167*%
X172152000Y-121441000D03*
X173652000Y-121441000D03*
X174152000Y-121441000D03*
X174652000Y-121441000D03*
X175152000Y-121441000D03*
X175652000Y-121441000D03*
X176152000Y-121441000D03*
X177652000Y-121441000D03*
X177652000Y-123171000D03*
X176152000Y-123171000D03*
X175652000Y-123171000D03*
X175152000Y-123171000D03*
X174652000Y-123171000D03*
X174152000Y-123171000D03*
X173652000Y-123171000D03*
X172152000Y-123171000D03*
D11*
X172502000Y-120956000D03*
X172502000Y-123656000D03*
X177302000Y-120956000D03*
X177302000Y-123656000D03*
%TD*%
D10*
%TO.C,J165*%
X163212000Y-121441000D03*
X164712000Y-121441000D03*
X165212000Y-121441000D03*
X165712000Y-121441000D03*
X166212000Y-121441000D03*
X166712000Y-121441000D03*
X167212000Y-121441000D03*
X168712000Y-121441000D03*
X168712000Y-123171000D03*
X167212000Y-123171000D03*
X166712000Y-123171000D03*
X166212000Y-123171000D03*
X165712000Y-123171000D03*
X165212000Y-123171000D03*
X164712000Y-123171000D03*
X163212000Y-123171000D03*
D11*
X163562000Y-120956000D03*
X163562000Y-123656000D03*
X168362000Y-120956000D03*
X168362000Y-123656000D03*
%TD*%
D10*
%TO.C,J163*%
X154272000Y-121441000D03*
X155772000Y-121441000D03*
X156272000Y-121441000D03*
X156772000Y-121441000D03*
X157272000Y-121441000D03*
X157772000Y-121441000D03*
X158272000Y-121441000D03*
X159772000Y-121441000D03*
X159772000Y-123171000D03*
X158272000Y-123171000D03*
X157772000Y-123171000D03*
X157272000Y-123171000D03*
X156772000Y-123171000D03*
X156272000Y-123171000D03*
X155772000Y-123171000D03*
X154272000Y-123171000D03*
D11*
X154622000Y-120956000D03*
X154622000Y-123656000D03*
X159422000Y-120956000D03*
X159422000Y-123656000D03*
%TD*%
D10*
%TO.C,J161*%
X145332000Y-121441000D03*
X146832000Y-121441000D03*
X147332000Y-121441000D03*
X147832000Y-121441000D03*
X148332000Y-121441000D03*
X148832000Y-121441000D03*
X149332000Y-121441000D03*
X150832000Y-121441000D03*
X150832000Y-123171000D03*
X149332000Y-123171000D03*
X148832000Y-123171000D03*
X148332000Y-123171000D03*
X147832000Y-123171000D03*
X147332000Y-123171000D03*
X146832000Y-123171000D03*
X145332000Y-123171000D03*
D11*
X145682000Y-120956000D03*
X145682000Y-123656000D03*
X150482000Y-120956000D03*
X150482000Y-123656000D03*
%TD*%
D10*
%TO.C,J159*%
X225792000Y-116281000D03*
X227292000Y-116281000D03*
X227792000Y-116281000D03*
X228292000Y-116281000D03*
X228792000Y-116281000D03*
X229292000Y-116281000D03*
X229792000Y-116281000D03*
X231292000Y-116281000D03*
X231292000Y-118011000D03*
X229792000Y-118011000D03*
X229292000Y-118011000D03*
X228792000Y-118011000D03*
X228292000Y-118011000D03*
X227792000Y-118011000D03*
X227292000Y-118011000D03*
X225792000Y-118011000D03*
D11*
X226142000Y-115796000D03*
X226142000Y-118496000D03*
X230942000Y-115796000D03*
X230942000Y-118496000D03*
%TD*%
D10*
%TO.C,J157*%
X216852000Y-116281000D03*
X218352000Y-116281000D03*
X218852000Y-116281000D03*
X219352000Y-116281000D03*
X219852000Y-116281000D03*
X220352000Y-116281000D03*
X220852000Y-116281000D03*
X222352000Y-116281000D03*
X222352000Y-118011000D03*
X220852000Y-118011000D03*
X220352000Y-118011000D03*
X219852000Y-118011000D03*
X219352000Y-118011000D03*
X218852000Y-118011000D03*
X218352000Y-118011000D03*
X216852000Y-118011000D03*
D11*
X217202000Y-115796000D03*
X217202000Y-118496000D03*
X222002000Y-115796000D03*
X222002000Y-118496000D03*
%TD*%
D10*
%TO.C,J155*%
X207912000Y-116281000D03*
X209412000Y-116281000D03*
X209912000Y-116281000D03*
X210412000Y-116281000D03*
X210912000Y-116281000D03*
X211412000Y-116281000D03*
X211912000Y-116281000D03*
X213412000Y-116281000D03*
X213412000Y-118011000D03*
X211912000Y-118011000D03*
X211412000Y-118011000D03*
X210912000Y-118011000D03*
X210412000Y-118011000D03*
X209912000Y-118011000D03*
X209412000Y-118011000D03*
X207912000Y-118011000D03*
D11*
X208262000Y-115796000D03*
X208262000Y-118496000D03*
X213062000Y-115796000D03*
X213062000Y-118496000D03*
%TD*%
D10*
%TO.C,J153*%
X198972000Y-116281000D03*
X200472000Y-116281000D03*
X200972000Y-116281000D03*
X201472000Y-116281000D03*
X201972000Y-116281000D03*
X202472000Y-116281000D03*
X202972000Y-116281000D03*
X204472000Y-116281000D03*
X204472000Y-118011000D03*
X202972000Y-118011000D03*
X202472000Y-118011000D03*
X201972000Y-118011000D03*
X201472000Y-118011000D03*
X200972000Y-118011000D03*
X200472000Y-118011000D03*
X198972000Y-118011000D03*
D11*
X199322000Y-115796000D03*
X199322000Y-118496000D03*
X204122000Y-115796000D03*
X204122000Y-118496000D03*
%TD*%
D10*
%TO.C,J151*%
X190032000Y-116281000D03*
X191532000Y-116281000D03*
X192032000Y-116281000D03*
X192532000Y-116281000D03*
X193032000Y-116281000D03*
X193532000Y-116281000D03*
X194032000Y-116281000D03*
X195532000Y-116281000D03*
X195532000Y-118011000D03*
X194032000Y-118011000D03*
X193532000Y-118011000D03*
X193032000Y-118011000D03*
X192532000Y-118011000D03*
X192032000Y-118011000D03*
X191532000Y-118011000D03*
X190032000Y-118011000D03*
D11*
X190382000Y-115796000D03*
X190382000Y-118496000D03*
X195182000Y-115796000D03*
X195182000Y-118496000D03*
%TD*%
D10*
%TO.C,J149*%
X181092000Y-116281000D03*
X182592000Y-116281000D03*
X183092000Y-116281000D03*
X183592000Y-116281000D03*
X184092000Y-116281000D03*
X184592000Y-116281000D03*
X185092000Y-116281000D03*
X186592000Y-116281000D03*
X186592000Y-118011000D03*
X185092000Y-118011000D03*
X184592000Y-118011000D03*
X184092000Y-118011000D03*
X183592000Y-118011000D03*
X183092000Y-118011000D03*
X182592000Y-118011000D03*
X181092000Y-118011000D03*
D11*
X181442000Y-115796000D03*
X181442000Y-118496000D03*
X186242000Y-115796000D03*
X186242000Y-118496000D03*
%TD*%
D10*
%TO.C,J147*%
X172152000Y-116281000D03*
X173652000Y-116281000D03*
X174152000Y-116281000D03*
X174652000Y-116281000D03*
X175152000Y-116281000D03*
X175652000Y-116281000D03*
X176152000Y-116281000D03*
X177652000Y-116281000D03*
X177652000Y-118011000D03*
X176152000Y-118011000D03*
X175652000Y-118011000D03*
X175152000Y-118011000D03*
X174652000Y-118011000D03*
X174152000Y-118011000D03*
X173652000Y-118011000D03*
X172152000Y-118011000D03*
D11*
X172502000Y-115796000D03*
X172502000Y-118496000D03*
X177302000Y-115796000D03*
X177302000Y-118496000D03*
%TD*%
D10*
%TO.C,J145*%
X163212000Y-116281000D03*
X164712000Y-116281000D03*
X165212000Y-116281000D03*
X165712000Y-116281000D03*
X166212000Y-116281000D03*
X166712000Y-116281000D03*
X167212000Y-116281000D03*
X168712000Y-116281000D03*
X168712000Y-118011000D03*
X167212000Y-118011000D03*
X166712000Y-118011000D03*
X166212000Y-118011000D03*
X165712000Y-118011000D03*
X165212000Y-118011000D03*
X164712000Y-118011000D03*
X163212000Y-118011000D03*
D11*
X163562000Y-115796000D03*
X163562000Y-118496000D03*
X168362000Y-115796000D03*
X168362000Y-118496000D03*
%TD*%
D10*
%TO.C,J143*%
X154272000Y-116281000D03*
X155772000Y-116281000D03*
X156272000Y-116281000D03*
X156772000Y-116281000D03*
X157272000Y-116281000D03*
X157772000Y-116281000D03*
X158272000Y-116281000D03*
X159772000Y-116281000D03*
X159772000Y-118011000D03*
X158272000Y-118011000D03*
X157772000Y-118011000D03*
X157272000Y-118011000D03*
X156772000Y-118011000D03*
X156272000Y-118011000D03*
X155772000Y-118011000D03*
X154272000Y-118011000D03*
D11*
X154622000Y-115796000D03*
X154622000Y-118496000D03*
X159422000Y-115796000D03*
X159422000Y-118496000D03*
%TD*%
D10*
%TO.C,J141*%
X145332000Y-116281000D03*
X146832000Y-116281000D03*
X147332000Y-116281000D03*
X147832000Y-116281000D03*
X148332000Y-116281000D03*
X148832000Y-116281000D03*
X149332000Y-116281000D03*
X150832000Y-116281000D03*
X150832000Y-118011000D03*
X149332000Y-118011000D03*
X148832000Y-118011000D03*
X148332000Y-118011000D03*
X147832000Y-118011000D03*
X147332000Y-118011000D03*
X146832000Y-118011000D03*
X145332000Y-118011000D03*
D11*
X145682000Y-115796000D03*
X145682000Y-118496000D03*
X150482000Y-115796000D03*
X150482000Y-118496000D03*
%TD*%
D10*
%TO.C,J139*%
X225792000Y-111121000D03*
X227292000Y-111121000D03*
X227792000Y-111121000D03*
X228292000Y-111121000D03*
X228792000Y-111121000D03*
X229292000Y-111121000D03*
X229792000Y-111121000D03*
X231292000Y-111121000D03*
X231292000Y-112851000D03*
X229792000Y-112851000D03*
X229292000Y-112851000D03*
X228792000Y-112851000D03*
X228292000Y-112851000D03*
X227792000Y-112851000D03*
X227292000Y-112851000D03*
X225792000Y-112851000D03*
D11*
X226142000Y-110636000D03*
X226142000Y-113336000D03*
X230942000Y-110636000D03*
X230942000Y-113336000D03*
%TD*%
D10*
%TO.C,J137*%
X216852000Y-111121000D03*
X218352000Y-111121000D03*
X218852000Y-111121000D03*
X219352000Y-111121000D03*
X219852000Y-111121000D03*
X220352000Y-111121000D03*
X220852000Y-111121000D03*
X222352000Y-111121000D03*
X222352000Y-112851000D03*
X220852000Y-112851000D03*
X220352000Y-112851000D03*
X219852000Y-112851000D03*
X219352000Y-112851000D03*
X218852000Y-112851000D03*
X218352000Y-112851000D03*
X216852000Y-112851000D03*
D11*
X217202000Y-110636000D03*
X217202000Y-113336000D03*
X222002000Y-110636000D03*
X222002000Y-113336000D03*
%TD*%
D10*
%TO.C,J135*%
X207912000Y-111121000D03*
X209412000Y-111121000D03*
X209912000Y-111121000D03*
X210412000Y-111121000D03*
X210912000Y-111121000D03*
X211412000Y-111121000D03*
X211912000Y-111121000D03*
X213412000Y-111121000D03*
X213412000Y-112851000D03*
X211912000Y-112851000D03*
X211412000Y-112851000D03*
X210912000Y-112851000D03*
X210412000Y-112851000D03*
X209912000Y-112851000D03*
X209412000Y-112851000D03*
X207912000Y-112851000D03*
D11*
X208262000Y-110636000D03*
X208262000Y-113336000D03*
X213062000Y-110636000D03*
X213062000Y-113336000D03*
%TD*%
D10*
%TO.C,J133*%
X198972000Y-111121000D03*
X200472000Y-111121000D03*
X200972000Y-111121000D03*
X201472000Y-111121000D03*
X201972000Y-111121000D03*
X202472000Y-111121000D03*
X202972000Y-111121000D03*
X204472000Y-111121000D03*
X204472000Y-112851000D03*
X202972000Y-112851000D03*
X202472000Y-112851000D03*
X201972000Y-112851000D03*
X201472000Y-112851000D03*
X200972000Y-112851000D03*
X200472000Y-112851000D03*
X198972000Y-112851000D03*
D11*
X199322000Y-110636000D03*
X199322000Y-113336000D03*
X204122000Y-110636000D03*
X204122000Y-113336000D03*
%TD*%
D10*
%TO.C,J131*%
X190032000Y-111121000D03*
X191532000Y-111121000D03*
X192032000Y-111121000D03*
X192532000Y-111121000D03*
X193032000Y-111121000D03*
X193532000Y-111121000D03*
X194032000Y-111121000D03*
X195532000Y-111121000D03*
X195532000Y-112851000D03*
X194032000Y-112851000D03*
X193532000Y-112851000D03*
X193032000Y-112851000D03*
X192532000Y-112851000D03*
X192032000Y-112851000D03*
X191532000Y-112851000D03*
X190032000Y-112851000D03*
D11*
X190382000Y-110636000D03*
X190382000Y-113336000D03*
X195182000Y-110636000D03*
X195182000Y-113336000D03*
%TD*%
D10*
%TO.C,J129*%
X181092000Y-111121000D03*
X182592000Y-111121000D03*
X183092000Y-111121000D03*
X183592000Y-111121000D03*
X184092000Y-111121000D03*
X184592000Y-111121000D03*
X185092000Y-111121000D03*
X186592000Y-111121000D03*
X186592000Y-112851000D03*
X185092000Y-112851000D03*
X184592000Y-112851000D03*
X184092000Y-112851000D03*
X183592000Y-112851000D03*
X183092000Y-112851000D03*
X182592000Y-112851000D03*
X181092000Y-112851000D03*
D11*
X181442000Y-110636000D03*
X181442000Y-113336000D03*
X186242000Y-110636000D03*
X186242000Y-113336000D03*
%TD*%
D10*
%TO.C,J127*%
X172152000Y-111121000D03*
X173652000Y-111121000D03*
X174152000Y-111121000D03*
X174652000Y-111121000D03*
X175152000Y-111121000D03*
X175652000Y-111121000D03*
X176152000Y-111121000D03*
X177652000Y-111121000D03*
X177652000Y-112851000D03*
X176152000Y-112851000D03*
X175652000Y-112851000D03*
X175152000Y-112851000D03*
X174652000Y-112851000D03*
X174152000Y-112851000D03*
X173652000Y-112851000D03*
X172152000Y-112851000D03*
D11*
X172502000Y-110636000D03*
X172502000Y-113336000D03*
X177302000Y-110636000D03*
X177302000Y-113336000D03*
%TD*%
D10*
%TO.C,J125*%
X163212000Y-111121000D03*
X164712000Y-111121000D03*
X165212000Y-111121000D03*
X165712000Y-111121000D03*
X166212000Y-111121000D03*
X166712000Y-111121000D03*
X167212000Y-111121000D03*
X168712000Y-111121000D03*
X168712000Y-112851000D03*
X167212000Y-112851000D03*
X166712000Y-112851000D03*
X166212000Y-112851000D03*
X165712000Y-112851000D03*
X165212000Y-112851000D03*
X164712000Y-112851000D03*
X163212000Y-112851000D03*
D11*
X163562000Y-110636000D03*
X163562000Y-113336000D03*
X168362000Y-110636000D03*
X168362000Y-113336000D03*
%TD*%
D10*
%TO.C,J123*%
X154272000Y-111121000D03*
X155772000Y-111121000D03*
X156272000Y-111121000D03*
X156772000Y-111121000D03*
X157272000Y-111121000D03*
X157772000Y-111121000D03*
X158272000Y-111121000D03*
X159772000Y-111121000D03*
X159772000Y-112851000D03*
X158272000Y-112851000D03*
X157772000Y-112851000D03*
X157272000Y-112851000D03*
X156772000Y-112851000D03*
X156272000Y-112851000D03*
X155772000Y-112851000D03*
X154272000Y-112851000D03*
D11*
X154622000Y-110636000D03*
X154622000Y-113336000D03*
X159422000Y-110636000D03*
X159422000Y-113336000D03*
%TD*%
D10*
%TO.C,J121*%
X145332000Y-111121000D03*
X146832000Y-111121000D03*
X147332000Y-111121000D03*
X147832000Y-111121000D03*
X148332000Y-111121000D03*
X148832000Y-111121000D03*
X149332000Y-111121000D03*
X150832000Y-111121000D03*
X150832000Y-112851000D03*
X149332000Y-112851000D03*
X148832000Y-112851000D03*
X148332000Y-112851000D03*
X147832000Y-112851000D03*
X147332000Y-112851000D03*
X146832000Y-112851000D03*
X145332000Y-112851000D03*
D11*
X145682000Y-110636000D03*
X145682000Y-113336000D03*
X150482000Y-110636000D03*
X150482000Y-113336000D03*
%TD*%
D10*
%TO.C,J119*%
X225792000Y-105961000D03*
X227292000Y-105961000D03*
X227792000Y-105961000D03*
X228292000Y-105961000D03*
X228792000Y-105961000D03*
X229292000Y-105961000D03*
X229792000Y-105961000D03*
X231292000Y-105961000D03*
X231292000Y-107691000D03*
X229792000Y-107691000D03*
X229292000Y-107691000D03*
X228792000Y-107691000D03*
X228292000Y-107691000D03*
X227792000Y-107691000D03*
X227292000Y-107691000D03*
X225792000Y-107691000D03*
D11*
X226142000Y-105476000D03*
X226142000Y-108176000D03*
X230942000Y-105476000D03*
X230942000Y-108176000D03*
%TD*%
D10*
%TO.C,J117*%
X216852000Y-105961000D03*
X218352000Y-105961000D03*
X218852000Y-105961000D03*
X219352000Y-105961000D03*
X219852000Y-105961000D03*
X220352000Y-105961000D03*
X220852000Y-105961000D03*
X222352000Y-105961000D03*
X222352000Y-107691000D03*
X220852000Y-107691000D03*
X220352000Y-107691000D03*
X219852000Y-107691000D03*
X219352000Y-107691000D03*
X218852000Y-107691000D03*
X218352000Y-107691000D03*
X216852000Y-107691000D03*
D11*
X217202000Y-105476000D03*
X217202000Y-108176000D03*
X222002000Y-105476000D03*
X222002000Y-108176000D03*
%TD*%
D10*
%TO.C,J115*%
X207912000Y-105961000D03*
X209412000Y-105961000D03*
X209912000Y-105961000D03*
X210412000Y-105961000D03*
X210912000Y-105961000D03*
X211412000Y-105961000D03*
X211912000Y-105961000D03*
X213412000Y-105961000D03*
X213412000Y-107691000D03*
X211912000Y-107691000D03*
X211412000Y-107691000D03*
X210912000Y-107691000D03*
X210412000Y-107691000D03*
X209912000Y-107691000D03*
X209412000Y-107691000D03*
X207912000Y-107691000D03*
D11*
X208262000Y-105476000D03*
X208262000Y-108176000D03*
X213062000Y-105476000D03*
X213062000Y-108176000D03*
%TD*%
D10*
%TO.C,J113*%
X198972000Y-105961000D03*
X200472000Y-105961000D03*
X200972000Y-105961000D03*
X201472000Y-105961000D03*
X201972000Y-105961000D03*
X202472000Y-105961000D03*
X202972000Y-105961000D03*
X204472000Y-105961000D03*
X204472000Y-107691000D03*
X202972000Y-107691000D03*
X202472000Y-107691000D03*
X201972000Y-107691000D03*
X201472000Y-107691000D03*
X200972000Y-107691000D03*
X200472000Y-107691000D03*
X198972000Y-107691000D03*
D11*
X199322000Y-105476000D03*
X199322000Y-108176000D03*
X204122000Y-105476000D03*
X204122000Y-108176000D03*
%TD*%
D10*
%TO.C,J111*%
X190032000Y-105961000D03*
X191532000Y-105961000D03*
X192032000Y-105961000D03*
X192532000Y-105961000D03*
X193032000Y-105961000D03*
X193532000Y-105961000D03*
X194032000Y-105961000D03*
X195532000Y-105961000D03*
X195532000Y-107691000D03*
X194032000Y-107691000D03*
X193532000Y-107691000D03*
X193032000Y-107691000D03*
X192532000Y-107691000D03*
X192032000Y-107691000D03*
X191532000Y-107691000D03*
X190032000Y-107691000D03*
D11*
X190382000Y-105476000D03*
X190382000Y-108176000D03*
X195182000Y-105476000D03*
X195182000Y-108176000D03*
%TD*%
D10*
%TO.C,J109*%
X181092000Y-105961000D03*
X182592000Y-105961000D03*
X183092000Y-105961000D03*
X183592000Y-105961000D03*
X184092000Y-105961000D03*
X184592000Y-105961000D03*
X185092000Y-105961000D03*
X186592000Y-105961000D03*
X186592000Y-107691000D03*
X185092000Y-107691000D03*
X184592000Y-107691000D03*
X184092000Y-107691000D03*
X183592000Y-107691000D03*
X183092000Y-107691000D03*
X182592000Y-107691000D03*
X181092000Y-107691000D03*
D11*
X181442000Y-105476000D03*
X181442000Y-108176000D03*
X186242000Y-105476000D03*
X186242000Y-108176000D03*
%TD*%
D10*
%TO.C,J107*%
X172152000Y-105961000D03*
X173652000Y-105961000D03*
X174152000Y-105961000D03*
X174652000Y-105961000D03*
X175152000Y-105961000D03*
X175652000Y-105961000D03*
X176152000Y-105961000D03*
X177652000Y-105961000D03*
X177652000Y-107691000D03*
X176152000Y-107691000D03*
X175652000Y-107691000D03*
X175152000Y-107691000D03*
X174652000Y-107691000D03*
X174152000Y-107691000D03*
X173652000Y-107691000D03*
X172152000Y-107691000D03*
D11*
X172502000Y-105476000D03*
X172502000Y-108176000D03*
X177302000Y-105476000D03*
X177302000Y-108176000D03*
%TD*%
D10*
%TO.C,J105*%
X163212000Y-105961000D03*
X164712000Y-105961000D03*
X165212000Y-105961000D03*
X165712000Y-105961000D03*
X166212000Y-105961000D03*
X166712000Y-105961000D03*
X167212000Y-105961000D03*
X168712000Y-105961000D03*
X168712000Y-107691000D03*
X167212000Y-107691000D03*
X166712000Y-107691000D03*
X166212000Y-107691000D03*
X165712000Y-107691000D03*
X165212000Y-107691000D03*
X164712000Y-107691000D03*
X163212000Y-107691000D03*
D11*
X163562000Y-105476000D03*
X163562000Y-108176000D03*
X168362000Y-105476000D03*
X168362000Y-108176000D03*
%TD*%
D10*
%TO.C,J103*%
X154272000Y-105961000D03*
X155772000Y-105961000D03*
X156272000Y-105961000D03*
X156772000Y-105961000D03*
X157272000Y-105961000D03*
X157772000Y-105961000D03*
X158272000Y-105961000D03*
X159772000Y-105961000D03*
X159772000Y-107691000D03*
X158272000Y-107691000D03*
X157772000Y-107691000D03*
X157272000Y-107691000D03*
X156772000Y-107691000D03*
X156272000Y-107691000D03*
X155772000Y-107691000D03*
X154272000Y-107691000D03*
D11*
X154622000Y-105476000D03*
X154622000Y-108176000D03*
X159422000Y-105476000D03*
X159422000Y-108176000D03*
%TD*%
D10*
%TO.C,J101*%
X145332000Y-105961000D03*
X146832000Y-105961000D03*
X147332000Y-105961000D03*
X147832000Y-105961000D03*
X148332000Y-105961000D03*
X148832000Y-105961000D03*
X149332000Y-105961000D03*
X150832000Y-105961000D03*
X150832000Y-107691000D03*
X149332000Y-107691000D03*
X148832000Y-107691000D03*
X148332000Y-107691000D03*
X147832000Y-107691000D03*
X147332000Y-107691000D03*
X146832000Y-107691000D03*
X145332000Y-107691000D03*
D11*
X145682000Y-105476000D03*
X145682000Y-108176000D03*
X150482000Y-105476000D03*
X150482000Y-108176000D03*
%TD*%
D10*
%TO.C,J99*%
X225792000Y-100801000D03*
X227292000Y-100801000D03*
X227792000Y-100801000D03*
X228292000Y-100801000D03*
X228792000Y-100801000D03*
X229292000Y-100801000D03*
X229792000Y-100801000D03*
X231292000Y-100801000D03*
X231292000Y-102531000D03*
X229792000Y-102531000D03*
X229292000Y-102531000D03*
X228792000Y-102531000D03*
X228292000Y-102531000D03*
X227792000Y-102531000D03*
X227292000Y-102531000D03*
X225792000Y-102531000D03*
D11*
X226142000Y-100316000D03*
X226142000Y-103016000D03*
X230942000Y-100316000D03*
X230942000Y-103016000D03*
%TD*%
D10*
%TO.C,J97*%
X216852000Y-100801000D03*
X218352000Y-100801000D03*
X218852000Y-100801000D03*
X219352000Y-100801000D03*
X219852000Y-100801000D03*
X220352000Y-100801000D03*
X220852000Y-100801000D03*
X222352000Y-100801000D03*
X222352000Y-102531000D03*
X220852000Y-102531000D03*
X220352000Y-102531000D03*
X219852000Y-102531000D03*
X219352000Y-102531000D03*
X218852000Y-102531000D03*
X218352000Y-102531000D03*
X216852000Y-102531000D03*
D11*
X217202000Y-100316000D03*
X217202000Y-103016000D03*
X222002000Y-100316000D03*
X222002000Y-103016000D03*
%TD*%
D10*
%TO.C,J95*%
X207912000Y-100801000D03*
X209412000Y-100801000D03*
X209912000Y-100801000D03*
X210412000Y-100801000D03*
X210912000Y-100801000D03*
X211412000Y-100801000D03*
X211912000Y-100801000D03*
X213412000Y-100801000D03*
X213412000Y-102531000D03*
X211912000Y-102531000D03*
X211412000Y-102531000D03*
X210912000Y-102531000D03*
X210412000Y-102531000D03*
X209912000Y-102531000D03*
X209412000Y-102531000D03*
X207912000Y-102531000D03*
D11*
X208262000Y-100316000D03*
X208262000Y-103016000D03*
X213062000Y-100316000D03*
X213062000Y-103016000D03*
%TD*%
D10*
%TO.C,J93*%
X198972000Y-100801000D03*
X200472000Y-100801000D03*
X200972000Y-100801000D03*
X201472000Y-100801000D03*
X201972000Y-100801000D03*
X202472000Y-100801000D03*
X202972000Y-100801000D03*
X204472000Y-100801000D03*
X204472000Y-102531000D03*
X202972000Y-102531000D03*
X202472000Y-102531000D03*
X201972000Y-102531000D03*
X201472000Y-102531000D03*
X200972000Y-102531000D03*
X200472000Y-102531000D03*
X198972000Y-102531000D03*
D11*
X199322000Y-100316000D03*
X199322000Y-103016000D03*
X204122000Y-100316000D03*
X204122000Y-103016000D03*
%TD*%
D10*
%TO.C,J91*%
X190032000Y-100801000D03*
X191532000Y-100801000D03*
X192032000Y-100801000D03*
X192532000Y-100801000D03*
X193032000Y-100801000D03*
X193532000Y-100801000D03*
X194032000Y-100801000D03*
X195532000Y-100801000D03*
X195532000Y-102531000D03*
X194032000Y-102531000D03*
X193532000Y-102531000D03*
X193032000Y-102531000D03*
X192532000Y-102531000D03*
X192032000Y-102531000D03*
X191532000Y-102531000D03*
X190032000Y-102531000D03*
D11*
X190382000Y-100316000D03*
X190382000Y-103016000D03*
X195182000Y-100316000D03*
X195182000Y-103016000D03*
%TD*%
D10*
%TO.C,J89*%
X181092000Y-100801000D03*
X182592000Y-100801000D03*
X183092000Y-100801000D03*
X183592000Y-100801000D03*
X184092000Y-100801000D03*
X184592000Y-100801000D03*
X185092000Y-100801000D03*
X186592000Y-100801000D03*
X186592000Y-102531000D03*
X185092000Y-102531000D03*
X184592000Y-102531000D03*
X184092000Y-102531000D03*
X183592000Y-102531000D03*
X183092000Y-102531000D03*
X182592000Y-102531000D03*
X181092000Y-102531000D03*
D11*
X181442000Y-100316000D03*
X181442000Y-103016000D03*
X186242000Y-100316000D03*
X186242000Y-103016000D03*
%TD*%
D10*
%TO.C,J87*%
X172152000Y-100801000D03*
X173652000Y-100801000D03*
X174152000Y-100801000D03*
X174652000Y-100801000D03*
X175152000Y-100801000D03*
X175652000Y-100801000D03*
X176152000Y-100801000D03*
X177652000Y-100801000D03*
X177652000Y-102531000D03*
X176152000Y-102531000D03*
X175652000Y-102531000D03*
X175152000Y-102531000D03*
X174652000Y-102531000D03*
X174152000Y-102531000D03*
X173652000Y-102531000D03*
X172152000Y-102531000D03*
D11*
X172502000Y-100316000D03*
X172502000Y-103016000D03*
X177302000Y-100316000D03*
X177302000Y-103016000D03*
%TD*%
D10*
%TO.C,J85*%
X163212000Y-100801000D03*
X164712000Y-100801000D03*
X165212000Y-100801000D03*
X165712000Y-100801000D03*
X166212000Y-100801000D03*
X166712000Y-100801000D03*
X167212000Y-100801000D03*
X168712000Y-100801000D03*
X168712000Y-102531000D03*
X167212000Y-102531000D03*
X166712000Y-102531000D03*
X166212000Y-102531000D03*
X165712000Y-102531000D03*
X165212000Y-102531000D03*
X164712000Y-102531000D03*
X163212000Y-102531000D03*
D11*
X163562000Y-100316000D03*
X163562000Y-103016000D03*
X168362000Y-100316000D03*
X168362000Y-103016000D03*
%TD*%
D10*
%TO.C,J83*%
X154272000Y-100801000D03*
X155772000Y-100801000D03*
X156272000Y-100801000D03*
X156772000Y-100801000D03*
X157272000Y-100801000D03*
X157772000Y-100801000D03*
X158272000Y-100801000D03*
X159772000Y-100801000D03*
X159772000Y-102531000D03*
X158272000Y-102531000D03*
X157772000Y-102531000D03*
X157272000Y-102531000D03*
X156772000Y-102531000D03*
X156272000Y-102531000D03*
X155772000Y-102531000D03*
X154272000Y-102531000D03*
D11*
X154622000Y-100316000D03*
X154622000Y-103016000D03*
X159422000Y-100316000D03*
X159422000Y-103016000D03*
%TD*%
D10*
%TO.C,J81*%
X145332000Y-100801000D03*
X146832000Y-100801000D03*
X147332000Y-100801000D03*
X147832000Y-100801000D03*
X148332000Y-100801000D03*
X148832000Y-100801000D03*
X149332000Y-100801000D03*
X150832000Y-100801000D03*
X150832000Y-102531000D03*
X149332000Y-102531000D03*
X148832000Y-102531000D03*
X148332000Y-102531000D03*
X147832000Y-102531000D03*
X147332000Y-102531000D03*
X146832000Y-102531000D03*
X145332000Y-102531000D03*
D11*
X145682000Y-100316000D03*
X145682000Y-103016000D03*
X150482000Y-100316000D03*
X150482000Y-103016000D03*
%TD*%
D10*
%TO.C,J79*%
X225792000Y-95641000D03*
X227292000Y-95641000D03*
X227792000Y-95641000D03*
X228292000Y-95641000D03*
X228792000Y-95641000D03*
X229292000Y-95641000D03*
X229792000Y-95641000D03*
X231292000Y-95641000D03*
X231292000Y-97371000D03*
X229792000Y-97371000D03*
X229292000Y-97371000D03*
X228792000Y-97371000D03*
X228292000Y-97371000D03*
X227792000Y-97371000D03*
X227292000Y-97371000D03*
X225792000Y-97371000D03*
D11*
X226142000Y-95156000D03*
X226142000Y-97856000D03*
X230942000Y-95156000D03*
X230942000Y-97856000D03*
%TD*%
D10*
%TO.C,J77*%
X216852000Y-95641000D03*
X218352000Y-95641000D03*
X218852000Y-95641000D03*
X219352000Y-95641000D03*
X219852000Y-95641000D03*
X220352000Y-95641000D03*
X220852000Y-95641000D03*
X222352000Y-95641000D03*
X222352000Y-97371000D03*
X220852000Y-97371000D03*
X220352000Y-97371000D03*
X219852000Y-97371000D03*
X219352000Y-97371000D03*
X218852000Y-97371000D03*
X218352000Y-97371000D03*
X216852000Y-97371000D03*
D11*
X217202000Y-95156000D03*
X217202000Y-97856000D03*
X222002000Y-95156000D03*
X222002000Y-97856000D03*
%TD*%
D10*
%TO.C,J75*%
X207912000Y-95641000D03*
X209412000Y-95641000D03*
X209912000Y-95641000D03*
X210412000Y-95641000D03*
X210912000Y-95641000D03*
X211412000Y-95641000D03*
X211912000Y-95641000D03*
X213412000Y-95641000D03*
X213412000Y-97371000D03*
X211912000Y-97371000D03*
X211412000Y-97371000D03*
X210912000Y-97371000D03*
X210412000Y-97371000D03*
X209912000Y-97371000D03*
X209412000Y-97371000D03*
X207912000Y-97371000D03*
D11*
X208262000Y-95156000D03*
X208262000Y-97856000D03*
X213062000Y-95156000D03*
X213062000Y-97856000D03*
%TD*%
D10*
%TO.C,J73*%
X198972000Y-95641000D03*
X200472000Y-95641000D03*
X200972000Y-95641000D03*
X201472000Y-95641000D03*
X201972000Y-95641000D03*
X202472000Y-95641000D03*
X202972000Y-95641000D03*
X204472000Y-95641000D03*
X204472000Y-97371000D03*
X202972000Y-97371000D03*
X202472000Y-97371000D03*
X201972000Y-97371000D03*
X201472000Y-97371000D03*
X200972000Y-97371000D03*
X200472000Y-97371000D03*
X198972000Y-97371000D03*
D11*
X199322000Y-95156000D03*
X199322000Y-97856000D03*
X204122000Y-95156000D03*
X204122000Y-97856000D03*
%TD*%
D10*
%TO.C,J71*%
X190032000Y-95641000D03*
X191532000Y-95641000D03*
X192032000Y-95641000D03*
X192532000Y-95641000D03*
X193032000Y-95641000D03*
X193532000Y-95641000D03*
X194032000Y-95641000D03*
X195532000Y-95641000D03*
X195532000Y-97371000D03*
X194032000Y-97371000D03*
X193532000Y-97371000D03*
X193032000Y-97371000D03*
X192532000Y-97371000D03*
X192032000Y-97371000D03*
X191532000Y-97371000D03*
X190032000Y-97371000D03*
D11*
X190382000Y-95156000D03*
X190382000Y-97856000D03*
X195182000Y-95156000D03*
X195182000Y-97856000D03*
%TD*%
D10*
%TO.C,J69*%
X181092000Y-95641000D03*
X182592000Y-95641000D03*
X183092000Y-95641000D03*
X183592000Y-95641000D03*
X184092000Y-95641000D03*
X184592000Y-95641000D03*
X185092000Y-95641000D03*
X186592000Y-95641000D03*
X186592000Y-97371000D03*
X185092000Y-97371000D03*
X184592000Y-97371000D03*
X184092000Y-97371000D03*
X183592000Y-97371000D03*
X183092000Y-97371000D03*
X182592000Y-97371000D03*
X181092000Y-97371000D03*
D11*
X181442000Y-95156000D03*
X181442000Y-97856000D03*
X186242000Y-95156000D03*
X186242000Y-97856000D03*
%TD*%
D10*
%TO.C,J67*%
X172152000Y-95641000D03*
X173652000Y-95641000D03*
X174152000Y-95641000D03*
X174652000Y-95641000D03*
X175152000Y-95641000D03*
X175652000Y-95641000D03*
X176152000Y-95641000D03*
X177652000Y-95641000D03*
X177652000Y-97371000D03*
X176152000Y-97371000D03*
X175652000Y-97371000D03*
X175152000Y-97371000D03*
X174652000Y-97371000D03*
X174152000Y-97371000D03*
X173652000Y-97371000D03*
X172152000Y-97371000D03*
D11*
X172502000Y-95156000D03*
X172502000Y-97856000D03*
X177302000Y-95156000D03*
X177302000Y-97856000D03*
%TD*%
D10*
%TO.C,J65*%
X163212000Y-95641000D03*
X164712000Y-95641000D03*
X165212000Y-95641000D03*
X165712000Y-95641000D03*
X166212000Y-95641000D03*
X166712000Y-95641000D03*
X167212000Y-95641000D03*
X168712000Y-95641000D03*
X168712000Y-97371000D03*
X167212000Y-97371000D03*
X166712000Y-97371000D03*
X166212000Y-97371000D03*
X165712000Y-97371000D03*
X165212000Y-97371000D03*
X164712000Y-97371000D03*
X163212000Y-97371000D03*
D11*
X163562000Y-95156000D03*
X163562000Y-97856000D03*
X168362000Y-95156000D03*
X168362000Y-97856000D03*
%TD*%
D10*
%TO.C,J63*%
X154272000Y-95641000D03*
X155772000Y-95641000D03*
X156272000Y-95641000D03*
X156772000Y-95641000D03*
X157272000Y-95641000D03*
X157772000Y-95641000D03*
X158272000Y-95641000D03*
X159772000Y-95641000D03*
X159772000Y-97371000D03*
X158272000Y-97371000D03*
X157772000Y-97371000D03*
X157272000Y-97371000D03*
X156772000Y-97371000D03*
X156272000Y-97371000D03*
X155772000Y-97371000D03*
X154272000Y-97371000D03*
D11*
X154622000Y-95156000D03*
X154622000Y-97856000D03*
X159422000Y-95156000D03*
X159422000Y-97856000D03*
%TD*%
D10*
%TO.C,J61*%
X145332000Y-95641000D03*
X146832000Y-95641000D03*
X147332000Y-95641000D03*
X147832000Y-95641000D03*
X148332000Y-95641000D03*
X148832000Y-95641000D03*
X149332000Y-95641000D03*
X150832000Y-95641000D03*
X150832000Y-97371000D03*
X149332000Y-97371000D03*
X148832000Y-97371000D03*
X148332000Y-97371000D03*
X147832000Y-97371000D03*
X147332000Y-97371000D03*
X146832000Y-97371000D03*
X145332000Y-97371000D03*
D11*
X145682000Y-95156000D03*
X145682000Y-97856000D03*
X150482000Y-95156000D03*
X150482000Y-97856000D03*
%TD*%
D10*
%TO.C,J59*%
X225792000Y-90481000D03*
X227292000Y-90481000D03*
X227792000Y-90481000D03*
X228292000Y-90481000D03*
X228792000Y-90481000D03*
X229292000Y-90481000D03*
X229792000Y-90481000D03*
X231292000Y-90481000D03*
X231292000Y-92211000D03*
X229792000Y-92211000D03*
X229292000Y-92211000D03*
X228792000Y-92211000D03*
X228292000Y-92211000D03*
X227792000Y-92211000D03*
X227292000Y-92211000D03*
X225792000Y-92211000D03*
D11*
X226142000Y-89996000D03*
X226142000Y-92696000D03*
X230942000Y-89996000D03*
X230942000Y-92696000D03*
%TD*%
D10*
%TO.C,J57*%
X216852000Y-90481000D03*
X218352000Y-90481000D03*
X218852000Y-90481000D03*
X219352000Y-90481000D03*
X219852000Y-90481000D03*
X220352000Y-90481000D03*
X220852000Y-90481000D03*
X222352000Y-90481000D03*
X222352000Y-92211000D03*
X220852000Y-92211000D03*
X220352000Y-92211000D03*
X219852000Y-92211000D03*
X219352000Y-92211000D03*
X218852000Y-92211000D03*
X218352000Y-92211000D03*
X216852000Y-92211000D03*
D11*
X217202000Y-89996000D03*
X217202000Y-92696000D03*
X222002000Y-89996000D03*
X222002000Y-92696000D03*
%TD*%
D10*
%TO.C,J55*%
X207912000Y-90481000D03*
X209412000Y-90481000D03*
X209912000Y-90481000D03*
X210412000Y-90481000D03*
X210912000Y-90481000D03*
X211412000Y-90481000D03*
X211912000Y-90481000D03*
X213412000Y-90481000D03*
X213412000Y-92211000D03*
X211912000Y-92211000D03*
X211412000Y-92211000D03*
X210912000Y-92211000D03*
X210412000Y-92211000D03*
X209912000Y-92211000D03*
X209412000Y-92211000D03*
X207912000Y-92211000D03*
D11*
X208262000Y-89996000D03*
X208262000Y-92696000D03*
X213062000Y-89996000D03*
X213062000Y-92696000D03*
%TD*%
D10*
%TO.C,J53*%
X198972000Y-90481000D03*
X200472000Y-90481000D03*
X200972000Y-90481000D03*
X201472000Y-90481000D03*
X201972000Y-90481000D03*
X202472000Y-90481000D03*
X202972000Y-90481000D03*
X204472000Y-90481000D03*
X204472000Y-92211000D03*
X202972000Y-92211000D03*
X202472000Y-92211000D03*
X201972000Y-92211000D03*
X201472000Y-92211000D03*
X200972000Y-92211000D03*
X200472000Y-92211000D03*
X198972000Y-92211000D03*
D11*
X199322000Y-89996000D03*
X199322000Y-92696000D03*
X204122000Y-89996000D03*
X204122000Y-92696000D03*
%TD*%
D10*
%TO.C,J51*%
X190032000Y-90481000D03*
X191532000Y-90481000D03*
X192032000Y-90481000D03*
X192532000Y-90481000D03*
X193032000Y-90481000D03*
X193532000Y-90481000D03*
X194032000Y-90481000D03*
X195532000Y-90481000D03*
X195532000Y-92211000D03*
X194032000Y-92211000D03*
X193532000Y-92211000D03*
X193032000Y-92211000D03*
X192532000Y-92211000D03*
X192032000Y-92211000D03*
X191532000Y-92211000D03*
X190032000Y-92211000D03*
D11*
X190382000Y-89996000D03*
X190382000Y-92696000D03*
X195182000Y-89996000D03*
X195182000Y-92696000D03*
%TD*%
D10*
%TO.C,J49*%
X181092000Y-90481000D03*
X182592000Y-90481000D03*
X183092000Y-90481000D03*
X183592000Y-90481000D03*
X184092000Y-90481000D03*
X184592000Y-90481000D03*
X185092000Y-90481000D03*
X186592000Y-90481000D03*
X186592000Y-92211000D03*
X185092000Y-92211000D03*
X184592000Y-92211000D03*
X184092000Y-92211000D03*
X183592000Y-92211000D03*
X183092000Y-92211000D03*
X182592000Y-92211000D03*
X181092000Y-92211000D03*
D11*
X181442000Y-89996000D03*
X181442000Y-92696000D03*
X186242000Y-89996000D03*
X186242000Y-92696000D03*
%TD*%
D10*
%TO.C,J47*%
X172152000Y-90481000D03*
X173652000Y-90481000D03*
X174152000Y-90481000D03*
X174652000Y-90481000D03*
X175152000Y-90481000D03*
X175652000Y-90481000D03*
X176152000Y-90481000D03*
X177652000Y-90481000D03*
X177652000Y-92211000D03*
X176152000Y-92211000D03*
X175652000Y-92211000D03*
X175152000Y-92211000D03*
X174652000Y-92211000D03*
X174152000Y-92211000D03*
X173652000Y-92211000D03*
X172152000Y-92211000D03*
D11*
X172502000Y-89996000D03*
X172502000Y-92696000D03*
X177302000Y-89996000D03*
X177302000Y-92696000D03*
%TD*%
D10*
%TO.C,J45*%
X163212000Y-90481000D03*
X164712000Y-90481000D03*
X165212000Y-90481000D03*
X165712000Y-90481000D03*
X166212000Y-90481000D03*
X166712000Y-90481000D03*
X167212000Y-90481000D03*
X168712000Y-90481000D03*
X168712000Y-92211000D03*
X167212000Y-92211000D03*
X166712000Y-92211000D03*
X166212000Y-92211000D03*
X165712000Y-92211000D03*
X165212000Y-92211000D03*
X164712000Y-92211000D03*
X163212000Y-92211000D03*
D11*
X163562000Y-89996000D03*
X163562000Y-92696000D03*
X168362000Y-89996000D03*
X168362000Y-92696000D03*
%TD*%
D10*
%TO.C,J43*%
X154272000Y-90481000D03*
X155772000Y-90481000D03*
X156272000Y-90481000D03*
X156772000Y-90481000D03*
X157272000Y-90481000D03*
X157772000Y-90481000D03*
X158272000Y-90481000D03*
X159772000Y-90481000D03*
X159772000Y-92211000D03*
X158272000Y-92211000D03*
X157772000Y-92211000D03*
X157272000Y-92211000D03*
X156772000Y-92211000D03*
X156272000Y-92211000D03*
X155772000Y-92211000D03*
X154272000Y-92211000D03*
D11*
X154622000Y-89996000D03*
X154622000Y-92696000D03*
X159422000Y-89996000D03*
X159422000Y-92696000D03*
%TD*%
D10*
%TO.C,J41*%
X145332000Y-90481000D03*
X146832000Y-90481000D03*
X147332000Y-90481000D03*
X147832000Y-90481000D03*
X148332000Y-90481000D03*
X148832000Y-90481000D03*
X149332000Y-90481000D03*
X150832000Y-90481000D03*
X150832000Y-92211000D03*
X149332000Y-92211000D03*
X148832000Y-92211000D03*
X148332000Y-92211000D03*
X147832000Y-92211000D03*
X147332000Y-92211000D03*
X146832000Y-92211000D03*
X145332000Y-92211000D03*
D11*
X145682000Y-89996000D03*
X145682000Y-92696000D03*
X150482000Y-89996000D03*
X150482000Y-92696000D03*
%TD*%
D10*
%TO.C,J39*%
X225792000Y-85321000D03*
X227292000Y-85321000D03*
X227792000Y-85321000D03*
X228292000Y-85321000D03*
X228792000Y-85321000D03*
X229292000Y-85321000D03*
X229792000Y-85321000D03*
X231292000Y-85321000D03*
X231292000Y-87051000D03*
X229792000Y-87051000D03*
X229292000Y-87051000D03*
X228792000Y-87051000D03*
X228292000Y-87051000D03*
X227792000Y-87051000D03*
X227292000Y-87051000D03*
X225792000Y-87051000D03*
D11*
X226142000Y-84836000D03*
X226142000Y-87536000D03*
X230942000Y-84836000D03*
X230942000Y-87536000D03*
%TD*%
D10*
%TO.C,J37*%
X216852000Y-85321000D03*
X218352000Y-85321000D03*
X218852000Y-85321000D03*
X219352000Y-85321000D03*
X219852000Y-85321000D03*
X220352000Y-85321000D03*
X220852000Y-85321000D03*
X222352000Y-85321000D03*
X222352000Y-87051000D03*
X220852000Y-87051000D03*
X220352000Y-87051000D03*
X219852000Y-87051000D03*
X219352000Y-87051000D03*
X218852000Y-87051000D03*
X218352000Y-87051000D03*
X216852000Y-87051000D03*
D11*
X217202000Y-84836000D03*
X217202000Y-87536000D03*
X222002000Y-84836000D03*
X222002000Y-87536000D03*
%TD*%
D10*
%TO.C,J35*%
X207912000Y-85321000D03*
X209412000Y-85321000D03*
X209912000Y-85321000D03*
X210412000Y-85321000D03*
X210912000Y-85321000D03*
X211412000Y-85321000D03*
X211912000Y-85321000D03*
X213412000Y-85321000D03*
X213412000Y-87051000D03*
X211912000Y-87051000D03*
X211412000Y-87051000D03*
X210912000Y-87051000D03*
X210412000Y-87051000D03*
X209912000Y-87051000D03*
X209412000Y-87051000D03*
X207912000Y-87051000D03*
D11*
X208262000Y-84836000D03*
X208262000Y-87536000D03*
X213062000Y-84836000D03*
X213062000Y-87536000D03*
%TD*%
D10*
%TO.C,J33*%
X198972000Y-85321000D03*
X200472000Y-85321000D03*
X200972000Y-85321000D03*
X201472000Y-85321000D03*
X201972000Y-85321000D03*
X202472000Y-85321000D03*
X202972000Y-85321000D03*
X204472000Y-85321000D03*
X204472000Y-87051000D03*
X202972000Y-87051000D03*
X202472000Y-87051000D03*
X201972000Y-87051000D03*
X201472000Y-87051000D03*
X200972000Y-87051000D03*
X200472000Y-87051000D03*
X198972000Y-87051000D03*
D11*
X199322000Y-84836000D03*
X199322000Y-87536000D03*
X204122000Y-84836000D03*
X204122000Y-87536000D03*
%TD*%
D10*
%TO.C,J31*%
X190032000Y-85321000D03*
X191532000Y-85321000D03*
X192032000Y-85321000D03*
X192532000Y-85321000D03*
X193032000Y-85321000D03*
X193532000Y-85321000D03*
X194032000Y-85321000D03*
X195532000Y-85321000D03*
X195532000Y-87051000D03*
X194032000Y-87051000D03*
X193532000Y-87051000D03*
X193032000Y-87051000D03*
X192532000Y-87051000D03*
X192032000Y-87051000D03*
X191532000Y-87051000D03*
X190032000Y-87051000D03*
D11*
X190382000Y-84836000D03*
X190382000Y-87536000D03*
X195182000Y-84836000D03*
X195182000Y-87536000D03*
%TD*%
D10*
%TO.C,J29*%
X181092000Y-85321000D03*
X182592000Y-85321000D03*
X183092000Y-85321000D03*
X183592000Y-85321000D03*
X184092000Y-85321000D03*
X184592000Y-85321000D03*
X185092000Y-85321000D03*
X186592000Y-85321000D03*
X186592000Y-87051000D03*
X185092000Y-87051000D03*
X184592000Y-87051000D03*
X184092000Y-87051000D03*
X183592000Y-87051000D03*
X183092000Y-87051000D03*
X182592000Y-87051000D03*
X181092000Y-87051000D03*
D11*
X181442000Y-84836000D03*
X181442000Y-87536000D03*
X186242000Y-84836000D03*
X186242000Y-87536000D03*
%TD*%
D10*
%TO.C,J27*%
X172152000Y-85321000D03*
X173652000Y-85321000D03*
X174152000Y-85321000D03*
X174652000Y-85321000D03*
X175152000Y-85321000D03*
X175652000Y-85321000D03*
X176152000Y-85321000D03*
X177652000Y-85321000D03*
X177652000Y-87051000D03*
X176152000Y-87051000D03*
X175652000Y-87051000D03*
X175152000Y-87051000D03*
X174652000Y-87051000D03*
X174152000Y-87051000D03*
X173652000Y-87051000D03*
X172152000Y-87051000D03*
D11*
X172502000Y-84836000D03*
X172502000Y-87536000D03*
X177302000Y-84836000D03*
X177302000Y-87536000D03*
%TD*%
D10*
%TO.C,J25*%
X163212000Y-85321000D03*
X164712000Y-85321000D03*
X165212000Y-85321000D03*
X165712000Y-85321000D03*
X166212000Y-85321000D03*
X166712000Y-85321000D03*
X167212000Y-85321000D03*
X168712000Y-85321000D03*
X168712000Y-87051000D03*
X167212000Y-87051000D03*
X166712000Y-87051000D03*
X166212000Y-87051000D03*
X165712000Y-87051000D03*
X165212000Y-87051000D03*
X164712000Y-87051000D03*
X163212000Y-87051000D03*
D11*
X163562000Y-84836000D03*
X163562000Y-87536000D03*
X168362000Y-84836000D03*
X168362000Y-87536000D03*
%TD*%
D10*
%TO.C,J23*%
X154272000Y-85321000D03*
X155772000Y-85321000D03*
X156272000Y-85321000D03*
X156772000Y-85321000D03*
X157272000Y-85321000D03*
X157772000Y-85321000D03*
X158272000Y-85321000D03*
X159772000Y-85321000D03*
X159772000Y-87051000D03*
X158272000Y-87051000D03*
X157772000Y-87051000D03*
X157272000Y-87051000D03*
X156772000Y-87051000D03*
X156272000Y-87051000D03*
X155772000Y-87051000D03*
X154272000Y-87051000D03*
D11*
X154622000Y-84836000D03*
X154622000Y-87536000D03*
X159422000Y-84836000D03*
X159422000Y-87536000D03*
%TD*%
D10*
%TO.C,J21*%
X145332000Y-85321000D03*
X146832000Y-85321000D03*
X147332000Y-85321000D03*
X147832000Y-85321000D03*
X148332000Y-85321000D03*
X148832000Y-85321000D03*
X149332000Y-85321000D03*
X150832000Y-85321000D03*
X150832000Y-87051000D03*
X149332000Y-87051000D03*
X148832000Y-87051000D03*
X148332000Y-87051000D03*
X147832000Y-87051000D03*
X147332000Y-87051000D03*
X146832000Y-87051000D03*
X145332000Y-87051000D03*
D11*
X145682000Y-84836000D03*
X145682000Y-87536000D03*
X150482000Y-84836000D03*
X150482000Y-87536000D03*
%TD*%
D10*
%TO.C,J19*%
X225792000Y-80161000D03*
X227292000Y-80161000D03*
X227792000Y-80161000D03*
X228292000Y-80161000D03*
X228792000Y-80161000D03*
X229292000Y-80161000D03*
X229792000Y-80161000D03*
X231292000Y-80161000D03*
X231292000Y-81891000D03*
X229792000Y-81891000D03*
X229292000Y-81891000D03*
X228792000Y-81891000D03*
X228292000Y-81891000D03*
X227792000Y-81891000D03*
X227292000Y-81891000D03*
X225792000Y-81891000D03*
D11*
X226142000Y-79676000D03*
X226142000Y-82376000D03*
X230942000Y-79676000D03*
X230942000Y-82376000D03*
%TD*%
D10*
%TO.C,J17*%
X216852000Y-80161000D03*
X218352000Y-80161000D03*
X218852000Y-80161000D03*
X219352000Y-80161000D03*
X219852000Y-80161000D03*
X220352000Y-80161000D03*
X220852000Y-80161000D03*
X222352000Y-80161000D03*
X222352000Y-81891000D03*
X220852000Y-81891000D03*
X220352000Y-81891000D03*
X219852000Y-81891000D03*
X219352000Y-81891000D03*
X218852000Y-81891000D03*
X218352000Y-81891000D03*
X216852000Y-81891000D03*
D11*
X217202000Y-79676000D03*
X217202000Y-82376000D03*
X222002000Y-79676000D03*
X222002000Y-82376000D03*
%TD*%
D10*
%TO.C,J15*%
X207912000Y-80161000D03*
X209412000Y-80161000D03*
X209912000Y-80161000D03*
X210412000Y-80161000D03*
X210912000Y-80161000D03*
X211412000Y-80161000D03*
X211912000Y-80161000D03*
X213412000Y-80161000D03*
X213412000Y-81891000D03*
X211912000Y-81891000D03*
X211412000Y-81891000D03*
X210912000Y-81891000D03*
X210412000Y-81891000D03*
X209912000Y-81891000D03*
X209412000Y-81891000D03*
X207912000Y-81891000D03*
D11*
X208262000Y-79676000D03*
X208262000Y-82376000D03*
X213062000Y-79676000D03*
X213062000Y-82376000D03*
%TD*%
D10*
%TO.C,J13*%
X198972000Y-80161000D03*
X200472000Y-80161000D03*
X200972000Y-80161000D03*
X201472000Y-80161000D03*
X201972000Y-80161000D03*
X202472000Y-80161000D03*
X202972000Y-80161000D03*
X204472000Y-80161000D03*
X204472000Y-81891000D03*
X202972000Y-81891000D03*
X202472000Y-81891000D03*
X201972000Y-81891000D03*
X201472000Y-81891000D03*
X200972000Y-81891000D03*
X200472000Y-81891000D03*
X198972000Y-81891000D03*
D11*
X199322000Y-79676000D03*
X199322000Y-82376000D03*
X204122000Y-79676000D03*
X204122000Y-82376000D03*
%TD*%
D10*
%TO.C,J11*%
X190032000Y-80161000D03*
X191532000Y-80161000D03*
X192032000Y-80161000D03*
X192532000Y-80161000D03*
X193032000Y-80161000D03*
X193532000Y-80161000D03*
X194032000Y-80161000D03*
X195532000Y-80161000D03*
X195532000Y-81891000D03*
X194032000Y-81891000D03*
X193532000Y-81891000D03*
X193032000Y-81891000D03*
X192532000Y-81891000D03*
X192032000Y-81891000D03*
X191532000Y-81891000D03*
X190032000Y-81891000D03*
D11*
X190382000Y-79676000D03*
X190382000Y-82376000D03*
X195182000Y-79676000D03*
X195182000Y-82376000D03*
%TD*%
D10*
%TO.C,J9*%
X181092000Y-80161000D03*
X182592000Y-80161000D03*
X183092000Y-80161000D03*
X183592000Y-80161000D03*
X184092000Y-80161000D03*
X184592000Y-80161000D03*
X185092000Y-80161000D03*
X186592000Y-80161000D03*
X186592000Y-81891000D03*
X185092000Y-81891000D03*
X184592000Y-81891000D03*
X184092000Y-81891000D03*
X183592000Y-81891000D03*
X183092000Y-81891000D03*
X182592000Y-81891000D03*
X181092000Y-81891000D03*
D11*
X181442000Y-79676000D03*
X181442000Y-82376000D03*
X186242000Y-79676000D03*
X186242000Y-82376000D03*
%TD*%
D10*
%TO.C,J7*%
X172152000Y-80161000D03*
X173652000Y-80161000D03*
X174152000Y-80161000D03*
X174652000Y-80161000D03*
X175152000Y-80161000D03*
X175652000Y-80161000D03*
X176152000Y-80161000D03*
X177652000Y-80161000D03*
X177652000Y-81891000D03*
X176152000Y-81891000D03*
X175652000Y-81891000D03*
X175152000Y-81891000D03*
X174652000Y-81891000D03*
X174152000Y-81891000D03*
X173652000Y-81891000D03*
X172152000Y-81891000D03*
D11*
X172502000Y-79676000D03*
X172502000Y-82376000D03*
X177302000Y-79676000D03*
X177302000Y-82376000D03*
%TD*%
D10*
%TO.C,J5*%
X163212000Y-80161000D03*
X164712000Y-80161000D03*
X165212000Y-80161000D03*
X165712000Y-80161000D03*
X166212000Y-80161000D03*
X166712000Y-80161000D03*
X167212000Y-80161000D03*
X168712000Y-80161000D03*
X168712000Y-81891000D03*
X167212000Y-81891000D03*
X166712000Y-81891000D03*
X166212000Y-81891000D03*
X165712000Y-81891000D03*
X165212000Y-81891000D03*
X164712000Y-81891000D03*
X163212000Y-81891000D03*
D11*
X163562000Y-79676000D03*
X163562000Y-82376000D03*
X168362000Y-79676000D03*
X168362000Y-82376000D03*
%TD*%
D10*
%TO.C,J3*%
X154272000Y-80161000D03*
X155772000Y-80161000D03*
X156272000Y-80161000D03*
X156772000Y-80161000D03*
X157272000Y-80161000D03*
X157772000Y-80161000D03*
X158272000Y-80161000D03*
X159772000Y-80161000D03*
X159772000Y-81891000D03*
X158272000Y-81891000D03*
X157772000Y-81891000D03*
X157272000Y-81891000D03*
X156772000Y-81891000D03*
X156272000Y-81891000D03*
X155772000Y-81891000D03*
X154272000Y-81891000D03*
D11*
X154622000Y-79676000D03*
X154622000Y-82376000D03*
X159422000Y-79676000D03*
X159422000Y-82376000D03*
%TD*%
D10*
%TO.C,J1*%
X145332000Y-80161000D03*
X146832000Y-80161000D03*
X147332000Y-80161000D03*
X147832000Y-80161000D03*
X148332000Y-80161000D03*
X148832000Y-80161000D03*
X149332000Y-80161000D03*
X150832000Y-80161000D03*
X150832000Y-81891000D03*
X149332000Y-81891000D03*
X148832000Y-81891000D03*
X148332000Y-81891000D03*
X147832000Y-81891000D03*
X147332000Y-81891000D03*
X146832000Y-81891000D03*
X145332000Y-81891000D03*
D11*
X145682000Y-79676000D03*
X145682000Y-82376000D03*
X150482000Y-79676000D03*
X150482000Y-82376000D03*
%TD*%
M02*
