%TF.GenerationSoftware,KiCad,Pcbnew,(6.0.11)*%
%TF.CreationDate,2023-04-11T15:55:55+08:00*%
%TF.ProjectId,MicroUSB2TypeCPanelization,4d696372-6f55-4534-9232-547970654350,rev?*%
%TF.SameCoordinates,Original*%
%TF.FileFunction,Legend,Top*%
%TF.FilePolarity,Positive*%
%FSLAX46Y46*%
G04 Gerber Fmt 4.6, Leading zero omitted, Abs format (unit mm)*
G04 Created by KiCad (PCBNEW (6.0.11)) date 2023-04-11 15:55:55*
%MOMM*%
%LPD*%
G01*
G04 APERTURE LIST*
%ADD10C,0.150000*%
%ADD11C,0.050000*%
G04 APERTURE END LIST*
D10*
%TO.C,J1*%
X231036666Y-140622380D02*
X231036666Y-141336666D01*
X230989047Y-141479523D01*
X230893809Y-141574761D01*
X230750952Y-141622380D01*
X230655714Y-141622380D01*
X232036666Y-141622380D02*
X231465238Y-141622380D01*
X231750952Y-141622380D02*
X231750952Y-140622380D01*
X231655714Y-140765238D01*
X231560476Y-140860476D01*
X231465238Y-140908095D01*
X222096666Y-140622380D02*
X222096666Y-141336666D01*
X222049047Y-141479523D01*
X221953809Y-141574761D01*
X221810952Y-141622380D01*
X221715714Y-141622380D01*
X223096666Y-141622380D02*
X222525238Y-141622380D01*
X222810952Y-141622380D02*
X222810952Y-140622380D01*
X222715714Y-140765238D01*
X222620476Y-140860476D01*
X222525238Y-140908095D01*
X213156666Y-140622380D02*
X213156666Y-141336666D01*
X213109047Y-141479523D01*
X213013809Y-141574761D01*
X212870952Y-141622380D01*
X212775714Y-141622380D01*
X214156666Y-141622380D02*
X213585238Y-141622380D01*
X213870952Y-141622380D02*
X213870952Y-140622380D01*
X213775714Y-140765238D01*
X213680476Y-140860476D01*
X213585238Y-140908095D01*
X204216666Y-140622380D02*
X204216666Y-141336666D01*
X204169047Y-141479523D01*
X204073809Y-141574761D01*
X203930952Y-141622380D01*
X203835714Y-141622380D01*
X205216666Y-141622380D02*
X204645238Y-141622380D01*
X204930952Y-141622380D02*
X204930952Y-140622380D01*
X204835714Y-140765238D01*
X204740476Y-140860476D01*
X204645238Y-140908095D01*
X195276666Y-140622380D02*
X195276666Y-141336666D01*
X195229047Y-141479523D01*
X195133809Y-141574761D01*
X194990952Y-141622380D01*
X194895714Y-141622380D01*
X196276666Y-141622380D02*
X195705238Y-141622380D01*
X195990952Y-141622380D02*
X195990952Y-140622380D01*
X195895714Y-140765238D01*
X195800476Y-140860476D01*
X195705238Y-140908095D01*
X186336666Y-140622380D02*
X186336666Y-141336666D01*
X186289047Y-141479523D01*
X186193809Y-141574761D01*
X186050952Y-141622380D01*
X185955714Y-141622380D01*
X187336666Y-141622380D02*
X186765238Y-141622380D01*
X187050952Y-141622380D02*
X187050952Y-140622380D01*
X186955714Y-140765238D01*
X186860476Y-140860476D01*
X186765238Y-140908095D01*
X177396666Y-140622380D02*
X177396666Y-141336666D01*
X177349047Y-141479523D01*
X177253809Y-141574761D01*
X177110952Y-141622380D01*
X177015714Y-141622380D01*
X178396666Y-141622380D02*
X177825238Y-141622380D01*
X178110952Y-141622380D02*
X178110952Y-140622380D01*
X178015714Y-140765238D01*
X177920476Y-140860476D01*
X177825238Y-140908095D01*
X168456666Y-140622380D02*
X168456666Y-141336666D01*
X168409047Y-141479523D01*
X168313809Y-141574761D01*
X168170952Y-141622380D01*
X168075714Y-141622380D01*
X169456666Y-141622380D02*
X168885238Y-141622380D01*
X169170952Y-141622380D02*
X169170952Y-140622380D01*
X169075714Y-140765238D01*
X168980476Y-140860476D01*
X168885238Y-140908095D01*
X159516666Y-140622380D02*
X159516666Y-141336666D01*
X159469047Y-141479523D01*
X159373809Y-141574761D01*
X159230952Y-141622380D01*
X159135714Y-141622380D01*
X160516666Y-141622380D02*
X159945238Y-141622380D01*
X160230952Y-141622380D02*
X160230952Y-140622380D01*
X160135714Y-140765238D01*
X160040476Y-140860476D01*
X159945238Y-140908095D01*
X150576666Y-140622380D02*
X150576666Y-141336666D01*
X150529047Y-141479523D01*
X150433809Y-141574761D01*
X150290952Y-141622380D01*
X150195714Y-141622380D01*
X151576666Y-141622380D02*
X151005238Y-141622380D01*
X151290952Y-141622380D02*
X151290952Y-140622380D01*
X151195714Y-140765238D01*
X151100476Y-140860476D01*
X151005238Y-140908095D01*
X231036666Y-137462380D02*
X231036666Y-138176666D01*
X230989047Y-138319523D01*
X230893809Y-138414761D01*
X230750952Y-138462380D01*
X230655714Y-138462380D01*
X232036666Y-138462380D02*
X231465238Y-138462380D01*
X231750952Y-138462380D02*
X231750952Y-137462380D01*
X231655714Y-137605238D01*
X231560476Y-137700476D01*
X231465238Y-137748095D01*
X222096666Y-137462380D02*
X222096666Y-138176666D01*
X222049047Y-138319523D01*
X221953809Y-138414761D01*
X221810952Y-138462380D01*
X221715714Y-138462380D01*
X223096666Y-138462380D02*
X222525238Y-138462380D01*
X222810952Y-138462380D02*
X222810952Y-137462380D01*
X222715714Y-137605238D01*
X222620476Y-137700476D01*
X222525238Y-137748095D01*
X213156666Y-137462380D02*
X213156666Y-138176666D01*
X213109047Y-138319523D01*
X213013809Y-138414761D01*
X212870952Y-138462380D01*
X212775714Y-138462380D01*
X214156666Y-138462380D02*
X213585238Y-138462380D01*
X213870952Y-138462380D02*
X213870952Y-137462380D01*
X213775714Y-137605238D01*
X213680476Y-137700476D01*
X213585238Y-137748095D01*
X204216666Y-137462380D02*
X204216666Y-138176666D01*
X204169047Y-138319523D01*
X204073809Y-138414761D01*
X203930952Y-138462380D01*
X203835714Y-138462380D01*
X205216666Y-138462380D02*
X204645238Y-138462380D01*
X204930952Y-138462380D02*
X204930952Y-137462380D01*
X204835714Y-137605238D01*
X204740476Y-137700476D01*
X204645238Y-137748095D01*
X195276666Y-137462380D02*
X195276666Y-138176666D01*
X195229047Y-138319523D01*
X195133809Y-138414761D01*
X194990952Y-138462380D01*
X194895714Y-138462380D01*
X196276666Y-138462380D02*
X195705238Y-138462380D01*
X195990952Y-138462380D02*
X195990952Y-137462380D01*
X195895714Y-137605238D01*
X195800476Y-137700476D01*
X195705238Y-137748095D01*
X186336666Y-137462380D02*
X186336666Y-138176666D01*
X186289047Y-138319523D01*
X186193809Y-138414761D01*
X186050952Y-138462380D01*
X185955714Y-138462380D01*
X187336666Y-138462380D02*
X186765238Y-138462380D01*
X187050952Y-138462380D02*
X187050952Y-137462380D01*
X186955714Y-137605238D01*
X186860476Y-137700476D01*
X186765238Y-137748095D01*
X177396666Y-137462380D02*
X177396666Y-138176666D01*
X177349047Y-138319523D01*
X177253809Y-138414761D01*
X177110952Y-138462380D01*
X177015714Y-138462380D01*
X178396666Y-138462380D02*
X177825238Y-138462380D01*
X178110952Y-138462380D02*
X178110952Y-137462380D01*
X178015714Y-137605238D01*
X177920476Y-137700476D01*
X177825238Y-137748095D01*
X168456666Y-137462380D02*
X168456666Y-138176666D01*
X168409047Y-138319523D01*
X168313809Y-138414761D01*
X168170952Y-138462380D01*
X168075714Y-138462380D01*
X169456666Y-138462380D02*
X168885238Y-138462380D01*
X169170952Y-138462380D02*
X169170952Y-137462380D01*
X169075714Y-137605238D01*
X168980476Y-137700476D01*
X168885238Y-137748095D01*
X159516666Y-137462380D02*
X159516666Y-138176666D01*
X159469047Y-138319523D01*
X159373809Y-138414761D01*
X159230952Y-138462380D01*
X159135714Y-138462380D01*
X160516666Y-138462380D02*
X159945238Y-138462380D01*
X160230952Y-138462380D02*
X160230952Y-137462380D01*
X160135714Y-137605238D01*
X160040476Y-137700476D01*
X159945238Y-137748095D01*
X150576666Y-137462380D02*
X150576666Y-138176666D01*
X150529047Y-138319523D01*
X150433809Y-138414761D01*
X150290952Y-138462380D01*
X150195714Y-138462380D01*
X151576666Y-138462380D02*
X151005238Y-138462380D01*
X151290952Y-138462380D02*
X151290952Y-137462380D01*
X151195714Y-137605238D01*
X151100476Y-137700476D01*
X151005238Y-137748095D01*
X231036666Y-134302380D02*
X231036666Y-135016666D01*
X230989047Y-135159523D01*
X230893809Y-135254761D01*
X230750952Y-135302380D01*
X230655714Y-135302380D01*
X232036666Y-135302380D02*
X231465238Y-135302380D01*
X231750952Y-135302380D02*
X231750952Y-134302380D01*
X231655714Y-134445238D01*
X231560476Y-134540476D01*
X231465238Y-134588095D01*
X222096666Y-134302380D02*
X222096666Y-135016666D01*
X222049047Y-135159523D01*
X221953809Y-135254761D01*
X221810952Y-135302380D01*
X221715714Y-135302380D01*
X223096666Y-135302380D02*
X222525238Y-135302380D01*
X222810952Y-135302380D02*
X222810952Y-134302380D01*
X222715714Y-134445238D01*
X222620476Y-134540476D01*
X222525238Y-134588095D01*
X213156666Y-134302380D02*
X213156666Y-135016666D01*
X213109047Y-135159523D01*
X213013809Y-135254761D01*
X212870952Y-135302380D01*
X212775714Y-135302380D01*
X214156666Y-135302380D02*
X213585238Y-135302380D01*
X213870952Y-135302380D02*
X213870952Y-134302380D01*
X213775714Y-134445238D01*
X213680476Y-134540476D01*
X213585238Y-134588095D01*
X204216666Y-134302380D02*
X204216666Y-135016666D01*
X204169047Y-135159523D01*
X204073809Y-135254761D01*
X203930952Y-135302380D01*
X203835714Y-135302380D01*
X205216666Y-135302380D02*
X204645238Y-135302380D01*
X204930952Y-135302380D02*
X204930952Y-134302380D01*
X204835714Y-134445238D01*
X204740476Y-134540476D01*
X204645238Y-134588095D01*
X195276666Y-134302380D02*
X195276666Y-135016666D01*
X195229047Y-135159523D01*
X195133809Y-135254761D01*
X194990952Y-135302380D01*
X194895714Y-135302380D01*
X196276666Y-135302380D02*
X195705238Y-135302380D01*
X195990952Y-135302380D02*
X195990952Y-134302380D01*
X195895714Y-134445238D01*
X195800476Y-134540476D01*
X195705238Y-134588095D01*
X186336666Y-134302380D02*
X186336666Y-135016666D01*
X186289047Y-135159523D01*
X186193809Y-135254761D01*
X186050952Y-135302380D01*
X185955714Y-135302380D01*
X187336666Y-135302380D02*
X186765238Y-135302380D01*
X187050952Y-135302380D02*
X187050952Y-134302380D01*
X186955714Y-134445238D01*
X186860476Y-134540476D01*
X186765238Y-134588095D01*
X177396666Y-134302380D02*
X177396666Y-135016666D01*
X177349047Y-135159523D01*
X177253809Y-135254761D01*
X177110952Y-135302380D01*
X177015714Y-135302380D01*
X178396666Y-135302380D02*
X177825238Y-135302380D01*
X178110952Y-135302380D02*
X178110952Y-134302380D01*
X178015714Y-134445238D01*
X177920476Y-134540476D01*
X177825238Y-134588095D01*
X168456666Y-134302380D02*
X168456666Y-135016666D01*
X168409047Y-135159523D01*
X168313809Y-135254761D01*
X168170952Y-135302380D01*
X168075714Y-135302380D01*
X169456666Y-135302380D02*
X168885238Y-135302380D01*
X169170952Y-135302380D02*
X169170952Y-134302380D01*
X169075714Y-134445238D01*
X168980476Y-134540476D01*
X168885238Y-134588095D01*
X159516666Y-134302380D02*
X159516666Y-135016666D01*
X159469047Y-135159523D01*
X159373809Y-135254761D01*
X159230952Y-135302380D01*
X159135714Y-135302380D01*
X160516666Y-135302380D02*
X159945238Y-135302380D01*
X160230952Y-135302380D02*
X160230952Y-134302380D01*
X160135714Y-134445238D01*
X160040476Y-134540476D01*
X159945238Y-134588095D01*
X150576666Y-134302380D02*
X150576666Y-135016666D01*
X150529047Y-135159523D01*
X150433809Y-135254761D01*
X150290952Y-135302380D01*
X150195714Y-135302380D01*
X151576666Y-135302380D02*
X151005238Y-135302380D01*
X151290952Y-135302380D02*
X151290952Y-134302380D01*
X151195714Y-134445238D01*
X151100476Y-134540476D01*
X151005238Y-134588095D01*
X231036666Y-131142380D02*
X231036666Y-131856666D01*
X230989047Y-131999523D01*
X230893809Y-132094761D01*
X230750952Y-132142380D01*
X230655714Y-132142380D01*
X232036666Y-132142380D02*
X231465238Y-132142380D01*
X231750952Y-132142380D02*
X231750952Y-131142380D01*
X231655714Y-131285238D01*
X231560476Y-131380476D01*
X231465238Y-131428095D01*
X222096666Y-131142380D02*
X222096666Y-131856666D01*
X222049047Y-131999523D01*
X221953809Y-132094761D01*
X221810952Y-132142380D01*
X221715714Y-132142380D01*
X223096666Y-132142380D02*
X222525238Y-132142380D01*
X222810952Y-132142380D02*
X222810952Y-131142380D01*
X222715714Y-131285238D01*
X222620476Y-131380476D01*
X222525238Y-131428095D01*
X213156666Y-131142380D02*
X213156666Y-131856666D01*
X213109047Y-131999523D01*
X213013809Y-132094761D01*
X212870952Y-132142380D01*
X212775714Y-132142380D01*
X214156666Y-132142380D02*
X213585238Y-132142380D01*
X213870952Y-132142380D02*
X213870952Y-131142380D01*
X213775714Y-131285238D01*
X213680476Y-131380476D01*
X213585238Y-131428095D01*
X204216666Y-131142380D02*
X204216666Y-131856666D01*
X204169047Y-131999523D01*
X204073809Y-132094761D01*
X203930952Y-132142380D01*
X203835714Y-132142380D01*
X205216666Y-132142380D02*
X204645238Y-132142380D01*
X204930952Y-132142380D02*
X204930952Y-131142380D01*
X204835714Y-131285238D01*
X204740476Y-131380476D01*
X204645238Y-131428095D01*
X195276666Y-131142380D02*
X195276666Y-131856666D01*
X195229047Y-131999523D01*
X195133809Y-132094761D01*
X194990952Y-132142380D01*
X194895714Y-132142380D01*
X196276666Y-132142380D02*
X195705238Y-132142380D01*
X195990952Y-132142380D02*
X195990952Y-131142380D01*
X195895714Y-131285238D01*
X195800476Y-131380476D01*
X195705238Y-131428095D01*
X186336666Y-131142380D02*
X186336666Y-131856666D01*
X186289047Y-131999523D01*
X186193809Y-132094761D01*
X186050952Y-132142380D01*
X185955714Y-132142380D01*
X187336666Y-132142380D02*
X186765238Y-132142380D01*
X187050952Y-132142380D02*
X187050952Y-131142380D01*
X186955714Y-131285238D01*
X186860476Y-131380476D01*
X186765238Y-131428095D01*
X177396666Y-131142380D02*
X177396666Y-131856666D01*
X177349047Y-131999523D01*
X177253809Y-132094761D01*
X177110952Y-132142380D01*
X177015714Y-132142380D01*
X178396666Y-132142380D02*
X177825238Y-132142380D01*
X178110952Y-132142380D02*
X178110952Y-131142380D01*
X178015714Y-131285238D01*
X177920476Y-131380476D01*
X177825238Y-131428095D01*
X168456666Y-131142380D02*
X168456666Y-131856666D01*
X168409047Y-131999523D01*
X168313809Y-132094761D01*
X168170952Y-132142380D01*
X168075714Y-132142380D01*
X169456666Y-132142380D02*
X168885238Y-132142380D01*
X169170952Y-132142380D02*
X169170952Y-131142380D01*
X169075714Y-131285238D01*
X168980476Y-131380476D01*
X168885238Y-131428095D01*
X159516666Y-131142380D02*
X159516666Y-131856666D01*
X159469047Y-131999523D01*
X159373809Y-132094761D01*
X159230952Y-132142380D01*
X159135714Y-132142380D01*
X160516666Y-132142380D02*
X159945238Y-132142380D01*
X160230952Y-132142380D02*
X160230952Y-131142380D01*
X160135714Y-131285238D01*
X160040476Y-131380476D01*
X159945238Y-131428095D01*
X150576666Y-131142380D02*
X150576666Y-131856666D01*
X150529047Y-131999523D01*
X150433809Y-132094761D01*
X150290952Y-132142380D01*
X150195714Y-132142380D01*
X151576666Y-132142380D02*
X151005238Y-132142380D01*
X151290952Y-132142380D02*
X151290952Y-131142380D01*
X151195714Y-131285238D01*
X151100476Y-131380476D01*
X151005238Y-131428095D01*
X231036666Y-127982380D02*
X231036666Y-128696666D01*
X230989047Y-128839523D01*
X230893809Y-128934761D01*
X230750952Y-128982380D01*
X230655714Y-128982380D01*
X232036666Y-128982380D02*
X231465238Y-128982380D01*
X231750952Y-128982380D02*
X231750952Y-127982380D01*
X231655714Y-128125238D01*
X231560476Y-128220476D01*
X231465238Y-128268095D01*
X222096666Y-127982380D02*
X222096666Y-128696666D01*
X222049047Y-128839523D01*
X221953809Y-128934761D01*
X221810952Y-128982380D01*
X221715714Y-128982380D01*
X223096666Y-128982380D02*
X222525238Y-128982380D01*
X222810952Y-128982380D02*
X222810952Y-127982380D01*
X222715714Y-128125238D01*
X222620476Y-128220476D01*
X222525238Y-128268095D01*
X213156666Y-127982380D02*
X213156666Y-128696666D01*
X213109047Y-128839523D01*
X213013809Y-128934761D01*
X212870952Y-128982380D01*
X212775714Y-128982380D01*
X214156666Y-128982380D02*
X213585238Y-128982380D01*
X213870952Y-128982380D02*
X213870952Y-127982380D01*
X213775714Y-128125238D01*
X213680476Y-128220476D01*
X213585238Y-128268095D01*
X204216666Y-127982380D02*
X204216666Y-128696666D01*
X204169047Y-128839523D01*
X204073809Y-128934761D01*
X203930952Y-128982380D01*
X203835714Y-128982380D01*
X205216666Y-128982380D02*
X204645238Y-128982380D01*
X204930952Y-128982380D02*
X204930952Y-127982380D01*
X204835714Y-128125238D01*
X204740476Y-128220476D01*
X204645238Y-128268095D01*
X195276666Y-127982380D02*
X195276666Y-128696666D01*
X195229047Y-128839523D01*
X195133809Y-128934761D01*
X194990952Y-128982380D01*
X194895714Y-128982380D01*
X196276666Y-128982380D02*
X195705238Y-128982380D01*
X195990952Y-128982380D02*
X195990952Y-127982380D01*
X195895714Y-128125238D01*
X195800476Y-128220476D01*
X195705238Y-128268095D01*
X186336666Y-127982380D02*
X186336666Y-128696666D01*
X186289047Y-128839523D01*
X186193809Y-128934761D01*
X186050952Y-128982380D01*
X185955714Y-128982380D01*
X187336666Y-128982380D02*
X186765238Y-128982380D01*
X187050952Y-128982380D02*
X187050952Y-127982380D01*
X186955714Y-128125238D01*
X186860476Y-128220476D01*
X186765238Y-128268095D01*
X177396666Y-127982380D02*
X177396666Y-128696666D01*
X177349047Y-128839523D01*
X177253809Y-128934761D01*
X177110952Y-128982380D01*
X177015714Y-128982380D01*
X178396666Y-128982380D02*
X177825238Y-128982380D01*
X178110952Y-128982380D02*
X178110952Y-127982380D01*
X178015714Y-128125238D01*
X177920476Y-128220476D01*
X177825238Y-128268095D01*
X168456666Y-127982380D02*
X168456666Y-128696666D01*
X168409047Y-128839523D01*
X168313809Y-128934761D01*
X168170952Y-128982380D01*
X168075714Y-128982380D01*
X169456666Y-128982380D02*
X168885238Y-128982380D01*
X169170952Y-128982380D02*
X169170952Y-127982380D01*
X169075714Y-128125238D01*
X168980476Y-128220476D01*
X168885238Y-128268095D01*
X159516666Y-127982380D02*
X159516666Y-128696666D01*
X159469047Y-128839523D01*
X159373809Y-128934761D01*
X159230952Y-128982380D01*
X159135714Y-128982380D01*
X160516666Y-128982380D02*
X159945238Y-128982380D01*
X160230952Y-128982380D02*
X160230952Y-127982380D01*
X160135714Y-128125238D01*
X160040476Y-128220476D01*
X159945238Y-128268095D01*
X150576666Y-127982380D02*
X150576666Y-128696666D01*
X150529047Y-128839523D01*
X150433809Y-128934761D01*
X150290952Y-128982380D01*
X150195714Y-128982380D01*
X151576666Y-128982380D02*
X151005238Y-128982380D01*
X151290952Y-128982380D02*
X151290952Y-127982380D01*
X151195714Y-128125238D01*
X151100476Y-128220476D01*
X151005238Y-128268095D01*
X231036666Y-124822380D02*
X231036666Y-125536666D01*
X230989047Y-125679523D01*
X230893809Y-125774761D01*
X230750952Y-125822380D01*
X230655714Y-125822380D01*
X232036666Y-125822380D02*
X231465238Y-125822380D01*
X231750952Y-125822380D02*
X231750952Y-124822380D01*
X231655714Y-124965238D01*
X231560476Y-125060476D01*
X231465238Y-125108095D01*
X222096666Y-124822380D02*
X222096666Y-125536666D01*
X222049047Y-125679523D01*
X221953809Y-125774761D01*
X221810952Y-125822380D01*
X221715714Y-125822380D01*
X223096666Y-125822380D02*
X222525238Y-125822380D01*
X222810952Y-125822380D02*
X222810952Y-124822380D01*
X222715714Y-124965238D01*
X222620476Y-125060476D01*
X222525238Y-125108095D01*
X213156666Y-124822380D02*
X213156666Y-125536666D01*
X213109047Y-125679523D01*
X213013809Y-125774761D01*
X212870952Y-125822380D01*
X212775714Y-125822380D01*
X214156666Y-125822380D02*
X213585238Y-125822380D01*
X213870952Y-125822380D02*
X213870952Y-124822380D01*
X213775714Y-124965238D01*
X213680476Y-125060476D01*
X213585238Y-125108095D01*
X204216666Y-124822380D02*
X204216666Y-125536666D01*
X204169047Y-125679523D01*
X204073809Y-125774761D01*
X203930952Y-125822380D01*
X203835714Y-125822380D01*
X205216666Y-125822380D02*
X204645238Y-125822380D01*
X204930952Y-125822380D02*
X204930952Y-124822380D01*
X204835714Y-124965238D01*
X204740476Y-125060476D01*
X204645238Y-125108095D01*
X195276666Y-124822380D02*
X195276666Y-125536666D01*
X195229047Y-125679523D01*
X195133809Y-125774761D01*
X194990952Y-125822380D01*
X194895714Y-125822380D01*
X196276666Y-125822380D02*
X195705238Y-125822380D01*
X195990952Y-125822380D02*
X195990952Y-124822380D01*
X195895714Y-124965238D01*
X195800476Y-125060476D01*
X195705238Y-125108095D01*
X186336666Y-124822380D02*
X186336666Y-125536666D01*
X186289047Y-125679523D01*
X186193809Y-125774761D01*
X186050952Y-125822380D01*
X185955714Y-125822380D01*
X187336666Y-125822380D02*
X186765238Y-125822380D01*
X187050952Y-125822380D02*
X187050952Y-124822380D01*
X186955714Y-124965238D01*
X186860476Y-125060476D01*
X186765238Y-125108095D01*
X177396666Y-124822380D02*
X177396666Y-125536666D01*
X177349047Y-125679523D01*
X177253809Y-125774761D01*
X177110952Y-125822380D01*
X177015714Y-125822380D01*
X178396666Y-125822380D02*
X177825238Y-125822380D01*
X178110952Y-125822380D02*
X178110952Y-124822380D01*
X178015714Y-124965238D01*
X177920476Y-125060476D01*
X177825238Y-125108095D01*
X168456666Y-124822380D02*
X168456666Y-125536666D01*
X168409047Y-125679523D01*
X168313809Y-125774761D01*
X168170952Y-125822380D01*
X168075714Y-125822380D01*
X169456666Y-125822380D02*
X168885238Y-125822380D01*
X169170952Y-125822380D02*
X169170952Y-124822380D01*
X169075714Y-124965238D01*
X168980476Y-125060476D01*
X168885238Y-125108095D01*
X159516666Y-124822380D02*
X159516666Y-125536666D01*
X159469047Y-125679523D01*
X159373809Y-125774761D01*
X159230952Y-125822380D01*
X159135714Y-125822380D01*
X160516666Y-125822380D02*
X159945238Y-125822380D01*
X160230952Y-125822380D02*
X160230952Y-124822380D01*
X160135714Y-124965238D01*
X160040476Y-125060476D01*
X159945238Y-125108095D01*
X150576666Y-124822380D02*
X150576666Y-125536666D01*
X150529047Y-125679523D01*
X150433809Y-125774761D01*
X150290952Y-125822380D01*
X150195714Y-125822380D01*
X151576666Y-125822380D02*
X151005238Y-125822380D01*
X151290952Y-125822380D02*
X151290952Y-124822380D01*
X151195714Y-124965238D01*
X151100476Y-125060476D01*
X151005238Y-125108095D01*
X231036666Y-121662380D02*
X231036666Y-122376666D01*
X230989047Y-122519523D01*
X230893809Y-122614761D01*
X230750952Y-122662380D01*
X230655714Y-122662380D01*
X232036666Y-122662380D02*
X231465238Y-122662380D01*
X231750952Y-122662380D02*
X231750952Y-121662380D01*
X231655714Y-121805238D01*
X231560476Y-121900476D01*
X231465238Y-121948095D01*
X222096666Y-121662380D02*
X222096666Y-122376666D01*
X222049047Y-122519523D01*
X221953809Y-122614761D01*
X221810952Y-122662380D01*
X221715714Y-122662380D01*
X223096666Y-122662380D02*
X222525238Y-122662380D01*
X222810952Y-122662380D02*
X222810952Y-121662380D01*
X222715714Y-121805238D01*
X222620476Y-121900476D01*
X222525238Y-121948095D01*
X213156666Y-121662380D02*
X213156666Y-122376666D01*
X213109047Y-122519523D01*
X213013809Y-122614761D01*
X212870952Y-122662380D01*
X212775714Y-122662380D01*
X214156666Y-122662380D02*
X213585238Y-122662380D01*
X213870952Y-122662380D02*
X213870952Y-121662380D01*
X213775714Y-121805238D01*
X213680476Y-121900476D01*
X213585238Y-121948095D01*
X204216666Y-121662380D02*
X204216666Y-122376666D01*
X204169047Y-122519523D01*
X204073809Y-122614761D01*
X203930952Y-122662380D01*
X203835714Y-122662380D01*
X205216666Y-122662380D02*
X204645238Y-122662380D01*
X204930952Y-122662380D02*
X204930952Y-121662380D01*
X204835714Y-121805238D01*
X204740476Y-121900476D01*
X204645238Y-121948095D01*
X195276666Y-121662380D02*
X195276666Y-122376666D01*
X195229047Y-122519523D01*
X195133809Y-122614761D01*
X194990952Y-122662380D01*
X194895714Y-122662380D01*
X196276666Y-122662380D02*
X195705238Y-122662380D01*
X195990952Y-122662380D02*
X195990952Y-121662380D01*
X195895714Y-121805238D01*
X195800476Y-121900476D01*
X195705238Y-121948095D01*
X186336666Y-121662380D02*
X186336666Y-122376666D01*
X186289047Y-122519523D01*
X186193809Y-122614761D01*
X186050952Y-122662380D01*
X185955714Y-122662380D01*
X187336666Y-122662380D02*
X186765238Y-122662380D01*
X187050952Y-122662380D02*
X187050952Y-121662380D01*
X186955714Y-121805238D01*
X186860476Y-121900476D01*
X186765238Y-121948095D01*
X177396666Y-121662380D02*
X177396666Y-122376666D01*
X177349047Y-122519523D01*
X177253809Y-122614761D01*
X177110952Y-122662380D01*
X177015714Y-122662380D01*
X178396666Y-122662380D02*
X177825238Y-122662380D01*
X178110952Y-122662380D02*
X178110952Y-121662380D01*
X178015714Y-121805238D01*
X177920476Y-121900476D01*
X177825238Y-121948095D01*
X168456666Y-121662380D02*
X168456666Y-122376666D01*
X168409047Y-122519523D01*
X168313809Y-122614761D01*
X168170952Y-122662380D01*
X168075714Y-122662380D01*
X169456666Y-122662380D02*
X168885238Y-122662380D01*
X169170952Y-122662380D02*
X169170952Y-121662380D01*
X169075714Y-121805238D01*
X168980476Y-121900476D01*
X168885238Y-121948095D01*
X159516666Y-121662380D02*
X159516666Y-122376666D01*
X159469047Y-122519523D01*
X159373809Y-122614761D01*
X159230952Y-122662380D01*
X159135714Y-122662380D01*
X160516666Y-122662380D02*
X159945238Y-122662380D01*
X160230952Y-122662380D02*
X160230952Y-121662380D01*
X160135714Y-121805238D01*
X160040476Y-121900476D01*
X159945238Y-121948095D01*
X150576666Y-121662380D02*
X150576666Y-122376666D01*
X150529047Y-122519523D01*
X150433809Y-122614761D01*
X150290952Y-122662380D01*
X150195714Y-122662380D01*
X151576666Y-122662380D02*
X151005238Y-122662380D01*
X151290952Y-122662380D02*
X151290952Y-121662380D01*
X151195714Y-121805238D01*
X151100476Y-121900476D01*
X151005238Y-121948095D01*
X231036666Y-118502380D02*
X231036666Y-119216666D01*
X230989047Y-119359523D01*
X230893809Y-119454761D01*
X230750952Y-119502380D01*
X230655714Y-119502380D01*
X232036666Y-119502380D02*
X231465238Y-119502380D01*
X231750952Y-119502380D02*
X231750952Y-118502380D01*
X231655714Y-118645238D01*
X231560476Y-118740476D01*
X231465238Y-118788095D01*
X222096666Y-118502380D02*
X222096666Y-119216666D01*
X222049047Y-119359523D01*
X221953809Y-119454761D01*
X221810952Y-119502380D01*
X221715714Y-119502380D01*
X223096666Y-119502380D02*
X222525238Y-119502380D01*
X222810952Y-119502380D02*
X222810952Y-118502380D01*
X222715714Y-118645238D01*
X222620476Y-118740476D01*
X222525238Y-118788095D01*
X213156666Y-118502380D02*
X213156666Y-119216666D01*
X213109047Y-119359523D01*
X213013809Y-119454761D01*
X212870952Y-119502380D01*
X212775714Y-119502380D01*
X214156666Y-119502380D02*
X213585238Y-119502380D01*
X213870952Y-119502380D02*
X213870952Y-118502380D01*
X213775714Y-118645238D01*
X213680476Y-118740476D01*
X213585238Y-118788095D01*
X204216666Y-118502380D02*
X204216666Y-119216666D01*
X204169047Y-119359523D01*
X204073809Y-119454761D01*
X203930952Y-119502380D01*
X203835714Y-119502380D01*
X205216666Y-119502380D02*
X204645238Y-119502380D01*
X204930952Y-119502380D02*
X204930952Y-118502380D01*
X204835714Y-118645238D01*
X204740476Y-118740476D01*
X204645238Y-118788095D01*
X195276666Y-118502380D02*
X195276666Y-119216666D01*
X195229047Y-119359523D01*
X195133809Y-119454761D01*
X194990952Y-119502380D01*
X194895714Y-119502380D01*
X196276666Y-119502380D02*
X195705238Y-119502380D01*
X195990952Y-119502380D02*
X195990952Y-118502380D01*
X195895714Y-118645238D01*
X195800476Y-118740476D01*
X195705238Y-118788095D01*
X186336666Y-118502380D02*
X186336666Y-119216666D01*
X186289047Y-119359523D01*
X186193809Y-119454761D01*
X186050952Y-119502380D01*
X185955714Y-119502380D01*
X187336666Y-119502380D02*
X186765238Y-119502380D01*
X187050952Y-119502380D02*
X187050952Y-118502380D01*
X186955714Y-118645238D01*
X186860476Y-118740476D01*
X186765238Y-118788095D01*
X177396666Y-118502380D02*
X177396666Y-119216666D01*
X177349047Y-119359523D01*
X177253809Y-119454761D01*
X177110952Y-119502380D01*
X177015714Y-119502380D01*
X178396666Y-119502380D02*
X177825238Y-119502380D01*
X178110952Y-119502380D02*
X178110952Y-118502380D01*
X178015714Y-118645238D01*
X177920476Y-118740476D01*
X177825238Y-118788095D01*
X168456666Y-118502380D02*
X168456666Y-119216666D01*
X168409047Y-119359523D01*
X168313809Y-119454761D01*
X168170952Y-119502380D01*
X168075714Y-119502380D01*
X169456666Y-119502380D02*
X168885238Y-119502380D01*
X169170952Y-119502380D02*
X169170952Y-118502380D01*
X169075714Y-118645238D01*
X168980476Y-118740476D01*
X168885238Y-118788095D01*
X159516666Y-118502380D02*
X159516666Y-119216666D01*
X159469047Y-119359523D01*
X159373809Y-119454761D01*
X159230952Y-119502380D01*
X159135714Y-119502380D01*
X160516666Y-119502380D02*
X159945238Y-119502380D01*
X160230952Y-119502380D02*
X160230952Y-118502380D01*
X160135714Y-118645238D01*
X160040476Y-118740476D01*
X159945238Y-118788095D01*
X150576666Y-118502380D02*
X150576666Y-119216666D01*
X150529047Y-119359523D01*
X150433809Y-119454761D01*
X150290952Y-119502380D01*
X150195714Y-119502380D01*
X151576666Y-119502380D02*
X151005238Y-119502380D01*
X151290952Y-119502380D02*
X151290952Y-118502380D01*
X151195714Y-118645238D01*
X151100476Y-118740476D01*
X151005238Y-118788095D01*
X231036666Y-115342380D02*
X231036666Y-116056666D01*
X230989047Y-116199523D01*
X230893809Y-116294761D01*
X230750952Y-116342380D01*
X230655714Y-116342380D01*
X232036666Y-116342380D02*
X231465238Y-116342380D01*
X231750952Y-116342380D02*
X231750952Y-115342380D01*
X231655714Y-115485238D01*
X231560476Y-115580476D01*
X231465238Y-115628095D01*
X222096666Y-115342380D02*
X222096666Y-116056666D01*
X222049047Y-116199523D01*
X221953809Y-116294761D01*
X221810952Y-116342380D01*
X221715714Y-116342380D01*
X223096666Y-116342380D02*
X222525238Y-116342380D01*
X222810952Y-116342380D02*
X222810952Y-115342380D01*
X222715714Y-115485238D01*
X222620476Y-115580476D01*
X222525238Y-115628095D01*
X213156666Y-115342380D02*
X213156666Y-116056666D01*
X213109047Y-116199523D01*
X213013809Y-116294761D01*
X212870952Y-116342380D01*
X212775714Y-116342380D01*
X214156666Y-116342380D02*
X213585238Y-116342380D01*
X213870952Y-116342380D02*
X213870952Y-115342380D01*
X213775714Y-115485238D01*
X213680476Y-115580476D01*
X213585238Y-115628095D01*
X204216666Y-115342380D02*
X204216666Y-116056666D01*
X204169047Y-116199523D01*
X204073809Y-116294761D01*
X203930952Y-116342380D01*
X203835714Y-116342380D01*
X205216666Y-116342380D02*
X204645238Y-116342380D01*
X204930952Y-116342380D02*
X204930952Y-115342380D01*
X204835714Y-115485238D01*
X204740476Y-115580476D01*
X204645238Y-115628095D01*
X195276666Y-115342380D02*
X195276666Y-116056666D01*
X195229047Y-116199523D01*
X195133809Y-116294761D01*
X194990952Y-116342380D01*
X194895714Y-116342380D01*
X196276666Y-116342380D02*
X195705238Y-116342380D01*
X195990952Y-116342380D02*
X195990952Y-115342380D01*
X195895714Y-115485238D01*
X195800476Y-115580476D01*
X195705238Y-115628095D01*
X186336666Y-115342380D02*
X186336666Y-116056666D01*
X186289047Y-116199523D01*
X186193809Y-116294761D01*
X186050952Y-116342380D01*
X185955714Y-116342380D01*
X187336666Y-116342380D02*
X186765238Y-116342380D01*
X187050952Y-116342380D02*
X187050952Y-115342380D01*
X186955714Y-115485238D01*
X186860476Y-115580476D01*
X186765238Y-115628095D01*
X177396666Y-115342380D02*
X177396666Y-116056666D01*
X177349047Y-116199523D01*
X177253809Y-116294761D01*
X177110952Y-116342380D01*
X177015714Y-116342380D01*
X178396666Y-116342380D02*
X177825238Y-116342380D01*
X178110952Y-116342380D02*
X178110952Y-115342380D01*
X178015714Y-115485238D01*
X177920476Y-115580476D01*
X177825238Y-115628095D01*
X168456666Y-115342380D02*
X168456666Y-116056666D01*
X168409047Y-116199523D01*
X168313809Y-116294761D01*
X168170952Y-116342380D01*
X168075714Y-116342380D01*
X169456666Y-116342380D02*
X168885238Y-116342380D01*
X169170952Y-116342380D02*
X169170952Y-115342380D01*
X169075714Y-115485238D01*
X168980476Y-115580476D01*
X168885238Y-115628095D01*
X159516666Y-115342380D02*
X159516666Y-116056666D01*
X159469047Y-116199523D01*
X159373809Y-116294761D01*
X159230952Y-116342380D01*
X159135714Y-116342380D01*
X160516666Y-116342380D02*
X159945238Y-116342380D01*
X160230952Y-116342380D02*
X160230952Y-115342380D01*
X160135714Y-115485238D01*
X160040476Y-115580476D01*
X159945238Y-115628095D01*
X150576666Y-115342380D02*
X150576666Y-116056666D01*
X150529047Y-116199523D01*
X150433809Y-116294761D01*
X150290952Y-116342380D01*
X150195714Y-116342380D01*
X151576666Y-116342380D02*
X151005238Y-116342380D01*
X151290952Y-116342380D02*
X151290952Y-115342380D01*
X151195714Y-115485238D01*
X151100476Y-115580476D01*
X151005238Y-115628095D01*
X231036666Y-112182380D02*
X231036666Y-112896666D01*
X230989047Y-113039523D01*
X230893809Y-113134761D01*
X230750952Y-113182380D01*
X230655714Y-113182380D01*
X232036666Y-113182380D02*
X231465238Y-113182380D01*
X231750952Y-113182380D02*
X231750952Y-112182380D01*
X231655714Y-112325238D01*
X231560476Y-112420476D01*
X231465238Y-112468095D01*
X222096666Y-112182380D02*
X222096666Y-112896666D01*
X222049047Y-113039523D01*
X221953809Y-113134761D01*
X221810952Y-113182380D01*
X221715714Y-113182380D01*
X223096666Y-113182380D02*
X222525238Y-113182380D01*
X222810952Y-113182380D02*
X222810952Y-112182380D01*
X222715714Y-112325238D01*
X222620476Y-112420476D01*
X222525238Y-112468095D01*
X213156666Y-112182380D02*
X213156666Y-112896666D01*
X213109047Y-113039523D01*
X213013809Y-113134761D01*
X212870952Y-113182380D01*
X212775714Y-113182380D01*
X214156666Y-113182380D02*
X213585238Y-113182380D01*
X213870952Y-113182380D02*
X213870952Y-112182380D01*
X213775714Y-112325238D01*
X213680476Y-112420476D01*
X213585238Y-112468095D01*
X204216666Y-112182380D02*
X204216666Y-112896666D01*
X204169047Y-113039523D01*
X204073809Y-113134761D01*
X203930952Y-113182380D01*
X203835714Y-113182380D01*
X205216666Y-113182380D02*
X204645238Y-113182380D01*
X204930952Y-113182380D02*
X204930952Y-112182380D01*
X204835714Y-112325238D01*
X204740476Y-112420476D01*
X204645238Y-112468095D01*
X195276666Y-112182380D02*
X195276666Y-112896666D01*
X195229047Y-113039523D01*
X195133809Y-113134761D01*
X194990952Y-113182380D01*
X194895714Y-113182380D01*
X196276666Y-113182380D02*
X195705238Y-113182380D01*
X195990952Y-113182380D02*
X195990952Y-112182380D01*
X195895714Y-112325238D01*
X195800476Y-112420476D01*
X195705238Y-112468095D01*
X186336666Y-112182380D02*
X186336666Y-112896666D01*
X186289047Y-113039523D01*
X186193809Y-113134761D01*
X186050952Y-113182380D01*
X185955714Y-113182380D01*
X187336666Y-113182380D02*
X186765238Y-113182380D01*
X187050952Y-113182380D02*
X187050952Y-112182380D01*
X186955714Y-112325238D01*
X186860476Y-112420476D01*
X186765238Y-112468095D01*
X177396666Y-112182380D02*
X177396666Y-112896666D01*
X177349047Y-113039523D01*
X177253809Y-113134761D01*
X177110952Y-113182380D01*
X177015714Y-113182380D01*
X178396666Y-113182380D02*
X177825238Y-113182380D01*
X178110952Y-113182380D02*
X178110952Y-112182380D01*
X178015714Y-112325238D01*
X177920476Y-112420476D01*
X177825238Y-112468095D01*
X168456666Y-112182380D02*
X168456666Y-112896666D01*
X168409047Y-113039523D01*
X168313809Y-113134761D01*
X168170952Y-113182380D01*
X168075714Y-113182380D01*
X169456666Y-113182380D02*
X168885238Y-113182380D01*
X169170952Y-113182380D02*
X169170952Y-112182380D01*
X169075714Y-112325238D01*
X168980476Y-112420476D01*
X168885238Y-112468095D01*
X159516666Y-112182380D02*
X159516666Y-112896666D01*
X159469047Y-113039523D01*
X159373809Y-113134761D01*
X159230952Y-113182380D01*
X159135714Y-113182380D01*
X160516666Y-113182380D02*
X159945238Y-113182380D01*
X160230952Y-113182380D02*
X160230952Y-112182380D01*
X160135714Y-112325238D01*
X160040476Y-112420476D01*
X159945238Y-112468095D01*
X150576666Y-112182380D02*
X150576666Y-112896666D01*
X150529047Y-113039523D01*
X150433809Y-113134761D01*
X150290952Y-113182380D01*
X150195714Y-113182380D01*
X151576666Y-113182380D02*
X151005238Y-113182380D01*
X151290952Y-113182380D02*
X151290952Y-112182380D01*
X151195714Y-112325238D01*
X151100476Y-112420476D01*
X151005238Y-112468095D01*
X231036666Y-109022380D02*
X231036666Y-109736666D01*
X230989047Y-109879523D01*
X230893809Y-109974761D01*
X230750952Y-110022380D01*
X230655714Y-110022380D01*
X232036666Y-110022380D02*
X231465238Y-110022380D01*
X231750952Y-110022380D02*
X231750952Y-109022380D01*
X231655714Y-109165238D01*
X231560476Y-109260476D01*
X231465238Y-109308095D01*
X222096666Y-109022380D02*
X222096666Y-109736666D01*
X222049047Y-109879523D01*
X221953809Y-109974761D01*
X221810952Y-110022380D01*
X221715714Y-110022380D01*
X223096666Y-110022380D02*
X222525238Y-110022380D01*
X222810952Y-110022380D02*
X222810952Y-109022380D01*
X222715714Y-109165238D01*
X222620476Y-109260476D01*
X222525238Y-109308095D01*
X213156666Y-109022380D02*
X213156666Y-109736666D01*
X213109047Y-109879523D01*
X213013809Y-109974761D01*
X212870952Y-110022380D01*
X212775714Y-110022380D01*
X214156666Y-110022380D02*
X213585238Y-110022380D01*
X213870952Y-110022380D02*
X213870952Y-109022380D01*
X213775714Y-109165238D01*
X213680476Y-109260476D01*
X213585238Y-109308095D01*
X204216666Y-109022380D02*
X204216666Y-109736666D01*
X204169047Y-109879523D01*
X204073809Y-109974761D01*
X203930952Y-110022380D01*
X203835714Y-110022380D01*
X205216666Y-110022380D02*
X204645238Y-110022380D01*
X204930952Y-110022380D02*
X204930952Y-109022380D01*
X204835714Y-109165238D01*
X204740476Y-109260476D01*
X204645238Y-109308095D01*
X195276666Y-109022380D02*
X195276666Y-109736666D01*
X195229047Y-109879523D01*
X195133809Y-109974761D01*
X194990952Y-110022380D01*
X194895714Y-110022380D01*
X196276666Y-110022380D02*
X195705238Y-110022380D01*
X195990952Y-110022380D02*
X195990952Y-109022380D01*
X195895714Y-109165238D01*
X195800476Y-109260476D01*
X195705238Y-109308095D01*
X186336666Y-109022380D02*
X186336666Y-109736666D01*
X186289047Y-109879523D01*
X186193809Y-109974761D01*
X186050952Y-110022380D01*
X185955714Y-110022380D01*
X187336666Y-110022380D02*
X186765238Y-110022380D01*
X187050952Y-110022380D02*
X187050952Y-109022380D01*
X186955714Y-109165238D01*
X186860476Y-109260476D01*
X186765238Y-109308095D01*
X177396666Y-109022380D02*
X177396666Y-109736666D01*
X177349047Y-109879523D01*
X177253809Y-109974761D01*
X177110952Y-110022380D01*
X177015714Y-110022380D01*
X178396666Y-110022380D02*
X177825238Y-110022380D01*
X178110952Y-110022380D02*
X178110952Y-109022380D01*
X178015714Y-109165238D01*
X177920476Y-109260476D01*
X177825238Y-109308095D01*
X168456666Y-109022380D02*
X168456666Y-109736666D01*
X168409047Y-109879523D01*
X168313809Y-109974761D01*
X168170952Y-110022380D01*
X168075714Y-110022380D01*
X169456666Y-110022380D02*
X168885238Y-110022380D01*
X169170952Y-110022380D02*
X169170952Y-109022380D01*
X169075714Y-109165238D01*
X168980476Y-109260476D01*
X168885238Y-109308095D01*
X159516666Y-109022380D02*
X159516666Y-109736666D01*
X159469047Y-109879523D01*
X159373809Y-109974761D01*
X159230952Y-110022380D01*
X159135714Y-110022380D01*
X160516666Y-110022380D02*
X159945238Y-110022380D01*
X160230952Y-110022380D02*
X160230952Y-109022380D01*
X160135714Y-109165238D01*
X160040476Y-109260476D01*
X159945238Y-109308095D01*
X150576666Y-109022380D02*
X150576666Y-109736666D01*
X150529047Y-109879523D01*
X150433809Y-109974761D01*
X150290952Y-110022380D01*
X150195714Y-110022380D01*
X151576666Y-110022380D02*
X151005238Y-110022380D01*
X151290952Y-110022380D02*
X151290952Y-109022380D01*
X151195714Y-109165238D01*
X151100476Y-109260476D01*
X151005238Y-109308095D01*
X231036666Y-105862380D02*
X231036666Y-106576666D01*
X230989047Y-106719523D01*
X230893809Y-106814761D01*
X230750952Y-106862380D01*
X230655714Y-106862380D01*
X232036666Y-106862380D02*
X231465238Y-106862380D01*
X231750952Y-106862380D02*
X231750952Y-105862380D01*
X231655714Y-106005238D01*
X231560476Y-106100476D01*
X231465238Y-106148095D01*
X222096666Y-105862380D02*
X222096666Y-106576666D01*
X222049047Y-106719523D01*
X221953809Y-106814761D01*
X221810952Y-106862380D01*
X221715714Y-106862380D01*
X223096666Y-106862380D02*
X222525238Y-106862380D01*
X222810952Y-106862380D02*
X222810952Y-105862380D01*
X222715714Y-106005238D01*
X222620476Y-106100476D01*
X222525238Y-106148095D01*
X213156666Y-105862380D02*
X213156666Y-106576666D01*
X213109047Y-106719523D01*
X213013809Y-106814761D01*
X212870952Y-106862380D01*
X212775714Y-106862380D01*
X214156666Y-106862380D02*
X213585238Y-106862380D01*
X213870952Y-106862380D02*
X213870952Y-105862380D01*
X213775714Y-106005238D01*
X213680476Y-106100476D01*
X213585238Y-106148095D01*
X204216666Y-105862380D02*
X204216666Y-106576666D01*
X204169047Y-106719523D01*
X204073809Y-106814761D01*
X203930952Y-106862380D01*
X203835714Y-106862380D01*
X205216666Y-106862380D02*
X204645238Y-106862380D01*
X204930952Y-106862380D02*
X204930952Y-105862380D01*
X204835714Y-106005238D01*
X204740476Y-106100476D01*
X204645238Y-106148095D01*
X195276666Y-105862380D02*
X195276666Y-106576666D01*
X195229047Y-106719523D01*
X195133809Y-106814761D01*
X194990952Y-106862380D01*
X194895714Y-106862380D01*
X196276666Y-106862380D02*
X195705238Y-106862380D01*
X195990952Y-106862380D02*
X195990952Y-105862380D01*
X195895714Y-106005238D01*
X195800476Y-106100476D01*
X195705238Y-106148095D01*
X186336666Y-105862380D02*
X186336666Y-106576666D01*
X186289047Y-106719523D01*
X186193809Y-106814761D01*
X186050952Y-106862380D01*
X185955714Y-106862380D01*
X187336666Y-106862380D02*
X186765238Y-106862380D01*
X187050952Y-106862380D02*
X187050952Y-105862380D01*
X186955714Y-106005238D01*
X186860476Y-106100476D01*
X186765238Y-106148095D01*
X177396666Y-105862380D02*
X177396666Y-106576666D01*
X177349047Y-106719523D01*
X177253809Y-106814761D01*
X177110952Y-106862380D01*
X177015714Y-106862380D01*
X178396666Y-106862380D02*
X177825238Y-106862380D01*
X178110952Y-106862380D02*
X178110952Y-105862380D01*
X178015714Y-106005238D01*
X177920476Y-106100476D01*
X177825238Y-106148095D01*
X168456666Y-105862380D02*
X168456666Y-106576666D01*
X168409047Y-106719523D01*
X168313809Y-106814761D01*
X168170952Y-106862380D01*
X168075714Y-106862380D01*
X169456666Y-106862380D02*
X168885238Y-106862380D01*
X169170952Y-106862380D02*
X169170952Y-105862380D01*
X169075714Y-106005238D01*
X168980476Y-106100476D01*
X168885238Y-106148095D01*
X159516666Y-105862380D02*
X159516666Y-106576666D01*
X159469047Y-106719523D01*
X159373809Y-106814761D01*
X159230952Y-106862380D01*
X159135714Y-106862380D01*
X160516666Y-106862380D02*
X159945238Y-106862380D01*
X160230952Y-106862380D02*
X160230952Y-105862380D01*
X160135714Y-106005238D01*
X160040476Y-106100476D01*
X159945238Y-106148095D01*
X150576666Y-105862380D02*
X150576666Y-106576666D01*
X150529047Y-106719523D01*
X150433809Y-106814761D01*
X150290952Y-106862380D01*
X150195714Y-106862380D01*
X151576666Y-106862380D02*
X151005238Y-106862380D01*
X151290952Y-106862380D02*
X151290952Y-105862380D01*
X151195714Y-106005238D01*
X151100476Y-106100476D01*
X151005238Y-106148095D01*
X231036666Y-102702380D02*
X231036666Y-103416666D01*
X230989047Y-103559523D01*
X230893809Y-103654761D01*
X230750952Y-103702380D01*
X230655714Y-103702380D01*
X232036666Y-103702380D02*
X231465238Y-103702380D01*
X231750952Y-103702380D02*
X231750952Y-102702380D01*
X231655714Y-102845238D01*
X231560476Y-102940476D01*
X231465238Y-102988095D01*
X222096666Y-102702380D02*
X222096666Y-103416666D01*
X222049047Y-103559523D01*
X221953809Y-103654761D01*
X221810952Y-103702380D01*
X221715714Y-103702380D01*
X223096666Y-103702380D02*
X222525238Y-103702380D01*
X222810952Y-103702380D02*
X222810952Y-102702380D01*
X222715714Y-102845238D01*
X222620476Y-102940476D01*
X222525238Y-102988095D01*
X213156666Y-102702380D02*
X213156666Y-103416666D01*
X213109047Y-103559523D01*
X213013809Y-103654761D01*
X212870952Y-103702380D01*
X212775714Y-103702380D01*
X214156666Y-103702380D02*
X213585238Y-103702380D01*
X213870952Y-103702380D02*
X213870952Y-102702380D01*
X213775714Y-102845238D01*
X213680476Y-102940476D01*
X213585238Y-102988095D01*
X204216666Y-102702380D02*
X204216666Y-103416666D01*
X204169047Y-103559523D01*
X204073809Y-103654761D01*
X203930952Y-103702380D01*
X203835714Y-103702380D01*
X205216666Y-103702380D02*
X204645238Y-103702380D01*
X204930952Y-103702380D02*
X204930952Y-102702380D01*
X204835714Y-102845238D01*
X204740476Y-102940476D01*
X204645238Y-102988095D01*
X195276666Y-102702380D02*
X195276666Y-103416666D01*
X195229047Y-103559523D01*
X195133809Y-103654761D01*
X194990952Y-103702380D01*
X194895714Y-103702380D01*
X196276666Y-103702380D02*
X195705238Y-103702380D01*
X195990952Y-103702380D02*
X195990952Y-102702380D01*
X195895714Y-102845238D01*
X195800476Y-102940476D01*
X195705238Y-102988095D01*
X186336666Y-102702380D02*
X186336666Y-103416666D01*
X186289047Y-103559523D01*
X186193809Y-103654761D01*
X186050952Y-103702380D01*
X185955714Y-103702380D01*
X187336666Y-103702380D02*
X186765238Y-103702380D01*
X187050952Y-103702380D02*
X187050952Y-102702380D01*
X186955714Y-102845238D01*
X186860476Y-102940476D01*
X186765238Y-102988095D01*
X177396666Y-102702380D02*
X177396666Y-103416666D01*
X177349047Y-103559523D01*
X177253809Y-103654761D01*
X177110952Y-103702380D01*
X177015714Y-103702380D01*
X178396666Y-103702380D02*
X177825238Y-103702380D01*
X178110952Y-103702380D02*
X178110952Y-102702380D01*
X178015714Y-102845238D01*
X177920476Y-102940476D01*
X177825238Y-102988095D01*
X168456666Y-102702380D02*
X168456666Y-103416666D01*
X168409047Y-103559523D01*
X168313809Y-103654761D01*
X168170952Y-103702380D01*
X168075714Y-103702380D01*
X169456666Y-103702380D02*
X168885238Y-103702380D01*
X169170952Y-103702380D02*
X169170952Y-102702380D01*
X169075714Y-102845238D01*
X168980476Y-102940476D01*
X168885238Y-102988095D01*
X159516666Y-102702380D02*
X159516666Y-103416666D01*
X159469047Y-103559523D01*
X159373809Y-103654761D01*
X159230952Y-103702380D01*
X159135714Y-103702380D01*
X160516666Y-103702380D02*
X159945238Y-103702380D01*
X160230952Y-103702380D02*
X160230952Y-102702380D01*
X160135714Y-102845238D01*
X160040476Y-102940476D01*
X159945238Y-102988095D01*
X150576666Y-102702380D02*
X150576666Y-103416666D01*
X150529047Y-103559523D01*
X150433809Y-103654761D01*
X150290952Y-103702380D01*
X150195714Y-103702380D01*
X151576666Y-103702380D02*
X151005238Y-103702380D01*
X151290952Y-103702380D02*
X151290952Y-102702380D01*
X151195714Y-102845238D01*
X151100476Y-102940476D01*
X151005238Y-102988095D01*
X231036666Y-99542380D02*
X231036666Y-100256666D01*
X230989047Y-100399523D01*
X230893809Y-100494761D01*
X230750952Y-100542380D01*
X230655714Y-100542380D01*
X232036666Y-100542380D02*
X231465238Y-100542380D01*
X231750952Y-100542380D02*
X231750952Y-99542380D01*
X231655714Y-99685238D01*
X231560476Y-99780476D01*
X231465238Y-99828095D01*
X222096666Y-99542380D02*
X222096666Y-100256666D01*
X222049047Y-100399523D01*
X221953809Y-100494761D01*
X221810952Y-100542380D01*
X221715714Y-100542380D01*
X223096666Y-100542380D02*
X222525238Y-100542380D01*
X222810952Y-100542380D02*
X222810952Y-99542380D01*
X222715714Y-99685238D01*
X222620476Y-99780476D01*
X222525238Y-99828095D01*
X213156666Y-99542380D02*
X213156666Y-100256666D01*
X213109047Y-100399523D01*
X213013809Y-100494761D01*
X212870952Y-100542380D01*
X212775714Y-100542380D01*
X214156666Y-100542380D02*
X213585238Y-100542380D01*
X213870952Y-100542380D02*
X213870952Y-99542380D01*
X213775714Y-99685238D01*
X213680476Y-99780476D01*
X213585238Y-99828095D01*
X204216666Y-99542380D02*
X204216666Y-100256666D01*
X204169047Y-100399523D01*
X204073809Y-100494761D01*
X203930952Y-100542380D01*
X203835714Y-100542380D01*
X205216666Y-100542380D02*
X204645238Y-100542380D01*
X204930952Y-100542380D02*
X204930952Y-99542380D01*
X204835714Y-99685238D01*
X204740476Y-99780476D01*
X204645238Y-99828095D01*
X195276666Y-99542380D02*
X195276666Y-100256666D01*
X195229047Y-100399523D01*
X195133809Y-100494761D01*
X194990952Y-100542380D01*
X194895714Y-100542380D01*
X196276666Y-100542380D02*
X195705238Y-100542380D01*
X195990952Y-100542380D02*
X195990952Y-99542380D01*
X195895714Y-99685238D01*
X195800476Y-99780476D01*
X195705238Y-99828095D01*
X186336666Y-99542380D02*
X186336666Y-100256666D01*
X186289047Y-100399523D01*
X186193809Y-100494761D01*
X186050952Y-100542380D01*
X185955714Y-100542380D01*
X187336666Y-100542380D02*
X186765238Y-100542380D01*
X187050952Y-100542380D02*
X187050952Y-99542380D01*
X186955714Y-99685238D01*
X186860476Y-99780476D01*
X186765238Y-99828095D01*
X177396666Y-99542380D02*
X177396666Y-100256666D01*
X177349047Y-100399523D01*
X177253809Y-100494761D01*
X177110952Y-100542380D01*
X177015714Y-100542380D01*
X178396666Y-100542380D02*
X177825238Y-100542380D01*
X178110952Y-100542380D02*
X178110952Y-99542380D01*
X178015714Y-99685238D01*
X177920476Y-99780476D01*
X177825238Y-99828095D01*
X168456666Y-99542380D02*
X168456666Y-100256666D01*
X168409047Y-100399523D01*
X168313809Y-100494761D01*
X168170952Y-100542380D01*
X168075714Y-100542380D01*
X169456666Y-100542380D02*
X168885238Y-100542380D01*
X169170952Y-100542380D02*
X169170952Y-99542380D01*
X169075714Y-99685238D01*
X168980476Y-99780476D01*
X168885238Y-99828095D01*
X159516666Y-99542380D02*
X159516666Y-100256666D01*
X159469047Y-100399523D01*
X159373809Y-100494761D01*
X159230952Y-100542380D01*
X159135714Y-100542380D01*
X160516666Y-100542380D02*
X159945238Y-100542380D01*
X160230952Y-100542380D02*
X160230952Y-99542380D01*
X160135714Y-99685238D01*
X160040476Y-99780476D01*
X159945238Y-99828095D01*
X150576666Y-99542380D02*
X150576666Y-100256666D01*
X150529047Y-100399523D01*
X150433809Y-100494761D01*
X150290952Y-100542380D01*
X150195714Y-100542380D01*
X151576666Y-100542380D02*
X151005238Y-100542380D01*
X151290952Y-100542380D02*
X151290952Y-99542380D01*
X151195714Y-99685238D01*
X151100476Y-99780476D01*
X151005238Y-99828095D01*
X231036666Y-96382380D02*
X231036666Y-97096666D01*
X230989047Y-97239523D01*
X230893809Y-97334761D01*
X230750952Y-97382380D01*
X230655714Y-97382380D01*
X232036666Y-97382380D02*
X231465238Y-97382380D01*
X231750952Y-97382380D02*
X231750952Y-96382380D01*
X231655714Y-96525238D01*
X231560476Y-96620476D01*
X231465238Y-96668095D01*
X222096666Y-96382380D02*
X222096666Y-97096666D01*
X222049047Y-97239523D01*
X221953809Y-97334761D01*
X221810952Y-97382380D01*
X221715714Y-97382380D01*
X223096666Y-97382380D02*
X222525238Y-97382380D01*
X222810952Y-97382380D02*
X222810952Y-96382380D01*
X222715714Y-96525238D01*
X222620476Y-96620476D01*
X222525238Y-96668095D01*
X213156666Y-96382380D02*
X213156666Y-97096666D01*
X213109047Y-97239523D01*
X213013809Y-97334761D01*
X212870952Y-97382380D01*
X212775714Y-97382380D01*
X214156666Y-97382380D02*
X213585238Y-97382380D01*
X213870952Y-97382380D02*
X213870952Y-96382380D01*
X213775714Y-96525238D01*
X213680476Y-96620476D01*
X213585238Y-96668095D01*
X204216666Y-96382380D02*
X204216666Y-97096666D01*
X204169047Y-97239523D01*
X204073809Y-97334761D01*
X203930952Y-97382380D01*
X203835714Y-97382380D01*
X205216666Y-97382380D02*
X204645238Y-97382380D01*
X204930952Y-97382380D02*
X204930952Y-96382380D01*
X204835714Y-96525238D01*
X204740476Y-96620476D01*
X204645238Y-96668095D01*
X195276666Y-96382380D02*
X195276666Y-97096666D01*
X195229047Y-97239523D01*
X195133809Y-97334761D01*
X194990952Y-97382380D01*
X194895714Y-97382380D01*
X196276666Y-97382380D02*
X195705238Y-97382380D01*
X195990952Y-97382380D02*
X195990952Y-96382380D01*
X195895714Y-96525238D01*
X195800476Y-96620476D01*
X195705238Y-96668095D01*
X186336666Y-96382380D02*
X186336666Y-97096666D01*
X186289047Y-97239523D01*
X186193809Y-97334761D01*
X186050952Y-97382380D01*
X185955714Y-97382380D01*
X187336666Y-97382380D02*
X186765238Y-97382380D01*
X187050952Y-97382380D02*
X187050952Y-96382380D01*
X186955714Y-96525238D01*
X186860476Y-96620476D01*
X186765238Y-96668095D01*
X177396666Y-96382380D02*
X177396666Y-97096666D01*
X177349047Y-97239523D01*
X177253809Y-97334761D01*
X177110952Y-97382380D01*
X177015714Y-97382380D01*
X178396666Y-97382380D02*
X177825238Y-97382380D01*
X178110952Y-97382380D02*
X178110952Y-96382380D01*
X178015714Y-96525238D01*
X177920476Y-96620476D01*
X177825238Y-96668095D01*
X168456666Y-96382380D02*
X168456666Y-97096666D01*
X168409047Y-97239523D01*
X168313809Y-97334761D01*
X168170952Y-97382380D01*
X168075714Y-97382380D01*
X169456666Y-97382380D02*
X168885238Y-97382380D01*
X169170952Y-97382380D02*
X169170952Y-96382380D01*
X169075714Y-96525238D01*
X168980476Y-96620476D01*
X168885238Y-96668095D01*
X159516666Y-96382380D02*
X159516666Y-97096666D01*
X159469047Y-97239523D01*
X159373809Y-97334761D01*
X159230952Y-97382380D01*
X159135714Y-97382380D01*
X160516666Y-97382380D02*
X159945238Y-97382380D01*
X160230952Y-97382380D02*
X160230952Y-96382380D01*
X160135714Y-96525238D01*
X160040476Y-96620476D01*
X159945238Y-96668095D01*
X150576666Y-96382380D02*
X150576666Y-97096666D01*
X150529047Y-97239523D01*
X150433809Y-97334761D01*
X150290952Y-97382380D01*
X150195714Y-97382380D01*
X151576666Y-97382380D02*
X151005238Y-97382380D01*
X151290952Y-97382380D02*
X151290952Y-96382380D01*
X151195714Y-96525238D01*
X151100476Y-96620476D01*
X151005238Y-96668095D01*
X231036666Y-93222380D02*
X231036666Y-93936666D01*
X230989047Y-94079523D01*
X230893809Y-94174761D01*
X230750952Y-94222380D01*
X230655714Y-94222380D01*
X232036666Y-94222380D02*
X231465238Y-94222380D01*
X231750952Y-94222380D02*
X231750952Y-93222380D01*
X231655714Y-93365238D01*
X231560476Y-93460476D01*
X231465238Y-93508095D01*
X222096666Y-93222380D02*
X222096666Y-93936666D01*
X222049047Y-94079523D01*
X221953809Y-94174761D01*
X221810952Y-94222380D01*
X221715714Y-94222380D01*
X223096666Y-94222380D02*
X222525238Y-94222380D01*
X222810952Y-94222380D02*
X222810952Y-93222380D01*
X222715714Y-93365238D01*
X222620476Y-93460476D01*
X222525238Y-93508095D01*
X213156666Y-93222380D02*
X213156666Y-93936666D01*
X213109047Y-94079523D01*
X213013809Y-94174761D01*
X212870952Y-94222380D01*
X212775714Y-94222380D01*
X214156666Y-94222380D02*
X213585238Y-94222380D01*
X213870952Y-94222380D02*
X213870952Y-93222380D01*
X213775714Y-93365238D01*
X213680476Y-93460476D01*
X213585238Y-93508095D01*
X204216666Y-93222380D02*
X204216666Y-93936666D01*
X204169047Y-94079523D01*
X204073809Y-94174761D01*
X203930952Y-94222380D01*
X203835714Y-94222380D01*
X205216666Y-94222380D02*
X204645238Y-94222380D01*
X204930952Y-94222380D02*
X204930952Y-93222380D01*
X204835714Y-93365238D01*
X204740476Y-93460476D01*
X204645238Y-93508095D01*
X195276666Y-93222380D02*
X195276666Y-93936666D01*
X195229047Y-94079523D01*
X195133809Y-94174761D01*
X194990952Y-94222380D01*
X194895714Y-94222380D01*
X196276666Y-94222380D02*
X195705238Y-94222380D01*
X195990952Y-94222380D02*
X195990952Y-93222380D01*
X195895714Y-93365238D01*
X195800476Y-93460476D01*
X195705238Y-93508095D01*
X186336666Y-93222380D02*
X186336666Y-93936666D01*
X186289047Y-94079523D01*
X186193809Y-94174761D01*
X186050952Y-94222380D01*
X185955714Y-94222380D01*
X187336666Y-94222380D02*
X186765238Y-94222380D01*
X187050952Y-94222380D02*
X187050952Y-93222380D01*
X186955714Y-93365238D01*
X186860476Y-93460476D01*
X186765238Y-93508095D01*
X177396666Y-93222380D02*
X177396666Y-93936666D01*
X177349047Y-94079523D01*
X177253809Y-94174761D01*
X177110952Y-94222380D01*
X177015714Y-94222380D01*
X178396666Y-94222380D02*
X177825238Y-94222380D01*
X178110952Y-94222380D02*
X178110952Y-93222380D01*
X178015714Y-93365238D01*
X177920476Y-93460476D01*
X177825238Y-93508095D01*
X168456666Y-93222380D02*
X168456666Y-93936666D01*
X168409047Y-94079523D01*
X168313809Y-94174761D01*
X168170952Y-94222380D01*
X168075714Y-94222380D01*
X169456666Y-94222380D02*
X168885238Y-94222380D01*
X169170952Y-94222380D02*
X169170952Y-93222380D01*
X169075714Y-93365238D01*
X168980476Y-93460476D01*
X168885238Y-93508095D01*
X159516666Y-93222380D02*
X159516666Y-93936666D01*
X159469047Y-94079523D01*
X159373809Y-94174761D01*
X159230952Y-94222380D01*
X159135714Y-94222380D01*
X160516666Y-94222380D02*
X159945238Y-94222380D01*
X160230952Y-94222380D02*
X160230952Y-93222380D01*
X160135714Y-93365238D01*
X160040476Y-93460476D01*
X159945238Y-93508095D01*
X150576666Y-93222380D02*
X150576666Y-93936666D01*
X150529047Y-94079523D01*
X150433809Y-94174761D01*
X150290952Y-94222380D01*
X150195714Y-94222380D01*
X151576666Y-94222380D02*
X151005238Y-94222380D01*
X151290952Y-94222380D02*
X151290952Y-93222380D01*
X151195714Y-93365238D01*
X151100476Y-93460476D01*
X151005238Y-93508095D01*
X231036666Y-90062380D02*
X231036666Y-90776666D01*
X230989047Y-90919523D01*
X230893809Y-91014761D01*
X230750952Y-91062380D01*
X230655714Y-91062380D01*
X232036666Y-91062380D02*
X231465238Y-91062380D01*
X231750952Y-91062380D02*
X231750952Y-90062380D01*
X231655714Y-90205238D01*
X231560476Y-90300476D01*
X231465238Y-90348095D01*
X222096666Y-90062380D02*
X222096666Y-90776666D01*
X222049047Y-90919523D01*
X221953809Y-91014761D01*
X221810952Y-91062380D01*
X221715714Y-91062380D01*
X223096666Y-91062380D02*
X222525238Y-91062380D01*
X222810952Y-91062380D02*
X222810952Y-90062380D01*
X222715714Y-90205238D01*
X222620476Y-90300476D01*
X222525238Y-90348095D01*
X213156666Y-90062380D02*
X213156666Y-90776666D01*
X213109047Y-90919523D01*
X213013809Y-91014761D01*
X212870952Y-91062380D01*
X212775714Y-91062380D01*
X214156666Y-91062380D02*
X213585238Y-91062380D01*
X213870952Y-91062380D02*
X213870952Y-90062380D01*
X213775714Y-90205238D01*
X213680476Y-90300476D01*
X213585238Y-90348095D01*
X204216666Y-90062380D02*
X204216666Y-90776666D01*
X204169047Y-90919523D01*
X204073809Y-91014761D01*
X203930952Y-91062380D01*
X203835714Y-91062380D01*
X205216666Y-91062380D02*
X204645238Y-91062380D01*
X204930952Y-91062380D02*
X204930952Y-90062380D01*
X204835714Y-90205238D01*
X204740476Y-90300476D01*
X204645238Y-90348095D01*
X195276666Y-90062380D02*
X195276666Y-90776666D01*
X195229047Y-90919523D01*
X195133809Y-91014761D01*
X194990952Y-91062380D01*
X194895714Y-91062380D01*
X196276666Y-91062380D02*
X195705238Y-91062380D01*
X195990952Y-91062380D02*
X195990952Y-90062380D01*
X195895714Y-90205238D01*
X195800476Y-90300476D01*
X195705238Y-90348095D01*
X186336666Y-90062380D02*
X186336666Y-90776666D01*
X186289047Y-90919523D01*
X186193809Y-91014761D01*
X186050952Y-91062380D01*
X185955714Y-91062380D01*
X187336666Y-91062380D02*
X186765238Y-91062380D01*
X187050952Y-91062380D02*
X187050952Y-90062380D01*
X186955714Y-90205238D01*
X186860476Y-90300476D01*
X186765238Y-90348095D01*
X177396666Y-90062380D02*
X177396666Y-90776666D01*
X177349047Y-90919523D01*
X177253809Y-91014761D01*
X177110952Y-91062380D01*
X177015714Y-91062380D01*
X178396666Y-91062380D02*
X177825238Y-91062380D01*
X178110952Y-91062380D02*
X178110952Y-90062380D01*
X178015714Y-90205238D01*
X177920476Y-90300476D01*
X177825238Y-90348095D01*
X168456666Y-90062380D02*
X168456666Y-90776666D01*
X168409047Y-90919523D01*
X168313809Y-91014761D01*
X168170952Y-91062380D01*
X168075714Y-91062380D01*
X169456666Y-91062380D02*
X168885238Y-91062380D01*
X169170952Y-91062380D02*
X169170952Y-90062380D01*
X169075714Y-90205238D01*
X168980476Y-90300476D01*
X168885238Y-90348095D01*
X159516666Y-90062380D02*
X159516666Y-90776666D01*
X159469047Y-90919523D01*
X159373809Y-91014761D01*
X159230952Y-91062380D01*
X159135714Y-91062380D01*
X160516666Y-91062380D02*
X159945238Y-91062380D01*
X160230952Y-91062380D02*
X160230952Y-90062380D01*
X160135714Y-90205238D01*
X160040476Y-90300476D01*
X159945238Y-90348095D01*
X150576666Y-90062380D02*
X150576666Y-90776666D01*
X150529047Y-90919523D01*
X150433809Y-91014761D01*
X150290952Y-91062380D01*
X150195714Y-91062380D01*
X151576666Y-91062380D02*
X151005238Y-91062380D01*
X151290952Y-91062380D02*
X151290952Y-90062380D01*
X151195714Y-90205238D01*
X151100476Y-90300476D01*
X151005238Y-90348095D01*
X231036666Y-86902380D02*
X231036666Y-87616666D01*
X230989047Y-87759523D01*
X230893809Y-87854761D01*
X230750952Y-87902380D01*
X230655714Y-87902380D01*
X232036666Y-87902380D02*
X231465238Y-87902380D01*
X231750952Y-87902380D02*
X231750952Y-86902380D01*
X231655714Y-87045238D01*
X231560476Y-87140476D01*
X231465238Y-87188095D01*
X222096666Y-86902380D02*
X222096666Y-87616666D01*
X222049047Y-87759523D01*
X221953809Y-87854761D01*
X221810952Y-87902380D01*
X221715714Y-87902380D01*
X223096666Y-87902380D02*
X222525238Y-87902380D01*
X222810952Y-87902380D02*
X222810952Y-86902380D01*
X222715714Y-87045238D01*
X222620476Y-87140476D01*
X222525238Y-87188095D01*
X213156666Y-86902380D02*
X213156666Y-87616666D01*
X213109047Y-87759523D01*
X213013809Y-87854761D01*
X212870952Y-87902380D01*
X212775714Y-87902380D01*
X214156666Y-87902380D02*
X213585238Y-87902380D01*
X213870952Y-87902380D02*
X213870952Y-86902380D01*
X213775714Y-87045238D01*
X213680476Y-87140476D01*
X213585238Y-87188095D01*
X204216666Y-86902380D02*
X204216666Y-87616666D01*
X204169047Y-87759523D01*
X204073809Y-87854761D01*
X203930952Y-87902380D01*
X203835714Y-87902380D01*
X205216666Y-87902380D02*
X204645238Y-87902380D01*
X204930952Y-87902380D02*
X204930952Y-86902380D01*
X204835714Y-87045238D01*
X204740476Y-87140476D01*
X204645238Y-87188095D01*
X195276666Y-86902380D02*
X195276666Y-87616666D01*
X195229047Y-87759523D01*
X195133809Y-87854761D01*
X194990952Y-87902380D01*
X194895714Y-87902380D01*
X196276666Y-87902380D02*
X195705238Y-87902380D01*
X195990952Y-87902380D02*
X195990952Y-86902380D01*
X195895714Y-87045238D01*
X195800476Y-87140476D01*
X195705238Y-87188095D01*
X186336666Y-86902380D02*
X186336666Y-87616666D01*
X186289047Y-87759523D01*
X186193809Y-87854761D01*
X186050952Y-87902380D01*
X185955714Y-87902380D01*
X187336666Y-87902380D02*
X186765238Y-87902380D01*
X187050952Y-87902380D02*
X187050952Y-86902380D01*
X186955714Y-87045238D01*
X186860476Y-87140476D01*
X186765238Y-87188095D01*
X177396666Y-86902380D02*
X177396666Y-87616666D01*
X177349047Y-87759523D01*
X177253809Y-87854761D01*
X177110952Y-87902380D01*
X177015714Y-87902380D01*
X178396666Y-87902380D02*
X177825238Y-87902380D01*
X178110952Y-87902380D02*
X178110952Y-86902380D01*
X178015714Y-87045238D01*
X177920476Y-87140476D01*
X177825238Y-87188095D01*
X168456666Y-86902380D02*
X168456666Y-87616666D01*
X168409047Y-87759523D01*
X168313809Y-87854761D01*
X168170952Y-87902380D01*
X168075714Y-87902380D01*
X169456666Y-87902380D02*
X168885238Y-87902380D01*
X169170952Y-87902380D02*
X169170952Y-86902380D01*
X169075714Y-87045238D01*
X168980476Y-87140476D01*
X168885238Y-87188095D01*
X159516666Y-86902380D02*
X159516666Y-87616666D01*
X159469047Y-87759523D01*
X159373809Y-87854761D01*
X159230952Y-87902380D01*
X159135714Y-87902380D01*
X160516666Y-87902380D02*
X159945238Y-87902380D01*
X160230952Y-87902380D02*
X160230952Y-86902380D01*
X160135714Y-87045238D01*
X160040476Y-87140476D01*
X159945238Y-87188095D01*
X150576666Y-86902380D02*
X150576666Y-87616666D01*
X150529047Y-87759523D01*
X150433809Y-87854761D01*
X150290952Y-87902380D01*
X150195714Y-87902380D01*
X151576666Y-87902380D02*
X151005238Y-87902380D01*
X151290952Y-87902380D02*
X151290952Y-86902380D01*
X151195714Y-87045238D01*
X151100476Y-87140476D01*
X151005238Y-87188095D01*
X231036666Y-83742380D02*
X231036666Y-84456666D01*
X230989047Y-84599523D01*
X230893809Y-84694761D01*
X230750952Y-84742380D01*
X230655714Y-84742380D01*
X232036666Y-84742380D02*
X231465238Y-84742380D01*
X231750952Y-84742380D02*
X231750952Y-83742380D01*
X231655714Y-83885238D01*
X231560476Y-83980476D01*
X231465238Y-84028095D01*
X222096666Y-83742380D02*
X222096666Y-84456666D01*
X222049047Y-84599523D01*
X221953809Y-84694761D01*
X221810952Y-84742380D01*
X221715714Y-84742380D01*
X223096666Y-84742380D02*
X222525238Y-84742380D01*
X222810952Y-84742380D02*
X222810952Y-83742380D01*
X222715714Y-83885238D01*
X222620476Y-83980476D01*
X222525238Y-84028095D01*
X213156666Y-83742380D02*
X213156666Y-84456666D01*
X213109047Y-84599523D01*
X213013809Y-84694761D01*
X212870952Y-84742380D01*
X212775714Y-84742380D01*
X214156666Y-84742380D02*
X213585238Y-84742380D01*
X213870952Y-84742380D02*
X213870952Y-83742380D01*
X213775714Y-83885238D01*
X213680476Y-83980476D01*
X213585238Y-84028095D01*
X204216666Y-83742380D02*
X204216666Y-84456666D01*
X204169047Y-84599523D01*
X204073809Y-84694761D01*
X203930952Y-84742380D01*
X203835714Y-84742380D01*
X205216666Y-84742380D02*
X204645238Y-84742380D01*
X204930952Y-84742380D02*
X204930952Y-83742380D01*
X204835714Y-83885238D01*
X204740476Y-83980476D01*
X204645238Y-84028095D01*
X195276666Y-83742380D02*
X195276666Y-84456666D01*
X195229047Y-84599523D01*
X195133809Y-84694761D01*
X194990952Y-84742380D01*
X194895714Y-84742380D01*
X196276666Y-84742380D02*
X195705238Y-84742380D01*
X195990952Y-84742380D02*
X195990952Y-83742380D01*
X195895714Y-83885238D01*
X195800476Y-83980476D01*
X195705238Y-84028095D01*
X186336666Y-83742380D02*
X186336666Y-84456666D01*
X186289047Y-84599523D01*
X186193809Y-84694761D01*
X186050952Y-84742380D01*
X185955714Y-84742380D01*
X187336666Y-84742380D02*
X186765238Y-84742380D01*
X187050952Y-84742380D02*
X187050952Y-83742380D01*
X186955714Y-83885238D01*
X186860476Y-83980476D01*
X186765238Y-84028095D01*
X177396666Y-83742380D02*
X177396666Y-84456666D01*
X177349047Y-84599523D01*
X177253809Y-84694761D01*
X177110952Y-84742380D01*
X177015714Y-84742380D01*
X178396666Y-84742380D02*
X177825238Y-84742380D01*
X178110952Y-84742380D02*
X178110952Y-83742380D01*
X178015714Y-83885238D01*
X177920476Y-83980476D01*
X177825238Y-84028095D01*
X168456666Y-83742380D02*
X168456666Y-84456666D01*
X168409047Y-84599523D01*
X168313809Y-84694761D01*
X168170952Y-84742380D01*
X168075714Y-84742380D01*
X169456666Y-84742380D02*
X168885238Y-84742380D01*
X169170952Y-84742380D02*
X169170952Y-83742380D01*
X169075714Y-83885238D01*
X168980476Y-83980476D01*
X168885238Y-84028095D01*
X159516666Y-83742380D02*
X159516666Y-84456666D01*
X159469047Y-84599523D01*
X159373809Y-84694761D01*
X159230952Y-84742380D01*
X159135714Y-84742380D01*
X160516666Y-84742380D02*
X159945238Y-84742380D01*
X160230952Y-84742380D02*
X160230952Y-83742380D01*
X160135714Y-83885238D01*
X160040476Y-83980476D01*
X159945238Y-84028095D01*
X150576666Y-83742380D02*
X150576666Y-84456666D01*
X150529047Y-84599523D01*
X150433809Y-84694761D01*
X150290952Y-84742380D01*
X150195714Y-84742380D01*
X151576666Y-84742380D02*
X151005238Y-84742380D01*
X151290952Y-84742380D02*
X151290952Y-83742380D01*
X151195714Y-83885238D01*
X151100476Y-83980476D01*
X151005238Y-84028095D01*
X231036666Y-80582380D02*
X231036666Y-81296666D01*
X230989047Y-81439523D01*
X230893809Y-81534761D01*
X230750952Y-81582380D01*
X230655714Y-81582380D01*
X232036666Y-81582380D02*
X231465238Y-81582380D01*
X231750952Y-81582380D02*
X231750952Y-80582380D01*
X231655714Y-80725238D01*
X231560476Y-80820476D01*
X231465238Y-80868095D01*
X222096666Y-80582380D02*
X222096666Y-81296666D01*
X222049047Y-81439523D01*
X221953809Y-81534761D01*
X221810952Y-81582380D01*
X221715714Y-81582380D01*
X223096666Y-81582380D02*
X222525238Y-81582380D01*
X222810952Y-81582380D02*
X222810952Y-80582380D01*
X222715714Y-80725238D01*
X222620476Y-80820476D01*
X222525238Y-80868095D01*
X213156666Y-80582380D02*
X213156666Y-81296666D01*
X213109047Y-81439523D01*
X213013809Y-81534761D01*
X212870952Y-81582380D01*
X212775714Y-81582380D01*
X214156666Y-81582380D02*
X213585238Y-81582380D01*
X213870952Y-81582380D02*
X213870952Y-80582380D01*
X213775714Y-80725238D01*
X213680476Y-80820476D01*
X213585238Y-80868095D01*
X204216666Y-80582380D02*
X204216666Y-81296666D01*
X204169047Y-81439523D01*
X204073809Y-81534761D01*
X203930952Y-81582380D01*
X203835714Y-81582380D01*
X205216666Y-81582380D02*
X204645238Y-81582380D01*
X204930952Y-81582380D02*
X204930952Y-80582380D01*
X204835714Y-80725238D01*
X204740476Y-80820476D01*
X204645238Y-80868095D01*
X195276666Y-80582380D02*
X195276666Y-81296666D01*
X195229047Y-81439523D01*
X195133809Y-81534761D01*
X194990952Y-81582380D01*
X194895714Y-81582380D01*
X196276666Y-81582380D02*
X195705238Y-81582380D01*
X195990952Y-81582380D02*
X195990952Y-80582380D01*
X195895714Y-80725238D01*
X195800476Y-80820476D01*
X195705238Y-80868095D01*
X186336666Y-80582380D02*
X186336666Y-81296666D01*
X186289047Y-81439523D01*
X186193809Y-81534761D01*
X186050952Y-81582380D01*
X185955714Y-81582380D01*
X187336666Y-81582380D02*
X186765238Y-81582380D01*
X187050952Y-81582380D02*
X187050952Y-80582380D01*
X186955714Y-80725238D01*
X186860476Y-80820476D01*
X186765238Y-80868095D01*
X177396666Y-80582380D02*
X177396666Y-81296666D01*
X177349047Y-81439523D01*
X177253809Y-81534761D01*
X177110952Y-81582380D01*
X177015714Y-81582380D01*
X178396666Y-81582380D02*
X177825238Y-81582380D01*
X178110952Y-81582380D02*
X178110952Y-80582380D01*
X178015714Y-80725238D01*
X177920476Y-80820476D01*
X177825238Y-80868095D01*
X168456666Y-80582380D02*
X168456666Y-81296666D01*
X168409047Y-81439523D01*
X168313809Y-81534761D01*
X168170952Y-81582380D01*
X168075714Y-81582380D01*
X169456666Y-81582380D02*
X168885238Y-81582380D01*
X169170952Y-81582380D02*
X169170952Y-80582380D01*
X169075714Y-80725238D01*
X168980476Y-80820476D01*
X168885238Y-80868095D01*
X159516666Y-80582380D02*
X159516666Y-81296666D01*
X159469047Y-81439523D01*
X159373809Y-81534761D01*
X159230952Y-81582380D01*
X159135714Y-81582380D01*
X160516666Y-81582380D02*
X159945238Y-81582380D01*
X160230952Y-81582380D02*
X160230952Y-80582380D01*
X160135714Y-80725238D01*
X160040476Y-80820476D01*
X159945238Y-80868095D01*
X150576666Y-80582380D02*
X150576666Y-81296666D01*
X150529047Y-81439523D01*
X150433809Y-81534761D01*
X150290952Y-81582380D01*
X150195714Y-81582380D01*
X151576666Y-81582380D02*
X151005238Y-81582380D01*
X151290952Y-81582380D02*
X151290952Y-80582380D01*
X151195714Y-80725238D01*
X151100476Y-80820476D01*
X151005238Y-80868095D01*
D11*
X224072000Y-139486000D02*
X233012000Y-139486000D01*
X233012000Y-139486000D02*
X233012000Y-142646000D01*
X233012000Y-142646000D02*
X224072000Y-142646000D01*
X224072000Y-142646000D02*
X224072000Y-139486000D01*
X215132000Y-139486000D02*
X224072000Y-139486000D01*
X224072000Y-139486000D02*
X224072000Y-142646000D01*
X224072000Y-142646000D02*
X215132000Y-142646000D01*
X215132000Y-142646000D02*
X215132000Y-139486000D01*
X206192000Y-139486000D02*
X215132000Y-139486000D01*
X215132000Y-139486000D02*
X215132000Y-142646000D01*
X215132000Y-142646000D02*
X206192000Y-142646000D01*
X206192000Y-142646000D02*
X206192000Y-139486000D01*
X197252000Y-139486000D02*
X206192000Y-139486000D01*
X206192000Y-139486000D02*
X206192000Y-142646000D01*
X206192000Y-142646000D02*
X197252000Y-142646000D01*
X197252000Y-142646000D02*
X197252000Y-139486000D01*
X188312000Y-139486000D02*
X197252000Y-139486000D01*
X197252000Y-139486000D02*
X197252000Y-142646000D01*
X197252000Y-142646000D02*
X188312000Y-142646000D01*
X188312000Y-142646000D02*
X188312000Y-139486000D01*
X179372000Y-139486000D02*
X188312000Y-139486000D01*
X188312000Y-139486000D02*
X188312000Y-142646000D01*
X188312000Y-142646000D02*
X179372000Y-142646000D01*
X179372000Y-142646000D02*
X179372000Y-139486000D01*
X170432000Y-139486000D02*
X179372000Y-139486000D01*
X179372000Y-139486000D02*
X179372000Y-142646000D01*
X179372000Y-142646000D02*
X170432000Y-142646000D01*
X170432000Y-142646000D02*
X170432000Y-139486000D01*
X161492000Y-139486000D02*
X170432000Y-139486000D01*
X170432000Y-139486000D02*
X170432000Y-142646000D01*
X170432000Y-142646000D02*
X161492000Y-142646000D01*
X161492000Y-142646000D02*
X161492000Y-139486000D01*
X152552000Y-139486000D02*
X161492000Y-139486000D01*
X161492000Y-139486000D02*
X161492000Y-142646000D01*
X161492000Y-142646000D02*
X152552000Y-142646000D01*
X152552000Y-142646000D02*
X152552000Y-139486000D01*
X143612000Y-139486000D02*
X152552000Y-139486000D01*
X152552000Y-139486000D02*
X152552000Y-142646000D01*
X152552000Y-142646000D02*
X143612000Y-142646000D01*
X143612000Y-142646000D02*
X143612000Y-139486000D01*
X224072000Y-136326000D02*
X233012000Y-136326000D01*
X233012000Y-136326000D02*
X233012000Y-139486000D01*
X233012000Y-139486000D02*
X224072000Y-139486000D01*
X224072000Y-139486000D02*
X224072000Y-136326000D01*
X215132000Y-136326000D02*
X224072000Y-136326000D01*
X224072000Y-136326000D02*
X224072000Y-139486000D01*
X224072000Y-139486000D02*
X215132000Y-139486000D01*
X215132000Y-139486000D02*
X215132000Y-136326000D01*
X206192000Y-136326000D02*
X215132000Y-136326000D01*
X215132000Y-136326000D02*
X215132000Y-139486000D01*
X215132000Y-139486000D02*
X206192000Y-139486000D01*
X206192000Y-139486000D02*
X206192000Y-136326000D01*
X197252000Y-136326000D02*
X206192000Y-136326000D01*
X206192000Y-136326000D02*
X206192000Y-139486000D01*
X206192000Y-139486000D02*
X197252000Y-139486000D01*
X197252000Y-139486000D02*
X197252000Y-136326000D01*
X188312000Y-136326000D02*
X197252000Y-136326000D01*
X197252000Y-136326000D02*
X197252000Y-139486000D01*
X197252000Y-139486000D02*
X188312000Y-139486000D01*
X188312000Y-139486000D02*
X188312000Y-136326000D01*
X179372000Y-136326000D02*
X188312000Y-136326000D01*
X188312000Y-136326000D02*
X188312000Y-139486000D01*
X188312000Y-139486000D02*
X179372000Y-139486000D01*
X179372000Y-139486000D02*
X179372000Y-136326000D01*
X170432000Y-136326000D02*
X179372000Y-136326000D01*
X179372000Y-136326000D02*
X179372000Y-139486000D01*
X179372000Y-139486000D02*
X170432000Y-139486000D01*
X170432000Y-139486000D02*
X170432000Y-136326000D01*
X161492000Y-136326000D02*
X170432000Y-136326000D01*
X170432000Y-136326000D02*
X170432000Y-139486000D01*
X170432000Y-139486000D02*
X161492000Y-139486000D01*
X161492000Y-139486000D02*
X161492000Y-136326000D01*
X152552000Y-136326000D02*
X161492000Y-136326000D01*
X161492000Y-136326000D02*
X161492000Y-139486000D01*
X161492000Y-139486000D02*
X152552000Y-139486000D01*
X152552000Y-139486000D02*
X152552000Y-136326000D01*
X143612000Y-136326000D02*
X152552000Y-136326000D01*
X152552000Y-136326000D02*
X152552000Y-139486000D01*
X152552000Y-139486000D02*
X143612000Y-139486000D01*
X143612000Y-139486000D02*
X143612000Y-136326000D01*
X224072000Y-133166000D02*
X233012000Y-133166000D01*
X233012000Y-133166000D02*
X233012000Y-136326000D01*
X233012000Y-136326000D02*
X224072000Y-136326000D01*
X224072000Y-136326000D02*
X224072000Y-133166000D01*
X215132000Y-133166000D02*
X224072000Y-133166000D01*
X224072000Y-133166000D02*
X224072000Y-136326000D01*
X224072000Y-136326000D02*
X215132000Y-136326000D01*
X215132000Y-136326000D02*
X215132000Y-133166000D01*
X206192000Y-133166000D02*
X215132000Y-133166000D01*
X215132000Y-133166000D02*
X215132000Y-136326000D01*
X215132000Y-136326000D02*
X206192000Y-136326000D01*
X206192000Y-136326000D02*
X206192000Y-133166000D01*
X197252000Y-133166000D02*
X206192000Y-133166000D01*
X206192000Y-133166000D02*
X206192000Y-136326000D01*
X206192000Y-136326000D02*
X197252000Y-136326000D01*
X197252000Y-136326000D02*
X197252000Y-133166000D01*
X188312000Y-133166000D02*
X197252000Y-133166000D01*
X197252000Y-133166000D02*
X197252000Y-136326000D01*
X197252000Y-136326000D02*
X188312000Y-136326000D01*
X188312000Y-136326000D02*
X188312000Y-133166000D01*
X179372000Y-133166000D02*
X188312000Y-133166000D01*
X188312000Y-133166000D02*
X188312000Y-136326000D01*
X188312000Y-136326000D02*
X179372000Y-136326000D01*
X179372000Y-136326000D02*
X179372000Y-133166000D01*
X170432000Y-133166000D02*
X179372000Y-133166000D01*
X179372000Y-133166000D02*
X179372000Y-136326000D01*
X179372000Y-136326000D02*
X170432000Y-136326000D01*
X170432000Y-136326000D02*
X170432000Y-133166000D01*
X161492000Y-133166000D02*
X170432000Y-133166000D01*
X170432000Y-133166000D02*
X170432000Y-136326000D01*
X170432000Y-136326000D02*
X161492000Y-136326000D01*
X161492000Y-136326000D02*
X161492000Y-133166000D01*
X152552000Y-133166000D02*
X161492000Y-133166000D01*
X161492000Y-133166000D02*
X161492000Y-136326000D01*
X161492000Y-136326000D02*
X152552000Y-136326000D01*
X152552000Y-136326000D02*
X152552000Y-133166000D01*
X143612000Y-133166000D02*
X152552000Y-133166000D01*
X152552000Y-133166000D02*
X152552000Y-136326000D01*
X152552000Y-136326000D02*
X143612000Y-136326000D01*
X143612000Y-136326000D02*
X143612000Y-133166000D01*
X224072000Y-130006000D02*
X233012000Y-130006000D01*
X233012000Y-130006000D02*
X233012000Y-133166000D01*
X233012000Y-133166000D02*
X224072000Y-133166000D01*
X224072000Y-133166000D02*
X224072000Y-130006000D01*
X215132000Y-130006000D02*
X224072000Y-130006000D01*
X224072000Y-130006000D02*
X224072000Y-133166000D01*
X224072000Y-133166000D02*
X215132000Y-133166000D01*
X215132000Y-133166000D02*
X215132000Y-130006000D01*
X206192000Y-130006000D02*
X215132000Y-130006000D01*
X215132000Y-130006000D02*
X215132000Y-133166000D01*
X215132000Y-133166000D02*
X206192000Y-133166000D01*
X206192000Y-133166000D02*
X206192000Y-130006000D01*
X197252000Y-130006000D02*
X206192000Y-130006000D01*
X206192000Y-130006000D02*
X206192000Y-133166000D01*
X206192000Y-133166000D02*
X197252000Y-133166000D01*
X197252000Y-133166000D02*
X197252000Y-130006000D01*
X188312000Y-130006000D02*
X197252000Y-130006000D01*
X197252000Y-130006000D02*
X197252000Y-133166000D01*
X197252000Y-133166000D02*
X188312000Y-133166000D01*
X188312000Y-133166000D02*
X188312000Y-130006000D01*
X179372000Y-130006000D02*
X188312000Y-130006000D01*
X188312000Y-130006000D02*
X188312000Y-133166000D01*
X188312000Y-133166000D02*
X179372000Y-133166000D01*
X179372000Y-133166000D02*
X179372000Y-130006000D01*
X170432000Y-130006000D02*
X179372000Y-130006000D01*
X179372000Y-130006000D02*
X179372000Y-133166000D01*
X179372000Y-133166000D02*
X170432000Y-133166000D01*
X170432000Y-133166000D02*
X170432000Y-130006000D01*
X161492000Y-130006000D02*
X170432000Y-130006000D01*
X170432000Y-130006000D02*
X170432000Y-133166000D01*
X170432000Y-133166000D02*
X161492000Y-133166000D01*
X161492000Y-133166000D02*
X161492000Y-130006000D01*
X152552000Y-130006000D02*
X161492000Y-130006000D01*
X161492000Y-130006000D02*
X161492000Y-133166000D01*
X161492000Y-133166000D02*
X152552000Y-133166000D01*
X152552000Y-133166000D02*
X152552000Y-130006000D01*
X143612000Y-130006000D02*
X152552000Y-130006000D01*
X152552000Y-130006000D02*
X152552000Y-133166000D01*
X152552000Y-133166000D02*
X143612000Y-133166000D01*
X143612000Y-133166000D02*
X143612000Y-130006000D01*
X224072000Y-126846000D02*
X233012000Y-126846000D01*
X233012000Y-126846000D02*
X233012000Y-130006000D01*
X233012000Y-130006000D02*
X224072000Y-130006000D01*
X224072000Y-130006000D02*
X224072000Y-126846000D01*
X215132000Y-126846000D02*
X224072000Y-126846000D01*
X224072000Y-126846000D02*
X224072000Y-130006000D01*
X224072000Y-130006000D02*
X215132000Y-130006000D01*
X215132000Y-130006000D02*
X215132000Y-126846000D01*
X206192000Y-126846000D02*
X215132000Y-126846000D01*
X215132000Y-126846000D02*
X215132000Y-130006000D01*
X215132000Y-130006000D02*
X206192000Y-130006000D01*
X206192000Y-130006000D02*
X206192000Y-126846000D01*
X197252000Y-126846000D02*
X206192000Y-126846000D01*
X206192000Y-126846000D02*
X206192000Y-130006000D01*
X206192000Y-130006000D02*
X197252000Y-130006000D01*
X197252000Y-130006000D02*
X197252000Y-126846000D01*
X188312000Y-126846000D02*
X197252000Y-126846000D01*
X197252000Y-126846000D02*
X197252000Y-130006000D01*
X197252000Y-130006000D02*
X188312000Y-130006000D01*
X188312000Y-130006000D02*
X188312000Y-126846000D01*
X179372000Y-126846000D02*
X188312000Y-126846000D01*
X188312000Y-126846000D02*
X188312000Y-130006000D01*
X188312000Y-130006000D02*
X179372000Y-130006000D01*
X179372000Y-130006000D02*
X179372000Y-126846000D01*
X170432000Y-126846000D02*
X179372000Y-126846000D01*
X179372000Y-126846000D02*
X179372000Y-130006000D01*
X179372000Y-130006000D02*
X170432000Y-130006000D01*
X170432000Y-130006000D02*
X170432000Y-126846000D01*
X161492000Y-126846000D02*
X170432000Y-126846000D01*
X170432000Y-126846000D02*
X170432000Y-130006000D01*
X170432000Y-130006000D02*
X161492000Y-130006000D01*
X161492000Y-130006000D02*
X161492000Y-126846000D01*
X152552000Y-126846000D02*
X161492000Y-126846000D01*
X161492000Y-126846000D02*
X161492000Y-130006000D01*
X161492000Y-130006000D02*
X152552000Y-130006000D01*
X152552000Y-130006000D02*
X152552000Y-126846000D01*
X143612000Y-126846000D02*
X152552000Y-126846000D01*
X152552000Y-126846000D02*
X152552000Y-130006000D01*
X152552000Y-130006000D02*
X143612000Y-130006000D01*
X143612000Y-130006000D02*
X143612000Y-126846000D01*
X224072000Y-123686000D02*
X233012000Y-123686000D01*
X233012000Y-123686000D02*
X233012000Y-126846000D01*
X233012000Y-126846000D02*
X224072000Y-126846000D01*
X224072000Y-126846000D02*
X224072000Y-123686000D01*
X215132000Y-123686000D02*
X224072000Y-123686000D01*
X224072000Y-123686000D02*
X224072000Y-126846000D01*
X224072000Y-126846000D02*
X215132000Y-126846000D01*
X215132000Y-126846000D02*
X215132000Y-123686000D01*
X206192000Y-123686000D02*
X215132000Y-123686000D01*
X215132000Y-123686000D02*
X215132000Y-126846000D01*
X215132000Y-126846000D02*
X206192000Y-126846000D01*
X206192000Y-126846000D02*
X206192000Y-123686000D01*
X197252000Y-123686000D02*
X206192000Y-123686000D01*
X206192000Y-123686000D02*
X206192000Y-126846000D01*
X206192000Y-126846000D02*
X197252000Y-126846000D01*
X197252000Y-126846000D02*
X197252000Y-123686000D01*
X188312000Y-123686000D02*
X197252000Y-123686000D01*
X197252000Y-123686000D02*
X197252000Y-126846000D01*
X197252000Y-126846000D02*
X188312000Y-126846000D01*
X188312000Y-126846000D02*
X188312000Y-123686000D01*
X179372000Y-123686000D02*
X188312000Y-123686000D01*
X188312000Y-123686000D02*
X188312000Y-126846000D01*
X188312000Y-126846000D02*
X179372000Y-126846000D01*
X179372000Y-126846000D02*
X179372000Y-123686000D01*
X170432000Y-123686000D02*
X179372000Y-123686000D01*
X179372000Y-123686000D02*
X179372000Y-126846000D01*
X179372000Y-126846000D02*
X170432000Y-126846000D01*
X170432000Y-126846000D02*
X170432000Y-123686000D01*
X161492000Y-123686000D02*
X170432000Y-123686000D01*
X170432000Y-123686000D02*
X170432000Y-126846000D01*
X170432000Y-126846000D02*
X161492000Y-126846000D01*
X161492000Y-126846000D02*
X161492000Y-123686000D01*
X152552000Y-123686000D02*
X161492000Y-123686000D01*
X161492000Y-123686000D02*
X161492000Y-126846000D01*
X161492000Y-126846000D02*
X152552000Y-126846000D01*
X152552000Y-126846000D02*
X152552000Y-123686000D01*
X143612000Y-123686000D02*
X152552000Y-123686000D01*
X152552000Y-123686000D02*
X152552000Y-126846000D01*
X152552000Y-126846000D02*
X143612000Y-126846000D01*
X143612000Y-126846000D02*
X143612000Y-123686000D01*
X224072000Y-120526000D02*
X233012000Y-120526000D01*
X233012000Y-120526000D02*
X233012000Y-123686000D01*
X233012000Y-123686000D02*
X224072000Y-123686000D01*
X224072000Y-123686000D02*
X224072000Y-120526000D01*
X215132000Y-120526000D02*
X224072000Y-120526000D01*
X224072000Y-120526000D02*
X224072000Y-123686000D01*
X224072000Y-123686000D02*
X215132000Y-123686000D01*
X215132000Y-123686000D02*
X215132000Y-120526000D01*
X206192000Y-120526000D02*
X215132000Y-120526000D01*
X215132000Y-120526000D02*
X215132000Y-123686000D01*
X215132000Y-123686000D02*
X206192000Y-123686000D01*
X206192000Y-123686000D02*
X206192000Y-120526000D01*
X197252000Y-120526000D02*
X206192000Y-120526000D01*
X206192000Y-120526000D02*
X206192000Y-123686000D01*
X206192000Y-123686000D02*
X197252000Y-123686000D01*
X197252000Y-123686000D02*
X197252000Y-120526000D01*
X188312000Y-120526000D02*
X197252000Y-120526000D01*
X197252000Y-120526000D02*
X197252000Y-123686000D01*
X197252000Y-123686000D02*
X188312000Y-123686000D01*
X188312000Y-123686000D02*
X188312000Y-120526000D01*
X179372000Y-120526000D02*
X188312000Y-120526000D01*
X188312000Y-120526000D02*
X188312000Y-123686000D01*
X188312000Y-123686000D02*
X179372000Y-123686000D01*
X179372000Y-123686000D02*
X179372000Y-120526000D01*
X170432000Y-120526000D02*
X179372000Y-120526000D01*
X179372000Y-120526000D02*
X179372000Y-123686000D01*
X179372000Y-123686000D02*
X170432000Y-123686000D01*
X170432000Y-123686000D02*
X170432000Y-120526000D01*
X161492000Y-120526000D02*
X170432000Y-120526000D01*
X170432000Y-120526000D02*
X170432000Y-123686000D01*
X170432000Y-123686000D02*
X161492000Y-123686000D01*
X161492000Y-123686000D02*
X161492000Y-120526000D01*
X152552000Y-120526000D02*
X161492000Y-120526000D01*
X161492000Y-120526000D02*
X161492000Y-123686000D01*
X161492000Y-123686000D02*
X152552000Y-123686000D01*
X152552000Y-123686000D02*
X152552000Y-120526000D01*
X143612000Y-120526000D02*
X152552000Y-120526000D01*
X152552000Y-120526000D02*
X152552000Y-123686000D01*
X152552000Y-123686000D02*
X143612000Y-123686000D01*
X143612000Y-123686000D02*
X143612000Y-120526000D01*
X224072000Y-117366000D02*
X233012000Y-117366000D01*
X233012000Y-117366000D02*
X233012000Y-120526000D01*
X233012000Y-120526000D02*
X224072000Y-120526000D01*
X224072000Y-120526000D02*
X224072000Y-117366000D01*
X215132000Y-117366000D02*
X224072000Y-117366000D01*
X224072000Y-117366000D02*
X224072000Y-120526000D01*
X224072000Y-120526000D02*
X215132000Y-120526000D01*
X215132000Y-120526000D02*
X215132000Y-117366000D01*
X206192000Y-117366000D02*
X215132000Y-117366000D01*
X215132000Y-117366000D02*
X215132000Y-120526000D01*
X215132000Y-120526000D02*
X206192000Y-120526000D01*
X206192000Y-120526000D02*
X206192000Y-117366000D01*
X197252000Y-117366000D02*
X206192000Y-117366000D01*
X206192000Y-117366000D02*
X206192000Y-120526000D01*
X206192000Y-120526000D02*
X197252000Y-120526000D01*
X197252000Y-120526000D02*
X197252000Y-117366000D01*
X188312000Y-117366000D02*
X197252000Y-117366000D01*
X197252000Y-117366000D02*
X197252000Y-120526000D01*
X197252000Y-120526000D02*
X188312000Y-120526000D01*
X188312000Y-120526000D02*
X188312000Y-117366000D01*
X179372000Y-117366000D02*
X188312000Y-117366000D01*
X188312000Y-117366000D02*
X188312000Y-120526000D01*
X188312000Y-120526000D02*
X179372000Y-120526000D01*
X179372000Y-120526000D02*
X179372000Y-117366000D01*
X170432000Y-117366000D02*
X179372000Y-117366000D01*
X179372000Y-117366000D02*
X179372000Y-120526000D01*
X179372000Y-120526000D02*
X170432000Y-120526000D01*
X170432000Y-120526000D02*
X170432000Y-117366000D01*
X161492000Y-117366000D02*
X170432000Y-117366000D01*
X170432000Y-117366000D02*
X170432000Y-120526000D01*
X170432000Y-120526000D02*
X161492000Y-120526000D01*
X161492000Y-120526000D02*
X161492000Y-117366000D01*
X152552000Y-117366000D02*
X161492000Y-117366000D01*
X161492000Y-117366000D02*
X161492000Y-120526000D01*
X161492000Y-120526000D02*
X152552000Y-120526000D01*
X152552000Y-120526000D02*
X152552000Y-117366000D01*
X143612000Y-117366000D02*
X152552000Y-117366000D01*
X152552000Y-117366000D02*
X152552000Y-120526000D01*
X152552000Y-120526000D02*
X143612000Y-120526000D01*
X143612000Y-120526000D02*
X143612000Y-117366000D01*
X224072000Y-114206000D02*
X233012000Y-114206000D01*
X233012000Y-114206000D02*
X233012000Y-117366000D01*
X233012000Y-117366000D02*
X224072000Y-117366000D01*
X224072000Y-117366000D02*
X224072000Y-114206000D01*
X215132000Y-114206000D02*
X224072000Y-114206000D01*
X224072000Y-114206000D02*
X224072000Y-117366000D01*
X224072000Y-117366000D02*
X215132000Y-117366000D01*
X215132000Y-117366000D02*
X215132000Y-114206000D01*
X206192000Y-114206000D02*
X215132000Y-114206000D01*
X215132000Y-114206000D02*
X215132000Y-117366000D01*
X215132000Y-117366000D02*
X206192000Y-117366000D01*
X206192000Y-117366000D02*
X206192000Y-114206000D01*
X197252000Y-114206000D02*
X206192000Y-114206000D01*
X206192000Y-114206000D02*
X206192000Y-117366000D01*
X206192000Y-117366000D02*
X197252000Y-117366000D01*
X197252000Y-117366000D02*
X197252000Y-114206000D01*
X188312000Y-114206000D02*
X197252000Y-114206000D01*
X197252000Y-114206000D02*
X197252000Y-117366000D01*
X197252000Y-117366000D02*
X188312000Y-117366000D01*
X188312000Y-117366000D02*
X188312000Y-114206000D01*
X179372000Y-114206000D02*
X188312000Y-114206000D01*
X188312000Y-114206000D02*
X188312000Y-117366000D01*
X188312000Y-117366000D02*
X179372000Y-117366000D01*
X179372000Y-117366000D02*
X179372000Y-114206000D01*
X170432000Y-114206000D02*
X179372000Y-114206000D01*
X179372000Y-114206000D02*
X179372000Y-117366000D01*
X179372000Y-117366000D02*
X170432000Y-117366000D01*
X170432000Y-117366000D02*
X170432000Y-114206000D01*
X161492000Y-114206000D02*
X170432000Y-114206000D01*
X170432000Y-114206000D02*
X170432000Y-117366000D01*
X170432000Y-117366000D02*
X161492000Y-117366000D01*
X161492000Y-117366000D02*
X161492000Y-114206000D01*
X152552000Y-114206000D02*
X161492000Y-114206000D01*
X161492000Y-114206000D02*
X161492000Y-117366000D01*
X161492000Y-117366000D02*
X152552000Y-117366000D01*
X152552000Y-117366000D02*
X152552000Y-114206000D01*
X143612000Y-114206000D02*
X152552000Y-114206000D01*
X152552000Y-114206000D02*
X152552000Y-117366000D01*
X152552000Y-117366000D02*
X143612000Y-117366000D01*
X143612000Y-117366000D02*
X143612000Y-114206000D01*
X224072000Y-111046000D02*
X233012000Y-111046000D01*
X233012000Y-111046000D02*
X233012000Y-114206000D01*
X233012000Y-114206000D02*
X224072000Y-114206000D01*
X224072000Y-114206000D02*
X224072000Y-111046000D01*
X215132000Y-111046000D02*
X224072000Y-111046000D01*
X224072000Y-111046000D02*
X224072000Y-114206000D01*
X224072000Y-114206000D02*
X215132000Y-114206000D01*
X215132000Y-114206000D02*
X215132000Y-111046000D01*
X206192000Y-111046000D02*
X215132000Y-111046000D01*
X215132000Y-111046000D02*
X215132000Y-114206000D01*
X215132000Y-114206000D02*
X206192000Y-114206000D01*
X206192000Y-114206000D02*
X206192000Y-111046000D01*
X197252000Y-111046000D02*
X206192000Y-111046000D01*
X206192000Y-111046000D02*
X206192000Y-114206000D01*
X206192000Y-114206000D02*
X197252000Y-114206000D01*
X197252000Y-114206000D02*
X197252000Y-111046000D01*
X188312000Y-111046000D02*
X197252000Y-111046000D01*
X197252000Y-111046000D02*
X197252000Y-114206000D01*
X197252000Y-114206000D02*
X188312000Y-114206000D01*
X188312000Y-114206000D02*
X188312000Y-111046000D01*
X179372000Y-111046000D02*
X188312000Y-111046000D01*
X188312000Y-111046000D02*
X188312000Y-114206000D01*
X188312000Y-114206000D02*
X179372000Y-114206000D01*
X179372000Y-114206000D02*
X179372000Y-111046000D01*
X170432000Y-111046000D02*
X179372000Y-111046000D01*
X179372000Y-111046000D02*
X179372000Y-114206000D01*
X179372000Y-114206000D02*
X170432000Y-114206000D01*
X170432000Y-114206000D02*
X170432000Y-111046000D01*
X161492000Y-111046000D02*
X170432000Y-111046000D01*
X170432000Y-111046000D02*
X170432000Y-114206000D01*
X170432000Y-114206000D02*
X161492000Y-114206000D01*
X161492000Y-114206000D02*
X161492000Y-111046000D01*
X152552000Y-111046000D02*
X161492000Y-111046000D01*
X161492000Y-111046000D02*
X161492000Y-114206000D01*
X161492000Y-114206000D02*
X152552000Y-114206000D01*
X152552000Y-114206000D02*
X152552000Y-111046000D01*
X143612000Y-111046000D02*
X152552000Y-111046000D01*
X152552000Y-111046000D02*
X152552000Y-114206000D01*
X152552000Y-114206000D02*
X143612000Y-114206000D01*
X143612000Y-114206000D02*
X143612000Y-111046000D01*
X224072000Y-107886000D02*
X233012000Y-107886000D01*
X233012000Y-107886000D02*
X233012000Y-111046000D01*
X233012000Y-111046000D02*
X224072000Y-111046000D01*
X224072000Y-111046000D02*
X224072000Y-107886000D01*
X215132000Y-107886000D02*
X224072000Y-107886000D01*
X224072000Y-107886000D02*
X224072000Y-111046000D01*
X224072000Y-111046000D02*
X215132000Y-111046000D01*
X215132000Y-111046000D02*
X215132000Y-107886000D01*
X206192000Y-107886000D02*
X215132000Y-107886000D01*
X215132000Y-107886000D02*
X215132000Y-111046000D01*
X215132000Y-111046000D02*
X206192000Y-111046000D01*
X206192000Y-111046000D02*
X206192000Y-107886000D01*
X197252000Y-107886000D02*
X206192000Y-107886000D01*
X206192000Y-107886000D02*
X206192000Y-111046000D01*
X206192000Y-111046000D02*
X197252000Y-111046000D01*
X197252000Y-111046000D02*
X197252000Y-107886000D01*
X188312000Y-107886000D02*
X197252000Y-107886000D01*
X197252000Y-107886000D02*
X197252000Y-111046000D01*
X197252000Y-111046000D02*
X188312000Y-111046000D01*
X188312000Y-111046000D02*
X188312000Y-107886000D01*
X179372000Y-107886000D02*
X188312000Y-107886000D01*
X188312000Y-107886000D02*
X188312000Y-111046000D01*
X188312000Y-111046000D02*
X179372000Y-111046000D01*
X179372000Y-111046000D02*
X179372000Y-107886000D01*
X170432000Y-107886000D02*
X179372000Y-107886000D01*
X179372000Y-107886000D02*
X179372000Y-111046000D01*
X179372000Y-111046000D02*
X170432000Y-111046000D01*
X170432000Y-111046000D02*
X170432000Y-107886000D01*
X161492000Y-107886000D02*
X170432000Y-107886000D01*
X170432000Y-107886000D02*
X170432000Y-111046000D01*
X170432000Y-111046000D02*
X161492000Y-111046000D01*
X161492000Y-111046000D02*
X161492000Y-107886000D01*
X152552000Y-107886000D02*
X161492000Y-107886000D01*
X161492000Y-107886000D02*
X161492000Y-111046000D01*
X161492000Y-111046000D02*
X152552000Y-111046000D01*
X152552000Y-111046000D02*
X152552000Y-107886000D01*
X143612000Y-107886000D02*
X152552000Y-107886000D01*
X152552000Y-107886000D02*
X152552000Y-111046000D01*
X152552000Y-111046000D02*
X143612000Y-111046000D01*
X143612000Y-111046000D02*
X143612000Y-107886000D01*
X224072000Y-104726000D02*
X233012000Y-104726000D01*
X233012000Y-104726000D02*
X233012000Y-107886000D01*
X233012000Y-107886000D02*
X224072000Y-107886000D01*
X224072000Y-107886000D02*
X224072000Y-104726000D01*
X215132000Y-104726000D02*
X224072000Y-104726000D01*
X224072000Y-104726000D02*
X224072000Y-107886000D01*
X224072000Y-107886000D02*
X215132000Y-107886000D01*
X215132000Y-107886000D02*
X215132000Y-104726000D01*
X206192000Y-104726000D02*
X215132000Y-104726000D01*
X215132000Y-104726000D02*
X215132000Y-107886000D01*
X215132000Y-107886000D02*
X206192000Y-107886000D01*
X206192000Y-107886000D02*
X206192000Y-104726000D01*
X197252000Y-104726000D02*
X206192000Y-104726000D01*
X206192000Y-104726000D02*
X206192000Y-107886000D01*
X206192000Y-107886000D02*
X197252000Y-107886000D01*
X197252000Y-107886000D02*
X197252000Y-104726000D01*
X188312000Y-104726000D02*
X197252000Y-104726000D01*
X197252000Y-104726000D02*
X197252000Y-107886000D01*
X197252000Y-107886000D02*
X188312000Y-107886000D01*
X188312000Y-107886000D02*
X188312000Y-104726000D01*
X179372000Y-104726000D02*
X188312000Y-104726000D01*
X188312000Y-104726000D02*
X188312000Y-107886000D01*
X188312000Y-107886000D02*
X179372000Y-107886000D01*
X179372000Y-107886000D02*
X179372000Y-104726000D01*
X170432000Y-104726000D02*
X179372000Y-104726000D01*
X179372000Y-104726000D02*
X179372000Y-107886000D01*
X179372000Y-107886000D02*
X170432000Y-107886000D01*
X170432000Y-107886000D02*
X170432000Y-104726000D01*
X161492000Y-104726000D02*
X170432000Y-104726000D01*
X170432000Y-104726000D02*
X170432000Y-107886000D01*
X170432000Y-107886000D02*
X161492000Y-107886000D01*
X161492000Y-107886000D02*
X161492000Y-104726000D01*
X152552000Y-104726000D02*
X161492000Y-104726000D01*
X161492000Y-104726000D02*
X161492000Y-107886000D01*
X161492000Y-107886000D02*
X152552000Y-107886000D01*
X152552000Y-107886000D02*
X152552000Y-104726000D01*
X143612000Y-104726000D02*
X152552000Y-104726000D01*
X152552000Y-104726000D02*
X152552000Y-107886000D01*
X152552000Y-107886000D02*
X143612000Y-107886000D01*
X143612000Y-107886000D02*
X143612000Y-104726000D01*
X224072000Y-101566000D02*
X233012000Y-101566000D01*
X233012000Y-101566000D02*
X233012000Y-104726000D01*
X233012000Y-104726000D02*
X224072000Y-104726000D01*
X224072000Y-104726000D02*
X224072000Y-101566000D01*
X215132000Y-101566000D02*
X224072000Y-101566000D01*
X224072000Y-101566000D02*
X224072000Y-104726000D01*
X224072000Y-104726000D02*
X215132000Y-104726000D01*
X215132000Y-104726000D02*
X215132000Y-101566000D01*
X206192000Y-101566000D02*
X215132000Y-101566000D01*
X215132000Y-101566000D02*
X215132000Y-104726000D01*
X215132000Y-104726000D02*
X206192000Y-104726000D01*
X206192000Y-104726000D02*
X206192000Y-101566000D01*
X197252000Y-101566000D02*
X206192000Y-101566000D01*
X206192000Y-101566000D02*
X206192000Y-104726000D01*
X206192000Y-104726000D02*
X197252000Y-104726000D01*
X197252000Y-104726000D02*
X197252000Y-101566000D01*
X188312000Y-101566000D02*
X197252000Y-101566000D01*
X197252000Y-101566000D02*
X197252000Y-104726000D01*
X197252000Y-104726000D02*
X188312000Y-104726000D01*
X188312000Y-104726000D02*
X188312000Y-101566000D01*
X179372000Y-101566000D02*
X188312000Y-101566000D01*
X188312000Y-101566000D02*
X188312000Y-104726000D01*
X188312000Y-104726000D02*
X179372000Y-104726000D01*
X179372000Y-104726000D02*
X179372000Y-101566000D01*
X170432000Y-101566000D02*
X179372000Y-101566000D01*
X179372000Y-101566000D02*
X179372000Y-104726000D01*
X179372000Y-104726000D02*
X170432000Y-104726000D01*
X170432000Y-104726000D02*
X170432000Y-101566000D01*
X161492000Y-101566000D02*
X170432000Y-101566000D01*
X170432000Y-101566000D02*
X170432000Y-104726000D01*
X170432000Y-104726000D02*
X161492000Y-104726000D01*
X161492000Y-104726000D02*
X161492000Y-101566000D01*
X152552000Y-101566000D02*
X161492000Y-101566000D01*
X161492000Y-101566000D02*
X161492000Y-104726000D01*
X161492000Y-104726000D02*
X152552000Y-104726000D01*
X152552000Y-104726000D02*
X152552000Y-101566000D01*
X143612000Y-101566000D02*
X152552000Y-101566000D01*
X152552000Y-101566000D02*
X152552000Y-104726000D01*
X152552000Y-104726000D02*
X143612000Y-104726000D01*
X143612000Y-104726000D02*
X143612000Y-101566000D01*
X224072000Y-98406000D02*
X233012000Y-98406000D01*
X233012000Y-98406000D02*
X233012000Y-101566000D01*
X233012000Y-101566000D02*
X224072000Y-101566000D01*
X224072000Y-101566000D02*
X224072000Y-98406000D01*
X215132000Y-98406000D02*
X224072000Y-98406000D01*
X224072000Y-98406000D02*
X224072000Y-101566000D01*
X224072000Y-101566000D02*
X215132000Y-101566000D01*
X215132000Y-101566000D02*
X215132000Y-98406000D01*
X206192000Y-98406000D02*
X215132000Y-98406000D01*
X215132000Y-98406000D02*
X215132000Y-101566000D01*
X215132000Y-101566000D02*
X206192000Y-101566000D01*
X206192000Y-101566000D02*
X206192000Y-98406000D01*
X197252000Y-98406000D02*
X206192000Y-98406000D01*
X206192000Y-98406000D02*
X206192000Y-101566000D01*
X206192000Y-101566000D02*
X197252000Y-101566000D01*
X197252000Y-101566000D02*
X197252000Y-98406000D01*
X188312000Y-98406000D02*
X197252000Y-98406000D01*
X197252000Y-98406000D02*
X197252000Y-101566000D01*
X197252000Y-101566000D02*
X188312000Y-101566000D01*
X188312000Y-101566000D02*
X188312000Y-98406000D01*
X179372000Y-98406000D02*
X188312000Y-98406000D01*
X188312000Y-98406000D02*
X188312000Y-101566000D01*
X188312000Y-101566000D02*
X179372000Y-101566000D01*
X179372000Y-101566000D02*
X179372000Y-98406000D01*
X170432000Y-98406000D02*
X179372000Y-98406000D01*
X179372000Y-98406000D02*
X179372000Y-101566000D01*
X179372000Y-101566000D02*
X170432000Y-101566000D01*
X170432000Y-101566000D02*
X170432000Y-98406000D01*
X161492000Y-98406000D02*
X170432000Y-98406000D01*
X170432000Y-98406000D02*
X170432000Y-101566000D01*
X170432000Y-101566000D02*
X161492000Y-101566000D01*
X161492000Y-101566000D02*
X161492000Y-98406000D01*
X152552000Y-98406000D02*
X161492000Y-98406000D01*
X161492000Y-98406000D02*
X161492000Y-101566000D01*
X161492000Y-101566000D02*
X152552000Y-101566000D01*
X152552000Y-101566000D02*
X152552000Y-98406000D01*
X143612000Y-98406000D02*
X152552000Y-98406000D01*
X152552000Y-98406000D02*
X152552000Y-101566000D01*
X152552000Y-101566000D02*
X143612000Y-101566000D01*
X143612000Y-101566000D02*
X143612000Y-98406000D01*
X224072000Y-95246000D02*
X233012000Y-95246000D01*
X233012000Y-95246000D02*
X233012000Y-98406000D01*
X233012000Y-98406000D02*
X224072000Y-98406000D01*
X224072000Y-98406000D02*
X224072000Y-95246000D01*
X215132000Y-95246000D02*
X224072000Y-95246000D01*
X224072000Y-95246000D02*
X224072000Y-98406000D01*
X224072000Y-98406000D02*
X215132000Y-98406000D01*
X215132000Y-98406000D02*
X215132000Y-95246000D01*
X206192000Y-95246000D02*
X215132000Y-95246000D01*
X215132000Y-95246000D02*
X215132000Y-98406000D01*
X215132000Y-98406000D02*
X206192000Y-98406000D01*
X206192000Y-98406000D02*
X206192000Y-95246000D01*
X197252000Y-95246000D02*
X206192000Y-95246000D01*
X206192000Y-95246000D02*
X206192000Y-98406000D01*
X206192000Y-98406000D02*
X197252000Y-98406000D01*
X197252000Y-98406000D02*
X197252000Y-95246000D01*
X188312000Y-95246000D02*
X197252000Y-95246000D01*
X197252000Y-95246000D02*
X197252000Y-98406000D01*
X197252000Y-98406000D02*
X188312000Y-98406000D01*
X188312000Y-98406000D02*
X188312000Y-95246000D01*
X179372000Y-95246000D02*
X188312000Y-95246000D01*
X188312000Y-95246000D02*
X188312000Y-98406000D01*
X188312000Y-98406000D02*
X179372000Y-98406000D01*
X179372000Y-98406000D02*
X179372000Y-95246000D01*
X170432000Y-95246000D02*
X179372000Y-95246000D01*
X179372000Y-95246000D02*
X179372000Y-98406000D01*
X179372000Y-98406000D02*
X170432000Y-98406000D01*
X170432000Y-98406000D02*
X170432000Y-95246000D01*
X161492000Y-95246000D02*
X170432000Y-95246000D01*
X170432000Y-95246000D02*
X170432000Y-98406000D01*
X170432000Y-98406000D02*
X161492000Y-98406000D01*
X161492000Y-98406000D02*
X161492000Y-95246000D01*
X152552000Y-95246000D02*
X161492000Y-95246000D01*
X161492000Y-95246000D02*
X161492000Y-98406000D01*
X161492000Y-98406000D02*
X152552000Y-98406000D01*
X152552000Y-98406000D02*
X152552000Y-95246000D01*
X143612000Y-95246000D02*
X152552000Y-95246000D01*
X152552000Y-95246000D02*
X152552000Y-98406000D01*
X152552000Y-98406000D02*
X143612000Y-98406000D01*
X143612000Y-98406000D02*
X143612000Y-95246000D01*
X224072000Y-92086000D02*
X233012000Y-92086000D01*
X233012000Y-92086000D02*
X233012000Y-95246000D01*
X233012000Y-95246000D02*
X224072000Y-95246000D01*
X224072000Y-95246000D02*
X224072000Y-92086000D01*
X215132000Y-92086000D02*
X224072000Y-92086000D01*
X224072000Y-92086000D02*
X224072000Y-95246000D01*
X224072000Y-95246000D02*
X215132000Y-95246000D01*
X215132000Y-95246000D02*
X215132000Y-92086000D01*
X206192000Y-92086000D02*
X215132000Y-92086000D01*
X215132000Y-92086000D02*
X215132000Y-95246000D01*
X215132000Y-95246000D02*
X206192000Y-95246000D01*
X206192000Y-95246000D02*
X206192000Y-92086000D01*
X197252000Y-92086000D02*
X206192000Y-92086000D01*
X206192000Y-92086000D02*
X206192000Y-95246000D01*
X206192000Y-95246000D02*
X197252000Y-95246000D01*
X197252000Y-95246000D02*
X197252000Y-92086000D01*
X188312000Y-92086000D02*
X197252000Y-92086000D01*
X197252000Y-92086000D02*
X197252000Y-95246000D01*
X197252000Y-95246000D02*
X188312000Y-95246000D01*
X188312000Y-95246000D02*
X188312000Y-92086000D01*
X179372000Y-92086000D02*
X188312000Y-92086000D01*
X188312000Y-92086000D02*
X188312000Y-95246000D01*
X188312000Y-95246000D02*
X179372000Y-95246000D01*
X179372000Y-95246000D02*
X179372000Y-92086000D01*
X170432000Y-92086000D02*
X179372000Y-92086000D01*
X179372000Y-92086000D02*
X179372000Y-95246000D01*
X179372000Y-95246000D02*
X170432000Y-95246000D01*
X170432000Y-95246000D02*
X170432000Y-92086000D01*
X161492000Y-92086000D02*
X170432000Y-92086000D01*
X170432000Y-92086000D02*
X170432000Y-95246000D01*
X170432000Y-95246000D02*
X161492000Y-95246000D01*
X161492000Y-95246000D02*
X161492000Y-92086000D01*
X152552000Y-92086000D02*
X161492000Y-92086000D01*
X161492000Y-92086000D02*
X161492000Y-95246000D01*
X161492000Y-95246000D02*
X152552000Y-95246000D01*
X152552000Y-95246000D02*
X152552000Y-92086000D01*
X143612000Y-92086000D02*
X152552000Y-92086000D01*
X152552000Y-92086000D02*
X152552000Y-95246000D01*
X152552000Y-95246000D02*
X143612000Y-95246000D01*
X143612000Y-95246000D02*
X143612000Y-92086000D01*
X224072000Y-88926000D02*
X233012000Y-88926000D01*
X233012000Y-88926000D02*
X233012000Y-92086000D01*
X233012000Y-92086000D02*
X224072000Y-92086000D01*
X224072000Y-92086000D02*
X224072000Y-88926000D01*
X215132000Y-88926000D02*
X224072000Y-88926000D01*
X224072000Y-88926000D02*
X224072000Y-92086000D01*
X224072000Y-92086000D02*
X215132000Y-92086000D01*
X215132000Y-92086000D02*
X215132000Y-88926000D01*
X206192000Y-88926000D02*
X215132000Y-88926000D01*
X215132000Y-88926000D02*
X215132000Y-92086000D01*
X215132000Y-92086000D02*
X206192000Y-92086000D01*
X206192000Y-92086000D02*
X206192000Y-88926000D01*
X197252000Y-88926000D02*
X206192000Y-88926000D01*
X206192000Y-88926000D02*
X206192000Y-92086000D01*
X206192000Y-92086000D02*
X197252000Y-92086000D01*
X197252000Y-92086000D02*
X197252000Y-88926000D01*
X188312000Y-88926000D02*
X197252000Y-88926000D01*
X197252000Y-88926000D02*
X197252000Y-92086000D01*
X197252000Y-92086000D02*
X188312000Y-92086000D01*
X188312000Y-92086000D02*
X188312000Y-88926000D01*
X179372000Y-88926000D02*
X188312000Y-88926000D01*
X188312000Y-88926000D02*
X188312000Y-92086000D01*
X188312000Y-92086000D02*
X179372000Y-92086000D01*
X179372000Y-92086000D02*
X179372000Y-88926000D01*
X170432000Y-88926000D02*
X179372000Y-88926000D01*
X179372000Y-88926000D02*
X179372000Y-92086000D01*
X179372000Y-92086000D02*
X170432000Y-92086000D01*
X170432000Y-92086000D02*
X170432000Y-88926000D01*
X161492000Y-88926000D02*
X170432000Y-88926000D01*
X170432000Y-88926000D02*
X170432000Y-92086000D01*
X170432000Y-92086000D02*
X161492000Y-92086000D01*
X161492000Y-92086000D02*
X161492000Y-88926000D01*
X152552000Y-88926000D02*
X161492000Y-88926000D01*
X161492000Y-88926000D02*
X161492000Y-92086000D01*
X161492000Y-92086000D02*
X152552000Y-92086000D01*
X152552000Y-92086000D02*
X152552000Y-88926000D01*
X143612000Y-88926000D02*
X152552000Y-88926000D01*
X152552000Y-88926000D02*
X152552000Y-92086000D01*
X152552000Y-92086000D02*
X143612000Y-92086000D01*
X143612000Y-92086000D02*
X143612000Y-88926000D01*
X224072000Y-85766000D02*
X233012000Y-85766000D01*
X233012000Y-85766000D02*
X233012000Y-88926000D01*
X233012000Y-88926000D02*
X224072000Y-88926000D01*
X224072000Y-88926000D02*
X224072000Y-85766000D01*
X215132000Y-85766000D02*
X224072000Y-85766000D01*
X224072000Y-85766000D02*
X224072000Y-88926000D01*
X224072000Y-88926000D02*
X215132000Y-88926000D01*
X215132000Y-88926000D02*
X215132000Y-85766000D01*
X206192000Y-85766000D02*
X215132000Y-85766000D01*
X215132000Y-85766000D02*
X215132000Y-88926000D01*
X215132000Y-88926000D02*
X206192000Y-88926000D01*
X206192000Y-88926000D02*
X206192000Y-85766000D01*
X197252000Y-85766000D02*
X206192000Y-85766000D01*
X206192000Y-85766000D02*
X206192000Y-88926000D01*
X206192000Y-88926000D02*
X197252000Y-88926000D01*
X197252000Y-88926000D02*
X197252000Y-85766000D01*
X188312000Y-85766000D02*
X197252000Y-85766000D01*
X197252000Y-85766000D02*
X197252000Y-88926000D01*
X197252000Y-88926000D02*
X188312000Y-88926000D01*
X188312000Y-88926000D02*
X188312000Y-85766000D01*
X179372000Y-85766000D02*
X188312000Y-85766000D01*
X188312000Y-85766000D02*
X188312000Y-88926000D01*
X188312000Y-88926000D02*
X179372000Y-88926000D01*
X179372000Y-88926000D02*
X179372000Y-85766000D01*
X170432000Y-85766000D02*
X179372000Y-85766000D01*
X179372000Y-85766000D02*
X179372000Y-88926000D01*
X179372000Y-88926000D02*
X170432000Y-88926000D01*
X170432000Y-88926000D02*
X170432000Y-85766000D01*
X161492000Y-85766000D02*
X170432000Y-85766000D01*
X170432000Y-85766000D02*
X170432000Y-88926000D01*
X170432000Y-88926000D02*
X161492000Y-88926000D01*
X161492000Y-88926000D02*
X161492000Y-85766000D01*
X152552000Y-85766000D02*
X161492000Y-85766000D01*
X161492000Y-85766000D02*
X161492000Y-88926000D01*
X161492000Y-88926000D02*
X152552000Y-88926000D01*
X152552000Y-88926000D02*
X152552000Y-85766000D01*
X143612000Y-85766000D02*
X152552000Y-85766000D01*
X152552000Y-85766000D02*
X152552000Y-88926000D01*
X152552000Y-88926000D02*
X143612000Y-88926000D01*
X143612000Y-88926000D02*
X143612000Y-85766000D01*
X224072000Y-82606000D02*
X233012000Y-82606000D01*
X233012000Y-82606000D02*
X233012000Y-85766000D01*
X233012000Y-85766000D02*
X224072000Y-85766000D01*
X224072000Y-85766000D02*
X224072000Y-82606000D01*
X215132000Y-82606000D02*
X224072000Y-82606000D01*
X224072000Y-82606000D02*
X224072000Y-85766000D01*
X224072000Y-85766000D02*
X215132000Y-85766000D01*
X215132000Y-85766000D02*
X215132000Y-82606000D01*
X206192000Y-82606000D02*
X215132000Y-82606000D01*
X215132000Y-82606000D02*
X215132000Y-85766000D01*
X215132000Y-85766000D02*
X206192000Y-85766000D01*
X206192000Y-85766000D02*
X206192000Y-82606000D01*
X197252000Y-82606000D02*
X206192000Y-82606000D01*
X206192000Y-82606000D02*
X206192000Y-85766000D01*
X206192000Y-85766000D02*
X197252000Y-85766000D01*
X197252000Y-85766000D02*
X197252000Y-82606000D01*
X188312000Y-82606000D02*
X197252000Y-82606000D01*
X197252000Y-82606000D02*
X197252000Y-85766000D01*
X197252000Y-85766000D02*
X188312000Y-85766000D01*
X188312000Y-85766000D02*
X188312000Y-82606000D01*
X179372000Y-82606000D02*
X188312000Y-82606000D01*
X188312000Y-82606000D02*
X188312000Y-85766000D01*
X188312000Y-85766000D02*
X179372000Y-85766000D01*
X179372000Y-85766000D02*
X179372000Y-82606000D01*
X170432000Y-82606000D02*
X179372000Y-82606000D01*
X179372000Y-82606000D02*
X179372000Y-85766000D01*
X179372000Y-85766000D02*
X170432000Y-85766000D01*
X170432000Y-85766000D02*
X170432000Y-82606000D01*
X161492000Y-82606000D02*
X170432000Y-82606000D01*
X170432000Y-82606000D02*
X170432000Y-85766000D01*
X170432000Y-85766000D02*
X161492000Y-85766000D01*
X161492000Y-85766000D02*
X161492000Y-82606000D01*
X152552000Y-82606000D02*
X161492000Y-82606000D01*
X161492000Y-82606000D02*
X161492000Y-85766000D01*
X161492000Y-85766000D02*
X152552000Y-85766000D01*
X152552000Y-85766000D02*
X152552000Y-82606000D01*
X143612000Y-82606000D02*
X152552000Y-82606000D01*
X152552000Y-82606000D02*
X152552000Y-85766000D01*
X152552000Y-85766000D02*
X143612000Y-85766000D01*
X143612000Y-85766000D02*
X143612000Y-82606000D01*
X224072000Y-79446000D02*
X233012000Y-79446000D01*
X233012000Y-79446000D02*
X233012000Y-82606000D01*
X233012000Y-82606000D02*
X224072000Y-82606000D01*
X224072000Y-82606000D02*
X224072000Y-79446000D01*
X215132000Y-79446000D02*
X224072000Y-79446000D01*
X224072000Y-79446000D02*
X224072000Y-82606000D01*
X224072000Y-82606000D02*
X215132000Y-82606000D01*
X215132000Y-82606000D02*
X215132000Y-79446000D01*
X206192000Y-79446000D02*
X215132000Y-79446000D01*
X215132000Y-79446000D02*
X215132000Y-82606000D01*
X215132000Y-82606000D02*
X206192000Y-82606000D01*
X206192000Y-82606000D02*
X206192000Y-79446000D01*
X197252000Y-79446000D02*
X206192000Y-79446000D01*
X206192000Y-79446000D02*
X206192000Y-82606000D01*
X206192000Y-82606000D02*
X197252000Y-82606000D01*
X197252000Y-82606000D02*
X197252000Y-79446000D01*
X188312000Y-79446000D02*
X197252000Y-79446000D01*
X197252000Y-79446000D02*
X197252000Y-82606000D01*
X197252000Y-82606000D02*
X188312000Y-82606000D01*
X188312000Y-82606000D02*
X188312000Y-79446000D01*
X179372000Y-79446000D02*
X188312000Y-79446000D01*
X188312000Y-79446000D02*
X188312000Y-82606000D01*
X188312000Y-82606000D02*
X179372000Y-82606000D01*
X179372000Y-82606000D02*
X179372000Y-79446000D01*
X170432000Y-79446000D02*
X179372000Y-79446000D01*
X179372000Y-79446000D02*
X179372000Y-82606000D01*
X179372000Y-82606000D02*
X170432000Y-82606000D01*
X170432000Y-82606000D02*
X170432000Y-79446000D01*
X161492000Y-79446000D02*
X170432000Y-79446000D01*
X170432000Y-79446000D02*
X170432000Y-82606000D01*
X170432000Y-82606000D02*
X161492000Y-82606000D01*
X161492000Y-82606000D02*
X161492000Y-79446000D01*
X152552000Y-79446000D02*
X161492000Y-79446000D01*
X161492000Y-79446000D02*
X161492000Y-82606000D01*
X161492000Y-82606000D02*
X152552000Y-82606000D01*
X152552000Y-82606000D02*
X152552000Y-79446000D01*
X143612000Y-79446000D02*
X152552000Y-79446000D01*
X152552000Y-79446000D02*
X152552000Y-82606000D01*
X152552000Y-82606000D02*
X143612000Y-82606000D01*
X143612000Y-82606000D02*
X143612000Y-79446000D01*
%TD*%
M02*
