%TF.GenerationSoftware,KiCad,Pcbnew,(6.0.7)*%
%TF.CreationDate,2023-04-05T23:06:48+08:00*%
%TF.ProjectId,MicroUSB2TypeC,4d696372-6f55-4534-9232-54797065432e,rev?*%
%TF.SameCoordinates,Original*%
%TF.FileFunction,Legend,Top*%
%TF.FilePolarity,Positive*%
%FSLAX46Y46*%
G04 Gerber Fmt 4.6, Leading zero omitted, Abs format (unit mm)*
G04 Created by KiCad (PCBNEW (6.0.7)) date 2023-04-05 23:06:48*
%MOMM*%
%LPD*%
G01*
G04 APERTURE LIST*
%ADD10C,0.150000*%
G04 APERTURE END LIST*
D10*
%TO.C,J1*%
X186336666Y-93222380D02*
X186336666Y-93936666D01*
X186289047Y-94079523D01*
X186193809Y-94174761D01*
X186050952Y-94222380D01*
X185955714Y-94222380D01*
X187336666Y-94222380D02*
X186765238Y-94222380D01*
X187050952Y-94222380D02*
X187050952Y-93222380D01*
X186955714Y-93365238D01*
X186860476Y-93460476D01*
X186765238Y-93508095D01*
X177396666Y-93222380D02*
X177396666Y-93936666D01*
X177349047Y-94079523D01*
X177253809Y-94174761D01*
X177110952Y-94222380D01*
X177015714Y-94222380D01*
X178396666Y-94222380D02*
X177825238Y-94222380D01*
X178110952Y-94222380D02*
X178110952Y-93222380D01*
X178015714Y-93365238D01*
X177920476Y-93460476D01*
X177825238Y-93508095D01*
X168456666Y-93222380D02*
X168456666Y-93936666D01*
X168409047Y-94079523D01*
X168313809Y-94174761D01*
X168170952Y-94222380D01*
X168075714Y-94222380D01*
X169456666Y-94222380D02*
X168885238Y-94222380D01*
X169170952Y-94222380D02*
X169170952Y-93222380D01*
X169075714Y-93365238D01*
X168980476Y-93460476D01*
X168885238Y-93508095D01*
X159516666Y-93222380D02*
X159516666Y-93936666D01*
X159469047Y-94079523D01*
X159373809Y-94174761D01*
X159230952Y-94222380D01*
X159135714Y-94222380D01*
X160516666Y-94222380D02*
X159945238Y-94222380D01*
X160230952Y-94222380D02*
X160230952Y-93222380D01*
X160135714Y-93365238D01*
X160040476Y-93460476D01*
X159945238Y-93508095D01*
X150576666Y-93222380D02*
X150576666Y-93936666D01*
X150529047Y-94079523D01*
X150433809Y-94174761D01*
X150290952Y-94222380D01*
X150195714Y-94222380D01*
X151576666Y-94222380D02*
X151005238Y-94222380D01*
X151290952Y-94222380D02*
X151290952Y-93222380D01*
X151195714Y-93365238D01*
X151100476Y-93460476D01*
X151005238Y-93508095D01*
X186336666Y-90062380D02*
X186336666Y-90776666D01*
X186289047Y-90919523D01*
X186193809Y-91014761D01*
X186050952Y-91062380D01*
X185955714Y-91062380D01*
X187336666Y-91062380D02*
X186765238Y-91062380D01*
X187050952Y-91062380D02*
X187050952Y-90062380D01*
X186955714Y-90205238D01*
X186860476Y-90300476D01*
X186765238Y-90348095D01*
X177396666Y-90062380D02*
X177396666Y-90776666D01*
X177349047Y-90919523D01*
X177253809Y-91014761D01*
X177110952Y-91062380D01*
X177015714Y-91062380D01*
X178396666Y-91062380D02*
X177825238Y-91062380D01*
X178110952Y-91062380D02*
X178110952Y-90062380D01*
X178015714Y-90205238D01*
X177920476Y-90300476D01*
X177825238Y-90348095D01*
X168456666Y-90062380D02*
X168456666Y-90776666D01*
X168409047Y-90919523D01*
X168313809Y-91014761D01*
X168170952Y-91062380D01*
X168075714Y-91062380D01*
X169456666Y-91062380D02*
X168885238Y-91062380D01*
X169170952Y-91062380D02*
X169170952Y-90062380D01*
X169075714Y-90205238D01*
X168980476Y-90300476D01*
X168885238Y-90348095D01*
X159516666Y-90062380D02*
X159516666Y-90776666D01*
X159469047Y-90919523D01*
X159373809Y-91014761D01*
X159230952Y-91062380D01*
X159135714Y-91062380D01*
X160516666Y-91062380D02*
X159945238Y-91062380D01*
X160230952Y-91062380D02*
X160230952Y-90062380D01*
X160135714Y-90205238D01*
X160040476Y-90300476D01*
X159945238Y-90348095D01*
X150576666Y-90062380D02*
X150576666Y-90776666D01*
X150529047Y-90919523D01*
X150433809Y-91014761D01*
X150290952Y-91062380D01*
X150195714Y-91062380D01*
X151576666Y-91062380D02*
X151005238Y-91062380D01*
X151290952Y-91062380D02*
X151290952Y-90062380D01*
X151195714Y-90205238D01*
X151100476Y-90300476D01*
X151005238Y-90348095D01*
X186336666Y-86902380D02*
X186336666Y-87616666D01*
X186289047Y-87759523D01*
X186193809Y-87854761D01*
X186050952Y-87902380D01*
X185955714Y-87902380D01*
X187336666Y-87902380D02*
X186765238Y-87902380D01*
X187050952Y-87902380D02*
X187050952Y-86902380D01*
X186955714Y-87045238D01*
X186860476Y-87140476D01*
X186765238Y-87188095D01*
X177396666Y-86902380D02*
X177396666Y-87616666D01*
X177349047Y-87759523D01*
X177253809Y-87854761D01*
X177110952Y-87902380D01*
X177015714Y-87902380D01*
X178396666Y-87902380D02*
X177825238Y-87902380D01*
X178110952Y-87902380D02*
X178110952Y-86902380D01*
X178015714Y-87045238D01*
X177920476Y-87140476D01*
X177825238Y-87188095D01*
X168456666Y-86902380D02*
X168456666Y-87616666D01*
X168409047Y-87759523D01*
X168313809Y-87854761D01*
X168170952Y-87902380D01*
X168075714Y-87902380D01*
X169456666Y-87902380D02*
X168885238Y-87902380D01*
X169170952Y-87902380D02*
X169170952Y-86902380D01*
X169075714Y-87045238D01*
X168980476Y-87140476D01*
X168885238Y-87188095D01*
X159516666Y-86902380D02*
X159516666Y-87616666D01*
X159469047Y-87759523D01*
X159373809Y-87854761D01*
X159230952Y-87902380D01*
X159135714Y-87902380D01*
X160516666Y-87902380D02*
X159945238Y-87902380D01*
X160230952Y-87902380D02*
X160230952Y-86902380D01*
X160135714Y-87045238D01*
X160040476Y-87140476D01*
X159945238Y-87188095D01*
X150576666Y-86902380D02*
X150576666Y-87616666D01*
X150529047Y-87759523D01*
X150433809Y-87854761D01*
X150290952Y-87902380D01*
X150195714Y-87902380D01*
X151576666Y-87902380D02*
X151005238Y-87902380D01*
X151290952Y-87902380D02*
X151290952Y-86902380D01*
X151195714Y-87045238D01*
X151100476Y-87140476D01*
X151005238Y-87188095D01*
X186336666Y-83742380D02*
X186336666Y-84456666D01*
X186289047Y-84599523D01*
X186193809Y-84694761D01*
X186050952Y-84742380D01*
X185955714Y-84742380D01*
X187336666Y-84742380D02*
X186765238Y-84742380D01*
X187050952Y-84742380D02*
X187050952Y-83742380D01*
X186955714Y-83885238D01*
X186860476Y-83980476D01*
X186765238Y-84028095D01*
X177396666Y-83742380D02*
X177396666Y-84456666D01*
X177349047Y-84599523D01*
X177253809Y-84694761D01*
X177110952Y-84742380D01*
X177015714Y-84742380D01*
X178396666Y-84742380D02*
X177825238Y-84742380D01*
X178110952Y-84742380D02*
X178110952Y-83742380D01*
X178015714Y-83885238D01*
X177920476Y-83980476D01*
X177825238Y-84028095D01*
X168456666Y-83742380D02*
X168456666Y-84456666D01*
X168409047Y-84599523D01*
X168313809Y-84694761D01*
X168170952Y-84742380D01*
X168075714Y-84742380D01*
X169456666Y-84742380D02*
X168885238Y-84742380D01*
X169170952Y-84742380D02*
X169170952Y-83742380D01*
X169075714Y-83885238D01*
X168980476Y-83980476D01*
X168885238Y-84028095D01*
X159516666Y-83742380D02*
X159516666Y-84456666D01*
X159469047Y-84599523D01*
X159373809Y-84694761D01*
X159230952Y-84742380D01*
X159135714Y-84742380D01*
X160516666Y-84742380D02*
X159945238Y-84742380D01*
X160230952Y-84742380D02*
X160230952Y-83742380D01*
X160135714Y-83885238D01*
X160040476Y-83980476D01*
X159945238Y-84028095D01*
X150576666Y-83742380D02*
X150576666Y-84456666D01*
X150529047Y-84599523D01*
X150433809Y-84694761D01*
X150290952Y-84742380D01*
X150195714Y-84742380D01*
X151576666Y-84742380D02*
X151005238Y-84742380D01*
X151290952Y-84742380D02*
X151290952Y-83742380D01*
X151195714Y-83885238D01*
X151100476Y-83980476D01*
X151005238Y-84028095D01*
X186336666Y-80582380D02*
X186336666Y-81296666D01*
X186289047Y-81439523D01*
X186193809Y-81534761D01*
X186050952Y-81582380D01*
X185955714Y-81582380D01*
X187336666Y-81582380D02*
X186765238Y-81582380D01*
X187050952Y-81582380D02*
X187050952Y-80582380D01*
X186955714Y-80725238D01*
X186860476Y-80820476D01*
X186765238Y-80868095D01*
X177396666Y-80582380D02*
X177396666Y-81296666D01*
X177349047Y-81439523D01*
X177253809Y-81534761D01*
X177110952Y-81582380D01*
X177015714Y-81582380D01*
X178396666Y-81582380D02*
X177825238Y-81582380D01*
X178110952Y-81582380D02*
X178110952Y-80582380D01*
X178015714Y-80725238D01*
X177920476Y-80820476D01*
X177825238Y-80868095D01*
X168456666Y-80582380D02*
X168456666Y-81296666D01*
X168409047Y-81439523D01*
X168313809Y-81534761D01*
X168170952Y-81582380D01*
X168075714Y-81582380D01*
X169456666Y-81582380D02*
X168885238Y-81582380D01*
X169170952Y-81582380D02*
X169170952Y-80582380D01*
X169075714Y-80725238D01*
X168980476Y-80820476D01*
X168885238Y-80868095D01*
X159516666Y-80582380D02*
X159516666Y-81296666D01*
X159469047Y-81439523D01*
X159373809Y-81534761D01*
X159230952Y-81582380D01*
X159135714Y-81582380D01*
X160516666Y-81582380D02*
X159945238Y-81582380D01*
X160230952Y-81582380D02*
X160230952Y-80582380D01*
X160135714Y-80725238D01*
X160040476Y-80820476D01*
X159945238Y-80868095D01*
X150576666Y-80582380D02*
X150576666Y-81296666D01*
X150529047Y-81439523D01*
X150433809Y-81534761D01*
X150290952Y-81582380D01*
X150195714Y-81582380D01*
X151576666Y-81582380D02*
X151005238Y-81582380D01*
X151290952Y-81582380D02*
X151290952Y-80582380D01*
X151195714Y-80725238D01*
X151100476Y-80820476D01*
X151005238Y-80868095D01*
%TD*%
M02*
