%TF.GenerationSoftware,KiCad,Pcbnew,(6.0.7)*%
%TF.CreationDate,2023-04-07T20:00:28+08:00*%
%TF.ProjectId,MicroUSB2TypeCPanelization,4d696372-6f55-4534-9232-547970654350,rev?*%
%TF.SameCoordinates,Original*%
%TF.FileFunction,Profile,NP*%
%FSLAX46Y46*%
G04 Gerber Fmt 4.6, Leading zero omitted, Abs format (unit mm)*
G04 Created by KiCad (PCBNEW (6.0.7)) date 2023-04-07 20:00:28*
%MOMM*%
%LPD*%
G01*
G04 APERTURE LIST*
%TA.AperFunction,Profile*%
%ADD10C,0.050000*%
%TD*%
G04 APERTURE END LIST*
D10*
%TO.C,J279*%
X224072000Y-144526000D02*
X233012000Y-144526000D01*
X233012000Y-144526000D02*
X233012000Y-149686000D01*
X233012000Y-149686000D02*
X224072000Y-149686000D01*
X224072000Y-149686000D02*
X224072000Y-144526000D01*
X232542000Y-148106000D02*
G75*
G03*
X232542000Y-148106000I-250000J0D01*
G01*
X225042000Y-148106000D02*
G75*
G03*
X225042000Y-148106000I-250000J0D01*
G01*
%TO.C,J277*%
X215132000Y-144526000D02*
X224072000Y-144526000D01*
X224072000Y-144526000D02*
X224072000Y-149686000D01*
X224072000Y-149686000D02*
X215132000Y-149686000D01*
X215132000Y-149686000D02*
X215132000Y-144526000D01*
X223602000Y-148106000D02*
G75*
G03*
X223602000Y-148106000I-250000J0D01*
G01*
X216102000Y-148106000D02*
G75*
G03*
X216102000Y-148106000I-250000J0D01*
G01*
%TO.C,J275*%
X206192000Y-144526000D02*
X215132000Y-144526000D01*
X215132000Y-144526000D02*
X215132000Y-149686000D01*
X215132000Y-149686000D02*
X206192000Y-149686000D01*
X206192000Y-149686000D02*
X206192000Y-144526000D01*
X214662000Y-148106000D02*
G75*
G03*
X214662000Y-148106000I-250000J0D01*
G01*
X207162000Y-148106000D02*
G75*
G03*
X207162000Y-148106000I-250000J0D01*
G01*
%TO.C,J273*%
X197252000Y-144526000D02*
X206192000Y-144526000D01*
X206192000Y-144526000D02*
X206192000Y-149686000D01*
X206192000Y-149686000D02*
X197252000Y-149686000D01*
X197252000Y-149686000D02*
X197252000Y-144526000D01*
X205722000Y-148106000D02*
G75*
G03*
X205722000Y-148106000I-250000J0D01*
G01*
X198222000Y-148106000D02*
G75*
G03*
X198222000Y-148106000I-250000J0D01*
G01*
%TO.C,J271*%
X188312000Y-144526000D02*
X197252000Y-144526000D01*
X197252000Y-144526000D02*
X197252000Y-149686000D01*
X197252000Y-149686000D02*
X188312000Y-149686000D01*
X188312000Y-149686000D02*
X188312000Y-144526000D01*
X196782000Y-148106000D02*
G75*
G03*
X196782000Y-148106000I-250000J0D01*
G01*
X189282000Y-148106000D02*
G75*
G03*
X189282000Y-148106000I-250000J0D01*
G01*
%TO.C,J269*%
X179372000Y-144526000D02*
X188312000Y-144526000D01*
X188312000Y-144526000D02*
X188312000Y-149686000D01*
X188312000Y-149686000D02*
X179372000Y-149686000D01*
X179372000Y-149686000D02*
X179372000Y-144526000D01*
X187842000Y-148106000D02*
G75*
G03*
X187842000Y-148106000I-250000J0D01*
G01*
X180342000Y-148106000D02*
G75*
G03*
X180342000Y-148106000I-250000J0D01*
G01*
%TO.C,J267*%
X170432000Y-144526000D02*
X179372000Y-144526000D01*
X179372000Y-144526000D02*
X179372000Y-149686000D01*
X179372000Y-149686000D02*
X170432000Y-149686000D01*
X170432000Y-149686000D02*
X170432000Y-144526000D01*
X178902000Y-148106000D02*
G75*
G03*
X178902000Y-148106000I-250000J0D01*
G01*
X171402000Y-148106000D02*
G75*
G03*
X171402000Y-148106000I-250000J0D01*
G01*
%TO.C,J265*%
X161492000Y-144526000D02*
X170432000Y-144526000D01*
X170432000Y-144526000D02*
X170432000Y-149686000D01*
X170432000Y-149686000D02*
X161492000Y-149686000D01*
X161492000Y-149686000D02*
X161492000Y-144526000D01*
X169962000Y-148106000D02*
G75*
G03*
X169962000Y-148106000I-250000J0D01*
G01*
X162462000Y-148106000D02*
G75*
G03*
X162462000Y-148106000I-250000J0D01*
G01*
%TO.C,J263*%
X152552000Y-144526000D02*
X161492000Y-144526000D01*
X161492000Y-144526000D02*
X161492000Y-149686000D01*
X161492000Y-149686000D02*
X152552000Y-149686000D01*
X152552000Y-149686000D02*
X152552000Y-144526000D01*
X161022000Y-148106000D02*
G75*
G03*
X161022000Y-148106000I-250000J0D01*
G01*
X153522000Y-148106000D02*
G75*
G03*
X153522000Y-148106000I-250000J0D01*
G01*
%TO.C,J261*%
X143612000Y-144526000D02*
X152552000Y-144526000D01*
X152552000Y-144526000D02*
X152552000Y-149686000D01*
X152552000Y-149686000D02*
X143612000Y-149686000D01*
X143612000Y-149686000D02*
X143612000Y-144526000D01*
X152082000Y-148106000D02*
G75*
G03*
X152082000Y-148106000I-250000J0D01*
G01*
X144582000Y-148106000D02*
G75*
G03*
X144582000Y-148106000I-250000J0D01*
G01*
%TO.C,J259*%
X224072000Y-139366000D02*
X233012000Y-139366000D01*
X233012000Y-139366000D02*
X233012000Y-144526000D01*
X233012000Y-144526000D02*
X224072000Y-144526000D01*
X224072000Y-144526000D02*
X224072000Y-139366000D01*
X232542000Y-142946000D02*
G75*
G03*
X232542000Y-142946000I-250000J0D01*
G01*
X225042000Y-142946000D02*
G75*
G03*
X225042000Y-142946000I-250000J0D01*
G01*
%TO.C,J257*%
X215132000Y-139366000D02*
X224072000Y-139366000D01*
X224072000Y-139366000D02*
X224072000Y-144526000D01*
X224072000Y-144526000D02*
X215132000Y-144526000D01*
X215132000Y-144526000D02*
X215132000Y-139366000D01*
X223602000Y-142946000D02*
G75*
G03*
X223602000Y-142946000I-250000J0D01*
G01*
X216102000Y-142946000D02*
G75*
G03*
X216102000Y-142946000I-250000J0D01*
G01*
%TO.C,J255*%
X206192000Y-139366000D02*
X215132000Y-139366000D01*
X215132000Y-139366000D02*
X215132000Y-144526000D01*
X215132000Y-144526000D02*
X206192000Y-144526000D01*
X206192000Y-144526000D02*
X206192000Y-139366000D01*
X214662000Y-142946000D02*
G75*
G03*
X214662000Y-142946000I-250000J0D01*
G01*
X207162000Y-142946000D02*
G75*
G03*
X207162000Y-142946000I-250000J0D01*
G01*
%TO.C,J253*%
X197252000Y-139366000D02*
X206192000Y-139366000D01*
X206192000Y-139366000D02*
X206192000Y-144526000D01*
X206192000Y-144526000D02*
X197252000Y-144526000D01*
X197252000Y-144526000D02*
X197252000Y-139366000D01*
X205722000Y-142946000D02*
G75*
G03*
X205722000Y-142946000I-250000J0D01*
G01*
X198222000Y-142946000D02*
G75*
G03*
X198222000Y-142946000I-250000J0D01*
G01*
%TO.C,J251*%
X188312000Y-139366000D02*
X197252000Y-139366000D01*
X197252000Y-139366000D02*
X197252000Y-144526000D01*
X197252000Y-144526000D02*
X188312000Y-144526000D01*
X188312000Y-144526000D02*
X188312000Y-139366000D01*
X196782000Y-142946000D02*
G75*
G03*
X196782000Y-142946000I-250000J0D01*
G01*
X189282000Y-142946000D02*
G75*
G03*
X189282000Y-142946000I-250000J0D01*
G01*
%TO.C,J249*%
X179372000Y-139366000D02*
X188312000Y-139366000D01*
X188312000Y-139366000D02*
X188312000Y-144526000D01*
X188312000Y-144526000D02*
X179372000Y-144526000D01*
X179372000Y-144526000D02*
X179372000Y-139366000D01*
X187842000Y-142946000D02*
G75*
G03*
X187842000Y-142946000I-250000J0D01*
G01*
X180342000Y-142946000D02*
G75*
G03*
X180342000Y-142946000I-250000J0D01*
G01*
%TO.C,J247*%
X170432000Y-139366000D02*
X179372000Y-139366000D01*
X179372000Y-139366000D02*
X179372000Y-144526000D01*
X179372000Y-144526000D02*
X170432000Y-144526000D01*
X170432000Y-144526000D02*
X170432000Y-139366000D01*
X178902000Y-142946000D02*
G75*
G03*
X178902000Y-142946000I-250000J0D01*
G01*
X171402000Y-142946000D02*
G75*
G03*
X171402000Y-142946000I-250000J0D01*
G01*
%TO.C,J245*%
X161492000Y-139366000D02*
X170432000Y-139366000D01*
X170432000Y-139366000D02*
X170432000Y-144526000D01*
X170432000Y-144526000D02*
X161492000Y-144526000D01*
X161492000Y-144526000D02*
X161492000Y-139366000D01*
X169962000Y-142946000D02*
G75*
G03*
X169962000Y-142946000I-250000J0D01*
G01*
X162462000Y-142946000D02*
G75*
G03*
X162462000Y-142946000I-250000J0D01*
G01*
%TO.C,J243*%
X152552000Y-139366000D02*
X161492000Y-139366000D01*
X161492000Y-139366000D02*
X161492000Y-144526000D01*
X161492000Y-144526000D02*
X152552000Y-144526000D01*
X152552000Y-144526000D02*
X152552000Y-139366000D01*
X161022000Y-142946000D02*
G75*
G03*
X161022000Y-142946000I-250000J0D01*
G01*
X153522000Y-142946000D02*
G75*
G03*
X153522000Y-142946000I-250000J0D01*
G01*
%TO.C,J241*%
X143612000Y-139366000D02*
X152552000Y-139366000D01*
X152552000Y-139366000D02*
X152552000Y-144526000D01*
X152552000Y-144526000D02*
X143612000Y-144526000D01*
X143612000Y-144526000D02*
X143612000Y-139366000D01*
X152082000Y-142946000D02*
G75*
G03*
X152082000Y-142946000I-250000J0D01*
G01*
X144582000Y-142946000D02*
G75*
G03*
X144582000Y-142946000I-250000J0D01*
G01*
%TO.C,J239*%
X224072000Y-134206000D02*
X233012000Y-134206000D01*
X233012000Y-134206000D02*
X233012000Y-139366000D01*
X233012000Y-139366000D02*
X224072000Y-139366000D01*
X224072000Y-139366000D02*
X224072000Y-134206000D01*
X232542000Y-137786000D02*
G75*
G03*
X232542000Y-137786000I-250000J0D01*
G01*
X225042000Y-137786000D02*
G75*
G03*
X225042000Y-137786000I-250000J0D01*
G01*
%TO.C,J237*%
X215132000Y-134206000D02*
X224072000Y-134206000D01*
X224072000Y-134206000D02*
X224072000Y-139366000D01*
X224072000Y-139366000D02*
X215132000Y-139366000D01*
X215132000Y-139366000D02*
X215132000Y-134206000D01*
X223602000Y-137786000D02*
G75*
G03*
X223602000Y-137786000I-250000J0D01*
G01*
X216102000Y-137786000D02*
G75*
G03*
X216102000Y-137786000I-250000J0D01*
G01*
%TO.C,J235*%
X206192000Y-134206000D02*
X215132000Y-134206000D01*
X215132000Y-134206000D02*
X215132000Y-139366000D01*
X215132000Y-139366000D02*
X206192000Y-139366000D01*
X206192000Y-139366000D02*
X206192000Y-134206000D01*
X214662000Y-137786000D02*
G75*
G03*
X214662000Y-137786000I-250000J0D01*
G01*
X207162000Y-137786000D02*
G75*
G03*
X207162000Y-137786000I-250000J0D01*
G01*
%TO.C,J233*%
X197252000Y-134206000D02*
X206192000Y-134206000D01*
X206192000Y-134206000D02*
X206192000Y-139366000D01*
X206192000Y-139366000D02*
X197252000Y-139366000D01*
X197252000Y-139366000D02*
X197252000Y-134206000D01*
X205722000Y-137786000D02*
G75*
G03*
X205722000Y-137786000I-250000J0D01*
G01*
X198222000Y-137786000D02*
G75*
G03*
X198222000Y-137786000I-250000J0D01*
G01*
%TO.C,J231*%
X188312000Y-134206000D02*
X197252000Y-134206000D01*
X197252000Y-134206000D02*
X197252000Y-139366000D01*
X197252000Y-139366000D02*
X188312000Y-139366000D01*
X188312000Y-139366000D02*
X188312000Y-134206000D01*
X196782000Y-137786000D02*
G75*
G03*
X196782000Y-137786000I-250000J0D01*
G01*
X189282000Y-137786000D02*
G75*
G03*
X189282000Y-137786000I-250000J0D01*
G01*
%TO.C,J229*%
X179372000Y-134206000D02*
X188312000Y-134206000D01*
X188312000Y-134206000D02*
X188312000Y-139366000D01*
X188312000Y-139366000D02*
X179372000Y-139366000D01*
X179372000Y-139366000D02*
X179372000Y-134206000D01*
X187842000Y-137786000D02*
G75*
G03*
X187842000Y-137786000I-250000J0D01*
G01*
X180342000Y-137786000D02*
G75*
G03*
X180342000Y-137786000I-250000J0D01*
G01*
%TO.C,J227*%
X170432000Y-134206000D02*
X179372000Y-134206000D01*
X179372000Y-134206000D02*
X179372000Y-139366000D01*
X179372000Y-139366000D02*
X170432000Y-139366000D01*
X170432000Y-139366000D02*
X170432000Y-134206000D01*
X178902000Y-137786000D02*
G75*
G03*
X178902000Y-137786000I-250000J0D01*
G01*
X171402000Y-137786000D02*
G75*
G03*
X171402000Y-137786000I-250000J0D01*
G01*
%TO.C,J225*%
X161492000Y-134206000D02*
X170432000Y-134206000D01*
X170432000Y-134206000D02*
X170432000Y-139366000D01*
X170432000Y-139366000D02*
X161492000Y-139366000D01*
X161492000Y-139366000D02*
X161492000Y-134206000D01*
X169962000Y-137786000D02*
G75*
G03*
X169962000Y-137786000I-250000J0D01*
G01*
X162462000Y-137786000D02*
G75*
G03*
X162462000Y-137786000I-250000J0D01*
G01*
%TO.C,J223*%
X152552000Y-134206000D02*
X161492000Y-134206000D01*
X161492000Y-134206000D02*
X161492000Y-139366000D01*
X161492000Y-139366000D02*
X152552000Y-139366000D01*
X152552000Y-139366000D02*
X152552000Y-134206000D01*
X161022000Y-137786000D02*
G75*
G03*
X161022000Y-137786000I-250000J0D01*
G01*
X153522000Y-137786000D02*
G75*
G03*
X153522000Y-137786000I-250000J0D01*
G01*
%TO.C,J221*%
X143612000Y-134206000D02*
X152552000Y-134206000D01*
X152552000Y-134206000D02*
X152552000Y-139366000D01*
X152552000Y-139366000D02*
X143612000Y-139366000D01*
X143612000Y-139366000D02*
X143612000Y-134206000D01*
X152082000Y-137786000D02*
G75*
G03*
X152082000Y-137786000I-250000J0D01*
G01*
X144582000Y-137786000D02*
G75*
G03*
X144582000Y-137786000I-250000J0D01*
G01*
%TO.C,J219*%
X224072000Y-129046000D02*
X233012000Y-129046000D01*
X233012000Y-129046000D02*
X233012000Y-134206000D01*
X233012000Y-134206000D02*
X224072000Y-134206000D01*
X224072000Y-134206000D02*
X224072000Y-129046000D01*
X232542000Y-132626000D02*
G75*
G03*
X232542000Y-132626000I-250000J0D01*
G01*
X225042000Y-132626000D02*
G75*
G03*
X225042000Y-132626000I-250000J0D01*
G01*
%TO.C,J217*%
X215132000Y-129046000D02*
X224072000Y-129046000D01*
X224072000Y-129046000D02*
X224072000Y-134206000D01*
X224072000Y-134206000D02*
X215132000Y-134206000D01*
X215132000Y-134206000D02*
X215132000Y-129046000D01*
X223602000Y-132626000D02*
G75*
G03*
X223602000Y-132626000I-250000J0D01*
G01*
X216102000Y-132626000D02*
G75*
G03*
X216102000Y-132626000I-250000J0D01*
G01*
%TO.C,J215*%
X206192000Y-129046000D02*
X215132000Y-129046000D01*
X215132000Y-129046000D02*
X215132000Y-134206000D01*
X215132000Y-134206000D02*
X206192000Y-134206000D01*
X206192000Y-134206000D02*
X206192000Y-129046000D01*
X214662000Y-132626000D02*
G75*
G03*
X214662000Y-132626000I-250000J0D01*
G01*
X207162000Y-132626000D02*
G75*
G03*
X207162000Y-132626000I-250000J0D01*
G01*
%TO.C,J213*%
X197252000Y-129046000D02*
X206192000Y-129046000D01*
X206192000Y-129046000D02*
X206192000Y-134206000D01*
X206192000Y-134206000D02*
X197252000Y-134206000D01*
X197252000Y-134206000D02*
X197252000Y-129046000D01*
X205722000Y-132626000D02*
G75*
G03*
X205722000Y-132626000I-250000J0D01*
G01*
X198222000Y-132626000D02*
G75*
G03*
X198222000Y-132626000I-250000J0D01*
G01*
%TO.C,J211*%
X188312000Y-129046000D02*
X197252000Y-129046000D01*
X197252000Y-129046000D02*
X197252000Y-134206000D01*
X197252000Y-134206000D02*
X188312000Y-134206000D01*
X188312000Y-134206000D02*
X188312000Y-129046000D01*
X196782000Y-132626000D02*
G75*
G03*
X196782000Y-132626000I-250000J0D01*
G01*
X189282000Y-132626000D02*
G75*
G03*
X189282000Y-132626000I-250000J0D01*
G01*
%TO.C,J209*%
X179372000Y-129046000D02*
X188312000Y-129046000D01*
X188312000Y-129046000D02*
X188312000Y-134206000D01*
X188312000Y-134206000D02*
X179372000Y-134206000D01*
X179372000Y-134206000D02*
X179372000Y-129046000D01*
X187842000Y-132626000D02*
G75*
G03*
X187842000Y-132626000I-250000J0D01*
G01*
X180342000Y-132626000D02*
G75*
G03*
X180342000Y-132626000I-250000J0D01*
G01*
%TO.C,J207*%
X170432000Y-129046000D02*
X179372000Y-129046000D01*
X179372000Y-129046000D02*
X179372000Y-134206000D01*
X179372000Y-134206000D02*
X170432000Y-134206000D01*
X170432000Y-134206000D02*
X170432000Y-129046000D01*
X178902000Y-132626000D02*
G75*
G03*
X178902000Y-132626000I-250000J0D01*
G01*
X171402000Y-132626000D02*
G75*
G03*
X171402000Y-132626000I-250000J0D01*
G01*
%TO.C,J205*%
X161492000Y-129046000D02*
X170432000Y-129046000D01*
X170432000Y-129046000D02*
X170432000Y-134206000D01*
X170432000Y-134206000D02*
X161492000Y-134206000D01*
X161492000Y-134206000D02*
X161492000Y-129046000D01*
X169962000Y-132626000D02*
G75*
G03*
X169962000Y-132626000I-250000J0D01*
G01*
X162462000Y-132626000D02*
G75*
G03*
X162462000Y-132626000I-250000J0D01*
G01*
%TO.C,J203*%
X152552000Y-129046000D02*
X161492000Y-129046000D01*
X161492000Y-129046000D02*
X161492000Y-134206000D01*
X161492000Y-134206000D02*
X152552000Y-134206000D01*
X152552000Y-134206000D02*
X152552000Y-129046000D01*
X161022000Y-132626000D02*
G75*
G03*
X161022000Y-132626000I-250000J0D01*
G01*
X153522000Y-132626000D02*
G75*
G03*
X153522000Y-132626000I-250000J0D01*
G01*
%TO.C,J201*%
X143612000Y-129046000D02*
X152552000Y-129046000D01*
X152552000Y-129046000D02*
X152552000Y-134206000D01*
X152552000Y-134206000D02*
X143612000Y-134206000D01*
X143612000Y-134206000D02*
X143612000Y-129046000D01*
X152082000Y-132626000D02*
G75*
G03*
X152082000Y-132626000I-250000J0D01*
G01*
X144582000Y-132626000D02*
G75*
G03*
X144582000Y-132626000I-250000J0D01*
G01*
%TO.C,J199*%
X224072000Y-123886000D02*
X233012000Y-123886000D01*
X233012000Y-123886000D02*
X233012000Y-129046000D01*
X233012000Y-129046000D02*
X224072000Y-129046000D01*
X224072000Y-129046000D02*
X224072000Y-123886000D01*
X232542000Y-127466000D02*
G75*
G03*
X232542000Y-127466000I-250000J0D01*
G01*
X225042000Y-127466000D02*
G75*
G03*
X225042000Y-127466000I-250000J0D01*
G01*
%TO.C,J197*%
X215132000Y-123886000D02*
X224072000Y-123886000D01*
X224072000Y-123886000D02*
X224072000Y-129046000D01*
X224072000Y-129046000D02*
X215132000Y-129046000D01*
X215132000Y-129046000D02*
X215132000Y-123886000D01*
X223602000Y-127466000D02*
G75*
G03*
X223602000Y-127466000I-250000J0D01*
G01*
X216102000Y-127466000D02*
G75*
G03*
X216102000Y-127466000I-250000J0D01*
G01*
%TO.C,J195*%
X206192000Y-123886000D02*
X215132000Y-123886000D01*
X215132000Y-123886000D02*
X215132000Y-129046000D01*
X215132000Y-129046000D02*
X206192000Y-129046000D01*
X206192000Y-129046000D02*
X206192000Y-123886000D01*
X214662000Y-127466000D02*
G75*
G03*
X214662000Y-127466000I-250000J0D01*
G01*
X207162000Y-127466000D02*
G75*
G03*
X207162000Y-127466000I-250000J0D01*
G01*
%TO.C,J193*%
X197252000Y-123886000D02*
X206192000Y-123886000D01*
X206192000Y-123886000D02*
X206192000Y-129046000D01*
X206192000Y-129046000D02*
X197252000Y-129046000D01*
X197252000Y-129046000D02*
X197252000Y-123886000D01*
X205722000Y-127466000D02*
G75*
G03*
X205722000Y-127466000I-250000J0D01*
G01*
X198222000Y-127466000D02*
G75*
G03*
X198222000Y-127466000I-250000J0D01*
G01*
%TO.C,J191*%
X188312000Y-123886000D02*
X197252000Y-123886000D01*
X197252000Y-123886000D02*
X197252000Y-129046000D01*
X197252000Y-129046000D02*
X188312000Y-129046000D01*
X188312000Y-129046000D02*
X188312000Y-123886000D01*
X196782000Y-127466000D02*
G75*
G03*
X196782000Y-127466000I-250000J0D01*
G01*
X189282000Y-127466000D02*
G75*
G03*
X189282000Y-127466000I-250000J0D01*
G01*
%TO.C,J189*%
X179372000Y-123886000D02*
X188312000Y-123886000D01*
X188312000Y-123886000D02*
X188312000Y-129046000D01*
X188312000Y-129046000D02*
X179372000Y-129046000D01*
X179372000Y-129046000D02*
X179372000Y-123886000D01*
X187842000Y-127466000D02*
G75*
G03*
X187842000Y-127466000I-250000J0D01*
G01*
X180342000Y-127466000D02*
G75*
G03*
X180342000Y-127466000I-250000J0D01*
G01*
%TO.C,J187*%
X170432000Y-123886000D02*
X179372000Y-123886000D01*
X179372000Y-123886000D02*
X179372000Y-129046000D01*
X179372000Y-129046000D02*
X170432000Y-129046000D01*
X170432000Y-129046000D02*
X170432000Y-123886000D01*
X178902000Y-127466000D02*
G75*
G03*
X178902000Y-127466000I-250000J0D01*
G01*
X171402000Y-127466000D02*
G75*
G03*
X171402000Y-127466000I-250000J0D01*
G01*
%TO.C,J185*%
X161492000Y-123886000D02*
X170432000Y-123886000D01*
X170432000Y-123886000D02*
X170432000Y-129046000D01*
X170432000Y-129046000D02*
X161492000Y-129046000D01*
X161492000Y-129046000D02*
X161492000Y-123886000D01*
X169962000Y-127466000D02*
G75*
G03*
X169962000Y-127466000I-250000J0D01*
G01*
X162462000Y-127466000D02*
G75*
G03*
X162462000Y-127466000I-250000J0D01*
G01*
%TO.C,J183*%
X152552000Y-123886000D02*
X161492000Y-123886000D01*
X161492000Y-123886000D02*
X161492000Y-129046000D01*
X161492000Y-129046000D02*
X152552000Y-129046000D01*
X152552000Y-129046000D02*
X152552000Y-123886000D01*
X161022000Y-127466000D02*
G75*
G03*
X161022000Y-127466000I-250000J0D01*
G01*
X153522000Y-127466000D02*
G75*
G03*
X153522000Y-127466000I-250000J0D01*
G01*
%TO.C,J181*%
X143612000Y-123886000D02*
X152552000Y-123886000D01*
X152552000Y-123886000D02*
X152552000Y-129046000D01*
X152552000Y-129046000D02*
X143612000Y-129046000D01*
X143612000Y-129046000D02*
X143612000Y-123886000D01*
X152082000Y-127466000D02*
G75*
G03*
X152082000Y-127466000I-250000J0D01*
G01*
X144582000Y-127466000D02*
G75*
G03*
X144582000Y-127466000I-250000J0D01*
G01*
%TO.C,J179*%
X224072000Y-118726000D02*
X233012000Y-118726000D01*
X233012000Y-118726000D02*
X233012000Y-123886000D01*
X233012000Y-123886000D02*
X224072000Y-123886000D01*
X224072000Y-123886000D02*
X224072000Y-118726000D01*
X232542000Y-122306000D02*
G75*
G03*
X232542000Y-122306000I-250000J0D01*
G01*
X225042000Y-122306000D02*
G75*
G03*
X225042000Y-122306000I-250000J0D01*
G01*
%TO.C,J177*%
X215132000Y-118726000D02*
X224072000Y-118726000D01*
X224072000Y-118726000D02*
X224072000Y-123886000D01*
X224072000Y-123886000D02*
X215132000Y-123886000D01*
X215132000Y-123886000D02*
X215132000Y-118726000D01*
X223602000Y-122306000D02*
G75*
G03*
X223602000Y-122306000I-250000J0D01*
G01*
X216102000Y-122306000D02*
G75*
G03*
X216102000Y-122306000I-250000J0D01*
G01*
%TO.C,J175*%
X206192000Y-118726000D02*
X215132000Y-118726000D01*
X215132000Y-118726000D02*
X215132000Y-123886000D01*
X215132000Y-123886000D02*
X206192000Y-123886000D01*
X206192000Y-123886000D02*
X206192000Y-118726000D01*
X214662000Y-122306000D02*
G75*
G03*
X214662000Y-122306000I-250000J0D01*
G01*
X207162000Y-122306000D02*
G75*
G03*
X207162000Y-122306000I-250000J0D01*
G01*
%TO.C,J173*%
X197252000Y-118726000D02*
X206192000Y-118726000D01*
X206192000Y-118726000D02*
X206192000Y-123886000D01*
X206192000Y-123886000D02*
X197252000Y-123886000D01*
X197252000Y-123886000D02*
X197252000Y-118726000D01*
X205722000Y-122306000D02*
G75*
G03*
X205722000Y-122306000I-250000J0D01*
G01*
X198222000Y-122306000D02*
G75*
G03*
X198222000Y-122306000I-250000J0D01*
G01*
%TO.C,J171*%
X188312000Y-118726000D02*
X197252000Y-118726000D01*
X197252000Y-118726000D02*
X197252000Y-123886000D01*
X197252000Y-123886000D02*
X188312000Y-123886000D01*
X188312000Y-123886000D02*
X188312000Y-118726000D01*
X196782000Y-122306000D02*
G75*
G03*
X196782000Y-122306000I-250000J0D01*
G01*
X189282000Y-122306000D02*
G75*
G03*
X189282000Y-122306000I-250000J0D01*
G01*
%TO.C,J169*%
X179372000Y-118726000D02*
X188312000Y-118726000D01*
X188312000Y-118726000D02*
X188312000Y-123886000D01*
X188312000Y-123886000D02*
X179372000Y-123886000D01*
X179372000Y-123886000D02*
X179372000Y-118726000D01*
X187842000Y-122306000D02*
G75*
G03*
X187842000Y-122306000I-250000J0D01*
G01*
X180342000Y-122306000D02*
G75*
G03*
X180342000Y-122306000I-250000J0D01*
G01*
%TO.C,J167*%
X170432000Y-118726000D02*
X179372000Y-118726000D01*
X179372000Y-118726000D02*
X179372000Y-123886000D01*
X179372000Y-123886000D02*
X170432000Y-123886000D01*
X170432000Y-123886000D02*
X170432000Y-118726000D01*
X178902000Y-122306000D02*
G75*
G03*
X178902000Y-122306000I-250000J0D01*
G01*
X171402000Y-122306000D02*
G75*
G03*
X171402000Y-122306000I-250000J0D01*
G01*
%TO.C,J165*%
X161492000Y-118726000D02*
X170432000Y-118726000D01*
X170432000Y-118726000D02*
X170432000Y-123886000D01*
X170432000Y-123886000D02*
X161492000Y-123886000D01*
X161492000Y-123886000D02*
X161492000Y-118726000D01*
X169962000Y-122306000D02*
G75*
G03*
X169962000Y-122306000I-250000J0D01*
G01*
X162462000Y-122306000D02*
G75*
G03*
X162462000Y-122306000I-250000J0D01*
G01*
%TO.C,J163*%
X152552000Y-118726000D02*
X161492000Y-118726000D01*
X161492000Y-118726000D02*
X161492000Y-123886000D01*
X161492000Y-123886000D02*
X152552000Y-123886000D01*
X152552000Y-123886000D02*
X152552000Y-118726000D01*
X161022000Y-122306000D02*
G75*
G03*
X161022000Y-122306000I-250000J0D01*
G01*
X153522000Y-122306000D02*
G75*
G03*
X153522000Y-122306000I-250000J0D01*
G01*
%TO.C,J161*%
X143612000Y-118726000D02*
X152552000Y-118726000D01*
X152552000Y-118726000D02*
X152552000Y-123886000D01*
X152552000Y-123886000D02*
X143612000Y-123886000D01*
X143612000Y-123886000D02*
X143612000Y-118726000D01*
X152082000Y-122306000D02*
G75*
G03*
X152082000Y-122306000I-250000J0D01*
G01*
X144582000Y-122306000D02*
G75*
G03*
X144582000Y-122306000I-250000J0D01*
G01*
%TO.C,J159*%
X224072000Y-113566000D02*
X233012000Y-113566000D01*
X233012000Y-113566000D02*
X233012000Y-118726000D01*
X233012000Y-118726000D02*
X224072000Y-118726000D01*
X224072000Y-118726000D02*
X224072000Y-113566000D01*
X232542000Y-117146000D02*
G75*
G03*
X232542000Y-117146000I-250000J0D01*
G01*
X225042000Y-117146000D02*
G75*
G03*
X225042000Y-117146000I-250000J0D01*
G01*
%TO.C,J157*%
X215132000Y-113566000D02*
X224072000Y-113566000D01*
X224072000Y-113566000D02*
X224072000Y-118726000D01*
X224072000Y-118726000D02*
X215132000Y-118726000D01*
X215132000Y-118726000D02*
X215132000Y-113566000D01*
X223602000Y-117146000D02*
G75*
G03*
X223602000Y-117146000I-250000J0D01*
G01*
X216102000Y-117146000D02*
G75*
G03*
X216102000Y-117146000I-250000J0D01*
G01*
%TO.C,J155*%
X206192000Y-113566000D02*
X215132000Y-113566000D01*
X215132000Y-113566000D02*
X215132000Y-118726000D01*
X215132000Y-118726000D02*
X206192000Y-118726000D01*
X206192000Y-118726000D02*
X206192000Y-113566000D01*
X214662000Y-117146000D02*
G75*
G03*
X214662000Y-117146000I-250000J0D01*
G01*
X207162000Y-117146000D02*
G75*
G03*
X207162000Y-117146000I-250000J0D01*
G01*
%TO.C,J153*%
X197252000Y-113566000D02*
X206192000Y-113566000D01*
X206192000Y-113566000D02*
X206192000Y-118726000D01*
X206192000Y-118726000D02*
X197252000Y-118726000D01*
X197252000Y-118726000D02*
X197252000Y-113566000D01*
X205722000Y-117146000D02*
G75*
G03*
X205722000Y-117146000I-250000J0D01*
G01*
X198222000Y-117146000D02*
G75*
G03*
X198222000Y-117146000I-250000J0D01*
G01*
%TO.C,J151*%
X188312000Y-113566000D02*
X197252000Y-113566000D01*
X197252000Y-113566000D02*
X197252000Y-118726000D01*
X197252000Y-118726000D02*
X188312000Y-118726000D01*
X188312000Y-118726000D02*
X188312000Y-113566000D01*
X196782000Y-117146000D02*
G75*
G03*
X196782000Y-117146000I-250000J0D01*
G01*
X189282000Y-117146000D02*
G75*
G03*
X189282000Y-117146000I-250000J0D01*
G01*
%TO.C,J149*%
X179372000Y-113566000D02*
X188312000Y-113566000D01*
X188312000Y-113566000D02*
X188312000Y-118726000D01*
X188312000Y-118726000D02*
X179372000Y-118726000D01*
X179372000Y-118726000D02*
X179372000Y-113566000D01*
X187842000Y-117146000D02*
G75*
G03*
X187842000Y-117146000I-250000J0D01*
G01*
X180342000Y-117146000D02*
G75*
G03*
X180342000Y-117146000I-250000J0D01*
G01*
%TO.C,J147*%
X170432000Y-113566000D02*
X179372000Y-113566000D01*
X179372000Y-113566000D02*
X179372000Y-118726000D01*
X179372000Y-118726000D02*
X170432000Y-118726000D01*
X170432000Y-118726000D02*
X170432000Y-113566000D01*
X178902000Y-117146000D02*
G75*
G03*
X178902000Y-117146000I-250000J0D01*
G01*
X171402000Y-117146000D02*
G75*
G03*
X171402000Y-117146000I-250000J0D01*
G01*
%TO.C,J145*%
X161492000Y-113566000D02*
X170432000Y-113566000D01*
X170432000Y-113566000D02*
X170432000Y-118726000D01*
X170432000Y-118726000D02*
X161492000Y-118726000D01*
X161492000Y-118726000D02*
X161492000Y-113566000D01*
X169962000Y-117146000D02*
G75*
G03*
X169962000Y-117146000I-250000J0D01*
G01*
X162462000Y-117146000D02*
G75*
G03*
X162462000Y-117146000I-250000J0D01*
G01*
%TO.C,J143*%
X152552000Y-113566000D02*
X161492000Y-113566000D01*
X161492000Y-113566000D02*
X161492000Y-118726000D01*
X161492000Y-118726000D02*
X152552000Y-118726000D01*
X152552000Y-118726000D02*
X152552000Y-113566000D01*
X161022000Y-117146000D02*
G75*
G03*
X161022000Y-117146000I-250000J0D01*
G01*
X153522000Y-117146000D02*
G75*
G03*
X153522000Y-117146000I-250000J0D01*
G01*
%TO.C,J141*%
X143612000Y-113566000D02*
X152552000Y-113566000D01*
X152552000Y-113566000D02*
X152552000Y-118726000D01*
X152552000Y-118726000D02*
X143612000Y-118726000D01*
X143612000Y-118726000D02*
X143612000Y-113566000D01*
X152082000Y-117146000D02*
G75*
G03*
X152082000Y-117146000I-250000J0D01*
G01*
X144582000Y-117146000D02*
G75*
G03*
X144582000Y-117146000I-250000J0D01*
G01*
%TO.C,J139*%
X224072000Y-108406000D02*
X233012000Y-108406000D01*
X233012000Y-108406000D02*
X233012000Y-113566000D01*
X233012000Y-113566000D02*
X224072000Y-113566000D01*
X224072000Y-113566000D02*
X224072000Y-108406000D01*
X232542000Y-111986000D02*
G75*
G03*
X232542000Y-111986000I-250000J0D01*
G01*
X225042000Y-111986000D02*
G75*
G03*
X225042000Y-111986000I-250000J0D01*
G01*
%TO.C,J137*%
X215132000Y-108406000D02*
X224072000Y-108406000D01*
X224072000Y-108406000D02*
X224072000Y-113566000D01*
X224072000Y-113566000D02*
X215132000Y-113566000D01*
X215132000Y-113566000D02*
X215132000Y-108406000D01*
X223602000Y-111986000D02*
G75*
G03*
X223602000Y-111986000I-250000J0D01*
G01*
X216102000Y-111986000D02*
G75*
G03*
X216102000Y-111986000I-250000J0D01*
G01*
%TO.C,J135*%
X206192000Y-108406000D02*
X215132000Y-108406000D01*
X215132000Y-108406000D02*
X215132000Y-113566000D01*
X215132000Y-113566000D02*
X206192000Y-113566000D01*
X206192000Y-113566000D02*
X206192000Y-108406000D01*
X214662000Y-111986000D02*
G75*
G03*
X214662000Y-111986000I-250000J0D01*
G01*
X207162000Y-111986000D02*
G75*
G03*
X207162000Y-111986000I-250000J0D01*
G01*
%TO.C,J133*%
X197252000Y-108406000D02*
X206192000Y-108406000D01*
X206192000Y-108406000D02*
X206192000Y-113566000D01*
X206192000Y-113566000D02*
X197252000Y-113566000D01*
X197252000Y-113566000D02*
X197252000Y-108406000D01*
X205722000Y-111986000D02*
G75*
G03*
X205722000Y-111986000I-250000J0D01*
G01*
X198222000Y-111986000D02*
G75*
G03*
X198222000Y-111986000I-250000J0D01*
G01*
%TO.C,J131*%
X188312000Y-108406000D02*
X197252000Y-108406000D01*
X197252000Y-108406000D02*
X197252000Y-113566000D01*
X197252000Y-113566000D02*
X188312000Y-113566000D01*
X188312000Y-113566000D02*
X188312000Y-108406000D01*
X196782000Y-111986000D02*
G75*
G03*
X196782000Y-111986000I-250000J0D01*
G01*
X189282000Y-111986000D02*
G75*
G03*
X189282000Y-111986000I-250000J0D01*
G01*
%TO.C,J129*%
X179372000Y-108406000D02*
X188312000Y-108406000D01*
X188312000Y-108406000D02*
X188312000Y-113566000D01*
X188312000Y-113566000D02*
X179372000Y-113566000D01*
X179372000Y-113566000D02*
X179372000Y-108406000D01*
X187842000Y-111986000D02*
G75*
G03*
X187842000Y-111986000I-250000J0D01*
G01*
X180342000Y-111986000D02*
G75*
G03*
X180342000Y-111986000I-250000J0D01*
G01*
%TO.C,J127*%
X170432000Y-108406000D02*
X179372000Y-108406000D01*
X179372000Y-108406000D02*
X179372000Y-113566000D01*
X179372000Y-113566000D02*
X170432000Y-113566000D01*
X170432000Y-113566000D02*
X170432000Y-108406000D01*
X178902000Y-111986000D02*
G75*
G03*
X178902000Y-111986000I-250000J0D01*
G01*
X171402000Y-111986000D02*
G75*
G03*
X171402000Y-111986000I-250000J0D01*
G01*
%TO.C,J125*%
X161492000Y-108406000D02*
X170432000Y-108406000D01*
X170432000Y-108406000D02*
X170432000Y-113566000D01*
X170432000Y-113566000D02*
X161492000Y-113566000D01*
X161492000Y-113566000D02*
X161492000Y-108406000D01*
X169962000Y-111986000D02*
G75*
G03*
X169962000Y-111986000I-250000J0D01*
G01*
X162462000Y-111986000D02*
G75*
G03*
X162462000Y-111986000I-250000J0D01*
G01*
%TO.C,J123*%
X152552000Y-108406000D02*
X161492000Y-108406000D01*
X161492000Y-108406000D02*
X161492000Y-113566000D01*
X161492000Y-113566000D02*
X152552000Y-113566000D01*
X152552000Y-113566000D02*
X152552000Y-108406000D01*
X161022000Y-111986000D02*
G75*
G03*
X161022000Y-111986000I-250000J0D01*
G01*
X153522000Y-111986000D02*
G75*
G03*
X153522000Y-111986000I-250000J0D01*
G01*
%TO.C,J121*%
X143612000Y-108406000D02*
X152552000Y-108406000D01*
X152552000Y-108406000D02*
X152552000Y-113566000D01*
X152552000Y-113566000D02*
X143612000Y-113566000D01*
X143612000Y-113566000D02*
X143612000Y-108406000D01*
X152082000Y-111986000D02*
G75*
G03*
X152082000Y-111986000I-250000J0D01*
G01*
X144582000Y-111986000D02*
G75*
G03*
X144582000Y-111986000I-250000J0D01*
G01*
%TO.C,J119*%
X224072000Y-103246000D02*
X233012000Y-103246000D01*
X233012000Y-103246000D02*
X233012000Y-108406000D01*
X233012000Y-108406000D02*
X224072000Y-108406000D01*
X224072000Y-108406000D02*
X224072000Y-103246000D01*
X232542000Y-106826000D02*
G75*
G03*
X232542000Y-106826000I-250000J0D01*
G01*
X225042000Y-106826000D02*
G75*
G03*
X225042000Y-106826000I-250000J0D01*
G01*
%TO.C,J117*%
X215132000Y-103246000D02*
X224072000Y-103246000D01*
X224072000Y-103246000D02*
X224072000Y-108406000D01*
X224072000Y-108406000D02*
X215132000Y-108406000D01*
X215132000Y-108406000D02*
X215132000Y-103246000D01*
X223602000Y-106826000D02*
G75*
G03*
X223602000Y-106826000I-250000J0D01*
G01*
X216102000Y-106826000D02*
G75*
G03*
X216102000Y-106826000I-250000J0D01*
G01*
%TO.C,J115*%
X206192000Y-103246000D02*
X215132000Y-103246000D01*
X215132000Y-103246000D02*
X215132000Y-108406000D01*
X215132000Y-108406000D02*
X206192000Y-108406000D01*
X206192000Y-108406000D02*
X206192000Y-103246000D01*
X214662000Y-106826000D02*
G75*
G03*
X214662000Y-106826000I-250000J0D01*
G01*
X207162000Y-106826000D02*
G75*
G03*
X207162000Y-106826000I-250000J0D01*
G01*
%TO.C,J113*%
X197252000Y-103246000D02*
X206192000Y-103246000D01*
X206192000Y-103246000D02*
X206192000Y-108406000D01*
X206192000Y-108406000D02*
X197252000Y-108406000D01*
X197252000Y-108406000D02*
X197252000Y-103246000D01*
X205722000Y-106826000D02*
G75*
G03*
X205722000Y-106826000I-250000J0D01*
G01*
X198222000Y-106826000D02*
G75*
G03*
X198222000Y-106826000I-250000J0D01*
G01*
%TO.C,J111*%
X188312000Y-103246000D02*
X197252000Y-103246000D01*
X197252000Y-103246000D02*
X197252000Y-108406000D01*
X197252000Y-108406000D02*
X188312000Y-108406000D01*
X188312000Y-108406000D02*
X188312000Y-103246000D01*
X196782000Y-106826000D02*
G75*
G03*
X196782000Y-106826000I-250000J0D01*
G01*
X189282000Y-106826000D02*
G75*
G03*
X189282000Y-106826000I-250000J0D01*
G01*
%TO.C,J109*%
X179372000Y-103246000D02*
X188312000Y-103246000D01*
X188312000Y-103246000D02*
X188312000Y-108406000D01*
X188312000Y-108406000D02*
X179372000Y-108406000D01*
X179372000Y-108406000D02*
X179372000Y-103246000D01*
X187842000Y-106826000D02*
G75*
G03*
X187842000Y-106826000I-250000J0D01*
G01*
X180342000Y-106826000D02*
G75*
G03*
X180342000Y-106826000I-250000J0D01*
G01*
%TO.C,J107*%
X170432000Y-103246000D02*
X179372000Y-103246000D01*
X179372000Y-103246000D02*
X179372000Y-108406000D01*
X179372000Y-108406000D02*
X170432000Y-108406000D01*
X170432000Y-108406000D02*
X170432000Y-103246000D01*
X178902000Y-106826000D02*
G75*
G03*
X178902000Y-106826000I-250000J0D01*
G01*
X171402000Y-106826000D02*
G75*
G03*
X171402000Y-106826000I-250000J0D01*
G01*
%TO.C,J105*%
X161492000Y-103246000D02*
X170432000Y-103246000D01*
X170432000Y-103246000D02*
X170432000Y-108406000D01*
X170432000Y-108406000D02*
X161492000Y-108406000D01*
X161492000Y-108406000D02*
X161492000Y-103246000D01*
X169962000Y-106826000D02*
G75*
G03*
X169962000Y-106826000I-250000J0D01*
G01*
X162462000Y-106826000D02*
G75*
G03*
X162462000Y-106826000I-250000J0D01*
G01*
%TO.C,J103*%
X152552000Y-103246000D02*
X161492000Y-103246000D01*
X161492000Y-103246000D02*
X161492000Y-108406000D01*
X161492000Y-108406000D02*
X152552000Y-108406000D01*
X152552000Y-108406000D02*
X152552000Y-103246000D01*
X161022000Y-106826000D02*
G75*
G03*
X161022000Y-106826000I-250000J0D01*
G01*
X153522000Y-106826000D02*
G75*
G03*
X153522000Y-106826000I-250000J0D01*
G01*
%TO.C,J101*%
X143612000Y-103246000D02*
X152552000Y-103246000D01*
X152552000Y-103246000D02*
X152552000Y-108406000D01*
X152552000Y-108406000D02*
X143612000Y-108406000D01*
X143612000Y-108406000D02*
X143612000Y-103246000D01*
X152082000Y-106826000D02*
G75*
G03*
X152082000Y-106826000I-250000J0D01*
G01*
X144582000Y-106826000D02*
G75*
G03*
X144582000Y-106826000I-250000J0D01*
G01*
%TO.C,J99*%
X224072000Y-98086000D02*
X233012000Y-98086000D01*
X233012000Y-98086000D02*
X233012000Y-103246000D01*
X233012000Y-103246000D02*
X224072000Y-103246000D01*
X224072000Y-103246000D02*
X224072000Y-98086000D01*
X232542000Y-101666000D02*
G75*
G03*
X232542000Y-101666000I-250000J0D01*
G01*
X225042000Y-101666000D02*
G75*
G03*
X225042000Y-101666000I-250000J0D01*
G01*
%TO.C,J97*%
X215132000Y-98086000D02*
X224072000Y-98086000D01*
X224072000Y-98086000D02*
X224072000Y-103246000D01*
X224072000Y-103246000D02*
X215132000Y-103246000D01*
X215132000Y-103246000D02*
X215132000Y-98086000D01*
X223602000Y-101666000D02*
G75*
G03*
X223602000Y-101666000I-250000J0D01*
G01*
X216102000Y-101666000D02*
G75*
G03*
X216102000Y-101666000I-250000J0D01*
G01*
%TO.C,J95*%
X206192000Y-98086000D02*
X215132000Y-98086000D01*
X215132000Y-98086000D02*
X215132000Y-103246000D01*
X215132000Y-103246000D02*
X206192000Y-103246000D01*
X206192000Y-103246000D02*
X206192000Y-98086000D01*
X214662000Y-101666000D02*
G75*
G03*
X214662000Y-101666000I-250000J0D01*
G01*
X207162000Y-101666000D02*
G75*
G03*
X207162000Y-101666000I-250000J0D01*
G01*
%TO.C,J93*%
X197252000Y-98086000D02*
X206192000Y-98086000D01*
X206192000Y-98086000D02*
X206192000Y-103246000D01*
X206192000Y-103246000D02*
X197252000Y-103246000D01*
X197252000Y-103246000D02*
X197252000Y-98086000D01*
X205722000Y-101666000D02*
G75*
G03*
X205722000Y-101666000I-250000J0D01*
G01*
X198222000Y-101666000D02*
G75*
G03*
X198222000Y-101666000I-250000J0D01*
G01*
%TO.C,J91*%
X188312000Y-98086000D02*
X197252000Y-98086000D01*
X197252000Y-98086000D02*
X197252000Y-103246000D01*
X197252000Y-103246000D02*
X188312000Y-103246000D01*
X188312000Y-103246000D02*
X188312000Y-98086000D01*
X196782000Y-101666000D02*
G75*
G03*
X196782000Y-101666000I-250000J0D01*
G01*
X189282000Y-101666000D02*
G75*
G03*
X189282000Y-101666000I-250000J0D01*
G01*
%TO.C,J89*%
X179372000Y-98086000D02*
X188312000Y-98086000D01*
X188312000Y-98086000D02*
X188312000Y-103246000D01*
X188312000Y-103246000D02*
X179372000Y-103246000D01*
X179372000Y-103246000D02*
X179372000Y-98086000D01*
X187842000Y-101666000D02*
G75*
G03*
X187842000Y-101666000I-250000J0D01*
G01*
X180342000Y-101666000D02*
G75*
G03*
X180342000Y-101666000I-250000J0D01*
G01*
%TO.C,J87*%
X170432000Y-98086000D02*
X179372000Y-98086000D01*
X179372000Y-98086000D02*
X179372000Y-103246000D01*
X179372000Y-103246000D02*
X170432000Y-103246000D01*
X170432000Y-103246000D02*
X170432000Y-98086000D01*
X178902000Y-101666000D02*
G75*
G03*
X178902000Y-101666000I-250000J0D01*
G01*
X171402000Y-101666000D02*
G75*
G03*
X171402000Y-101666000I-250000J0D01*
G01*
%TO.C,J85*%
X161492000Y-98086000D02*
X170432000Y-98086000D01*
X170432000Y-98086000D02*
X170432000Y-103246000D01*
X170432000Y-103246000D02*
X161492000Y-103246000D01*
X161492000Y-103246000D02*
X161492000Y-98086000D01*
X169962000Y-101666000D02*
G75*
G03*
X169962000Y-101666000I-250000J0D01*
G01*
X162462000Y-101666000D02*
G75*
G03*
X162462000Y-101666000I-250000J0D01*
G01*
%TO.C,J83*%
X152552000Y-98086000D02*
X161492000Y-98086000D01*
X161492000Y-98086000D02*
X161492000Y-103246000D01*
X161492000Y-103246000D02*
X152552000Y-103246000D01*
X152552000Y-103246000D02*
X152552000Y-98086000D01*
X161022000Y-101666000D02*
G75*
G03*
X161022000Y-101666000I-250000J0D01*
G01*
X153522000Y-101666000D02*
G75*
G03*
X153522000Y-101666000I-250000J0D01*
G01*
%TO.C,J81*%
X143612000Y-98086000D02*
X152552000Y-98086000D01*
X152552000Y-98086000D02*
X152552000Y-103246000D01*
X152552000Y-103246000D02*
X143612000Y-103246000D01*
X143612000Y-103246000D02*
X143612000Y-98086000D01*
X152082000Y-101666000D02*
G75*
G03*
X152082000Y-101666000I-250000J0D01*
G01*
X144582000Y-101666000D02*
G75*
G03*
X144582000Y-101666000I-250000J0D01*
G01*
%TO.C,J79*%
X224072000Y-92926000D02*
X233012000Y-92926000D01*
X233012000Y-92926000D02*
X233012000Y-98086000D01*
X233012000Y-98086000D02*
X224072000Y-98086000D01*
X224072000Y-98086000D02*
X224072000Y-92926000D01*
X232542000Y-96506000D02*
G75*
G03*
X232542000Y-96506000I-250000J0D01*
G01*
X225042000Y-96506000D02*
G75*
G03*
X225042000Y-96506000I-250000J0D01*
G01*
%TO.C,J77*%
X215132000Y-92926000D02*
X224072000Y-92926000D01*
X224072000Y-92926000D02*
X224072000Y-98086000D01*
X224072000Y-98086000D02*
X215132000Y-98086000D01*
X215132000Y-98086000D02*
X215132000Y-92926000D01*
X223602000Y-96506000D02*
G75*
G03*
X223602000Y-96506000I-250000J0D01*
G01*
X216102000Y-96506000D02*
G75*
G03*
X216102000Y-96506000I-250000J0D01*
G01*
%TO.C,J75*%
X206192000Y-92926000D02*
X215132000Y-92926000D01*
X215132000Y-92926000D02*
X215132000Y-98086000D01*
X215132000Y-98086000D02*
X206192000Y-98086000D01*
X206192000Y-98086000D02*
X206192000Y-92926000D01*
X214662000Y-96506000D02*
G75*
G03*
X214662000Y-96506000I-250000J0D01*
G01*
X207162000Y-96506000D02*
G75*
G03*
X207162000Y-96506000I-250000J0D01*
G01*
%TO.C,J73*%
X197252000Y-92926000D02*
X206192000Y-92926000D01*
X206192000Y-92926000D02*
X206192000Y-98086000D01*
X206192000Y-98086000D02*
X197252000Y-98086000D01*
X197252000Y-98086000D02*
X197252000Y-92926000D01*
X205722000Y-96506000D02*
G75*
G03*
X205722000Y-96506000I-250000J0D01*
G01*
X198222000Y-96506000D02*
G75*
G03*
X198222000Y-96506000I-250000J0D01*
G01*
%TO.C,J71*%
X188312000Y-92926000D02*
X197252000Y-92926000D01*
X197252000Y-92926000D02*
X197252000Y-98086000D01*
X197252000Y-98086000D02*
X188312000Y-98086000D01*
X188312000Y-98086000D02*
X188312000Y-92926000D01*
X196782000Y-96506000D02*
G75*
G03*
X196782000Y-96506000I-250000J0D01*
G01*
X189282000Y-96506000D02*
G75*
G03*
X189282000Y-96506000I-250000J0D01*
G01*
%TO.C,J69*%
X179372000Y-92926000D02*
X188312000Y-92926000D01*
X188312000Y-92926000D02*
X188312000Y-98086000D01*
X188312000Y-98086000D02*
X179372000Y-98086000D01*
X179372000Y-98086000D02*
X179372000Y-92926000D01*
X187842000Y-96506000D02*
G75*
G03*
X187842000Y-96506000I-250000J0D01*
G01*
X180342000Y-96506000D02*
G75*
G03*
X180342000Y-96506000I-250000J0D01*
G01*
%TO.C,J67*%
X170432000Y-92926000D02*
X179372000Y-92926000D01*
X179372000Y-92926000D02*
X179372000Y-98086000D01*
X179372000Y-98086000D02*
X170432000Y-98086000D01*
X170432000Y-98086000D02*
X170432000Y-92926000D01*
X178902000Y-96506000D02*
G75*
G03*
X178902000Y-96506000I-250000J0D01*
G01*
X171402000Y-96506000D02*
G75*
G03*
X171402000Y-96506000I-250000J0D01*
G01*
%TO.C,J65*%
X161492000Y-92926000D02*
X170432000Y-92926000D01*
X170432000Y-92926000D02*
X170432000Y-98086000D01*
X170432000Y-98086000D02*
X161492000Y-98086000D01*
X161492000Y-98086000D02*
X161492000Y-92926000D01*
X169962000Y-96506000D02*
G75*
G03*
X169962000Y-96506000I-250000J0D01*
G01*
X162462000Y-96506000D02*
G75*
G03*
X162462000Y-96506000I-250000J0D01*
G01*
%TO.C,J63*%
X152552000Y-92926000D02*
X161492000Y-92926000D01*
X161492000Y-92926000D02*
X161492000Y-98086000D01*
X161492000Y-98086000D02*
X152552000Y-98086000D01*
X152552000Y-98086000D02*
X152552000Y-92926000D01*
X161022000Y-96506000D02*
G75*
G03*
X161022000Y-96506000I-250000J0D01*
G01*
X153522000Y-96506000D02*
G75*
G03*
X153522000Y-96506000I-250000J0D01*
G01*
%TO.C,J61*%
X143612000Y-92926000D02*
X152552000Y-92926000D01*
X152552000Y-92926000D02*
X152552000Y-98086000D01*
X152552000Y-98086000D02*
X143612000Y-98086000D01*
X143612000Y-98086000D02*
X143612000Y-92926000D01*
X152082000Y-96506000D02*
G75*
G03*
X152082000Y-96506000I-250000J0D01*
G01*
X144582000Y-96506000D02*
G75*
G03*
X144582000Y-96506000I-250000J0D01*
G01*
%TO.C,J59*%
X224072000Y-87766000D02*
X233012000Y-87766000D01*
X233012000Y-87766000D02*
X233012000Y-92926000D01*
X233012000Y-92926000D02*
X224072000Y-92926000D01*
X224072000Y-92926000D02*
X224072000Y-87766000D01*
X232542000Y-91346000D02*
G75*
G03*
X232542000Y-91346000I-250000J0D01*
G01*
X225042000Y-91346000D02*
G75*
G03*
X225042000Y-91346000I-250000J0D01*
G01*
%TO.C,J57*%
X215132000Y-87766000D02*
X224072000Y-87766000D01*
X224072000Y-87766000D02*
X224072000Y-92926000D01*
X224072000Y-92926000D02*
X215132000Y-92926000D01*
X215132000Y-92926000D02*
X215132000Y-87766000D01*
X223602000Y-91346000D02*
G75*
G03*
X223602000Y-91346000I-250000J0D01*
G01*
X216102000Y-91346000D02*
G75*
G03*
X216102000Y-91346000I-250000J0D01*
G01*
%TO.C,J55*%
X206192000Y-87766000D02*
X215132000Y-87766000D01*
X215132000Y-87766000D02*
X215132000Y-92926000D01*
X215132000Y-92926000D02*
X206192000Y-92926000D01*
X206192000Y-92926000D02*
X206192000Y-87766000D01*
X214662000Y-91346000D02*
G75*
G03*
X214662000Y-91346000I-250000J0D01*
G01*
X207162000Y-91346000D02*
G75*
G03*
X207162000Y-91346000I-250000J0D01*
G01*
%TO.C,J53*%
X197252000Y-87766000D02*
X206192000Y-87766000D01*
X206192000Y-87766000D02*
X206192000Y-92926000D01*
X206192000Y-92926000D02*
X197252000Y-92926000D01*
X197252000Y-92926000D02*
X197252000Y-87766000D01*
X205722000Y-91346000D02*
G75*
G03*
X205722000Y-91346000I-250000J0D01*
G01*
X198222000Y-91346000D02*
G75*
G03*
X198222000Y-91346000I-250000J0D01*
G01*
%TO.C,J51*%
X188312000Y-87766000D02*
X197252000Y-87766000D01*
X197252000Y-87766000D02*
X197252000Y-92926000D01*
X197252000Y-92926000D02*
X188312000Y-92926000D01*
X188312000Y-92926000D02*
X188312000Y-87766000D01*
X196782000Y-91346000D02*
G75*
G03*
X196782000Y-91346000I-250000J0D01*
G01*
X189282000Y-91346000D02*
G75*
G03*
X189282000Y-91346000I-250000J0D01*
G01*
%TO.C,J49*%
X179372000Y-87766000D02*
X188312000Y-87766000D01*
X188312000Y-87766000D02*
X188312000Y-92926000D01*
X188312000Y-92926000D02*
X179372000Y-92926000D01*
X179372000Y-92926000D02*
X179372000Y-87766000D01*
X187842000Y-91346000D02*
G75*
G03*
X187842000Y-91346000I-250000J0D01*
G01*
X180342000Y-91346000D02*
G75*
G03*
X180342000Y-91346000I-250000J0D01*
G01*
%TO.C,J47*%
X170432000Y-87766000D02*
X179372000Y-87766000D01*
X179372000Y-87766000D02*
X179372000Y-92926000D01*
X179372000Y-92926000D02*
X170432000Y-92926000D01*
X170432000Y-92926000D02*
X170432000Y-87766000D01*
X178902000Y-91346000D02*
G75*
G03*
X178902000Y-91346000I-250000J0D01*
G01*
X171402000Y-91346000D02*
G75*
G03*
X171402000Y-91346000I-250000J0D01*
G01*
%TO.C,J45*%
X161492000Y-87766000D02*
X170432000Y-87766000D01*
X170432000Y-87766000D02*
X170432000Y-92926000D01*
X170432000Y-92926000D02*
X161492000Y-92926000D01*
X161492000Y-92926000D02*
X161492000Y-87766000D01*
X169962000Y-91346000D02*
G75*
G03*
X169962000Y-91346000I-250000J0D01*
G01*
X162462000Y-91346000D02*
G75*
G03*
X162462000Y-91346000I-250000J0D01*
G01*
%TO.C,J43*%
X152552000Y-87766000D02*
X161492000Y-87766000D01*
X161492000Y-87766000D02*
X161492000Y-92926000D01*
X161492000Y-92926000D02*
X152552000Y-92926000D01*
X152552000Y-92926000D02*
X152552000Y-87766000D01*
X161022000Y-91346000D02*
G75*
G03*
X161022000Y-91346000I-250000J0D01*
G01*
X153522000Y-91346000D02*
G75*
G03*
X153522000Y-91346000I-250000J0D01*
G01*
%TO.C,J41*%
X143612000Y-87766000D02*
X152552000Y-87766000D01*
X152552000Y-87766000D02*
X152552000Y-92926000D01*
X152552000Y-92926000D02*
X143612000Y-92926000D01*
X143612000Y-92926000D02*
X143612000Y-87766000D01*
X152082000Y-91346000D02*
G75*
G03*
X152082000Y-91346000I-250000J0D01*
G01*
X144582000Y-91346000D02*
G75*
G03*
X144582000Y-91346000I-250000J0D01*
G01*
%TO.C,J39*%
X224072000Y-82606000D02*
X233012000Y-82606000D01*
X233012000Y-82606000D02*
X233012000Y-87766000D01*
X233012000Y-87766000D02*
X224072000Y-87766000D01*
X224072000Y-87766000D02*
X224072000Y-82606000D01*
X232542000Y-86186000D02*
G75*
G03*
X232542000Y-86186000I-250000J0D01*
G01*
X225042000Y-86186000D02*
G75*
G03*
X225042000Y-86186000I-250000J0D01*
G01*
%TO.C,J37*%
X215132000Y-82606000D02*
X224072000Y-82606000D01*
X224072000Y-82606000D02*
X224072000Y-87766000D01*
X224072000Y-87766000D02*
X215132000Y-87766000D01*
X215132000Y-87766000D02*
X215132000Y-82606000D01*
X223602000Y-86186000D02*
G75*
G03*
X223602000Y-86186000I-250000J0D01*
G01*
X216102000Y-86186000D02*
G75*
G03*
X216102000Y-86186000I-250000J0D01*
G01*
%TO.C,J35*%
X206192000Y-82606000D02*
X215132000Y-82606000D01*
X215132000Y-82606000D02*
X215132000Y-87766000D01*
X215132000Y-87766000D02*
X206192000Y-87766000D01*
X206192000Y-87766000D02*
X206192000Y-82606000D01*
X214662000Y-86186000D02*
G75*
G03*
X214662000Y-86186000I-250000J0D01*
G01*
X207162000Y-86186000D02*
G75*
G03*
X207162000Y-86186000I-250000J0D01*
G01*
%TO.C,J33*%
X197252000Y-82606000D02*
X206192000Y-82606000D01*
X206192000Y-82606000D02*
X206192000Y-87766000D01*
X206192000Y-87766000D02*
X197252000Y-87766000D01*
X197252000Y-87766000D02*
X197252000Y-82606000D01*
X205722000Y-86186000D02*
G75*
G03*
X205722000Y-86186000I-250000J0D01*
G01*
X198222000Y-86186000D02*
G75*
G03*
X198222000Y-86186000I-250000J0D01*
G01*
%TO.C,J31*%
X188312000Y-82606000D02*
X197252000Y-82606000D01*
X197252000Y-82606000D02*
X197252000Y-87766000D01*
X197252000Y-87766000D02*
X188312000Y-87766000D01*
X188312000Y-87766000D02*
X188312000Y-82606000D01*
X196782000Y-86186000D02*
G75*
G03*
X196782000Y-86186000I-250000J0D01*
G01*
X189282000Y-86186000D02*
G75*
G03*
X189282000Y-86186000I-250000J0D01*
G01*
%TO.C,J29*%
X179372000Y-82606000D02*
X188312000Y-82606000D01*
X188312000Y-82606000D02*
X188312000Y-87766000D01*
X188312000Y-87766000D02*
X179372000Y-87766000D01*
X179372000Y-87766000D02*
X179372000Y-82606000D01*
X187842000Y-86186000D02*
G75*
G03*
X187842000Y-86186000I-250000J0D01*
G01*
X180342000Y-86186000D02*
G75*
G03*
X180342000Y-86186000I-250000J0D01*
G01*
%TO.C,J27*%
X170432000Y-82606000D02*
X179372000Y-82606000D01*
X179372000Y-82606000D02*
X179372000Y-87766000D01*
X179372000Y-87766000D02*
X170432000Y-87766000D01*
X170432000Y-87766000D02*
X170432000Y-82606000D01*
X178902000Y-86186000D02*
G75*
G03*
X178902000Y-86186000I-250000J0D01*
G01*
X171402000Y-86186000D02*
G75*
G03*
X171402000Y-86186000I-250000J0D01*
G01*
%TO.C,J25*%
X161492000Y-82606000D02*
X170432000Y-82606000D01*
X170432000Y-82606000D02*
X170432000Y-87766000D01*
X170432000Y-87766000D02*
X161492000Y-87766000D01*
X161492000Y-87766000D02*
X161492000Y-82606000D01*
X169962000Y-86186000D02*
G75*
G03*
X169962000Y-86186000I-250000J0D01*
G01*
X162462000Y-86186000D02*
G75*
G03*
X162462000Y-86186000I-250000J0D01*
G01*
%TO.C,J23*%
X152552000Y-82606000D02*
X161492000Y-82606000D01*
X161492000Y-82606000D02*
X161492000Y-87766000D01*
X161492000Y-87766000D02*
X152552000Y-87766000D01*
X152552000Y-87766000D02*
X152552000Y-82606000D01*
X161022000Y-86186000D02*
G75*
G03*
X161022000Y-86186000I-250000J0D01*
G01*
X153522000Y-86186000D02*
G75*
G03*
X153522000Y-86186000I-250000J0D01*
G01*
%TO.C,J21*%
X143612000Y-82606000D02*
X152552000Y-82606000D01*
X152552000Y-82606000D02*
X152552000Y-87766000D01*
X152552000Y-87766000D02*
X143612000Y-87766000D01*
X143612000Y-87766000D02*
X143612000Y-82606000D01*
X152082000Y-86186000D02*
G75*
G03*
X152082000Y-86186000I-250000J0D01*
G01*
X144582000Y-86186000D02*
G75*
G03*
X144582000Y-86186000I-250000J0D01*
G01*
%TO.C,J19*%
X224072000Y-77446000D02*
X233012000Y-77446000D01*
X233012000Y-77446000D02*
X233012000Y-82606000D01*
X233012000Y-82606000D02*
X224072000Y-82606000D01*
X224072000Y-82606000D02*
X224072000Y-77446000D01*
X232542000Y-81026000D02*
G75*
G03*
X232542000Y-81026000I-250000J0D01*
G01*
X225042000Y-81026000D02*
G75*
G03*
X225042000Y-81026000I-250000J0D01*
G01*
%TO.C,J17*%
X215132000Y-77446000D02*
X224072000Y-77446000D01*
X224072000Y-77446000D02*
X224072000Y-82606000D01*
X224072000Y-82606000D02*
X215132000Y-82606000D01*
X215132000Y-82606000D02*
X215132000Y-77446000D01*
X223602000Y-81026000D02*
G75*
G03*
X223602000Y-81026000I-250000J0D01*
G01*
X216102000Y-81026000D02*
G75*
G03*
X216102000Y-81026000I-250000J0D01*
G01*
%TO.C,J15*%
X206192000Y-77446000D02*
X215132000Y-77446000D01*
X215132000Y-77446000D02*
X215132000Y-82606000D01*
X215132000Y-82606000D02*
X206192000Y-82606000D01*
X206192000Y-82606000D02*
X206192000Y-77446000D01*
X214662000Y-81026000D02*
G75*
G03*
X214662000Y-81026000I-250000J0D01*
G01*
X207162000Y-81026000D02*
G75*
G03*
X207162000Y-81026000I-250000J0D01*
G01*
%TO.C,J13*%
X197252000Y-77446000D02*
X206192000Y-77446000D01*
X206192000Y-77446000D02*
X206192000Y-82606000D01*
X206192000Y-82606000D02*
X197252000Y-82606000D01*
X197252000Y-82606000D02*
X197252000Y-77446000D01*
X205722000Y-81026000D02*
G75*
G03*
X205722000Y-81026000I-250000J0D01*
G01*
X198222000Y-81026000D02*
G75*
G03*
X198222000Y-81026000I-250000J0D01*
G01*
%TO.C,J11*%
X188312000Y-77446000D02*
X197252000Y-77446000D01*
X197252000Y-77446000D02*
X197252000Y-82606000D01*
X197252000Y-82606000D02*
X188312000Y-82606000D01*
X188312000Y-82606000D02*
X188312000Y-77446000D01*
X196782000Y-81026000D02*
G75*
G03*
X196782000Y-81026000I-250000J0D01*
G01*
X189282000Y-81026000D02*
G75*
G03*
X189282000Y-81026000I-250000J0D01*
G01*
%TO.C,J9*%
X179372000Y-77446000D02*
X188312000Y-77446000D01*
X188312000Y-77446000D02*
X188312000Y-82606000D01*
X188312000Y-82606000D02*
X179372000Y-82606000D01*
X179372000Y-82606000D02*
X179372000Y-77446000D01*
X187842000Y-81026000D02*
G75*
G03*
X187842000Y-81026000I-250000J0D01*
G01*
X180342000Y-81026000D02*
G75*
G03*
X180342000Y-81026000I-250000J0D01*
G01*
%TO.C,J7*%
X170432000Y-77446000D02*
X179372000Y-77446000D01*
X179372000Y-77446000D02*
X179372000Y-82606000D01*
X179372000Y-82606000D02*
X170432000Y-82606000D01*
X170432000Y-82606000D02*
X170432000Y-77446000D01*
X178902000Y-81026000D02*
G75*
G03*
X178902000Y-81026000I-250000J0D01*
G01*
X171402000Y-81026000D02*
G75*
G03*
X171402000Y-81026000I-250000J0D01*
G01*
%TO.C,J5*%
X161492000Y-77446000D02*
X170432000Y-77446000D01*
X170432000Y-77446000D02*
X170432000Y-82606000D01*
X170432000Y-82606000D02*
X161492000Y-82606000D01*
X161492000Y-82606000D02*
X161492000Y-77446000D01*
X169962000Y-81026000D02*
G75*
G03*
X169962000Y-81026000I-250000J0D01*
G01*
X162462000Y-81026000D02*
G75*
G03*
X162462000Y-81026000I-250000J0D01*
G01*
%TO.C,J3*%
X152552000Y-77446000D02*
X161492000Y-77446000D01*
X161492000Y-77446000D02*
X161492000Y-82606000D01*
X161492000Y-82606000D02*
X152552000Y-82606000D01*
X152552000Y-82606000D02*
X152552000Y-77446000D01*
X161022000Y-81026000D02*
G75*
G03*
X161022000Y-81026000I-250000J0D01*
G01*
X153522000Y-81026000D02*
G75*
G03*
X153522000Y-81026000I-250000J0D01*
G01*
%TO.C,J1*%
X143612000Y-77446000D02*
X152552000Y-77446000D01*
X152552000Y-77446000D02*
X152552000Y-82606000D01*
X152552000Y-82606000D02*
X143612000Y-82606000D01*
X143612000Y-82606000D02*
X143612000Y-77446000D01*
X152082000Y-81026000D02*
G75*
G03*
X152082000Y-81026000I-250000J0D01*
G01*
X144582000Y-81026000D02*
G75*
G03*
X144582000Y-81026000I-250000J0D01*
G01*
%TD*%
M02*
