%TF.GenerationSoftware,KiCad,Pcbnew,(6.0.7)*%
%TF.CreationDate,2023-04-07T20:00:28+08:00*%
%TF.ProjectId,MicroUSB2TypeCPanelization,4d696372-6f55-4534-9232-547970654350,rev?*%
%TF.SameCoordinates,Original*%
%TF.FileFunction,Other,ECO1*%
%FSLAX46Y46*%
G04 Gerber Fmt 4.6, Leading zero omitted, Abs format (unit mm)*
G04 Created by KiCad (PCBNEW (6.0.7)) date 2023-04-07 20:00:28*
%MOMM*%
%LPD*%
G01*
G04 APERTURE LIST*
%ADD10C,0.150000*%
G04 APERTURE END LIST*
D10*
X143300000Y-144520000D02*
X142400000Y-143620000D01*
X143300000Y-144520000D02*
X138000000Y-144520000D01*
X137480952Y-142872380D02*
X137814285Y-143872380D01*
X138147619Y-142872380D01*
X138480952Y-143491428D02*
X139242857Y-143491428D01*
X140147619Y-143824761D02*
X140052380Y-143872380D01*
X139861904Y-143872380D01*
X139766666Y-143824761D01*
X139719047Y-143777142D01*
X139671428Y-143681904D01*
X139671428Y-143396190D01*
X139719047Y-143300952D01*
X139766666Y-143253333D01*
X139861904Y-143205714D01*
X140052380Y-143205714D01*
X140147619Y-143253333D01*
X141004761Y-143205714D02*
X141004761Y-143872380D01*
X140576190Y-143205714D02*
X140576190Y-143729523D01*
X140623809Y-143824761D01*
X140719047Y-143872380D01*
X140861904Y-143872380D01*
X140957142Y-143824761D01*
X141004761Y-143777142D01*
X141338095Y-143205714D02*
X141719047Y-143205714D01*
X141480952Y-142872380D02*
X141480952Y-143729523D01*
X141528571Y-143824761D01*
X141623809Y-143872380D01*
X141719047Y-143872380D01*
X143300000Y-139360000D02*
X142400000Y-138460000D01*
X137480952Y-137712380D02*
X137814285Y-138712380D01*
X138147619Y-137712380D01*
X138480952Y-138331428D02*
X139242857Y-138331428D01*
X140147619Y-138664761D02*
X140052380Y-138712380D01*
X139861904Y-138712380D01*
X139766666Y-138664761D01*
X139719047Y-138617142D01*
X139671428Y-138521904D01*
X139671428Y-138236190D01*
X139719047Y-138140952D01*
X139766666Y-138093333D01*
X139861904Y-138045714D01*
X140052380Y-138045714D01*
X140147619Y-138093333D01*
X141004761Y-138045714D02*
X141004761Y-138712380D01*
X140576190Y-138045714D02*
X140576190Y-138569523D01*
X140623809Y-138664761D01*
X140719047Y-138712380D01*
X140861904Y-138712380D01*
X140957142Y-138664761D01*
X141004761Y-138617142D01*
X141338095Y-138045714D02*
X141719047Y-138045714D01*
X141480952Y-137712380D02*
X141480952Y-138569523D01*
X141528571Y-138664761D01*
X141623809Y-138712380D01*
X141719047Y-138712380D01*
X143300000Y-139360000D02*
X138000000Y-139360000D01*
X143300000Y-134200000D02*
X138000000Y-134200000D01*
X137480952Y-132552380D02*
X137814285Y-133552380D01*
X138147619Y-132552380D01*
X138480952Y-133171428D02*
X139242857Y-133171428D01*
X140147619Y-133504761D02*
X140052380Y-133552380D01*
X139861904Y-133552380D01*
X139766666Y-133504761D01*
X139719047Y-133457142D01*
X139671428Y-133361904D01*
X139671428Y-133076190D01*
X139719047Y-132980952D01*
X139766666Y-132933333D01*
X139861904Y-132885714D01*
X140052380Y-132885714D01*
X140147619Y-132933333D01*
X141004761Y-132885714D02*
X141004761Y-133552380D01*
X140576190Y-132885714D02*
X140576190Y-133409523D01*
X140623809Y-133504761D01*
X140719047Y-133552380D01*
X140861904Y-133552380D01*
X140957142Y-133504761D01*
X141004761Y-133457142D01*
X141338095Y-132885714D02*
X141719047Y-132885714D01*
X141480952Y-132552380D02*
X141480952Y-133409523D01*
X141528571Y-133504761D01*
X141623809Y-133552380D01*
X141719047Y-133552380D01*
X143300000Y-134200000D02*
X142400000Y-133300000D01*
X143300000Y-129040000D02*
X142400000Y-128140000D01*
X143300000Y-129040000D02*
X138000000Y-129040000D01*
X137480952Y-127392380D02*
X137814285Y-128392380D01*
X138147619Y-127392380D01*
X138480952Y-128011428D02*
X139242857Y-128011428D01*
X140147619Y-128344761D02*
X140052380Y-128392380D01*
X139861904Y-128392380D01*
X139766666Y-128344761D01*
X139719047Y-128297142D01*
X139671428Y-128201904D01*
X139671428Y-127916190D01*
X139719047Y-127820952D01*
X139766666Y-127773333D01*
X139861904Y-127725714D01*
X140052380Y-127725714D01*
X140147619Y-127773333D01*
X141004761Y-127725714D02*
X141004761Y-128392380D01*
X140576190Y-127725714D02*
X140576190Y-128249523D01*
X140623809Y-128344761D01*
X140719047Y-128392380D01*
X140861904Y-128392380D01*
X140957142Y-128344761D01*
X141004761Y-128297142D01*
X141338095Y-127725714D02*
X141719047Y-127725714D01*
X141480952Y-127392380D02*
X141480952Y-128249523D01*
X141528571Y-128344761D01*
X141623809Y-128392380D01*
X141719047Y-128392380D01*
X143300000Y-123880000D02*
X142400000Y-122980000D01*
X143300000Y-123880000D02*
X138000000Y-123880000D01*
X137480952Y-122232380D02*
X137814285Y-123232380D01*
X138147619Y-122232380D01*
X138480952Y-122851428D02*
X139242857Y-122851428D01*
X140147619Y-123184761D02*
X140052380Y-123232380D01*
X139861904Y-123232380D01*
X139766666Y-123184761D01*
X139719047Y-123137142D01*
X139671428Y-123041904D01*
X139671428Y-122756190D01*
X139719047Y-122660952D01*
X139766666Y-122613333D01*
X139861904Y-122565714D01*
X140052380Y-122565714D01*
X140147619Y-122613333D01*
X141004761Y-122565714D02*
X141004761Y-123232380D01*
X140576190Y-122565714D02*
X140576190Y-123089523D01*
X140623809Y-123184761D01*
X140719047Y-123232380D01*
X140861904Y-123232380D01*
X140957142Y-123184761D01*
X141004761Y-123137142D01*
X141338095Y-122565714D02*
X141719047Y-122565714D01*
X141480952Y-122232380D02*
X141480952Y-123089523D01*
X141528571Y-123184761D01*
X141623809Y-123232380D01*
X141719047Y-123232380D01*
X143300000Y-118720000D02*
X142400000Y-117820000D01*
X143300000Y-118720000D02*
X138000000Y-118720000D01*
X137480952Y-117072380D02*
X137814285Y-118072380D01*
X138147619Y-117072380D01*
X138480952Y-117691428D02*
X139242857Y-117691428D01*
X140147619Y-118024761D02*
X140052380Y-118072380D01*
X139861904Y-118072380D01*
X139766666Y-118024761D01*
X139719047Y-117977142D01*
X139671428Y-117881904D01*
X139671428Y-117596190D01*
X139719047Y-117500952D01*
X139766666Y-117453333D01*
X139861904Y-117405714D01*
X140052380Y-117405714D01*
X140147619Y-117453333D01*
X141004761Y-117405714D02*
X141004761Y-118072380D01*
X140576190Y-117405714D02*
X140576190Y-117929523D01*
X140623809Y-118024761D01*
X140719047Y-118072380D01*
X140861904Y-118072380D01*
X140957142Y-118024761D01*
X141004761Y-117977142D01*
X141338095Y-117405714D02*
X141719047Y-117405714D01*
X141480952Y-117072380D02*
X141480952Y-117929523D01*
X141528571Y-118024761D01*
X141623809Y-118072380D01*
X141719047Y-118072380D01*
X143300000Y-113560000D02*
X138000000Y-113560000D01*
X137480952Y-111912380D02*
X137814285Y-112912380D01*
X138147619Y-111912380D01*
X138480952Y-112531428D02*
X139242857Y-112531428D01*
X140147619Y-112864761D02*
X140052380Y-112912380D01*
X139861904Y-112912380D01*
X139766666Y-112864761D01*
X139719047Y-112817142D01*
X139671428Y-112721904D01*
X139671428Y-112436190D01*
X139719047Y-112340952D01*
X139766666Y-112293333D01*
X139861904Y-112245714D01*
X140052380Y-112245714D01*
X140147619Y-112293333D01*
X141004761Y-112245714D02*
X141004761Y-112912380D01*
X140576190Y-112245714D02*
X140576190Y-112769523D01*
X140623809Y-112864761D01*
X140719047Y-112912380D01*
X140861904Y-112912380D01*
X140957142Y-112864761D01*
X141004761Y-112817142D01*
X141338095Y-112245714D02*
X141719047Y-112245714D01*
X141480952Y-111912380D02*
X141480952Y-112769523D01*
X141528571Y-112864761D01*
X141623809Y-112912380D01*
X141719047Y-112912380D01*
X143300000Y-113560000D02*
X142400000Y-112660000D01*
X143300000Y-108400000D02*
X142400000Y-107500000D01*
X143300000Y-108400000D02*
X138000000Y-108400000D01*
X137480952Y-106752380D02*
X137814285Y-107752380D01*
X138147619Y-106752380D01*
X138480952Y-107371428D02*
X139242857Y-107371428D01*
X140147619Y-107704761D02*
X140052380Y-107752380D01*
X139861904Y-107752380D01*
X139766666Y-107704761D01*
X139719047Y-107657142D01*
X139671428Y-107561904D01*
X139671428Y-107276190D01*
X139719047Y-107180952D01*
X139766666Y-107133333D01*
X139861904Y-107085714D01*
X140052380Y-107085714D01*
X140147619Y-107133333D01*
X141004761Y-107085714D02*
X141004761Y-107752380D01*
X140576190Y-107085714D02*
X140576190Y-107609523D01*
X140623809Y-107704761D01*
X140719047Y-107752380D01*
X140861904Y-107752380D01*
X140957142Y-107704761D01*
X141004761Y-107657142D01*
X141338095Y-107085714D02*
X141719047Y-107085714D01*
X141480952Y-106752380D02*
X141480952Y-107609523D01*
X141528571Y-107704761D01*
X141623809Y-107752380D01*
X141719047Y-107752380D01*
X143300000Y-103240000D02*
X142400000Y-102340000D01*
X143300000Y-103240000D02*
X138000000Y-103240000D01*
X137480952Y-101592380D02*
X137814285Y-102592380D01*
X138147619Y-101592380D01*
X138480952Y-102211428D02*
X139242857Y-102211428D01*
X140147619Y-102544761D02*
X140052380Y-102592380D01*
X139861904Y-102592380D01*
X139766666Y-102544761D01*
X139719047Y-102497142D01*
X139671428Y-102401904D01*
X139671428Y-102116190D01*
X139719047Y-102020952D01*
X139766666Y-101973333D01*
X139861904Y-101925714D01*
X140052380Y-101925714D01*
X140147619Y-101973333D01*
X141004761Y-101925714D02*
X141004761Y-102592380D01*
X140576190Y-101925714D02*
X140576190Y-102449523D01*
X140623809Y-102544761D01*
X140719047Y-102592380D01*
X140861904Y-102592380D01*
X140957142Y-102544761D01*
X141004761Y-102497142D01*
X141338095Y-101925714D02*
X141719047Y-101925714D01*
X141480952Y-101592380D02*
X141480952Y-102449523D01*
X141528571Y-102544761D01*
X141623809Y-102592380D01*
X141719047Y-102592380D01*
X143300000Y-98080000D02*
X142400000Y-97180000D01*
X143300000Y-98080000D02*
X138000000Y-98080000D01*
X137480952Y-96432380D02*
X137814285Y-97432380D01*
X138147619Y-96432380D01*
X138480952Y-97051428D02*
X139242857Y-97051428D01*
X140147619Y-97384761D02*
X140052380Y-97432380D01*
X139861904Y-97432380D01*
X139766666Y-97384761D01*
X139719047Y-97337142D01*
X139671428Y-97241904D01*
X139671428Y-96956190D01*
X139719047Y-96860952D01*
X139766666Y-96813333D01*
X139861904Y-96765714D01*
X140052380Y-96765714D01*
X140147619Y-96813333D01*
X141004761Y-96765714D02*
X141004761Y-97432380D01*
X140576190Y-96765714D02*
X140576190Y-97289523D01*
X140623809Y-97384761D01*
X140719047Y-97432380D01*
X140861904Y-97432380D01*
X140957142Y-97384761D01*
X141004761Y-97337142D01*
X141338095Y-96765714D02*
X141719047Y-96765714D01*
X141480952Y-96432380D02*
X141480952Y-97289523D01*
X141528571Y-97384761D01*
X141623809Y-97432380D01*
X141719047Y-97432380D01*
X143300000Y-92920000D02*
X142400000Y-92020000D01*
X143300000Y-92920000D02*
X138000000Y-92920000D01*
X137480952Y-91272380D02*
X137814285Y-92272380D01*
X138147619Y-91272380D01*
X138480952Y-91891428D02*
X139242857Y-91891428D01*
X140147619Y-92224761D02*
X140052380Y-92272380D01*
X139861904Y-92272380D01*
X139766666Y-92224761D01*
X139719047Y-92177142D01*
X139671428Y-92081904D01*
X139671428Y-91796190D01*
X139719047Y-91700952D01*
X139766666Y-91653333D01*
X139861904Y-91605714D01*
X140052380Y-91605714D01*
X140147619Y-91653333D01*
X141004761Y-91605714D02*
X141004761Y-92272380D01*
X140576190Y-91605714D02*
X140576190Y-92129523D01*
X140623809Y-92224761D01*
X140719047Y-92272380D01*
X140861904Y-92272380D01*
X140957142Y-92224761D01*
X141004761Y-92177142D01*
X141338095Y-91605714D02*
X141719047Y-91605714D01*
X141480952Y-91272380D02*
X141480952Y-92129523D01*
X141528571Y-92224761D01*
X141623809Y-92272380D01*
X141719047Y-92272380D01*
X143300000Y-87760000D02*
X142400000Y-86860000D01*
X143300000Y-87760000D02*
X138000000Y-87760000D01*
X137480952Y-86112380D02*
X137814285Y-87112380D01*
X138147619Y-86112380D01*
X138480952Y-86731428D02*
X139242857Y-86731428D01*
X140147619Y-87064761D02*
X140052380Y-87112380D01*
X139861904Y-87112380D01*
X139766666Y-87064761D01*
X139719047Y-87017142D01*
X139671428Y-86921904D01*
X139671428Y-86636190D01*
X139719047Y-86540952D01*
X139766666Y-86493333D01*
X139861904Y-86445714D01*
X140052380Y-86445714D01*
X140147619Y-86493333D01*
X141004761Y-86445714D02*
X141004761Y-87112380D01*
X140576190Y-86445714D02*
X140576190Y-86969523D01*
X140623809Y-87064761D01*
X140719047Y-87112380D01*
X140861904Y-87112380D01*
X140957142Y-87064761D01*
X141004761Y-87017142D01*
X141338095Y-86445714D02*
X141719047Y-86445714D01*
X141480952Y-86112380D02*
X141480952Y-86969523D01*
X141528571Y-87064761D01*
X141623809Y-87112380D01*
X141719047Y-87112380D01*
X224170000Y-77150000D02*
X224170000Y-71850000D01*
X170530000Y-77150000D02*
X170530000Y-71850000D01*
X197350000Y-77150000D02*
X198250000Y-76250000D01*
X215230000Y-77150000D02*
X216130000Y-76250000D01*
X188410000Y-77150000D02*
X188410000Y-71850000D01*
X224170000Y-77150000D02*
X225070000Y-76250000D01*
X143300000Y-82600000D02*
X138000000Y-82600000D01*
X206290000Y-77150000D02*
X207190000Y-76250000D01*
X143300000Y-82600000D02*
X142400000Y-81700000D01*
X152650000Y-77150000D02*
X152650000Y-71850000D01*
X170530000Y-77150000D02*
X171430000Y-76250000D01*
X152650000Y-77150000D02*
X153550000Y-76250000D01*
X197350000Y-77150000D02*
X197350000Y-71850000D01*
X215230000Y-77150000D02*
X215230000Y-71850000D01*
X179470000Y-77150000D02*
X180370000Y-76250000D01*
X179470000Y-77150000D02*
X179470000Y-71850000D01*
X188410000Y-77150000D02*
X189310000Y-76250000D01*
X206290000Y-77150000D02*
X206290000Y-71850000D01*
X161590000Y-77150000D02*
X161590000Y-71850000D01*
X161590000Y-77150000D02*
X162490000Y-76250000D01*
X225817619Y-71330952D02*
X224817619Y-71664285D01*
X225817619Y-71997619D01*
X225198571Y-72330952D02*
X225198571Y-73092857D01*
X224865238Y-73997619D02*
X224817619Y-73902380D01*
X224817619Y-73711904D01*
X224865238Y-73616666D01*
X224912857Y-73569047D01*
X225008095Y-73521428D01*
X225293809Y-73521428D01*
X225389047Y-73569047D01*
X225436666Y-73616666D01*
X225484285Y-73711904D01*
X225484285Y-73902380D01*
X225436666Y-73997619D01*
X225484285Y-74854761D02*
X224817619Y-74854761D01*
X225484285Y-74426190D02*
X224960476Y-74426190D01*
X224865238Y-74473809D01*
X224817619Y-74569047D01*
X224817619Y-74711904D01*
X224865238Y-74807142D01*
X224912857Y-74854761D01*
X225484285Y-75188095D02*
X225484285Y-75569047D01*
X225817619Y-75330952D02*
X224960476Y-75330952D01*
X224865238Y-75378571D01*
X224817619Y-75473809D01*
X224817619Y-75569047D01*
X207937619Y-71330952D02*
X206937619Y-71664285D01*
X207937619Y-71997619D01*
X207318571Y-72330952D02*
X207318571Y-73092857D01*
X206985238Y-73997619D02*
X206937619Y-73902380D01*
X206937619Y-73711904D01*
X206985238Y-73616666D01*
X207032857Y-73569047D01*
X207128095Y-73521428D01*
X207413809Y-73521428D01*
X207509047Y-73569047D01*
X207556666Y-73616666D01*
X207604285Y-73711904D01*
X207604285Y-73902380D01*
X207556666Y-73997619D01*
X207604285Y-74854761D02*
X206937619Y-74854761D01*
X207604285Y-74426190D02*
X207080476Y-74426190D01*
X206985238Y-74473809D01*
X206937619Y-74569047D01*
X206937619Y-74711904D01*
X206985238Y-74807142D01*
X207032857Y-74854761D01*
X207604285Y-75188095D02*
X207604285Y-75569047D01*
X207937619Y-75330952D02*
X207080476Y-75330952D01*
X206985238Y-75378571D01*
X206937619Y-75473809D01*
X206937619Y-75569047D01*
X181117619Y-71330952D02*
X180117619Y-71664285D01*
X181117619Y-71997619D01*
X180498571Y-72330952D02*
X180498571Y-73092857D01*
X180165238Y-73997619D02*
X180117619Y-73902380D01*
X180117619Y-73711904D01*
X180165238Y-73616666D01*
X180212857Y-73569047D01*
X180308095Y-73521428D01*
X180593809Y-73521428D01*
X180689047Y-73569047D01*
X180736666Y-73616666D01*
X180784285Y-73711904D01*
X180784285Y-73902380D01*
X180736666Y-73997619D01*
X180784285Y-74854761D02*
X180117619Y-74854761D01*
X180784285Y-74426190D02*
X180260476Y-74426190D01*
X180165238Y-74473809D01*
X180117619Y-74569047D01*
X180117619Y-74711904D01*
X180165238Y-74807142D01*
X180212857Y-74854761D01*
X180784285Y-75188095D02*
X180784285Y-75569047D01*
X181117619Y-75330952D02*
X180260476Y-75330952D01*
X180165238Y-75378571D01*
X180117619Y-75473809D01*
X180117619Y-75569047D01*
X172177619Y-71330952D02*
X171177619Y-71664285D01*
X172177619Y-71997619D01*
X171558571Y-72330952D02*
X171558571Y-73092857D01*
X171225238Y-73997619D02*
X171177619Y-73902380D01*
X171177619Y-73711904D01*
X171225238Y-73616666D01*
X171272857Y-73569047D01*
X171368095Y-73521428D01*
X171653809Y-73521428D01*
X171749047Y-73569047D01*
X171796666Y-73616666D01*
X171844285Y-73711904D01*
X171844285Y-73902380D01*
X171796666Y-73997619D01*
X171844285Y-74854761D02*
X171177619Y-74854761D01*
X171844285Y-74426190D02*
X171320476Y-74426190D01*
X171225238Y-74473809D01*
X171177619Y-74569047D01*
X171177619Y-74711904D01*
X171225238Y-74807142D01*
X171272857Y-74854761D01*
X171844285Y-75188095D02*
X171844285Y-75569047D01*
X172177619Y-75330952D02*
X171320476Y-75330952D01*
X171225238Y-75378571D01*
X171177619Y-75473809D01*
X171177619Y-75569047D01*
X137480952Y-80952380D02*
X137814285Y-81952380D01*
X138147619Y-80952380D01*
X138480952Y-81571428D02*
X139242857Y-81571428D01*
X140147619Y-81904761D02*
X140052380Y-81952380D01*
X139861904Y-81952380D01*
X139766666Y-81904761D01*
X139719047Y-81857142D01*
X139671428Y-81761904D01*
X139671428Y-81476190D01*
X139719047Y-81380952D01*
X139766666Y-81333333D01*
X139861904Y-81285714D01*
X140052380Y-81285714D01*
X140147619Y-81333333D01*
X141004761Y-81285714D02*
X141004761Y-81952380D01*
X140576190Y-81285714D02*
X140576190Y-81809523D01*
X140623809Y-81904761D01*
X140719047Y-81952380D01*
X140861904Y-81952380D01*
X140957142Y-81904761D01*
X141004761Y-81857142D01*
X141338095Y-81285714D02*
X141719047Y-81285714D01*
X141480952Y-80952380D02*
X141480952Y-81809523D01*
X141528571Y-81904761D01*
X141623809Y-81952380D01*
X141719047Y-81952380D01*
X154297619Y-71330952D02*
X153297619Y-71664285D01*
X154297619Y-71997619D01*
X153678571Y-72330952D02*
X153678571Y-73092857D01*
X153345238Y-73997619D02*
X153297619Y-73902380D01*
X153297619Y-73711904D01*
X153345238Y-73616666D01*
X153392857Y-73569047D01*
X153488095Y-73521428D01*
X153773809Y-73521428D01*
X153869047Y-73569047D01*
X153916666Y-73616666D01*
X153964285Y-73711904D01*
X153964285Y-73902380D01*
X153916666Y-73997619D01*
X153964285Y-74854761D02*
X153297619Y-74854761D01*
X153964285Y-74426190D02*
X153440476Y-74426190D01*
X153345238Y-74473809D01*
X153297619Y-74569047D01*
X153297619Y-74711904D01*
X153345238Y-74807142D01*
X153392857Y-74854761D01*
X153964285Y-75188095D02*
X153964285Y-75569047D01*
X154297619Y-75330952D02*
X153440476Y-75330952D01*
X153345238Y-75378571D01*
X153297619Y-75473809D01*
X153297619Y-75569047D01*
X198997619Y-71330952D02*
X197997619Y-71664285D01*
X198997619Y-71997619D01*
X198378571Y-72330952D02*
X198378571Y-73092857D01*
X198045238Y-73997619D02*
X197997619Y-73902380D01*
X197997619Y-73711904D01*
X198045238Y-73616666D01*
X198092857Y-73569047D01*
X198188095Y-73521428D01*
X198473809Y-73521428D01*
X198569047Y-73569047D01*
X198616666Y-73616666D01*
X198664285Y-73711904D01*
X198664285Y-73902380D01*
X198616666Y-73997619D01*
X198664285Y-74854761D02*
X197997619Y-74854761D01*
X198664285Y-74426190D02*
X198140476Y-74426190D01*
X198045238Y-74473809D01*
X197997619Y-74569047D01*
X197997619Y-74711904D01*
X198045238Y-74807142D01*
X198092857Y-74854761D01*
X198664285Y-75188095D02*
X198664285Y-75569047D01*
X198997619Y-75330952D02*
X198140476Y-75330952D01*
X198045238Y-75378571D01*
X197997619Y-75473809D01*
X197997619Y-75569047D01*
X163237619Y-71330952D02*
X162237619Y-71664285D01*
X163237619Y-71997619D01*
X162618571Y-72330952D02*
X162618571Y-73092857D01*
X162285238Y-73997619D02*
X162237619Y-73902380D01*
X162237619Y-73711904D01*
X162285238Y-73616666D01*
X162332857Y-73569047D01*
X162428095Y-73521428D01*
X162713809Y-73521428D01*
X162809047Y-73569047D01*
X162856666Y-73616666D01*
X162904285Y-73711904D01*
X162904285Y-73902380D01*
X162856666Y-73997619D01*
X162904285Y-74854761D02*
X162237619Y-74854761D01*
X162904285Y-74426190D02*
X162380476Y-74426190D01*
X162285238Y-74473809D01*
X162237619Y-74569047D01*
X162237619Y-74711904D01*
X162285238Y-74807142D01*
X162332857Y-74854761D01*
X162904285Y-75188095D02*
X162904285Y-75569047D01*
X163237619Y-75330952D02*
X162380476Y-75330952D01*
X162285238Y-75378571D01*
X162237619Y-75473809D01*
X162237619Y-75569047D01*
X216877619Y-71330952D02*
X215877619Y-71664285D01*
X216877619Y-71997619D01*
X216258571Y-72330952D02*
X216258571Y-73092857D01*
X215925238Y-73997619D02*
X215877619Y-73902380D01*
X215877619Y-73711904D01*
X215925238Y-73616666D01*
X215972857Y-73569047D01*
X216068095Y-73521428D01*
X216353809Y-73521428D01*
X216449047Y-73569047D01*
X216496666Y-73616666D01*
X216544285Y-73711904D01*
X216544285Y-73902380D01*
X216496666Y-73997619D01*
X216544285Y-74854761D02*
X215877619Y-74854761D01*
X216544285Y-74426190D02*
X216020476Y-74426190D01*
X215925238Y-74473809D01*
X215877619Y-74569047D01*
X215877619Y-74711904D01*
X215925238Y-74807142D01*
X215972857Y-74854761D01*
X216544285Y-75188095D02*
X216544285Y-75569047D01*
X216877619Y-75330952D02*
X216020476Y-75330952D01*
X215925238Y-75378571D01*
X215877619Y-75473809D01*
X215877619Y-75569047D01*
X190057619Y-71330952D02*
X189057619Y-71664285D01*
X190057619Y-71997619D01*
X189438571Y-72330952D02*
X189438571Y-73092857D01*
X189105238Y-73997619D02*
X189057619Y-73902380D01*
X189057619Y-73711904D01*
X189105238Y-73616666D01*
X189152857Y-73569047D01*
X189248095Y-73521428D01*
X189533809Y-73521428D01*
X189629047Y-73569047D01*
X189676666Y-73616666D01*
X189724285Y-73711904D01*
X189724285Y-73902380D01*
X189676666Y-73997619D01*
X189724285Y-74854761D02*
X189057619Y-74854761D01*
X189724285Y-74426190D02*
X189200476Y-74426190D01*
X189105238Y-74473809D01*
X189057619Y-74569047D01*
X189057619Y-74711904D01*
X189105238Y-74807142D01*
X189152857Y-74854761D01*
X189724285Y-75188095D02*
X189724285Y-75569047D01*
X190057619Y-75330952D02*
X189200476Y-75330952D01*
X189105238Y-75378571D01*
X189057619Y-75473809D01*
X189057619Y-75569047D01*
M02*
