M48
; DRILL file {KiCad (6.0.7)} date Wed Apr  5 23:06:50 2023
; FORMAT={-:-/ absolute / inch / decimal}
; #@! TF.CreationDate,2023-04-05T23:06:50+08:00
; #@! TF.GenerationSoftware,Kicad,Pcbnew,(6.0.7)
; #@! TF.FileFunction,Plated,1,2,PTH
FMAT,2
INCH
; #@! TA.AperFunction,Plated,PTH,ViaDrill
T1C0.0079
; #@! TA.AperFunction,Plated,PTH,ViaDrill
T2C0.0118
%
G90
G05
T1
X5.7745Y-3.19
X5.7745Y-3.3144
X5.7745Y-3.4388
X5.7745Y-3.5632
X5.7745Y-3.6876
X5.7808Y-3.2241
X5.7808Y-3.3485
X5.7808Y-3.4729
X5.7808Y-3.5973
X5.7808Y-3.7217
X5.8202Y-3.1709
X5.8202Y-3.2953
X5.8202Y-3.4198
X5.8202Y-3.5442
X5.8202Y-3.6686
X5.8311Y-3.1913
X5.8311Y-3.3157
X5.8311Y-3.4402
X5.8311Y-3.5646
X5.8311Y-3.689
X5.8398Y-3.2142
X5.8398Y-3.3386
X5.8398Y-3.463
X5.8398Y-3.5874
X5.8398Y-3.7118
X5.8849Y-3.1895
X5.8849Y-3.3139
X5.8849Y-3.4383
X5.8849Y-3.5627
X5.8849Y-3.6871
X6.1265Y-3.19
X6.1265Y-3.3144
X6.1265Y-3.4388
X6.1265Y-3.5632
X6.1265Y-3.6876
X6.1328Y-3.2241
X6.1328Y-3.3485
X6.1328Y-3.4729
X6.1328Y-3.5973
X6.1328Y-3.7217
X6.1722Y-3.1709
X6.1722Y-3.2953
X6.1722Y-3.4198
X6.1722Y-3.5442
X6.1722Y-3.6686
X6.1831Y-3.1913
X6.1831Y-3.3157
X6.1831Y-3.4402
X6.1831Y-3.5646
X6.1831Y-3.689
X6.1917Y-3.2142
X6.1917Y-3.3386
X6.1917Y-3.463
X6.1917Y-3.5874
X6.1917Y-3.7118
X6.2369Y-3.1895
X6.2369Y-3.3139
X6.2369Y-3.4383
X6.2369Y-3.5627
X6.2369Y-3.6871
X6.4785Y-3.19
X6.4785Y-3.3144
X6.4785Y-3.4388
X6.4785Y-3.5632
X6.4785Y-3.6876
X6.4847Y-3.2241
X6.4847Y-3.3485
X6.4847Y-3.4729
X6.4847Y-3.5973
X6.4847Y-3.7217
X6.5241Y-3.1709
X6.5241Y-3.2953
X6.5241Y-3.4198
X6.5241Y-3.5442
X6.5241Y-3.6686
X6.535Y-3.1913
X6.535Y-3.3157
X6.535Y-3.4402
X6.535Y-3.5646
X6.535Y-3.689
X6.5437Y-3.2142
X6.5437Y-3.3386
X6.5437Y-3.463
X6.5437Y-3.5874
X6.5437Y-3.7118
X6.5889Y-3.1895
X6.5889Y-3.3139
X6.5889Y-3.4383
X6.5889Y-3.5627
X6.5889Y-3.6871
X6.8304Y-3.19
X6.8304Y-3.3144
X6.8304Y-3.4388
X6.8304Y-3.5632
X6.8304Y-3.6876
X6.8367Y-3.2241
X6.8367Y-3.3485
X6.8367Y-3.4729
X6.8367Y-3.5973
X6.8367Y-3.7217
X6.8761Y-3.1709
X6.8761Y-3.2953
X6.8761Y-3.4198
X6.8761Y-3.5442
X6.8761Y-3.6686
X6.887Y-3.1913
X6.887Y-3.3157
X6.887Y-3.4402
X6.887Y-3.5646
X6.887Y-3.689
X6.8957Y-3.2142
X6.8957Y-3.3386
X6.8957Y-3.463
X6.8957Y-3.5874
X6.8957Y-3.7118
X6.9408Y-3.1895
X6.9408Y-3.3139
X6.9408Y-3.4383
X6.9408Y-3.5627
X6.9408Y-3.6871
X7.1824Y-3.19
X7.1824Y-3.3144
X7.1824Y-3.4388
X7.1824Y-3.5632
X7.1824Y-3.6876
X7.1887Y-3.2241
X7.1887Y-3.3485
X7.1887Y-3.4729
X7.1887Y-3.5973
X7.1887Y-3.7217
X7.2281Y-3.1709
X7.2281Y-3.2953
X7.2281Y-3.4198
X7.2281Y-3.5442
X7.2281Y-3.6686
X7.239Y-3.1913
X7.239Y-3.3157
X7.239Y-3.4402
X7.239Y-3.5646
X7.239Y-3.689
X7.2476Y-3.2142
X7.2476Y-3.3386
X7.2476Y-3.463
X7.2476Y-3.5874
X7.2476Y-3.7118
X7.2928Y-3.1895
X7.2928Y-3.3139
X7.2928Y-3.4383
X7.2928Y-3.5627
X7.2928Y-3.6871
T2
X5.68Y-3.15
X5.68Y-3.23
X5.68Y-3.2744
X5.68Y-3.3544
X5.68Y-3.3988
X5.68Y-3.4788
X5.68Y-3.5232
X5.68Y-3.6032
X5.68Y-3.6476
X5.68Y-3.7276
X5.7303Y-3.2323
X5.7303Y-3.3567
X5.7303Y-3.4811
X5.7303Y-3.6055
X5.7303Y-3.7299
X5.7769Y-3.1559
X5.7769Y-3.2803
X5.7769Y-3.4047
X5.7769Y-3.5291
X5.7769Y-3.6535
X5.8831Y-3.1559
X5.8831Y-3.2803
X5.8831Y-3.4047
X5.8831Y-3.5291
X5.8831Y-3.6535
X5.9291Y-3.2343
X5.9291Y-3.3587
X5.9291Y-3.4831
X5.9291Y-3.6075
X5.9291Y-3.7319
X5.98Y-3.15
X5.98Y-3.23
X5.98Y-3.2744
X5.98Y-3.3544
X5.98Y-3.3988
X5.98Y-3.4788
X5.98Y-3.5232
X5.98Y-3.6032
X5.98Y-3.6476
X5.98Y-3.7276
X6.032Y-3.15
X6.032Y-3.23
X6.032Y-3.2744
X6.032Y-3.3544
X6.032Y-3.3988
X6.032Y-3.4788
X6.032Y-3.5232
X6.032Y-3.6032
X6.032Y-3.6476
X6.032Y-3.7276
X6.0823Y-3.2323
X6.0823Y-3.3567
X6.0823Y-3.4811
X6.0823Y-3.6055
X6.0823Y-3.7299
X6.1288Y-3.1559
X6.1288Y-3.2803
X6.1288Y-3.4047
X6.1288Y-3.5291
X6.1288Y-3.6535
X6.2351Y-3.1559
X6.2351Y-3.2803
X6.2351Y-3.4047
X6.2351Y-3.5291
X6.2351Y-3.6535
X6.2811Y-3.2343
X6.2811Y-3.3587
X6.2811Y-3.4831
X6.2811Y-3.6075
X6.2811Y-3.7319
X6.332Y-3.15
X6.332Y-3.23
X6.332Y-3.2744
X6.332Y-3.3544
X6.332Y-3.3988
X6.332Y-3.4788
X6.332Y-3.5232
X6.332Y-3.6032
X6.332Y-3.6476
X6.332Y-3.7276
X6.3839Y-3.15
X6.3839Y-3.23
X6.3839Y-3.2744
X6.3839Y-3.3544
X6.3839Y-3.3988
X6.3839Y-3.4788
X6.3839Y-3.5232
X6.3839Y-3.6032
X6.3839Y-3.6476
X6.3839Y-3.7276
X6.4343Y-3.2323
X6.4343Y-3.3567
X6.4343Y-3.4811
X6.4343Y-3.6055
X6.4343Y-3.7299
X6.4808Y-3.1559
X6.4808Y-3.2803
X6.4808Y-3.4047
X6.4808Y-3.5291
X6.4808Y-3.6535
X6.5871Y-3.1559
X6.5871Y-3.2803
X6.5871Y-3.4047
X6.5871Y-3.5291
X6.5871Y-3.6535
X6.6331Y-3.2343
X6.6331Y-3.3587
X6.6331Y-3.4831
X6.6331Y-3.6075
X6.6331Y-3.7319
X6.6839Y-3.15
X6.6839Y-3.23
X6.6839Y-3.2744
X6.6839Y-3.3544
X6.6839Y-3.3988
X6.6839Y-3.4788
X6.6839Y-3.5232
X6.6839Y-3.6032
X6.6839Y-3.6476
X6.6839Y-3.7276
X6.7359Y-3.15
X6.7359Y-3.23
X6.7359Y-3.2744
X6.7359Y-3.3544
X6.7359Y-3.3988
X6.7359Y-3.4788
X6.7359Y-3.5232
X6.7359Y-3.6032
X6.7359Y-3.6476
X6.7359Y-3.7276
X6.7862Y-3.2323
X6.7862Y-3.3567
X6.7862Y-3.4811
X6.7862Y-3.6055
X6.7862Y-3.7299
X6.8328Y-3.1559
X6.8328Y-3.2803
X6.8328Y-3.4047
X6.8328Y-3.5291
X6.8328Y-3.6535
X6.939Y-3.1559
X6.939Y-3.2803
X6.939Y-3.4047
X6.939Y-3.5291
X6.939Y-3.6535
X6.985Y-3.2343
X6.985Y-3.3587
X6.985Y-3.4831
X6.985Y-3.6075
X6.985Y-3.7319
X7.0359Y-3.15
X7.0359Y-3.23
X7.0359Y-3.2744
X7.0359Y-3.3544
X7.0359Y-3.3988
X7.0359Y-3.4788
X7.0359Y-3.5232
X7.0359Y-3.6032
X7.0359Y-3.6476
X7.0359Y-3.7276
X7.0879Y-3.15
X7.0879Y-3.23
X7.0879Y-3.2744
X7.0879Y-3.3544
X7.0879Y-3.3988
X7.0879Y-3.4788
X7.0879Y-3.5232
X7.0879Y-3.6032
X7.0879Y-3.6476
X7.0879Y-3.7276
X7.1382Y-3.2323
X7.1382Y-3.3567
X7.1382Y-3.4811
X7.1382Y-3.6055
X7.1382Y-3.7299
X7.1847Y-3.1559
X7.1847Y-3.2803
X7.1847Y-3.4047
X7.1847Y-3.5291
X7.1847Y-3.6535
X7.291Y-3.1559
X7.291Y-3.2803
X7.291Y-3.4047
X7.291Y-3.5291
X7.291Y-3.6535
X7.337Y-3.2343
X7.337Y-3.3587
X7.337Y-3.4831
X7.337Y-3.6075
X7.337Y-3.7319
X7.3879Y-3.15
X7.3879Y-3.23
X7.3879Y-3.2744
X7.3879Y-3.3544
X7.3879Y-3.3988
X7.3879Y-3.4788
X7.3879Y-3.5232
X7.3879Y-3.6032
X7.3879Y-3.6476
X7.3879Y-3.7276
T0
M30
