%TF.GenerationSoftware,KiCad,Pcbnew,(6.0.11)*%
%TF.CreationDate,2023-04-11T15:55:55+08:00*%
%TF.ProjectId,MicroUSB2TypeCPanelization,4d696372-6f55-4534-9232-547970654350,rev?*%
%TF.SameCoordinates,Original*%
%TF.FileFunction,Paste,Top*%
%TF.FilePolarity,Positive*%
%FSLAX46Y46*%
G04 Gerber Fmt 4.6, Leading zero omitted, Abs format (unit mm)*
G04 Created by KiCad (PCBNEW (6.0.11)) date 2023-04-11 15:55:55*
%MOMM*%
%LPD*%
G01*
G04 APERTURE LIST*
G04 Aperture macros list*
%AMRoundRect*
0 Rectangle with rounded corners*
0 $1 Rounding radius*
0 $2 $3 $4 $5 $6 $7 $8 $9 X,Y pos of 4 corners*
0 Add a 4 corners polygon primitive as box body*
4,1,4,$2,$3,$4,$5,$6,$7,$8,$9,$2,$3,0*
0 Add four circle primitives for the rounded corners*
1,1,$1+$1,$2,$3*
1,1,$1+$1,$4,$5*
1,1,$1+$1,$6,$7*
1,1,$1+$1,$8,$9*
0 Add four rect primitives between the rounded corners*
20,1,$1+$1,$2,$3,$4,$5,0*
20,1,$1+$1,$4,$5,$6,$7,0*
20,1,$1+$1,$6,$7,$8,$9,0*
20,1,$1+$1,$8,$9,$2,$3,0*%
G04 Aperture macros list end*
%ADD10R,0.900000X0.500000*%
%ADD11RoundRect,0.075000X-0.075000X-0.360000X0.075000X-0.360000X0.075000X0.360000X-0.075000X0.360000X0*%
G04 APERTURE END LIST*
D10*
%TO.C,J1*%
X230942000Y-142416000D03*
X230942000Y-139716000D03*
X226142000Y-142416000D03*
X226142000Y-139716000D03*
D11*
X225792000Y-141931000D03*
X227292000Y-141931000D03*
X227792000Y-141931000D03*
X228292000Y-141931000D03*
X228792000Y-141931000D03*
X229292000Y-141931000D03*
X229792000Y-141931000D03*
X231292000Y-141931000D03*
X231292000Y-140201000D03*
X229792000Y-140201000D03*
X229292000Y-140201000D03*
X228792000Y-140201000D03*
X228292000Y-140201000D03*
X227792000Y-140201000D03*
X227292000Y-140201000D03*
X225792000Y-140201000D03*
%TD*%
D10*
%TO.C,J1*%
X222002000Y-142416000D03*
X222002000Y-139716000D03*
X217202000Y-142416000D03*
X217202000Y-139716000D03*
D11*
X216852000Y-141931000D03*
X218352000Y-141931000D03*
X218852000Y-141931000D03*
X219352000Y-141931000D03*
X219852000Y-141931000D03*
X220352000Y-141931000D03*
X220852000Y-141931000D03*
X222352000Y-141931000D03*
X222352000Y-140201000D03*
X220852000Y-140201000D03*
X220352000Y-140201000D03*
X219852000Y-140201000D03*
X219352000Y-140201000D03*
X218852000Y-140201000D03*
X218352000Y-140201000D03*
X216852000Y-140201000D03*
%TD*%
D10*
%TO.C,J1*%
X213062000Y-142416000D03*
X213062000Y-139716000D03*
X208262000Y-142416000D03*
X208262000Y-139716000D03*
D11*
X207912000Y-141931000D03*
X209412000Y-141931000D03*
X209912000Y-141931000D03*
X210412000Y-141931000D03*
X210912000Y-141931000D03*
X211412000Y-141931000D03*
X211912000Y-141931000D03*
X213412000Y-141931000D03*
X213412000Y-140201000D03*
X211912000Y-140201000D03*
X211412000Y-140201000D03*
X210912000Y-140201000D03*
X210412000Y-140201000D03*
X209912000Y-140201000D03*
X209412000Y-140201000D03*
X207912000Y-140201000D03*
%TD*%
D10*
%TO.C,J1*%
X204122000Y-142416000D03*
X204122000Y-139716000D03*
X199322000Y-142416000D03*
X199322000Y-139716000D03*
D11*
X198972000Y-141931000D03*
X200472000Y-141931000D03*
X200972000Y-141931000D03*
X201472000Y-141931000D03*
X201972000Y-141931000D03*
X202472000Y-141931000D03*
X202972000Y-141931000D03*
X204472000Y-141931000D03*
X204472000Y-140201000D03*
X202972000Y-140201000D03*
X202472000Y-140201000D03*
X201972000Y-140201000D03*
X201472000Y-140201000D03*
X200972000Y-140201000D03*
X200472000Y-140201000D03*
X198972000Y-140201000D03*
%TD*%
D10*
%TO.C,J1*%
X195182000Y-142416000D03*
X195182000Y-139716000D03*
X190382000Y-142416000D03*
X190382000Y-139716000D03*
D11*
X190032000Y-141931000D03*
X191532000Y-141931000D03*
X192032000Y-141931000D03*
X192532000Y-141931000D03*
X193032000Y-141931000D03*
X193532000Y-141931000D03*
X194032000Y-141931000D03*
X195532000Y-141931000D03*
X195532000Y-140201000D03*
X194032000Y-140201000D03*
X193532000Y-140201000D03*
X193032000Y-140201000D03*
X192532000Y-140201000D03*
X192032000Y-140201000D03*
X191532000Y-140201000D03*
X190032000Y-140201000D03*
%TD*%
D10*
%TO.C,J1*%
X186242000Y-142416000D03*
X186242000Y-139716000D03*
X181442000Y-142416000D03*
X181442000Y-139716000D03*
D11*
X181092000Y-141931000D03*
X182592000Y-141931000D03*
X183092000Y-141931000D03*
X183592000Y-141931000D03*
X184092000Y-141931000D03*
X184592000Y-141931000D03*
X185092000Y-141931000D03*
X186592000Y-141931000D03*
X186592000Y-140201000D03*
X185092000Y-140201000D03*
X184592000Y-140201000D03*
X184092000Y-140201000D03*
X183592000Y-140201000D03*
X183092000Y-140201000D03*
X182592000Y-140201000D03*
X181092000Y-140201000D03*
%TD*%
D10*
%TO.C,J1*%
X177302000Y-142416000D03*
X177302000Y-139716000D03*
X172502000Y-142416000D03*
X172502000Y-139716000D03*
D11*
X172152000Y-141931000D03*
X173652000Y-141931000D03*
X174152000Y-141931000D03*
X174652000Y-141931000D03*
X175152000Y-141931000D03*
X175652000Y-141931000D03*
X176152000Y-141931000D03*
X177652000Y-141931000D03*
X177652000Y-140201000D03*
X176152000Y-140201000D03*
X175652000Y-140201000D03*
X175152000Y-140201000D03*
X174652000Y-140201000D03*
X174152000Y-140201000D03*
X173652000Y-140201000D03*
X172152000Y-140201000D03*
%TD*%
D10*
%TO.C,J1*%
X168362000Y-142416000D03*
X168362000Y-139716000D03*
X163562000Y-142416000D03*
X163562000Y-139716000D03*
D11*
X163212000Y-141931000D03*
X164712000Y-141931000D03*
X165212000Y-141931000D03*
X165712000Y-141931000D03*
X166212000Y-141931000D03*
X166712000Y-141931000D03*
X167212000Y-141931000D03*
X168712000Y-141931000D03*
X168712000Y-140201000D03*
X167212000Y-140201000D03*
X166712000Y-140201000D03*
X166212000Y-140201000D03*
X165712000Y-140201000D03*
X165212000Y-140201000D03*
X164712000Y-140201000D03*
X163212000Y-140201000D03*
%TD*%
D10*
%TO.C,J1*%
X159422000Y-142416000D03*
X159422000Y-139716000D03*
X154622000Y-142416000D03*
X154622000Y-139716000D03*
D11*
X154272000Y-141931000D03*
X155772000Y-141931000D03*
X156272000Y-141931000D03*
X156772000Y-141931000D03*
X157272000Y-141931000D03*
X157772000Y-141931000D03*
X158272000Y-141931000D03*
X159772000Y-141931000D03*
X159772000Y-140201000D03*
X158272000Y-140201000D03*
X157772000Y-140201000D03*
X157272000Y-140201000D03*
X156772000Y-140201000D03*
X156272000Y-140201000D03*
X155772000Y-140201000D03*
X154272000Y-140201000D03*
%TD*%
D10*
%TO.C,J1*%
X150482000Y-142416000D03*
X150482000Y-139716000D03*
X145682000Y-142416000D03*
X145682000Y-139716000D03*
D11*
X145332000Y-141931000D03*
X146832000Y-141931000D03*
X147332000Y-141931000D03*
X147832000Y-141931000D03*
X148332000Y-141931000D03*
X148832000Y-141931000D03*
X149332000Y-141931000D03*
X150832000Y-141931000D03*
X150832000Y-140201000D03*
X149332000Y-140201000D03*
X148832000Y-140201000D03*
X148332000Y-140201000D03*
X147832000Y-140201000D03*
X147332000Y-140201000D03*
X146832000Y-140201000D03*
X145332000Y-140201000D03*
%TD*%
D10*
%TO.C,J1*%
X230942000Y-139256000D03*
X230942000Y-136556000D03*
X226142000Y-139256000D03*
X226142000Y-136556000D03*
D11*
X225792000Y-138771000D03*
X227292000Y-138771000D03*
X227792000Y-138771000D03*
X228292000Y-138771000D03*
X228792000Y-138771000D03*
X229292000Y-138771000D03*
X229792000Y-138771000D03*
X231292000Y-138771000D03*
X231292000Y-137041000D03*
X229792000Y-137041000D03*
X229292000Y-137041000D03*
X228792000Y-137041000D03*
X228292000Y-137041000D03*
X227792000Y-137041000D03*
X227292000Y-137041000D03*
X225792000Y-137041000D03*
%TD*%
D10*
%TO.C,J1*%
X222002000Y-139256000D03*
X222002000Y-136556000D03*
X217202000Y-139256000D03*
X217202000Y-136556000D03*
D11*
X216852000Y-138771000D03*
X218352000Y-138771000D03*
X218852000Y-138771000D03*
X219352000Y-138771000D03*
X219852000Y-138771000D03*
X220352000Y-138771000D03*
X220852000Y-138771000D03*
X222352000Y-138771000D03*
X222352000Y-137041000D03*
X220852000Y-137041000D03*
X220352000Y-137041000D03*
X219852000Y-137041000D03*
X219352000Y-137041000D03*
X218852000Y-137041000D03*
X218352000Y-137041000D03*
X216852000Y-137041000D03*
%TD*%
D10*
%TO.C,J1*%
X213062000Y-139256000D03*
X213062000Y-136556000D03*
X208262000Y-139256000D03*
X208262000Y-136556000D03*
D11*
X207912000Y-138771000D03*
X209412000Y-138771000D03*
X209912000Y-138771000D03*
X210412000Y-138771000D03*
X210912000Y-138771000D03*
X211412000Y-138771000D03*
X211912000Y-138771000D03*
X213412000Y-138771000D03*
X213412000Y-137041000D03*
X211912000Y-137041000D03*
X211412000Y-137041000D03*
X210912000Y-137041000D03*
X210412000Y-137041000D03*
X209912000Y-137041000D03*
X209412000Y-137041000D03*
X207912000Y-137041000D03*
%TD*%
D10*
%TO.C,J1*%
X204122000Y-139256000D03*
X204122000Y-136556000D03*
X199322000Y-139256000D03*
X199322000Y-136556000D03*
D11*
X198972000Y-138771000D03*
X200472000Y-138771000D03*
X200972000Y-138771000D03*
X201472000Y-138771000D03*
X201972000Y-138771000D03*
X202472000Y-138771000D03*
X202972000Y-138771000D03*
X204472000Y-138771000D03*
X204472000Y-137041000D03*
X202972000Y-137041000D03*
X202472000Y-137041000D03*
X201972000Y-137041000D03*
X201472000Y-137041000D03*
X200972000Y-137041000D03*
X200472000Y-137041000D03*
X198972000Y-137041000D03*
%TD*%
D10*
%TO.C,J1*%
X195182000Y-139256000D03*
X195182000Y-136556000D03*
X190382000Y-139256000D03*
X190382000Y-136556000D03*
D11*
X190032000Y-138771000D03*
X191532000Y-138771000D03*
X192032000Y-138771000D03*
X192532000Y-138771000D03*
X193032000Y-138771000D03*
X193532000Y-138771000D03*
X194032000Y-138771000D03*
X195532000Y-138771000D03*
X195532000Y-137041000D03*
X194032000Y-137041000D03*
X193532000Y-137041000D03*
X193032000Y-137041000D03*
X192532000Y-137041000D03*
X192032000Y-137041000D03*
X191532000Y-137041000D03*
X190032000Y-137041000D03*
%TD*%
D10*
%TO.C,J1*%
X186242000Y-139256000D03*
X186242000Y-136556000D03*
X181442000Y-139256000D03*
X181442000Y-136556000D03*
D11*
X181092000Y-138771000D03*
X182592000Y-138771000D03*
X183092000Y-138771000D03*
X183592000Y-138771000D03*
X184092000Y-138771000D03*
X184592000Y-138771000D03*
X185092000Y-138771000D03*
X186592000Y-138771000D03*
X186592000Y-137041000D03*
X185092000Y-137041000D03*
X184592000Y-137041000D03*
X184092000Y-137041000D03*
X183592000Y-137041000D03*
X183092000Y-137041000D03*
X182592000Y-137041000D03*
X181092000Y-137041000D03*
%TD*%
D10*
%TO.C,J1*%
X177302000Y-139256000D03*
X177302000Y-136556000D03*
X172502000Y-139256000D03*
X172502000Y-136556000D03*
D11*
X172152000Y-138771000D03*
X173652000Y-138771000D03*
X174152000Y-138771000D03*
X174652000Y-138771000D03*
X175152000Y-138771000D03*
X175652000Y-138771000D03*
X176152000Y-138771000D03*
X177652000Y-138771000D03*
X177652000Y-137041000D03*
X176152000Y-137041000D03*
X175652000Y-137041000D03*
X175152000Y-137041000D03*
X174652000Y-137041000D03*
X174152000Y-137041000D03*
X173652000Y-137041000D03*
X172152000Y-137041000D03*
%TD*%
D10*
%TO.C,J1*%
X168362000Y-139256000D03*
X168362000Y-136556000D03*
X163562000Y-139256000D03*
X163562000Y-136556000D03*
D11*
X163212000Y-138771000D03*
X164712000Y-138771000D03*
X165212000Y-138771000D03*
X165712000Y-138771000D03*
X166212000Y-138771000D03*
X166712000Y-138771000D03*
X167212000Y-138771000D03*
X168712000Y-138771000D03*
X168712000Y-137041000D03*
X167212000Y-137041000D03*
X166712000Y-137041000D03*
X166212000Y-137041000D03*
X165712000Y-137041000D03*
X165212000Y-137041000D03*
X164712000Y-137041000D03*
X163212000Y-137041000D03*
%TD*%
D10*
%TO.C,J1*%
X159422000Y-139256000D03*
X159422000Y-136556000D03*
X154622000Y-139256000D03*
X154622000Y-136556000D03*
D11*
X154272000Y-138771000D03*
X155772000Y-138771000D03*
X156272000Y-138771000D03*
X156772000Y-138771000D03*
X157272000Y-138771000D03*
X157772000Y-138771000D03*
X158272000Y-138771000D03*
X159772000Y-138771000D03*
X159772000Y-137041000D03*
X158272000Y-137041000D03*
X157772000Y-137041000D03*
X157272000Y-137041000D03*
X156772000Y-137041000D03*
X156272000Y-137041000D03*
X155772000Y-137041000D03*
X154272000Y-137041000D03*
%TD*%
D10*
%TO.C,J1*%
X150482000Y-139256000D03*
X150482000Y-136556000D03*
X145682000Y-139256000D03*
X145682000Y-136556000D03*
D11*
X145332000Y-138771000D03*
X146832000Y-138771000D03*
X147332000Y-138771000D03*
X147832000Y-138771000D03*
X148332000Y-138771000D03*
X148832000Y-138771000D03*
X149332000Y-138771000D03*
X150832000Y-138771000D03*
X150832000Y-137041000D03*
X149332000Y-137041000D03*
X148832000Y-137041000D03*
X148332000Y-137041000D03*
X147832000Y-137041000D03*
X147332000Y-137041000D03*
X146832000Y-137041000D03*
X145332000Y-137041000D03*
%TD*%
D10*
%TO.C,J1*%
X230942000Y-136096000D03*
X230942000Y-133396000D03*
X226142000Y-136096000D03*
X226142000Y-133396000D03*
D11*
X225792000Y-135611000D03*
X227292000Y-135611000D03*
X227792000Y-135611000D03*
X228292000Y-135611000D03*
X228792000Y-135611000D03*
X229292000Y-135611000D03*
X229792000Y-135611000D03*
X231292000Y-135611000D03*
X231292000Y-133881000D03*
X229792000Y-133881000D03*
X229292000Y-133881000D03*
X228792000Y-133881000D03*
X228292000Y-133881000D03*
X227792000Y-133881000D03*
X227292000Y-133881000D03*
X225792000Y-133881000D03*
%TD*%
D10*
%TO.C,J1*%
X222002000Y-136096000D03*
X222002000Y-133396000D03*
X217202000Y-136096000D03*
X217202000Y-133396000D03*
D11*
X216852000Y-135611000D03*
X218352000Y-135611000D03*
X218852000Y-135611000D03*
X219352000Y-135611000D03*
X219852000Y-135611000D03*
X220352000Y-135611000D03*
X220852000Y-135611000D03*
X222352000Y-135611000D03*
X222352000Y-133881000D03*
X220852000Y-133881000D03*
X220352000Y-133881000D03*
X219852000Y-133881000D03*
X219352000Y-133881000D03*
X218852000Y-133881000D03*
X218352000Y-133881000D03*
X216852000Y-133881000D03*
%TD*%
D10*
%TO.C,J1*%
X213062000Y-136096000D03*
X213062000Y-133396000D03*
X208262000Y-136096000D03*
X208262000Y-133396000D03*
D11*
X207912000Y-135611000D03*
X209412000Y-135611000D03*
X209912000Y-135611000D03*
X210412000Y-135611000D03*
X210912000Y-135611000D03*
X211412000Y-135611000D03*
X211912000Y-135611000D03*
X213412000Y-135611000D03*
X213412000Y-133881000D03*
X211912000Y-133881000D03*
X211412000Y-133881000D03*
X210912000Y-133881000D03*
X210412000Y-133881000D03*
X209912000Y-133881000D03*
X209412000Y-133881000D03*
X207912000Y-133881000D03*
%TD*%
D10*
%TO.C,J1*%
X204122000Y-136096000D03*
X204122000Y-133396000D03*
X199322000Y-136096000D03*
X199322000Y-133396000D03*
D11*
X198972000Y-135611000D03*
X200472000Y-135611000D03*
X200972000Y-135611000D03*
X201472000Y-135611000D03*
X201972000Y-135611000D03*
X202472000Y-135611000D03*
X202972000Y-135611000D03*
X204472000Y-135611000D03*
X204472000Y-133881000D03*
X202972000Y-133881000D03*
X202472000Y-133881000D03*
X201972000Y-133881000D03*
X201472000Y-133881000D03*
X200972000Y-133881000D03*
X200472000Y-133881000D03*
X198972000Y-133881000D03*
%TD*%
D10*
%TO.C,J1*%
X195182000Y-136096000D03*
X195182000Y-133396000D03*
X190382000Y-136096000D03*
X190382000Y-133396000D03*
D11*
X190032000Y-135611000D03*
X191532000Y-135611000D03*
X192032000Y-135611000D03*
X192532000Y-135611000D03*
X193032000Y-135611000D03*
X193532000Y-135611000D03*
X194032000Y-135611000D03*
X195532000Y-135611000D03*
X195532000Y-133881000D03*
X194032000Y-133881000D03*
X193532000Y-133881000D03*
X193032000Y-133881000D03*
X192532000Y-133881000D03*
X192032000Y-133881000D03*
X191532000Y-133881000D03*
X190032000Y-133881000D03*
%TD*%
D10*
%TO.C,J1*%
X186242000Y-136096000D03*
X186242000Y-133396000D03*
X181442000Y-136096000D03*
X181442000Y-133396000D03*
D11*
X181092000Y-135611000D03*
X182592000Y-135611000D03*
X183092000Y-135611000D03*
X183592000Y-135611000D03*
X184092000Y-135611000D03*
X184592000Y-135611000D03*
X185092000Y-135611000D03*
X186592000Y-135611000D03*
X186592000Y-133881000D03*
X185092000Y-133881000D03*
X184592000Y-133881000D03*
X184092000Y-133881000D03*
X183592000Y-133881000D03*
X183092000Y-133881000D03*
X182592000Y-133881000D03*
X181092000Y-133881000D03*
%TD*%
D10*
%TO.C,J1*%
X177302000Y-136096000D03*
X177302000Y-133396000D03*
X172502000Y-136096000D03*
X172502000Y-133396000D03*
D11*
X172152000Y-135611000D03*
X173652000Y-135611000D03*
X174152000Y-135611000D03*
X174652000Y-135611000D03*
X175152000Y-135611000D03*
X175652000Y-135611000D03*
X176152000Y-135611000D03*
X177652000Y-135611000D03*
X177652000Y-133881000D03*
X176152000Y-133881000D03*
X175652000Y-133881000D03*
X175152000Y-133881000D03*
X174652000Y-133881000D03*
X174152000Y-133881000D03*
X173652000Y-133881000D03*
X172152000Y-133881000D03*
%TD*%
D10*
%TO.C,J1*%
X168362000Y-136096000D03*
X168362000Y-133396000D03*
X163562000Y-136096000D03*
X163562000Y-133396000D03*
D11*
X163212000Y-135611000D03*
X164712000Y-135611000D03*
X165212000Y-135611000D03*
X165712000Y-135611000D03*
X166212000Y-135611000D03*
X166712000Y-135611000D03*
X167212000Y-135611000D03*
X168712000Y-135611000D03*
X168712000Y-133881000D03*
X167212000Y-133881000D03*
X166712000Y-133881000D03*
X166212000Y-133881000D03*
X165712000Y-133881000D03*
X165212000Y-133881000D03*
X164712000Y-133881000D03*
X163212000Y-133881000D03*
%TD*%
D10*
%TO.C,J1*%
X159422000Y-136096000D03*
X159422000Y-133396000D03*
X154622000Y-136096000D03*
X154622000Y-133396000D03*
D11*
X154272000Y-135611000D03*
X155772000Y-135611000D03*
X156272000Y-135611000D03*
X156772000Y-135611000D03*
X157272000Y-135611000D03*
X157772000Y-135611000D03*
X158272000Y-135611000D03*
X159772000Y-135611000D03*
X159772000Y-133881000D03*
X158272000Y-133881000D03*
X157772000Y-133881000D03*
X157272000Y-133881000D03*
X156772000Y-133881000D03*
X156272000Y-133881000D03*
X155772000Y-133881000D03*
X154272000Y-133881000D03*
%TD*%
D10*
%TO.C,J1*%
X150482000Y-136096000D03*
X150482000Y-133396000D03*
X145682000Y-136096000D03*
X145682000Y-133396000D03*
D11*
X145332000Y-135611000D03*
X146832000Y-135611000D03*
X147332000Y-135611000D03*
X147832000Y-135611000D03*
X148332000Y-135611000D03*
X148832000Y-135611000D03*
X149332000Y-135611000D03*
X150832000Y-135611000D03*
X150832000Y-133881000D03*
X149332000Y-133881000D03*
X148832000Y-133881000D03*
X148332000Y-133881000D03*
X147832000Y-133881000D03*
X147332000Y-133881000D03*
X146832000Y-133881000D03*
X145332000Y-133881000D03*
%TD*%
D10*
%TO.C,J1*%
X230942000Y-132936000D03*
X230942000Y-130236000D03*
X226142000Y-132936000D03*
X226142000Y-130236000D03*
D11*
X225792000Y-132451000D03*
X227292000Y-132451000D03*
X227792000Y-132451000D03*
X228292000Y-132451000D03*
X228792000Y-132451000D03*
X229292000Y-132451000D03*
X229792000Y-132451000D03*
X231292000Y-132451000D03*
X231292000Y-130721000D03*
X229792000Y-130721000D03*
X229292000Y-130721000D03*
X228792000Y-130721000D03*
X228292000Y-130721000D03*
X227792000Y-130721000D03*
X227292000Y-130721000D03*
X225792000Y-130721000D03*
%TD*%
D10*
%TO.C,J1*%
X222002000Y-132936000D03*
X222002000Y-130236000D03*
X217202000Y-132936000D03*
X217202000Y-130236000D03*
D11*
X216852000Y-132451000D03*
X218352000Y-132451000D03*
X218852000Y-132451000D03*
X219352000Y-132451000D03*
X219852000Y-132451000D03*
X220352000Y-132451000D03*
X220852000Y-132451000D03*
X222352000Y-132451000D03*
X222352000Y-130721000D03*
X220852000Y-130721000D03*
X220352000Y-130721000D03*
X219852000Y-130721000D03*
X219352000Y-130721000D03*
X218852000Y-130721000D03*
X218352000Y-130721000D03*
X216852000Y-130721000D03*
%TD*%
D10*
%TO.C,J1*%
X213062000Y-132936000D03*
X213062000Y-130236000D03*
X208262000Y-132936000D03*
X208262000Y-130236000D03*
D11*
X207912000Y-132451000D03*
X209412000Y-132451000D03*
X209912000Y-132451000D03*
X210412000Y-132451000D03*
X210912000Y-132451000D03*
X211412000Y-132451000D03*
X211912000Y-132451000D03*
X213412000Y-132451000D03*
X213412000Y-130721000D03*
X211912000Y-130721000D03*
X211412000Y-130721000D03*
X210912000Y-130721000D03*
X210412000Y-130721000D03*
X209912000Y-130721000D03*
X209412000Y-130721000D03*
X207912000Y-130721000D03*
%TD*%
D10*
%TO.C,J1*%
X204122000Y-132936000D03*
X204122000Y-130236000D03*
X199322000Y-132936000D03*
X199322000Y-130236000D03*
D11*
X198972000Y-132451000D03*
X200472000Y-132451000D03*
X200972000Y-132451000D03*
X201472000Y-132451000D03*
X201972000Y-132451000D03*
X202472000Y-132451000D03*
X202972000Y-132451000D03*
X204472000Y-132451000D03*
X204472000Y-130721000D03*
X202972000Y-130721000D03*
X202472000Y-130721000D03*
X201972000Y-130721000D03*
X201472000Y-130721000D03*
X200972000Y-130721000D03*
X200472000Y-130721000D03*
X198972000Y-130721000D03*
%TD*%
D10*
%TO.C,J1*%
X195182000Y-132936000D03*
X195182000Y-130236000D03*
X190382000Y-132936000D03*
X190382000Y-130236000D03*
D11*
X190032000Y-132451000D03*
X191532000Y-132451000D03*
X192032000Y-132451000D03*
X192532000Y-132451000D03*
X193032000Y-132451000D03*
X193532000Y-132451000D03*
X194032000Y-132451000D03*
X195532000Y-132451000D03*
X195532000Y-130721000D03*
X194032000Y-130721000D03*
X193532000Y-130721000D03*
X193032000Y-130721000D03*
X192532000Y-130721000D03*
X192032000Y-130721000D03*
X191532000Y-130721000D03*
X190032000Y-130721000D03*
%TD*%
D10*
%TO.C,J1*%
X186242000Y-132936000D03*
X186242000Y-130236000D03*
X181442000Y-132936000D03*
X181442000Y-130236000D03*
D11*
X181092000Y-132451000D03*
X182592000Y-132451000D03*
X183092000Y-132451000D03*
X183592000Y-132451000D03*
X184092000Y-132451000D03*
X184592000Y-132451000D03*
X185092000Y-132451000D03*
X186592000Y-132451000D03*
X186592000Y-130721000D03*
X185092000Y-130721000D03*
X184592000Y-130721000D03*
X184092000Y-130721000D03*
X183592000Y-130721000D03*
X183092000Y-130721000D03*
X182592000Y-130721000D03*
X181092000Y-130721000D03*
%TD*%
D10*
%TO.C,J1*%
X177302000Y-132936000D03*
X177302000Y-130236000D03*
X172502000Y-132936000D03*
X172502000Y-130236000D03*
D11*
X172152000Y-132451000D03*
X173652000Y-132451000D03*
X174152000Y-132451000D03*
X174652000Y-132451000D03*
X175152000Y-132451000D03*
X175652000Y-132451000D03*
X176152000Y-132451000D03*
X177652000Y-132451000D03*
X177652000Y-130721000D03*
X176152000Y-130721000D03*
X175652000Y-130721000D03*
X175152000Y-130721000D03*
X174652000Y-130721000D03*
X174152000Y-130721000D03*
X173652000Y-130721000D03*
X172152000Y-130721000D03*
%TD*%
D10*
%TO.C,J1*%
X168362000Y-132936000D03*
X168362000Y-130236000D03*
X163562000Y-132936000D03*
X163562000Y-130236000D03*
D11*
X163212000Y-132451000D03*
X164712000Y-132451000D03*
X165212000Y-132451000D03*
X165712000Y-132451000D03*
X166212000Y-132451000D03*
X166712000Y-132451000D03*
X167212000Y-132451000D03*
X168712000Y-132451000D03*
X168712000Y-130721000D03*
X167212000Y-130721000D03*
X166712000Y-130721000D03*
X166212000Y-130721000D03*
X165712000Y-130721000D03*
X165212000Y-130721000D03*
X164712000Y-130721000D03*
X163212000Y-130721000D03*
%TD*%
D10*
%TO.C,J1*%
X159422000Y-132936000D03*
X159422000Y-130236000D03*
X154622000Y-132936000D03*
X154622000Y-130236000D03*
D11*
X154272000Y-132451000D03*
X155772000Y-132451000D03*
X156272000Y-132451000D03*
X156772000Y-132451000D03*
X157272000Y-132451000D03*
X157772000Y-132451000D03*
X158272000Y-132451000D03*
X159772000Y-132451000D03*
X159772000Y-130721000D03*
X158272000Y-130721000D03*
X157772000Y-130721000D03*
X157272000Y-130721000D03*
X156772000Y-130721000D03*
X156272000Y-130721000D03*
X155772000Y-130721000D03*
X154272000Y-130721000D03*
%TD*%
D10*
%TO.C,J1*%
X150482000Y-132936000D03*
X150482000Y-130236000D03*
X145682000Y-132936000D03*
X145682000Y-130236000D03*
D11*
X145332000Y-132451000D03*
X146832000Y-132451000D03*
X147332000Y-132451000D03*
X147832000Y-132451000D03*
X148332000Y-132451000D03*
X148832000Y-132451000D03*
X149332000Y-132451000D03*
X150832000Y-132451000D03*
X150832000Y-130721000D03*
X149332000Y-130721000D03*
X148832000Y-130721000D03*
X148332000Y-130721000D03*
X147832000Y-130721000D03*
X147332000Y-130721000D03*
X146832000Y-130721000D03*
X145332000Y-130721000D03*
%TD*%
D10*
%TO.C,J1*%
X230942000Y-129776000D03*
X230942000Y-127076000D03*
X226142000Y-129776000D03*
X226142000Y-127076000D03*
D11*
X225792000Y-129291000D03*
X227292000Y-129291000D03*
X227792000Y-129291000D03*
X228292000Y-129291000D03*
X228792000Y-129291000D03*
X229292000Y-129291000D03*
X229792000Y-129291000D03*
X231292000Y-129291000D03*
X231292000Y-127561000D03*
X229792000Y-127561000D03*
X229292000Y-127561000D03*
X228792000Y-127561000D03*
X228292000Y-127561000D03*
X227792000Y-127561000D03*
X227292000Y-127561000D03*
X225792000Y-127561000D03*
%TD*%
D10*
%TO.C,J1*%
X222002000Y-129776000D03*
X222002000Y-127076000D03*
X217202000Y-129776000D03*
X217202000Y-127076000D03*
D11*
X216852000Y-129291000D03*
X218352000Y-129291000D03*
X218852000Y-129291000D03*
X219352000Y-129291000D03*
X219852000Y-129291000D03*
X220352000Y-129291000D03*
X220852000Y-129291000D03*
X222352000Y-129291000D03*
X222352000Y-127561000D03*
X220852000Y-127561000D03*
X220352000Y-127561000D03*
X219852000Y-127561000D03*
X219352000Y-127561000D03*
X218852000Y-127561000D03*
X218352000Y-127561000D03*
X216852000Y-127561000D03*
%TD*%
D10*
%TO.C,J1*%
X213062000Y-129776000D03*
X213062000Y-127076000D03*
X208262000Y-129776000D03*
X208262000Y-127076000D03*
D11*
X207912000Y-129291000D03*
X209412000Y-129291000D03*
X209912000Y-129291000D03*
X210412000Y-129291000D03*
X210912000Y-129291000D03*
X211412000Y-129291000D03*
X211912000Y-129291000D03*
X213412000Y-129291000D03*
X213412000Y-127561000D03*
X211912000Y-127561000D03*
X211412000Y-127561000D03*
X210912000Y-127561000D03*
X210412000Y-127561000D03*
X209912000Y-127561000D03*
X209412000Y-127561000D03*
X207912000Y-127561000D03*
%TD*%
D10*
%TO.C,J1*%
X204122000Y-129776000D03*
X204122000Y-127076000D03*
X199322000Y-129776000D03*
X199322000Y-127076000D03*
D11*
X198972000Y-129291000D03*
X200472000Y-129291000D03*
X200972000Y-129291000D03*
X201472000Y-129291000D03*
X201972000Y-129291000D03*
X202472000Y-129291000D03*
X202972000Y-129291000D03*
X204472000Y-129291000D03*
X204472000Y-127561000D03*
X202972000Y-127561000D03*
X202472000Y-127561000D03*
X201972000Y-127561000D03*
X201472000Y-127561000D03*
X200972000Y-127561000D03*
X200472000Y-127561000D03*
X198972000Y-127561000D03*
%TD*%
D10*
%TO.C,J1*%
X195182000Y-129776000D03*
X195182000Y-127076000D03*
X190382000Y-129776000D03*
X190382000Y-127076000D03*
D11*
X190032000Y-129291000D03*
X191532000Y-129291000D03*
X192032000Y-129291000D03*
X192532000Y-129291000D03*
X193032000Y-129291000D03*
X193532000Y-129291000D03*
X194032000Y-129291000D03*
X195532000Y-129291000D03*
X195532000Y-127561000D03*
X194032000Y-127561000D03*
X193532000Y-127561000D03*
X193032000Y-127561000D03*
X192532000Y-127561000D03*
X192032000Y-127561000D03*
X191532000Y-127561000D03*
X190032000Y-127561000D03*
%TD*%
D10*
%TO.C,J1*%
X186242000Y-129776000D03*
X186242000Y-127076000D03*
X181442000Y-129776000D03*
X181442000Y-127076000D03*
D11*
X181092000Y-129291000D03*
X182592000Y-129291000D03*
X183092000Y-129291000D03*
X183592000Y-129291000D03*
X184092000Y-129291000D03*
X184592000Y-129291000D03*
X185092000Y-129291000D03*
X186592000Y-129291000D03*
X186592000Y-127561000D03*
X185092000Y-127561000D03*
X184592000Y-127561000D03*
X184092000Y-127561000D03*
X183592000Y-127561000D03*
X183092000Y-127561000D03*
X182592000Y-127561000D03*
X181092000Y-127561000D03*
%TD*%
D10*
%TO.C,J1*%
X177302000Y-129776000D03*
X177302000Y-127076000D03*
X172502000Y-129776000D03*
X172502000Y-127076000D03*
D11*
X172152000Y-129291000D03*
X173652000Y-129291000D03*
X174152000Y-129291000D03*
X174652000Y-129291000D03*
X175152000Y-129291000D03*
X175652000Y-129291000D03*
X176152000Y-129291000D03*
X177652000Y-129291000D03*
X177652000Y-127561000D03*
X176152000Y-127561000D03*
X175652000Y-127561000D03*
X175152000Y-127561000D03*
X174652000Y-127561000D03*
X174152000Y-127561000D03*
X173652000Y-127561000D03*
X172152000Y-127561000D03*
%TD*%
D10*
%TO.C,J1*%
X168362000Y-129776000D03*
X168362000Y-127076000D03*
X163562000Y-129776000D03*
X163562000Y-127076000D03*
D11*
X163212000Y-129291000D03*
X164712000Y-129291000D03*
X165212000Y-129291000D03*
X165712000Y-129291000D03*
X166212000Y-129291000D03*
X166712000Y-129291000D03*
X167212000Y-129291000D03*
X168712000Y-129291000D03*
X168712000Y-127561000D03*
X167212000Y-127561000D03*
X166712000Y-127561000D03*
X166212000Y-127561000D03*
X165712000Y-127561000D03*
X165212000Y-127561000D03*
X164712000Y-127561000D03*
X163212000Y-127561000D03*
%TD*%
D10*
%TO.C,J1*%
X159422000Y-129776000D03*
X159422000Y-127076000D03*
X154622000Y-129776000D03*
X154622000Y-127076000D03*
D11*
X154272000Y-129291000D03*
X155772000Y-129291000D03*
X156272000Y-129291000D03*
X156772000Y-129291000D03*
X157272000Y-129291000D03*
X157772000Y-129291000D03*
X158272000Y-129291000D03*
X159772000Y-129291000D03*
X159772000Y-127561000D03*
X158272000Y-127561000D03*
X157772000Y-127561000D03*
X157272000Y-127561000D03*
X156772000Y-127561000D03*
X156272000Y-127561000D03*
X155772000Y-127561000D03*
X154272000Y-127561000D03*
%TD*%
D10*
%TO.C,J1*%
X150482000Y-129776000D03*
X150482000Y-127076000D03*
X145682000Y-129776000D03*
X145682000Y-127076000D03*
D11*
X145332000Y-129291000D03*
X146832000Y-129291000D03*
X147332000Y-129291000D03*
X147832000Y-129291000D03*
X148332000Y-129291000D03*
X148832000Y-129291000D03*
X149332000Y-129291000D03*
X150832000Y-129291000D03*
X150832000Y-127561000D03*
X149332000Y-127561000D03*
X148832000Y-127561000D03*
X148332000Y-127561000D03*
X147832000Y-127561000D03*
X147332000Y-127561000D03*
X146832000Y-127561000D03*
X145332000Y-127561000D03*
%TD*%
D10*
%TO.C,J1*%
X230942000Y-126616000D03*
X230942000Y-123916000D03*
X226142000Y-126616000D03*
X226142000Y-123916000D03*
D11*
X225792000Y-126131000D03*
X227292000Y-126131000D03*
X227792000Y-126131000D03*
X228292000Y-126131000D03*
X228792000Y-126131000D03*
X229292000Y-126131000D03*
X229792000Y-126131000D03*
X231292000Y-126131000D03*
X231292000Y-124401000D03*
X229792000Y-124401000D03*
X229292000Y-124401000D03*
X228792000Y-124401000D03*
X228292000Y-124401000D03*
X227792000Y-124401000D03*
X227292000Y-124401000D03*
X225792000Y-124401000D03*
%TD*%
D10*
%TO.C,J1*%
X222002000Y-126616000D03*
X222002000Y-123916000D03*
X217202000Y-126616000D03*
X217202000Y-123916000D03*
D11*
X216852000Y-126131000D03*
X218352000Y-126131000D03*
X218852000Y-126131000D03*
X219352000Y-126131000D03*
X219852000Y-126131000D03*
X220352000Y-126131000D03*
X220852000Y-126131000D03*
X222352000Y-126131000D03*
X222352000Y-124401000D03*
X220852000Y-124401000D03*
X220352000Y-124401000D03*
X219852000Y-124401000D03*
X219352000Y-124401000D03*
X218852000Y-124401000D03*
X218352000Y-124401000D03*
X216852000Y-124401000D03*
%TD*%
D10*
%TO.C,J1*%
X213062000Y-126616000D03*
X213062000Y-123916000D03*
X208262000Y-126616000D03*
X208262000Y-123916000D03*
D11*
X207912000Y-126131000D03*
X209412000Y-126131000D03*
X209912000Y-126131000D03*
X210412000Y-126131000D03*
X210912000Y-126131000D03*
X211412000Y-126131000D03*
X211912000Y-126131000D03*
X213412000Y-126131000D03*
X213412000Y-124401000D03*
X211912000Y-124401000D03*
X211412000Y-124401000D03*
X210912000Y-124401000D03*
X210412000Y-124401000D03*
X209912000Y-124401000D03*
X209412000Y-124401000D03*
X207912000Y-124401000D03*
%TD*%
D10*
%TO.C,J1*%
X204122000Y-126616000D03*
X204122000Y-123916000D03*
X199322000Y-126616000D03*
X199322000Y-123916000D03*
D11*
X198972000Y-126131000D03*
X200472000Y-126131000D03*
X200972000Y-126131000D03*
X201472000Y-126131000D03*
X201972000Y-126131000D03*
X202472000Y-126131000D03*
X202972000Y-126131000D03*
X204472000Y-126131000D03*
X204472000Y-124401000D03*
X202972000Y-124401000D03*
X202472000Y-124401000D03*
X201972000Y-124401000D03*
X201472000Y-124401000D03*
X200972000Y-124401000D03*
X200472000Y-124401000D03*
X198972000Y-124401000D03*
%TD*%
D10*
%TO.C,J1*%
X195182000Y-126616000D03*
X195182000Y-123916000D03*
X190382000Y-126616000D03*
X190382000Y-123916000D03*
D11*
X190032000Y-126131000D03*
X191532000Y-126131000D03*
X192032000Y-126131000D03*
X192532000Y-126131000D03*
X193032000Y-126131000D03*
X193532000Y-126131000D03*
X194032000Y-126131000D03*
X195532000Y-126131000D03*
X195532000Y-124401000D03*
X194032000Y-124401000D03*
X193532000Y-124401000D03*
X193032000Y-124401000D03*
X192532000Y-124401000D03*
X192032000Y-124401000D03*
X191532000Y-124401000D03*
X190032000Y-124401000D03*
%TD*%
D10*
%TO.C,J1*%
X186242000Y-126616000D03*
X186242000Y-123916000D03*
X181442000Y-126616000D03*
X181442000Y-123916000D03*
D11*
X181092000Y-126131000D03*
X182592000Y-126131000D03*
X183092000Y-126131000D03*
X183592000Y-126131000D03*
X184092000Y-126131000D03*
X184592000Y-126131000D03*
X185092000Y-126131000D03*
X186592000Y-126131000D03*
X186592000Y-124401000D03*
X185092000Y-124401000D03*
X184592000Y-124401000D03*
X184092000Y-124401000D03*
X183592000Y-124401000D03*
X183092000Y-124401000D03*
X182592000Y-124401000D03*
X181092000Y-124401000D03*
%TD*%
D10*
%TO.C,J1*%
X177302000Y-126616000D03*
X177302000Y-123916000D03*
X172502000Y-126616000D03*
X172502000Y-123916000D03*
D11*
X172152000Y-126131000D03*
X173652000Y-126131000D03*
X174152000Y-126131000D03*
X174652000Y-126131000D03*
X175152000Y-126131000D03*
X175652000Y-126131000D03*
X176152000Y-126131000D03*
X177652000Y-126131000D03*
X177652000Y-124401000D03*
X176152000Y-124401000D03*
X175652000Y-124401000D03*
X175152000Y-124401000D03*
X174652000Y-124401000D03*
X174152000Y-124401000D03*
X173652000Y-124401000D03*
X172152000Y-124401000D03*
%TD*%
D10*
%TO.C,J1*%
X168362000Y-126616000D03*
X168362000Y-123916000D03*
X163562000Y-126616000D03*
X163562000Y-123916000D03*
D11*
X163212000Y-126131000D03*
X164712000Y-126131000D03*
X165212000Y-126131000D03*
X165712000Y-126131000D03*
X166212000Y-126131000D03*
X166712000Y-126131000D03*
X167212000Y-126131000D03*
X168712000Y-126131000D03*
X168712000Y-124401000D03*
X167212000Y-124401000D03*
X166712000Y-124401000D03*
X166212000Y-124401000D03*
X165712000Y-124401000D03*
X165212000Y-124401000D03*
X164712000Y-124401000D03*
X163212000Y-124401000D03*
%TD*%
D10*
%TO.C,J1*%
X159422000Y-126616000D03*
X159422000Y-123916000D03*
X154622000Y-126616000D03*
X154622000Y-123916000D03*
D11*
X154272000Y-126131000D03*
X155772000Y-126131000D03*
X156272000Y-126131000D03*
X156772000Y-126131000D03*
X157272000Y-126131000D03*
X157772000Y-126131000D03*
X158272000Y-126131000D03*
X159772000Y-126131000D03*
X159772000Y-124401000D03*
X158272000Y-124401000D03*
X157772000Y-124401000D03*
X157272000Y-124401000D03*
X156772000Y-124401000D03*
X156272000Y-124401000D03*
X155772000Y-124401000D03*
X154272000Y-124401000D03*
%TD*%
D10*
%TO.C,J1*%
X150482000Y-126616000D03*
X150482000Y-123916000D03*
X145682000Y-126616000D03*
X145682000Y-123916000D03*
D11*
X145332000Y-126131000D03*
X146832000Y-126131000D03*
X147332000Y-126131000D03*
X147832000Y-126131000D03*
X148332000Y-126131000D03*
X148832000Y-126131000D03*
X149332000Y-126131000D03*
X150832000Y-126131000D03*
X150832000Y-124401000D03*
X149332000Y-124401000D03*
X148832000Y-124401000D03*
X148332000Y-124401000D03*
X147832000Y-124401000D03*
X147332000Y-124401000D03*
X146832000Y-124401000D03*
X145332000Y-124401000D03*
%TD*%
D10*
%TO.C,J1*%
X230942000Y-123456000D03*
X230942000Y-120756000D03*
X226142000Y-123456000D03*
X226142000Y-120756000D03*
D11*
X225792000Y-122971000D03*
X227292000Y-122971000D03*
X227792000Y-122971000D03*
X228292000Y-122971000D03*
X228792000Y-122971000D03*
X229292000Y-122971000D03*
X229792000Y-122971000D03*
X231292000Y-122971000D03*
X231292000Y-121241000D03*
X229792000Y-121241000D03*
X229292000Y-121241000D03*
X228792000Y-121241000D03*
X228292000Y-121241000D03*
X227792000Y-121241000D03*
X227292000Y-121241000D03*
X225792000Y-121241000D03*
%TD*%
D10*
%TO.C,J1*%
X222002000Y-123456000D03*
X222002000Y-120756000D03*
X217202000Y-123456000D03*
X217202000Y-120756000D03*
D11*
X216852000Y-122971000D03*
X218352000Y-122971000D03*
X218852000Y-122971000D03*
X219352000Y-122971000D03*
X219852000Y-122971000D03*
X220352000Y-122971000D03*
X220852000Y-122971000D03*
X222352000Y-122971000D03*
X222352000Y-121241000D03*
X220852000Y-121241000D03*
X220352000Y-121241000D03*
X219852000Y-121241000D03*
X219352000Y-121241000D03*
X218852000Y-121241000D03*
X218352000Y-121241000D03*
X216852000Y-121241000D03*
%TD*%
D10*
%TO.C,J1*%
X213062000Y-123456000D03*
X213062000Y-120756000D03*
X208262000Y-123456000D03*
X208262000Y-120756000D03*
D11*
X207912000Y-122971000D03*
X209412000Y-122971000D03*
X209912000Y-122971000D03*
X210412000Y-122971000D03*
X210912000Y-122971000D03*
X211412000Y-122971000D03*
X211912000Y-122971000D03*
X213412000Y-122971000D03*
X213412000Y-121241000D03*
X211912000Y-121241000D03*
X211412000Y-121241000D03*
X210912000Y-121241000D03*
X210412000Y-121241000D03*
X209912000Y-121241000D03*
X209412000Y-121241000D03*
X207912000Y-121241000D03*
%TD*%
D10*
%TO.C,J1*%
X204122000Y-123456000D03*
X204122000Y-120756000D03*
X199322000Y-123456000D03*
X199322000Y-120756000D03*
D11*
X198972000Y-122971000D03*
X200472000Y-122971000D03*
X200972000Y-122971000D03*
X201472000Y-122971000D03*
X201972000Y-122971000D03*
X202472000Y-122971000D03*
X202972000Y-122971000D03*
X204472000Y-122971000D03*
X204472000Y-121241000D03*
X202972000Y-121241000D03*
X202472000Y-121241000D03*
X201972000Y-121241000D03*
X201472000Y-121241000D03*
X200972000Y-121241000D03*
X200472000Y-121241000D03*
X198972000Y-121241000D03*
%TD*%
D10*
%TO.C,J1*%
X195182000Y-123456000D03*
X195182000Y-120756000D03*
X190382000Y-123456000D03*
X190382000Y-120756000D03*
D11*
X190032000Y-122971000D03*
X191532000Y-122971000D03*
X192032000Y-122971000D03*
X192532000Y-122971000D03*
X193032000Y-122971000D03*
X193532000Y-122971000D03*
X194032000Y-122971000D03*
X195532000Y-122971000D03*
X195532000Y-121241000D03*
X194032000Y-121241000D03*
X193532000Y-121241000D03*
X193032000Y-121241000D03*
X192532000Y-121241000D03*
X192032000Y-121241000D03*
X191532000Y-121241000D03*
X190032000Y-121241000D03*
%TD*%
D10*
%TO.C,J1*%
X186242000Y-123456000D03*
X186242000Y-120756000D03*
X181442000Y-123456000D03*
X181442000Y-120756000D03*
D11*
X181092000Y-122971000D03*
X182592000Y-122971000D03*
X183092000Y-122971000D03*
X183592000Y-122971000D03*
X184092000Y-122971000D03*
X184592000Y-122971000D03*
X185092000Y-122971000D03*
X186592000Y-122971000D03*
X186592000Y-121241000D03*
X185092000Y-121241000D03*
X184592000Y-121241000D03*
X184092000Y-121241000D03*
X183592000Y-121241000D03*
X183092000Y-121241000D03*
X182592000Y-121241000D03*
X181092000Y-121241000D03*
%TD*%
D10*
%TO.C,J1*%
X177302000Y-123456000D03*
X177302000Y-120756000D03*
X172502000Y-123456000D03*
X172502000Y-120756000D03*
D11*
X172152000Y-122971000D03*
X173652000Y-122971000D03*
X174152000Y-122971000D03*
X174652000Y-122971000D03*
X175152000Y-122971000D03*
X175652000Y-122971000D03*
X176152000Y-122971000D03*
X177652000Y-122971000D03*
X177652000Y-121241000D03*
X176152000Y-121241000D03*
X175652000Y-121241000D03*
X175152000Y-121241000D03*
X174652000Y-121241000D03*
X174152000Y-121241000D03*
X173652000Y-121241000D03*
X172152000Y-121241000D03*
%TD*%
D10*
%TO.C,J1*%
X168362000Y-123456000D03*
X168362000Y-120756000D03*
X163562000Y-123456000D03*
X163562000Y-120756000D03*
D11*
X163212000Y-122971000D03*
X164712000Y-122971000D03*
X165212000Y-122971000D03*
X165712000Y-122971000D03*
X166212000Y-122971000D03*
X166712000Y-122971000D03*
X167212000Y-122971000D03*
X168712000Y-122971000D03*
X168712000Y-121241000D03*
X167212000Y-121241000D03*
X166712000Y-121241000D03*
X166212000Y-121241000D03*
X165712000Y-121241000D03*
X165212000Y-121241000D03*
X164712000Y-121241000D03*
X163212000Y-121241000D03*
%TD*%
D10*
%TO.C,J1*%
X159422000Y-123456000D03*
X159422000Y-120756000D03*
X154622000Y-123456000D03*
X154622000Y-120756000D03*
D11*
X154272000Y-122971000D03*
X155772000Y-122971000D03*
X156272000Y-122971000D03*
X156772000Y-122971000D03*
X157272000Y-122971000D03*
X157772000Y-122971000D03*
X158272000Y-122971000D03*
X159772000Y-122971000D03*
X159772000Y-121241000D03*
X158272000Y-121241000D03*
X157772000Y-121241000D03*
X157272000Y-121241000D03*
X156772000Y-121241000D03*
X156272000Y-121241000D03*
X155772000Y-121241000D03*
X154272000Y-121241000D03*
%TD*%
D10*
%TO.C,J1*%
X150482000Y-123456000D03*
X150482000Y-120756000D03*
X145682000Y-123456000D03*
X145682000Y-120756000D03*
D11*
X145332000Y-122971000D03*
X146832000Y-122971000D03*
X147332000Y-122971000D03*
X147832000Y-122971000D03*
X148332000Y-122971000D03*
X148832000Y-122971000D03*
X149332000Y-122971000D03*
X150832000Y-122971000D03*
X150832000Y-121241000D03*
X149332000Y-121241000D03*
X148832000Y-121241000D03*
X148332000Y-121241000D03*
X147832000Y-121241000D03*
X147332000Y-121241000D03*
X146832000Y-121241000D03*
X145332000Y-121241000D03*
%TD*%
D10*
%TO.C,J1*%
X230942000Y-120296000D03*
X230942000Y-117596000D03*
X226142000Y-120296000D03*
X226142000Y-117596000D03*
D11*
X225792000Y-119811000D03*
X227292000Y-119811000D03*
X227792000Y-119811000D03*
X228292000Y-119811000D03*
X228792000Y-119811000D03*
X229292000Y-119811000D03*
X229792000Y-119811000D03*
X231292000Y-119811000D03*
X231292000Y-118081000D03*
X229792000Y-118081000D03*
X229292000Y-118081000D03*
X228792000Y-118081000D03*
X228292000Y-118081000D03*
X227792000Y-118081000D03*
X227292000Y-118081000D03*
X225792000Y-118081000D03*
%TD*%
D10*
%TO.C,J1*%
X222002000Y-120296000D03*
X222002000Y-117596000D03*
X217202000Y-120296000D03*
X217202000Y-117596000D03*
D11*
X216852000Y-119811000D03*
X218352000Y-119811000D03*
X218852000Y-119811000D03*
X219352000Y-119811000D03*
X219852000Y-119811000D03*
X220352000Y-119811000D03*
X220852000Y-119811000D03*
X222352000Y-119811000D03*
X222352000Y-118081000D03*
X220852000Y-118081000D03*
X220352000Y-118081000D03*
X219852000Y-118081000D03*
X219352000Y-118081000D03*
X218852000Y-118081000D03*
X218352000Y-118081000D03*
X216852000Y-118081000D03*
%TD*%
D10*
%TO.C,J1*%
X213062000Y-120296000D03*
X213062000Y-117596000D03*
X208262000Y-120296000D03*
X208262000Y-117596000D03*
D11*
X207912000Y-119811000D03*
X209412000Y-119811000D03*
X209912000Y-119811000D03*
X210412000Y-119811000D03*
X210912000Y-119811000D03*
X211412000Y-119811000D03*
X211912000Y-119811000D03*
X213412000Y-119811000D03*
X213412000Y-118081000D03*
X211912000Y-118081000D03*
X211412000Y-118081000D03*
X210912000Y-118081000D03*
X210412000Y-118081000D03*
X209912000Y-118081000D03*
X209412000Y-118081000D03*
X207912000Y-118081000D03*
%TD*%
D10*
%TO.C,J1*%
X204122000Y-120296000D03*
X204122000Y-117596000D03*
X199322000Y-120296000D03*
X199322000Y-117596000D03*
D11*
X198972000Y-119811000D03*
X200472000Y-119811000D03*
X200972000Y-119811000D03*
X201472000Y-119811000D03*
X201972000Y-119811000D03*
X202472000Y-119811000D03*
X202972000Y-119811000D03*
X204472000Y-119811000D03*
X204472000Y-118081000D03*
X202972000Y-118081000D03*
X202472000Y-118081000D03*
X201972000Y-118081000D03*
X201472000Y-118081000D03*
X200972000Y-118081000D03*
X200472000Y-118081000D03*
X198972000Y-118081000D03*
%TD*%
D10*
%TO.C,J1*%
X195182000Y-120296000D03*
X195182000Y-117596000D03*
X190382000Y-120296000D03*
X190382000Y-117596000D03*
D11*
X190032000Y-119811000D03*
X191532000Y-119811000D03*
X192032000Y-119811000D03*
X192532000Y-119811000D03*
X193032000Y-119811000D03*
X193532000Y-119811000D03*
X194032000Y-119811000D03*
X195532000Y-119811000D03*
X195532000Y-118081000D03*
X194032000Y-118081000D03*
X193532000Y-118081000D03*
X193032000Y-118081000D03*
X192532000Y-118081000D03*
X192032000Y-118081000D03*
X191532000Y-118081000D03*
X190032000Y-118081000D03*
%TD*%
D10*
%TO.C,J1*%
X186242000Y-120296000D03*
X186242000Y-117596000D03*
X181442000Y-120296000D03*
X181442000Y-117596000D03*
D11*
X181092000Y-119811000D03*
X182592000Y-119811000D03*
X183092000Y-119811000D03*
X183592000Y-119811000D03*
X184092000Y-119811000D03*
X184592000Y-119811000D03*
X185092000Y-119811000D03*
X186592000Y-119811000D03*
X186592000Y-118081000D03*
X185092000Y-118081000D03*
X184592000Y-118081000D03*
X184092000Y-118081000D03*
X183592000Y-118081000D03*
X183092000Y-118081000D03*
X182592000Y-118081000D03*
X181092000Y-118081000D03*
%TD*%
D10*
%TO.C,J1*%
X177302000Y-120296000D03*
X177302000Y-117596000D03*
X172502000Y-120296000D03*
X172502000Y-117596000D03*
D11*
X172152000Y-119811000D03*
X173652000Y-119811000D03*
X174152000Y-119811000D03*
X174652000Y-119811000D03*
X175152000Y-119811000D03*
X175652000Y-119811000D03*
X176152000Y-119811000D03*
X177652000Y-119811000D03*
X177652000Y-118081000D03*
X176152000Y-118081000D03*
X175652000Y-118081000D03*
X175152000Y-118081000D03*
X174652000Y-118081000D03*
X174152000Y-118081000D03*
X173652000Y-118081000D03*
X172152000Y-118081000D03*
%TD*%
D10*
%TO.C,J1*%
X168362000Y-120296000D03*
X168362000Y-117596000D03*
X163562000Y-120296000D03*
X163562000Y-117596000D03*
D11*
X163212000Y-119811000D03*
X164712000Y-119811000D03*
X165212000Y-119811000D03*
X165712000Y-119811000D03*
X166212000Y-119811000D03*
X166712000Y-119811000D03*
X167212000Y-119811000D03*
X168712000Y-119811000D03*
X168712000Y-118081000D03*
X167212000Y-118081000D03*
X166712000Y-118081000D03*
X166212000Y-118081000D03*
X165712000Y-118081000D03*
X165212000Y-118081000D03*
X164712000Y-118081000D03*
X163212000Y-118081000D03*
%TD*%
D10*
%TO.C,J1*%
X159422000Y-120296000D03*
X159422000Y-117596000D03*
X154622000Y-120296000D03*
X154622000Y-117596000D03*
D11*
X154272000Y-119811000D03*
X155772000Y-119811000D03*
X156272000Y-119811000D03*
X156772000Y-119811000D03*
X157272000Y-119811000D03*
X157772000Y-119811000D03*
X158272000Y-119811000D03*
X159772000Y-119811000D03*
X159772000Y-118081000D03*
X158272000Y-118081000D03*
X157772000Y-118081000D03*
X157272000Y-118081000D03*
X156772000Y-118081000D03*
X156272000Y-118081000D03*
X155772000Y-118081000D03*
X154272000Y-118081000D03*
%TD*%
D10*
%TO.C,J1*%
X150482000Y-120296000D03*
X150482000Y-117596000D03*
X145682000Y-120296000D03*
X145682000Y-117596000D03*
D11*
X145332000Y-119811000D03*
X146832000Y-119811000D03*
X147332000Y-119811000D03*
X147832000Y-119811000D03*
X148332000Y-119811000D03*
X148832000Y-119811000D03*
X149332000Y-119811000D03*
X150832000Y-119811000D03*
X150832000Y-118081000D03*
X149332000Y-118081000D03*
X148832000Y-118081000D03*
X148332000Y-118081000D03*
X147832000Y-118081000D03*
X147332000Y-118081000D03*
X146832000Y-118081000D03*
X145332000Y-118081000D03*
%TD*%
D10*
%TO.C,J1*%
X230942000Y-117136000D03*
X230942000Y-114436000D03*
X226142000Y-117136000D03*
X226142000Y-114436000D03*
D11*
X225792000Y-116651000D03*
X227292000Y-116651000D03*
X227792000Y-116651000D03*
X228292000Y-116651000D03*
X228792000Y-116651000D03*
X229292000Y-116651000D03*
X229792000Y-116651000D03*
X231292000Y-116651000D03*
X231292000Y-114921000D03*
X229792000Y-114921000D03*
X229292000Y-114921000D03*
X228792000Y-114921000D03*
X228292000Y-114921000D03*
X227792000Y-114921000D03*
X227292000Y-114921000D03*
X225792000Y-114921000D03*
%TD*%
D10*
%TO.C,J1*%
X222002000Y-117136000D03*
X222002000Y-114436000D03*
X217202000Y-117136000D03*
X217202000Y-114436000D03*
D11*
X216852000Y-116651000D03*
X218352000Y-116651000D03*
X218852000Y-116651000D03*
X219352000Y-116651000D03*
X219852000Y-116651000D03*
X220352000Y-116651000D03*
X220852000Y-116651000D03*
X222352000Y-116651000D03*
X222352000Y-114921000D03*
X220852000Y-114921000D03*
X220352000Y-114921000D03*
X219852000Y-114921000D03*
X219352000Y-114921000D03*
X218852000Y-114921000D03*
X218352000Y-114921000D03*
X216852000Y-114921000D03*
%TD*%
D10*
%TO.C,J1*%
X213062000Y-117136000D03*
X213062000Y-114436000D03*
X208262000Y-117136000D03*
X208262000Y-114436000D03*
D11*
X207912000Y-116651000D03*
X209412000Y-116651000D03*
X209912000Y-116651000D03*
X210412000Y-116651000D03*
X210912000Y-116651000D03*
X211412000Y-116651000D03*
X211912000Y-116651000D03*
X213412000Y-116651000D03*
X213412000Y-114921000D03*
X211912000Y-114921000D03*
X211412000Y-114921000D03*
X210912000Y-114921000D03*
X210412000Y-114921000D03*
X209912000Y-114921000D03*
X209412000Y-114921000D03*
X207912000Y-114921000D03*
%TD*%
D10*
%TO.C,J1*%
X204122000Y-117136000D03*
X204122000Y-114436000D03*
X199322000Y-117136000D03*
X199322000Y-114436000D03*
D11*
X198972000Y-116651000D03*
X200472000Y-116651000D03*
X200972000Y-116651000D03*
X201472000Y-116651000D03*
X201972000Y-116651000D03*
X202472000Y-116651000D03*
X202972000Y-116651000D03*
X204472000Y-116651000D03*
X204472000Y-114921000D03*
X202972000Y-114921000D03*
X202472000Y-114921000D03*
X201972000Y-114921000D03*
X201472000Y-114921000D03*
X200972000Y-114921000D03*
X200472000Y-114921000D03*
X198972000Y-114921000D03*
%TD*%
D10*
%TO.C,J1*%
X195182000Y-117136000D03*
X195182000Y-114436000D03*
X190382000Y-117136000D03*
X190382000Y-114436000D03*
D11*
X190032000Y-116651000D03*
X191532000Y-116651000D03*
X192032000Y-116651000D03*
X192532000Y-116651000D03*
X193032000Y-116651000D03*
X193532000Y-116651000D03*
X194032000Y-116651000D03*
X195532000Y-116651000D03*
X195532000Y-114921000D03*
X194032000Y-114921000D03*
X193532000Y-114921000D03*
X193032000Y-114921000D03*
X192532000Y-114921000D03*
X192032000Y-114921000D03*
X191532000Y-114921000D03*
X190032000Y-114921000D03*
%TD*%
D10*
%TO.C,J1*%
X186242000Y-117136000D03*
X186242000Y-114436000D03*
X181442000Y-117136000D03*
X181442000Y-114436000D03*
D11*
X181092000Y-116651000D03*
X182592000Y-116651000D03*
X183092000Y-116651000D03*
X183592000Y-116651000D03*
X184092000Y-116651000D03*
X184592000Y-116651000D03*
X185092000Y-116651000D03*
X186592000Y-116651000D03*
X186592000Y-114921000D03*
X185092000Y-114921000D03*
X184592000Y-114921000D03*
X184092000Y-114921000D03*
X183592000Y-114921000D03*
X183092000Y-114921000D03*
X182592000Y-114921000D03*
X181092000Y-114921000D03*
%TD*%
D10*
%TO.C,J1*%
X177302000Y-117136000D03*
X177302000Y-114436000D03*
X172502000Y-117136000D03*
X172502000Y-114436000D03*
D11*
X172152000Y-116651000D03*
X173652000Y-116651000D03*
X174152000Y-116651000D03*
X174652000Y-116651000D03*
X175152000Y-116651000D03*
X175652000Y-116651000D03*
X176152000Y-116651000D03*
X177652000Y-116651000D03*
X177652000Y-114921000D03*
X176152000Y-114921000D03*
X175652000Y-114921000D03*
X175152000Y-114921000D03*
X174652000Y-114921000D03*
X174152000Y-114921000D03*
X173652000Y-114921000D03*
X172152000Y-114921000D03*
%TD*%
D10*
%TO.C,J1*%
X168362000Y-117136000D03*
X168362000Y-114436000D03*
X163562000Y-117136000D03*
X163562000Y-114436000D03*
D11*
X163212000Y-116651000D03*
X164712000Y-116651000D03*
X165212000Y-116651000D03*
X165712000Y-116651000D03*
X166212000Y-116651000D03*
X166712000Y-116651000D03*
X167212000Y-116651000D03*
X168712000Y-116651000D03*
X168712000Y-114921000D03*
X167212000Y-114921000D03*
X166712000Y-114921000D03*
X166212000Y-114921000D03*
X165712000Y-114921000D03*
X165212000Y-114921000D03*
X164712000Y-114921000D03*
X163212000Y-114921000D03*
%TD*%
D10*
%TO.C,J1*%
X159422000Y-117136000D03*
X159422000Y-114436000D03*
X154622000Y-117136000D03*
X154622000Y-114436000D03*
D11*
X154272000Y-116651000D03*
X155772000Y-116651000D03*
X156272000Y-116651000D03*
X156772000Y-116651000D03*
X157272000Y-116651000D03*
X157772000Y-116651000D03*
X158272000Y-116651000D03*
X159772000Y-116651000D03*
X159772000Y-114921000D03*
X158272000Y-114921000D03*
X157772000Y-114921000D03*
X157272000Y-114921000D03*
X156772000Y-114921000D03*
X156272000Y-114921000D03*
X155772000Y-114921000D03*
X154272000Y-114921000D03*
%TD*%
D10*
%TO.C,J1*%
X150482000Y-117136000D03*
X150482000Y-114436000D03*
X145682000Y-117136000D03*
X145682000Y-114436000D03*
D11*
X145332000Y-116651000D03*
X146832000Y-116651000D03*
X147332000Y-116651000D03*
X147832000Y-116651000D03*
X148332000Y-116651000D03*
X148832000Y-116651000D03*
X149332000Y-116651000D03*
X150832000Y-116651000D03*
X150832000Y-114921000D03*
X149332000Y-114921000D03*
X148832000Y-114921000D03*
X148332000Y-114921000D03*
X147832000Y-114921000D03*
X147332000Y-114921000D03*
X146832000Y-114921000D03*
X145332000Y-114921000D03*
%TD*%
D10*
%TO.C,J1*%
X230942000Y-113976000D03*
X230942000Y-111276000D03*
X226142000Y-113976000D03*
X226142000Y-111276000D03*
D11*
X225792000Y-113491000D03*
X227292000Y-113491000D03*
X227792000Y-113491000D03*
X228292000Y-113491000D03*
X228792000Y-113491000D03*
X229292000Y-113491000D03*
X229792000Y-113491000D03*
X231292000Y-113491000D03*
X231292000Y-111761000D03*
X229792000Y-111761000D03*
X229292000Y-111761000D03*
X228792000Y-111761000D03*
X228292000Y-111761000D03*
X227792000Y-111761000D03*
X227292000Y-111761000D03*
X225792000Y-111761000D03*
%TD*%
D10*
%TO.C,J1*%
X222002000Y-113976000D03*
X222002000Y-111276000D03*
X217202000Y-113976000D03*
X217202000Y-111276000D03*
D11*
X216852000Y-113491000D03*
X218352000Y-113491000D03*
X218852000Y-113491000D03*
X219352000Y-113491000D03*
X219852000Y-113491000D03*
X220352000Y-113491000D03*
X220852000Y-113491000D03*
X222352000Y-113491000D03*
X222352000Y-111761000D03*
X220852000Y-111761000D03*
X220352000Y-111761000D03*
X219852000Y-111761000D03*
X219352000Y-111761000D03*
X218852000Y-111761000D03*
X218352000Y-111761000D03*
X216852000Y-111761000D03*
%TD*%
D10*
%TO.C,J1*%
X213062000Y-113976000D03*
X213062000Y-111276000D03*
X208262000Y-113976000D03*
X208262000Y-111276000D03*
D11*
X207912000Y-113491000D03*
X209412000Y-113491000D03*
X209912000Y-113491000D03*
X210412000Y-113491000D03*
X210912000Y-113491000D03*
X211412000Y-113491000D03*
X211912000Y-113491000D03*
X213412000Y-113491000D03*
X213412000Y-111761000D03*
X211912000Y-111761000D03*
X211412000Y-111761000D03*
X210912000Y-111761000D03*
X210412000Y-111761000D03*
X209912000Y-111761000D03*
X209412000Y-111761000D03*
X207912000Y-111761000D03*
%TD*%
D10*
%TO.C,J1*%
X204122000Y-113976000D03*
X204122000Y-111276000D03*
X199322000Y-113976000D03*
X199322000Y-111276000D03*
D11*
X198972000Y-113491000D03*
X200472000Y-113491000D03*
X200972000Y-113491000D03*
X201472000Y-113491000D03*
X201972000Y-113491000D03*
X202472000Y-113491000D03*
X202972000Y-113491000D03*
X204472000Y-113491000D03*
X204472000Y-111761000D03*
X202972000Y-111761000D03*
X202472000Y-111761000D03*
X201972000Y-111761000D03*
X201472000Y-111761000D03*
X200972000Y-111761000D03*
X200472000Y-111761000D03*
X198972000Y-111761000D03*
%TD*%
D10*
%TO.C,J1*%
X195182000Y-113976000D03*
X195182000Y-111276000D03*
X190382000Y-113976000D03*
X190382000Y-111276000D03*
D11*
X190032000Y-113491000D03*
X191532000Y-113491000D03*
X192032000Y-113491000D03*
X192532000Y-113491000D03*
X193032000Y-113491000D03*
X193532000Y-113491000D03*
X194032000Y-113491000D03*
X195532000Y-113491000D03*
X195532000Y-111761000D03*
X194032000Y-111761000D03*
X193532000Y-111761000D03*
X193032000Y-111761000D03*
X192532000Y-111761000D03*
X192032000Y-111761000D03*
X191532000Y-111761000D03*
X190032000Y-111761000D03*
%TD*%
D10*
%TO.C,J1*%
X186242000Y-113976000D03*
X186242000Y-111276000D03*
X181442000Y-113976000D03*
X181442000Y-111276000D03*
D11*
X181092000Y-113491000D03*
X182592000Y-113491000D03*
X183092000Y-113491000D03*
X183592000Y-113491000D03*
X184092000Y-113491000D03*
X184592000Y-113491000D03*
X185092000Y-113491000D03*
X186592000Y-113491000D03*
X186592000Y-111761000D03*
X185092000Y-111761000D03*
X184592000Y-111761000D03*
X184092000Y-111761000D03*
X183592000Y-111761000D03*
X183092000Y-111761000D03*
X182592000Y-111761000D03*
X181092000Y-111761000D03*
%TD*%
D10*
%TO.C,J1*%
X177302000Y-113976000D03*
X177302000Y-111276000D03*
X172502000Y-113976000D03*
X172502000Y-111276000D03*
D11*
X172152000Y-113491000D03*
X173652000Y-113491000D03*
X174152000Y-113491000D03*
X174652000Y-113491000D03*
X175152000Y-113491000D03*
X175652000Y-113491000D03*
X176152000Y-113491000D03*
X177652000Y-113491000D03*
X177652000Y-111761000D03*
X176152000Y-111761000D03*
X175652000Y-111761000D03*
X175152000Y-111761000D03*
X174652000Y-111761000D03*
X174152000Y-111761000D03*
X173652000Y-111761000D03*
X172152000Y-111761000D03*
%TD*%
D10*
%TO.C,J1*%
X168362000Y-113976000D03*
X168362000Y-111276000D03*
X163562000Y-113976000D03*
X163562000Y-111276000D03*
D11*
X163212000Y-113491000D03*
X164712000Y-113491000D03*
X165212000Y-113491000D03*
X165712000Y-113491000D03*
X166212000Y-113491000D03*
X166712000Y-113491000D03*
X167212000Y-113491000D03*
X168712000Y-113491000D03*
X168712000Y-111761000D03*
X167212000Y-111761000D03*
X166712000Y-111761000D03*
X166212000Y-111761000D03*
X165712000Y-111761000D03*
X165212000Y-111761000D03*
X164712000Y-111761000D03*
X163212000Y-111761000D03*
%TD*%
D10*
%TO.C,J1*%
X159422000Y-113976000D03*
X159422000Y-111276000D03*
X154622000Y-113976000D03*
X154622000Y-111276000D03*
D11*
X154272000Y-113491000D03*
X155772000Y-113491000D03*
X156272000Y-113491000D03*
X156772000Y-113491000D03*
X157272000Y-113491000D03*
X157772000Y-113491000D03*
X158272000Y-113491000D03*
X159772000Y-113491000D03*
X159772000Y-111761000D03*
X158272000Y-111761000D03*
X157772000Y-111761000D03*
X157272000Y-111761000D03*
X156772000Y-111761000D03*
X156272000Y-111761000D03*
X155772000Y-111761000D03*
X154272000Y-111761000D03*
%TD*%
D10*
%TO.C,J1*%
X150482000Y-113976000D03*
X150482000Y-111276000D03*
X145682000Y-113976000D03*
X145682000Y-111276000D03*
D11*
X145332000Y-113491000D03*
X146832000Y-113491000D03*
X147332000Y-113491000D03*
X147832000Y-113491000D03*
X148332000Y-113491000D03*
X148832000Y-113491000D03*
X149332000Y-113491000D03*
X150832000Y-113491000D03*
X150832000Y-111761000D03*
X149332000Y-111761000D03*
X148832000Y-111761000D03*
X148332000Y-111761000D03*
X147832000Y-111761000D03*
X147332000Y-111761000D03*
X146832000Y-111761000D03*
X145332000Y-111761000D03*
%TD*%
D10*
%TO.C,J1*%
X230942000Y-110816000D03*
X230942000Y-108116000D03*
X226142000Y-110816000D03*
X226142000Y-108116000D03*
D11*
X225792000Y-110331000D03*
X227292000Y-110331000D03*
X227792000Y-110331000D03*
X228292000Y-110331000D03*
X228792000Y-110331000D03*
X229292000Y-110331000D03*
X229792000Y-110331000D03*
X231292000Y-110331000D03*
X231292000Y-108601000D03*
X229792000Y-108601000D03*
X229292000Y-108601000D03*
X228792000Y-108601000D03*
X228292000Y-108601000D03*
X227792000Y-108601000D03*
X227292000Y-108601000D03*
X225792000Y-108601000D03*
%TD*%
D10*
%TO.C,J1*%
X222002000Y-110816000D03*
X222002000Y-108116000D03*
X217202000Y-110816000D03*
X217202000Y-108116000D03*
D11*
X216852000Y-110331000D03*
X218352000Y-110331000D03*
X218852000Y-110331000D03*
X219352000Y-110331000D03*
X219852000Y-110331000D03*
X220352000Y-110331000D03*
X220852000Y-110331000D03*
X222352000Y-110331000D03*
X222352000Y-108601000D03*
X220852000Y-108601000D03*
X220352000Y-108601000D03*
X219852000Y-108601000D03*
X219352000Y-108601000D03*
X218852000Y-108601000D03*
X218352000Y-108601000D03*
X216852000Y-108601000D03*
%TD*%
D10*
%TO.C,J1*%
X213062000Y-110816000D03*
X213062000Y-108116000D03*
X208262000Y-110816000D03*
X208262000Y-108116000D03*
D11*
X207912000Y-110331000D03*
X209412000Y-110331000D03*
X209912000Y-110331000D03*
X210412000Y-110331000D03*
X210912000Y-110331000D03*
X211412000Y-110331000D03*
X211912000Y-110331000D03*
X213412000Y-110331000D03*
X213412000Y-108601000D03*
X211912000Y-108601000D03*
X211412000Y-108601000D03*
X210912000Y-108601000D03*
X210412000Y-108601000D03*
X209912000Y-108601000D03*
X209412000Y-108601000D03*
X207912000Y-108601000D03*
%TD*%
D10*
%TO.C,J1*%
X204122000Y-110816000D03*
X204122000Y-108116000D03*
X199322000Y-110816000D03*
X199322000Y-108116000D03*
D11*
X198972000Y-110331000D03*
X200472000Y-110331000D03*
X200972000Y-110331000D03*
X201472000Y-110331000D03*
X201972000Y-110331000D03*
X202472000Y-110331000D03*
X202972000Y-110331000D03*
X204472000Y-110331000D03*
X204472000Y-108601000D03*
X202972000Y-108601000D03*
X202472000Y-108601000D03*
X201972000Y-108601000D03*
X201472000Y-108601000D03*
X200972000Y-108601000D03*
X200472000Y-108601000D03*
X198972000Y-108601000D03*
%TD*%
D10*
%TO.C,J1*%
X195182000Y-110816000D03*
X195182000Y-108116000D03*
X190382000Y-110816000D03*
X190382000Y-108116000D03*
D11*
X190032000Y-110331000D03*
X191532000Y-110331000D03*
X192032000Y-110331000D03*
X192532000Y-110331000D03*
X193032000Y-110331000D03*
X193532000Y-110331000D03*
X194032000Y-110331000D03*
X195532000Y-110331000D03*
X195532000Y-108601000D03*
X194032000Y-108601000D03*
X193532000Y-108601000D03*
X193032000Y-108601000D03*
X192532000Y-108601000D03*
X192032000Y-108601000D03*
X191532000Y-108601000D03*
X190032000Y-108601000D03*
%TD*%
D10*
%TO.C,J1*%
X186242000Y-110816000D03*
X186242000Y-108116000D03*
X181442000Y-110816000D03*
X181442000Y-108116000D03*
D11*
X181092000Y-110331000D03*
X182592000Y-110331000D03*
X183092000Y-110331000D03*
X183592000Y-110331000D03*
X184092000Y-110331000D03*
X184592000Y-110331000D03*
X185092000Y-110331000D03*
X186592000Y-110331000D03*
X186592000Y-108601000D03*
X185092000Y-108601000D03*
X184592000Y-108601000D03*
X184092000Y-108601000D03*
X183592000Y-108601000D03*
X183092000Y-108601000D03*
X182592000Y-108601000D03*
X181092000Y-108601000D03*
%TD*%
D10*
%TO.C,J1*%
X177302000Y-110816000D03*
X177302000Y-108116000D03*
X172502000Y-110816000D03*
X172502000Y-108116000D03*
D11*
X172152000Y-110331000D03*
X173652000Y-110331000D03*
X174152000Y-110331000D03*
X174652000Y-110331000D03*
X175152000Y-110331000D03*
X175652000Y-110331000D03*
X176152000Y-110331000D03*
X177652000Y-110331000D03*
X177652000Y-108601000D03*
X176152000Y-108601000D03*
X175652000Y-108601000D03*
X175152000Y-108601000D03*
X174652000Y-108601000D03*
X174152000Y-108601000D03*
X173652000Y-108601000D03*
X172152000Y-108601000D03*
%TD*%
D10*
%TO.C,J1*%
X168362000Y-110816000D03*
X168362000Y-108116000D03*
X163562000Y-110816000D03*
X163562000Y-108116000D03*
D11*
X163212000Y-110331000D03*
X164712000Y-110331000D03*
X165212000Y-110331000D03*
X165712000Y-110331000D03*
X166212000Y-110331000D03*
X166712000Y-110331000D03*
X167212000Y-110331000D03*
X168712000Y-110331000D03*
X168712000Y-108601000D03*
X167212000Y-108601000D03*
X166712000Y-108601000D03*
X166212000Y-108601000D03*
X165712000Y-108601000D03*
X165212000Y-108601000D03*
X164712000Y-108601000D03*
X163212000Y-108601000D03*
%TD*%
D10*
%TO.C,J1*%
X159422000Y-110816000D03*
X159422000Y-108116000D03*
X154622000Y-110816000D03*
X154622000Y-108116000D03*
D11*
X154272000Y-110331000D03*
X155772000Y-110331000D03*
X156272000Y-110331000D03*
X156772000Y-110331000D03*
X157272000Y-110331000D03*
X157772000Y-110331000D03*
X158272000Y-110331000D03*
X159772000Y-110331000D03*
X159772000Y-108601000D03*
X158272000Y-108601000D03*
X157772000Y-108601000D03*
X157272000Y-108601000D03*
X156772000Y-108601000D03*
X156272000Y-108601000D03*
X155772000Y-108601000D03*
X154272000Y-108601000D03*
%TD*%
D10*
%TO.C,J1*%
X150482000Y-110816000D03*
X150482000Y-108116000D03*
X145682000Y-110816000D03*
X145682000Y-108116000D03*
D11*
X145332000Y-110331000D03*
X146832000Y-110331000D03*
X147332000Y-110331000D03*
X147832000Y-110331000D03*
X148332000Y-110331000D03*
X148832000Y-110331000D03*
X149332000Y-110331000D03*
X150832000Y-110331000D03*
X150832000Y-108601000D03*
X149332000Y-108601000D03*
X148832000Y-108601000D03*
X148332000Y-108601000D03*
X147832000Y-108601000D03*
X147332000Y-108601000D03*
X146832000Y-108601000D03*
X145332000Y-108601000D03*
%TD*%
D10*
%TO.C,J1*%
X230942000Y-107656000D03*
X230942000Y-104956000D03*
X226142000Y-107656000D03*
X226142000Y-104956000D03*
D11*
X225792000Y-107171000D03*
X227292000Y-107171000D03*
X227792000Y-107171000D03*
X228292000Y-107171000D03*
X228792000Y-107171000D03*
X229292000Y-107171000D03*
X229792000Y-107171000D03*
X231292000Y-107171000D03*
X231292000Y-105441000D03*
X229792000Y-105441000D03*
X229292000Y-105441000D03*
X228792000Y-105441000D03*
X228292000Y-105441000D03*
X227792000Y-105441000D03*
X227292000Y-105441000D03*
X225792000Y-105441000D03*
%TD*%
D10*
%TO.C,J1*%
X222002000Y-107656000D03*
X222002000Y-104956000D03*
X217202000Y-107656000D03*
X217202000Y-104956000D03*
D11*
X216852000Y-107171000D03*
X218352000Y-107171000D03*
X218852000Y-107171000D03*
X219352000Y-107171000D03*
X219852000Y-107171000D03*
X220352000Y-107171000D03*
X220852000Y-107171000D03*
X222352000Y-107171000D03*
X222352000Y-105441000D03*
X220852000Y-105441000D03*
X220352000Y-105441000D03*
X219852000Y-105441000D03*
X219352000Y-105441000D03*
X218852000Y-105441000D03*
X218352000Y-105441000D03*
X216852000Y-105441000D03*
%TD*%
D10*
%TO.C,J1*%
X213062000Y-107656000D03*
X213062000Y-104956000D03*
X208262000Y-107656000D03*
X208262000Y-104956000D03*
D11*
X207912000Y-107171000D03*
X209412000Y-107171000D03*
X209912000Y-107171000D03*
X210412000Y-107171000D03*
X210912000Y-107171000D03*
X211412000Y-107171000D03*
X211912000Y-107171000D03*
X213412000Y-107171000D03*
X213412000Y-105441000D03*
X211912000Y-105441000D03*
X211412000Y-105441000D03*
X210912000Y-105441000D03*
X210412000Y-105441000D03*
X209912000Y-105441000D03*
X209412000Y-105441000D03*
X207912000Y-105441000D03*
%TD*%
D10*
%TO.C,J1*%
X204122000Y-107656000D03*
X204122000Y-104956000D03*
X199322000Y-107656000D03*
X199322000Y-104956000D03*
D11*
X198972000Y-107171000D03*
X200472000Y-107171000D03*
X200972000Y-107171000D03*
X201472000Y-107171000D03*
X201972000Y-107171000D03*
X202472000Y-107171000D03*
X202972000Y-107171000D03*
X204472000Y-107171000D03*
X204472000Y-105441000D03*
X202972000Y-105441000D03*
X202472000Y-105441000D03*
X201972000Y-105441000D03*
X201472000Y-105441000D03*
X200972000Y-105441000D03*
X200472000Y-105441000D03*
X198972000Y-105441000D03*
%TD*%
D10*
%TO.C,J1*%
X195182000Y-107656000D03*
X195182000Y-104956000D03*
X190382000Y-107656000D03*
X190382000Y-104956000D03*
D11*
X190032000Y-107171000D03*
X191532000Y-107171000D03*
X192032000Y-107171000D03*
X192532000Y-107171000D03*
X193032000Y-107171000D03*
X193532000Y-107171000D03*
X194032000Y-107171000D03*
X195532000Y-107171000D03*
X195532000Y-105441000D03*
X194032000Y-105441000D03*
X193532000Y-105441000D03*
X193032000Y-105441000D03*
X192532000Y-105441000D03*
X192032000Y-105441000D03*
X191532000Y-105441000D03*
X190032000Y-105441000D03*
%TD*%
D10*
%TO.C,J1*%
X186242000Y-107656000D03*
X186242000Y-104956000D03*
X181442000Y-107656000D03*
X181442000Y-104956000D03*
D11*
X181092000Y-107171000D03*
X182592000Y-107171000D03*
X183092000Y-107171000D03*
X183592000Y-107171000D03*
X184092000Y-107171000D03*
X184592000Y-107171000D03*
X185092000Y-107171000D03*
X186592000Y-107171000D03*
X186592000Y-105441000D03*
X185092000Y-105441000D03*
X184592000Y-105441000D03*
X184092000Y-105441000D03*
X183592000Y-105441000D03*
X183092000Y-105441000D03*
X182592000Y-105441000D03*
X181092000Y-105441000D03*
%TD*%
D10*
%TO.C,J1*%
X177302000Y-107656000D03*
X177302000Y-104956000D03*
X172502000Y-107656000D03*
X172502000Y-104956000D03*
D11*
X172152000Y-107171000D03*
X173652000Y-107171000D03*
X174152000Y-107171000D03*
X174652000Y-107171000D03*
X175152000Y-107171000D03*
X175652000Y-107171000D03*
X176152000Y-107171000D03*
X177652000Y-107171000D03*
X177652000Y-105441000D03*
X176152000Y-105441000D03*
X175652000Y-105441000D03*
X175152000Y-105441000D03*
X174652000Y-105441000D03*
X174152000Y-105441000D03*
X173652000Y-105441000D03*
X172152000Y-105441000D03*
%TD*%
D10*
%TO.C,J1*%
X168362000Y-107656000D03*
X168362000Y-104956000D03*
X163562000Y-107656000D03*
X163562000Y-104956000D03*
D11*
X163212000Y-107171000D03*
X164712000Y-107171000D03*
X165212000Y-107171000D03*
X165712000Y-107171000D03*
X166212000Y-107171000D03*
X166712000Y-107171000D03*
X167212000Y-107171000D03*
X168712000Y-107171000D03*
X168712000Y-105441000D03*
X167212000Y-105441000D03*
X166712000Y-105441000D03*
X166212000Y-105441000D03*
X165712000Y-105441000D03*
X165212000Y-105441000D03*
X164712000Y-105441000D03*
X163212000Y-105441000D03*
%TD*%
D10*
%TO.C,J1*%
X159422000Y-107656000D03*
X159422000Y-104956000D03*
X154622000Y-107656000D03*
X154622000Y-104956000D03*
D11*
X154272000Y-107171000D03*
X155772000Y-107171000D03*
X156272000Y-107171000D03*
X156772000Y-107171000D03*
X157272000Y-107171000D03*
X157772000Y-107171000D03*
X158272000Y-107171000D03*
X159772000Y-107171000D03*
X159772000Y-105441000D03*
X158272000Y-105441000D03*
X157772000Y-105441000D03*
X157272000Y-105441000D03*
X156772000Y-105441000D03*
X156272000Y-105441000D03*
X155772000Y-105441000D03*
X154272000Y-105441000D03*
%TD*%
D10*
%TO.C,J1*%
X150482000Y-107656000D03*
X150482000Y-104956000D03*
X145682000Y-107656000D03*
X145682000Y-104956000D03*
D11*
X145332000Y-107171000D03*
X146832000Y-107171000D03*
X147332000Y-107171000D03*
X147832000Y-107171000D03*
X148332000Y-107171000D03*
X148832000Y-107171000D03*
X149332000Y-107171000D03*
X150832000Y-107171000D03*
X150832000Y-105441000D03*
X149332000Y-105441000D03*
X148832000Y-105441000D03*
X148332000Y-105441000D03*
X147832000Y-105441000D03*
X147332000Y-105441000D03*
X146832000Y-105441000D03*
X145332000Y-105441000D03*
%TD*%
D10*
%TO.C,J1*%
X230942000Y-104496000D03*
X230942000Y-101796000D03*
X226142000Y-104496000D03*
X226142000Y-101796000D03*
D11*
X225792000Y-104011000D03*
X227292000Y-104011000D03*
X227792000Y-104011000D03*
X228292000Y-104011000D03*
X228792000Y-104011000D03*
X229292000Y-104011000D03*
X229792000Y-104011000D03*
X231292000Y-104011000D03*
X231292000Y-102281000D03*
X229792000Y-102281000D03*
X229292000Y-102281000D03*
X228792000Y-102281000D03*
X228292000Y-102281000D03*
X227792000Y-102281000D03*
X227292000Y-102281000D03*
X225792000Y-102281000D03*
%TD*%
D10*
%TO.C,J1*%
X222002000Y-104496000D03*
X222002000Y-101796000D03*
X217202000Y-104496000D03*
X217202000Y-101796000D03*
D11*
X216852000Y-104011000D03*
X218352000Y-104011000D03*
X218852000Y-104011000D03*
X219352000Y-104011000D03*
X219852000Y-104011000D03*
X220352000Y-104011000D03*
X220852000Y-104011000D03*
X222352000Y-104011000D03*
X222352000Y-102281000D03*
X220852000Y-102281000D03*
X220352000Y-102281000D03*
X219852000Y-102281000D03*
X219352000Y-102281000D03*
X218852000Y-102281000D03*
X218352000Y-102281000D03*
X216852000Y-102281000D03*
%TD*%
D10*
%TO.C,J1*%
X213062000Y-104496000D03*
X213062000Y-101796000D03*
X208262000Y-104496000D03*
X208262000Y-101796000D03*
D11*
X207912000Y-104011000D03*
X209412000Y-104011000D03*
X209912000Y-104011000D03*
X210412000Y-104011000D03*
X210912000Y-104011000D03*
X211412000Y-104011000D03*
X211912000Y-104011000D03*
X213412000Y-104011000D03*
X213412000Y-102281000D03*
X211912000Y-102281000D03*
X211412000Y-102281000D03*
X210912000Y-102281000D03*
X210412000Y-102281000D03*
X209912000Y-102281000D03*
X209412000Y-102281000D03*
X207912000Y-102281000D03*
%TD*%
D10*
%TO.C,J1*%
X204122000Y-104496000D03*
X204122000Y-101796000D03*
X199322000Y-104496000D03*
X199322000Y-101796000D03*
D11*
X198972000Y-104011000D03*
X200472000Y-104011000D03*
X200972000Y-104011000D03*
X201472000Y-104011000D03*
X201972000Y-104011000D03*
X202472000Y-104011000D03*
X202972000Y-104011000D03*
X204472000Y-104011000D03*
X204472000Y-102281000D03*
X202972000Y-102281000D03*
X202472000Y-102281000D03*
X201972000Y-102281000D03*
X201472000Y-102281000D03*
X200972000Y-102281000D03*
X200472000Y-102281000D03*
X198972000Y-102281000D03*
%TD*%
D10*
%TO.C,J1*%
X195182000Y-104496000D03*
X195182000Y-101796000D03*
X190382000Y-104496000D03*
X190382000Y-101796000D03*
D11*
X190032000Y-104011000D03*
X191532000Y-104011000D03*
X192032000Y-104011000D03*
X192532000Y-104011000D03*
X193032000Y-104011000D03*
X193532000Y-104011000D03*
X194032000Y-104011000D03*
X195532000Y-104011000D03*
X195532000Y-102281000D03*
X194032000Y-102281000D03*
X193532000Y-102281000D03*
X193032000Y-102281000D03*
X192532000Y-102281000D03*
X192032000Y-102281000D03*
X191532000Y-102281000D03*
X190032000Y-102281000D03*
%TD*%
D10*
%TO.C,J1*%
X186242000Y-104496000D03*
X186242000Y-101796000D03*
X181442000Y-104496000D03*
X181442000Y-101796000D03*
D11*
X181092000Y-104011000D03*
X182592000Y-104011000D03*
X183092000Y-104011000D03*
X183592000Y-104011000D03*
X184092000Y-104011000D03*
X184592000Y-104011000D03*
X185092000Y-104011000D03*
X186592000Y-104011000D03*
X186592000Y-102281000D03*
X185092000Y-102281000D03*
X184592000Y-102281000D03*
X184092000Y-102281000D03*
X183592000Y-102281000D03*
X183092000Y-102281000D03*
X182592000Y-102281000D03*
X181092000Y-102281000D03*
%TD*%
D10*
%TO.C,J1*%
X177302000Y-104496000D03*
X177302000Y-101796000D03*
X172502000Y-104496000D03*
X172502000Y-101796000D03*
D11*
X172152000Y-104011000D03*
X173652000Y-104011000D03*
X174152000Y-104011000D03*
X174652000Y-104011000D03*
X175152000Y-104011000D03*
X175652000Y-104011000D03*
X176152000Y-104011000D03*
X177652000Y-104011000D03*
X177652000Y-102281000D03*
X176152000Y-102281000D03*
X175652000Y-102281000D03*
X175152000Y-102281000D03*
X174652000Y-102281000D03*
X174152000Y-102281000D03*
X173652000Y-102281000D03*
X172152000Y-102281000D03*
%TD*%
D10*
%TO.C,J1*%
X168362000Y-104496000D03*
X168362000Y-101796000D03*
X163562000Y-104496000D03*
X163562000Y-101796000D03*
D11*
X163212000Y-104011000D03*
X164712000Y-104011000D03*
X165212000Y-104011000D03*
X165712000Y-104011000D03*
X166212000Y-104011000D03*
X166712000Y-104011000D03*
X167212000Y-104011000D03*
X168712000Y-104011000D03*
X168712000Y-102281000D03*
X167212000Y-102281000D03*
X166712000Y-102281000D03*
X166212000Y-102281000D03*
X165712000Y-102281000D03*
X165212000Y-102281000D03*
X164712000Y-102281000D03*
X163212000Y-102281000D03*
%TD*%
D10*
%TO.C,J1*%
X159422000Y-104496000D03*
X159422000Y-101796000D03*
X154622000Y-104496000D03*
X154622000Y-101796000D03*
D11*
X154272000Y-104011000D03*
X155772000Y-104011000D03*
X156272000Y-104011000D03*
X156772000Y-104011000D03*
X157272000Y-104011000D03*
X157772000Y-104011000D03*
X158272000Y-104011000D03*
X159772000Y-104011000D03*
X159772000Y-102281000D03*
X158272000Y-102281000D03*
X157772000Y-102281000D03*
X157272000Y-102281000D03*
X156772000Y-102281000D03*
X156272000Y-102281000D03*
X155772000Y-102281000D03*
X154272000Y-102281000D03*
%TD*%
D10*
%TO.C,J1*%
X150482000Y-104496000D03*
X150482000Y-101796000D03*
X145682000Y-104496000D03*
X145682000Y-101796000D03*
D11*
X145332000Y-104011000D03*
X146832000Y-104011000D03*
X147332000Y-104011000D03*
X147832000Y-104011000D03*
X148332000Y-104011000D03*
X148832000Y-104011000D03*
X149332000Y-104011000D03*
X150832000Y-104011000D03*
X150832000Y-102281000D03*
X149332000Y-102281000D03*
X148832000Y-102281000D03*
X148332000Y-102281000D03*
X147832000Y-102281000D03*
X147332000Y-102281000D03*
X146832000Y-102281000D03*
X145332000Y-102281000D03*
%TD*%
D10*
%TO.C,J1*%
X230942000Y-101336000D03*
X230942000Y-98636000D03*
X226142000Y-101336000D03*
X226142000Y-98636000D03*
D11*
X225792000Y-100851000D03*
X227292000Y-100851000D03*
X227792000Y-100851000D03*
X228292000Y-100851000D03*
X228792000Y-100851000D03*
X229292000Y-100851000D03*
X229792000Y-100851000D03*
X231292000Y-100851000D03*
X231292000Y-99121000D03*
X229792000Y-99121000D03*
X229292000Y-99121000D03*
X228792000Y-99121000D03*
X228292000Y-99121000D03*
X227792000Y-99121000D03*
X227292000Y-99121000D03*
X225792000Y-99121000D03*
%TD*%
D10*
%TO.C,J1*%
X222002000Y-101336000D03*
X222002000Y-98636000D03*
X217202000Y-101336000D03*
X217202000Y-98636000D03*
D11*
X216852000Y-100851000D03*
X218352000Y-100851000D03*
X218852000Y-100851000D03*
X219352000Y-100851000D03*
X219852000Y-100851000D03*
X220352000Y-100851000D03*
X220852000Y-100851000D03*
X222352000Y-100851000D03*
X222352000Y-99121000D03*
X220852000Y-99121000D03*
X220352000Y-99121000D03*
X219852000Y-99121000D03*
X219352000Y-99121000D03*
X218852000Y-99121000D03*
X218352000Y-99121000D03*
X216852000Y-99121000D03*
%TD*%
D10*
%TO.C,J1*%
X213062000Y-101336000D03*
X213062000Y-98636000D03*
X208262000Y-101336000D03*
X208262000Y-98636000D03*
D11*
X207912000Y-100851000D03*
X209412000Y-100851000D03*
X209912000Y-100851000D03*
X210412000Y-100851000D03*
X210912000Y-100851000D03*
X211412000Y-100851000D03*
X211912000Y-100851000D03*
X213412000Y-100851000D03*
X213412000Y-99121000D03*
X211912000Y-99121000D03*
X211412000Y-99121000D03*
X210912000Y-99121000D03*
X210412000Y-99121000D03*
X209912000Y-99121000D03*
X209412000Y-99121000D03*
X207912000Y-99121000D03*
%TD*%
D10*
%TO.C,J1*%
X204122000Y-101336000D03*
X204122000Y-98636000D03*
X199322000Y-101336000D03*
X199322000Y-98636000D03*
D11*
X198972000Y-100851000D03*
X200472000Y-100851000D03*
X200972000Y-100851000D03*
X201472000Y-100851000D03*
X201972000Y-100851000D03*
X202472000Y-100851000D03*
X202972000Y-100851000D03*
X204472000Y-100851000D03*
X204472000Y-99121000D03*
X202972000Y-99121000D03*
X202472000Y-99121000D03*
X201972000Y-99121000D03*
X201472000Y-99121000D03*
X200972000Y-99121000D03*
X200472000Y-99121000D03*
X198972000Y-99121000D03*
%TD*%
D10*
%TO.C,J1*%
X195182000Y-101336000D03*
X195182000Y-98636000D03*
X190382000Y-101336000D03*
X190382000Y-98636000D03*
D11*
X190032000Y-100851000D03*
X191532000Y-100851000D03*
X192032000Y-100851000D03*
X192532000Y-100851000D03*
X193032000Y-100851000D03*
X193532000Y-100851000D03*
X194032000Y-100851000D03*
X195532000Y-100851000D03*
X195532000Y-99121000D03*
X194032000Y-99121000D03*
X193532000Y-99121000D03*
X193032000Y-99121000D03*
X192532000Y-99121000D03*
X192032000Y-99121000D03*
X191532000Y-99121000D03*
X190032000Y-99121000D03*
%TD*%
D10*
%TO.C,J1*%
X186242000Y-101336000D03*
X186242000Y-98636000D03*
X181442000Y-101336000D03*
X181442000Y-98636000D03*
D11*
X181092000Y-100851000D03*
X182592000Y-100851000D03*
X183092000Y-100851000D03*
X183592000Y-100851000D03*
X184092000Y-100851000D03*
X184592000Y-100851000D03*
X185092000Y-100851000D03*
X186592000Y-100851000D03*
X186592000Y-99121000D03*
X185092000Y-99121000D03*
X184592000Y-99121000D03*
X184092000Y-99121000D03*
X183592000Y-99121000D03*
X183092000Y-99121000D03*
X182592000Y-99121000D03*
X181092000Y-99121000D03*
%TD*%
D10*
%TO.C,J1*%
X177302000Y-101336000D03*
X177302000Y-98636000D03*
X172502000Y-101336000D03*
X172502000Y-98636000D03*
D11*
X172152000Y-100851000D03*
X173652000Y-100851000D03*
X174152000Y-100851000D03*
X174652000Y-100851000D03*
X175152000Y-100851000D03*
X175652000Y-100851000D03*
X176152000Y-100851000D03*
X177652000Y-100851000D03*
X177652000Y-99121000D03*
X176152000Y-99121000D03*
X175652000Y-99121000D03*
X175152000Y-99121000D03*
X174652000Y-99121000D03*
X174152000Y-99121000D03*
X173652000Y-99121000D03*
X172152000Y-99121000D03*
%TD*%
D10*
%TO.C,J1*%
X168362000Y-101336000D03*
X168362000Y-98636000D03*
X163562000Y-101336000D03*
X163562000Y-98636000D03*
D11*
X163212000Y-100851000D03*
X164712000Y-100851000D03*
X165212000Y-100851000D03*
X165712000Y-100851000D03*
X166212000Y-100851000D03*
X166712000Y-100851000D03*
X167212000Y-100851000D03*
X168712000Y-100851000D03*
X168712000Y-99121000D03*
X167212000Y-99121000D03*
X166712000Y-99121000D03*
X166212000Y-99121000D03*
X165712000Y-99121000D03*
X165212000Y-99121000D03*
X164712000Y-99121000D03*
X163212000Y-99121000D03*
%TD*%
D10*
%TO.C,J1*%
X159422000Y-101336000D03*
X159422000Y-98636000D03*
X154622000Y-101336000D03*
X154622000Y-98636000D03*
D11*
X154272000Y-100851000D03*
X155772000Y-100851000D03*
X156272000Y-100851000D03*
X156772000Y-100851000D03*
X157272000Y-100851000D03*
X157772000Y-100851000D03*
X158272000Y-100851000D03*
X159772000Y-100851000D03*
X159772000Y-99121000D03*
X158272000Y-99121000D03*
X157772000Y-99121000D03*
X157272000Y-99121000D03*
X156772000Y-99121000D03*
X156272000Y-99121000D03*
X155772000Y-99121000D03*
X154272000Y-99121000D03*
%TD*%
D10*
%TO.C,J1*%
X150482000Y-101336000D03*
X150482000Y-98636000D03*
X145682000Y-101336000D03*
X145682000Y-98636000D03*
D11*
X145332000Y-100851000D03*
X146832000Y-100851000D03*
X147332000Y-100851000D03*
X147832000Y-100851000D03*
X148332000Y-100851000D03*
X148832000Y-100851000D03*
X149332000Y-100851000D03*
X150832000Y-100851000D03*
X150832000Y-99121000D03*
X149332000Y-99121000D03*
X148832000Y-99121000D03*
X148332000Y-99121000D03*
X147832000Y-99121000D03*
X147332000Y-99121000D03*
X146832000Y-99121000D03*
X145332000Y-99121000D03*
%TD*%
D10*
%TO.C,J1*%
X230942000Y-98176000D03*
X230942000Y-95476000D03*
X226142000Y-98176000D03*
X226142000Y-95476000D03*
D11*
X225792000Y-97691000D03*
X227292000Y-97691000D03*
X227792000Y-97691000D03*
X228292000Y-97691000D03*
X228792000Y-97691000D03*
X229292000Y-97691000D03*
X229792000Y-97691000D03*
X231292000Y-97691000D03*
X231292000Y-95961000D03*
X229792000Y-95961000D03*
X229292000Y-95961000D03*
X228792000Y-95961000D03*
X228292000Y-95961000D03*
X227792000Y-95961000D03*
X227292000Y-95961000D03*
X225792000Y-95961000D03*
%TD*%
D10*
%TO.C,J1*%
X222002000Y-98176000D03*
X222002000Y-95476000D03*
X217202000Y-98176000D03*
X217202000Y-95476000D03*
D11*
X216852000Y-97691000D03*
X218352000Y-97691000D03*
X218852000Y-97691000D03*
X219352000Y-97691000D03*
X219852000Y-97691000D03*
X220352000Y-97691000D03*
X220852000Y-97691000D03*
X222352000Y-97691000D03*
X222352000Y-95961000D03*
X220852000Y-95961000D03*
X220352000Y-95961000D03*
X219852000Y-95961000D03*
X219352000Y-95961000D03*
X218852000Y-95961000D03*
X218352000Y-95961000D03*
X216852000Y-95961000D03*
%TD*%
D10*
%TO.C,J1*%
X213062000Y-98176000D03*
X213062000Y-95476000D03*
X208262000Y-98176000D03*
X208262000Y-95476000D03*
D11*
X207912000Y-97691000D03*
X209412000Y-97691000D03*
X209912000Y-97691000D03*
X210412000Y-97691000D03*
X210912000Y-97691000D03*
X211412000Y-97691000D03*
X211912000Y-97691000D03*
X213412000Y-97691000D03*
X213412000Y-95961000D03*
X211912000Y-95961000D03*
X211412000Y-95961000D03*
X210912000Y-95961000D03*
X210412000Y-95961000D03*
X209912000Y-95961000D03*
X209412000Y-95961000D03*
X207912000Y-95961000D03*
%TD*%
D10*
%TO.C,J1*%
X204122000Y-98176000D03*
X204122000Y-95476000D03*
X199322000Y-98176000D03*
X199322000Y-95476000D03*
D11*
X198972000Y-97691000D03*
X200472000Y-97691000D03*
X200972000Y-97691000D03*
X201472000Y-97691000D03*
X201972000Y-97691000D03*
X202472000Y-97691000D03*
X202972000Y-97691000D03*
X204472000Y-97691000D03*
X204472000Y-95961000D03*
X202972000Y-95961000D03*
X202472000Y-95961000D03*
X201972000Y-95961000D03*
X201472000Y-95961000D03*
X200972000Y-95961000D03*
X200472000Y-95961000D03*
X198972000Y-95961000D03*
%TD*%
D10*
%TO.C,J1*%
X195182000Y-98176000D03*
X195182000Y-95476000D03*
X190382000Y-98176000D03*
X190382000Y-95476000D03*
D11*
X190032000Y-97691000D03*
X191532000Y-97691000D03*
X192032000Y-97691000D03*
X192532000Y-97691000D03*
X193032000Y-97691000D03*
X193532000Y-97691000D03*
X194032000Y-97691000D03*
X195532000Y-97691000D03*
X195532000Y-95961000D03*
X194032000Y-95961000D03*
X193532000Y-95961000D03*
X193032000Y-95961000D03*
X192532000Y-95961000D03*
X192032000Y-95961000D03*
X191532000Y-95961000D03*
X190032000Y-95961000D03*
%TD*%
D10*
%TO.C,J1*%
X186242000Y-98176000D03*
X186242000Y-95476000D03*
X181442000Y-98176000D03*
X181442000Y-95476000D03*
D11*
X181092000Y-97691000D03*
X182592000Y-97691000D03*
X183092000Y-97691000D03*
X183592000Y-97691000D03*
X184092000Y-97691000D03*
X184592000Y-97691000D03*
X185092000Y-97691000D03*
X186592000Y-97691000D03*
X186592000Y-95961000D03*
X185092000Y-95961000D03*
X184592000Y-95961000D03*
X184092000Y-95961000D03*
X183592000Y-95961000D03*
X183092000Y-95961000D03*
X182592000Y-95961000D03*
X181092000Y-95961000D03*
%TD*%
D10*
%TO.C,J1*%
X177302000Y-98176000D03*
X177302000Y-95476000D03*
X172502000Y-98176000D03*
X172502000Y-95476000D03*
D11*
X172152000Y-97691000D03*
X173652000Y-97691000D03*
X174152000Y-97691000D03*
X174652000Y-97691000D03*
X175152000Y-97691000D03*
X175652000Y-97691000D03*
X176152000Y-97691000D03*
X177652000Y-97691000D03*
X177652000Y-95961000D03*
X176152000Y-95961000D03*
X175652000Y-95961000D03*
X175152000Y-95961000D03*
X174652000Y-95961000D03*
X174152000Y-95961000D03*
X173652000Y-95961000D03*
X172152000Y-95961000D03*
%TD*%
D10*
%TO.C,J1*%
X168362000Y-98176000D03*
X168362000Y-95476000D03*
X163562000Y-98176000D03*
X163562000Y-95476000D03*
D11*
X163212000Y-97691000D03*
X164712000Y-97691000D03*
X165212000Y-97691000D03*
X165712000Y-97691000D03*
X166212000Y-97691000D03*
X166712000Y-97691000D03*
X167212000Y-97691000D03*
X168712000Y-97691000D03*
X168712000Y-95961000D03*
X167212000Y-95961000D03*
X166712000Y-95961000D03*
X166212000Y-95961000D03*
X165712000Y-95961000D03*
X165212000Y-95961000D03*
X164712000Y-95961000D03*
X163212000Y-95961000D03*
%TD*%
D10*
%TO.C,J1*%
X159422000Y-98176000D03*
X159422000Y-95476000D03*
X154622000Y-98176000D03*
X154622000Y-95476000D03*
D11*
X154272000Y-97691000D03*
X155772000Y-97691000D03*
X156272000Y-97691000D03*
X156772000Y-97691000D03*
X157272000Y-97691000D03*
X157772000Y-97691000D03*
X158272000Y-97691000D03*
X159772000Y-97691000D03*
X159772000Y-95961000D03*
X158272000Y-95961000D03*
X157772000Y-95961000D03*
X157272000Y-95961000D03*
X156772000Y-95961000D03*
X156272000Y-95961000D03*
X155772000Y-95961000D03*
X154272000Y-95961000D03*
%TD*%
D10*
%TO.C,J1*%
X150482000Y-98176000D03*
X150482000Y-95476000D03*
X145682000Y-98176000D03*
X145682000Y-95476000D03*
D11*
X145332000Y-97691000D03*
X146832000Y-97691000D03*
X147332000Y-97691000D03*
X147832000Y-97691000D03*
X148332000Y-97691000D03*
X148832000Y-97691000D03*
X149332000Y-97691000D03*
X150832000Y-97691000D03*
X150832000Y-95961000D03*
X149332000Y-95961000D03*
X148832000Y-95961000D03*
X148332000Y-95961000D03*
X147832000Y-95961000D03*
X147332000Y-95961000D03*
X146832000Y-95961000D03*
X145332000Y-95961000D03*
%TD*%
D10*
%TO.C,J1*%
X230942000Y-95016000D03*
X230942000Y-92316000D03*
X226142000Y-95016000D03*
X226142000Y-92316000D03*
D11*
X225792000Y-94531000D03*
X227292000Y-94531000D03*
X227792000Y-94531000D03*
X228292000Y-94531000D03*
X228792000Y-94531000D03*
X229292000Y-94531000D03*
X229792000Y-94531000D03*
X231292000Y-94531000D03*
X231292000Y-92801000D03*
X229792000Y-92801000D03*
X229292000Y-92801000D03*
X228792000Y-92801000D03*
X228292000Y-92801000D03*
X227792000Y-92801000D03*
X227292000Y-92801000D03*
X225792000Y-92801000D03*
%TD*%
D10*
%TO.C,J1*%
X222002000Y-95016000D03*
X222002000Y-92316000D03*
X217202000Y-95016000D03*
X217202000Y-92316000D03*
D11*
X216852000Y-94531000D03*
X218352000Y-94531000D03*
X218852000Y-94531000D03*
X219352000Y-94531000D03*
X219852000Y-94531000D03*
X220352000Y-94531000D03*
X220852000Y-94531000D03*
X222352000Y-94531000D03*
X222352000Y-92801000D03*
X220852000Y-92801000D03*
X220352000Y-92801000D03*
X219852000Y-92801000D03*
X219352000Y-92801000D03*
X218852000Y-92801000D03*
X218352000Y-92801000D03*
X216852000Y-92801000D03*
%TD*%
D10*
%TO.C,J1*%
X213062000Y-95016000D03*
X213062000Y-92316000D03*
X208262000Y-95016000D03*
X208262000Y-92316000D03*
D11*
X207912000Y-94531000D03*
X209412000Y-94531000D03*
X209912000Y-94531000D03*
X210412000Y-94531000D03*
X210912000Y-94531000D03*
X211412000Y-94531000D03*
X211912000Y-94531000D03*
X213412000Y-94531000D03*
X213412000Y-92801000D03*
X211912000Y-92801000D03*
X211412000Y-92801000D03*
X210912000Y-92801000D03*
X210412000Y-92801000D03*
X209912000Y-92801000D03*
X209412000Y-92801000D03*
X207912000Y-92801000D03*
%TD*%
D10*
%TO.C,J1*%
X204122000Y-95016000D03*
X204122000Y-92316000D03*
X199322000Y-95016000D03*
X199322000Y-92316000D03*
D11*
X198972000Y-94531000D03*
X200472000Y-94531000D03*
X200972000Y-94531000D03*
X201472000Y-94531000D03*
X201972000Y-94531000D03*
X202472000Y-94531000D03*
X202972000Y-94531000D03*
X204472000Y-94531000D03*
X204472000Y-92801000D03*
X202972000Y-92801000D03*
X202472000Y-92801000D03*
X201972000Y-92801000D03*
X201472000Y-92801000D03*
X200972000Y-92801000D03*
X200472000Y-92801000D03*
X198972000Y-92801000D03*
%TD*%
D10*
%TO.C,J1*%
X195182000Y-95016000D03*
X195182000Y-92316000D03*
X190382000Y-95016000D03*
X190382000Y-92316000D03*
D11*
X190032000Y-94531000D03*
X191532000Y-94531000D03*
X192032000Y-94531000D03*
X192532000Y-94531000D03*
X193032000Y-94531000D03*
X193532000Y-94531000D03*
X194032000Y-94531000D03*
X195532000Y-94531000D03*
X195532000Y-92801000D03*
X194032000Y-92801000D03*
X193532000Y-92801000D03*
X193032000Y-92801000D03*
X192532000Y-92801000D03*
X192032000Y-92801000D03*
X191532000Y-92801000D03*
X190032000Y-92801000D03*
%TD*%
D10*
%TO.C,J1*%
X186242000Y-95016000D03*
X186242000Y-92316000D03*
X181442000Y-95016000D03*
X181442000Y-92316000D03*
D11*
X181092000Y-94531000D03*
X182592000Y-94531000D03*
X183092000Y-94531000D03*
X183592000Y-94531000D03*
X184092000Y-94531000D03*
X184592000Y-94531000D03*
X185092000Y-94531000D03*
X186592000Y-94531000D03*
X186592000Y-92801000D03*
X185092000Y-92801000D03*
X184592000Y-92801000D03*
X184092000Y-92801000D03*
X183592000Y-92801000D03*
X183092000Y-92801000D03*
X182592000Y-92801000D03*
X181092000Y-92801000D03*
%TD*%
D10*
%TO.C,J1*%
X177302000Y-95016000D03*
X177302000Y-92316000D03*
X172502000Y-95016000D03*
X172502000Y-92316000D03*
D11*
X172152000Y-94531000D03*
X173652000Y-94531000D03*
X174152000Y-94531000D03*
X174652000Y-94531000D03*
X175152000Y-94531000D03*
X175652000Y-94531000D03*
X176152000Y-94531000D03*
X177652000Y-94531000D03*
X177652000Y-92801000D03*
X176152000Y-92801000D03*
X175652000Y-92801000D03*
X175152000Y-92801000D03*
X174652000Y-92801000D03*
X174152000Y-92801000D03*
X173652000Y-92801000D03*
X172152000Y-92801000D03*
%TD*%
D10*
%TO.C,J1*%
X168362000Y-95016000D03*
X168362000Y-92316000D03*
X163562000Y-95016000D03*
X163562000Y-92316000D03*
D11*
X163212000Y-94531000D03*
X164712000Y-94531000D03*
X165212000Y-94531000D03*
X165712000Y-94531000D03*
X166212000Y-94531000D03*
X166712000Y-94531000D03*
X167212000Y-94531000D03*
X168712000Y-94531000D03*
X168712000Y-92801000D03*
X167212000Y-92801000D03*
X166712000Y-92801000D03*
X166212000Y-92801000D03*
X165712000Y-92801000D03*
X165212000Y-92801000D03*
X164712000Y-92801000D03*
X163212000Y-92801000D03*
%TD*%
D10*
%TO.C,J1*%
X159422000Y-95016000D03*
X159422000Y-92316000D03*
X154622000Y-95016000D03*
X154622000Y-92316000D03*
D11*
X154272000Y-94531000D03*
X155772000Y-94531000D03*
X156272000Y-94531000D03*
X156772000Y-94531000D03*
X157272000Y-94531000D03*
X157772000Y-94531000D03*
X158272000Y-94531000D03*
X159772000Y-94531000D03*
X159772000Y-92801000D03*
X158272000Y-92801000D03*
X157772000Y-92801000D03*
X157272000Y-92801000D03*
X156772000Y-92801000D03*
X156272000Y-92801000D03*
X155772000Y-92801000D03*
X154272000Y-92801000D03*
%TD*%
D10*
%TO.C,J1*%
X150482000Y-95016000D03*
X150482000Y-92316000D03*
X145682000Y-95016000D03*
X145682000Y-92316000D03*
D11*
X145332000Y-94531000D03*
X146832000Y-94531000D03*
X147332000Y-94531000D03*
X147832000Y-94531000D03*
X148332000Y-94531000D03*
X148832000Y-94531000D03*
X149332000Y-94531000D03*
X150832000Y-94531000D03*
X150832000Y-92801000D03*
X149332000Y-92801000D03*
X148832000Y-92801000D03*
X148332000Y-92801000D03*
X147832000Y-92801000D03*
X147332000Y-92801000D03*
X146832000Y-92801000D03*
X145332000Y-92801000D03*
%TD*%
D10*
%TO.C,J1*%
X230942000Y-91856000D03*
X230942000Y-89156000D03*
X226142000Y-91856000D03*
X226142000Y-89156000D03*
D11*
X225792000Y-91371000D03*
X227292000Y-91371000D03*
X227792000Y-91371000D03*
X228292000Y-91371000D03*
X228792000Y-91371000D03*
X229292000Y-91371000D03*
X229792000Y-91371000D03*
X231292000Y-91371000D03*
X231292000Y-89641000D03*
X229792000Y-89641000D03*
X229292000Y-89641000D03*
X228792000Y-89641000D03*
X228292000Y-89641000D03*
X227792000Y-89641000D03*
X227292000Y-89641000D03*
X225792000Y-89641000D03*
%TD*%
D10*
%TO.C,J1*%
X222002000Y-91856000D03*
X222002000Y-89156000D03*
X217202000Y-91856000D03*
X217202000Y-89156000D03*
D11*
X216852000Y-91371000D03*
X218352000Y-91371000D03*
X218852000Y-91371000D03*
X219352000Y-91371000D03*
X219852000Y-91371000D03*
X220352000Y-91371000D03*
X220852000Y-91371000D03*
X222352000Y-91371000D03*
X222352000Y-89641000D03*
X220852000Y-89641000D03*
X220352000Y-89641000D03*
X219852000Y-89641000D03*
X219352000Y-89641000D03*
X218852000Y-89641000D03*
X218352000Y-89641000D03*
X216852000Y-89641000D03*
%TD*%
D10*
%TO.C,J1*%
X213062000Y-91856000D03*
X213062000Y-89156000D03*
X208262000Y-91856000D03*
X208262000Y-89156000D03*
D11*
X207912000Y-91371000D03*
X209412000Y-91371000D03*
X209912000Y-91371000D03*
X210412000Y-91371000D03*
X210912000Y-91371000D03*
X211412000Y-91371000D03*
X211912000Y-91371000D03*
X213412000Y-91371000D03*
X213412000Y-89641000D03*
X211912000Y-89641000D03*
X211412000Y-89641000D03*
X210912000Y-89641000D03*
X210412000Y-89641000D03*
X209912000Y-89641000D03*
X209412000Y-89641000D03*
X207912000Y-89641000D03*
%TD*%
D10*
%TO.C,J1*%
X204122000Y-91856000D03*
X204122000Y-89156000D03*
X199322000Y-91856000D03*
X199322000Y-89156000D03*
D11*
X198972000Y-91371000D03*
X200472000Y-91371000D03*
X200972000Y-91371000D03*
X201472000Y-91371000D03*
X201972000Y-91371000D03*
X202472000Y-91371000D03*
X202972000Y-91371000D03*
X204472000Y-91371000D03*
X204472000Y-89641000D03*
X202972000Y-89641000D03*
X202472000Y-89641000D03*
X201972000Y-89641000D03*
X201472000Y-89641000D03*
X200972000Y-89641000D03*
X200472000Y-89641000D03*
X198972000Y-89641000D03*
%TD*%
D10*
%TO.C,J1*%
X195182000Y-91856000D03*
X195182000Y-89156000D03*
X190382000Y-91856000D03*
X190382000Y-89156000D03*
D11*
X190032000Y-91371000D03*
X191532000Y-91371000D03*
X192032000Y-91371000D03*
X192532000Y-91371000D03*
X193032000Y-91371000D03*
X193532000Y-91371000D03*
X194032000Y-91371000D03*
X195532000Y-91371000D03*
X195532000Y-89641000D03*
X194032000Y-89641000D03*
X193532000Y-89641000D03*
X193032000Y-89641000D03*
X192532000Y-89641000D03*
X192032000Y-89641000D03*
X191532000Y-89641000D03*
X190032000Y-89641000D03*
%TD*%
D10*
%TO.C,J1*%
X186242000Y-91856000D03*
X186242000Y-89156000D03*
X181442000Y-91856000D03*
X181442000Y-89156000D03*
D11*
X181092000Y-91371000D03*
X182592000Y-91371000D03*
X183092000Y-91371000D03*
X183592000Y-91371000D03*
X184092000Y-91371000D03*
X184592000Y-91371000D03*
X185092000Y-91371000D03*
X186592000Y-91371000D03*
X186592000Y-89641000D03*
X185092000Y-89641000D03*
X184592000Y-89641000D03*
X184092000Y-89641000D03*
X183592000Y-89641000D03*
X183092000Y-89641000D03*
X182592000Y-89641000D03*
X181092000Y-89641000D03*
%TD*%
D10*
%TO.C,J1*%
X177302000Y-91856000D03*
X177302000Y-89156000D03*
X172502000Y-91856000D03*
X172502000Y-89156000D03*
D11*
X172152000Y-91371000D03*
X173652000Y-91371000D03*
X174152000Y-91371000D03*
X174652000Y-91371000D03*
X175152000Y-91371000D03*
X175652000Y-91371000D03*
X176152000Y-91371000D03*
X177652000Y-91371000D03*
X177652000Y-89641000D03*
X176152000Y-89641000D03*
X175652000Y-89641000D03*
X175152000Y-89641000D03*
X174652000Y-89641000D03*
X174152000Y-89641000D03*
X173652000Y-89641000D03*
X172152000Y-89641000D03*
%TD*%
D10*
%TO.C,J1*%
X168362000Y-91856000D03*
X168362000Y-89156000D03*
X163562000Y-91856000D03*
X163562000Y-89156000D03*
D11*
X163212000Y-91371000D03*
X164712000Y-91371000D03*
X165212000Y-91371000D03*
X165712000Y-91371000D03*
X166212000Y-91371000D03*
X166712000Y-91371000D03*
X167212000Y-91371000D03*
X168712000Y-91371000D03*
X168712000Y-89641000D03*
X167212000Y-89641000D03*
X166712000Y-89641000D03*
X166212000Y-89641000D03*
X165712000Y-89641000D03*
X165212000Y-89641000D03*
X164712000Y-89641000D03*
X163212000Y-89641000D03*
%TD*%
D10*
%TO.C,J1*%
X159422000Y-91856000D03*
X159422000Y-89156000D03*
X154622000Y-91856000D03*
X154622000Y-89156000D03*
D11*
X154272000Y-91371000D03*
X155772000Y-91371000D03*
X156272000Y-91371000D03*
X156772000Y-91371000D03*
X157272000Y-91371000D03*
X157772000Y-91371000D03*
X158272000Y-91371000D03*
X159772000Y-91371000D03*
X159772000Y-89641000D03*
X158272000Y-89641000D03*
X157772000Y-89641000D03*
X157272000Y-89641000D03*
X156772000Y-89641000D03*
X156272000Y-89641000D03*
X155772000Y-89641000D03*
X154272000Y-89641000D03*
%TD*%
D10*
%TO.C,J1*%
X150482000Y-91856000D03*
X150482000Y-89156000D03*
X145682000Y-91856000D03*
X145682000Y-89156000D03*
D11*
X145332000Y-91371000D03*
X146832000Y-91371000D03*
X147332000Y-91371000D03*
X147832000Y-91371000D03*
X148332000Y-91371000D03*
X148832000Y-91371000D03*
X149332000Y-91371000D03*
X150832000Y-91371000D03*
X150832000Y-89641000D03*
X149332000Y-89641000D03*
X148832000Y-89641000D03*
X148332000Y-89641000D03*
X147832000Y-89641000D03*
X147332000Y-89641000D03*
X146832000Y-89641000D03*
X145332000Y-89641000D03*
%TD*%
D10*
%TO.C,J1*%
X230942000Y-88696000D03*
X230942000Y-85996000D03*
X226142000Y-88696000D03*
X226142000Y-85996000D03*
D11*
X225792000Y-88211000D03*
X227292000Y-88211000D03*
X227792000Y-88211000D03*
X228292000Y-88211000D03*
X228792000Y-88211000D03*
X229292000Y-88211000D03*
X229792000Y-88211000D03*
X231292000Y-88211000D03*
X231292000Y-86481000D03*
X229792000Y-86481000D03*
X229292000Y-86481000D03*
X228792000Y-86481000D03*
X228292000Y-86481000D03*
X227792000Y-86481000D03*
X227292000Y-86481000D03*
X225792000Y-86481000D03*
%TD*%
D10*
%TO.C,J1*%
X222002000Y-88696000D03*
X222002000Y-85996000D03*
X217202000Y-88696000D03*
X217202000Y-85996000D03*
D11*
X216852000Y-88211000D03*
X218352000Y-88211000D03*
X218852000Y-88211000D03*
X219352000Y-88211000D03*
X219852000Y-88211000D03*
X220352000Y-88211000D03*
X220852000Y-88211000D03*
X222352000Y-88211000D03*
X222352000Y-86481000D03*
X220852000Y-86481000D03*
X220352000Y-86481000D03*
X219852000Y-86481000D03*
X219352000Y-86481000D03*
X218852000Y-86481000D03*
X218352000Y-86481000D03*
X216852000Y-86481000D03*
%TD*%
D10*
%TO.C,J1*%
X213062000Y-88696000D03*
X213062000Y-85996000D03*
X208262000Y-88696000D03*
X208262000Y-85996000D03*
D11*
X207912000Y-88211000D03*
X209412000Y-88211000D03*
X209912000Y-88211000D03*
X210412000Y-88211000D03*
X210912000Y-88211000D03*
X211412000Y-88211000D03*
X211912000Y-88211000D03*
X213412000Y-88211000D03*
X213412000Y-86481000D03*
X211912000Y-86481000D03*
X211412000Y-86481000D03*
X210912000Y-86481000D03*
X210412000Y-86481000D03*
X209912000Y-86481000D03*
X209412000Y-86481000D03*
X207912000Y-86481000D03*
%TD*%
D10*
%TO.C,J1*%
X204122000Y-88696000D03*
X204122000Y-85996000D03*
X199322000Y-88696000D03*
X199322000Y-85996000D03*
D11*
X198972000Y-88211000D03*
X200472000Y-88211000D03*
X200972000Y-88211000D03*
X201472000Y-88211000D03*
X201972000Y-88211000D03*
X202472000Y-88211000D03*
X202972000Y-88211000D03*
X204472000Y-88211000D03*
X204472000Y-86481000D03*
X202972000Y-86481000D03*
X202472000Y-86481000D03*
X201972000Y-86481000D03*
X201472000Y-86481000D03*
X200972000Y-86481000D03*
X200472000Y-86481000D03*
X198972000Y-86481000D03*
%TD*%
D10*
%TO.C,J1*%
X195182000Y-88696000D03*
X195182000Y-85996000D03*
X190382000Y-88696000D03*
X190382000Y-85996000D03*
D11*
X190032000Y-88211000D03*
X191532000Y-88211000D03*
X192032000Y-88211000D03*
X192532000Y-88211000D03*
X193032000Y-88211000D03*
X193532000Y-88211000D03*
X194032000Y-88211000D03*
X195532000Y-88211000D03*
X195532000Y-86481000D03*
X194032000Y-86481000D03*
X193532000Y-86481000D03*
X193032000Y-86481000D03*
X192532000Y-86481000D03*
X192032000Y-86481000D03*
X191532000Y-86481000D03*
X190032000Y-86481000D03*
%TD*%
D10*
%TO.C,J1*%
X186242000Y-88696000D03*
X186242000Y-85996000D03*
X181442000Y-88696000D03*
X181442000Y-85996000D03*
D11*
X181092000Y-88211000D03*
X182592000Y-88211000D03*
X183092000Y-88211000D03*
X183592000Y-88211000D03*
X184092000Y-88211000D03*
X184592000Y-88211000D03*
X185092000Y-88211000D03*
X186592000Y-88211000D03*
X186592000Y-86481000D03*
X185092000Y-86481000D03*
X184592000Y-86481000D03*
X184092000Y-86481000D03*
X183592000Y-86481000D03*
X183092000Y-86481000D03*
X182592000Y-86481000D03*
X181092000Y-86481000D03*
%TD*%
D10*
%TO.C,J1*%
X177302000Y-88696000D03*
X177302000Y-85996000D03*
X172502000Y-88696000D03*
X172502000Y-85996000D03*
D11*
X172152000Y-88211000D03*
X173652000Y-88211000D03*
X174152000Y-88211000D03*
X174652000Y-88211000D03*
X175152000Y-88211000D03*
X175652000Y-88211000D03*
X176152000Y-88211000D03*
X177652000Y-88211000D03*
X177652000Y-86481000D03*
X176152000Y-86481000D03*
X175652000Y-86481000D03*
X175152000Y-86481000D03*
X174652000Y-86481000D03*
X174152000Y-86481000D03*
X173652000Y-86481000D03*
X172152000Y-86481000D03*
%TD*%
D10*
%TO.C,J1*%
X168362000Y-88696000D03*
X168362000Y-85996000D03*
X163562000Y-88696000D03*
X163562000Y-85996000D03*
D11*
X163212000Y-88211000D03*
X164712000Y-88211000D03*
X165212000Y-88211000D03*
X165712000Y-88211000D03*
X166212000Y-88211000D03*
X166712000Y-88211000D03*
X167212000Y-88211000D03*
X168712000Y-88211000D03*
X168712000Y-86481000D03*
X167212000Y-86481000D03*
X166712000Y-86481000D03*
X166212000Y-86481000D03*
X165712000Y-86481000D03*
X165212000Y-86481000D03*
X164712000Y-86481000D03*
X163212000Y-86481000D03*
%TD*%
D10*
%TO.C,J1*%
X159422000Y-88696000D03*
X159422000Y-85996000D03*
X154622000Y-88696000D03*
X154622000Y-85996000D03*
D11*
X154272000Y-88211000D03*
X155772000Y-88211000D03*
X156272000Y-88211000D03*
X156772000Y-88211000D03*
X157272000Y-88211000D03*
X157772000Y-88211000D03*
X158272000Y-88211000D03*
X159772000Y-88211000D03*
X159772000Y-86481000D03*
X158272000Y-86481000D03*
X157772000Y-86481000D03*
X157272000Y-86481000D03*
X156772000Y-86481000D03*
X156272000Y-86481000D03*
X155772000Y-86481000D03*
X154272000Y-86481000D03*
%TD*%
D10*
%TO.C,J1*%
X150482000Y-88696000D03*
X150482000Y-85996000D03*
X145682000Y-88696000D03*
X145682000Y-85996000D03*
D11*
X145332000Y-88211000D03*
X146832000Y-88211000D03*
X147332000Y-88211000D03*
X147832000Y-88211000D03*
X148332000Y-88211000D03*
X148832000Y-88211000D03*
X149332000Y-88211000D03*
X150832000Y-88211000D03*
X150832000Y-86481000D03*
X149332000Y-86481000D03*
X148832000Y-86481000D03*
X148332000Y-86481000D03*
X147832000Y-86481000D03*
X147332000Y-86481000D03*
X146832000Y-86481000D03*
X145332000Y-86481000D03*
%TD*%
D10*
%TO.C,J1*%
X230942000Y-85536000D03*
X230942000Y-82836000D03*
X226142000Y-85536000D03*
X226142000Y-82836000D03*
D11*
X225792000Y-85051000D03*
X227292000Y-85051000D03*
X227792000Y-85051000D03*
X228292000Y-85051000D03*
X228792000Y-85051000D03*
X229292000Y-85051000D03*
X229792000Y-85051000D03*
X231292000Y-85051000D03*
X231292000Y-83321000D03*
X229792000Y-83321000D03*
X229292000Y-83321000D03*
X228792000Y-83321000D03*
X228292000Y-83321000D03*
X227792000Y-83321000D03*
X227292000Y-83321000D03*
X225792000Y-83321000D03*
%TD*%
D10*
%TO.C,J1*%
X222002000Y-85536000D03*
X222002000Y-82836000D03*
X217202000Y-85536000D03*
X217202000Y-82836000D03*
D11*
X216852000Y-85051000D03*
X218352000Y-85051000D03*
X218852000Y-85051000D03*
X219352000Y-85051000D03*
X219852000Y-85051000D03*
X220352000Y-85051000D03*
X220852000Y-85051000D03*
X222352000Y-85051000D03*
X222352000Y-83321000D03*
X220852000Y-83321000D03*
X220352000Y-83321000D03*
X219852000Y-83321000D03*
X219352000Y-83321000D03*
X218852000Y-83321000D03*
X218352000Y-83321000D03*
X216852000Y-83321000D03*
%TD*%
D10*
%TO.C,J1*%
X213062000Y-85536000D03*
X213062000Y-82836000D03*
X208262000Y-85536000D03*
X208262000Y-82836000D03*
D11*
X207912000Y-85051000D03*
X209412000Y-85051000D03*
X209912000Y-85051000D03*
X210412000Y-85051000D03*
X210912000Y-85051000D03*
X211412000Y-85051000D03*
X211912000Y-85051000D03*
X213412000Y-85051000D03*
X213412000Y-83321000D03*
X211912000Y-83321000D03*
X211412000Y-83321000D03*
X210912000Y-83321000D03*
X210412000Y-83321000D03*
X209912000Y-83321000D03*
X209412000Y-83321000D03*
X207912000Y-83321000D03*
%TD*%
D10*
%TO.C,J1*%
X204122000Y-85536000D03*
X204122000Y-82836000D03*
X199322000Y-85536000D03*
X199322000Y-82836000D03*
D11*
X198972000Y-85051000D03*
X200472000Y-85051000D03*
X200972000Y-85051000D03*
X201472000Y-85051000D03*
X201972000Y-85051000D03*
X202472000Y-85051000D03*
X202972000Y-85051000D03*
X204472000Y-85051000D03*
X204472000Y-83321000D03*
X202972000Y-83321000D03*
X202472000Y-83321000D03*
X201972000Y-83321000D03*
X201472000Y-83321000D03*
X200972000Y-83321000D03*
X200472000Y-83321000D03*
X198972000Y-83321000D03*
%TD*%
D10*
%TO.C,J1*%
X195182000Y-85536000D03*
X195182000Y-82836000D03*
X190382000Y-85536000D03*
X190382000Y-82836000D03*
D11*
X190032000Y-85051000D03*
X191532000Y-85051000D03*
X192032000Y-85051000D03*
X192532000Y-85051000D03*
X193032000Y-85051000D03*
X193532000Y-85051000D03*
X194032000Y-85051000D03*
X195532000Y-85051000D03*
X195532000Y-83321000D03*
X194032000Y-83321000D03*
X193532000Y-83321000D03*
X193032000Y-83321000D03*
X192532000Y-83321000D03*
X192032000Y-83321000D03*
X191532000Y-83321000D03*
X190032000Y-83321000D03*
%TD*%
D10*
%TO.C,J1*%
X186242000Y-85536000D03*
X186242000Y-82836000D03*
X181442000Y-85536000D03*
X181442000Y-82836000D03*
D11*
X181092000Y-85051000D03*
X182592000Y-85051000D03*
X183092000Y-85051000D03*
X183592000Y-85051000D03*
X184092000Y-85051000D03*
X184592000Y-85051000D03*
X185092000Y-85051000D03*
X186592000Y-85051000D03*
X186592000Y-83321000D03*
X185092000Y-83321000D03*
X184592000Y-83321000D03*
X184092000Y-83321000D03*
X183592000Y-83321000D03*
X183092000Y-83321000D03*
X182592000Y-83321000D03*
X181092000Y-83321000D03*
%TD*%
D10*
%TO.C,J1*%
X177302000Y-85536000D03*
X177302000Y-82836000D03*
X172502000Y-85536000D03*
X172502000Y-82836000D03*
D11*
X172152000Y-85051000D03*
X173652000Y-85051000D03*
X174152000Y-85051000D03*
X174652000Y-85051000D03*
X175152000Y-85051000D03*
X175652000Y-85051000D03*
X176152000Y-85051000D03*
X177652000Y-85051000D03*
X177652000Y-83321000D03*
X176152000Y-83321000D03*
X175652000Y-83321000D03*
X175152000Y-83321000D03*
X174652000Y-83321000D03*
X174152000Y-83321000D03*
X173652000Y-83321000D03*
X172152000Y-83321000D03*
%TD*%
D10*
%TO.C,J1*%
X168362000Y-85536000D03*
X168362000Y-82836000D03*
X163562000Y-85536000D03*
X163562000Y-82836000D03*
D11*
X163212000Y-85051000D03*
X164712000Y-85051000D03*
X165212000Y-85051000D03*
X165712000Y-85051000D03*
X166212000Y-85051000D03*
X166712000Y-85051000D03*
X167212000Y-85051000D03*
X168712000Y-85051000D03*
X168712000Y-83321000D03*
X167212000Y-83321000D03*
X166712000Y-83321000D03*
X166212000Y-83321000D03*
X165712000Y-83321000D03*
X165212000Y-83321000D03*
X164712000Y-83321000D03*
X163212000Y-83321000D03*
%TD*%
D10*
%TO.C,J1*%
X159422000Y-85536000D03*
X159422000Y-82836000D03*
X154622000Y-85536000D03*
X154622000Y-82836000D03*
D11*
X154272000Y-85051000D03*
X155772000Y-85051000D03*
X156272000Y-85051000D03*
X156772000Y-85051000D03*
X157272000Y-85051000D03*
X157772000Y-85051000D03*
X158272000Y-85051000D03*
X159772000Y-85051000D03*
X159772000Y-83321000D03*
X158272000Y-83321000D03*
X157772000Y-83321000D03*
X157272000Y-83321000D03*
X156772000Y-83321000D03*
X156272000Y-83321000D03*
X155772000Y-83321000D03*
X154272000Y-83321000D03*
%TD*%
D10*
%TO.C,J1*%
X150482000Y-85536000D03*
X150482000Y-82836000D03*
X145682000Y-85536000D03*
X145682000Y-82836000D03*
D11*
X145332000Y-85051000D03*
X146832000Y-85051000D03*
X147332000Y-85051000D03*
X147832000Y-85051000D03*
X148332000Y-85051000D03*
X148832000Y-85051000D03*
X149332000Y-85051000D03*
X150832000Y-85051000D03*
X150832000Y-83321000D03*
X149332000Y-83321000D03*
X148832000Y-83321000D03*
X148332000Y-83321000D03*
X147832000Y-83321000D03*
X147332000Y-83321000D03*
X146832000Y-83321000D03*
X145332000Y-83321000D03*
%TD*%
D10*
%TO.C,J1*%
X230942000Y-82376000D03*
X230942000Y-79676000D03*
X226142000Y-82376000D03*
X226142000Y-79676000D03*
D11*
X225792000Y-81891000D03*
X227292000Y-81891000D03*
X227792000Y-81891000D03*
X228292000Y-81891000D03*
X228792000Y-81891000D03*
X229292000Y-81891000D03*
X229792000Y-81891000D03*
X231292000Y-81891000D03*
X231292000Y-80161000D03*
X229792000Y-80161000D03*
X229292000Y-80161000D03*
X228792000Y-80161000D03*
X228292000Y-80161000D03*
X227792000Y-80161000D03*
X227292000Y-80161000D03*
X225792000Y-80161000D03*
%TD*%
D10*
%TO.C,J1*%
X222002000Y-82376000D03*
X222002000Y-79676000D03*
X217202000Y-82376000D03*
X217202000Y-79676000D03*
D11*
X216852000Y-81891000D03*
X218352000Y-81891000D03*
X218852000Y-81891000D03*
X219352000Y-81891000D03*
X219852000Y-81891000D03*
X220352000Y-81891000D03*
X220852000Y-81891000D03*
X222352000Y-81891000D03*
X222352000Y-80161000D03*
X220852000Y-80161000D03*
X220352000Y-80161000D03*
X219852000Y-80161000D03*
X219352000Y-80161000D03*
X218852000Y-80161000D03*
X218352000Y-80161000D03*
X216852000Y-80161000D03*
%TD*%
D10*
%TO.C,J1*%
X213062000Y-82376000D03*
X213062000Y-79676000D03*
X208262000Y-82376000D03*
X208262000Y-79676000D03*
D11*
X207912000Y-81891000D03*
X209412000Y-81891000D03*
X209912000Y-81891000D03*
X210412000Y-81891000D03*
X210912000Y-81891000D03*
X211412000Y-81891000D03*
X211912000Y-81891000D03*
X213412000Y-81891000D03*
X213412000Y-80161000D03*
X211912000Y-80161000D03*
X211412000Y-80161000D03*
X210912000Y-80161000D03*
X210412000Y-80161000D03*
X209912000Y-80161000D03*
X209412000Y-80161000D03*
X207912000Y-80161000D03*
%TD*%
D10*
%TO.C,J1*%
X204122000Y-82376000D03*
X204122000Y-79676000D03*
X199322000Y-82376000D03*
X199322000Y-79676000D03*
D11*
X198972000Y-81891000D03*
X200472000Y-81891000D03*
X200972000Y-81891000D03*
X201472000Y-81891000D03*
X201972000Y-81891000D03*
X202472000Y-81891000D03*
X202972000Y-81891000D03*
X204472000Y-81891000D03*
X204472000Y-80161000D03*
X202972000Y-80161000D03*
X202472000Y-80161000D03*
X201972000Y-80161000D03*
X201472000Y-80161000D03*
X200972000Y-80161000D03*
X200472000Y-80161000D03*
X198972000Y-80161000D03*
%TD*%
D10*
%TO.C,J1*%
X195182000Y-82376000D03*
X195182000Y-79676000D03*
X190382000Y-82376000D03*
X190382000Y-79676000D03*
D11*
X190032000Y-81891000D03*
X191532000Y-81891000D03*
X192032000Y-81891000D03*
X192532000Y-81891000D03*
X193032000Y-81891000D03*
X193532000Y-81891000D03*
X194032000Y-81891000D03*
X195532000Y-81891000D03*
X195532000Y-80161000D03*
X194032000Y-80161000D03*
X193532000Y-80161000D03*
X193032000Y-80161000D03*
X192532000Y-80161000D03*
X192032000Y-80161000D03*
X191532000Y-80161000D03*
X190032000Y-80161000D03*
%TD*%
D10*
%TO.C,J1*%
X186242000Y-82376000D03*
X186242000Y-79676000D03*
X181442000Y-82376000D03*
X181442000Y-79676000D03*
D11*
X181092000Y-81891000D03*
X182592000Y-81891000D03*
X183092000Y-81891000D03*
X183592000Y-81891000D03*
X184092000Y-81891000D03*
X184592000Y-81891000D03*
X185092000Y-81891000D03*
X186592000Y-81891000D03*
X186592000Y-80161000D03*
X185092000Y-80161000D03*
X184592000Y-80161000D03*
X184092000Y-80161000D03*
X183592000Y-80161000D03*
X183092000Y-80161000D03*
X182592000Y-80161000D03*
X181092000Y-80161000D03*
%TD*%
D10*
%TO.C,J1*%
X177302000Y-82376000D03*
X177302000Y-79676000D03*
X172502000Y-82376000D03*
X172502000Y-79676000D03*
D11*
X172152000Y-81891000D03*
X173652000Y-81891000D03*
X174152000Y-81891000D03*
X174652000Y-81891000D03*
X175152000Y-81891000D03*
X175652000Y-81891000D03*
X176152000Y-81891000D03*
X177652000Y-81891000D03*
X177652000Y-80161000D03*
X176152000Y-80161000D03*
X175652000Y-80161000D03*
X175152000Y-80161000D03*
X174652000Y-80161000D03*
X174152000Y-80161000D03*
X173652000Y-80161000D03*
X172152000Y-80161000D03*
%TD*%
D10*
%TO.C,J1*%
X168362000Y-82376000D03*
X168362000Y-79676000D03*
X163562000Y-82376000D03*
X163562000Y-79676000D03*
D11*
X163212000Y-81891000D03*
X164712000Y-81891000D03*
X165212000Y-81891000D03*
X165712000Y-81891000D03*
X166212000Y-81891000D03*
X166712000Y-81891000D03*
X167212000Y-81891000D03*
X168712000Y-81891000D03*
X168712000Y-80161000D03*
X167212000Y-80161000D03*
X166712000Y-80161000D03*
X166212000Y-80161000D03*
X165712000Y-80161000D03*
X165212000Y-80161000D03*
X164712000Y-80161000D03*
X163212000Y-80161000D03*
%TD*%
D10*
%TO.C,J1*%
X159422000Y-82376000D03*
X159422000Y-79676000D03*
X154622000Y-82376000D03*
X154622000Y-79676000D03*
D11*
X154272000Y-81891000D03*
X155772000Y-81891000D03*
X156272000Y-81891000D03*
X156772000Y-81891000D03*
X157272000Y-81891000D03*
X157772000Y-81891000D03*
X158272000Y-81891000D03*
X159772000Y-81891000D03*
X159772000Y-80161000D03*
X158272000Y-80161000D03*
X157772000Y-80161000D03*
X157272000Y-80161000D03*
X156772000Y-80161000D03*
X156272000Y-80161000D03*
X155772000Y-80161000D03*
X154272000Y-80161000D03*
%TD*%
D10*
%TO.C,J1*%
X150482000Y-82376000D03*
X150482000Y-79676000D03*
X145682000Y-82376000D03*
X145682000Y-79676000D03*
D11*
X145332000Y-81891000D03*
X146832000Y-81891000D03*
X147332000Y-81891000D03*
X147832000Y-81891000D03*
X148332000Y-81891000D03*
X148832000Y-81891000D03*
X149332000Y-81891000D03*
X150832000Y-81891000D03*
X150832000Y-80161000D03*
X149332000Y-80161000D03*
X148832000Y-80161000D03*
X148332000Y-80161000D03*
X147832000Y-80161000D03*
X147332000Y-80161000D03*
X146832000Y-80161000D03*
X145332000Y-80161000D03*
%TD*%
M02*
