%TF.GenerationSoftware,KiCad,Pcbnew,(6.0.7)*%
%TF.CreationDate,2023-04-05T23:06:48+08:00*%
%TF.ProjectId,MicroUSB2TypeC,4d696372-6f55-4534-9232-54797065432e,rev?*%
%TF.SameCoordinates,Original*%
%TF.FileFunction,Soldermask,Top*%
%TF.FilePolarity,Negative*%
%FSLAX46Y46*%
G04 Gerber Fmt 4.6, Leading zero omitted, Abs format (unit mm)*
G04 Created by KiCad (PCBNEW (6.0.7)) date 2023-04-05 23:06:48*
%MOMM*%
%LPD*%
G01*
G04 APERTURE LIST*
G04 Aperture macros list*
%AMRoundRect*
0 Rectangle with rounded corners*
0 $1 Rounding radius*
0 $2 $3 $4 $5 $6 $7 $8 $9 X,Y pos of 4 corners*
0 Add a 4 corners polygon primitive as box body*
4,1,4,$2,$3,$4,$5,$6,$7,$8,$9,$2,$3,0*
0 Add four circle primitives for the rounded corners*
1,1,$1+$1,$2,$3*
1,1,$1+$1,$4,$5*
1,1,$1+$1,$6,$7*
1,1,$1+$1,$8,$9*
0 Add four rect primitives between the rounded corners*
20,1,$1+$1,$2,$3,$4,$5,0*
20,1,$1+$1,$4,$5,$6,$7,0*
20,1,$1+$1,$6,$7,$8,$9,0*
20,1,$1+$1,$8,$9,$2,$3,0*%
G04 Aperture macros list end*
%ADD10RoundRect,0.075000X-0.075000X-0.360000X0.075000X-0.360000X0.075000X0.360000X-0.075000X0.360000X0*%
%ADD11R,0.900000X0.500000*%
G04 APERTURE END LIST*
D10*
%TO.C,J1*%
X181092000Y-92801000D03*
X182592000Y-92801000D03*
X183092000Y-92801000D03*
X183592000Y-92801000D03*
X184092000Y-92801000D03*
X184592000Y-92801000D03*
X185092000Y-92801000D03*
X186592000Y-92801000D03*
X186592000Y-94531000D03*
X185092000Y-94531000D03*
X184592000Y-94531000D03*
X184092000Y-94531000D03*
X183592000Y-94531000D03*
X183092000Y-94531000D03*
X182592000Y-94531000D03*
X181092000Y-94531000D03*
D11*
X181442000Y-92316000D03*
X181442000Y-95016000D03*
X186242000Y-92316000D03*
X186242000Y-95016000D03*
%TD*%
D10*
%TO.C,J1*%
X172152000Y-92801000D03*
X173652000Y-92801000D03*
X174152000Y-92801000D03*
X174652000Y-92801000D03*
X175152000Y-92801000D03*
X175652000Y-92801000D03*
X176152000Y-92801000D03*
X177652000Y-92801000D03*
X177652000Y-94531000D03*
X176152000Y-94531000D03*
X175652000Y-94531000D03*
X175152000Y-94531000D03*
X174652000Y-94531000D03*
X174152000Y-94531000D03*
X173652000Y-94531000D03*
X172152000Y-94531000D03*
D11*
X172502000Y-92316000D03*
X172502000Y-95016000D03*
X177302000Y-92316000D03*
X177302000Y-95016000D03*
%TD*%
D10*
%TO.C,J1*%
X163212000Y-92801000D03*
X164712000Y-92801000D03*
X165212000Y-92801000D03*
X165712000Y-92801000D03*
X166212000Y-92801000D03*
X166712000Y-92801000D03*
X167212000Y-92801000D03*
X168712000Y-92801000D03*
X168712000Y-94531000D03*
X167212000Y-94531000D03*
X166712000Y-94531000D03*
X166212000Y-94531000D03*
X165712000Y-94531000D03*
X165212000Y-94531000D03*
X164712000Y-94531000D03*
X163212000Y-94531000D03*
D11*
X163562000Y-92316000D03*
X163562000Y-95016000D03*
X168362000Y-92316000D03*
X168362000Y-95016000D03*
%TD*%
D10*
%TO.C,J1*%
X154272000Y-92801000D03*
X155772000Y-92801000D03*
X156272000Y-92801000D03*
X156772000Y-92801000D03*
X157272000Y-92801000D03*
X157772000Y-92801000D03*
X158272000Y-92801000D03*
X159772000Y-92801000D03*
X159772000Y-94531000D03*
X158272000Y-94531000D03*
X157772000Y-94531000D03*
X157272000Y-94531000D03*
X156772000Y-94531000D03*
X156272000Y-94531000D03*
X155772000Y-94531000D03*
X154272000Y-94531000D03*
D11*
X154622000Y-92316000D03*
X154622000Y-95016000D03*
X159422000Y-92316000D03*
X159422000Y-95016000D03*
%TD*%
D10*
%TO.C,J1*%
X145332000Y-92801000D03*
X146832000Y-92801000D03*
X147332000Y-92801000D03*
X147832000Y-92801000D03*
X148332000Y-92801000D03*
X148832000Y-92801000D03*
X149332000Y-92801000D03*
X150832000Y-92801000D03*
X150832000Y-94531000D03*
X149332000Y-94531000D03*
X148832000Y-94531000D03*
X148332000Y-94531000D03*
X147832000Y-94531000D03*
X147332000Y-94531000D03*
X146832000Y-94531000D03*
X145332000Y-94531000D03*
D11*
X145682000Y-92316000D03*
X145682000Y-95016000D03*
X150482000Y-92316000D03*
X150482000Y-95016000D03*
%TD*%
D10*
%TO.C,J1*%
X181092000Y-89641000D03*
X182592000Y-89641000D03*
X183092000Y-89641000D03*
X183592000Y-89641000D03*
X184092000Y-89641000D03*
X184592000Y-89641000D03*
X185092000Y-89641000D03*
X186592000Y-89641000D03*
X186592000Y-91371000D03*
X185092000Y-91371000D03*
X184592000Y-91371000D03*
X184092000Y-91371000D03*
X183592000Y-91371000D03*
X183092000Y-91371000D03*
X182592000Y-91371000D03*
X181092000Y-91371000D03*
D11*
X181442000Y-89156000D03*
X181442000Y-91856000D03*
X186242000Y-89156000D03*
X186242000Y-91856000D03*
%TD*%
D10*
%TO.C,J1*%
X172152000Y-89641000D03*
X173652000Y-89641000D03*
X174152000Y-89641000D03*
X174652000Y-89641000D03*
X175152000Y-89641000D03*
X175652000Y-89641000D03*
X176152000Y-89641000D03*
X177652000Y-89641000D03*
X177652000Y-91371000D03*
X176152000Y-91371000D03*
X175652000Y-91371000D03*
X175152000Y-91371000D03*
X174652000Y-91371000D03*
X174152000Y-91371000D03*
X173652000Y-91371000D03*
X172152000Y-91371000D03*
D11*
X172502000Y-89156000D03*
X172502000Y-91856000D03*
X177302000Y-89156000D03*
X177302000Y-91856000D03*
%TD*%
D10*
%TO.C,J1*%
X163212000Y-89641000D03*
X164712000Y-89641000D03*
X165212000Y-89641000D03*
X165712000Y-89641000D03*
X166212000Y-89641000D03*
X166712000Y-89641000D03*
X167212000Y-89641000D03*
X168712000Y-89641000D03*
X168712000Y-91371000D03*
X167212000Y-91371000D03*
X166712000Y-91371000D03*
X166212000Y-91371000D03*
X165712000Y-91371000D03*
X165212000Y-91371000D03*
X164712000Y-91371000D03*
X163212000Y-91371000D03*
D11*
X163562000Y-89156000D03*
X163562000Y-91856000D03*
X168362000Y-89156000D03*
X168362000Y-91856000D03*
%TD*%
D10*
%TO.C,J1*%
X154272000Y-89641000D03*
X155772000Y-89641000D03*
X156272000Y-89641000D03*
X156772000Y-89641000D03*
X157272000Y-89641000D03*
X157772000Y-89641000D03*
X158272000Y-89641000D03*
X159772000Y-89641000D03*
X159772000Y-91371000D03*
X158272000Y-91371000D03*
X157772000Y-91371000D03*
X157272000Y-91371000D03*
X156772000Y-91371000D03*
X156272000Y-91371000D03*
X155772000Y-91371000D03*
X154272000Y-91371000D03*
D11*
X154622000Y-89156000D03*
X154622000Y-91856000D03*
X159422000Y-89156000D03*
X159422000Y-91856000D03*
%TD*%
D10*
%TO.C,J1*%
X145332000Y-89641000D03*
X146832000Y-89641000D03*
X147332000Y-89641000D03*
X147832000Y-89641000D03*
X148332000Y-89641000D03*
X148832000Y-89641000D03*
X149332000Y-89641000D03*
X150832000Y-89641000D03*
X150832000Y-91371000D03*
X149332000Y-91371000D03*
X148832000Y-91371000D03*
X148332000Y-91371000D03*
X147832000Y-91371000D03*
X147332000Y-91371000D03*
X146832000Y-91371000D03*
X145332000Y-91371000D03*
D11*
X145682000Y-89156000D03*
X145682000Y-91856000D03*
X150482000Y-89156000D03*
X150482000Y-91856000D03*
%TD*%
D10*
%TO.C,J1*%
X181092000Y-86481000D03*
X182592000Y-86481000D03*
X183092000Y-86481000D03*
X183592000Y-86481000D03*
X184092000Y-86481000D03*
X184592000Y-86481000D03*
X185092000Y-86481000D03*
X186592000Y-86481000D03*
X186592000Y-88211000D03*
X185092000Y-88211000D03*
X184592000Y-88211000D03*
X184092000Y-88211000D03*
X183592000Y-88211000D03*
X183092000Y-88211000D03*
X182592000Y-88211000D03*
X181092000Y-88211000D03*
D11*
X181442000Y-85996000D03*
X181442000Y-88696000D03*
X186242000Y-85996000D03*
X186242000Y-88696000D03*
%TD*%
D10*
%TO.C,J1*%
X172152000Y-86481000D03*
X173652000Y-86481000D03*
X174152000Y-86481000D03*
X174652000Y-86481000D03*
X175152000Y-86481000D03*
X175652000Y-86481000D03*
X176152000Y-86481000D03*
X177652000Y-86481000D03*
X177652000Y-88211000D03*
X176152000Y-88211000D03*
X175652000Y-88211000D03*
X175152000Y-88211000D03*
X174652000Y-88211000D03*
X174152000Y-88211000D03*
X173652000Y-88211000D03*
X172152000Y-88211000D03*
D11*
X172502000Y-85996000D03*
X172502000Y-88696000D03*
X177302000Y-85996000D03*
X177302000Y-88696000D03*
%TD*%
D10*
%TO.C,J1*%
X163212000Y-86481000D03*
X164712000Y-86481000D03*
X165212000Y-86481000D03*
X165712000Y-86481000D03*
X166212000Y-86481000D03*
X166712000Y-86481000D03*
X167212000Y-86481000D03*
X168712000Y-86481000D03*
X168712000Y-88211000D03*
X167212000Y-88211000D03*
X166712000Y-88211000D03*
X166212000Y-88211000D03*
X165712000Y-88211000D03*
X165212000Y-88211000D03*
X164712000Y-88211000D03*
X163212000Y-88211000D03*
D11*
X163562000Y-85996000D03*
X163562000Y-88696000D03*
X168362000Y-85996000D03*
X168362000Y-88696000D03*
%TD*%
D10*
%TO.C,J1*%
X154272000Y-86481000D03*
X155772000Y-86481000D03*
X156272000Y-86481000D03*
X156772000Y-86481000D03*
X157272000Y-86481000D03*
X157772000Y-86481000D03*
X158272000Y-86481000D03*
X159772000Y-86481000D03*
X159772000Y-88211000D03*
X158272000Y-88211000D03*
X157772000Y-88211000D03*
X157272000Y-88211000D03*
X156772000Y-88211000D03*
X156272000Y-88211000D03*
X155772000Y-88211000D03*
X154272000Y-88211000D03*
D11*
X154622000Y-85996000D03*
X154622000Y-88696000D03*
X159422000Y-85996000D03*
X159422000Y-88696000D03*
%TD*%
D10*
%TO.C,J1*%
X145332000Y-86481000D03*
X146832000Y-86481000D03*
X147332000Y-86481000D03*
X147832000Y-86481000D03*
X148332000Y-86481000D03*
X148832000Y-86481000D03*
X149332000Y-86481000D03*
X150832000Y-86481000D03*
X150832000Y-88211000D03*
X149332000Y-88211000D03*
X148832000Y-88211000D03*
X148332000Y-88211000D03*
X147832000Y-88211000D03*
X147332000Y-88211000D03*
X146832000Y-88211000D03*
X145332000Y-88211000D03*
D11*
X145682000Y-85996000D03*
X145682000Y-88696000D03*
X150482000Y-85996000D03*
X150482000Y-88696000D03*
%TD*%
D10*
%TO.C,J1*%
X181092000Y-83321000D03*
X182592000Y-83321000D03*
X183092000Y-83321000D03*
X183592000Y-83321000D03*
X184092000Y-83321000D03*
X184592000Y-83321000D03*
X185092000Y-83321000D03*
X186592000Y-83321000D03*
X186592000Y-85051000D03*
X185092000Y-85051000D03*
X184592000Y-85051000D03*
X184092000Y-85051000D03*
X183592000Y-85051000D03*
X183092000Y-85051000D03*
X182592000Y-85051000D03*
X181092000Y-85051000D03*
D11*
X181442000Y-82836000D03*
X181442000Y-85536000D03*
X186242000Y-82836000D03*
X186242000Y-85536000D03*
%TD*%
D10*
%TO.C,J1*%
X172152000Y-83321000D03*
X173652000Y-83321000D03*
X174152000Y-83321000D03*
X174652000Y-83321000D03*
X175152000Y-83321000D03*
X175652000Y-83321000D03*
X176152000Y-83321000D03*
X177652000Y-83321000D03*
X177652000Y-85051000D03*
X176152000Y-85051000D03*
X175652000Y-85051000D03*
X175152000Y-85051000D03*
X174652000Y-85051000D03*
X174152000Y-85051000D03*
X173652000Y-85051000D03*
X172152000Y-85051000D03*
D11*
X172502000Y-82836000D03*
X172502000Y-85536000D03*
X177302000Y-82836000D03*
X177302000Y-85536000D03*
%TD*%
D10*
%TO.C,J1*%
X163212000Y-83321000D03*
X164712000Y-83321000D03*
X165212000Y-83321000D03*
X165712000Y-83321000D03*
X166212000Y-83321000D03*
X166712000Y-83321000D03*
X167212000Y-83321000D03*
X168712000Y-83321000D03*
X168712000Y-85051000D03*
X167212000Y-85051000D03*
X166712000Y-85051000D03*
X166212000Y-85051000D03*
X165712000Y-85051000D03*
X165212000Y-85051000D03*
X164712000Y-85051000D03*
X163212000Y-85051000D03*
D11*
X163562000Y-82836000D03*
X163562000Y-85536000D03*
X168362000Y-82836000D03*
X168362000Y-85536000D03*
%TD*%
D10*
%TO.C,J1*%
X154272000Y-83321000D03*
X155772000Y-83321000D03*
X156272000Y-83321000D03*
X156772000Y-83321000D03*
X157272000Y-83321000D03*
X157772000Y-83321000D03*
X158272000Y-83321000D03*
X159772000Y-83321000D03*
X159772000Y-85051000D03*
X158272000Y-85051000D03*
X157772000Y-85051000D03*
X157272000Y-85051000D03*
X156772000Y-85051000D03*
X156272000Y-85051000D03*
X155772000Y-85051000D03*
X154272000Y-85051000D03*
D11*
X154622000Y-82836000D03*
X154622000Y-85536000D03*
X159422000Y-82836000D03*
X159422000Y-85536000D03*
%TD*%
D10*
%TO.C,J1*%
X145332000Y-83321000D03*
X146832000Y-83321000D03*
X147332000Y-83321000D03*
X147832000Y-83321000D03*
X148332000Y-83321000D03*
X148832000Y-83321000D03*
X149332000Y-83321000D03*
X150832000Y-83321000D03*
X150832000Y-85051000D03*
X149332000Y-85051000D03*
X148832000Y-85051000D03*
X148332000Y-85051000D03*
X147832000Y-85051000D03*
X147332000Y-85051000D03*
X146832000Y-85051000D03*
X145332000Y-85051000D03*
D11*
X145682000Y-82836000D03*
X145682000Y-85536000D03*
X150482000Y-82836000D03*
X150482000Y-85536000D03*
%TD*%
D10*
%TO.C,J1*%
X181092000Y-80161000D03*
X182592000Y-80161000D03*
X183092000Y-80161000D03*
X183592000Y-80161000D03*
X184092000Y-80161000D03*
X184592000Y-80161000D03*
X185092000Y-80161000D03*
X186592000Y-80161000D03*
X186592000Y-81891000D03*
X185092000Y-81891000D03*
X184592000Y-81891000D03*
X184092000Y-81891000D03*
X183592000Y-81891000D03*
X183092000Y-81891000D03*
X182592000Y-81891000D03*
X181092000Y-81891000D03*
D11*
X181442000Y-79676000D03*
X181442000Y-82376000D03*
X186242000Y-79676000D03*
X186242000Y-82376000D03*
%TD*%
D10*
%TO.C,J1*%
X172152000Y-80161000D03*
X173652000Y-80161000D03*
X174152000Y-80161000D03*
X174652000Y-80161000D03*
X175152000Y-80161000D03*
X175652000Y-80161000D03*
X176152000Y-80161000D03*
X177652000Y-80161000D03*
X177652000Y-81891000D03*
X176152000Y-81891000D03*
X175652000Y-81891000D03*
X175152000Y-81891000D03*
X174652000Y-81891000D03*
X174152000Y-81891000D03*
X173652000Y-81891000D03*
X172152000Y-81891000D03*
D11*
X172502000Y-79676000D03*
X172502000Y-82376000D03*
X177302000Y-79676000D03*
X177302000Y-82376000D03*
%TD*%
D10*
%TO.C,J1*%
X163212000Y-80161000D03*
X164712000Y-80161000D03*
X165212000Y-80161000D03*
X165712000Y-80161000D03*
X166212000Y-80161000D03*
X166712000Y-80161000D03*
X167212000Y-80161000D03*
X168712000Y-80161000D03*
X168712000Y-81891000D03*
X167212000Y-81891000D03*
X166712000Y-81891000D03*
X166212000Y-81891000D03*
X165712000Y-81891000D03*
X165212000Y-81891000D03*
X164712000Y-81891000D03*
X163212000Y-81891000D03*
D11*
X163562000Y-79676000D03*
X163562000Y-82376000D03*
X168362000Y-79676000D03*
X168362000Y-82376000D03*
%TD*%
D10*
%TO.C,J1*%
X154272000Y-80161000D03*
X155772000Y-80161000D03*
X156272000Y-80161000D03*
X156772000Y-80161000D03*
X157272000Y-80161000D03*
X157772000Y-80161000D03*
X158272000Y-80161000D03*
X159772000Y-80161000D03*
X159772000Y-81891000D03*
X158272000Y-81891000D03*
X157772000Y-81891000D03*
X157272000Y-81891000D03*
X156772000Y-81891000D03*
X156272000Y-81891000D03*
X155772000Y-81891000D03*
X154272000Y-81891000D03*
D11*
X154622000Y-79676000D03*
X154622000Y-82376000D03*
X159422000Y-79676000D03*
X159422000Y-82376000D03*
%TD*%
D10*
%TO.C,J1*%
X145332000Y-80161000D03*
X146832000Y-80161000D03*
X147332000Y-80161000D03*
X147832000Y-80161000D03*
X148332000Y-80161000D03*
X148832000Y-80161000D03*
X149332000Y-80161000D03*
X150832000Y-80161000D03*
X150832000Y-81891000D03*
X149332000Y-81891000D03*
X148832000Y-81891000D03*
X148332000Y-81891000D03*
X147832000Y-81891000D03*
X147332000Y-81891000D03*
X146832000Y-81891000D03*
X145332000Y-81891000D03*
D11*
X145682000Y-79676000D03*
X145682000Y-82376000D03*
X150482000Y-79676000D03*
X150482000Y-82376000D03*
%TD*%
M02*
